<?xml version="1.0" standalone="no"?>
 <!DOCTYPE svg PUBLIC "-//W3C//DTD SVG 1.1//EN" 
 "http://www.w3.org/Graphics/SVG/1.1/DTD/svg11.dtd"> 
<svg
  xmlns:svg="http://www.w3.org/2000/svg"
  xmlns="http://www.w3.org/2000/svg"
  xmlns:xlink="http://www.w3.org/1999/xlink"
  version="1.1"
  width="29.700220cm" height="21.000720cm" viewBox="0 0 116930 82680">
<title>SVG Picture created as controller-Eco2_User.svg date 2020/11/30 00:03:03 </title>
  <desc>Picture generated by PCBNEW </desc>
<g style="fill:#000000; fill-opacity:1;stroke:#000000; stroke-opacity:1;
stroke-linecap:round; stroke-linejoin:round;"
 transform="translate(0 0) scale(1 1)">
</g>
<g style="fill:#000000; fill-opacity:0.0; 
stroke:#000000; stroke-width:-0.000393701; stroke-opacity:1; 
stroke-linecap:round; stroke-linejoin:round;">
</g>
<g style="fill:#000000; fill-opacity:0.0; 
stroke:#000000; stroke-width:98.4252; stroke-opacity:1; 
stroke-linecap:round; stroke-linejoin:round;">
<path d="M79527 41338
L79527 40551
" />
<path d="M79133 40944
L79921 40944
" />
</g>
<g style="fill:#000000; fill-opacity:0.0; 
stroke:#000000; stroke-width:59.0551; stroke-opacity:1; 
stroke-linecap:round; stroke-linejoin:round;">
<circle cx="81102.4" cy="43700.8" r="556.777" /> 
<text x="46063" y="40354.3"
textLength="3657.57" font-size="524.934" lengthAdjust="spacingAndGlyphs"
text-anchor="middle" opacity="0">BIT 0 1 2 3</text>
<path d="M44497 40129
L44553 40148
L44572 40166
L44591 40204
L44591 40260
L44572 40298
L44553 40316
L44516 40335
L44366 40335
L44366 39941
L44497 39941
L44535 39960
L44553 39979
L44572 40016
L44572 40054
L44553 40091
L44535 40110
L44497 40129
L44366 40129
" />
<path d="M44760 40335
L44760 39941
" />
<path d="M44891 39941
L45116 39941
" />
<path d="M45003 40335
L45003 39941
" />
<path d="M45622 39941
L45659 39941
L45697 39960
L45716 39979
L45734 40016
L45753 40091
L45753 40185
L45734 40260
L45716 40298
L45697 40316
L45659 40335
L45622 40335
L45584 40316
L45566 40298
L45547 40260
L45528 40185
L45528 40091
L45547 40016
L45566 39979
L45584 39960
L45622 39941
" />
<path d="M46428 40335
L46203 40335
" />
<path d="M46316 40335
L46316 39941
L46278 39998
L46241 40035
L46203 40054
" />
<path d="M46878 39979
L46897 39960
L46934 39941
L47028 39941
L47065 39960
L47084 39979
L47103 40016
L47103 40054
L47084 40110
L46859 40335
L47103 40335
" />
<path d="M47534 39941
L47778 39941
L47647 40091
L47703 40091
L47740 40110
L47759 40129
L47778 40166
L47778 40260
L47759 40298
L47740 40316
L47703 40335
L47590 40335
L47553 40316
L47534 40298
" />
<text x="75590.6" y="43897.6"
textLength="2720.19" font-size="524.934" lengthAdjust="spacingAndGlyphs"
text-anchor="middle" opacity="0">SEGMENT</text>
<path d="M74343 43860
L74400 43878
L74493 43878
L74531 43860
L74550 43841
L74568 43803
L74568 43766
L74550 43728
L74531 43710
L74493 43691
L74418 43672
L74381 43653
L74362 43635
L74343 43597
L74343 43560
L74362 43522
L74381 43503
L74418 43485
L74512 43485
L74568 43503
" />
<path d="M74737 43672
L74868 43672
" />
<path d="M74925 43878
L74737 43878
L74737 43485
L74925 43485
" />
<path d="M75299 43503
L75262 43485
L75206 43485
L75149 43503
L75112 43541
L75093 43578
L75074 43653
L75074 43710
L75093 43785
L75112 43822
L75149 43860
L75206 43878
L75243 43878
L75299 43860
L75318 43841
L75318 43710
L75243 43710
" />
<path d="M75487 43878
L75487 43485
L75618 43766
L75749 43485
L75749 43878
" />
<path d="M75937 43672
L76068 43672
" />
<path d="M76124 43878
L75937 43878
L75937 43485
L76124 43485
" />
<path d="M76293 43878
L76293 43485
L76518 43878
L76518 43485
" />
<path d="M76649 43485
L76874 43485
" />
<path d="M76762 43878
L76762 43485
" />
<circle cx="35039.4" cy="15748" r="556.777" /> 
<circle cx="35039.4" cy="43700.8" r="556.777" /> 
<circle cx="81102.4" cy="15748" r="556.777" /> 
<text x="81889.8" y="29330.7"
textLength="1314.12" font-size="524.934" lengthAdjust="spacingAndGlyphs"
text-anchor="middle" opacity="0">8cm</text>
<path d="M81421 29086
L81383 29068
L81364 29049
L81346 29011
L81346 28993
L81364 28955
L81383 28937
L81421 28918
L81496 28918
L81533 28937
L81552 28955
L81571 28993
L81571 29011
L81552 29049
L81533 29068
L81496 29086
L81421 29086
L81383 29105
L81364 29124
L81346 29161
L81346 29236
L81364 29274
L81383 29293
L81421 29311
L81496 29311
L81533 29293
L81552 29274
L81571 29236
L81571 29161
L81552 29124
L81533 29105
L81496 29086
" />
<path d="M81908 29293
L81871 29311
L81796 29311
L81758 29293
L81739 29274
L81721 29236
L81721 29124
L81739 29086
L81758 29068
L81796 29049
L81871 29049
L81908 29068
" />
<path d="M82077 29311
L82077 29049
" />
<path d="M82077 29086
L82095 29068
L82133 29049
L82189 29049
L82227 29068
L82245 29105
L82245 29311
" />
<path d="M82245 29105
L82264 29068
L82302 29049
L82358 29049
L82395 29068
L82414 29105
L82414 29311
" />
<text x="53543.3" y="14763.8"
textLength="2251.5" font-size="524.934" lengthAdjust="spacingAndGlyphs"
text-anchor="middle" opacity="0">12.5cm</text>
<path d="M52755 14745
L52530 14745
" />
<path d="M52643 14745
L52643 14351
L52605 14407
L52568 14445
L52530 14463
" />
<path d="M52905 14388
L52924 14370
L52962 14351
L53055 14351
L53093 14370
L53112 14388
L53130 14426
L53130 14463
L53112 14520
L52887 14745
L53130 14745
" />
<path d="M53299 14707
L53318 14726
L53299 14745
L53280 14726
L53299 14707
L53299 14745
" />
<path d="M53674 14351
L53487 14351
L53468 14538
L53487 14520
L53524 14501
L53618 14501
L53655 14520
L53674 14538
L53693 14576
L53693 14670
L53674 14707
L53655 14726
L53618 14745
L53524 14745
L53487 14726
L53468 14707
" />
<path d="M54030 14726
L53993 14745
L53918 14745
L53880 14726
L53862 14707
L53843 14670
L53843 14557
L53862 14520
L53880 14501
L53918 14482
L53993 14482
L54030 14501
" />
<path d="M54199 14745
L54199 14482
" />
<path d="M54199 14520
L54218 14501
L54255 14482
L54311 14482
L54349 14501
L54368 14538
L54368 14745
" />
<path d="M54368 14538
L54386 14501
L54424 14482
L54480 14482
L54518 14501
L54536 14538
L54536 14745
" />
<path d="M82677 14173
L44094 14173
" />
<path d="M82677 45275
L82677 14173
" />
<path d="M81889 45275
L82677 45275
" />
<path d="M33464 45275
L33464 14173
" />
<path d="M33858 45275
L33464 45275
" />
<path d="M81889 45275
L33858 45275
" />
<path d="M34645 14173
L33464 14173
" />
<path d="M44094 14173
L34645 14173
" />
<g >
</g>
<g >
</g>
<g >
</g>
<g >
</g>
<g >
</g>
<g >
</g>
<g >
</g>
<g >
</g>
<g >
</g>
<g >
</g>
<g >
</g>
<g >
</g>
<g >
</g>
<g >
</g>
<g >
</g>
<g >
</g>
<g >
</g>
<g >
</g>
<g >
</g>
<g >
</g>
<g >
</g>
<g >
</g>
<g >
</g>
<g >
</g>
<g >
</g>
<g >
</g>
<g >
</g>
<g >
</g>
<g >
</g>
<g >
</g>
<g >
</g>
<g >
</g>
<g >
</g>
<g >
</g>
<g >
</g>
<g >
</g>
<g >
</g>
<g >
</g>
<g >
</g>
<g >
</g>
<g >
</g>
<g >
</g>
<g >
</g>
<g >
</g>
<g >
</g>
<g >
</g>
<g >
</g>
<g >
</g>
<g >
</g>
<g >
</g>
<g >
</g>
</g> 
</svg>
