<?xml version="1.0" standalone="no"?>
 <!DOCTYPE svg PUBLIC "-//W3C//DTD SVG 1.1//EN" 
 "http://www.w3.org/Graphics/SVG/1.1/DTD/svg11.dtd"> 
<svg
  xmlns:svg="http://www.w3.org/2000/svg"
  xmlns="http://www.w3.org/2000/svg"
  xmlns:xlink="http://www.w3.org/1999/xlink"
  version="1.1"
  width="29.700220cm" height="21.000720cm" viewBox="0 0 116930 82680">
<title>SVG Picture created as controller-Eco2_User.svg date 2021/03/03 19:17:57 </title>
  <desc>Picture generated by PCBNEW </desc>
<g style="fill:#000000; fill-opacity:1;stroke:#000000; stroke-opacity:1;
stroke-linecap:round; stroke-linejoin:round;"
 transform="translate(0 0) scale(1 1)">
</g>
<g style="fill:#000000; fill-opacity:0.0; 
stroke:#000000; stroke-width:-0.000393701; stroke-opacity:1; 
stroke-linecap:round; stroke-linejoin:round;">
</g>
<g style="fill:#000000; fill-opacity:0.0; 
stroke:#000000; stroke-width:98.4252; stroke-opacity:1; 
stroke-linecap:round; stroke-linejoin:round;">
<path d="M37402 41338
L37402 40551
" />
<path d="M37796 40944
L37008 40944
" />
</g>
<g style="fill:#000000; fill-opacity:0.0; 
stroke:#000000; stroke-width:59.0551; stroke-opacity:1; 
stroke-linecap:round; stroke-linejoin:round;">
<circle cx="35827.6" cy="43700.8" r="556.777" /> 
<text x="70867" y="40354.3"
textLength="3657.57" font-size="524.934" lengthAdjust="spacingAndGlyphs"
text-anchor="middle" opacity="0">BIT 0 1 2 3</text>
<path d="M72432 40129
L72376 40148
L72357 40166
L72338 40204
L72338 40260
L72357 40298
L72376 40316
L72413 40335
L72563 40335
L72563 39941
L72432 39941
L72394 39960
L72376 39979
L72357 40016
L72357 40054
L72376 40091
L72394 40110
L72432 40129
L72563 40129
" />
<path d="M72169 40335
L72169 39941
" />
<path d="M72038 39941
L71813 39941
" />
<path d="M71926 40335
L71926 39941
" />
<path d="M71307 39941
L71270 39941
L71232 39960
L71213 39979
L71195 40016
L71176 40091
L71176 40185
L71195 40260
L71213 40298
L71232 40316
L71270 40335
L71307 40335
L71345 40316
L71363 40298
L71382 40260
L71401 40185
L71401 40091
L71382 40016
L71363 39979
L71345 39960
L71307 39941
" />
<path d="M70501 40335
L70726 40335
" />
<path d="M70613 40335
L70613 39941
L70651 39998
L70688 40035
L70726 40054
" />
<path d="M70051 39979
L70032 39960
L69995 39941
L69901 39941
L69864 39960
L69845 39979
L69826 40016
L69826 40054
L69845 40110
L70070 40335
L69826 40335
" />
<path d="M69395 39941
L69151 39941
L69282 40091
L69226 40091
L69189 40110
L69170 40129
L69151 40166
L69151 40260
L69170 40298
L69189 40316
L69226 40335
L69339 40335
L69376 40316
L69395 40298
" />
<text x="41339.4" y="43897.6"
textLength="2720.19" font-size="524.934" lengthAdjust="spacingAndGlyphs"
text-anchor="middle" opacity="0">SEGMENT</text>
<path d="M42586 43860
L42529 43878
L42436 43878
L42398 43860
L42379 43841
L42361 43803
L42361 43766
L42379 43728
L42398 43710
L42436 43691
L42511 43672
L42548 43653
L42567 43635
L42586 43597
L42586 43560
L42567 43522
L42548 43503
L42511 43485
L42417 43485
L42361 43503
" />
<path d="M42192 43672
L42061 43672
" />
<path d="M42004 43878
L42192 43878
L42192 43485
L42004 43485
" />
<path d="M41630 43503
L41667 43485
L41723 43485
L41780 43503
L41817 43541
L41836 43578
L41855 43653
L41855 43710
L41836 43785
L41817 43822
L41780 43860
L41723 43878
L41686 43878
L41630 43860
L41611 43841
L41611 43710
L41686 43710
" />
<path d="M41442 43878
L41442 43485
L41311 43766
L41180 43485
L41180 43878
" />
<path d="M40992 43672
L40861 43672
" />
<path d="M40805 43878
L40992 43878
L40992 43485
L40805 43485
" />
<path d="M40636 43878
L40636 43485
L40411 43878
L40411 43485
" />
<path d="M40280 43485
L40055 43485
" />
<path d="M40167 43878
L40167 43485
" />
<circle cx="81890.6" cy="15748" r="556.777" /> 
<circle cx="81890.6" cy="43700.8" r="556.777" /> 
<circle cx="35827.6" cy="15748" r="556.777" /> 
<text x="35040.2" y="29330.7"
textLength="1314.12" font-size="524.934" lengthAdjust="spacingAndGlyphs"
text-anchor="middle" opacity="0">8cm</text>
<path d="M35508 29086
L35546 29068
L35565 29049
L35583 29011
L35583 28993
L35565 28955
L35546 28937
L35508 28918
L35433 28918
L35396 28937
L35377 28955
L35358 28993
L35358 29011
L35377 29049
L35396 29068
L35433 29086
L35508 29086
L35546 29105
L35565 29124
L35583 29161
L35583 29236
L35565 29274
L35546 29293
L35508 29311
L35433 29311
L35396 29293
L35377 29274
L35358 29236
L35358 29161
L35377 29124
L35396 29105
L35433 29086
" />
<path d="M35021 29293
L35058 29311
L35133 29311
L35171 29293
L35190 29274
L35208 29236
L35208 29124
L35190 29086
L35171 29068
L35133 29049
L35058 29049
L35021 29068
" />
<path d="M34852 29311
L34852 29049
" />
<path d="M34852 29086
L34834 29068
L34796 29049
L34740 29049
L34702 29068
L34684 29105
L34684 29311
" />
<path d="M34684 29105
L34665 29068
L34627 29049
L34571 29049
L34534 29068
L34515 29105
L34515 29311
" />
<text x="63386.7" y="14763.8"
textLength="2251.5" font-size="524.934" lengthAdjust="spacingAndGlyphs"
text-anchor="middle" opacity="0">12.5cm</text>
<path d="M64174 14745
L64399 14745
" />
<path d="M64286 14745
L64286 14351
L64324 14407
L64361 14445
L64399 14463
" />
<path d="M64024 14388
L64005 14370
L63967 14351
L63874 14351
L63836 14370
L63817 14388
L63799 14426
L63799 14463
L63817 14520
L64042 14745
L63799 14745
" />
<path d="M63630 14707
L63611 14726
L63630 14745
L63649 14726
L63630 14707
L63630 14745
" />
<path d="M63255 14351
L63442 14351
L63461 14538
L63442 14520
L63405 14501
L63311 14501
L63274 14520
L63255 14538
L63236 14576
L63236 14670
L63255 14707
L63274 14726
L63311 14745
L63405 14745
L63442 14726
L63461 14707
" />
<path d="M62899 14726
L62936 14745
L63011 14745
L63049 14726
L63067 14707
L63086 14670
L63086 14557
L63067 14520
L63049 14501
L63011 14482
L62936 14482
L62899 14501
" />
<path d="M62730 14745
L62730 14482
" />
<path d="M62730 14520
L62711 14501
L62674 14482
L62618 14482
L62580 14501
L62561 14538
L62561 14745
" />
<path d="M62561 14538
L62543 14501
L62505 14482
L62449 14482
L62411 14501
L62393 14538
L62393 14745
" />
<path d="M34252 14173
L72835 14173
" />
<path d="M34252 45275
L34252 14173
" />
<path d="M35040 45275
L34252 45275
" />
<path d="M83465 45275
L83465 14173
" />
<path d="M83071 45275
L83465 45275
" />
<path d="M35040 45275
L83071 45275
" />
<path d="M82284 14173
L83465 14173
" />
<path d="M72835 14173
L82284 14173
" />
<g >
</g>
<g >
</g>
<g >
</g>
<g >
</g>
<g >
</g>
<g >
</g>
<g >
</g>
<g >
</g>
<g >
</g>
<g >
</g>
<g >
</g>
<g >
</g>
<g >
</g>
<g >
</g>
<g >
</g>
<g >
</g>
<g >
</g>
<g >
</g>
<g >
</g>
<g >
</g>
<g >
</g>
<g >
</g>
<g >
</g>
<g >
</g>
<g >
</g>
<g >
</g>
<g >
</g>
<g >
</g>
<g >
</g>
<g >
</g>
<g >
</g>
<g >
</g>
<g >
</g>
<g >
</g>
<g >
</g>
<g >
</g>
<g >
</g>
<g >
</g>
<g >
</g>
<g >
</g>
<g >
</g>
<g >
</g>
<g >
</g>
<g >
</g>
<g >
</g>
<g >
</g>
<g >
</g>
<g >
</g>
<g >
</g>
<g >
</g>
<g >
</g>
</g> 
</svg>
