<?xml version="1.0" standalone="no"?>
 <!DOCTYPE svg PUBLIC "-//W3C//DTD SVG 1.1//EN" 
 "http://www.w3.org/Graphics/SVG/1.1/DTD/svg11.dtd"> 
<svg
  xmlns:svg="http://www.w3.org/2000/svg"
  xmlns="http://www.w3.org/2000/svg"
  xmlns:xlink="http://www.w3.org/1999/xlink"
  version="1.1"
  width="29.700220cm" height="21.000720cm" viewBox="0 0 116930 82680">
<title>SVG Picture created as breakout-Eco2_User.svg date 2021/02/12 19:12:09 </title>
  <desc>Picture generated by PCBNEW </desc>
<g style="fill:#000000; fill-opacity:1;stroke:#000000; stroke-opacity:1;
stroke-linecap:round; stroke-linejoin:round;"
 transform="translate(0 0) scale(1 1)">
</g>
<g style="fill:#000000; fill-opacity:0.0; 
stroke:#000000; stroke-width:-0.000393701; stroke-opacity:1; 
stroke-linecap:round; stroke-linejoin:round;">
</g>
<g style="fill:#000000; fill-opacity:0.0; 
stroke:#000000; stroke-width:98.4252; stroke-opacity:1; 
stroke-linecap:round; stroke-linejoin:round;">
<circle cx="63386.7" cy="26378" r="556.777" /> 
<circle cx="63386.7" cy="33858.3" r="556.777" /> 
<circle cx="46063.9" cy="33858.3" r="556.777" /> 
<circle cx="46063.9" cy="26378" r="556.777" /> 
<path d="M59843 33464
L60630 33464
" />
<path d="M60237 33070
L60237 33858
" />
</g>
<g style="fill:#000000; fill-opacity:0.0; 
stroke:#000000; stroke-width:59.0551; stroke-opacity:1; 
stroke-linecap:round; stroke-linejoin:round;">
<text x="44882.8" y="32480.3"
textLength="1917.89" font-size="524.934" lengthAdjust="spacingAndGlyphs"
text-anchor="middle" opacity="0">33mm</text>
<path d="M45726 32067
L45482 32067
L45613 32217
L45557 32217
L45520 32236
L45501 32255
L45482 32292
L45482 32386
L45501 32424
L45520 32442
L45557 32461
L45670 32461
L45707 32442
L45726 32424
" />
<path d="M45351 32067
L45107 32067
L45238 32217
L45182 32217
L45145 32236
L45126 32255
L45107 32292
L45107 32386
L45126 32424
L45145 32442
L45182 32461
L45295 32461
L45332 32442
L45351 32424
" />
<path d="M44938 32461
L44938 32199
" />
<path d="M44938 32236
L44920 32217
L44882 32199
L44826 32199
L44789 32217
L44770 32255
L44770 32461
" />
<path d="M44770 32255
L44751 32217
L44714 32199
L44657 32199
L44620 32217
L44601 32255
L44601 32461
" />
<path d="M44414 32461
L44414 32199
" />
<path d="M44414 32236
L44395 32217
L44357 32199
L44301 32199
L44264 32217
L44245 32255
L44245 32461
" />
<path d="M44245 32255
L44226 32217
L44189 32199
L44132 32199
L44095 32217
L44076 32255
L44076 32461
" />
<text x="61811.9" y="35236.2"
textLength="1876.55" font-size="524.934" lengthAdjust="spacingAndGlyphs"
text-anchor="middle" opacity="0">56mm</text>
<path d="M62430 34823
L62618 34823
L62636 35011
L62618 34992
L62580 34973
L62486 34973
L62449 34992
L62430 35011
L62411 35048
L62411 35142
L62430 35179
L62449 35198
L62486 35217
L62580 35217
L62618 35198
L62636 35179
" />
<path d="M62074 34823
L62149 34823
L62186 34842
L62205 34861
L62243 34917
L62261 34992
L62261 35142
L62243 35179
L62224 35198
L62186 35217
L62111 35217
L62074 35198
L62055 35179
L62036 35142
L62036 35048
L62055 35011
L62074 34992
L62111 34973
L62186 34973
L62224 34992
L62243 35011
L62261 35048
" />
<path d="M61868 35217
L61868 34955
" />
<path d="M61868 34992
L61849 34973
L61811 34955
L61755 34955
L61718 34973
L61699 35011
L61699 35217
" />
<path d="M61699 35011
L61680 34973
L61643 34955
L61586 34955
L61549 34973
L61530 35011
L61530 35217
" />
<path d="M61343 35217
L61343 34955
" />
<path d="M61343 34992
L61324 34973
L61286 34955
L61230 34955
L61193 34973
L61174 35011
L61174 35217
" />
<path d="M61174 35011
L61155 34973
L61118 34955
L61061 34955
L61024 34973
L61005 35011
L61005 35217
" />
<path d="M43701 22440
L65748 22440
" />
<path d="M43701 35433
L43701 22440
" />
<path d="M65748 35433
L43701 35433
" />
<path d="M65748 22440
L65748 35433
" />
<g >
</g>
<g >
</g>
<g >
</g>
<g >
</g>
<g >
</g>
<g >
</g>
<g >
</g>
<g >
</g>
<g >
</g>
</g> 
</svg>
