<?xml version="1.0" standalone="no"?>
 <!DOCTYPE svg PUBLIC "-//W3C//DTD SVG 1.1//EN" 
 "http://www.w3.org/Graphics/SVG/1.1/DTD/svg11.dtd"> 
<svg
  xmlns:svg="http://www.w3.org/2000/svg"
  xmlns="http://www.w3.org/2000/svg"
  xmlns:xlink="http://www.w3.org/1999/xlink"
  version="1.1"
  width="29.700220cm" height="21.000720cm" viewBox="0 0 116930 82680">
<title>SVG Picture created as breakout-Eco2_User.svg date 2020/11/29 23:59:46 </title>
  <desc>Picture generated by PCBNEW </desc>
<g style="fill:#000000; fill-opacity:1;stroke:#000000; stroke-opacity:1;
stroke-linecap:round; stroke-linejoin:round;"
 transform="translate(0 0) scale(1 1)">
</g>
<g style="fill:#000000; fill-opacity:0.0; 
stroke:#000000; stroke-width:-0.000393701; stroke-opacity:1; 
stroke-linecap:round; stroke-linejoin:round;">
</g>
<g style="fill:#000000; fill-opacity:0.0; 
stroke:#000000; stroke-width:98.4252; stroke-opacity:1; 
stroke-linecap:round; stroke-linejoin:round;">
<circle cx="53543.3" cy="26378" r="556.777" /> 
<circle cx="53543.3" cy="33858.3" r="556.777" /> 
<circle cx="70866.1" cy="33858.3" r="556.777" /> 
<circle cx="70866.1" cy="26378" r="556.777" /> 
<path d="M57086 33464
L56299 33464
" />
<path d="M56692 33070
L56692 33858
" />
</g>
<g style="fill:#000000; fill-opacity:0.0; 
stroke:#000000; stroke-width:59.0551; stroke-opacity:1; 
stroke-linecap:round; stroke-linejoin:round;">
<text x="72047.2" y="32480.3"
textLength="1876.55" font-size="524.934" lengthAdjust="spacingAndGlyphs"
text-anchor="middle" opacity="0">33mm</text>
<path d="M71203 32067
L71447 32067
L71316 32217
L71372 32217
L71409 32236
L71428 32255
L71447 32292
L71447 32386
L71428 32424
L71409 32442
L71372 32461
L71259 32461
L71222 32442
L71203 32424
" />
<path d="M71578 32067
L71822 32067
L71691 32217
L71747 32217
L71784 32236
L71803 32255
L71822 32292
L71822 32386
L71803 32424
L71784 32442
L71747 32461
L71634 32461
L71597 32442
L71578 32424
" />
<path d="M71991 32461
L71991 32199
" />
<path d="M71991 32236
L72009 32217
L72047 32199
L72103 32199
L72140 32217
L72159 32255
L72159 32461
" />
<path d="M72159 32255
L72178 32217
L72215 32199
L72272 32199
L72309 32217
L72328 32255
L72328 32461
" />
<path d="M72515 32461
L72515 32199
" />
<path d="M72515 32236
L72534 32217
L72572 32199
L72628 32199
L72665 32217
L72684 32255
L72684 32461
" />
<path d="M72684 32255
L72703 32217
L72740 32199
L72797 32199
L72834 32217
L72853 32255
L72853 32461
" />
<text x="55118.1" y="35236.2"
textLength="1876.55" font-size="524.934" lengthAdjust="spacingAndGlyphs"
text-anchor="middle" opacity="0">56mm</text>
<path d="M54499 34823
L54311 34823
L54293 35011
L54311 34992
L54349 34973
L54443 34973
L54480 34992
L54499 35011
L54518 35048
L54518 35142
L54499 35179
L54480 35198
L54443 35217
L54349 35217
L54311 35198
L54293 35179
" />
<path d="M54855 34823
L54780 34823
L54743 34842
L54724 34861
L54686 34917
L54668 34992
L54668 35142
L54686 35179
L54705 35198
L54743 35217
L54818 35217
L54855 35198
L54874 35179
L54893 35142
L54893 35048
L54874 35011
L54855 34992
L54818 34973
L54743 34973
L54705 34992
L54686 35011
L54668 35048
" />
<path d="M55061 35217
L55061 34955
" />
<path d="M55061 34992
L55080 34973
L55118 34955
L55174 34955
L55211 34973
L55230 35011
L55230 35217
" />
<path d="M55230 35011
L55249 34973
L55286 34955
L55343 34955
L55380 34973
L55399 35011
L55399 35217
" />
<path d="M55586 35217
L55586 34955
" />
<path d="M55586 34992
L55605 34973
L55643 34955
L55699 34955
L55736 34973
L55755 35011
L55755 35217
" />
<path d="M55755 35011
L55774 34973
L55811 34955
L55868 34955
L55905 34973
L55924 35011
L55924 35217
" />
<path d="M73228 22440
L51181 22440
" />
<path d="M73228 35433
L73228 22440
" />
<path d="M51181 35433
L73228 35433
" />
<path d="M51181 22440
L51181 35433
" />
<g >
</g>
<g >
</g>
<g >
</g>
<g >
</g>
<g >
</g>
<g >
</g>
<g >
</g>
<g >
</g>
<g >
</g>
</g> 
</svg>
