  0
SECTION
  2
HEADER
  9
$ANGBASE
  50
0.0
  9
$ANGDIR
  70
1
  9
$MEASUREMENT
  70
0
  0
ENDSEC
  0
SECTION
  2
TABLES
  0
TABLE
  2
LTYPE
  70
4
  0
LTYPE
  5
40F
  2
CONTINUOUS
  70
0
  3
Solid line
  72
65
  73
0
  40
0.0
  0
LTYPE
  5
410
  2
DASHDOT
 70
0
  3
Dash Dot ____ _ ____ _
 72
65
 73
4
 40
2.0
 49
1.25
 49
-0.25
 49
0.25
 49
-0.25
  0
LTYPE
  5
411
  2
DASHED
 70
0
  3
Dashed __ __ __ __ __
 72
65
 73
2
 40
0.75
 49
0.5
 49
-0.25
  0
LTYPE
  5
43B
  2
DOTTED
 70
0
  3
Dotted .  .  .  .
 72
65
 73
2
 40
0.2
 49
0.0
 49
-0.2
  0
ENDTAB
  0
TABLE
  2
STYLE
  70
4
  0
STYLE
  2
KICAD
  70
0
  40
0
  41
1
  42
1
  50
0
  71
0
  3
isocp.shx
  0
STYLE
  2
KICADB
  70
0
  40
0
  41
1
  42
1
  50
0
  71
0
  3
isocp.shx
  0
STYLE
  2
KICADI
  70
0
  40
0
  41
1
  42
1
  50
15
  71
0
  3
isocp.shx
  0
STYLE
  2
KICADBI
  70
0
  40
0
  41
1
  42
1
  50
15
  71
0
  3
isocp.shx
  0
ENDTAB
  0
TABLE
  2
LAYER
  70
1
  0
LAYER
  2
BLACK
  70
0
  62
7
  6
CONTINUOUS
  0
ENDTAB
  0
ENDSEC
  0
SECTION
  2
ENTITIES
0
LINE
8
BLACK
6
CONTINUOUS
10
6.10582
20
-3.05995
11
6.11191
21
-3.06247
0
LINE
8
BLACK
6
CONTINUOUS
10
6.11191
20
-3.06247
11
6.1174
21
-3.06613
0
LINE
8
BLACK
6
CONTINUOUS
10
6.1174
20
-3.06613
11
6.12206
21
-3.07079
0
LINE
8
BLACK
6
CONTINUOUS
10
6.12206
20
-3.07079
11
6.12572
21
-3.07627
0
LINE
8
BLACK
6
CONTINUOUS
10
6.12572
20
-3.07627
11
6.12824
21
-3.08236
0
LINE
8
BLACK
6
CONTINUOUS
10
6.12824
20
-3.08236
11
6.12953
21
-3.08883
0
LINE
8
BLACK
6
CONTINUOUS
10
6.12953
20
-3.08883
11
6.12953
21
-3.09542
0
LINE
8
BLACK
6
CONTINUOUS
10
6.12953
20
-3.09542
11
6.12824
21
-3.10189
0
LINE
8
BLACK
6
CONTINUOUS
10
6.12824
20
-3.10189
11
6.12572
21
-3.10798
0
LINE
8
BLACK
6
CONTINUOUS
10
6.12572
20
-3.10798
11
6.12206
21
-3.11346
0
LINE
8
BLACK
6
CONTINUOUS
10
6.12206
20
-3.11346
11
6.1174
21
-3.11812
0
LINE
8
BLACK
6
CONTINUOUS
10
6.1174
20
-3.11812
11
6.11191
21
-3.12178
0
LINE
8
BLACK
6
CONTINUOUS
10
6.11191
20
-3.12178
11
6.10582
21
-3.1243
0
LINE
8
BLACK
6
CONTINUOUS
10
6.10582
20
-3.1243
11
6.09936
21
-3.12559
0
LINE
8
BLACK
6
CONTINUOUS
10
6.09936
20
-3.12559
11
6.09277
21
-3.12559
0
LINE
8
BLACK
6
CONTINUOUS
10
6.09277
20
-3.12559
11
6.0863
21
-3.1243
0
LINE
8
BLACK
6
CONTINUOUS
10
6.0863
20
-3.1243
11
6.08021
21
-3.12178
0
LINE
8
BLACK
6
CONTINUOUS
10
6.08021
20
-3.12178
11
6.07473
21
-3.11812
0
LINE
8
BLACK
6
CONTINUOUS
10
6.07473
20
-3.11812
11
6.07007
21
-3.11346
0
LINE
8
BLACK
6
CONTINUOUS
10
6.07007
20
-3.11346
11
6.06641
21
-3.10798
0
LINE
8
BLACK
6
CONTINUOUS
10
6.06641
20
-3.10798
11
6.06388
21
-3.10189
0
LINE
8
BLACK
6
CONTINUOUS
10
6.06388
20
-3.10189
11
6.0626
21
-3.09542
0
LINE
8
BLACK
6
CONTINUOUS
10
6.0626
20
-3.09542
11
6.0626
21
-3.08883
0
LINE
8
BLACK
6
CONTINUOUS
10
6.0626
20
-3.08883
11
6.06388
21
-3.08236
0
LINE
8
BLACK
6
CONTINUOUS
10
6.06388
20
-3.08236
11
6.06641
21
-3.07627
0
LINE
8
BLACK
6
CONTINUOUS
10
6.06641
20
-3.07627
11
6.07007
21
-3.07079
0
LINE
8
BLACK
6
CONTINUOUS
10
6.07007
20
-3.07079
11
6.07473
21
-3.06613
0
LINE
8
BLACK
6
CONTINUOUS
10
6.07473
20
-3.06613
11
6.08021
21
-3.06247
0
LINE
8
BLACK
6
CONTINUOUS
10
6.08021
20
-3.06247
11
6.0863
21
-3.05995
0
LINE
8
BLACK
6
CONTINUOUS
10
6.0863
20
-3.05995
11
6.09277
21
-3.05866
0
LINE
8
BLACK
6
CONTINUOUS
10
6.09277
20
-3.05866
11
6.09936
21
-3.05866
0
LINE
8
BLACK
6
CONTINUOUS
10
6.09936
20
-3.05866
11
6.10582
21
-3.05995
0
LINE
8
BLACK
6
CONTINUOUS
10
6.20582
20
-3.05995
11
6.21191
21
-3.06247
0
LINE
8
BLACK
6
CONTINUOUS
10
6.21191
20
-3.06247
11
6.2174
21
-3.06613
0
LINE
8
BLACK
6
CONTINUOUS
10
6.2174
20
-3.06613
11
6.22206
21
-3.07079
0
LINE
8
BLACK
6
CONTINUOUS
10
6.22206
20
-3.07079
11
6.22572
21
-3.07627
0
LINE
8
BLACK
6
CONTINUOUS
10
6.22572
20
-3.07627
11
6.22824
21
-3.08236
0
LINE
8
BLACK
6
CONTINUOUS
10
6.22824
20
-3.08236
11
6.22953
21
-3.08883
0
LINE
8
BLACK
6
CONTINUOUS
10
6.22953
20
-3.08883
11
6.22953
21
-3.09542
0
LINE
8
BLACK
6
CONTINUOUS
10
6.22953
20
-3.09542
11
6.22824
21
-3.10189
0
LINE
8
BLACK
6
CONTINUOUS
10
6.22824
20
-3.10189
11
6.22572
21
-3.10798
0
LINE
8
BLACK
6
CONTINUOUS
10
6.22572
20
-3.10798
11
6.22206
21
-3.11346
0
LINE
8
BLACK
6
CONTINUOUS
10
6.22206
20
-3.11346
11
6.2174
21
-3.11812
0
LINE
8
BLACK
6
CONTINUOUS
10
6.2174
20
-3.11812
11
6.21191
21
-3.12178
0
LINE
8
BLACK
6
CONTINUOUS
10
6.21191
20
-3.12178
11
6.20582
21
-3.1243
0
LINE
8
BLACK
6
CONTINUOUS
10
6.20582
20
-3.1243
11
6.19936
21
-3.12559
0
LINE
8
BLACK
6
CONTINUOUS
10
6.19936
20
-3.12559
11
6.19277
21
-3.12559
0
LINE
8
BLACK
6
CONTINUOUS
10
6.19277
20
-3.12559
11
6.1863
21
-3.1243
0
LINE
8
BLACK
6
CONTINUOUS
10
6.1863
20
-3.1243
11
6.18021
21
-3.12178
0
LINE
8
BLACK
6
CONTINUOUS
10
6.18021
20
-3.12178
11
6.17473
21
-3.11812
0
LINE
8
BLACK
6
CONTINUOUS
10
6.17473
20
-3.11812
11
6.17007
21
-3.11346
0
LINE
8
BLACK
6
CONTINUOUS
10
6.17007
20
-3.11346
11
6.16641
21
-3.10798
0
LINE
8
BLACK
6
CONTINUOUS
10
6.16641
20
-3.10798
11
6.16388
21
-3.10189
0
LINE
8
BLACK
6
CONTINUOUS
10
6.16388
20
-3.10189
11
6.1626
21
-3.09542
0
LINE
8
BLACK
6
CONTINUOUS
10
6.1626
20
-3.09542
11
6.1626
21
-3.08883
0
LINE
8
BLACK
6
CONTINUOUS
10
6.1626
20
-3.08883
11
6.16388
21
-3.08236
0
LINE
8
BLACK
6
CONTINUOUS
10
6.16388
20
-3.08236
11
6.16641
21
-3.07627
0
LINE
8
BLACK
6
CONTINUOUS
10
6.16641
20
-3.07627
11
6.17007
21
-3.07079
0
LINE
8
BLACK
6
CONTINUOUS
10
6.17007
20
-3.07079
11
6.17473
21
-3.06613
0
LINE
8
BLACK
6
CONTINUOUS
10
6.17473
20
-3.06613
11
6.18021
21
-3.06247
0
LINE
8
BLACK
6
CONTINUOUS
10
6.18021
20
-3.06247
11
6.1863
21
-3.05995
0
LINE
8
BLACK
6
CONTINUOUS
10
6.1863
20
-3.05995
11
6.19277
21
-3.05866
0
LINE
8
BLACK
6
CONTINUOUS
10
6.19277
20
-3.05866
11
6.19936
21
-3.05866
0
LINE
8
BLACK
6
CONTINUOUS
10
6.19936
20
-3.05866
11
6.20582
21
-3.05995
0
LINE
8
BLACK
6
CONTINUOUS
10
6.30582
20
-3.05995
11
6.31191
21
-3.06247
0
LINE
8
BLACK
6
CONTINUOUS
10
6.31191
20
-3.06247
11
6.3174
21
-3.06613
0
LINE
8
BLACK
6
CONTINUOUS
10
6.3174
20
-3.06613
11
6.32206
21
-3.07079
0
LINE
8
BLACK
6
CONTINUOUS
10
6.32206
20
-3.07079
11
6.32572
21
-3.07627
0
LINE
8
BLACK
6
CONTINUOUS
10
6.32572
20
-3.07627
11
6.32824
21
-3.08236
0
LINE
8
BLACK
6
CONTINUOUS
10
6.32824
20
-3.08236
11
6.32953
21
-3.08883
0
LINE
8
BLACK
6
CONTINUOUS
10
6.32953
20
-3.08883
11
6.32953
21
-3.09542
0
LINE
8
BLACK
6
CONTINUOUS
10
6.32953
20
-3.09542
11
6.32824
21
-3.10189
0
LINE
8
BLACK
6
CONTINUOUS
10
6.32824
20
-3.10189
11
6.32572
21
-3.10798
0
LINE
8
BLACK
6
CONTINUOUS
10
6.32572
20
-3.10798
11
6.32206
21
-3.11346
0
LINE
8
BLACK
6
CONTINUOUS
10
6.32206
20
-3.11346
11
6.3174
21
-3.11812
0
LINE
8
BLACK
6
CONTINUOUS
10
6.3174
20
-3.11812
11
6.31191
21
-3.12178
0
LINE
8
BLACK
6
CONTINUOUS
10
6.31191
20
-3.12178
11
6.30582
21
-3.1243
0
LINE
8
BLACK
6
CONTINUOUS
10
6.30582
20
-3.1243
11
6.29936
21
-3.12559
0
LINE
8
BLACK
6
CONTINUOUS
10
6.29936
20
-3.12559
11
6.29277
21
-3.12559
0
LINE
8
BLACK
6
CONTINUOUS
10
6.29277
20
-3.12559
11
6.2863
21
-3.1243
0
LINE
8
BLACK
6
CONTINUOUS
10
6.2863
20
-3.1243
11
6.28021
21
-3.12178
0
LINE
8
BLACK
6
CONTINUOUS
10
6.28021
20
-3.12178
11
6.27473
21
-3.11812
0
LINE
8
BLACK
6
CONTINUOUS
10
6.27473
20
-3.11812
11
6.27007
21
-3.11346
0
LINE
8
BLACK
6
CONTINUOUS
10
6.27007
20
-3.11346
11
6.26641
21
-3.10798
0
LINE
8
BLACK
6
CONTINUOUS
10
6.26641
20
-3.10798
11
6.26388
21
-3.10189
0
LINE
8
BLACK
6
CONTINUOUS
10
6.26388
20
-3.10189
11
6.2626
21
-3.09542
0
LINE
8
BLACK
6
CONTINUOUS
10
6.2626
20
-3.09542
11
6.2626
21
-3.08883
0
LINE
8
BLACK
6
CONTINUOUS
10
6.2626
20
-3.08883
11
6.26388
21
-3.08236
0
LINE
8
BLACK
6
CONTINUOUS
10
6.26388
20
-3.08236
11
6.26641
21
-3.07627
0
LINE
8
BLACK
6
CONTINUOUS
10
6.26641
20
-3.07627
11
6.27007
21
-3.07079
0
LINE
8
BLACK
6
CONTINUOUS
10
6.27007
20
-3.07079
11
6.27473
21
-3.06613
0
LINE
8
BLACK
6
CONTINUOUS
10
6.27473
20
-3.06613
11
6.28021
21
-3.06247
0
LINE
8
BLACK
6
CONTINUOUS
10
6.28021
20
-3.06247
11
6.2863
21
-3.05995
0
LINE
8
BLACK
6
CONTINUOUS
10
6.2863
20
-3.05995
11
6.29277
21
-3.05866
0
LINE
8
BLACK
6
CONTINUOUS
10
6.29277
20
-3.05866
11
6.29936
21
-3.05866
0
LINE
8
BLACK
6
CONTINUOUS
10
6.29936
20
-3.05866
11
6.30582
21
-3.05995
0
LINE
8
BLACK
6
CONTINUOUS
10
6.40582
20
-3.05995
11
6.41191
21
-3.06247
0
LINE
8
BLACK
6
CONTINUOUS
10
6.41191
20
-3.06247
11
6.4174
21
-3.06613
0
LINE
8
BLACK
6
CONTINUOUS
10
6.4174
20
-3.06613
11
6.42206
21
-3.07079
0
LINE
8
BLACK
6
CONTINUOUS
10
6.42206
20
-3.07079
11
6.42572
21
-3.07627
0
LINE
8
BLACK
6
CONTINUOUS
10
6.42572
20
-3.07627
11
6.42824
21
-3.08236
0
LINE
8
BLACK
6
CONTINUOUS
10
6.42824
20
-3.08236
11
6.42953
21
-3.08883
0
LINE
8
BLACK
6
CONTINUOUS
10
6.42953
20
-3.08883
11
6.42953
21
-3.09542
0
LINE
8
BLACK
6
CONTINUOUS
10
6.42953
20
-3.09542
11
6.42824
21
-3.10189
0
LINE
8
BLACK
6
CONTINUOUS
10
6.42824
20
-3.10189
11
6.42572
21
-3.10798
0
LINE
8
BLACK
6
CONTINUOUS
10
6.42572
20
-3.10798
11
6.42206
21
-3.11346
0
LINE
8
BLACK
6
CONTINUOUS
10
6.42206
20
-3.11346
11
6.4174
21
-3.11812
0
LINE
8
BLACK
6
CONTINUOUS
10
6.4174
20
-3.11812
11
6.41191
21
-3.12178
0
LINE
8
BLACK
6
CONTINUOUS
10
6.41191
20
-3.12178
11
6.40582
21
-3.1243
0
LINE
8
BLACK
6
CONTINUOUS
10
6.40582
20
-3.1243
11
6.39936
21
-3.12559
0
LINE
8
BLACK
6
CONTINUOUS
10
6.39936
20
-3.12559
11
6.39277
21
-3.12559
0
LINE
8
BLACK
6
CONTINUOUS
10
6.39277
20
-3.12559
11
6.3863
21
-3.1243
0
LINE
8
BLACK
6
CONTINUOUS
10
6.3863
20
-3.1243
11
6.38021
21
-3.12178
0
LINE
8
BLACK
6
CONTINUOUS
10
6.38021
20
-3.12178
11
6.37473
21
-3.11812
0
LINE
8
BLACK
6
CONTINUOUS
10
6.37473
20
-3.11812
11
6.37007
21
-3.11346
0
LINE
8
BLACK
6
CONTINUOUS
10
6.37007
20
-3.11346
11
6.36641
21
-3.10798
0
LINE
8
BLACK
6
CONTINUOUS
10
6.36641
20
-3.10798
11
6.36388
21
-3.10189
0
LINE
8
BLACK
6
CONTINUOUS
10
6.36388
20
-3.10189
11
6.3626
21
-3.09542
0
LINE
8
BLACK
6
CONTINUOUS
10
6.3626
20
-3.09542
11
6.3626
21
-3.08883
0
LINE
8
BLACK
6
CONTINUOUS
10
6.3626
20
-3.08883
11
6.36388
21
-3.08236
0
LINE
8
BLACK
6
CONTINUOUS
10
6.36388
20
-3.08236
11
6.36641
21
-3.07627
0
LINE
8
BLACK
6
CONTINUOUS
10
6.36641
20
-3.07627
11
6.37007
21
-3.07079
0
LINE
8
BLACK
6
CONTINUOUS
10
6.37007
20
-3.07079
11
6.37473
21
-3.06613
0
LINE
8
BLACK
6
CONTINUOUS
10
6.37473
20
-3.06613
11
6.38021
21
-3.06247
0
LINE
8
BLACK
6
CONTINUOUS
10
6.38021
20
-3.06247
11
6.3863
21
-3.05995
0
LINE
8
BLACK
6
CONTINUOUS
10
6.3863
20
-3.05995
11
6.39277
21
-3.05866
0
LINE
8
BLACK
6
CONTINUOUS
10
6.39277
20
-3.05866
11
6.39936
21
-3.05866
0
LINE
8
BLACK
6
CONTINUOUS
10
6.39936
20
-3.05866
11
6.40582
21
-3.05995
0
LINE
8
BLACK
6
CONTINUOUS
10
6.50582
20
-3.05995
11
6.51191
21
-3.06247
0
LINE
8
BLACK
6
CONTINUOUS
10
6.51191
20
-3.06247
11
6.5174
21
-3.06613
0
LINE
8
BLACK
6
CONTINUOUS
10
6.5174
20
-3.06613
11
6.52206
21
-3.07079
0
LINE
8
BLACK
6
CONTINUOUS
10
6.52206
20
-3.07079
11
6.52572
21
-3.07627
0
LINE
8
BLACK
6
CONTINUOUS
10
6.52572
20
-3.07627
11
6.52824
21
-3.08236
0
LINE
8
BLACK
6
CONTINUOUS
10
6.52824
20
-3.08236
11
6.52953
21
-3.08883
0
LINE
8
BLACK
6
CONTINUOUS
10
6.52953
20
-3.08883
11
6.52953
21
-3.09542
0
LINE
8
BLACK
6
CONTINUOUS
10
6.52953
20
-3.09542
11
6.52824
21
-3.10189
0
LINE
8
BLACK
6
CONTINUOUS
10
6.52824
20
-3.10189
11
6.52572
21
-3.10798
0
LINE
8
BLACK
6
CONTINUOUS
10
6.52572
20
-3.10798
11
6.52206
21
-3.11346
0
LINE
8
BLACK
6
CONTINUOUS
10
6.52206
20
-3.11346
11
6.5174
21
-3.11812
0
LINE
8
BLACK
6
CONTINUOUS
10
6.5174
20
-3.11812
11
6.51191
21
-3.12178
0
LINE
8
BLACK
6
CONTINUOUS
10
6.51191
20
-3.12178
11
6.50582
21
-3.1243
0
LINE
8
BLACK
6
CONTINUOUS
10
6.50582
20
-3.1243
11
6.49936
21
-3.12559
0
LINE
8
BLACK
6
CONTINUOUS
10
6.49936
20
-3.12559
11
6.49277
21
-3.12559
0
LINE
8
BLACK
6
CONTINUOUS
10
6.49277
20
-3.12559
11
6.4863
21
-3.1243
0
LINE
8
BLACK
6
CONTINUOUS
10
6.4863
20
-3.1243
11
6.48021
21
-3.12178
0
LINE
8
BLACK
6
CONTINUOUS
10
6.48021
20
-3.12178
11
6.47473
21
-3.11812
0
LINE
8
BLACK
6
CONTINUOUS
10
6.47473
20
-3.11812
11
6.47007
21
-3.11346
0
LINE
8
BLACK
6
CONTINUOUS
10
6.47007
20
-3.11346
11
6.46641
21
-3.10798
0
LINE
8
BLACK
6
CONTINUOUS
10
6.46641
20
-3.10798
11
6.46388
21
-3.10189
0
LINE
8
BLACK
6
CONTINUOUS
10
6.46388
20
-3.10189
11
6.4626
21
-3.09542
0
LINE
8
BLACK
6
CONTINUOUS
10
6.4626
20
-3.09542
11
6.4626
21
-3.08883
0
LINE
8
BLACK
6
CONTINUOUS
10
6.4626
20
-3.08883
11
6.46388
21
-3.08236
0
LINE
8
BLACK
6
CONTINUOUS
10
6.46388
20
-3.08236
11
6.46641
21
-3.07627
0
LINE
8
BLACK
6
CONTINUOUS
10
6.46641
20
-3.07627
11
6.47007
21
-3.07079
0
LINE
8
BLACK
6
CONTINUOUS
10
6.47007
20
-3.07079
11
6.47473
21
-3.06613
0
LINE
8
BLACK
6
CONTINUOUS
10
6.47473
20
-3.06613
11
6.48021
21
-3.06247
0
LINE
8
BLACK
6
CONTINUOUS
10
6.48021
20
-3.06247
11
6.4863
21
-3.05995
0
LINE
8
BLACK
6
CONTINUOUS
10
6.4863
20
-3.05995
11
6.49277
21
-3.05866
0
LINE
8
BLACK
6
CONTINUOUS
10
6.49277
20
-3.05866
11
6.49936
21
-3.05866
0
LINE
8
BLACK
6
CONTINUOUS
10
6.49936
20
-3.05866
11
6.50582
21
-3.05995
0
LINE
8
BLACK
6
CONTINUOUS
10
6.10582
20
-2.95995
11
6.11191
21
-2.96247
0
LINE
8
BLACK
6
CONTINUOUS
10
6.11191
20
-2.96247
11
6.1174
21
-2.96613
0
LINE
8
BLACK
6
CONTINUOUS
10
6.1174
20
-2.96613
11
6.12206
21
-2.97079
0
LINE
8
BLACK
6
CONTINUOUS
10
6.12206
20
-2.97079
11
6.12572
21
-2.97627
0
LINE
8
BLACK
6
CONTINUOUS
10
6.12572
20
-2.97627
11
6.12824
21
-2.98236
0
LINE
8
BLACK
6
CONTINUOUS
10
6.12824
20
-2.98236
11
6.12953
21
-2.98883
0
LINE
8
BLACK
6
CONTINUOUS
10
6.12953
20
-2.98883
11
6.12953
21
-2.99542
0
LINE
8
BLACK
6
CONTINUOUS
10
6.12953
20
-2.99542
11
6.12824
21
-3.00189
0
LINE
8
BLACK
6
CONTINUOUS
10
6.12824
20
-3.00189
11
6.12572
21
-3.00798
0
LINE
8
BLACK
6
CONTINUOUS
10
6.12572
20
-3.00798
11
6.12206
21
-3.01346
0
LINE
8
BLACK
6
CONTINUOUS
10
6.12206
20
-3.01346
11
6.1174
21
-3.01812
0
LINE
8
BLACK
6
CONTINUOUS
10
6.1174
20
-3.01812
11
6.11191
21
-3.02178
0
LINE
8
BLACK
6
CONTINUOUS
10
6.11191
20
-3.02178
11
6.10582
21
-3.0243
0
LINE
8
BLACK
6
CONTINUOUS
10
6.10582
20
-3.0243
11
6.09936
21
-3.02559
0
LINE
8
BLACK
6
CONTINUOUS
10
6.09936
20
-3.02559
11
6.09277
21
-3.02559
0
LINE
8
BLACK
6
CONTINUOUS
10
6.09277
20
-3.02559
11
6.0863
21
-3.0243
0
LINE
8
BLACK
6
CONTINUOUS
10
6.0863
20
-3.0243
11
6.08021
21
-3.02178
0
LINE
8
BLACK
6
CONTINUOUS
10
6.08021
20
-3.02178
11
6.07473
21
-3.01812
0
LINE
8
BLACK
6
CONTINUOUS
10
6.07473
20
-3.01812
11
6.07007
21
-3.01346
0
LINE
8
BLACK
6
CONTINUOUS
10
6.07007
20
-3.01346
11
6.06641
21
-3.00798
0
LINE
8
BLACK
6
CONTINUOUS
10
6.06641
20
-3.00798
11
6.06388
21
-3.00189
0
LINE
8
BLACK
6
CONTINUOUS
10
6.06388
20
-3.00189
11
6.0626
21
-2.99542
0
LINE
8
BLACK
6
CONTINUOUS
10
6.0626
20
-2.99542
11
6.0626
21
-2.98883
0
LINE
8
BLACK
6
CONTINUOUS
10
6.0626
20
-2.98883
11
6.06388
21
-2.98236
0
LINE
8
BLACK
6
CONTINUOUS
10
6.06388
20
-2.98236
11
6.06641
21
-2.97627
0
LINE
8
BLACK
6
CONTINUOUS
10
6.06641
20
-2.97627
11
6.07007
21
-2.97079
0
LINE
8
BLACK
6
CONTINUOUS
10
6.07007
20
-2.97079
11
6.07473
21
-2.96613
0
LINE
8
BLACK
6
CONTINUOUS
10
6.07473
20
-2.96613
11
6.08021
21
-2.96247
0
LINE
8
BLACK
6
CONTINUOUS
10
6.08021
20
-2.96247
11
6.0863
21
-2.95995
0
LINE
8
BLACK
6
CONTINUOUS
10
6.0863
20
-2.95995
11
6.09277
21
-2.95866
0
LINE
8
BLACK
6
CONTINUOUS
10
6.09277
20
-2.95866
11
6.09936
21
-2.95866
0
LINE
8
BLACK
6
CONTINUOUS
10
6.09936
20
-2.95866
11
6.10582
21
-2.95995
0
LINE
8
BLACK
6
CONTINUOUS
10
6.20582
20
-2.95995
11
6.21191
21
-2.96247
0
LINE
8
BLACK
6
CONTINUOUS
10
6.21191
20
-2.96247
11
6.2174
21
-2.96613
0
LINE
8
BLACK
6
CONTINUOUS
10
6.2174
20
-2.96613
11
6.22206
21
-2.97079
0
LINE
8
BLACK
6
CONTINUOUS
10
6.22206
20
-2.97079
11
6.22572
21
-2.97627
0
LINE
8
BLACK
6
CONTINUOUS
10
6.22572
20
-2.97627
11
6.22824
21
-2.98236
0
LINE
8
BLACK
6
CONTINUOUS
10
6.22824
20
-2.98236
11
6.22953
21
-2.98883
0
LINE
8
BLACK
6
CONTINUOUS
10
6.22953
20
-2.98883
11
6.22953
21
-2.99542
0
LINE
8
BLACK
6
CONTINUOUS
10
6.22953
20
-2.99542
11
6.22824
21
-3.00189
0
LINE
8
BLACK
6
CONTINUOUS
10
6.22824
20
-3.00189
11
6.22572
21
-3.00798
0
LINE
8
BLACK
6
CONTINUOUS
10
6.22572
20
-3.00798
11
6.22206
21
-3.01346
0
LINE
8
BLACK
6
CONTINUOUS
10
6.22206
20
-3.01346
11
6.2174
21
-3.01812
0
LINE
8
BLACK
6
CONTINUOUS
10
6.2174
20
-3.01812
11
6.21191
21
-3.02178
0
LINE
8
BLACK
6
CONTINUOUS
10
6.21191
20
-3.02178
11
6.20582
21
-3.0243
0
LINE
8
BLACK
6
CONTINUOUS
10
6.20582
20
-3.0243
11
6.19936
21
-3.02559
0
LINE
8
BLACK
6
CONTINUOUS
10
6.19936
20
-3.02559
11
6.19277
21
-3.02559
0
LINE
8
BLACK
6
CONTINUOUS
10
6.19277
20
-3.02559
11
6.1863
21
-3.0243
0
LINE
8
BLACK
6
CONTINUOUS
10
6.1863
20
-3.0243
11
6.18021
21
-3.02178
0
LINE
8
BLACK
6
CONTINUOUS
10
6.18021
20
-3.02178
11
6.17473
21
-3.01812
0
LINE
8
BLACK
6
CONTINUOUS
10
6.17473
20
-3.01812
11
6.17007
21
-3.01346
0
LINE
8
BLACK
6
CONTINUOUS
10
6.17007
20
-3.01346
11
6.16641
21
-3.00798
0
LINE
8
BLACK
6
CONTINUOUS
10
6.16641
20
-3.00798
11
6.16388
21
-3.00189
0
LINE
8
BLACK
6
CONTINUOUS
10
6.16388
20
-3.00189
11
6.1626
21
-2.99542
0
LINE
8
BLACK
6
CONTINUOUS
10
6.1626
20
-2.99542
11
6.1626
21
-2.98883
0
LINE
8
BLACK
6
CONTINUOUS
10
6.1626
20
-2.98883
11
6.16388
21
-2.98236
0
LINE
8
BLACK
6
CONTINUOUS
10
6.16388
20
-2.98236
11
6.16641
21
-2.97627
0
LINE
8
BLACK
6
CONTINUOUS
10
6.16641
20
-2.97627
11
6.17007
21
-2.97079
0
LINE
8
BLACK
6
CONTINUOUS
10
6.17007
20
-2.97079
11
6.17473
21
-2.96613
0
LINE
8
BLACK
6
CONTINUOUS
10
6.17473
20
-2.96613
11
6.18021
21
-2.96247
0
LINE
8
BLACK
6
CONTINUOUS
10
6.18021
20
-2.96247
11
6.1863
21
-2.95995
0
LINE
8
BLACK
6
CONTINUOUS
10
6.1863
20
-2.95995
11
6.19277
21
-2.95866
0
LINE
8
BLACK
6
CONTINUOUS
10
6.19277
20
-2.95866
11
6.19936
21
-2.95866
0
LINE
8
BLACK
6
CONTINUOUS
10
6.19936
20
-2.95866
11
6.20582
21
-2.95995
0
LINE
8
BLACK
6
CONTINUOUS
10
6.30582
20
-2.95995
11
6.31191
21
-2.96247
0
LINE
8
BLACK
6
CONTINUOUS
10
6.31191
20
-2.96247
11
6.3174
21
-2.96613
0
LINE
8
BLACK
6
CONTINUOUS
10
6.3174
20
-2.96613
11
6.32206
21
-2.97079
0
LINE
8
BLACK
6
CONTINUOUS
10
6.32206
20
-2.97079
11
6.32572
21
-2.97627
0
LINE
8
BLACK
6
CONTINUOUS
10
6.32572
20
-2.97627
11
6.32824
21
-2.98236
0
LINE
8
BLACK
6
CONTINUOUS
10
6.32824
20
-2.98236
11
6.32953
21
-2.98883
0
LINE
8
BLACK
6
CONTINUOUS
10
6.32953
20
-2.98883
11
6.32953
21
-2.99542
0
LINE
8
BLACK
6
CONTINUOUS
10
6.32953
20
-2.99542
11
6.32824
21
-3.00189
0
LINE
8
BLACK
6
CONTINUOUS
10
6.32824
20
-3.00189
11
6.32572
21
-3.00798
0
LINE
8
BLACK
6
CONTINUOUS
10
6.32572
20
-3.00798
11
6.32206
21
-3.01346
0
LINE
8
BLACK
6
CONTINUOUS
10
6.32206
20
-3.01346
11
6.3174
21
-3.01812
0
LINE
8
BLACK
6
CONTINUOUS
10
6.3174
20
-3.01812
11
6.31191
21
-3.02178
0
LINE
8
BLACK
6
CONTINUOUS
10
6.31191
20
-3.02178
11
6.30582
21
-3.0243
0
LINE
8
BLACK
6
CONTINUOUS
10
6.30582
20
-3.0243
11
6.29936
21
-3.02559
0
LINE
8
BLACK
6
CONTINUOUS
10
6.29936
20
-3.02559
11
6.29277
21
-3.02559
0
LINE
8
BLACK
6
CONTINUOUS
10
6.29277
20
-3.02559
11
6.2863
21
-3.0243
0
LINE
8
BLACK
6
CONTINUOUS
10
6.2863
20
-3.0243
11
6.28021
21
-3.02178
0
LINE
8
BLACK
6
CONTINUOUS
10
6.28021
20
-3.02178
11
6.27473
21
-3.01812
0
LINE
8
BLACK
6
CONTINUOUS
10
6.27473
20
-3.01812
11
6.27007
21
-3.01346
0
LINE
8
BLACK
6
CONTINUOUS
10
6.27007
20
-3.01346
11
6.26641
21
-3.00798
0
LINE
8
BLACK
6
CONTINUOUS
10
6.26641
20
-3.00798
11
6.26388
21
-3.00189
0
LINE
8
BLACK
6
CONTINUOUS
10
6.26388
20
-3.00189
11
6.2626
21
-2.99542
0
LINE
8
BLACK
6
CONTINUOUS
10
6.2626
20
-2.99542
11
6.2626
21
-2.98883
0
LINE
8
BLACK
6
CONTINUOUS
10
6.2626
20
-2.98883
11
6.26388
21
-2.98236
0
LINE
8
BLACK
6
CONTINUOUS
10
6.26388
20
-2.98236
11
6.26641
21
-2.97627
0
LINE
8
BLACK
6
CONTINUOUS
10
6.26641
20
-2.97627
11
6.27007
21
-2.97079
0
LINE
8
BLACK
6
CONTINUOUS
10
6.27007
20
-2.97079
11
6.27473
21
-2.96613
0
LINE
8
BLACK
6
CONTINUOUS
10
6.27473
20
-2.96613
11
6.28021
21
-2.96247
0
LINE
8
BLACK
6
CONTINUOUS
10
6.28021
20
-2.96247
11
6.2863
21
-2.95995
0
LINE
8
BLACK
6
CONTINUOUS
10
6.2863
20
-2.95995
11
6.29277
21
-2.95866
0
LINE
8
BLACK
6
CONTINUOUS
10
6.29277
20
-2.95866
11
6.29936
21
-2.95866
0
LINE
8
BLACK
6
CONTINUOUS
10
6.29936
20
-2.95866
11
6.30582
21
-2.95995
0
LINE
8
BLACK
6
CONTINUOUS
10
6.40582
20
-2.95995
11
6.41191
21
-2.96247
0
LINE
8
BLACK
6
CONTINUOUS
10
6.41191
20
-2.96247
11
6.4174
21
-2.96613
0
LINE
8
BLACK
6
CONTINUOUS
10
6.4174
20
-2.96613
11
6.42206
21
-2.97079
0
LINE
8
BLACK
6
CONTINUOUS
10
6.42206
20
-2.97079
11
6.42572
21
-2.97627
0
LINE
8
BLACK
6
CONTINUOUS
10
6.42572
20
-2.97627
11
6.42824
21
-2.98236
0
LINE
8
BLACK
6
CONTINUOUS
10
6.42824
20
-2.98236
11
6.42953
21
-2.98883
0
LINE
8
BLACK
6
CONTINUOUS
10
6.42953
20
-2.98883
11
6.42953
21
-2.99542
0
LINE
8
BLACK
6
CONTINUOUS
10
6.42953
20
-2.99542
11
6.42824
21
-3.00189
0
LINE
8
BLACK
6
CONTINUOUS
10
6.42824
20
-3.00189
11
6.42572
21
-3.00798
0
LINE
8
BLACK
6
CONTINUOUS
10
6.42572
20
-3.00798
11
6.42206
21
-3.01346
0
LINE
8
BLACK
6
CONTINUOUS
10
6.42206
20
-3.01346
11
6.4174
21
-3.01812
0
LINE
8
BLACK
6
CONTINUOUS
10
6.4174
20
-3.01812
11
6.41191
21
-3.02178
0
LINE
8
BLACK
6
CONTINUOUS
10
6.41191
20
-3.02178
11
6.40582
21
-3.0243
0
LINE
8
BLACK
6
CONTINUOUS
10
6.40582
20
-3.0243
11
6.39936
21
-3.02559
0
LINE
8
BLACK
6
CONTINUOUS
10
6.39936
20
-3.02559
11
6.39277
21
-3.02559
0
LINE
8
BLACK
6
CONTINUOUS
10
6.39277
20
-3.02559
11
6.3863
21
-3.0243
0
LINE
8
BLACK
6
CONTINUOUS
10
6.3863
20
-3.0243
11
6.38021
21
-3.02178
0
LINE
8
BLACK
6
CONTINUOUS
10
6.38021
20
-3.02178
11
6.37473
21
-3.01812
0
LINE
8
BLACK
6
CONTINUOUS
10
6.37473
20
-3.01812
11
6.37007
21
-3.01346
0
LINE
8
BLACK
6
CONTINUOUS
10
6.37007
20
-3.01346
11
6.36641
21
-3.00798
0
LINE
8
BLACK
6
CONTINUOUS
10
6.36641
20
-3.00798
11
6.36388
21
-3.00189
0
LINE
8
BLACK
6
CONTINUOUS
10
6.36388
20
-3.00189
11
6.3626
21
-2.99542
0
LINE
8
BLACK
6
CONTINUOUS
10
6.3626
20
-2.99542
11
6.3626
21
-2.98883
0
LINE
8
BLACK
6
CONTINUOUS
10
6.3626
20
-2.98883
11
6.36388
21
-2.98236
0
LINE
8
BLACK
6
CONTINUOUS
10
6.36388
20
-2.98236
11
6.36641
21
-2.97627
0
LINE
8
BLACK
6
CONTINUOUS
10
6.36641
20
-2.97627
11
6.37007
21
-2.97079
0
LINE
8
BLACK
6
CONTINUOUS
10
6.37007
20
-2.97079
11
6.37473
21
-2.96613
0
LINE
8
BLACK
6
CONTINUOUS
10
6.37473
20
-2.96613
11
6.38021
21
-2.96247
0
LINE
8
BLACK
6
CONTINUOUS
10
6.38021
20
-2.96247
11
6.3863
21
-2.95995
0
LINE
8
BLACK
6
CONTINUOUS
10
6.3863
20
-2.95995
11
6.39277
21
-2.95866
0
LINE
8
BLACK
6
CONTINUOUS
10
6.39277
20
-2.95866
11
6.39936
21
-2.95866
0
LINE
8
BLACK
6
CONTINUOUS
10
6.39936
20
-2.95866
11
6.40582
21
-2.95995
0
LINE
8
BLACK
6
CONTINUOUS
10
6.52953
20
-3.02559
11
6.4626
21
-3.02559
0
LINE
8
BLACK
6
CONTINUOUS
10
6.4626
20
-3.02559
11
6.4626
21
-2.95866
0
LINE
8
BLACK
6
CONTINUOUS
10
6.4626
20
-2.95866
11
6.52953
21
-2.95866
0
LINE
8
BLACK
6
CONTINUOUS
10
6.52953
20
-2.95866
11
6.52953
21
-3.02559
0
LINE
8
BLACK
6
CONTINUOUS
10
5.57905
20
-2.40877
11
5.58514
21
-2.41129
0
LINE
8
BLACK
6
CONTINUOUS
10
5.58514
20
-2.41129
11
5.59062
21
-2.41495
0
LINE
8
BLACK
6
CONTINUOUS
10
5.59062
20
-2.41495
11
5.59528
21
-2.41961
0
LINE
8
BLACK
6
CONTINUOUS
10
5.59528
20
-2.41961
11
5.59895
21
-2.42509
0
LINE
8
BLACK
6
CONTINUOUS
10
5.59895
20
-2.42509
11
5.60147
21
-2.43118
0
LINE
8
BLACK
6
CONTINUOUS
10
5.60147
20
-2.43118
11
5.60276
21
-2.43765
0
LINE
8
BLACK
6
CONTINUOUS
10
5.60276
20
-2.43765
11
5.60276
21
-2.44424
0
LINE
8
BLACK
6
CONTINUOUS
10
5.60276
20
-2.44424
11
5.60147
21
-2.45071
0
LINE
8
BLACK
6
CONTINUOUS
10
5.60147
20
-2.45071
11
5.59895
21
-2.4568
0
LINE
8
BLACK
6
CONTINUOUS
10
5.59895
20
-2.4568
11
5.59528
21
-2.46228
0
LINE
8
BLACK
6
CONTINUOUS
10
5.59528
20
-2.46228
11
5.59062
21
-2.46694
0
LINE
8
BLACK
6
CONTINUOUS
10
5.59062
20
-2.46694
11
5.58514
21
-2.4706
0
LINE
8
BLACK
6
CONTINUOUS
10
5.58514
20
-2.4706
11
5.57905
21
-2.47312
0
LINE
8
BLACK
6
CONTINUOUS
10
5.57905
20
-2.47312
11
5.57259
21
-2.47441
0
LINE
8
BLACK
6
CONTINUOUS
10
5.57259
20
-2.47441
11
5.566
21
-2.47441
0
LINE
8
BLACK
6
CONTINUOUS
10
5.566
20
-2.47441
11
5.55953
21
-2.47312
0
LINE
8
BLACK
6
CONTINUOUS
10
5.55953
20
-2.47312
11
5.55344
21
-2.4706
0
LINE
8
BLACK
6
CONTINUOUS
10
5.55344
20
-2.4706
11
5.54796
21
-2.46694
0
LINE
8
BLACK
6
CONTINUOUS
10
5.54796
20
-2.46694
11
5.5433
21
-2.46228
0
LINE
8
BLACK
6
CONTINUOUS
10
5.5433
20
-2.46228
11
5.53964
21
-2.4568
0
LINE
8
BLACK
6
CONTINUOUS
10
5.53964
20
-2.4568
11
5.53711
21
-2.45071
0
LINE
8
BLACK
6
CONTINUOUS
10
5.53711
20
-2.45071
11
5.53583
21
-2.44424
0
LINE
8
BLACK
6
CONTINUOUS
10
5.53583
20
-2.44424
11
5.53583
21
-2.43765
0
LINE
8
BLACK
6
CONTINUOUS
10
5.53583
20
-2.43765
11
5.53711
21
-2.43118
0
LINE
8
BLACK
6
CONTINUOUS
10
5.53711
20
-2.43118
11
5.53964
21
-2.42509
0
LINE
8
BLACK
6
CONTINUOUS
10
5.53964
20
-2.42509
11
5.5433
21
-2.41961
0
LINE
8
BLACK
6
CONTINUOUS
10
5.5433
20
-2.41961
11
5.54796
21
-2.41495
0
LINE
8
BLACK
6
CONTINUOUS
10
5.54796
20
-2.41495
11
5.55344
21
-2.41129
0
LINE
8
BLACK
6
CONTINUOUS
10
5.55344
20
-2.41129
11
5.55953
21
-2.40877
0
LINE
8
BLACK
6
CONTINUOUS
10
5.55953
20
-2.40877
11
5.566
21
-2.40748
0
LINE
8
BLACK
6
CONTINUOUS
10
5.566
20
-2.40748
11
5.57259
21
-2.40748
0
LINE
8
BLACK
6
CONTINUOUS
10
5.57259
20
-2.40748
11
5.57905
21
-2.40877
0
LINE
8
BLACK
6
CONTINUOUS
10
5.70276
20
-2.47441
11
5.63583
21
-2.47441
0
LINE
8
BLACK
6
CONTINUOUS
10
5.63583
20
-2.47441
11
5.63583
21
-2.40748
0
LINE
8
BLACK
6
CONTINUOUS
10
5.63583
20
-2.40748
11
5.70276
21
-2.40748
0
LINE
8
BLACK
6
CONTINUOUS
10
5.70276
20
-2.40748
11
5.70276
21
-2.47441
0
LINE
8
BLACK
6
CONTINUOUS
10
6.8389
20
-2.40877
11
6.84499
21
-2.41129
0
LINE
8
BLACK
6
CONTINUOUS
10
6.84499
20
-2.41129
11
6.85047
21
-2.41495
0
LINE
8
BLACK
6
CONTINUOUS
10
6.85047
20
-2.41495
11
6.85513
21
-2.41961
0
LINE
8
BLACK
6
CONTINUOUS
10
6.85513
20
-2.41961
11
6.85879
21
-2.42509
0
LINE
8
BLACK
6
CONTINUOUS
10
6.85879
20
-2.42509
11
6.86131
21
-2.43118
0
LINE
8
BLACK
6
CONTINUOUS
10
6.86131
20
-2.43118
11
6.8626
21
-2.43765
0
LINE
8
BLACK
6
CONTINUOUS
10
6.8626
20
-2.43765
11
6.8626
21
-2.44424
0
LINE
8
BLACK
6
CONTINUOUS
10
6.8626
20
-2.44424
11
6.86131
21
-2.45071
0
LINE
8
BLACK
6
CONTINUOUS
10
6.86131
20
-2.45071
11
6.85879
21
-2.4568
0
LINE
8
BLACK
6
CONTINUOUS
10
6.85879
20
-2.4568
11
6.85513
21
-2.46228
0
LINE
8
BLACK
6
CONTINUOUS
10
6.85513
20
-2.46228
11
6.85047
21
-2.46694
0
LINE
8
BLACK
6
CONTINUOUS
10
6.85047
20
-2.46694
11
6.84499
21
-2.4706
0
LINE
8
BLACK
6
CONTINUOUS
10
6.84499
20
-2.4706
11
6.8389
21
-2.47312
0
LINE
8
BLACK
6
CONTINUOUS
10
6.8389
20
-2.47312
11
6.83243
21
-2.47441
0
LINE
8
BLACK
6
CONTINUOUS
10
6.83243
20
-2.47441
11
6.82584
21
-2.47441
0
LINE
8
BLACK
6
CONTINUOUS
10
6.82584
20
-2.47441
11
6.81937
21
-2.47312
0
LINE
8
BLACK
6
CONTINUOUS
10
6.81937
20
-2.47312
11
6.81328
21
-2.4706
0
LINE
8
BLACK
6
CONTINUOUS
10
6.81328
20
-2.4706
11
6.8078
21
-2.46694
0
LINE
8
BLACK
6
CONTINUOUS
10
6.8078
20
-2.46694
11
6.80314
21
-2.46228
0
LINE
8
BLACK
6
CONTINUOUS
10
6.80314
20
-2.46228
11
6.79948
21
-2.4568
0
LINE
8
BLACK
6
CONTINUOUS
10
6.79948
20
-2.4568
11
6.79696
21
-2.45071
0
LINE
8
BLACK
6
CONTINUOUS
10
6.79696
20
-2.45071
11
6.79567
21
-2.44424
0
LINE
8
BLACK
6
CONTINUOUS
10
6.79567
20
-2.44424
11
6.79567
21
-2.43765
0
LINE
8
BLACK
6
CONTINUOUS
10
6.79567
20
-2.43765
11
6.79696
21
-2.43118
0
LINE
8
BLACK
6
CONTINUOUS
10
6.79696
20
-2.43118
11
6.79948
21
-2.42509
0
LINE
8
BLACK
6
CONTINUOUS
10
6.79948
20
-2.42509
11
6.80314
21
-2.41961
0
LINE
8
BLACK
6
CONTINUOUS
10
6.80314
20
-2.41961
11
6.8078
21
-2.41495
0
LINE
8
BLACK
6
CONTINUOUS
10
6.8078
20
-2.41495
11
6.81328
21
-2.41129
0
LINE
8
BLACK
6
CONTINUOUS
10
6.81328
20
-2.41129
11
6.81937
21
-2.40877
0
LINE
8
BLACK
6
CONTINUOUS
10
6.81937
20
-2.40877
11
6.82584
21
-2.40748
0
LINE
8
BLACK
6
CONTINUOUS
10
6.82584
20
-2.40748
11
6.83243
21
-2.40748
0
LINE
8
BLACK
6
CONTINUOUS
10
6.83243
20
-2.40748
11
6.8389
21
-2.40877
0
LINE
8
BLACK
6
CONTINUOUS
10
6.33268
20
-2.47441
11
6.26575
21
-2.47441
0
LINE
8
BLACK
6
CONTINUOUS
10
6.26575
20
-2.47441
11
6.26575
21
-2.40748
0
LINE
8
BLACK
6
CONTINUOUS
10
6.26575
20
-2.40748
11
6.33268
21
-2.40748
0
LINE
8
BLACK
6
CONTINUOUS
10
6.33268
20
-2.40748
11
6.33268
21
-2.47441
0
LINE
8
BLACK
6
CONTINUOUS
10
6.20897
20
-2.40877
11
6.21506
21
-2.41129
0
LINE
8
BLACK
6
CONTINUOUS
10
6.21506
20
-2.41129
11
6.22055
21
-2.41495
0
LINE
8
BLACK
6
CONTINUOUS
10
6.22055
20
-2.41495
11
6.22521
21
-2.41961
0
LINE
8
BLACK
6
CONTINUOUS
10
6.22521
20
-2.41961
11
6.22887
21
-2.42509
0
LINE
8
BLACK
6
CONTINUOUS
10
6.22887
20
-2.42509
11
6.23139
21
-2.43118
0
LINE
8
BLACK
6
CONTINUOUS
10
6.23139
20
-2.43118
11
6.23268
21
-2.43765
0
LINE
8
BLACK
6
CONTINUOUS
10
6.23268
20
-2.43765
11
6.23268
21
-2.44424
0
LINE
8
BLACK
6
CONTINUOUS
10
6.23268
20
-2.44424
11
6.23139
21
-2.45071
0
LINE
8
BLACK
6
CONTINUOUS
10
6.23139
20
-2.45071
11
6.22887
21
-2.4568
0
LINE
8
BLACK
6
CONTINUOUS
10
6.22887
20
-2.4568
11
6.22521
21
-2.46228
0
LINE
8
BLACK
6
CONTINUOUS
10
6.22521
20
-2.46228
11
6.22055
21
-2.46694
0
LINE
8
BLACK
6
CONTINUOUS
10
6.22055
20
-2.46694
11
6.21506
21
-2.4706
0
LINE
8
BLACK
6
CONTINUOUS
10
6.21506
20
-2.4706
11
6.20897
21
-2.47312
0
LINE
8
BLACK
6
CONTINUOUS
10
6.20897
20
-2.47312
11
6.20251
21
-2.47441
0
LINE
8
BLACK
6
CONTINUOUS
10
6.20251
20
-2.47441
11
6.19592
21
-2.47441
0
LINE
8
BLACK
6
CONTINUOUS
10
6.19592
20
-2.47441
11
6.18945
21
-2.47312
0
LINE
8
BLACK
6
CONTINUOUS
10
6.18945
20
-2.47312
11
6.18336
21
-2.4706
0
LINE
8
BLACK
6
CONTINUOUS
10
6.18336
20
-2.4706
11
6.17788
21
-2.46694
0
LINE
8
BLACK
6
CONTINUOUS
10
6.17788
20
-2.46694
11
6.17322
21
-2.46228
0
LINE
8
BLACK
6
CONTINUOUS
10
6.17322
20
-2.46228
11
6.16956
21
-2.4568
0
LINE
8
BLACK
6
CONTINUOUS
10
6.16956
20
-2.4568
11
6.16703
21
-2.45071
0
LINE
8
BLACK
6
CONTINUOUS
10
6.16703
20
-2.45071
11
6.16575
21
-2.44424
0
LINE
8
BLACK
6
CONTINUOUS
10
6.16575
20
-2.44424
11
6.16575
21
-2.43765
0
LINE
8
BLACK
6
CONTINUOUS
10
6.16575
20
-2.43765
11
6.16703
21
-2.43118
0
LINE
8
BLACK
6
CONTINUOUS
10
6.16703
20
-2.43118
11
6.16956
21
-2.42509
0
LINE
8
BLACK
6
CONTINUOUS
10
6.16956
20
-2.42509
11
6.17322
21
-2.41961
0
LINE
8
BLACK
6
CONTINUOUS
10
6.17322
20
-2.41961
11
6.17788
21
-2.41495
0
LINE
8
BLACK
6
CONTINUOUS
10
6.17788
20
-2.41495
11
6.18336
21
-2.41129
0
LINE
8
BLACK
6
CONTINUOUS
10
6.18336
20
-2.41129
11
6.18945
21
-2.40877
0
LINE
8
BLACK
6
CONTINUOUS
10
6.18945
20
-2.40877
11
6.19592
21
-2.40748
0
LINE
8
BLACK
6
CONTINUOUS
10
6.19592
20
-2.40748
11
6.20251
21
-2.40748
0
LINE
8
BLACK
6
CONTINUOUS
10
6.20251
20
-2.40748
11
6.20897
21
-2.40877
0
LINE
8
BLACK
6
CONTINUOUS
10
7.23819
20
-2.47441
11
7.17126
21
-2.47441
0
LINE
8
BLACK
6
CONTINUOUS
10
7.17126
20
-2.47441
11
7.17126
21
-2.40748
0
LINE
8
BLACK
6
CONTINUOUS
10
7.17126
20
-2.40748
11
7.23819
21
-2.40748
0
LINE
8
BLACK
6
CONTINUOUS
10
7.23819
20
-2.40748
11
7.23819
21
-2.47441
0
LINE
8
BLACK
6
CONTINUOUS
10
7.11449
20
-2.40877
11
7.12058
21
-2.41129
0
LINE
8
BLACK
6
CONTINUOUS
10
7.12058
20
-2.41129
11
7.12606
21
-2.41495
0
LINE
8
BLACK
6
CONTINUOUS
10
7.12606
20
-2.41495
11
7.13072
21
-2.41961
0
LINE
8
BLACK
6
CONTINUOUS
10
7.13072
20
-2.41961
11
7.13438
21
-2.42509
0
LINE
8
BLACK
6
CONTINUOUS
10
7.13438
20
-2.42509
11
7.1369
21
-2.43118
0
LINE
8
BLACK
6
CONTINUOUS
10
7.1369
20
-2.43118
11
7.13819
21
-2.43765
0
LINE
8
BLACK
6
CONTINUOUS
10
7.13819
20
-2.43765
11
7.13819
21
-2.44424
0
LINE
8
BLACK
6
CONTINUOUS
10
7.13819
20
-2.44424
11
7.1369
21
-2.45071
0
LINE
8
BLACK
6
CONTINUOUS
10
7.1369
20
-2.45071
11
7.13438
21
-2.4568
0
LINE
8
BLACK
6
CONTINUOUS
10
7.13438
20
-2.4568
11
7.13072
21
-2.46228
0
LINE
8
BLACK
6
CONTINUOUS
10
7.13072
20
-2.46228
11
7.12606
21
-2.46694
0
LINE
8
BLACK
6
CONTINUOUS
10
7.12606
20
-2.46694
11
7.12058
21
-2.4706
0
LINE
8
BLACK
6
CONTINUOUS
10
7.12058
20
-2.4706
11
7.11449
21
-2.47312
0
LINE
8
BLACK
6
CONTINUOUS
10
7.11449
20
-2.47312
11
7.10802
21
-2.47441
0
LINE
8
BLACK
6
CONTINUOUS
10
7.10802
20
-2.47441
11
7.10143
21
-2.47441
0
LINE
8
BLACK
6
CONTINUOUS
10
7.10143
20
-2.47441
11
7.09496
21
-2.47312
0
LINE
8
BLACK
6
CONTINUOUS
10
7.09496
20
-2.47312
11
7.08887
21
-2.4706
0
LINE
8
BLACK
6
CONTINUOUS
10
7.08887
20
-2.4706
11
7.08339
21
-2.46694
0
LINE
8
BLACK
6
CONTINUOUS
10
7.08339
20
-2.46694
11
7.07873
21
-2.46228
0
LINE
8
BLACK
6
CONTINUOUS
10
7.07873
20
-2.46228
11
7.07507
21
-2.4568
0
LINE
8
BLACK
6
CONTINUOUS
10
7.07507
20
-2.4568
11
7.07255
21
-2.45071
0
LINE
8
BLACK
6
CONTINUOUS
10
7.07255
20
-2.45071
11
7.07126
21
-2.44424
0
LINE
8
BLACK
6
CONTINUOUS
10
7.07126
20
-2.44424
11
7.07126
21
-2.43765
0
LINE
8
BLACK
6
CONTINUOUS
10
7.07126
20
-2.43765
11
7.07255
21
-2.43118
0
LINE
8
BLACK
6
CONTINUOUS
10
7.07255
20
-2.43118
11
7.07507
21
-2.42509
0
LINE
8
BLACK
6
CONTINUOUS
10
7.07507
20
-2.42509
11
7.07873
21
-2.41961
0
LINE
8
BLACK
6
CONTINUOUS
10
7.07873
20
-2.41961
11
7.08339
21
-2.41495
0
LINE
8
BLACK
6
CONTINUOUS
10
7.08339
20
-2.41495
11
7.08887
21
-2.41129
0
LINE
8
BLACK
6
CONTINUOUS
10
7.08887
20
-2.41129
11
7.09496
21
-2.40877
0
LINE
8
BLACK
6
CONTINUOUS
10
7.09496
20
-2.40877
11
7.10143
21
-2.40748
0
LINE
8
BLACK
6
CONTINUOUS
10
7.10143
20
-2.40748
11
7.10802
21
-2.40748
0
LINE
8
BLACK
6
CONTINUOUS
10
7.10802
20
-2.40748
11
7.11449
21
-2.40877
0
LINE
8
BLACK
6
CONTINUOUS
10
6.64764
20
-2.47441
11
6.58071
21
-2.47441
0
LINE
8
BLACK
6
CONTINUOUS
10
6.58071
20
-2.47441
11
6.58071
21
-2.40748
0
LINE
8
BLACK
6
CONTINUOUS
10
6.58071
20
-2.40748
11
6.64764
21
-2.40748
0
LINE
8
BLACK
6
CONTINUOUS
10
6.64764
20
-2.40748
11
6.64764
21
-2.47441
0
LINE
8
BLACK
6
CONTINUOUS
10
6.52393
20
-2.40877
11
6.53002
21
-2.41129
0
LINE
8
BLACK
6
CONTINUOUS
10
6.53002
20
-2.41129
11
6.53551
21
-2.41495
0
LINE
8
BLACK
6
CONTINUOUS
10
6.53551
20
-2.41495
11
6.54017
21
-2.41961
0
LINE
8
BLACK
6
CONTINUOUS
10
6.54017
20
-2.41961
11
6.54383
21
-2.42509
0
LINE
8
BLACK
6
CONTINUOUS
10
6.54383
20
-2.42509
11
6.54635
21
-2.43118
0
LINE
8
BLACK
6
CONTINUOUS
10
6.54635
20
-2.43118
11
6.54764
21
-2.43765
0
LINE
8
BLACK
6
CONTINUOUS
10
6.54764
20
-2.43765
11
6.54764
21
-2.44424
0
LINE
8
BLACK
6
CONTINUOUS
10
6.54764
20
-2.44424
11
6.54635
21
-2.45071
0
LINE
8
BLACK
6
CONTINUOUS
10
6.54635
20
-2.45071
11
6.54383
21
-2.4568
0
LINE
8
BLACK
6
CONTINUOUS
10
6.54383
20
-2.4568
11
6.54017
21
-2.46228
0
LINE
8
BLACK
6
CONTINUOUS
10
6.54017
20
-2.46228
11
6.53551
21
-2.46694
0
LINE
8
BLACK
6
CONTINUOUS
10
6.53551
20
-2.46694
11
6.53002
21
-2.4706
0
LINE
8
BLACK
6
CONTINUOUS
10
6.53002
20
-2.4706
11
6.52393
21
-2.47312
0
LINE
8
BLACK
6
CONTINUOUS
10
6.52393
20
-2.47312
11
6.51747
21
-2.47441
0
LINE
8
BLACK
6
CONTINUOUS
10
6.51747
20
-2.47441
11
6.51088
21
-2.47441
0
LINE
8
BLACK
6
CONTINUOUS
10
6.51088
20
-2.47441
11
6.50441
21
-2.47312
0
LINE
8
BLACK
6
CONTINUOUS
10
6.50441
20
-2.47312
11
6.49832
21
-2.4706
0
LINE
8
BLACK
6
CONTINUOUS
10
6.49832
20
-2.4706
11
6.49284
21
-2.46694
0
LINE
8
BLACK
6
CONTINUOUS
10
6.49284
20
-2.46694
11
6.48818
21
-2.46228
0
LINE
8
BLACK
6
CONTINUOUS
10
6.48818
20
-2.46228
11
6.48452
21
-2.4568
0
LINE
8
BLACK
6
CONTINUOUS
10
6.48452
20
-2.4568
11
6.48199
21
-2.45071
0
LINE
8
BLACK
6
CONTINUOUS
10
6.48199
20
-2.45071
11
6.48071
21
-2.44424
0
LINE
8
BLACK
6
CONTINUOUS
10
6.48071
20
-2.44424
11
6.48071
21
-2.43765
0
LINE
8
BLACK
6
CONTINUOUS
10
6.48071
20
-2.43765
11
6.48199
21
-2.43118
0
LINE
8
BLACK
6
CONTINUOUS
10
6.48199
20
-2.43118
11
6.48452
21
-2.42509
0
LINE
8
BLACK
6
CONTINUOUS
10
6.48452
20
-2.42509
11
6.48818
21
-2.41961
0
LINE
8
BLACK
6
CONTINUOUS
10
6.48818
20
-2.41961
11
6.49284
21
-2.41495
0
LINE
8
BLACK
6
CONTINUOUS
10
6.49284
20
-2.41495
11
6.49832
21
-2.41129
0
LINE
8
BLACK
6
CONTINUOUS
10
6.49832
20
-2.41129
11
6.50441
21
-2.40877
0
LINE
8
BLACK
6
CONTINUOUS
10
6.50441
20
-2.40877
11
6.51088
21
-2.40748
0
LINE
8
BLACK
6
CONTINUOUS
10
6.51088
20
-2.40748
11
6.51747
21
-2.40748
0
LINE
8
BLACK
6
CONTINUOUS
10
6.51747
20
-2.40748
11
6.52393
21
-2.40877
0
LINE
8
BLACK
6
CONTINUOUS
10
6.01772
20
-2.47441
11
5.95079
21
-2.47441
0
LINE
8
BLACK
6
CONTINUOUS
10
5.95079
20
-2.47441
11
5.95079
21
-2.40748
0
LINE
8
BLACK
6
CONTINUOUS
10
5.95079
20
-2.40748
11
6.01772
21
-2.40748
0
LINE
8
BLACK
6
CONTINUOUS
10
6.01772
20
-2.40748
11
6.01772
21
-2.47441
0
LINE
8
BLACK
6
CONTINUOUS
10
5.89401
20
-2.40877
11
5.9001
21
-2.41129
0
LINE
8
BLACK
6
CONTINUOUS
10
5.9001
20
-2.41129
11
5.90558
21
-2.41495
0
LINE
8
BLACK
6
CONTINUOUS
10
5.90558
20
-2.41495
11
5.91025
21
-2.41961
0
LINE
8
BLACK
6
CONTINUOUS
10
5.91025
20
-2.41961
11
5.91391
21
-2.42509
0
LINE
8
BLACK
6
CONTINUOUS
10
5.91391
20
-2.42509
11
5.91643
21
-2.43118
0
LINE
8
BLACK
6
CONTINUOUS
10
5.91643
20
-2.43118
11
5.91772
21
-2.43765
0
LINE
8
BLACK
6
CONTINUOUS
10
5.91772
20
-2.43765
11
5.91772
21
-2.44424
0
LINE
8
BLACK
6
CONTINUOUS
10
5.91772
20
-2.44424
11
5.91643
21
-2.45071
0
LINE
8
BLACK
6
CONTINUOUS
10
5.91643
20
-2.45071
11
5.91391
21
-2.4568
0
LINE
8
BLACK
6
CONTINUOUS
10
5.91391
20
-2.4568
11
5.91025
21
-2.46228
0
LINE
8
BLACK
6
CONTINUOUS
10
5.91025
20
-2.46228
11
5.90558
21
-2.46694
0
LINE
8
BLACK
6
CONTINUOUS
10
5.90558
20
-2.46694
11
5.9001
21
-2.4706
0
LINE
8
BLACK
6
CONTINUOUS
10
5.9001
20
-2.4706
11
5.89401
21
-2.47312
0
LINE
8
BLACK
6
CONTINUOUS
10
5.89401
20
-2.47312
11
5.88755
21
-2.47441
0
LINE
8
BLACK
6
CONTINUOUS
10
5.88755
20
-2.47441
11
5.88096
21
-2.47441
0
LINE
8
BLACK
6
CONTINUOUS
10
5.88096
20
-2.47441
11
5.87449
21
-2.47312
0
LINE
8
BLACK
6
CONTINUOUS
10
5.87449
20
-2.47312
11
5.8684
21
-2.4706
0
LINE
8
BLACK
6
CONTINUOUS
10
5.8684
20
-2.4706
11
5.86292
21
-2.46694
0
LINE
8
BLACK
6
CONTINUOUS
10
5.86292
20
-2.46694
11
5.85826
21
-2.46228
0
LINE
8
BLACK
6
CONTINUOUS
10
5.85826
20
-2.46228
11
5.8546
21
-2.4568
0
LINE
8
BLACK
6
CONTINUOUS
10
5.8546
20
-2.4568
11
5.85207
21
-2.45071
0
LINE
8
BLACK
6
CONTINUOUS
10
5.85207
20
-2.45071
11
5.85079
21
-2.44424
0
LINE
8
BLACK
6
CONTINUOUS
10
5.85079
20
-2.44424
11
5.85079
21
-2.43765
0
LINE
8
BLACK
6
CONTINUOUS
10
5.85079
20
-2.43765
11
5.85207
21
-2.43118
0
LINE
8
BLACK
6
CONTINUOUS
10
5.85207
20
-2.43118
11
5.8546
21
-2.42509
0
LINE
8
BLACK
6
CONTINUOUS
10
5.8546
20
-2.42509
11
5.85826
21
-2.41961
0
LINE
8
BLACK
6
CONTINUOUS
10
5.85826
20
-2.41961
11
5.86292
21
-2.41495
0
LINE
8
BLACK
6
CONTINUOUS
10
5.86292
20
-2.41495
11
5.8684
21
-2.41129
0
LINE
8
BLACK
6
CONTINUOUS
10
5.8684
20
-2.41129
11
5.87449
21
-2.40877
0
LINE
8
BLACK
6
CONTINUOUS
10
5.87449
20
-2.40877
11
5.88096
21
-2.40748
0
LINE
8
BLACK
6
CONTINUOUS
10
5.88096
20
-2.40748
11
5.88755
21
-2.40748
0
LINE
8
BLACK
6
CONTINUOUS
10
5.88755
20
-2.40748
11
5.89401
21
-2.40877
0
LINE
8
BLACK
6
CONTINUOUS
10
5.3878
20
-2.47441
11
5.32087
21
-2.47441
0
LINE
8
BLACK
6
CONTINUOUS
10
5.32087
20
-2.47441
11
5.32087
21
-2.40748
0
LINE
8
BLACK
6
CONTINUOUS
10
5.32087
20
-2.40748
11
5.3878
21
-2.40748
0
LINE
8
BLACK
6
CONTINUOUS
10
5.3878
20
-2.40748
11
5.3878
21
-2.47441
0
LINE
8
BLACK
6
CONTINUOUS
10
5.26409
20
-2.40877
11
5.27018
21
-2.41129
0
LINE
8
BLACK
6
CONTINUOUS
10
5.27018
20
-2.41129
11
5.27566
21
-2.41495
0
LINE
8
BLACK
6
CONTINUOUS
10
5.27566
20
-2.41495
11
5.28032
21
-2.41961
0
LINE
8
BLACK
6
CONTINUOUS
10
5.28032
20
-2.41961
11
5.28399
21
-2.42509
0
LINE
8
BLACK
6
CONTINUOUS
10
5.28399
20
-2.42509
11
5.28651
21
-2.43118
0
LINE
8
BLACK
6
CONTINUOUS
10
5.28651
20
-2.43118
11
5.2878
21
-2.43765
0
LINE
8
BLACK
6
CONTINUOUS
10
5.2878
20
-2.43765
11
5.2878
21
-2.44424
0
LINE
8
BLACK
6
CONTINUOUS
10
5.2878
20
-2.44424
11
5.28651
21
-2.45071
0
LINE
8
BLACK
6
CONTINUOUS
10
5.28651
20
-2.45071
11
5.28399
21
-2.4568
0
LINE
8
BLACK
6
CONTINUOUS
10
5.28399
20
-2.4568
11
5.28032
21
-2.46228
0
LINE
8
BLACK
6
CONTINUOUS
10
5.28032
20
-2.46228
11
5.27566
21
-2.46694
0
LINE
8
BLACK
6
CONTINUOUS
10
5.27566
20
-2.46694
11
5.27018
21
-2.4706
0
LINE
8
BLACK
6
CONTINUOUS
10
5.27018
20
-2.4706
11
5.26409
21
-2.47312
0
LINE
8
BLACK
6
CONTINUOUS
10
5.26409
20
-2.47312
11
5.25763
21
-2.47441
0
LINE
8
BLACK
6
CONTINUOUS
10
5.25763
20
-2.47441
11
5.25103
21
-2.47441
0
LINE
8
BLACK
6
CONTINUOUS
10
5.25103
20
-2.47441
11
5.24457
21
-2.47312
0
LINE
8
BLACK
6
CONTINUOUS
10
5.24457
20
-2.47312
11
5.23848
21
-2.4706
0
LINE
8
BLACK
6
CONTINUOUS
10
5.23848
20
-2.4706
11
5.233
21
-2.46694
0
LINE
8
BLACK
6
CONTINUOUS
10
5.233
20
-2.46694
11
5.22834
21
-2.46228
0
LINE
8
BLACK
6
CONTINUOUS
10
5.22834
20
-2.46228
11
5.22467
21
-2.4568
0
LINE
8
BLACK
6
CONTINUOUS
10
5.22467
20
-2.4568
11
5.22215
21
-2.45071
0
LINE
8
BLACK
6
CONTINUOUS
10
5.22215
20
-2.45071
11
5.22087
21
-2.44424
0
LINE
8
BLACK
6
CONTINUOUS
10
5.22087
20
-2.44424
11
5.22087
21
-2.43765
0
LINE
8
BLACK
6
CONTINUOUS
10
5.22087
20
-2.43765
11
5.22215
21
-2.43118
0
LINE
8
BLACK
6
CONTINUOUS
10
5.22215
20
-2.43118
11
5.22467
21
-2.42509
0
LINE
8
BLACK
6
CONTINUOUS
10
5.22467
20
-2.42509
11
5.22834
21
-2.41961
0
LINE
8
BLACK
6
CONTINUOUS
10
5.22834
20
-2.41961
11
5.233
21
-2.41495
0
LINE
8
BLACK
6
CONTINUOUS
10
5.233
20
-2.41495
11
5.23848
21
-2.41129
0
LINE
8
BLACK
6
CONTINUOUS
10
5.23848
20
-2.41129
11
5.24457
21
-2.40877
0
LINE
8
BLACK
6
CONTINUOUS
10
5.24457
20
-2.40877
11
5.25103
21
-2.40748
0
LINE
8
BLACK
6
CONTINUOUS
10
5.25103
20
-2.40748
11
5.25763
21
-2.40748
0
LINE
8
BLACK
6
CONTINUOUS
10
5.25763
20
-2.40748
11
5.26409
21
-2.40877
0
LINE
8
BLACK
6
CONTINUOUS
10
6.9626
20
-2.47441
11
6.89567
21
-2.47441
0
LINE
8
BLACK
6
CONTINUOUS
10
6.89567
20
-2.47441
11
6.89567
21
-2.40748
0
LINE
8
BLACK
6
CONTINUOUS
10
6.89567
20
-2.40748
11
6.9626
21
-2.40748
0
LINE
8
BLACK
6
CONTINUOUS
10
6.9626
20
-2.40748
11
6.9626
21
-2.47441
  0
ENDSEC
  0
EOF
