%FSLAX45Y45*%
G04 Gerber Fmt 4.5, Leading zero omitted, Abs format (unit mm)*
G04 Created by KiCad (PCBNEW 5.1.9) date 2021-06-26 10:44:56*
%MOMM*%
%LPD*%
G01*
G04 APERTURE LIST*
%ADD10C,0.200000*%
%ADD11C,0.300000*%
G04 APERTURE END LIST*
D10*
X5332500Y-6342500D02*
X5607500Y-6617500D01*
X5607500Y-6342500D02*
X5332500Y-6617500D01*
X5332500Y-12142500D02*
X5607500Y-12417500D01*
X5607500Y-12142500D02*
X5332500Y-12417500D01*
X7632500Y-6342500D02*
X7907500Y-6617500D01*
X7907500Y-6342500D02*
X7632500Y-6617500D01*
X7632500Y-12142500D02*
X7907500Y-12417500D01*
X7907500Y-12142500D02*
X7632500Y-12417500D01*
X10232500Y-6342500D02*
X10507500Y-6617500D01*
X10507500Y-6342500D02*
X10232500Y-6617500D01*
X10232500Y-12142500D02*
X10507500Y-12417500D01*
X10507500Y-12142500D02*
X10232500Y-12417500D01*
X5660000Y-3200000D02*
G75*
G03*
X5660000Y-3200000I-160000J0D01*
G01*
X7160000Y-18500000D02*
G75*
G03*
X7160000Y-18500000I-160000J0D01*
G01*
X7660000Y-13600000D02*
G75*
G03*
X7660000Y-13600000I-160000J0D01*
G01*
X9760000Y-8000000D02*
G75*
G03*
X9760000Y-8000000I-160000J0D01*
G01*
X11260000Y-3200000D02*
G75*
G03*
X11260000Y-3200000I-160000J0D01*
G01*
X12460000Y-11700000D02*
G75*
G03*
X12460000Y-11700000I-160000J0D01*
G01*
D11*
X286429Y-465714D02*
X286429Y-165714D01*
X357857Y-165714D01*
X400714Y-180000D01*
X429286Y-208571D01*
X443571Y-237143D01*
X457857Y-294286D01*
X457857Y-337143D01*
X443571Y-394286D01*
X429286Y-422857D01*
X400714Y-451428D01*
X357857Y-465714D01*
X286429Y-465714D01*
X586429Y-465714D02*
X586429Y-265714D01*
X586429Y-322857D02*
X600714Y-294286D01*
X615000Y-280000D01*
X643571Y-265714D01*
X672143Y-265714D01*
X772143Y-465714D02*
X772143Y-265714D01*
X772143Y-165714D02*
X757857Y-180000D01*
X772143Y-194286D01*
X786428Y-180000D01*
X772143Y-165714D01*
X772143Y-194286D01*
X957857Y-465714D02*
X929286Y-451428D01*
X915000Y-422857D01*
X915000Y-165714D01*
X1115000Y-465714D02*
X1086429Y-451428D01*
X1072143Y-422857D01*
X1072143Y-165714D01*
X1457857Y-465714D02*
X1457857Y-165714D01*
X1557857Y-380000D01*
X1657857Y-165714D01*
X1657857Y-465714D01*
X1929286Y-465714D02*
X1929286Y-308571D01*
X1915000Y-280000D01*
X1886428Y-265714D01*
X1829286Y-265714D01*
X1800714Y-280000D01*
X1929286Y-451428D02*
X1900714Y-465714D01*
X1829286Y-465714D01*
X1800714Y-451428D01*
X1786428Y-422857D01*
X1786428Y-394286D01*
X1800714Y-365714D01*
X1829286Y-351428D01*
X1900714Y-351428D01*
X1929286Y-337143D01*
X2072143Y-265714D02*
X2072143Y-565714D01*
X2072143Y-280000D02*
X2100714Y-265714D01*
X2157857Y-265714D01*
X2186429Y-280000D01*
X2200714Y-294286D01*
X2215000Y-322857D01*
X2215000Y-408571D01*
X2200714Y-437143D01*
X2186429Y-451428D01*
X2157857Y-465714D01*
X2100714Y-465714D01*
X2072143Y-451428D01*
X2343571Y-437143D02*
X2357857Y-451428D01*
X2343571Y-465714D01*
X2329286Y-451428D01*
X2343571Y-437143D01*
X2343571Y-465714D01*
X2343571Y-280000D02*
X2357857Y-294286D01*
X2343571Y-308571D01*
X2329286Y-294286D01*
X2343571Y-280000D01*
X2343571Y-308571D01*
X-275000Y-822500D02*
X0Y-1097500D01*
X0Y-822500D02*
X-275000Y-1097500D01*
X272143Y-824286D02*
X286429Y-810000D01*
X315000Y-795714D01*
X386428Y-795714D01*
X415000Y-810000D01*
X429286Y-824286D01*
X443571Y-852857D01*
X443571Y-881428D01*
X429286Y-924286D01*
X257857Y-1095714D01*
X443571Y-1095714D01*
X572143Y-1067143D02*
X586429Y-1081429D01*
X572143Y-1095714D01*
X557857Y-1081429D01*
X572143Y-1067143D01*
X572143Y-1095714D01*
X686429Y-795714D02*
X886428Y-795714D01*
X757857Y-1095714D01*
X1143571Y-795714D02*
X1000714Y-795714D01*
X986428Y-938571D01*
X1000714Y-924286D01*
X1029286Y-910000D01*
X1100714Y-910000D01*
X1129286Y-924286D01*
X1143571Y-938571D01*
X1157857Y-967143D01*
X1157857Y-1038571D01*
X1143571Y-1067143D01*
X1129286Y-1081429D01*
X1100714Y-1095714D01*
X1029286Y-1095714D01*
X1000714Y-1081429D01*
X986428Y-1067143D01*
X1286429Y-1095714D02*
X1286429Y-895714D01*
X1286429Y-924286D02*
X1300714Y-910000D01*
X1329286Y-895714D01*
X1372143Y-895714D01*
X1400714Y-910000D01*
X1415000Y-938571D01*
X1415000Y-1095714D01*
X1415000Y-938571D02*
X1429286Y-910000D01*
X1457857Y-895714D01*
X1500714Y-895714D01*
X1529286Y-910000D01*
X1543571Y-938571D01*
X1543571Y-1095714D01*
X1686428Y-1095714D02*
X1686428Y-895714D01*
X1686428Y-924286D02*
X1700714Y-910000D01*
X1729286Y-895714D01*
X1772143Y-895714D01*
X1800714Y-910000D01*
X1815000Y-938571D01*
X1815000Y-1095714D01*
X1815000Y-938571D02*
X1829286Y-910000D01*
X1857857Y-895714D01*
X1900714Y-895714D01*
X1929286Y-910000D01*
X1943571Y-938571D01*
X1943571Y-1095714D01*
X2529286Y-781428D02*
X2272143Y-1167143D01*
X2915000Y-795714D02*
X2943571Y-795714D01*
X2972143Y-810000D01*
X2986428Y-824286D01*
X3000714Y-852857D01*
X3015000Y-910000D01*
X3015000Y-981428D01*
X3000714Y-1038571D01*
X2986428Y-1067143D01*
X2972143Y-1081429D01*
X2943571Y-1095714D01*
X2915000Y-1095714D01*
X2886428Y-1081429D01*
X2872143Y-1067143D01*
X2857857Y-1038571D01*
X2843571Y-981428D01*
X2843571Y-910000D01*
X2857857Y-852857D01*
X2872143Y-824286D01*
X2886428Y-810000D01*
X2915000Y-795714D01*
X3143571Y-1067143D02*
X3157857Y-1081429D01*
X3143571Y-1095714D01*
X3129286Y-1081429D01*
X3143571Y-1067143D01*
X3143571Y-1095714D01*
X3443571Y-1095714D02*
X3272143Y-1095714D01*
X3357857Y-1095714D02*
X3357857Y-795714D01*
X3329286Y-838571D01*
X3300714Y-867143D01*
X3272143Y-881428D01*
X3629286Y-795714D02*
X3657857Y-795714D01*
X3686428Y-810000D01*
X3700714Y-824286D01*
X3715000Y-852857D01*
X3729286Y-910000D01*
X3729286Y-981428D01*
X3715000Y-1038571D01*
X3700714Y-1067143D01*
X3686428Y-1081429D01*
X3657857Y-1095714D01*
X3629286Y-1095714D01*
X3600714Y-1081429D01*
X3586428Y-1067143D01*
X3572143Y-1038571D01*
X3557857Y-981428D01*
X3557857Y-910000D01*
X3572143Y-852857D01*
X3586428Y-824286D01*
X3600714Y-810000D01*
X3629286Y-795714D01*
X3900714Y-924286D02*
X3872143Y-910000D01*
X3857857Y-895714D01*
X3843571Y-867143D01*
X3843571Y-852857D01*
X3857857Y-824286D01*
X3872143Y-810000D01*
X3900714Y-795714D01*
X3957857Y-795714D01*
X3986428Y-810000D01*
X4000714Y-824286D01*
X4015000Y-852857D01*
X4015000Y-867143D01*
X4000714Y-895714D01*
X3986428Y-910000D01*
X3957857Y-924286D01*
X3900714Y-924286D01*
X3872143Y-938571D01*
X3857857Y-952857D01*
X3843571Y-981428D01*
X3843571Y-1038571D01*
X3857857Y-1067143D01*
X3872143Y-1081429D01*
X3900714Y-1095714D01*
X3957857Y-1095714D01*
X3986428Y-1081429D01*
X4000714Y-1067143D01*
X4015000Y-1038571D01*
X4015000Y-981428D01*
X4000714Y-952857D01*
X3986428Y-938571D01*
X3957857Y-924286D01*
X4129286Y-795714D02*
X4129286Y-852857D01*
X4243571Y-795714D02*
X4243571Y-852857D01*
X4686429Y-1210000D02*
X4672143Y-1195714D01*
X4643571Y-1152857D01*
X4629286Y-1124286D01*
X4615000Y-1081429D01*
X4600714Y-1010000D01*
X4600714Y-952857D01*
X4615000Y-881428D01*
X4629286Y-838571D01*
X4643571Y-810000D01*
X4672143Y-767143D01*
X4686429Y-752857D01*
X4929286Y-795714D02*
X4872143Y-795714D01*
X4843571Y-810000D01*
X4829286Y-824286D01*
X4800714Y-867143D01*
X4786429Y-924286D01*
X4786429Y-1038571D01*
X4800714Y-1067143D01*
X4815000Y-1081429D01*
X4843571Y-1095714D01*
X4900714Y-1095714D01*
X4929286Y-1081429D01*
X4943571Y-1067143D01*
X4957857Y-1038571D01*
X4957857Y-967143D01*
X4943571Y-938571D01*
X4929286Y-924286D01*
X4900714Y-910000D01*
X4843571Y-910000D01*
X4815000Y-924286D01*
X4800714Y-938571D01*
X4786429Y-967143D01*
X5315000Y-1095714D02*
X5315000Y-795714D01*
X5443571Y-1095714D02*
X5443571Y-938571D01*
X5429286Y-910000D01*
X5400714Y-895714D01*
X5357857Y-895714D01*
X5329286Y-910000D01*
X5315000Y-924286D01*
X5629286Y-1095714D02*
X5600714Y-1081429D01*
X5586429Y-1067143D01*
X5572143Y-1038571D01*
X5572143Y-952857D01*
X5586429Y-924286D01*
X5600714Y-910000D01*
X5629286Y-895714D01*
X5672143Y-895714D01*
X5700714Y-910000D01*
X5715000Y-924286D01*
X5729286Y-952857D01*
X5729286Y-1038571D01*
X5715000Y-1067143D01*
X5700714Y-1081429D01*
X5672143Y-1095714D01*
X5629286Y-1095714D01*
X5900714Y-1095714D02*
X5872143Y-1081429D01*
X5857857Y-1052857D01*
X5857857Y-795714D01*
X6129286Y-1081429D02*
X6100714Y-1095714D01*
X6043571Y-1095714D01*
X6015000Y-1081429D01*
X6000714Y-1052857D01*
X6000714Y-938571D01*
X6015000Y-910000D01*
X6043571Y-895714D01*
X6100714Y-895714D01*
X6129286Y-910000D01*
X6143571Y-938571D01*
X6143571Y-967143D01*
X6000714Y-995714D01*
X6257857Y-1081429D02*
X6286428Y-1095714D01*
X6343571Y-1095714D01*
X6372143Y-1081429D01*
X6386428Y-1052857D01*
X6386428Y-1038571D01*
X6372143Y-1010000D01*
X6343571Y-995714D01*
X6300714Y-995714D01*
X6272143Y-981428D01*
X6257857Y-952857D01*
X6257857Y-938571D01*
X6272143Y-910000D01*
X6300714Y-895714D01*
X6343571Y-895714D01*
X6372143Y-910000D01*
X6486428Y-1210000D02*
X6500714Y-1195714D01*
X6529286Y-1152857D01*
X6543571Y-1124286D01*
X6557857Y-1081429D01*
X6572143Y-1010000D01*
X6572143Y-952857D01*
X6557857Y-881428D01*
X6543571Y-838571D01*
X6529286Y-810000D01*
X6500714Y-767143D01*
X6486428Y-752857D01*
X7029286Y-1210000D02*
X7015000Y-1195714D01*
X6986428Y-1152857D01*
X6972143Y-1124286D01*
X6957857Y-1081429D01*
X6943571Y-1010000D01*
X6943571Y-952857D01*
X6957857Y-881428D01*
X6972143Y-838571D01*
X6986428Y-810000D01*
X7015000Y-767143D01*
X7029286Y-752857D01*
X7143571Y-895714D02*
X7143571Y-1095714D01*
X7143571Y-924286D02*
X7157857Y-910000D01*
X7186428Y-895714D01*
X7229286Y-895714D01*
X7257857Y-910000D01*
X7272143Y-938571D01*
X7272143Y-1095714D01*
X7457857Y-1095714D02*
X7429286Y-1081429D01*
X7415000Y-1067143D01*
X7400714Y-1038571D01*
X7400714Y-952857D01*
X7415000Y-924286D01*
X7429286Y-910000D01*
X7457857Y-895714D01*
X7500714Y-895714D01*
X7529286Y-910000D01*
X7543571Y-924286D01*
X7557857Y-952857D01*
X7557857Y-1038571D01*
X7543571Y-1067143D01*
X7529286Y-1081429D01*
X7500714Y-1095714D01*
X7457857Y-1095714D01*
X7643571Y-895714D02*
X7757857Y-895714D01*
X7686428Y-795714D02*
X7686428Y-1052857D01*
X7700714Y-1081429D01*
X7729286Y-1095714D01*
X7757857Y-1095714D01*
X8086428Y-895714D02*
X8086428Y-1195714D01*
X8086428Y-910000D02*
X8115000Y-895714D01*
X8172143Y-895714D01*
X8200714Y-910000D01*
X8215000Y-924286D01*
X8229286Y-952857D01*
X8229286Y-1038571D01*
X8215000Y-1067143D01*
X8200714Y-1081429D01*
X8172143Y-1095714D01*
X8115000Y-1095714D01*
X8086428Y-1081429D01*
X8400714Y-1095714D02*
X8372143Y-1081429D01*
X8357857Y-1052857D01*
X8357857Y-795714D01*
X8643571Y-1095714D02*
X8643571Y-938571D01*
X8629286Y-910000D01*
X8600714Y-895714D01*
X8543571Y-895714D01*
X8515000Y-910000D01*
X8643571Y-1081429D02*
X8615000Y-1095714D01*
X8543571Y-1095714D01*
X8515000Y-1081429D01*
X8500714Y-1052857D01*
X8500714Y-1024286D01*
X8515000Y-995714D01*
X8543571Y-981428D01*
X8615000Y-981428D01*
X8643571Y-967143D01*
X8743571Y-895714D02*
X8857857Y-895714D01*
X8786429Y-795714D02*
X8786429Y-1052857D01*
X8800714Y-1081429D01*
X8829286Y-1095714D01*
X8857857Y-1095714D01*
X9072143Y-1081429D02*
X9043571Y-1095714D01*
X8986429Y-1095714D01*
X8957857Y-1081429D01*
X8943571Y-1052857D01*
X8943571Y-938571D01*
X8957857Y-910000D01*
X8986429Y-895714D01*
X9043571Y-895714D01*
X9072143Y-910000D01*
X9086429Y-938571D01*
X9086429Y-967143D01*
X8943571Y-995714D01*
X9343571Y-1095714D02*
X9343571Y-795714D01*
X9343571Y-1081429D02*
X9315000Y-1095714D01*
X9257857Y-1095714D01*
X9229286Y-1081429D01*
X9215000Y-1067143D01*
X9200714Y-1038571D01*
X9200714Y-952857D01*
X9215000Y-924286D01*
X9229286Y-910000D01*
X9257857Y-895714D01*
X9315000Y-895714D01*
X9343571Y-910000D01*
X9457857Y-1210000D02*
X9472143Y-1195714D01*
X9500714Y-1152857D01*
X9515000Y-1124286D01*
X9529286Y-1081429D01*
X9543571Y-1010000D01*
X9543571Y-952857D01*
X9529286Y-881428D01*
X9515000Y-838571D01*
X9500714Y-810000D01*
X9472143Y-767143D01*
X9457857Y-752857D01*
X0Y-1365000D02*
G75*
G03*
X0Y-1365000I-160000J0D01*
G01*
X257857Y-1200714D02*
X443571Y-1200714D01*
X343571Y-1315000D01*
X386428Y-1315000D01*
X415000Y-1329286D01*
X429286Y-1343571D01*
X443571Y-1372143D01*
X443571Y-1443571D01*
X429286Y-1472143D01*
X415000Y-1486428D01*
X386428Y-1500714D01*
X300714Y-1500714D01*
X272143Y-1486428D01*
X257857Y-1472143D01*
X572143Y-1472143D02*
X586429Y-1486428D01*
X572143Y-1500714D01*
X557857Y-1486428D01*
X572143Y-1472143D01*
X572143Y-1500714D01*
X700714Y-1229286D02*
X715000Y-1215000D01*
X743571Y-1200714D01*
X815000Y-1200714D01*
X843571Y-1215000D01*
X857857Y-1229286D01*
X872143Y-1257857D01*
X872143Y-1286429D01*
X857857Y-1329286D01*
X686429Y-1500714D01*
X872143Y-1500714D01*
X1057857Y-1200714D02*
X1086429Y-1200714D01*
X1115000Y-1215000D01*
X1129286Y-1229286D01*
X1143571Y-1257857D01*
X1157857Y-1315000D01*
X1157857Y-1386429D01*
X1143571Y-1443571D01*
X1129286Y-1472143D01*
X1115000Y-1486428D01*
X1086429Y-1500714D01*
X1057857Y-1500714D01*
X1029286Y-1486428D01*
X1015000Y-1472143D01*
X1000714Y-1443571D01*
X986428Y-1386429D01*
X986428Y-1315000D01*
X1000714Y-1257857D01*
X1015000Y-1229286D01*
X1029286Y-1215000D01*
X1057857Y-1200714D01*
X1286429Y-1500714D02*
X1286429Y-1300714D01*
X1286429Y-1329286D02*
X1300714Y-1315000D01*
X1329286Y-1300714D01*
X1372143Y-1300714D01*
X1400714Y-1315000D01*
X1415000Y-1343571D01*
X1415000Y-1500714D01*
X1415000Y-1343571D02*
X1429286Y-1315000D01*
X1457857Y-1300714D01*
X1500714Y-1300714D01*
X1529286Y-1315000D01*
X1543571Y-1343571D01*
X1543571Y-1500714D01*
X1686428Y-1500714D02*
X1686428Y-1300714D01*
X1686428Y-1329286D02*
X1700714Y-1315000D01*
X1729286Y-1300714D01*
X1772143Y-1300714D01*
X1800714Y-1315000D01*
X1815000Y-1343571D01*
X1815000Y-1500714D01*
X1815000Y-1343571D02*
X1829286Y-1315000D01*
X1857857Y-1300714D01*
X1900714Y-1300714D01*
X1929286Y-1315000D01*
X1943571Y-1343571D01*
X1943571Y-1500714D01*
X2529286Y-1186429D02*
X2272143Y-1572143D01*
X2915000Y-1200714D02*
X2943571Y-1200714D01*
X2972143Y-1215000D01*
X2986428Y-1229286D01*
X3000714Y-1257857D01*
X3015000Y-1315000D01*
X3015000Y-1386429D01*
X3000714Y-1443571D01*
X2986428Y-1472143D01*
X2972143Y-1486428D01*
X2943571Y-1500714D01*
X2915000Y-1500714D01*
X2886428Y-1486428D01*
X2872143Y-1472143D01*
X2857857Y-1443571D01*
X2843571Y-1386429D01*
X2843571Y-1315000D01*
X2857857Y-1257857D01*
X2872143Y-1229286D01*
X2886428Y-1215000D01*
X2915000Y-1200714D01*
X3143571Y-1472143D02*
X3157857Y-1486428D01*
X3143571Y-1500714D01*
X3129286Y-1486428D01*
X3143571Y-1472143D01*
X3143571Y-1500714D01*
X3443571Y-1500714D02*
X3272143Y-1500714D01*
X3357857Y-1500714D02*
X3357857Y-1200714D01*
X3329286Y-1243571D01*
X3300714Y-1272143D01*
X3272143Y-1286429D01*
X3557857Y-1229286D02*
X3572143Y-1215000D01*
X3600714Y-1200714D01*
X3672143Y-1200714D01*
X3700714Y-1215000D01*
X3715000Y-1229286D01*
X3729286Y-1257857D01*
X3729286Y-1286429D01*
X3715000Y-1329286D01*
X3543571Y-1500714D01*
X3729286Y-1500714D01*
X3986428Y-1200714D02*
X3929286Y-1200714D01*
X3900714Y-1215000D01*
X3886428Y-1229286D01*
X3857857Y-1272143D01*
X3843571Y-1329286D01*
X3843571Y-1443571D01*
X3857857Y-1472143D01*
X3872143Y-1486428D01*
X3900714Y-1500714D01*
X3957857Y-1500714D01*
X3986428Y-1486428D01*
X4000714Y-1472143D01*
X4015000Y-1443571D01*
X4015000Y-1372143D01*
X4000714Y-1343571D01*
X3986428Y-1329286D01*
X3957857Y-1315000D01*
X3900714Y-1315000D01*
X3872143Y-1329286D01*
X3857857Y-1343571D01*
X3843571Y-1372143D01*
X4129286Y-1200714D02*
X4129286Y-1257857D01*
X4243571Y-1200714D02*
X4243571Y-1257857D01*
X4686429Y-1615000D02*
X4672143Y-1600714D01*
X4643571Y-1557857D01*
X4629286Y-1529286D01*
X4615000Y-1486428D01*
X4600714Y-1415000D01*
X4600714Y-1357857D01*
X4615000Y-1286429D01*
X4629286Y-1243571D01*
X4643571Y-1215000D01*
X4672143Y-1172143D01*
X4686429Y-1157857D01*
X4929286Y-1200714D02*
X4872143Y-1200714D01*
X4843571Y-1215000D01*
X4829286Y-1229286D01*
X4800714Y-1272143D01*
X4786429Y-1329286D01*
X4786429Y-1443571D01*
X4800714Y-1472143D01*
X4815000Y-1486428D01*
X4843571Y-1500714D01*
X4900714Y-1500714D01*
X4929286Y-1486428D01*
X4943571Y-1472143D01*
X4957857Y-1443571D01*
X4957857Y-1372143D01*
X4943571Y-1343571D01*
X4929286Y-1329286D01*
X4900714Y-1315000D01*
X4843571Y-1315000D01*
X4815000Y-1329286D01*
X4800714Y-1343571D01*
X4786429Y-1372143D01*
X5315000Y-1500714D02*
X5315000Y-1200714D01*
X5443571Y-1500714D02*
X5443571Y-1343571D01*
X5429286Y-1315000D01*
X5400714Y-1300714D01*
X5357857Y-1300714D01*
X5329286Y-1315000D01*
X5315000Y-1329286D01*
X5629286Y-1500714D02*
X5600714Y-1486428D01*
X5586429Y-1472143D01*
X5572143Y-1443571D01*
X5572143Y-1357857D01*
X5586429Y-1329286D01*
X5600714Y-1315000D01*
X5629286Y-1300714D01*
X5672143Y-1300714D01*
X5700714Y-1315000D01*
X5715000Y-1329286D01*
X5729286Y-1357857D01*
X5729286Y-1443571D01*
X5715000Y-1472143D01*
X5700714Y-1486428D01*
X5672143Y-1500714D01*
X5629286Y-1500714D01*
X5900714Y-1500714D02*
X5872143Y-1486428D01*
X5857857Y-1457857D01*
X5857857Y-1200714D01*
X6129286Y-1486428D02*
X6100714Y-1500714D01*
X6043571Y-1500714D01*
X6015000Y-1486428D01*
X6000714Y-1457857D01*
X6000714Y-1343571D01*
X6015000Y-1315000D01*
X6043571Y-1300714D01*
X6100714Y-1300714D01*
X6129286Y-1315000D01*
X6143571Y-1343571D01*
X6143571Y-1372143D01*
X6000714Y-1400714D01*
X6257857Y-1486428D02*
X6286428Y-1500714D01*
X6343571Y-1500714D01*
X6372143Y-1486428D01*
X6386428Y-1457857D01*
X6386428Y-1443571D01*
X6372143Y-1415000D01*
X6343571Y-1400714D01*
X6300714Y-1400714D01*
X6272143Y-1386429D01*
X6257857Y-1357857D01*
X6257857Y-1343571D01*
X6272143Y-1315000D01*
X6300714Y-1300714D01*
X6343571Y-1300714D01*
X6372143Y-1315000D01*
X6486428Y-1615000D02*
X6500714Y-1600714D01*
X6529286Y-1557857D01*
X6543571Y-1529286D01*
X6557857Y-1486428D01*
X6572143Y-1415000D01*
X6572143Y-1357857D01*
X6557857Y-1286429D01*
X6543571Y-1243571D01*
X6529286Y-1215000D01*
X6500714Y-1172143D01*
X6486428Y-1157857D01*
X7029286Y-1615000D02*
X7015000Y-1600714D01*
X6986428Y-1557857D01*
X6972143Y-1529286D01*
X6957857Y-1486428D01*
X6943571Y-1415000D01*
X6943571Y-1357857D01*
X6957857Y-1286429D01*
X6972143Y-1243571D01*
X6986428Y-1215000D01*
X7015000Y-1172143D01*
X7029286Y-1157857D01*
X7143571Y-1300714D02*
X7143571Y-1500714D01*
X7143571Y-1329286D02*
X7157857Y-1315000D01*
X7186428Y-1300714D01*
X7229286Y-1300714D01*
X7257857Y-1315000D01*
X7272143Y-1343571D01*
X7272143Y-1500714D01*
X7457857Y-1500714D02*
X7429286Y-1486428D01*
X7415000Y-1472143D01*
X7400714Y-1443571D01*
X7400714Y-1357857D01*
X7415000Y-1329286D01*
X7429286Y-1315000D01*
X7457857Y-1300714D01*
X7500714Y-1300714D01*
X7529286Y-1315000D01*
X7543571Y-1329286D01*
X7557857Y-1357857D01*
X7557857Y-1443571D01*
X7543571Y-1472143D01*
X7529286Y-1486428D01*
X7500714Y-1500714D01*
X7457857Y-1500714D01*
X7643571Y-1300714D02*
X7757857Y-1300714D01*
X7686428Y-1200714D02*
X7686428Y-1457857D01*
X7700714Y-1486428D01*
X7729286Y-1500714D01*
X7757857Y-1500714D01*
X8086428Y-1300714D02*
X8086428Y-1600714D01*
X8086428Y-1315000D02*
X8115000Y-1300714D01*
X8172143Y-1300714D01*
X8200714Y-1315000D01*
X8215000Y-1329286D01*
X8229286Y-1357857D01*
X8229286Y-1443571D01*
X8215000Y-1472143D01*
X8200714Y-1486428D01*
X8172143Y-1500714D01*
X8115000Y-1500714D01*
X8086428Y-1486428D01*
X8400714Y-1500714D02*
X8372143Y-1486428D01*
X8357857Y-1457857D01*
X8357857Y-1200714D01*
X8643571Y-1500714D02*
X8643571Y-1343571D01*
X8629286Y-1315000D01*
X8600714Y-1300714D01*
X8543571Y-1300714D01*
X8515000Y-1315000D01*
X8643571Y-1486428D02*
X8615000Y-1500714D01*
X8543571Y-1500714D01*
X8515000Y-1486428D01*
X8500714Y-1457857D01*
X8500714Y-1429286D01*
X8515000Y-1400714D01*
X8543571Y-1386429D01*
X8615000Y-1386429D01*
X8643571Y-1372143D01*
X8743571Y-1300714D02*
X8857857Y-1300714D01*
X8786429Y-1200714D02*
X8786429Y-1457857D01*
X8800714Y-1486428D01*
X8829286Y-1500714D01*
X8857857Y-1500714D01*
X9072143Y-1486428D02*
X9043571Y-1500714D01*
X8986429Y-1500714D01*
X8957857Y-1486428D01*
X8943571Y-1457857D01*
X8943571Y-1343571D01*
X8957857Y-1315000D01*
X8986429Y-1300714D01*
X9043571Y-1300714D01*
X9072143Y-1315000D01*
X9086429Y-1343571D01*
X9086429Y-1372143D01*
X8943571Y-1400714D01*
X9343571Y-1500714D02*
X9343571Y-1200714D01*
X9343571Y-1486428D02*
X9315000Y-1500714D01*
X9257857Y-1500714D01*
X9229286Y-1486428D01*
X9215000Y-1472143D01*
X9200714Y-1443571D01*
X9200714Y-1357857D01*
X9215000Y-1329286D01*
X9229286Y-1315000D01*
X9257857Y-1300714D01*
X9315000Y-1300714D01*
X9343571Y-1315000D01*
X9457857Y-1615000D02*
X9472143Y-1600714D01*
X9500714Y-1557857D01*
X9515000Y-1529286D01*
X9529286Y-1486428D01*
X9543571Y-1415000D01*
X9543571Y-1357857D01*
X9529286Y-1286429D01*
X9515000Y-1243571D01*
X9500714Y-1215000D01*
X9472143Y-1172143D01*
X9457857Y-1157857D01*
M02*
