M48
; DRILL file {KiCad 5.1.9} date Sat Jun 26 11:30:15 2021
; FORMAT={-:-/ absolute / metric / decimal}
; #@! TF.CreationDate,2021-06-26T11:30:15+02:00
; #@! TF.GenerationSoftware,Kicad,Pcbnew,5.1.9
; #@! TF.FileFunction,Plated,1,2,PTH
FMAT,2
METRIC
T1C0.400
T2C0.800
T3C0.900
T4C0.920
T5C1.000
T6C1.300
T7C1.800
T8C2.300
T9C2.690
%
G90
G05
T1
X54.75Y-64.75
X54.75Y-122.75
X55.0Y-32.0
X70.0Y-185.0
X75.0Y-136.0
X77.75Y-64.75
X77.75Y-122.75
X96.0Y-80.0
X103.75Y-64.75
X103.75Y-122.75
X111.0Y-32.0
X123.0Y-69.0
X123.0Y-118.0
T2
X97.0Y-183.0
X97.0Y-188.0
X101.0Y-147.84
X101.0Y-158.0
X101.0Y-176.84
X101.0Y-187.0
X109.0Y-162.0
X109.0Y-172.16
T3
X78.0Y-158.84
X78.0Y-169.0
X107.0Y-179.46
X107.0Y-182.0
X109.0Y-155.0
X109.0Y-157.54
T4
X83.0Y-180.0
X85.5Y-180.0
X87.5Y-180.0
X90.0Y-180.0
T5
X53.46Y-69.74
X53.46Y-72.28
X53.46Y-74.82
X53.46Y-77.36
X53.46Y-79.9
X53.46Y-82.44
X53.46Y-84.98
X53.46Y-87.52
X53.46Y-90.06
X53.46Y-92.6
X53.46Y-95.14
X53.46Y-97.68
X53.46Y-100.22
X53.46Y-102.76
X53.46Y-105.3
X53.46Y-107.84
X53.46Y-110.38
X53.46Y-112.92
X53.46Y-115.46
X53.46Y-118.0
X56.0Y-69.74
X56.0Y-72.28
X56.0Y-74.82
X56.0Y-77.36
X56.0Y-79.9
X56.0Y-82.44
X56.0Y-84.98
X56.0Y-87.52
X56.0Y-90.06
X56.0Y-92.6
X56.0Y-95.14
X56.0Y-97.68
X56.0Y-100.22
X56.0Y-102.76
X56.0Y-105.3
X56.0Y-107.84
X56.0Y-110.38
X56.0Y-112.92
X56.0Y-115.46
X56.0Y-118.0
X97.0Y-157.92
X97.0Y-160.46
X97.0Y-163.0
X100.0Y-168.0
X100.0Y-173.0
X121.98Y-38.9
X121.98Y-41.44
X121.98Y-43.98
X121.98Y-46.52
X121.98Y-49.06
X121.98Y-87.9
X121.98Y-90.44
X121.98Y-92.98
X121.98Y-95.52
X121.98Y-98.06
X121.98Y-137.9
X121.98Y-140.44
X121.98Y-142.98
X121.98Y-145.52
X121.98Y-148.06
X124.52Y-38.9
X124.52Y-41.44
X124.52Y-43.98
X124.52Y-46.52
X124.52Y-49.06
X124.52Y-87.9
X124.52Y-90.44
X124.52Y-92.98
X124.52Y-95.52
X124.52Y-98.06
X124.52Y-137.9
X124.52Y-140.44
X124.52Y-142.98
X124.52Y-145.52
X124.52Y-148.06
T6
X58.0Y-143.5
X58.0Y-151.0
X58.0Y-176.5
X58.0Y-184.0
X58.8Y-158.0
X58.8Y-170.0
X71.0Y-158.0
X71.0Y-170.0
X73.0Y-164.0
T7
X121.0Y-172.38
X121.0Y-177.46
X121.0Y-182.54
X121.0Y-187.62
T8
X79.93Y-182.71
X93.07Y-182.71
T9
X123.0Y-29.96
X123.0Y-58.0
X123.0Y-78.96
X123.0Y-107.0
X123.0Y-128.96
X123.0Y-157.0
T0
M30
