%TF.GenerationSoftware,KiCad,Pcbnew,5.1.8*%
%TF.CreationDate,2020-11-30T00:00:36+01:00*%
%TF.ProjectId,breakout,62726561-6b6f-4757-942e-6b696361645f,rev?*%
%TF.SameCoordinates,Original*%
%TF.FileFunction,Copper,L2,Bot*%
%TF.FilePolarity,Positive*%
%FSLAX46Y46*%
G04 Gerber Fmt 4.6, Leading zero omitted, Abs format (unit mm)*
G04 Created by KiCad (PCBNEW 5.1.8) date 2020-11-30 00:00:36*
%MOMM*%
%LPD*%
G01*
G04 APERTURE LIST*
%TA.AperFunction,ComponentPad*%
%ADD10O,1.700000X1.700000*%
%TD*%
%TA.AperFunction,ComponentPad*%
%ADD11R,1.700000X1.700000*%
%TD*%
%TA.AperFunction,ViaPad*%
%ADD12C,0.800000*%
%TD*%
%TA.AperFunction,Conductor*%
%ADD13C,0.250000*%
%TD*%
%TA.AperFunction,Conductor*%
%ADD14C,1.500000*%
%TD*%
%TA.AperFunction,Conductor*%
%ADD15C,2.000000*%
%TD*%
%TA.AperFunction,Conductor*%
%ADD16C,2.500000*%
%TD*%
G04 APERTURE END LIST*
D10*
%TO.P,J4,2*%
%TO.N,/+12V*%
X173460000Y-62000000D03*
D11*
%TO.P,J4,1*%
%TO.N,/SEG_B*%
X176000000Y-62000000D03*
%TD*%
D10*
%TO.P,J7,2*%
%TO.N,/+12V*%
X133460000Y-62000000D03*
D11*
%TO.P,J7,1*%
%TO.N,/SEG_G*%
X136000000Y-62000000D03*
%TD*%
D10*
%TO.P,J3,2*%
%TO.N,/+12V*%
X149460000Y-62000000D03*
D11*
%TO.P,J3,1*%
%TO.N,/SEG_E*%
X152000000Y-62000000D03*
%TD*%
D10*
%TO.P,J2,2*%
%TO.N,/+12V*%
X165460000Y-62000000D03*
D11*
%TO.P,J2,1*%
%TO.N,/SEG_C*%
X168000000Y-62000000D03*
%TD*%
D10*
%TO.P,J6,2*%
%TO.N,/+12V*%
X180460000Y-62000000D03*
D11*
%TO.P,J6,1*%
%TO.N,/SEG_A*%
X183000000Y-62000000D03*
%TD*%
D10*
%TO.P,J1,2*%
%TO.N,/+12V*%
X157460000Y-62000000D03*
D11*
%TO.P,J1,1*%
%TO.N,/SEG_D*%
X160000000Y-62000000D03*
%TD*%
D10*
%TO.P,J5,2*%
%TO.N,/+12V*%
X141460000Y-62000000D03*
D11*
%TO.P,J5,1*%
%TO.N,/SEG_F*%
X144000000Y-62000000D03*
%TD*%
%TO.P,J0,1*%
%TO.N,/SEG_D*%
X165000000Y-76000000D03*
D10*
%TO.P,J0,2*%
%TO.N,/SEG_C*%
X165000000Y-78540000D03*
%TO.P,J0,3*%
%TO.N,/SEG_E*%
X162460000Y-76000000D03*
%TO.P,J0,4*%
%TO.N,/SEG_B*%
X162460000Y-78540000D03*
%TO.P,J0,5*%
%TO.N,/SEG_F*%
X159920000Y-76000000D03*
%TO.P,J0,6*%
%TO.N,/SEG_A*%
X159920000Y-78540000D03*
%TO.P,J0,7*%
%TO.N,/SEG_G*%
X157380000Y-76000000D03*
%TO.P,J0,8*%
%TO.N,/+12V*%
X157380000Y-78540000D03*
%TO.P,J0,9*%
X154840000Y-76000000D03*
%TO.P,J0,10*%
X154840000Y-78540000D03*
%TD*%
D12*
%TO.N,*%
X180000000Y-67000000D03*
X180000000Y-86000000D03*
X136000000Y-86000000D03*
X136000000Y-67000000D03*
%TD*%
D13*
%TO.N,*%
X144000000Y-84000000D02*
X144000000Y-86000000D01*
X143000000Y-85000000D02*
X145000000Y-85000000D01*
D14*
%TO.N,/SEG_D*%
X160000000Y-65000000D02*
X165000000Y-70000000D01*
X165000000Y-70000000D02*
X165000000Y-76000000D01*
D15*
X160000000Y-62000000D02*
X160000000Y-63000000D01*
D14*
X160000000Y-63000000D02*
X160000000Y-65000000D01*
%TO.N,/SEG_C*%
X166460000Y-78540000D02*
X168000000Y-77000000D01*
X165000000Y-78540000D02*
X166460000Y-78540000D01*
D15*
X168000000Y-62000000D02*
X168000000Y-63000000D01*
D14*
X168000000Y-77000000D02*
X168000000Y-63000000D01*
%TO.N,/SEG_E*%
X162460000Y-71460000D02*
X158000000Y-67000000D01*
X158000000Y-67000000D02*
X154000000Y-67000000D01*
X154000000Y-67000000D02*
X152000000Y-65000000D01*
X162460000Y-76000000D02*
X162460000Y-71460000D01*
D15*
X152000000Y-62000000D02*
X152000000Y-63000000D01*
D14*
X152000000Y-65000000D02*
X152000000Y-63000000D01*
%TO.N,/SEG_B*%
X162460000Y-79742081D02*
X163717919Y-81000000D01*
X163717919Y-81000000D02*
X168000000Y-81000000D01*
X168000000Y-81000000D02*
X176000000Y-73000000D01*
X162460000Y-78540000D02*
X162460000Y-79742081D01*
D15*
X176000000Y-62000000D02*
X176000000Y-63000000D01*
D14*
X176000000Y-73000000D02*
X176000000Y-63000000D01*
%TO.N,/SEG_F*%
X151000000Y-70000000D02*
X157000000Y-70000000D01*
X157000000Y-70000000D02*
X159920000Y-72920000D01*
X144000000Y-63000000D02*
X151000000Y-70000000D01*
X159920000Y-72920000D02*
X159920000Y-76000000D01*
D15*
X144000000Y-62000000D02*
X144000000Y-63000000D01*
D14*
%TO.N,/SEG_A*%
X171000000Y-84000000D02*
X183000000Y-72000000D01*
X159920000Y-80920000D02*
X163000000Y-84000000D01*
X163000000Y-84000000D02*
X171000000Y-84000000D01*
X159920000Y-78540000D02*
X159920000Y-80920000D01*
D15*
X183000000Y-62000000D02*
X183000000Y-63000000D01*
D14*
X183000000Y-72000000D02*
X183000000Y-63000000D01*
%TO.N,/SEG_G*%
X147000000Y-73000000D02*
X156000000Y-73000000D01*
X156000000Y-73000000D02*
X157380000Y-74380000D01*
X157380000Y-74380000D02*
X157380000Y-76000000D01*
D15*
X136000000Y-62000000D02*
X137000000Y-63000000D01*
D14*
X137000000Y-63000000D02*
X147000000Y-73000000D01*
%TO.N,/+12V*%
X154840000Y-76000000D02*
X154840000Y-78540000D01*
X141460000Y-62000000D02*
X141460000Y-59540000D01*
X141460000Y-59540000D02*
X142000000Y-59000000D01*
X149460000Y-59540000D02*
X150000000Y-59000000D01*
X142000000Y-59000000D02*
X150000000Y-59000000D01*
X157460000Y-59540000D02*
X158000000Y-59000000D01*
X165460000Y-59540000D02*
X166000000Y-59000000D01*
X158000000Y-59000000D02*
X166000000Y-59000000D01*
X173460000Y-59540000D02*
X174000000Y-59000000D01*
X174000000Y-59000000D02*
X177460000Y-59000000D01*
X166000000Y-59000000D02*
X174000000Y-59000000D01*
D16*
X140540000Y-78540000D02*
X132000000Y-70000000D01*
X132000000Y-63460000D02*
X133460000Y-62000000D01*
X132000000Y-70000000D02*
X132000000Y-63460000D01*
X133460000Y-62000000D02*
X133460000Y-59540000D01*
X133460000Y-59540000D02*
X134000000Y-59000000D01*
X141460000Y-59460000D02*
X141000000Y-59000000D01*
D14*
X141000000Y-59000000D02*
X142000000Y-59000000D01*
D16*
X141000000Y-59000000D02*
X134000000Y-59000000D01*
D14*
X180460000Y-62000000D02*
X177460000Y-59000000D01*
X173460000Y-62000000D02*
X173460000Y-59540000D01*
X165460000Y-62000000D02*
X165460000Y-59540000D01*
X157460000Y-62000000D02*
X157460000Y-59540000D01*
X149460000Y-62000000D02*
X149460000Y-59540000D01*
X157380000Y-78540000D02*
X154840000Y-78540000D01*
D16*
X154840000Y-78540000D02*
X140540000Y-78540000D01*
D14*
X149460000Y-60460000D02*
X149920000Y-60000000D01*
X149460000Y-60460000D02*
X148000000Y-59000000D01*
X149460000Y-62000000D02*
X149460000Y-60460000D01*
D16*
X141000000Y-59000000D02*
X148000000Y-59000000D01*
D14*
X157460000Y-60460000D02*
X156000000Y-59000000D01*
X157460000Y-62000000D02*
X157460000Y-60460000D01*
X156000000Y-59000000D02*
X158000000Y-59000000D01*
X150000000Y-59000000D02*
X156000000Y-59000000D01*
X157460000Y-60540000D02*
X159000000Y-59000000D01*
X157460000Y-62000000D02*
X157460000Y-60540000D01*
D16*
X148000000Y-59000000D02*
X159000000Y-59000000D01*
D14*
X165460000Y-60460000D02*
X164000000Y-59000000D01*
X165460000Y-62000000D02*
X165460000Y-60460000D01*
D16*
X159000000Y-59000000D02*
X164000000Y-59000000D01*
D14*
X165460000Y-60540000D02*
X167000000Y-59000000D01*
X165460000Y-62000000D02*
X165460000Y-60540000D01*
D16*
X164000000Y-59000000D02*
X167000000Y-59000000D01*
D14*
X173460000Y-60460000D02*
X172000000Y-59000000D01*
X173460000Y-62000000D02*
X173460000Y-60460000D01*
D16*
X167000000Y-59000000D02*
X172000000Y-59000000D01*
D14*
X173460000Y-60540000D02*
X175000000Y-59000000D01*
X173460000Y-62000000D02*
X173460000Y-60540000D01*
D16*
X175000000Y-59000000D02*
X177460000Y-59000000D01*
X172000000Y-59000000D02*
X175000000Y-59000000D01*
D14*
X180460000Y-62000000D02*
X180460000Y-60460000D01*
X180460000Y-60460000D02*
X179000000Y-59000000D01*
D16*
X177000000Y-59000000D02*
X179000000Y-59000000D01*
D14*
X177000000Y-59000000D02*
X172000000Y-59000000D01*
%TD*%
M02*
