%TF.GenerationSoftware,KiCad,Pcbnew,5.1.8*%
%TF.CreationDate,2020-11-30T00:00:36+01:00*%
%TF.ProjectId,breakout,62726561-6b6f-4757-942e-6b696361645f,rev?*%
%TF.SameCoordinates,Original*%
%TF.FileFunction,Other,ECO2*%
%FSLAX46Y46*%
G04 Gerber Fmt 4.6, Leading zero omitted, Abs format (unit mm)*
G04 Created by KiCad (PCBNEW 5.1.8) date 2020-11-30 00:00:36*
%MOMM*%
%LPD*%
G01*
G04 APERTURE LIST*
%ADD10C,0.250000*%
%ADD11C,0.150000*%
G04 APERTURE END LIST*
D10*
X137414214Y-67000000D02*
G75*
G03*
X137414214Y-67000000I-1414214J0D01*
G01*
X137414214Y-86000000D02*
G75*
G03*
X137414214Y-86000000I-1414214J0D01*
G01*
X181414214Y-86000000D02*
G75*
G03*
X181414214Y-86000000I-1414214J0D01*
G01*
X181414214Y-67000000D02*
G75*
G03*
X181414214Y-67000000I-1414214J0D01*
G01*
X145000000Y-85000000D02*
X143000000Y-85000000D01*
X144000000Y-84000000D02*
X144000000Y-86000000D01*
D11*
X180857142Y-81452380D02*
X181476190Y-81452380D01*
X181142857Y-81833333D01*
X181285714Y-81833333D01*
X181380952Y-81880952D01*
X181428571Y-81928571D01*
X181476190Y-82023809D01*
X181476190Y-82261904D01*
X181428571Y-82357142D01*
X181380952Y-82404761D01*
X181285714Y-82452380D01*
X181000000Y-82452380D01*
X180904761Y-82404761D01*
X180857142Y-82357142D01*
X181809523Y-81452380D02*
X182428571Y-81452380D01*
X182095238Y-81833333D01*
X182238095Y-81833333D01*
X182333333Y-81880952D01*
X182380952Y-81928571D01*
X182428571Y-82023809D01*
X182428571Y-82261904D01*
X182380952Y-82357142D01*
X182333333Y-82404761D01*
X182238095Y-82452380D01*
X181952380Y-82452380D01*
X181857142Y-82404761D01*
X181809523Y-82357142D01*
X182857142Y-82452380D02*
X182857142Y-81785714D01*
X182857142Y-81880952D02*
X182904761Y-81833333D01*
X183000000Y-81785714D01*
X183142857Y-81785714D01*
X183238095Y-81833333D01*
X183285714Y-81928571D01*
X183285714Y-82452380D01*
X183285714Y-81928571D02*
X183333333Y-81833333D01*
X183428571Y-81785714D01*
X183571428Y-81785714D01*
X183666666Y-81833333D01*
X183714285Y-81928571D01*
X183714285Y-82452380D01*
X184190476Y-82452380D02*
X184190476Y-81785714D01*
X184190476Y-81880952D02*
X184238095Y-81833333D01*
X184333333Y-81785714D01*
X184476190Y-81785714D01*
X184571428Y-81833333D01*
X184619047Y-81928571D01*
X184619047Y-82452380D01*
X184619047Y-81928571D02*
X184666666Y-81833333D01*
X184761904Y-81785714D01*
X184904761Y-81785714D01*
X185000000Y-81833333D01*
X185047619Y-81928571D01*
X185047619Y-82452380D01*
X138428571Y-88452380D02*
X137952380Y-88452380D01*
X137904761Y-88928571D01*
X137952380Y-88880952D01*
X138047619Y-88833333D01*
X138285714Y-88833333D01*
X138380952Y-88880952D01*
X138428571Y-88928571D01*
X138476190Y-89023809D01*
X138476190Y-89261904D01*
X138428571Y-89357142D01*
X138380952Y-89404761D01*
X138285714Y-89452380D01*
X138047619Y-89452380D01*
X137952380Y-89404761D01*
X137904761Y-89357142D01*
X139333333Y-88452380D02*
X139142857Y-88452380D01*
X139047619Y-88500000D01*
X139000000Y-88547619D01*
X138904761Y-88690476D01*
X138857142Y-88880952D01*
X138857142Y-89261904D01*
X138904761Y-89357142D01*
X138952380Y-89404761D01*
X139047619Y-89452380D01*
X139238095Y-89452380D01*
X139333333Y-89404761D01*
X139380952Y-89357142D01*
X139428571Y-89261904D01*
X139428571Y-89023809D01*
X139380952Y-88928571D01*
X139333333Y-88880952D01*
X139238095Y-88833333D01*
X139047619Y-88833333D01*
X138952380Y-88880952D01*
X138904761Y-88928571D01*
X138857142Y-89023809D01*
X139857142Y-89452380D02*
X139857142Y-88785714D01*
X139857142Y-88880952D02*
X139904761Y-88833333D01*
X140000000Y-88785714D01*
X140142857Y-88785714D01*
X140238095Y-88833333D01*
X140285714Y-88928571D01*
X140285714Y-89452380D01*
X140285714Y-88928571D02*
X140333333Y-88833333D01*
X140428571Y-88785714D01*
X140571428Y-88785714D01*
X140666666Y-88833333D01*
X140714285Y-88928571D01*
X140714285Y-89452380D01*
X141190476Y-89452380D02*
X141190476Y-88785714D01*
X141190476Y-88880952D02*
X141238095Y-88833333D01*
X141333333Y-88785714D01*
X141476190Y-88785714D01*
X141571428Y-88833333D01*
X141619047Y-88928571D01*
X141619047Y-89452380D01*
X141619047Y-88928571D02*
X141666666Y-88833333D01*
X141761904Y-88785714D01*
X141904761Y-88785714D01*
X142000000Y-88833333D01*
X142047619Y-88928571D01*
X142047619Y-89452380D01*
X186000000Y-57000000D02*
X130000000Y-57000000D01*
X186000000Y-90000000D02*
X186000000Y-57000000D01*
X130000000Y-90000000D02*
X186000000Y-90000000D01*
X130000000Y-57000000D02*
X130000000Y-90000000D01*
M02*
