M48
; DRILL file {KiCad 5.1.9} date Thu Jun 10 12:10:38 2021
; FORMAT={-:-/ absolute / metric / decimal}
; #@! TF.CreationDate,2021-06-10T12:10:38+02:00
; #@! TF.GenerationSoftware,Kicad,Pcbnew,5.1.9
; #@! TF.FileFunction,Plated,1,2,PTH
FMAT,2
METRIC
T1C1.000
T2C1.190
T3C2.690
%
G90
G05
T1
X152.84Y-76.0
X152.84Y-78.54
X155.38Y-76.0
X155.38Y-78.54
X157.92Y-76.0
X157.92Y-78.54
X160.46Y-76.0
X160.46Y-78.54
X163.0Y-76.0
X163.0Y-78.54
T2
X133.0Y-62.0
X135.54Y-62.0
X140.46Y-62.0
X143.0Y-62.0
X148.46Y-62.0
X151.0Y-62.0
X157.0Y-62.0
X159.54Y-62.0
X165.0Y-62.0
X167.54Y-62.0
X173.0Y-62.0
X175.54Y-62.0
X181.0Y-62.0
X183.54Y-62.0
T3
X143.9Y-77.02
X171.94Y-77.02
T0
M30
