%TF.GenerationSoftware,KiCad,Pcbnew,5.1.9*%
%TF.CreationDate,2021-06-11T19:55:18+02:00*%
%TF.ProjectId,breakout,62726561-6b6f-4757-942e-6b696361645f,rev?*%
%TF.SameCoordinates,Original*%
%TF.FileFunction,Copper,L2,Bot*%
%TF.FilePolarity,Positive*%
%FSLAX46Y46*%
G04 Gerber Fmt 4.6, Leading zero omitted, Abs format (unit mm)*
G04 Created by KiCad (PCBNEW 5.1.9) date 2021-06-11 19:55:18*
%MOMM*%
%LPD*%
G01*
G04 APERTURE LIST*
%TA.AperFunction,ComponentPad*%
%ADD10C,8.000000*%
%TD*%
%TA.AperFunction,ComponentPad*%
%ADD11C,1.700000*%
%TD*%
%TA.AperFunction,ComponentPad*%
%ADD12O,1.740000X2.190000*%
%TD*%
%TA.AperFunction,ViaPad*%
%ADD13C,0.800000*%
%TD*%
%TA.AperFunction,Conductor*%
%ADD14C,0.250000*%
%TD*%
%TA.AperFunction,Conductor*%
%ADD15C,2.000000*%
%TD*%
%TA.AperFunction,Conductor*%
%ADD16C,1.500000*%
%TD*%
%TA.AperFunction,Conductor*%
%ADD17C,2.500000*%
%TD*%
G04 APERTURE END LIST*
D10*
%TO.P,J0,MP*%
%TO.N,N/C*%
X143900000Y-77020000D03*
X171940000Y-77020000D03*
D11*
%TO.P,J0,10*%
%TO.N,/+12V*%
X152840000Y-78540000D03*
%TO.P,J0,8*%
X155380000Y-78540000D03*
%TO.P,J0,6*%
%TO.N,/SEG_A*%
X157920000Y-78540000D03*
%TO.P,J0,4*%
%TO.N,/SEG_B*%
X160460000Y-78540000D03*
%TO.P,J0,2*%
%TO.N,/SEG_C*%
X163000000Y-78540000D03*
%TO.P,J0,9*%
%TO.N,/+12V*%
X152840000Y-76000000D03*
%TO.P,J0,7*%
%TO.N,/SEG_G*%
X155380000Y-76000000D03*
%TO.P,J0,5*%
%TO.N,/SEG_F*%
X157920000Y-76000000D03*
%TO.P,J0,3*%
%TO.N,/SEG_E*%
X160460000Y-76000000D03*
%TO.P,J0,1*%
%TO.N,/SEG_D*%
%TA.AperFunction,ComponentPad*%
G36*
G01*
X162400000Y-75150000D02*
X163600000Y-75150000D01*
G75*
G02*
X163850000Y-75400000I0J-250000D01*
G01*
X163850000Y-76600000D01*
G75*
G02*
X163600000Y-76850000I-250000J0D01*
G01*
X162400000Y-76850000D01*
G75*
G02*
X162150000Y-76600000I0J250000D01*
G01*
X162150000Y-75400000D01*
G75*
G02*
X162400000Y-75150000I250000J0D01*
G01*
G37*
%TD.AperFunction*%
%TD*%
D12*
%TO.P,J7,2*%
%TO.N,/+12V*%
X133000000Y-62000000D03*
%TO.P,J7,1*%
%TO.N,/SEG_G*%
%TA.AperFunction,ComponentPad*%
G36*
G01*
X136410000Y-61154999D02*
X136410000Y-62845001D01*
G75*
G02*
X136160001Y-63095000I-249999J0D01*
G01*
X134919999Y-63095000D01*
G75*
G02*
X134670000Y-62845001I0J249999D01*
G01*
X134670000Y-61154999D01*
G75*
G02*
X134919999Y-60905000I249999J0D01*
G01*
X136160001Y-60905000D01*
G75*
G02*
X136410000Y-61154999I0J-249999D01*
G01*
G37*
%TD.AperFunction*%
%TD*%
%TO.P,J6,2*%
%TO.N,/+12V*%
X181000000Y-62000000D03*
%TO.P,J6,1*%
%TO.N,/SEG_A*%
%TA.AperFunction,ComponentPad*%
G36*
G01*
X184410000Y-61154999D02*
X184410000Y-62845001D01*
G75*
G02*
X184160001Y-63095000I-249999J0D01*
G01*
X182919999Y-63095000D01*
G75*
G02*
X182670000Y-62845001I0J249999D01*
G01*
X182670000Y-61154999D01*
G75*
G02*
X182919999Y-60905000I249999J0D01*
G01*
X184160001Y-60905000D01*
G75*
G02*
X184410000Y-61154999I0J-249999D01*
G01*
G37*
%TD.AperFunction*%
%TD*%
%TO.P,J5,2*%
%TO.N,/+12V*%
X140460000Y-62000000D03*
%TO.P,J5,1*%
%TO.N,/SEG_F*%
%TA.AperFunction,ComponentPad*%
G36*
G01*
X143870000Y-61154999D02*
X143870000Y-62845001D01*
G75*
G02*
X143620001Y-63095000I-249999J0D01*
G01*
X142379999Y-63095000D01*
G75*
G02*
X142130000Y-62845001I0J249999D01*
G01*
X142130000Y-61154999D01*
G75*
G02*
X142379999Y-60905000I249999J0D01*
G01*
X143620001Y-60905000D01*
G75*
G02*
X143870000Y-61154999I0J-249999D01*
G01*
G37*
%TD.AperFunction*%
%TD*%
%TO.P,J4,2*%
%TO.N,/+12V*%
X173000000Y-62000000D03*
%TO.P,J4,1*%
%TO.N,/SEG_B*%
%TA.AperFunction,ComponentPad*%
G36*
G01*
X176410000Y-61154999D02*
X176410000Y-62845001D01*
G75*
G02*
X176160001Y-63095000I-249999J0D01*
G01*
X174919999Y-63095000D01*
G75*
G02*
X174670000Y-62845001I0J249999D01*
G01*
X174670000Y-61154999D01*
G75*
G02*
X174919999Y-60905000I249999J0D01*
G01*
X176160001Y-60905000D01*
G75*
G02*
X176410000Y-61154999I0J-249999D01*
G01*
G37*
%TD.AperFunction*%
%TD*%
%TO.P,J3,2*%
%TO.N,/+12V*%
X148460000Y-62000000D03*
%TO.P,J3,1*%
%TO.N,/SEG_E*%
%TA.AperFunction,ComponentPad*%
G36*
G01*
X151870000Y-61154999D02*
X151870000Y-62845001D01*
G75*
G02*
X151620001Y-63095000I-249999J0D01*
G01*
X150379999Y-63095000D01*
G75*
G02*
X150130000Y-62845001I0J249999D01*
G01*
X150130000Y-61154999D01*
G75*
G02*
X150379999Y-60905000I249999J0D01*
G01*
X151620001Y-60905000D01*
G75*
G02*
X151870000Y-61154999I0J-249999D01*
G01*
G37*
%TD.AperFunction*%
%TD*%
%TO.P,J2,2*%
%TO.N,/+12V*%
X165000000Y-62000000D03*
%TO.P,J2,1*%
%TO.N,/SEG_C*%
%TA.AperFunction,ComponentPad*%
G36*
G01*
X168410000Y-61154999D02*
X168410000Y-62845001D01*
G75*
G02*
X168160001Y-63095000I-249999J0D01*
G01*
X166919999Y-63095000D01*
G75*
G02*
X166670000Y-62845001I0J249999D01*
G01*
X166670000Y-61154999D01*
G75*
G02*
X166919999Y-60905000I249999J0D01*
G01*
X168160001Y-60905000D01*
G75*
G02*
X168410000Y-61154999I0J-249999D01*
G01*
G37*
%TD.AperFunction*%
%TD*%
%TO.P,J1,2*%
%TO.N,/+12V*%
X157000000Y-62000000D03*
%TO.P,J1,1*%
%TO.N,/SEG_D*%
%TA.AperFunction,ComponentPad*%
G36*
G01*
X160410000Y-61154999D02*
X160410000Y-62845001D01*
G75*
G02*
X160160001Y-63095000I-249999J0D01*
G01*
X158919999Y-63095000D01*
G75*
G02*
X158670000Y-62845001I0J249999D01*
G01*
X158670000Y-61154999D01*
G75*
G02*
X158919999Y-60905000I249999J0D01*
G01*
X160160001Y-60905000D01*
G75*
G02*
X160410000Y-61154999I0J-249999D01*
G01*
G37*
%TD.AperFunction*%
%TD*%
D13*
%TO.N,*%
X127000000Y-61000000D03*
X127000000Y-86000000D03*
X190000000Y-86000000D03*
X190000000Y-61000000D03*
%TD*%
D14*
%TO.N,*%
X128000000Y-59000000D02*
X126000000Y-59000000D01*
X126000000Y-59000000D02*
X125000000Y-60000000D01*
X125000000Y-60000000D02*
X125000000Y-62000000D01*
X125000000Y-62000000D02*
X126000000Y-63000000D01*
X126000000Y-63000000D02*
X128000000Y-63000000D01*
X128000000Y-63000000D02*
X129000000Y-62000000D01*
X129000000Y-62000000D02*
X129000000Y-60000000D01*
X129000000Y-60000000D02*
X128000000Y-59000000D01*
X128000000Y-84000000D02*
X126000000Y-84000000D01*
X126000000Y-84000000D02*
X125000000Y-85000000D01*
X125000000Y-85000000D02*
X125000000Y-87000000D01*
X125000000Y-87000000D02*
X126000000Y-88000000D01*
X126000000Y-88000000D02*
X128000000Y-88000000D01*
X128000000Y-88000000D02*
X129000000Y-87000000D01*
X129000000Y-87000000D02*
X129000000Y-85000000D01*
X129000000Y-85000000D02*
X128000000Y-84000000D01*
X189000000Y-84000000D02*
X191000000Y-84000000D01*
X191000000Y-84000000D02*
X192000000Y-85000000D01*
X192000000Y-85000000D02*
X192000000Y-87000000D01*
X192000000Y-87000000D02*
X191000000Y-88000000D01*
X191000000Y-88000000D02*
X189000000Y-88000000D01*
X189000000Y-88000000D02*
X188000000Y-87000000D01*
X188000000Y-87000000D02*
X188000000Y-85000000D01*
X188000000Y-85000000D02*
X189000000Y-84000000D01*
X189000000Y-59000000D02*
X191000000Y-59000000D01*
X191000000Y-59000000D02*
X192000000Y-60000000D01*
X192000000Y-60000000D02*
X192000000Y-62000000D01*
X192000000Y-62000000D02*
X191000000Y-63000000D01*
X191000000Y-63000000D02*
X189000000Y-63000000D01*
X189000000Y-63000000D02*
X188000000Y-62000000D01*
X188000000Y-62000000D02*
X188000000Y-60000000D01*
X188000000Y-60000000D02*
X189000000Y-59000000D01*
D15*
%TO.N,/SEG_D*%
X159540000Y-64540000D02*
X159540000Y-62000000D01*
X163000000Y-68000000D02*
X159540000Y-64540000D01*
X163000000Y-76000000D02*
X163000000Y-68000000D01*
X159540000Y-62000000D02*
X161000000Y-62000000D01*
%TO.N,/SEG_C*%
X167540000Y-62000000D02*
X169000000Y-62000000D01*
X164000000Y-79540000D02*
X163000000Y-78540000D01*
X165540000Y-79540000D02*
X164000000Y-79540000D01*
X166000000Y-79080000D02*
X165540000Y-79540000D01*
X166000000Y-68000000D02*
X166000000Y-79080000D01*
X167540000Y-66460000D02*
X166000000Y-68000000D01*
X167540000Y-62000000D02*
X167540000Y-66460000D01*
%TO.N,/SEG_E*%
X151000000Y-64000000D02*
X151000000Y-62000000D01*
X160460000Y-71460000D02*
X154000000Y-65000000D01*
X160460000Y-76000000D02*
X160460000Y-71460000D01*
X151000000Y-62000000D02*
X152000000Y-62000000D01*
X152000000Y-65000000D02*
X151000000Y-64000000D01*
X154000000Y-65000000D02*
X152000000Y-65000000D01*
X151000000Y-62000000D02*
X153000000Y-62000000D01*
%TO.N,/SEG_B*%
X175540000Y-65540000D02*
X175540000Y-62000000D01*
X160460000Y-78540000D02*
X160460000Y-83540000D01*
X160460000Y-83540000D02*
X160920000Y-84000000D01*
X177000000Y-84000000D02*
X179000000Y-82000000D01*
X179000000Y-69000000D02*
X175540000Y-65540000D01*
X160920000Y-84000000D02*
X177000000Y-84000000D01*
X179000000Y-82000000D02*
X179000000Y-69000000D01*
X175540000Y-62000000D02*
X177000000Y-62000000D01*
%TO.N,/SEG_F*%
X157920000Y-76000000D02*
X157920000Y-72920000D01*
X157920000Y-72920000D02*
X153000000Y-68000000D01*
X153000000Y-68000000D02*
X146000000Y-68000000D01*
X146000000Y-68000000D02*
X143000000Y-65000000D01*
X143000000Y-65000000D02*
X143000000Y-62000000D01*
X143000000Y-62000000D02*
X144000000Y-62000000D01*
X143000000Y-62000000D02*
X145000000Y-62000000D01*
%TO.N,/SEG_A*%
X179000000Y-87000000D02*
X183540000Y-82460000D01*
X159000000Y-87000000D02*
X179000000Y-87000000D01*
X157920000Y-85920000D02*
X159000000Y-87000000D01*
X157920000Y-78540000D02*
X157920000Y-85920000D01*
X185000000Y-62000000D02*
X183540000Y-62000000D01*
X183540000Y-60540000D02*
X185000000Y-62000000D01*
X183540000Y-62000000D02*
X183540000Y-60540000D01*
X185000000Y-62080000D02*
X183540000Y-63540000D01*
X185000000Y-62000000D02*
X185000000Y-62080000D01*
X183540000Y-63540000D02*
X183540000Y-62000000D01*
X183540000Y-82460000D02*
X183540000Y-63540000D01*
%TO.N,/SEG_G*%
X135540000Y-65540000D02*
X135540000Y-62000000D01*
X137000000Y-67000000D02*
X135540000Y-65540000D01*
X144000000Y-71000000D02*
X140000000Y-67000000D01*
X151582081Y-71000000D02*
X144000000Y-71000000D01*
X155380000Y-74797919D02*
X151582081Y-71000000D01*
X140000000Y-67000000D02*
X137000000Y-67000000D01*
X155380000Y-76000000D02*
X155380000Y-74797919D01*
X135540000Y-62000000D02*
X137000000Y-62000000D01*
D16*
%TO.N,/+12V*%
X165460000Y-59540000D02*
X166000000Y-59000000D01*
X158000000Y-59000000D02*
X166000000Y-59000000D01*
X173460000Y-59540000D02*
X174000000Y-59000000D01*
X174000000Y-59000000D02*
X177460000Y-59000000D01*
X166000000Y-59000000D02*
X174000000Y-59000000D01*
X156000000Y-59000000D02*
X158000000Y-59000000D01*
X150000000Y-59000000D02*
X156000000Y-59000000D01*
D17*
X164000000Y-59000000D02*
X167000000Y-59000000D01*
X175000000Y-59000000D02*
X177460000Y-59000000D01*
X172000000Y-59000000D02*
X175000000Y-59000000D01*
X177000000Y-59000000D02*
X179000000Y-59000000D01*
D16*
X177000000Y-59000000D02*
X172000000Y-59000000D01*
D15*
X152840000Y-76000000D02*
X152840000Y-78540000D01*
X152840000Y-78540000D02*
X155380000Y-78540000D01*
X152840000Y-78540000D02*
X152840000Y-82160000D01*
X152840000Y-82160000D02*
X152779999Y-82220001D01*
D17*
X179000000Y-59000000D02*
X180000000Y-59000000D01*
D16*
X142000000Y-59000000D02*
X150000000Y-59000000D01*
X141000000Y-59000000D02*
X142000000Y-59000000D01*
D15*
X139000000Y-83000000D02*
X133000000Y-77000000D01*
X152000000Y-83000000D02*
X139000000Y-83000000D01*
X133000000Y-60000000D02*
X134000000Y-59000000D01*
X140460000Y-59540000D02*
X141000000Y-59000000D01*
X140460000Y-62000000D02*
X140460000Y-59540000D01*
X157000000Y-60000000D02*
X156000000Y-59000000D01*
X157000000Y-62000000D02*
X157000000Y-60000000D01*
X165000000Y-60000000D02*
X164000000Y-59000000D01*
X165000000Y-62000000D02*
X165000000Y-60000000D01*
X140460000Y-60460000D02*
X139000000Y-59000000D01*
X140460000Y-62000000D02*
X140460000Y-60460000D01*
D17*
X139000000Y-59000000D02*
X134000000Y-59000000D01*
X141000000Y-59000000D02*
X139000000Y-59000000D01*
D15*
X148460000Y-59460000D02*
X148000000Y-59000000D01*
X148460000Y-62000000D02*
X148460000Y-59460000D01*
X148460000Y-60460000D02*
X147000000Y-59000000D01*
X148460000Y-62000000D02*
X148460000Y-60460000D01*
D17*
X147000000Y-59000000D02*
X148000000Y-59000000D01*
D15*
X165000000Y-61000000D02*
X163000000Y-59000000D01*
X165000000Y-62000000D02*
X165000000Y-61000000D01*
D17*
X163000000Y-59000000D02*
X164000000Y-59000000D01*
X159000000Y-59000000D02*
X163000000Y-59000000D01*
D15*
X157000000Y-61000000D02*
X155000000Y-59000000D01*
X157000000Y-62000000D02*
X157000000Y-61000000D01*
D17*
X155000000Y-59000000D02*
X159000000Y-59000000D01*
X148000000Y-59000000D02*
X155000000Y-59000000D01*
X141000000Y-59000000D02*
X147000000Y-59000000D01*
D15*
X173000000Y-61000000D02*
X171000000Y-59000000D01*
X173000000Y-62000000D02*
X173000000Y-61000000D01*
D17*
X171000000Y-59000000D02*
X172000000Y-59000000D01*
X167000000Y-59000000D02*
X171000000Y-59000000D01*
D15*
X181000000Y-60000000D02*
X180000000Y-59000000D01*
X181000000Y-62000000D02*
X181000000Y-60000000D01*
X181000000Y-61000000D02*
X179000000Y-59000000D01*
X181000000Y-62000000D02*
X181000000Y-61000000D01*
X133000000Y-62000000D02*
X132000000Y-62000000D01*
X132000000Y-61000000D02*
X133000000Y-60000000D01*
X132000000Y-62000000D02*
X132000000Y-61000000D01*
X132000000Y-63000000D02*
X133000000Y-64000000D01*
X132000000Y-62000000D02*
X132000000Y-63000000D01*
X133000000Y-64000000D02*
X133000000Y-62000000D01*
X133000000Y-77000000D02*
X133000000Y-64000000D01*
X152840000Y-76000000D02*
X152000000Y-76000000D01*
X152000000Y-82000000D02*
X152500000Y-82500000D01*
X152000000Y-76000000D02*
X152000000Y-82000000D01*
X152500000Y-82500000D02*
X152000000Y-83000000D01*
X152840000Y-82160000D02*
X152500000Y-82500000D01*
X152840000Y-81080000D02*
X152840000Y-82160000D01*
X155380000Y-78540000D02*
X152840000Y-81080000D01*
%TD*%
M02*
