%TF.GenerationSoftware,KiCad,Pcbnew,5.1.9*%
%TF.CreationDate,2021-06-26T11:33:51+02:00*%
%TF.ProjectId,burner,6275726e-6572-42e6-9b69-6361645f7063,rev?*%
%TF.SameCoordinates,Original*%
%TF.FileFunction,Copper,L2,Bot*%
%TF.FilePolarity,Positive*%
%FSLAX46Y46*%
G04 Gerber Fmt 4.6, Leading zero omitted, Abs format (unit mm)*
G04 Created by KiCad (PCBNEW 5.1.9) date 2021-06-26 11:33:51*
%MOMM*%
%LPD*%
G01*
G04 APERTURE LIST*
%TA.AperFunction,NonConductor*%
%ADD10C,0.200000*%
%TD*%
%TA.AperFunction,ComponentPad*%
%ADD11O,1.600000X1.600000*%
%TD*%
%TA.AperFunction,ComponentPad*%
%ADD12R,1.600000X1.600000*%
%TD*%
%TA.AperFunction,ComponentPad*%
%ADD13O,1.700000X1.700000*%
%TD*%
%TA.AperFunction,ComponentPad*%
%ADD14R,1.700000X1.700000*%
%TD*%
%TA.AperFunction,ViaPad*%
%ADD15C,0.800000*%
%TD*%
%TA.AperFunction,Conductor*%
%ADD16C,2.000000*%
%TD*%
%TA.AperFunction,Conductor*%
%ADD17C,1.000000*%
%TD*%
G04 APERTURE END LIST*
D10*
X143214285Y-116452380D02*
X143785714Y-116452380D01*
X143500000Y-116452380D02*
X143500000Y-115452380D01*
X143595238Y-115595238D01*
X143690476Y-115690476D01*
X143785714Y-115738095D01*
D11*
%TO.P,U1,20*%
%TO.N,/+5V*%
X133380000Y-115000000D03*
%TO.P,U1,10*%
%TO.N,/GND*%
X141000000Y-92140000D03*
%TO.P,U1,19*%
%TO.N,/SCK*%
X133380000Y-112460000D03*
%TO.P,U1,9*%
%TO.N,Net-(U1-Pad9)*%
X141000000Y-94680000D03*
%TO.P,U1,18*%
%TO.N,/MISO*%
X133380000Y-109920000D03*
%TO.P,U1,8*%
%TO.N,Net-(U1-Pad8)*%
X141000000Y-97220000D03*
%TO.P,U1,17*%
%TO.N,/MOSI*%
X133380000Y-107380000D03*
%TO.P,U1,7*%
%TO.N,Net-(U1-Pad7)*%
X141000000Y-99760000D03*
%TO.P,U1,16*%
%TO.N,Net-(U1-Pad16)*%
X133380000Y-104840000D03*
%TO.P,U1,6*%
%TO.N,Net-(U1-Pad6)*%
X141000000Y-102300000D03*
%TO.P,U1,15*%
%TO.N,Net-(U1-Pad15)*%
X133380000Y-102300000D03*
%TO.P,U1,5*%
%TO.N,Net-(U1-Pad5)*%
X141000000Y-104840000D03*
%TO.P,U1,14*%
%TO.N,Net-(U1-Pad14)*%
X133380000Y-99760000D03*
%TO.P,U1,4*%
%TO.N,Net-(U1-Pad4)*%
X141000000Y-107380000D03*
%TO.P,U1,13*%
%TO.N,Net-(U1-Pad13)*%
X133380000Y-97220000D03*
%TO.P,U1,3*%
%TO.N,Net-(U1-Pad3)*%
X141000000Y-109920000D03*
%TO.P,U1,12*%
%TO.N,Net-(U1-Pad12)*%
X133380000Y-94680000D03*
%TO.P,U1,2*%
%TO.N,Net-(U1-Pad2)*%
X141000000Y-112460000D03*
%TO.P,U1,11*%
%TO.N,Net-(U1-Pad11)*%
X133380000Y-92140000D03*
D12*
%TO.P,U1,1*%
%TO.N,/RESET*%
X141000000Y-115000000D03*
%TD*%
D13*
%TO.P,J1,10*%
%TO.N,/GND*%
X142620000Y-86540000D03*
%TO.P,J1,9*%
%TO.N,/MISO*%
X142620000Y-84000000D03*
%TO.P,J1,8*%
%TO.N,/GND*%
X140080000Y-86540000D03*
%TO.P,J1,7*%
%TO.N,/SCK*%
X140080000Y-84000000D03*
%TO.P,J1,6*%
%TO.N,/GND*%
X137540000Y-86540000D03*
%TO.P,J1,5*%
%TO.N,/RESET*%
X137540000Y-84000000D03*
%TO.P,J1,4*%
%TO.N,/GND*%
X135000000Y-86540000D03*
%TO.P,J1,3*%
%TO.N,Net-(J1-Pad3)*%
X135000000Y-84000000D03*
%TO.P,J1,2*%
%TO.N,/+5V*%
X132460000Y-86540000D03*
D14*
%TO.P,J1,1*%
%TO.N,/MOSI*%
X132460000Y-84000000D03*
%TD*%
D15*
%TO.N,/RESET*%
X134000000Y-89000000D03*
X127000000Y-89000000D03*
%TO.N,/+5V*%
X131000000Y-105000000D03*
X131000000Y-110000000D03*
%TD*%
D16*
%TO.N,/GND*%
X135000000Y-86540000D02*
X137540000Y-86540000D01*
X137540000Y-86540000D02*
X140080000Y-86540000D01*
X140080000Y-86540000D02*
X142620000Y-86540000D01*
X140080000Y-91220000D02*
X141000000Y-92140000D01*
X140080000Y-86540000D02*
X140080000Y-91220000D01*
%TO.N,/MISO*%
X142620000Y-84000000D02*
X144000000Y-84000000D01*
X133380000Y-109920000D02*
X134080000Y-109920000D01*
D17*
X144000000Y-84000000D02*
X145000000Y-85000000D01*
X145000000Y-85000000D02*
X145000000Y-118000000D01*
X137000000Y-118000000D02*
X137000000Y-112000000D01*
X145000000Y-118000000D02*
X137000000Y-118000000D01*
X137000000Y-112000000D02*
X134920000Y-109920000D01*
X134920000Y-109920000D02*
X134080000Y-109920000D01*
D16*
%TO.N,/SCK*%
X140080000Y-84000000D02*
X140080000Y-81920000D01*
X133380000Y-112460000D02*
X134460000Y-112460000D01*
D17*
X134460000Y-112460000D02*
X135000000Y-113000000D01*
X135000000Y-113000000D02*
X135000000Y-120000000D01*
X147000000Y-120000000D02*
X147000000Y-84000000D01*
X135000000Y-120000000D02*
X147000000Y-120000000D01*
X147000000Y-84000000D02*
X144000000Y-81000000D01*
X144000000Y-81000000D02*
X141000000Y-81000000D01*
X141000000Y-81000000D02*
X140080000Y-81920000D01*
%TO.N,/RESET*%
X136000000Y-81000000D02*
X130000000Y-81000000D01*
X130000000Y-81000000D02*
X127000000Y-84000000D01*
D16*
X137540000Y-84000000D02*
X137540000Y-83540000D01*
D17*
X137540000Y-83540000D02*
X137540000Y-82540000D01*
D16*
X137540000Y-82540000D02*
X137000000Y-82000000D01*
X137540000Y-84000000D02*
X137540000Y-82540000D01*
D17*
X137000000Y-82000000D02*
X136000000Y-81000000D01*
D16*
X141000000Y-115000000D02*
X140000000Y-115000000D01*
X141000000Y-115000000D02*
X142000000Y-115000000D01*
D17*
X138000000Y-92000000D02*
X136000000Y-90000000D01*
X139000000Y-111000000D02*
X138000000Y-110000000D01*
X139000000Y-115000000D02*
X139000000Y-111000000D01*
X138000000Y-110000000D02*
X138000000Y-92000000D01*
X140000000Y-115000000D02*
X139000000Y-115000000D01*
X136000000Y-90000000D02*
X135000000Y-89000000D01*
X127000000Y-84000000D02*
X127000000Y-89000000D01*
D16*
X134000000Y-89000000D02*
X134000000Y-89000000D01*
X127000000Y-88000000D02*
X127000000Y-89000000D01*
X134000000Y-89000000D02*
X135000000Y-89000000D01*
D17*
X127000000Y-89000000D02*
X127000000Y-89000000D01*
D16*
%TO.N,/+5V*%
X132460000Y-86540000D02*
X131500000Y-87500000D01*
D17*
X131500000Y-87500000D02*
X131000000Y-88000000D01*
X131000000Y-105000000D02*
X131000000Y-105000000D01*
X131000000Y-110000000D02*
X131000000Y-110000000D01*
D16*
X131000000Y-105000000D02*
X131000000Y-104000000D01*
D17*
X131000000Y-88000000D02*
X131000000Y-104000000D01*
D16*
X131000000Y-110000000D02*
X131000000Y-111000000D01*
D17*
X131000000Y-114000000D02*
X131000000Y-111000000D01*
X132760000Y-115760000D02*
X131000000Y-114000000D01*
X133000000Y-115760000D02*
X132760000Y-115760000D01*
X133380000Y-115380000D02*
X133000000Y-115760000D01*
X133380000Y-115000000D02*
X133380000Y-115380000D01*
X133380000Y-115000000D02*
X132000000Y-115000000D01*
%TO.N,/MOSI*%
X130000000Y-84000000D02*
X129000000Y-85000000D01*
X129000000Y-85000000D02*
X129000000Y-106000000D01*
X129000000Y-106000000D02*
X130380000Y-107380000D01*
D16*
X132460000Y-84000000D02*
X131000000Y-84000000D01*
D17*
X131000000Y-84000000D02*
X130000000Y-84000000D01*
D16*
X133380000Y-107380000D02*
X132620000Y-107380000D01*
D17*
X130380000Y-107380000D02*
X132620000Y-107380000D01*
D16*
X133380000Y-107380000D02*
X134651283Y-107380000D01*
%TO.N,Net-(U1-Pad9)*%
X141000000Y-94680000D02*
X141680000Y-94680000D01*
%TO.N,Net-(U1-Pad8)*%
X141000000Y-97220000D02*
X141780000Y-97220000D01*
%TO.N,Net-(U1-Pad7)*%
X141000000Y-99760000D02*
X141760000Y-99760000D01*
%TO.N,Net-(U1-Pad16)*%
X133380000Y-104840000D02*
X133840000Y-104840000D01*
X133380000Y-104840000D02*
X134840000Y-104840000D01*
%TO.N,Net-(U1-Pad6)*%
X141000000Y-102300000D02*
X141300000Y-102300000D01*
X141000000Y-102300000D02*
X141700000Y-102300000D01*
%TO.N,Net-(U1-Pad15)*%
X133380000Y-102300000D02*
X133700000Y-102300000D01*
X133380000Y-102300000D02*
X134700000Y-102300000D01*
%TO.N,Net-(U1-Pad5)*%
X141000000Y-104840000D02*
X141840000Y-104840000D01*
%TO.N,Net-(U1-Pad14)*%
X133380000Y-99760000D02*
X133760000Y-99760000D01*
X133380000Y-99760000D02*
X134760000Y-99760000D01*
%TO.N,Net-(U1-Pad4)*%
X141000000Y-107380000D02*
X142620000Y-107380000D01*
%TO.N,Net-(U1-Pad13)*%
X133380000Y-97220000D02*
X134780000Y-97220000D01*
%TO.N,Net-(U1-Pad3)*%
X141000000Y-109920000D02*
X141920000Y-109920000D01*
%TO.N,Net-(U1-Pad12)*%
X133380000Y-94680000D02*
X134680000Y-94680000D01*
%TO.N,Net-(U1-Pad2)*%
X141000000Y-112460000D02*
X141460000Y-112460000D01*
%TO.N,Net-(U1-Pad11)*%
X133380000Y-92140000D02*
X134860000Y-92140000D01*
%TD*%
M02*
