%FSLAX45Y45*%
G04 Gerber Fmt 4.5, Leading zero omitted, Abs format (unit mm)*
G04 Created by KiCad (PCBNEW 5.1.9) date 2021-06-11 19:56:42*
%MOMM*%
%LPD*%
G01*
G04 APERTURE LIST*
%ADD10C,0.200000*%
%ADD11C,0.300000*%
G04 APERTURE END LIST*
D10*
D11*
X13036428Y-12415714D02*
X13036428Y-12115714D01*
X13107857Y-12115714D01*
X13150714Y-12130000D01*
X13179286Y-12158571D01*
X13193571Y-12187143D01*
X13207857Y-12244286D01*
X13207857Y-12287143D01*
X13193571Y-12344286D01*
X13179286Y-12372857D01*
X13150714Y-12401428D01*
X13107857Y-12415714D01*
X13036428Y-12415714D01*
X13336428Y-12415714D02*
X13336428Y-12215714D01*
X13336428Y-12272857D02*
X13350714Y-12244286D01*
X13365000Y-12230000D01*
X13393571Y-12215714D01*
X13422143Y-12215714D01*
X13522143Y-12415714D02*
X13522143Y-12215714D01*
X13522143Y-12115714D02*
X13507857Y-12130000D01*
X13522143Y-12144286D01*
X13536428Y-12130000D01*
X13522143Y-12115714D01*
X13522143Y-12144286D01*
X13707857Y-12415714D02*
X13679286Y-12401428D01*
X13665000Y-12372857D01*
X13665000Y-12115714D01*
X13865000Y-12415714D02*
X13836428Y-12401428D01*
X13822143Y-12372857D01*
X13822143Y-12115714D01*
X14207857Y-12415714D02*
X14207857Y-12115714D01*
X14307857Y-12330000D01*
X14407857Y-12115714D01*
X14407857Y-12415714D01*
X14679286Y-12415714D02*
X14679286Y-12258571D01*
X14665000Y-12230000D01*
X14636428Y-12215714D01*
X14579286Y-12215714D01*
X14550714Y-12230000D01*
X14679286Y-12401428D02*
X14650714Y-12415714D01*
X14579286Y-12415714D01*
X14550714Y-12401428D01*
X14536428Y-12372857D01*
X14536428Y-12344286D01*
X14550714Y-12315714D01*
X14579286Y-12301428D01*
X14650714Y-12301428D01*
X14679286Y-12287143D01*
X14822143Y-12215714D02*
X14822143Y-12515714D01*
X14822143Y-12230000D02*
X14850714Y-12215714D01*
X14907857Y-12215714D01*
X14936428Y-12230000D01*
X14950714Y-12244286D01*
X14965000Y-12272857D01*
X14965000Y-12358571D01*
X14950714Y-12387143D01*
X14936428Y-12401428D01*
X14907857Y-12415714D01*
X14850714Y-12415714D01*
X14822143Y-12401428D01*
X15093571Y-12387143D02*
X15107857Y-12401428D01*
X15093571Y-12415714D01*
X15079286Y-12401428D01*
X15093571Y-12387143D01*
X15093571Y-12415714D01*
X15093571Y-12230000D02*
X15107857Y-12244286D01*
X15093571Y-12258571D01*
X15079286Y-12244286D01*
X15093571Y-12230000D01*
X15093571Y-12258571D01*
M02*
