M48
; DRILL file {KiCad 5.1.9} date Fri Jun 11 19:56:42 2021
; FORMAT={-:-/ absolute / metric / decimal}
; #@! TF.CreationDate,2021-06-11T19:56:42+02:00
; #@! TF.GenerationSoftware,Kicad,Pcbnew,5.1.9
; #@! TF.FileFunction,Plated,1,2,PTH
FMAT,2
METRIC
T1C0.400
T2C0.800
T3C1.000
%
G90
G05
T1
X127.0Y-89.0
X131.0Y-105.0
X131.0Y-110.0
X134.0Y-89.0
T2
X133.38Y-92.14
X133.38Y-94.68
X133.38Y-97.22
X133.38Y-99.76
X133.38Y-102.3
X133.38Y-104.84
X133.38Y-107.38
X133.38Y-109.92
X133.38Y-112.46
X133.38Y-115.0
X141.0Y-92.14
X141.0Y-94.68
X141.0Y-97.22
X141.0Y-99.76
X141.0Y-102.3
X141.0Y-104.84
X141.0Y-107.38
X141.0Y-109.92
X141.0Y-112.46
X141.0Y-115.0
T3
X132.46Y-84.0
X132.46Y-86.54
X135.0Y-84.0
X135.0Y-86.54
X137.54Y-84.0
X137.54Y-86.54
X140.08Y-84.0
X140.08Y-86.54
X142.62Y-84.0
X142.62Y-86.54
T0
M30
