<?xml version="1.0" standalone="no"?>
 <!DOCTYPE svg PUBLIC "-//W3C//DTD SVG 1.1//EN" 
 "http://www.w3.org/Graphics/SVG/1.1/DTD/svg11.dtd"> 
<svg
  xmlns:svg="http://www.w3.org/2000/svg"
  xmlns="http://www.w3.org/2000/svg"
  xmlns:xlink="http://www.w3.org/1999/xlink"
  version="1.1"
  width="29.700220cm" height="21.000720cm" viewBox="0 0 116930 82680">
<title>SVG Picture created as burner-Eco2_User.svg date 2021/06/26 11:33:28 </title>
  <desc>Picture generated by PCBNEW </desc>
<g style="fill:#000000; fill-opacity:1;stroke:#000000; stroke-opacity:1;
stroke-linecap:round; stroke-linejoin:round;"
 transform="translate(0 0) scale(1 1)">
</g>
<g style="fill:#000000; fill-opacity:0.0; 
stroke:#000000; stroke-width:-0.000393701; stroke-opacity:1; 
stroke-linecap:round; stroke-linejoin:round;">
</g>
<g style="fill:#000000; fill-opacity:0.0; 
stroke:#000000; stroke-width:59.0551; stroke-opacity:1; 
stroke-linecap:round; stroke-linejoin:round;">
<text x="50393.7" y="47440.9"
textLength="2202.1" font-size="524.934" lengthAdjust="spacingAndGlyphs"
text-anchor="middle" opacity="0">23 mm</text>
<path d="M49418 47065
L49437 47047
L49475 47028
L49568 47028
L49606 47047
L49625 47065
L49643 47103
L49643 47140
L49625 47197
L49400 47422
L49643 47422
" />
<path d="M49775 47028
L50018 47028
L49887 47178
L49943 47178
L49981 47197
L50000 47215
L50018 47253
L50018 47347
L50000 47384
L49981 47403
L49943 47422
L49831 47422
L49793 47403
L49775 47384
" />
<path d="M50487 47422
L50487 47159
" />
<path d="M50487 47197
L50506 47178
L50543 47159
L50599 47159
L50637 47178
L50656 47215
L50656 47422
" />
<path d="M50656 47215
L50674 47178
L50712 47159
L50768 47159
L50806 47178
L50824 47215
L50824 47422
" />
<path d="M51012 47422
L51012 47159
" />
<path d="M51012 47197
L51031 47178
L51068 47159
L51124 47159
L51162 47178
L51181 47215
L51181 47422
" />
<path d="M51181 47215
L51199 47178
L51237 47159
L51293 47159
L51331 47178
L51349 47215
L51349 47422
" />
<g transform="rotate(-90 49606.3 45275.6)">
<text x="49606.3" y="45472.4"
textLength="2176.51" font-size="524.934" lengthAdjust="spacingAndGlyphs"
text-anchor="middle" opacity="0">41 mm</text>
</g>
<path d="M49521 46062
L49784 46062
" />
<path d="M49371 46156
L49653 46250
L49653 46006
" />
<path d="M49784 45650
L49784 45875
" />
<path d="M49784 45763
L49390 45763
L49446 45800
L49484 45838
L49503 45875
" />
<path d="M49784 45181
L49521 45181
" />
<path d="M49559 45181
L49540 45163
L49521 45125
L49521 45069
L49540 45031
L49578 45013
L49784 45013
" />
<path d="M49578 45013
L49540 44994
L49521 44956
L49521 44900
L49540 44863
L49578 44844
L49784 44844
" />
<path d="M49784 44656
L49521 44656
" />
<path d="M49559 44656
L49540 44638
L49521 44600
L49521 44544
L49540 44506
L49578 44488
L49784 44488
" />
<path d="M49578 44488
L49540 44469
L49521 44431
L49521 44375
L49540 44338
L49578 44319
L49784 44319
" />
<path d="M58267 31496
L58267 47637
" />
<path d="M49212 31496
L58267 31496
" />
<path d="M49212 47637
L49212 31496
" />
<path d="M49606 47637
L49212 47637
" />
<path d="M50000 47637
L49606 47637
" />
<path d="M50393 47637
L50000 47637
" />
<path d="M51181 47637
L50393 47637
" />
<path d="M58267 47637
L51181 47637
" />
<g >
</g>
<g >
</g>
<g >
</g>
</g> 
</svg>
