<?xml version="1.0" standalone="no"?>
 <!DOCTYPE svg PUBLIC "-//W3C//DTD SVG 1.1//EN" 
 "http://www.w3.org/Graphics/SVG/1.1/DTD/svg11.dtd"> 
<svg
  xmlns:svg="http://www.w3.org/2000/svg"
  xmlns="http://www.w3.org/2000/svg"
  xmlns:xlink="http://www.w3.org/1999/xlink"
  version="1.1"
  width="29.700220cm" height="21.000720cm" viewBox="0 0 116930 82680">
<title>SVG Picture created as breakout-B_Cu.svg date 2021/06/26 11:31:28 </title>
  <desc>Picture generated by PCBNEW </desc>
<g style="fill:#000000; fill-opacity:1;stroke:#000000; stroke-opacity:1;
stroke-linecap:round; stroke-linejoin:round;"
 transform="translate(0 0) scale(1 1)">
</g>
<g style="fill:#000000; fill-opacity:0.0; 
stroke:#000000; stroke-width:-0.000393701; stroke-opacity:1; 
stroke-linecap:round; stroke-linejoin:round;">
</g>
<g style="fill:#000000; fill-opacity:0.0; 
stroke:#000000; stroke-width:118.11; stroke-opacity:1; 
stroke-linecap:round; stroke-linejoin:round;">
<text x="50788.3" y="28641.7"
transform="scale(-1 1) translate(-101576.535433 0)"
textLength="485.658" font-size="787.402" lengthAdjust="spacingAndGlyphs"
text-anchor="middle" opacity="0">1</text>
<path d="M50956 28613
L50619 28613
" />
<path d="M50788 28613
L50788 28023
L50732 28107
L50675 28163
L50619 28191
" />
<g >
</g>
<g >
</g>
<g >
</g>
<g >
</g>
<g >
</g>
<g style="fill:#000000; fill-opacity:0.0; 
stroke:#000000; stroke-width:118.11; stroke-opacity:1; 
stroke-linecap:round; stroke-linejoin:round;">
</g>
<g style="fill:#000000; fill-opacity:1.0; 
stroke:#000000; stroke-width:0; stroke-opacity:1; 
stroke-linecap:round; stroke-linejoin:round;">
<circle cx="60276.5" cy="30322.8" r="1574.8" /> 
</g>
<g style="fill:#000000; fill-opacity:1.0; 
stroke:#000000; stroke-width:39.3701; stroke-opacity:1; 
stroke-linecap:round; stroke-linejoin:round;">
</g>
<g style="fill:#000000; fill-opacity:1.0; 
stroke:#000000; stroke-width:0; stroke-opacity:1; 
stroke-linecap:round; stroke-linejoin:round;">
<circle cx="49237.1" cy="30322.8" r="1574.8" /> 
</g>
<g style="fill:#000000; fill-opacity:1.0; 
stroke:#000000; stroke-width:39.3701; stroke-opacity:1; 
stroke-linecap:round; stroke-linejoin:round;">
</g>
<g style="fill:#000000; fill-opacity:1.0; 
stroke:#000000; stroke-width:0; stroke-opacity:1; 
stroke-linecap:round; stroke-linejoin:round;">
<circle cx="56756.8" cy="30921.3" r="334.646" /> 
</g>
<g style="fill:#000000; fill-opacity:1.0; 
stroke:#000000; stroke-width:39.3701; stroke-opacity:1; 
stroke-linecap:round; stroke-linejoin:round;">
</g>
<g style="fill:#000000; fill-opacity:1.0; 
stroke:#000000; stroke-width:0; stroke-opacity:1; 
stroke-linecap:round; stroke-linejoin:round;">
<circle cx="55756.8" cy="30921.3" r="334.646" /> 
</g>
<g style="fill:#000000; fill-opacity:1.0; 
stroke:#000000; stroke-width:39.3701; stroke-opacity:1; 
stroke-linecap:round; stroke-linejoin:round;">
</g>
<g style="fill:#000000; fill-opacity:1.0; 
stroke:#000000; stroke-width:0; stroke-opacity:1; 
stroke-linecap:round; stroke-linejoin:round;">
<circle cx="54756.8" cy="30921.3" r="334.646" /> 
</g>
<g style="fill:#000000; fill-opacity:1.0; 
stroke:#000000; stroke-width:39.3701; stroke-opacity:1; 
stroke-linecap:round; stroke-linejoin:round;">
</g>
<g style="fill:#000000; fill-opacity:1.0; 
stroke:#000000; stroke-width:0; stroke-opacity:1; 
stroke-linecap:round; stroke-linejoin:round;">
<circle cx="53756.8" cy="30921.3" r="334.646" /> 
</g>
<g style="fill:#000000; fill-opacity:1.0; 
stroke:#000000; stroke-width:39.3701; stroke-opacity:1; 
stroke-linecap:round; stroke-linejoin:round;">
</g>
<g style="fill:#000000; fill-opacity:1.0; 
stroke:#000000; stroke-width:0; stroke-opacity:1; 
stroke-linecap:round; stroke-linejoin:round;">
<circle cx="52756.8" cy="30921.3" r="334.646" /> 
</g>
<g style="fill:#000000; fill-opacity:1.0; 
stroke:#000000; stroke-width:39.3701; stroke-opacity:1; 
stroke-linecap:round; stroke-linejoin:round;">
</g>
<g style="fill:#000000; fill-opacity:1.0; 
stroke:#000000; stroke-width:0; stroke-opacity:1; 
stroke-linecap:round; stroke-linejoin:round;">
<circle cx="56756.8" cy="29921.3" r="334.646" /> 
</g>
<g style="fill:#000000; fill-opacity:1.0; 
stroke:#000000; stroke-width:39.3701; stroke-opacity:1; 
stroke-linecap:round; stroke-linejoin:round;">
</g>
<g style="fill:#000000; fill-opacity:1.0; 
stroke:#000000; stroke-width:0; stroke-opacity:1; 
stroke-linecap:round; stroke-linejoin:round;">
<circle cx="55756.8" cy="29921.3" r="334.646" /> 
</g>
<g style="fill:#000000; fill-opacity:1.0; 
stroke:#000000; stroke-width:39.3701; stroke-opacity:1; 
stroke-linecap:round; stroke-linejoin:round;">
</g>
<g style="fill:#000000; fill-opacity:1.0; 
stroke:#000000; stroke-width:0; stroke-opacity:1; 
stroke-linecap:round; stroke-linejoin:round;">
<circle cx="54756.8" cy="29921.3" r="334.646" /> 
</g>
<g style="fill:#000000; fill-opacity:1.0; 
stroke:#000000; stroke-width:39.3701; stroke-opacity:1; 
stroke-linecap:round; stroke-linejoin:round;">
</g>
<g style="fill:#000000; fill-opacity:1.0; 
stroke:#000000; stroke-width:0; stroke-opacity:1; 
stroke-linecap:round; stroke-linejoin:round;">
<circle cx="53756.8" cy="29921.3" r="334.646" /> 
</g>
<g style="fill:#000000; fill-opacity:1.0; 
stroke:#000000; stroke-width:39.3701; stroke-opacity:1; 
stroke-linecap:round; stroke-linejoin:round;">
</g>
<g style="fill:#000000; fill-opacity:1.0; 
stroke:#000000; stroke-width:0; stroke-opacity:1; 
stroke-linecap:round; stroke-linejoin:round;">
<path style="fill:#000000; fill-opacity:1.0; 
stroke:#000000; stroke-width:0; stroke-opacity:1; 
stroke-linecap:round; stroke-linejoin:round;fill-rule:evenodd;"
d="M 52510.9,29587.1
52501.3,29588.5
52492,29590.9
52482.9,29594.1
52474.2,29598.2
52465.9,29603.2
52458.1,29609
52451,29615.4
52444.5,29622.6
52438.7,29630.4
52433.7,29638.6
52429.6,29647.4
52426.4,29656.5
52424,29665.8
52422.6,29675.4
52422.1,29685
52422.1,30157.5
52422.6,30167.1
52424,30176.7
52426.4,30186.1
52429.6,30195.1
52433.7,30203.9
52438.7,30212.2
52444.5,30219.9
52451,30227.1
52458.1,30233.6
52465.9,30239.3
52474.2,30244.3
52482.9,30248.4
52492,30251.7
52501.3,30254
52510.9,30255.4
52520.6,30255.9
52993,30255.9
53002.6,30255.4
53012.2,30254
53021.6,30251.7
53030.7,30248.4
53039.4,30244.3
53047.7,30239.3
53055.4,30233.6
53062.6,30227.1
53069.1,30219.9
53074.8,30212.2
53079.8,30203.9
53083.9,30195.1
53087.2,30186.1
53089.5,30176.7
53090.9,30167.1
53091.4,30157.5
53091.4,29685
53090.9,29675.4
53089.5,29665.8
53087.2,29656.5
53083.9,29647.4
53079.8,29638.6
53074.8,29630.4
53069.1,29622.6
53062.6,29615.4
53055.4,29609
53047.7,29603.2
53039.4,29598.2
53030.7,29594.1
53021.6,29590.9
53012.2,29588.5
53002.6,29587.1
52993,29586.6
52520.6,29586.6
Z" /> 
</g>
<g >
</g>
<g style="fill:#000000; fill-opacity:1.0; 
stroke:#000000; stroke-width:0; stroke-opacity:1; 
stroke-linecap:round; stroke-linejoin:round;">
</g>
<g style="fill:#000000; fill-opacity:1.0; 
stroke:#000000; stroke-width:685.039; stroke-opacity:1; 
stroke-linecap:round; stroke-linejoin:round;">
</g>
<g style="fill:#000000; fill-opacity:0.0; 
stroke:#000000; stroke-width:685.039; stroke-opacity:1; 
stroke-linecap:round; stroke-linejoin:round;">
<path d="M64567 24498
L64567 24320
" />
</g>
<g style="fill:#000000; fill-opacity:0.0; 
stroke:#000000; stroke-width:0; stroke-opacity:1; 
stroke-linecap:round; stroke-linejoin:round;">
</g>
<g style="fill:#000000; fill-opacity:1.0; 
stroke:#000000; stroke-width:0; stroke-opacity:1; 
stroke-linecap:round; stroke-linejoin:round;">
<path style="fill:#000000; fill-opacity:1.0; 
stroke:#000000; stroke-width:0; stroke-opacity:1; 
stroke-linecap:round; stroke-linejoin:round;fill-rule:evenodd;"
d="M 63314.1,23978.8
63304.5,23980.2
63295.1,23982.6
63286,23985.8
63277.3,23990
63269,23994.9
63261.3,24000.7
63254.1,24007.2
63247.6,24014.3
63241.9,24022.1
63236.9,24030.4
63232.8,24039.1
63229.5,24048.2
63227.2,24057.6
63225.7,24067.1
63225.3,24076.8
63225.3,24742.1
63225.7,24751.8
63227.2,24761.3
63229.5,24770.7
63232.8,24779.8
63236.9,24788.5
63241.9,24796.8
63247.6,24804.6
63254.1,24811.7
63261.3,24818.2
63269,24824
63277.3,24828.9
63286,24833.1
63295.1,24836.3
63304.5,24838.7
63314.1,24840.1
63323.7,24840.6
63811.9,24840.6
63821.5,24840.1
63831.1,24838.7
63840.5,24836.3
63849.6,24833.1
63858.3,24828.9
63866.6,24824
63874.3,24818.2
63881.5,24811.7
63888,24804.6
63893.7,24796.8
63898.7,24788.5
63902.8,24779.8
63906.1,24770.7
63908.4,24761.3
63909.8,24751.8
63910.3,24742.1
63910.3,24076.8
63909.8,24067.1
63908.4,24057.6
63906.1,24048.2
63902.8,24039.1
63898.7,24030.4
63893.7,24022.1
63888,24014.3
63881.5,24007.2
63874.3,24000.7
63866.6,23994.9
63858.3,23990
63849.6,23985.8
63840.5,23982.6
63831.1,23980.2
63821.5,23978.8
63811.9,23978.3
63323.7,23978.3
Z" /> 
</g>
<g >
</g>
<g style="fill:#000000; fill-opacity:1.0; 
stroke:#000000; stroke-width:0; stroke-opacity:1; 
stroke-linecap:round; stroke-linejoin:round;">
</g>
<g style="fill:#000000; fill-opacity:1.0; 
stroke:#000000; stroke-width:685.039; stroke-opacity:1; 
stroke-linecap:round; stroke-linejoin:round;">
</g>
<g style="fill:#000000; fill-opacity:0.0; 
stroke:#000000; stroke-width:685.039; stroke-opacity:1; 
stroke-linecap:round; stroke-linejoin:round;">
<path d="M45670 24498
L45670 24320
" />
</g>
<g style="fill:#000000; fill-opacity:0.0; 
stroke:#000000; stroke-width:0; stroke-opacity:1; 
stroke-linecap:round; stroke-linejoin:round;">
</g>
<g style="fill:#000000; fill-opacity:1.0; 
stroke:#000000; stroke-width:0; stroke-opacity:1; 
stroke-linecap:round; stroke-linejoin:round;">
<path style="fill:#000000; fill-opacity:1.0; 
stroke:#000000; stroke-width:0; stroke-opacity:1; 
stroke-linecap:round; stroke-linejoin:round;fill-rule:evenodd;"
d="M 44416.4,23978.8
44406.9,23980.2
44397.5,23982.6
44388.4,23985.8
44379.7,23990
44371.4,23994.9
44363.6,24000.7
44356.5,24007.2
44350,24014.3
44344.2,24022.1
44339.3,24030.4
44335.1,24039.1
44331.9,24048.2
44329.5,24057.6
44328.1,24067.1
44327.6,24076.8
44327.6,24742.1
44328.1,24751.8
44329.5,24761.3
44331.9,24770.7
44335.1,24779.8
44339.3,24788.5
44344.2,24796.8
44350,24804.6
44356.5,24811.7
44363.6,24818.2
44371.4,24824
44379.7,24828.9
44388.4,24833.1
44397.5,24836.3
44406.9,24838.7
44416.4,24840.1
44426.1,24840.6
44914.3,24840.6
44923.9,24840.1
44933.5,24838.7
44942.8,24836.3
44951.9,24833.1
44960.6,24828.9
44968.9,24824
44976.7,24818.2
44983.8,24811.7
44990.3,24804.6
44996.1,24796.8
45001.1,24788.5
45005.2,24779.8
45008.4,24770.7
45010.8,24761.3
45012.2,24751.8
45012.7,24742.1
45012.7,24076.8
45012.2,24067.1
45010.8,24057.6
45008.4,24048.2
45005.2,24039.1
45001.1,24030.4
44996.1,24022.1
44990.3,24014.3
44983.8,24007.2
44976.7,24000.7
44968.9,23994.9
44960.6,23990
44951.9,23985.8
44942.8,23982.6
44933.5,23980.2
44923.9,23978.8
44914.3,23978.3
44426.1,23978.3
Z" /> 
</g>
<g >
</g>
<g style="fill:#000000; fill-opacity:1.0; 
stroke:#000000; stroke-width:0; stroke-opacity:1; 
stroke-linecap:round; stroke-linejoin:round;">
</g>
<g style="fill:#000000; fill-opacity:1.0; 
stroke:#000000; stroke-width:685.039; stroke-opacity:1; 
stroke-linecap:round; stroke-linejoin:round;">
</g>
<g style="fill:#000000; fill-opacity:0.0; 
stroke:#000000; stroke-width:685.039; stroke-opacity:1; 
stroke-linecap:round; stroke-linejoin:round;">
<path d="M61630 24498
L61630 24320
" />
</g>
<g style="fill:#000000; fill-opacity:0.0; 
stroke:#000000; stroke-width:0; stroke-opacity:1; 
stroke-linecap:round; stroke-linejoin:round;">
</g>
<g style="fill:#000000; fill-opacity:1.0; 
stroke:#000000; stroke-width:0; stroke-opacity:1; 
stroke-linecap:round; stroke-linejoin:round;">
<path style="fill:#000000; fill-opacity:1.0; 
stroke:#000000; stroke-width:0; stroke-opacity:1; 
stroke-linecap:round; stroke-linejoin:round;fill-rule:evenodd;"
d="M 60377,23978.8
60367.5,23980.2
60358.1,23982.6
60349,23985.8
60340.3,23990
60332,23994.9
60324.3,24000.7
60317.1,24007.2
60310.6,24014.3
60304.9,24022.1
60299.9,24030.4
60295.8,24039.1
60292.5,24048.2
60290.2,24057.6
60288.7,24067.1
60288.3,24076.8
60288.3,24742.1
60288.7,24751.8
60290.2,24761.3
60292.5,24770.7
60295.8,24779.8
60299.9,24788.5
60304.9,24796.8
60310.6,24804.6
60317.1,24811.7
60324.3,24818.2
60332,24824
60340.3,24828.9
60349,24833.1
60358.1,24836.3
60367.5,24838.7
60377,24840.1
60386.7,24840.6
60874.9,24840.6
60884.5,24840.1
60894.1,24838.7
60903.5,24836.3
60912.5,24833.1
60921.3,24828.9
60929.6,24824
60937.3,24818.2
60944.5,24811.7
60951,24804.6
60956.7,24796.8
60961.7,24788.5
60965.8,24779.8
60969.1,24770.7
60971.4,24761.3
60972.8,24751.8
60973.3,24742.1
60973.3,24076.8
60972.8,24067.1
60971.4,24057.6
60969.1,24048.2
60965.8,24039.1
60961.7,24030.4
60956.7,24022.1
60951,24014.3
60944.5,24007.2
60937.3,24000.7
60929.6,23994.9
60921.3,23990
60912.5,23985.8
60903.5,23982.6
60894.1,23980.2
60884.5,23978.8
60874.9,23978.3
60386.7,23978.3
Z" /> 
</g>
<g >
</g>
<g style="fill:#000000; fill-opacity:1.0; 
stroke:#000000; stroke-width:0; stroke-opacity:1; 
stroke-linecap:round; stroke-linejoin:round;">
</g>
<g style="fill:#000000; fill-opacity:1.0; 
stroke:#000000; stroke-width:685.039; stroke-opacity:1; 
stroke-linecap:round; stroke-linejoin:round;">
</g>
<g style="fill:#000000; fill-opacity:0.0; 
stroke:#000000; stroke-width:685.039; stroke-opacity:1; 
stroke-linecap:round; stroke-linejoin:round;">
<path d="M48819 24498
L48819 24320
" />
</g>
<g style="fill:#000000; fill-opacity:0.0; 
stroke:#000000; stroke-width:0; stroke-opacity:1; 
stroke-linecap:round; stroke-linejoin:round;">
</g>
<g style="fill:#000000; fill-opacity:1.0; 
stroke:#000000; stroke-width:0; stroke-opacity:1; 
stroke-linecap:round; stroke-linejoin:round;">
<path style="fill:#000000; fill-opacity:1.0; 
stroke:#000000; stroke-width:0; stroke-opacity:1; 
stroke-linecap:round; stroke-linejoin:round;fill-rule:evenodd;"
d="M 47566,23978.8
47556.5,23980.2
47547.1,23982.6
47538,23985.8
47529.3,23990
47521,23994.9
47513.2,24000.7
47506.1,24007.2
47499.6,24014.3
47493.8,24022.1
47488.9,24030.4
47484.7,24039.1
47481.5,24048.2
47479.1,24057.6
47477.7,24067.1
47477.2,24076.8
47477.2,24742.1
47477.7,24751.8
47479.1,24761.3
47481.5,24770.7
47484.7,24779.8
47488.9,24788.5
47493.8,24796.8
47499.6,24804.6
47506.1,24811.7
47513.2,24818.2
47521,24824
47529.3,24828.9
47538,24833.1
47547.1,24836.3
47556.5,24838.7
47566,24840.1
47575.7,24840.6
48063.9,24840.6
48073.5,24840.1
48083.1,24838.7
48092.4,24836.3
48101.5,24833.1
48110.3,24828.9
48118.5,24824
48126.3,24818.2
48133.5,24811.7
48139.9,24804.6
48145.7,24796.8
48150.7,24788.5
48154.8,24779.8
48158,24770.7
48160.4,24761.3
48161.8,24751.8
48162.3,24742.1
48162.3,24076.8
48161.8,24067.1
48160.4,24057.6
48158,24048.2
48154.8,24039.1
48150.7,24030.4
48145.7,24022.1
48139.9,24014.3
48133.5,24007.2
48126.3,24000.7
48118.5,23994.9
48110.3,23990
48101.5,23985.8
48092.4,23982.6
48083.1,23980.2
48073.5,23978.8
48063.9,23978.3
47575.7,23978.3
Z" /> 
</g>
<g >
</g>
<g style="fill:#000000; fill-opacity:1.0; 
stroke:#000000; stroke-width:0; stroke-opacity:1; 
stroke-linecap:round; stroke-linejoin:round;">
</g>
<g style="fill:#000000; fill-opacity:1.0; 
stroke:#000000; stroke-width:685.039; stroke-opacity:1; 
stroke-linecap:round; stroke-linejoin:round;">
</g>
<g style="fill:#000000; fill-opacity:0.0; 
stroke:#000000; stroke-width:685.039; stroke-opacity:1; 
stroke-linecap:round; stroke-linejoin:round;">
<path d="M58481 24498
L58481 24320
" />
</g>
<g style="fill:#000000; fill-opacity:0.0; 
stroke:#000000; stroke-width:0; stroke-opacity:1; 
stroke-linecap:round; stroke-linejoin:round;">
</g>
<g style="fill:#000000; fill-opacity:1.0; 
stroke:#000000; stroke-width:0; stroke-opacity:1; 
stroke-linecap:round; stroke-linejoin:round;">
<path style="fill:#000000; fill-opacity:1.0; 
stroke:#000000; stroke-width:0; stroke-opacity:1; 
stroke-linecap:round; stroke-linejoin:round;fill-rule:evenodd;"
d="M 57227.4,23978.8
57217.9,23980.2
57208.5,23982.6
57199.4,23985.8
57190.7,23990
57182.4,23994.9
57174.6,24000.7
57167.5,24007.2
57161,24014.3
57155.2,24022.1
57150.3,24030.4
57146.2,24039.1
57142.9,24048.2
57140.6,24057.6
57139.1,24067.1
57138.7,24076.8
57138.7,24742.1
57139.1,24751.8
57140.6,24761.3
57142.9,24770.7
57146.2,24779.8
57150.3,24788.5
57155.2,24796.8
57161,24804.6
57167.5,24811.7
57174.6,24818.2
57182.4,24824
57190.7,24828.9
57199.4,24833.1
57208.5,24836.3
57217.9,24838.7
57227.4,24840.1
57237.1,24840.6
57725.3,24840.6
57734.9,24840.1
57744.5,24838.7
57753.8,24836.3
57762.9,24833.1
57771.7,24828.9
57780,24824
57787.7,24818.2
57794.9,24811.7
57801.4,24804.6
57807.1,24796.8
57812.1,24788.5
57816.2,24779.8
57819.5,24770.7
57821.8,24761.3
57823.2,24751.8
57823.7,24742.1
57823.7,24076.8
57823.2,24067.1
57821.8,24057.6
57819.5,24048.2
57816.2,24039.1
57812.1,24030.4
57807.1,24022.1
57801.4,24014.3
57794.9,24007.2
57787.7,24000.7
57780,23994.9
57771.7,23990
57762.9,23985.8
57753.8,23982.6
57744.5,23980.2
57734.9,23978.8
57725.3,23978.3
57237.1,23978.3
Z" /> 
</g>
<g >
</g>
<g style="fill:#000000; fill-opacity:1.0; 
stroke:#000000; stroke-width:0; stroke-opacity:1; 
stroke-linecap:round; stroke-linejoin:round;">
</g>
<g style="fill:#000000; fill-opacity:1.0; 
stroke:#000000; stroke-width:685.039; stroke-opacity:1; 
stroke-linecap:round; stroke-linejoin:round;">
</g>
<g style="fill:#000000; fill-opacity:0.0; 
stroke:#000000; stroke-width:685.039; stroke-opacity:1; 
stroke-linecap:round; stroke-linejoin:round;">
<path d="M51969 24498
L51969 24320
" />
</g>
<g style="fill:#000000; fill-opacity:0.0; 
stroke:#000000; stroke-width:0; stroke-opacity:1; 
stroke-linecap:round; stroke-linejoin:round;">
</g>
<g style="fill:#000000; fill-opacity:1.0; 
stroke:#000000; stroke-width:0; stroke-opacity:1; 
stroke-linecap:round; stroke-linejoin:round;">
<path style="fill:#000000; fill-opacity:1.0; 
stroke:#000000; stroke-width:0; stroke-opacity:1; 
stroke-linecap:round; stroke-linejoin:round;fill-rule:evenodd;"
d="M 50715.6,23978.8
50706.1,23980.2
50696.7,23982.6
50687.6,23985.8
50678.9,23990
50670.6,23994.9
50662.8,24000.7
50655.7,24007.2
50649.2,24014.3
50643.4,24022.1
50638.5,24030.4
50634.3,24039.1
50631.1,24048.2
50628.7,24057.6
50627.3,24067.1
50626.9,24076.8
50626.9,24742.1
50627.3,24751.8
50628.7,24761.3
50631.1,24770.7
50634.3,24779.8
50638.5,24788.5
50643.4,24796.8
50649.2,24804.6
50655.7,24811.7
50662.8,24818.2
50670.6,24824
50678.9,24828.9
50687.6,24833.1
50696.7,24836.3
50706.1,24838.7
50715.6,24840.1
50725.3,24840.6
51213.5,24840.6
51223.1,24840.1
51232.7,24838.7
51242,24836.3
51251.1,24833.1
51259.9,24828.9
51268.1,24824
51275.9,24818.2
51283.1,24811.7
51289.5,24804.6
51295.3,24796.8
51300.3,24788.5
51304.4,24779.8
51307.7,24770.7
51310,24761.3
51311.4,24751.8
51311.9,24742.1
51311.9,24076.8
51311.4,24067.1
51310,24057.6
51307.7,24048.2
51304.4,24039.1
51300.3,24030.4
51295.3,24022.1
51289.5,24014.3
51283.1,24007.2
51275.9,24000.7
51268.1,23994.9
51259.9,23990
51251.1,23985.8
51242,23982.6
51232.7,23980.2
51223.1,23978.8
51213.5,23978.3
50725.3,23978.3
Z" /> 
</g>
<g >
</g>
<g style="fill:#000000; fill-opacity:1.0; 
stroke:#000000; stroke-width:0; stroke-opacity:1; 
stroke-linecap:round; stroke-linejoin:round;">
</g>
<g style="fill:#000000; fill-opacity:1.0; 
stroke:#000000; stroke-width:685.039; stroke-opacity:1; 
stroke-linecap:round; stroke-linejoin:round;">
</g>
<g style="fill:#000000; fill-opacity:0.0; 
stroke:#000000; stroke-width:685.039; stroke-opacity:1; 
stroke-linecap:round; stroke-linejoin:round;">
<path d="M55118 24498
L55118 24320
" />
</g>
<g style="fill:#000000; fill-opacity:0.0; 
stroke:#000000; stroke-width:0; stroke-opacity:1; 
stroke-linecap:round; stroke-linejoin:round;">
</g>
<g style="fill:#000000; fill-opacity:1.0; 
stroke:#000000; stroke-width:0; stroke-opacity:1; 
stroke-linecap:round; stroke-linejoin:round;">
<path style="fill:#000000; fill-opacity:1.0; 
stroke:#000000; stroke-width:0; stroke-opacity:1; 
stroke-linecap:round; stroke-linejoin:round;fill-rule:evenodd;"
d="M 53865.2,23978.8
53855.7,23980.2
53846.3,23982.6
53837.2,23985.8
53828.5,23990
53820.2,23994.9
53812.4,24000.7
53805.3,24007.2
53798.8,24014.3
53793,24022.1
53788.1,24030.4
53783.9,24039.1
53780.7,24048.2
53778.3,24057.6
53776.9,24067.1
53776.5,24076.8
53776.5,24742.1
53776.9,24751.8
53778.3,24761.3
53780.7,24770.7
53783.9,24779.8
53788.1,24788.5
53793,24796.8
53798.8,24804.6
53805.3,24811.7
53812.4,24818.2
53820.2,24824
53828.5,24828.9
53837.2,24833.1
53846.3,24836.3
53855.7,24838.7
53865.2,24840.1
53874.9,24840.6
54363.1,24840.6
54372.7,24840.1
54382.3,24838.7
54391.6,24836.3
54400.7,24833.1
54409.5,24828.9
54417.8,24824
54425.5,24818.2
54432.7,24811.7
54439.2,24804.6
54444.9,24796.8
54449.9,24788.5
54454,24779.8
54457.3,24770.7
54459.6,24761.3
54461,24751.8
54461.5,24742.1
54461.5,24076.8
54461,24067.1
54459.6,24057.6
54457.3,24048.2
54454,24039.1
54449.9,24030.4
54444.9,24022.1
54439.2,24014.3
54432.7,24007.2
54425.5,24000.7
54417.8,23994.9
54409.5,23990
54400.7,23985.8
54391.6,23982.6
54382.3,23980.2
54372.7,23978.8
54363.1,23978.3
53874.9,23978.3
Z" /> 
</g>
<g >
</g>
<g style="fill:#000000; fill-opacity:1.0; 
stroke:#000000; stroke-width:0; stroke-opacity:1; 
stroke-linecap:round; stroke-linejoin:round;">
<circle cx="66930" cy="24015.7" r="157.48" /> 
</g>
<g style="fill:#000000; fill-opacity:1.0; 
stroke:#000000; stroke-width:39.3701; stroke-opacity:1; 
stroke-linecap:round; stroke-linejoin:round;">
</g>
<g style="fill:#000000; fill-opacity:1.0; 
stroke:#000000; stroke-width:0; stroke-opacity:1; 
stroke-linecap:round; stroke-linejoin:round;">
<circle cx="66930" cy="33858.3" r="157.48" /> 
</g>
<g style="fill:#000000; fill-opacity:1.0; 
stroke:#000000; stroke-width:39.3701; stroke-opacity:1; 
stroke-linecap:round; stroke-linejoin:round;">
</g>
<g style="fill:#000000; fill-opacity:1.0; 
stroke:#000000; stroke-width:0; stroke-opacity:1; 
stroke-linecap:round; stroke-linejoin:round;">
<circle cx="42126.9" cy="33858.3" r="157.48" /> 
</g>
<g style="fill:#000000; fill-opacity:1.0; 
stroke:#000000; stroke-width:39.3701; stroke-opacity:1; 
stroke-linecap:round; stroke-linejoin:round;">
</g>
<g style="fill:#000000; fill-opacity:1.0; 
stroke:#000000; stroke-width:0; stroke-opacity:1; 
stroke-linecap:round; stroke-linejoin:round;">
<circle cx="42126.9" cy="24015.7" r="157.48" /> 
</g>
<g style="fill:#000000; fill-opacity:1.0; 
stroke:#000000; stroke-width:39.3701; stroke-opacity:1; 
stroke-linecap:round; stroke-linejoin:round;">
</g>
<g >
</g>
<g style="fill:#000000; fill-opacity:1.0; 
stroke:#000000; stroke-width:39.3701; stroke-opacity:1; 
stroke-linecap:round; stroke-linejoin:round;">
</g>
<g style="fill:#000000; fill-opacity:1.0; 
stroke:#000000; stroke-width:98.4252; stroke-opacity:1; 
stroke-linecap:round; stroke-linejoin:round;">
</g>
<g style="fill:#000000; fill-opacity:0.0; 
stroke:#000000; stroke-width:98.4252; stroke-opacity:1; 
stroke-linecap:round; stroke-linejoin:round;">
<path d="M66536 23228
L67323 23228
" />
<path d="M67323 23228
L67717 23622
" />
<path d="M67717 23622
L67717 24409
" />
<path d="M67717 24409
L67323 24803
" />
<path d="M67323 24803
L66536 24803
" />
<path d="M66536 24803
L66142 24409
" />
<path d="M66142 24409
L66142 23622
" />
<path d="M66142 23622
L66536 23228
" />
<path d="M66536 33070
L67323 33070
" />
<path d="M67323 33070
L67717 33464
" />
<path d="M67717 33464
L67717 34251
" />
<path d="M67717 34251
L67323 34645
" />
<path d="M67323 34645
L66536 34645
" />
<path d="M66536 34645
L66142 34251
" />
<path d="M66142 34251
L66142 33464
" />
<path d="M66142 33464
L66536 33070
" />
<path d="M42520 33070
L41733 33070
" />
<path d="M41733 33070
L41339 33464
" />
<path d="M41339 33464
L41339 34251
" />
<path d="M41339 34251
L41733 34645
" />
<path d="M41733 34645
L42520 34645
" />
<path d="M42520 34645
L42914 34251
" />
<path d="M42914 34251
L42914 33464
" />
<path d="M42914 33464
L42520 33070
" />
<path d="M42520 23228
L41733 23228
" />
<path d="M41733 23228
L41339 23622
" />
<path d="M41339 23622
L41339 24409
" />
<path d="M41339 24409
L41733 24803
" />
<path d="M41733 24803
L42520 24803
" />
<path d="M42520 24803
L42914 24409
" />
<path d="M42914 24409
L42914 23622
" />
<path d="M42914 23622
L42520 23228
" />
</g>
<g style="fill:#000000; fill-opacity:0.0; 
stroke:#000000; stroke-width:787.402; stroke-opacity:1; 
stroke-linecap:round; stroke-linejoin:round;">
<path d="M54118 25409
L54118 24409
" />
<path d="M52756 26771
L54118 25409
" />
<path d="M52756 29921
L52756 26771
" />
<path d="M54118 24409
L53544 24409
" />
<path d="M50969 24409
L50394 24409
" />
<path d="M52363 31314
L52756 30921
" />
<path d="M51756 31314
L52363 31314
" />
<path d="M51575 31133
L51756 31314
" />
<path d="M51575 26771
L51575 31133
" />
<path d="M50969 26165
L51575 26771
" />
<path d="M50969 24409
L50969 26165
" />
<path d="M57481 25196
L57481 24409
" />
<path d="M53756 28133
L56300 25590
" />
<path d="M53756 29921
L53756 28133
" />
<path d="M57481 24409
L57087 24409
" />
<path d="M57087 25590
L57481 25196
" />
<path d="M56300 25590
L57087 25590
" />
<path d="M57481 24409
L56693 24409
" />
<path d="M47819 25803
L47819 24409
" />
<path d="M53756 30921
L53756 32889
" />
<path d="M53756 32889
L53575 33070
" />
<path d="M47244 33070
L46457 32283
" />
<path d="M46457 27165
L47819 25803
" />
<path d="M53575 33070
L47244 33070
" />
<path d="M46457 32283
L46457 27165
" />
<path d="M47819 24409
L47244 24409
" />
<path d="M54756 29921
L54756 28708
" />
<path d="M54756 28708
L56693 26771
" />
<path d="M56693 26771
L59449 26771
" />
<path d="M59449 26771
L60630 25590
" />
<path d="M60630 25590
L60630 24409
" />
<path d="M60630 24409
L60237 24409
" />
<path d="M60630 24409
L59843 24409
" />
<path d="M46457 34251
L44670 32464
" />
<path d="M54331 34251
L46457 34251
" />
<path d="M54756 33826
L54331 34251
" />
<path d="M54756 30921
L54756 33826
" />
<path d="M44095 24409
L44670 24409
" />
<path d="M44670 23834
L44095 24409
" />
<path d="M44670 24409
L44670 23834
" />
<path d="M44095 24440
L44670 25015
" />
<path d="M44095 24409
L44095 24440
" />
<path d="M44670 25015
L44670 24409
" />
<path d="M44670 32464
L44670 25015
" />
<path d="M63567 25803
L63567 24409
" />
<path d="M62992 26377
L63567 25803
" />
<path d="M60237 27952
L61811 26377
" />
<path d="M57252 27952
L60237 27952
" />
<path d="M55756 29447
L57252 27952
" />
<path d="M61811 26377
L62992 26377
" />
<path d="M55756 29921
L55756 29447
" />
<path d="M63567 24409
L62992 24409
" />
</g>
<g style="fill:#000000; fill-opacity:0.0; 
stroke:#000000; stroke-width:590.551; stroke-opacity:1; 
stroke-linecap:round; stroke-linejoin:round;">
<path d="M51788 23440
L51575 23228
" />
<path d="M54725 23228
L51575 23228
" />
<path d="M48638 23440
L48426 23228
" />
<path d="M48426 23228
L47063 23228
" />
<path d="M51575 23228
L48426 23228
" />
<path d="M55512 23228
L54725 23228
" />
<path d="M57874 23228
L55512 23228
" />
</g>
<g style="fill:#000000; fill-opacity:0.0; 
stroke:#000000; stroke-width:984.252; stroke-opacity:1; 
stroke-linecap:round; stroke-linejoin:round;">
<path d="M52363 23228
L51181 23228
" />
<path d="M48032 23228
L47063 23228
" />
<path d="M49213 23228
L48032 23228
" />
<path d="M47244 23228
L46457 23228
" />
</g>
<g style="fill:#000000; fill-opacity:0.0; 
stroke:#000000; stroke-width:590.551; stroke-opacity:1; 
stroke-linecap:round; stroke-linejoin:round;">
<path d="M47244 23228
L49213 23228
" />
</g>
<g style="fill:#000000; fill-opacity:0.0; 
stroke:#000000; stroke-width:787.402; stroke-opacity:1; 
stroke-linecap:round; stroke-linejoin:round;">
<path d="M56756 29921
L56756 30921
" />
<path d="M56756 30921
L55756 30921
" />
<path d="M56756 30921
L56756 32346
" />
<path d="M56756 32346
L56780 32370
" />
</g>
<g style="fill:#000000; fill-opacity:0.0; 
stroke:#000000; stroke-width:984.252; stroke-opacity:1; 
stroke-linecap:round; stroke-linejoin:round;">
<path d="M46457 23228
L46063 23228
" />
</g>
<g style="fill:#000000; fill-opacity:0.0; 
stroke:#000000; stroke-width:590.551; stroke-opacity:1; 
stroke-linecap:round; stroke-linejoin:round;">
<path d="M61024 23228
L57874 23228
" />
<path d="M61418 23228
L61024 23228
" />
</g>
<g style="fill:#000000; fill-opacity:0.0; 
stroke:#000000; stroke-width:787.402; stroke-opacity:1; 
stroke-linecap:round; stroke-linejoin:round;">
<path d="M62205 32677
L64567 30314
" />
<path d="M57087 32677
L62205 32677
" />
<path d="M64567 23622
L64174 23228
" />
<path d="M61630 23440
L61418 23228
" />
<path d="M61630 24409
L61630 23440
" />
<path d="M55118 23622
L55512 23228
" />
<path d="M55118 24409
L55118 23622
" />
<path d="M51969 23622
L52363 23228
" />
<path d="M51969 24409
L51969 23622
" />
<path d="M61630 23803
L62205 23228
" />
<path d="M61630 24409
L61630 23803
" />
</g>
<g style="fill:#000000; fill-opacity:0.0; 
stroke:#000000; stroke-width:984.252; stroke-opacity:1; 
stroke-linecap:round; stroke-linejoin:round;">
<path d="M62205 23228
L64174 23228
" />
<path d="M61418 23228
L62205 23228
" />
</g>
<g style="fill:#000000; fill-opacity:0.0; 
stroke:#000000; stroke-width:787.402; stroke-opacity:1; 
stroke-linecap:round; stroke-linejoin:round;">
<path d="M58481 23409
L58662 23228
" />
<path d="M58481 24409
L58481 23409
" />
<path d="M58481 23803
L59055 23228
" />
<path d="M58481 24409
L58481 23803
" />
</g>
<g style="fill:#000000; fill-opacity:0.0; 
stroke:#000000; stroke-width:984.252; stroke-opacity:1; 
stroke-linecap:round; stroke-linejoin:round;">
<path d="M59055 23228
L58662 23228
" />
</g>
<g style="fill:#000000; fill-opacity:0.0; 
stroke:#000000; stroke-width:787.402; stroke-opacity:1; 
stroke-linecap:round; stroke-linejoin:round;">
<path d="M51969 24015
L52756 23228
" />
<path d="M51969 24409
L51969 24015
" />
</g>
<g style="fill:#000000; fill-opacity:0.0; 
stroke:#000000; stroke-width:984.252; stroke-opacity:1; 
stroke-linecap:round; stroke-linejoin:round;">
<path d="M52756 23228
L52363 23228
" />
<path d="M54331 23228
L52756 23228
" />
</g>
<g style="fill:#000000; fill-opacity:0.0; 
stroke:#000000; stroke-width:787.402; stroke-opacity:1; 
stroke-linecap:round; stroke-linejoin:round;">
<path d="M55118 24015
L55906 23228
" />
<path d="M55118 24409
L55118 24015
" />
</g>
<g style="fill:#000000; fill-opacity:0.0; 
stroke:#000000; stroke-width:984.252; stroke-opacity:1; 
stroke-linecap:round; stroke-linejoin:round;">
<path d="M55906 23228
L54331 23228
" />
<path d="M58662 23228
L55906 23228
" />
<path d="M61418 23228
L59055 23228
" />
</g>
<g style="fill:#000000; fill-opacity:0.0; 
stroke:#000000; stroke-width:787.402; stroke-opacity:1; 
stroke-linecap:round; stroke-linejoin:round;">
<path d="M48819 24015
L49607 23228
" />
<path d="M48819 24409
L48819 24015
" />
</g>
<g style="fill:#000000; fill-opacity:0.0; 
stroke:#000000; stroke-width:984.252; stroke-opacity:1; 
stroke-linecap:round; stroke-linejoin:round;">
<path d="M49607 23228
L49213 23228
" />
<path d="M51181 23228
L49607 23228
" />
</g>
<g style="fill:#000000; fill-opacity:0.0; 
stroke:#000000; stroke-width:787.402; stroke-opacity:1; 
stroke-linecap:round; stroke-linejoin:round;">
<path d="M45670 23622
L46063 23228
" />
<path d="M45670 24409
L45670 23622
" />
<path d="M45670 24015
L46457 23228
" />
<path d="M45670 24409
L45670 24015
" />
<path d="M64567 24409
L64961 24409
" />
<path d="M64961 24015
L64567 23622
" />
<path d="M64961 24409
L64961 24015
" />
<path d="M64961 24803
L64567 25196
" />
<path d="M64961 24409
L64961 24803
" />
<path d="M64567 25196
L64567 24409
" />
<path d="M64567 30314
L64567 25196
" />
<path d="M56756 29921
L57087 29921
" />
<path d="M57087 32283
L56890 32480
" />
<path d="M57087 29921
L57087 32283
" />
<path d="M56890 32480
L57087 32677
" />
<path d="M56756 32346
L56890 32480
" />
<path d="M56756 31921
L56756 32346
" />
<path d="M55756 30921
L56756 31921
" />
<path d="M61630 24409
L61630 24622
" />
<path d="M58481 24409
L58481 24622
" />
<path d="M55118 24409
L55118 24803
" />
<path d="M51969 24409
L51969 24803
" />
<path d="M48819 24409
L48819 24803
" />
<path d="M45670 24409
L45670 24803
" />
<path d="M58481 24409
L58481 25015
" />
<path d="M61630 24409
L61630 25015
" />
</g>
<g >
</g>
</g>
<g style="fill:#FFFFFF; fill-opacity:0.0; 
stroke:#FFFFFF; stroke-width:787.402; stroke-opacity:1; 
stroke-linecap:round; stroke-linejoin:round;">
</g>
<g style="fill:#FFFFFF; fill-opacity:1.0; 
stroke:#FFFFFF; stroke-width:0; stroke-opacity:1; 
stroke-linecap:round; stroke-linejoin:round;">
<circle cx="66930" cy="24015.7" r="68.8976" /> 
</g>
<g style="fill:#FFFFFF; fill-opacity:1.0; 
stroke:#FFFFFF; stroke-width:39.3701; stroke-opacity:1; 
stroke-linecap:round; stroke-linejoin:round;">
</g>
<g style="fill:#FFFFFF; fill-opacity:1.0; 
stroke:#FFFFFF; stroke-width:0; stroke-opacity:1; 
stroke-linecap:round; stroke-linejoin:round;">
<circle cx="66930" cy="33858.3" r="68.8976" /> 
</g>
<g style="fill:#FFFFFF; fill-opacity:1.0; 
stroke:#FFFFFF; stroke-width:39.3701; stroke-opacity:1; 
stroke-linecap:round; stroke-linejoin:round;">
</g>
<g style="fill:#FFFFFF; fill-opacity:1.0; 
stroke:#FFFFFF; stroke-width:0; stroke-opacity:1; 
stroke-linecap:round; stroke-linejoin:round;">
<circle cx="42126.9" cy="33858.3" r="68.8976" /> 
</g>
<g style="fill:#FFFFFF; fill-opacity:1.0; 
stroke:#FFFFFF; stroke-width:39.3701; stroke-opacity:1; 
stroke-linecap:round; stroke-linejoin:round;">
</g>
<g style="fill:#FFFFFF; fill-opacity:1.0; 
stroke:#FFFFFF; stroke-width:0; stroke-opacity:1; 
stroke-linecap:round; stroke-linejoin:round;">
<circle cx="42126.9" cy="24015.7" r="68.8976" /> 
</g>
<g style="fill:#FFFFFF; fill-opacity:1.0; 
stroke:#FFFFFF; stroke-width:39.3701; stroke-opacity:1; 
stroke-linecap:round; stroke-linejoin:round;">
</g>
<g style="fill:#FFFFFF; fill-opacity:1.0; 
stroke:#FFFFFF; stroke-width:0; stroke-opacity:1; 
stroke-linecap:round; stroke-linejoin:round;">
<circle cx="42126.9" cy="33858.3" r="68.8976" /> 
</g>
<g style="fill:#FFFFFF; fill-opacity:1.0; 
stroke:#FFFFFF; stroke-width:39.3701; stroke-opacity:1; 
stroke-linecap:round; stroke-linejoin:round;">
</g>
<g style="fill:#FFFFFF; fill-opacity:1.0; 
stroke:#FFFFFF; stroke-width:0; stroke-opacity:1; 
stroke-linecap:round; stroke-linejoin:round;">
<circle cx="42126.9" cy="24015.7" r="68.8976" /> 
</g>
<g style="fill:#FFFFFF; fill-opacity:1.0; 
stroke:#FFFFFF; stroke-width:39.3701; stroke-opacity:1; 
stroke-linecap:round; stroke-linejoin:round;">
</g>
<g style="fill:#FFFFFF; fill-opacity:1.0; 
stroke:#FFFFFF; stroke-width:0; stroke-opacity:1; 
stroke-linecap:round; stroke-linejoin:round;">
<circle cx="66930" cy="33858.3" r="68.8976" /> 
</g>
<g style="fill:#FFFFFF; fill-opacity:1.0; 
stroke:#FFFFFF; stroke-width:39.3701; stroke-opacity:1; 
stroke-linecap:round; stroke-linejoin:round;">
</g>
<g style="fill:#FFFFFF; fill-opacity:1.0; 
stroke:#FFFFFF; stroke-width:0; stroke-opacity:1; 
stroke-linecap:round; stroke-linejoin:round;">
<circle cx="66930" cy="24015.7" r="68.8976" /> 
</g>
<g style="fill:#FFFFFF; fill-opacity:1.0; 
stroke:#FFFFFF; stroke-width:39.3701; stroke-opacity:1; 
stroke-linecap:round; stroke-linejoin:round;">
</g>
<g style="fill:#FFFFFF; fill-opacity:1.0; 
stroke:#FFFFFF; stroke-width:0; stroke-opacity:1; 
stroke-linecap:round; stroke-linejoin:round;">
<circle cx="60276.5" cy="30322.8" r="68.8976" /> 
</g>
<g style="fill:#FFFFFF; fill-opacity:1.0; 
stroke:#FFFFFF; stroke-width:39.3701; stroke-opacity:1; 
stroke-linecap:round; stroke-linejoin:round;">
</g>
<g style="fill:#FFFFFF; fill-opacity:1.0; 
stroke:#FFFFFF; stroke-width:0; stroke-opacity:1; 
stroke-linecap:round; stroke-linejoin:round;">
<circle cx="49237.1" cy="30322.8" r="68.8976" /> 
</g>
<g style="fill:#FFFFFF; fill-opacity:1.0; 
stroke:#FFFFFF; stroke-width:39.3701; stroke-opacity:1; 
stroke-linecap:round; stroke-linejoin:round;">
</g>
<g style="fill:#FFFFFF; fill-opacity:1.0; 
stroke:#FFFFFF; stroke-width:0; stroke-opacity:1; 
stroke-linecap:round; stroke-linejoin:round;">
<circle cx="56756.8" cy="30921.3" r="68.8976" /> 
</g>
<g style="fill:#FFFFFF; fill-opacity:1.0; 
stroke:#FFFFFF; stroke-width:39.3701; stroke-opacity:1; 
stroke-linecap:round; stroke-linejoin:round;">
</g>
<g style="fill:#FFFFFF; fill-opacity:1.0; 
stroke:#FFFFFF; stroke-width:0; stroke-opacity:1; 
stroke-linecap:round; stroke-linejoin:round;">
<circle cx="55756.8" cy="30921.3" r="68.8976" /> 
</g>
<g style="fill:#FFFFFF; fill-opacity:1.0; 
stroke:#FFFFFF; stroke-width:39.3701; stroke-opacity:1; 
stroke-linecap:round; stroke-linejoin:round;">
</g>
<g style="fill:#FFFFFF; fill-opacity:1.0; 
stroke:#FFFFFF; stroke-width:0; stroke-opacity:1; 
stroke-linecap:round; stroke-linejoin:round;">
<circle cx="54756.8" cy="30921.3" r="68.8976" /> 
</g>
<g style="fill:#FFFFFF; fill-opacity:1.0; 
stroke:#FFFFFF; stroke-width:39.3701; stroke-opacity:1; 
stroke-linecap:round; stroke-linejoin:round;">
</g>
<g style="fill:#FFFFFF; fill-opacity:1.0; 
stroke:#FFFFFF; stroke-width:0; stroke-opacity:1; 
stroke-linecap:round; stroke-linejoin:round;">
<circle cx="53756.8" cy="30921.3" r="68.8976" /> 
</g>
<g style="fill:#FFFFFF; fill-opacity:1.0; 
stroke:#FFFFFF; stroke-width:39.3701; stroke-opacity:1; 
stroke-linecap:round; stroke-linejoin:round;">
</g>
<g style="fill:#FFFFFF; fill-opacity:1.0; 
stroke:#FFFFFF; stroke-width:0; stroke-opacity:1; 
stroke-linecap:round; stroke-linejoin:round;">
<circle cx="52756.8" cy="30921.3" r="68.8976" /> 
</g>
<g style="fill:#FFFFFF; fill-opacity:1.0; 
stroke:#FFFFFF; stroke-width:39.3701; stroke-opacity:1; 
stroke-linecap:round; stroke-linejoin:round;">
</g>
<g style="fill:#FFFFFF; fill-opacity:1.0; 
stroke:#FFFFFF; stroke-width:0; stroke-opacity:1; 
stroke-linecap:round; stroke-linejoin:round;">
<circle cx="56756.8" cy="29921.3" r="68.8976" /> 
</g>
<g style="fill:#FFFFFF; fill-opacity:1.0; 
stroke:#FFFFFF; stroke-width:39.3701; stroke-opacity:1; 
stroke-linecap:round; stroke-linejoin:round;">
</g>
<g style="fill:#FFFFFF; fill-opacity:1.0; 
stroke:#FFFFFF; stroke-width:0; stroke-opacity:1; 
stroke-linecap:round; stroke-linejoin:round;">
<circle cx="55756.8" cy="29921.3" r="68.8976" /> 
</g>
<g style="fill:#FFFFFF; fill-opacity:1.0; 
stroke:#FFFFFF; stroke-width:39.3701; stroke-opacity:1; 
stroke-linecap:round; stroke-linejoin:round;">
</g>
<g style="fill:#FFFFFF; fill-opacity:1.0; 
stroke:#FFFFFF; stroke-width:0; stroke-opacity:1; 
stroke-linecap:round; stroke-linejoin:round;">
<circle cx="54756.8" cy="29921.3" r="68.8976" /> 
</g>
<g style="fill:#FFFFFF; fill-opacity:1.0; 
stroke:#FFFFFF; stroke-width:39.3701; stroke-opacity:1; 
stroke-linecap:round; stroke-linejoin:round;">
</g>
<g style="fill:#FFFFFF; fill-opacity:1.0; 
stroke:#FFFFFF; stroke-width:0; stroke-opacity:1; 
stroke-linecap:round; stroke-linejoin:round;">
<circle cx="53756.8" cy="29921.3" r="68.8976" /> 
</g>
<g style="fill:#FFFFFF; fill-opacity:1.0; 
stroke:#FFFFFF; stroke-width:39.3701; stroke-opacity:1; 
stroke-linecap:round; stroke-linejoin:round;">
</g>
<g style="fill:#FFFFFF; fill-opacity:1.0; 
stroke:#FFFFFF; stroke-width:0; stroke-opacity:1; 
stroke-linecap:round; stroke-linejoin:round;">
<circle cx="52756.8" cy="29921.3" r="68.8976" /> 
</g>
<g style="fill:#FFFFFF; fill-opacity:1.0; 
stroke:#FFFFFF; stroke-width:39.3701; stroke-opacity:1; 
stroke-linecap:round; stroke-linejoin:round;">
</g>
<g style="fill:#FFFFFF; fill-opacity:1.0; 
stroke:#FFFFFF; stroke-width:0; stroke-opacity:1; 
stroke-linecap:round; stroke-linejoin:round;">
<circle cx="64567.8" cy="24409.4" r="68.8976" /> 
</g>
<g style="fill:#FFFFFF; fill-opacity:1.0; 
stroke:#FFFFFF; stroke-width:39.3701; stroke-opacity:1; 
stroke-linecap:round; stroke-linejoin:round;">
</g>
<g style="fill:#FFFFFF; fill-opacity:1.0; 
stroke:#FFFFFF; stroke-width:0; stroke-opacity:1; 
stroke-linecap:round; stroke-linejoin:round;">
<circle cx="63567.8" cy="24409.4" r="68.8976" /> 
</g>
<g style="fill:#FFFFFF; fill-opacity:1.0; 
stroke:#FFFFFF; stroke-width:39.3701; stroke-opacity:1; 
stroke-linecap:round; stroke-linejoin:round;">
</g>
<g style="fill:#FFFFFF; fill-opacity:1.0; 
stroke:#FFFFFF; stroke-width:0; stroke-opacity:1; 
stroke-linecap:round; stroke-linejoin:round;">
<circle cx="45670.2" cy="24409.4" r="68.8976" /> 
</g>
<g style="fill:#FFFFFF; fill-opacity:1.0; 
stroke:#FFFFFF; stroke-width:39.3701; stroke-opacity:1; 
stroke-linecap:round; stroke-linejoin:round;">
</g>
<g style="fill:#FFFFFF; fill-opacity:1.0; 
stroke:#FFFFFF; stroke-width:0; stroke-opacity:1; 
stroke-linecap:round; stroke-linejoin:round;">
<circle cx="44670.2" cy="24409.4" r="68.8976" /> 
</g>
<g style="fill:#FFFFFF; fill-opacity:1.0; 
stroke:#FFFFFF; stroke-width:39.3701; stroke-opacity:1; 
stroke-linecap:round; stroke-linejoin:round;">
</g>
<g style="fill:#FFFFFF; fill-opacity:1.0; 
stroke:#FFFFFF; stroke-width:0; stroke-opacity:1; 
stroke-linecap:round; stroke-linejoin:round;">
<circle cx="61630.8" cy="24409.4" r="68.8976" /> 
</g>
<g style="fill:#FFFFFF; fill-opacity:1.0; 
stroke:#FFFFFF; stroke-width:39.3701; stroke-opacity:1; 
stroke-linecap:round; stroke-linejoin:round;">
</g>
<g style="fill:#FFFFFF; fill-opacity:1.0; 
stroke:#FFFFFF; stroke-width:0; stroke-opacity:1; 
stroke-linecap:round; stroke-linejoin:round;">
<circle cx="60630.8" cy="24409.4" r="68.8976" /> 
</g>
<g style="fill:#FFFFFF; fill-opacity:1.0; 
stroke:#FFFFFF; stroke-width:39.3701; stroke-opacity:1; 
stroke-linecap:round; stroke-linejoin:round;">
</g>
<g style="fill:#FFFFFF; fill-opacity:1.0; 
stroke:#FFFFFF; stroke-width:0; stroke-opacity:1; 
stroke-linecap:round; stroke-linejoin:round;">
<circle cx="48819.8" cy="24409.4" r="68.8976" /> 
</g>
<g style="fill:#FFFFFF; fill-opacity:1.0; 
stroke:#FFFFFF; stroke-width:39.3701; stroke-opacity:1; 
stroke-linecap:round; stroke-linejoin:round;">
</g>
<g style="fill:#FFFFFF; fill-opacity:1.0; 
stroke:#FFFFFF; stroke-width:0; stroke-opacity:1; 
stroke-linecap:round; stroke-linejoin:round;">
<circle cx="47819.8" cy="24409.4" r="68.8976" /> 
</g>
<g style="fill:#FFFFFF; fill-opacity:1.0; 
stroke:#FFFFFF; stroke-width:39.3701; stroke-opacity:1; 
stroke-linecap:round; stroke-linejoin:round;">
</g>
<g style="fill:#FFFFFF; fill-opacity:1.0; 
stroke:#FFFFFF; stroke-width:0; stroke-opacity:1; 
stroke-linecap:round; stroke-linejoin:round;">
<circle cx="58481.2" cy="24409.4" r="68.8976" /> 
</g>
<g style="fill:#FFFFFF; fill-opacity:1.0; 
stroke:#FFFFFF; stroke-width:39.3701; stroke-opacity:1; 
stroke-linecap:round; stroke-linejoin:round;">
</g>
<g style="fill:#FFFFFF; fill-opacity:1.0; 
stroke:#FFFFFF; stroke-width:0; stroke-opacity:1; 
stroke-linecap:round; stroke-linejoin:round;">
<circle cx="57481.2" cy="24409.4" r="68.8976" /> 
</g>
<g style="fill:#FFFFFF; fill-opacity:1.0; 
stroke:#FFFFFF; stroke-width:39.3701; stroke-opacity:1; 
stroke-linecap:round; stroke-linejoin:round;">
</g>
<g style="fill:#FFFFFF; fill-opacity:1.0; 
stroke:#FFFFFF; stroke-width:0; stroke-opacity:1; 
stroke-linecap:round; stroke-linejoin:round;">
<circle cx="51969.4" cy="24409.4" r="68.8976" /> 
</g>
<g style="fill:#FFFFFF; fill-opacity:1.0; 
stroke:#FFFFFF; stroke-width:39.3701; stroke-opacity:1; 
stroke-linecap:round; stroke-linejoin:round;">
</g>
<g style="fill:#FFFFFF; fill-opacity:1.0; 
stroke:#FFFFFF; stroke-width:0; stroke-opacity:1; 
stroke-linecap:round; stroke-linejoin:round;">
<circle cx="50969.4" cy="24409.4" r="68.8976" /> 
</g>
<g style="fill:#FFFFFF; fill-opacity:1.0; 
stroke:#FFFFFF; stroke-width:39.3701; stroke-opacity:1; 
stroke-linecap:round; stroke-linejoin:round;">
</g>
<g style="fill:#FFFFFF; fill-opacity:1.0; 
stroke:#FFFFFF; stroke-width:0; stroke-opacity:1; 
stroke-linecap:round; stroke-linejoin:round;">
<circle cx="55119" cy="24409.4" r="68.8976" /> 
</g>
<g style="fill:#FFFFFF; fill-opacity:1.0; 
stroke:#FFFFFF; stroke-width:39.3701; stroke-opacity:1; 
stroke-linecap:round; stroke-linejoin:round;">
</g>
<g style="fill:#FFFFFF; fill-opacity:1.0; 
stroke:#FFFFFF; stroke-width:0; stroke-opacity:1; 
stroke-linecap:round; stroke-linejoin:round;">
<circle cx="54119" cy="24409.4" r="68.8976" /> 
</g>
<g style="fill:#FFFFFF; fill-opacity:1.0; 
stroke:#FFFFFF; stroke-width:39.3701; stroke-opacity:1; 
stroke-linecap:round; stroke-linejoin:round;">
</g>
<g style="fill:#000000; fill-opacity:1.0; 
stroke:#000000; stroke-width:39.3701; stroke-opacity:1; 
stroke-linecap:round; stroke-linejoin:round;">
</g> 
</svg>
