<?xml version="1.0" standalone="no"?>
 <!DOCTYPE svg PUBLIC "-//W3C//DTD SVG 1.1//EN" 
 "http://www.w3.org/Graphics/SVG/1.1/DTD/svg11.dtd"> 
<svg
  xmlns:svg="http://www.w3.org/2000/svg"
  xmlns="http://www.w3.org/2000/svg"
  xmlns:xlink="http://www.w3.org/1999/xlink"
  version="1.1"
  width="29.700220cm" height="21.000720cm" viewBox="0 0 116930 82680">
<title>SVG Picture created as breakout-Eco2_User.svg date 2021/06/11 19:54:51 </title>
  <desc>Picture generated by PCBNEW </desc>
<g style="fill:#000000; fill-opacity:1;stroke:#000000; stroke-opacity:1;
stroke-linecap:round; stroke-linejoin:round;"
 transform="translate(0 0) scale(1 1)">
</g>
<g style="fill:#000000; fill-opacity:0.0; 
stroke:#000000; stroke-width:-0.000393701; stroke-opacity:1; 
stroke-linecap:round; stroke-linejoin:round;">
</g>
<g style="fill:#000000; fill-opacity:0.0; 
stroke:#000000; stroke-width:59.0551; stroke-opacity:1; 
stroke-linecap:round; stroke-linejoin:round;">
<text x="67323.7" y="29330.7"
textLength="2176.51" font-size="524.934" lengthAdjust="spacingAndGlyphs"
text-anchor="middle" opacity="0">33 mm</text>
<path d="M68317 28918
L68073 28918
L68204 29068
L68148 29068
L68111 29086
L68092 29105
L68073 29143
L68073 29236
L68092 29274
L68111 29293
L68148 29311
L68261 29311
L68298 29293
L68317 29274
" />
<path d="M67942 28918
L67698 28918
L67829 29068
L67773 29068
L67736 29086
L67717 29105
L67698 29143
L67698 29236
L67717 29274
L67736 29293
L67773 29311
L67886 29311
L67923 29293
L67942 29274
" />
<path d="M67229 29311
L67229 29049
" />
<path d="M67229 29086
L67211 29068
L67173 29049
L67117 29049
L67079 29068
L67061 29105
L67061 29311
" />
<path d="M67061 29105
L67042 29068
L67004 29049
L66948 29049
L66911 29068
L66892 29105
L66892 29311
" />
<path d="M66705 29311
L66705 29049
" />
<path d="M66705 29086
L66686 29068
L66648 29049
L66592 29049
L66555 29068
L66536 29105
L66536 29311
" />
<path d="M66536 29105
L66517 29068
L66480 29049
L66423 29049
L66386 29068
L66367 29105
L66367 29311
" />
<text x="61811.9" y="35236.2"
textLength="2176.51" font-size="524.934" lengthAdjust="spacingAndGlyphs"
text-anchor="middle" opacity="0">71 mm</text>
<path d="M62805 34823
L62543 34823
L62711 35217
" />
<path d="M62186 35217
L62411 35217
" />
<path d="M62299 35217
L62299 34823
L62336 34880
L62374 34917
L62411 34936
" />
<path d="M61718 35217
L61718 34955
" />
<path d="M61718 34992
L61699 34973
L61661 34955
L61605 34955
L61568 34973
L61549 35011
L61549 35217
" />
<path d="M61549 35011
L61530 34973
L61493 34955
L61436 34955
L61399 34973
L61380 35011
L61380 35217
" />
<path d="M61193 35217
L61193 34955
" />
<path d="M61193 34992
L61174 34973
L61136 34955
L61080 34955
L61043 34973
L61024 35011
L61024 35217
" />
<path d="M61024 35011
L61005 34973
L60968 34955
L60912 34955
L60874 34973
L60855 35011
L60855 35217
" />
<path d="M40552 22440
L68504 22440
" />
<path d="M40552 35433
L40552 22440
" />
<path d="M68504 35433
L40552 35433
" />
<path d="M68504 22440
L68504 35433
" />
<g >
</g>
<g >
</g>
<g >
</g>
<g >
</g>
<g >
</g>
<g >
</g>
<g >
</g>
<g >
</g>
<g >
</g>
<g >
</g>
<g >
</g>
<g >
</g>
<g >
</g>
</g> 
</svg>
