<?xml version="1.0" standalone="no"?>
 <!DOCTYPE svg PUBLIC "-//W3C//DTD SVG 1.1//EN" 
 "http://www.w3.org/Graphics/SVG/1.1/DTD/svg11.dtd"> 
<svg
  xmlns:svg="http://www.w3.org/2000/svg"
  xmlns="http://www.w3.org/2000/svg"
  xmlns:xlink="http://www.w3.org/1999/xlink"
  version="1.1"
  width="29.700220cm" height="21.000720cm" viewBox="0 0 116930 82680">
<title>SVG Picture created as splitter-Eco2_User.svg date 2021/04/25 21:33:40 </title>
  <desc>Picture generated by PCBNEW </desc>
<g style="fill:#000000; fill-opacity:1;stroke:#000000; stroke-opacity:1;
stroke-linecap:round; stroke-linejoin:round;"
 transform="translate(0 0) scale(1 1)">
</g>
<g style="fill:#000000; fill-opacity:0.0; 
stroke:#000000; stroke-width:-0.000393701; stroke-opacity:1; 
stroke-linecap:round; stroke-linejoin:round;">
</g>
<g style="fill:#000000; fill-opacity:0.0; 
stroke:#000000; stroke-width:59.0551; stroke-opacity:1; 
stroke-linecap:round; stroke-linejoin:round;">
<circle cx="54725.3" cy="31496.1" r="556.777" /> 
</g>
<g style="fill:#000000; fill-opacity:0.0; 
stroke:#000000; stroke-width:98.4252; stroke-opacity:1; 
stroke-linecap:round; stroke-linejoin:round;">
<path d="M61418 51968
L62205 51968
" />
<path d="M61811 51574
L61811 52362
" />
</g>
<g style="fill:#000000; fill-opacity:0.0; 
stroke:#000000; stroke-width:59.0551; stroke-opacity:1; 
stroke-linecap:round; stroke-linejoin:round;">
<text x="53937.9" y="16732.3"
textLength="1051.65" font-size="524.934" lengthAdjust="spacingAndGlyphs"
text-anchor="middle" opacity="0">RPI</text>
<path d="M54106 16713
L54237 16526
" />
<path d="M54331 16713
L54331 16319
L54181 16319
L54144 16338
L54125 16357
L54106 16394
L54106 16451
L54125 16488
L54144 16507
L54181 16526
L54331 16526
" />
<path d="M53937 16713
L53937 16319
L53787 16319
L53750 16338
L53731 16357
L53712 16394
L53712 16451
L53731 16488
L53750 16507
L53787 16526
L53937 16526
" />
<path d="M53544 16713
L53544 16319
" />
<text x="51182" y="34448.8"
textLength="1801.56" font-size="524.934" lengthAdjust="spacingAndGlyphs"
text-anchor="middle" opacity="0">SIREN</text>
<path d="M51969 34411
L51913 34430
L51819 34430
L51781 34411
L51763 34392
L51744 34355
L51744 34317
L51763 34280
L51781 34261
L51819 34242
L51894 34223
L51931 34205
L51950 34186
L51969 34148
L51969 34111
L51950 34073
L51931 34055
L51894 34036
L51800 34036
L51744 34055
" />
<path d="M51575 34430
L51575 34036
" />
<path d="M51163 34430
L51294 34242
" />
<path d="M51388 34430
L51388 34036
L51238 34036
L51200 34055
L51181 34073
L51163 34111
L51163 34167
L51181 34205
L51200 34223
L51238 34242
L51388 34242
" />
<path d="M50994 34223
L50863 34223
" />
<path d="M50807 34430
L50994 34430
L50994 34036
L50807 34036
" />
<path d="M50638 34430
L50638 34036
L50413 34430
L50413 34036
" />
<text x="48819.8" y="38779.5"
textLength="1576.58" font-size="524.934" lengthAdjust="spacingAndGlyphs"
text-anchor="middle" opacity="0">SEG3</text>
<path d="M49494 38742
L49438 38760
L49344 38760
L49307 38742
L49288 38723
L49269 38685
L49269 38648
L49288 38610
L49307 38592
L49344 38573
L49419 38554
L49457 38535
L49475 38517
L49494 38479
L49494 38442
L49475 38404
L49457 38385
L49419 38367
L49325 38367
L49269 38385
" />
<path d="M49100 38554
L48969 38554
" />
<path d="M48913 38760
L49100 38760
L49100 38367
L48913 38367
" />
<path d="M48538 38385
L48576 38367
L48632 38367
L48688 38385
L48726 38423
L48744 38460
L48763 38535
L48763 38592
L48744 38667
L48726 38704
L48688 38742
L48632 38760
L48594 38760
L48538 38742
L48519 38723
L48519 38592
L48594 38592
" />
<path d="M48388 38367
L48144 38367
L48276 38517
L48219 38517
L48182 38535
L48163 38554
L48144 38592
L48144 38685
L48163 38723
L48182 38742
L48219 38760
L48332 38760
L48369 38742
L48388 38723
" />
<text x="48819.8" y="45078.7"
textLength="1576.58" font-size="524.934" lengthAdjust="spacingAndGlyphs"
text-anchor="middle" opacity="0">SEG2</text>
<path d="M49494 45041
L49438 45059
L49344 45059
L49307 45041
L49288 45022
L49269 44985
L49269 44947
L49288 44910
L49307 44891
L49344 44872
L49419 44853
L49457 44835
L49475 44816
L49494 44778
L49494 44741
L49475 44703
L49457 44685
L49419 44666
L49325 44666
L49269 44685
" />
<path d="M49100 44853
L48969 44853
" />
<path d="M48913 45059
L49100 45059
L49100 44666
L48913 44666
" />
<path d="M48538 44685
L48576 44666
L48632 44666
L48688 44685
L48726 44722
L48744 44760
L48763 44835
L48763 44891
L48744 44966
L48726 45003
L48688 45041
L48632 45059
L48594 45059
L48538 45041
L48519 45022
L48519 44891
L48594 44891
" />
<path d="M48369 44703
L48351 44685
L48313 44666
L48219 44666
L48182 44685
L48163 44703
L48144 44741
L48144 44778
L48163 44835
L48388 45059
L48144 45059
" />
<text x="48819.8" y="50984.3"
textLength="1576.58" font-size="524.934" lengthAdjust="spacingAndGlyphs"
text-anchor="middle" opacity="0">SEG1</text>
<path d="M49494 50946
L49438 50965
L49344 50965
L49307 50946
L49288 50928
L49269 50890
L49269 50853
L49288 50815
L49307 50796
L49344 50778
L49419 50759
L49457 50740
L49475 50721
L49494 50684
L49494 50646
L49475 50609
L49457 50590
L49419 50571
L49325 50571
L49269 50590
" />
<path d="M49100 50759
L48969 50759
" />
<path d="M48913 50965
L49100 50965
L49100 50571
L48913 50571
" />
<path d="M48538 50590
L48576 50571
L48632 50571
L48688 50590
L48726 50628
L48744 50665
L48763 50740
L48763 50796
L48744 50871
L48726 50909
L48688 50946
L48632 50965
L48594 50965
L48538 50946
L48519 50928
L48519 50796
L48594 50796
" />
<path d="M48144 50965
L48369 50965
" />
<path d="M48257 50965
L48257 50571
L48294 50628
L48332 50665
L48369 50684
" />
<circle cx="64961.5" cy="53149.6" r="556.777" /> 
<circle cx="68898.5" cy="27559.1" r="556.777" /> 
<path d="M44095 54330
L70473 54330
" />
<text x="69292.2" y="28937"
textLength="2251.5" font-size="524.934" lengthAdjust="spacingAndGlyphs"
text-anchor="middle" opacity="0">100mm</text>
<path d="M70079 28918
L70304 28918
" />
<path d="M70192 28918
L70192 28524
L70229 28580
L70267 28618
L70304 28637
" />
<path d="M69835 28524
L69798 28524
L69760 28543
L69742 28562
L69723 28599
L69704 28674
L69704 28768
L69723 28843
L69742 28880
L69760 28899
L69798 28918
L69835 28918
L69873 28899
L69892 28880
L69910 28843
L69929 28768
L69929 28674
L69910 28599
L69892 28562
L69873 28543
L69835 28524
" />
<path d="M69460 28524
L69423 28524
L69385 28543
L69367 28562
L69348 28599
L69329 28674
L69329 28768
L69348 28843
L69367 28880
L69385 28899
L69423 28918
L69460 28918
L69498 28899
L69517 28880
L69535 28843
L69554 28768
L69554 28674
L69535 28599
L69517 28562
L69498 28543
L69460 28524
" />
<path d="M69160 28918
L69160 28655
" />
<path d="M69160 28693
L69142 28674
L69104 28655
L69048 28655
L69010 28674
L68992 28712
L68992 28918
" />
<path d="M68992 28712
L68973 28674
L68935 28655
L68879 28655
L68842 28674
L68823 28712
L68823 28918
" />
<path d="M68636 28918
L68636 28655
" />
<path d="M68636 28693
L68617 28674
L68579 28655
L68523 28655
L68486 28674
L68467 28712
L68467 28918
" />
<path d="M68467 28712
L68448 28674
L68411 28655
L68354 28655
L68317 28674
L68298 28712
L68298 28918
" />
<text x="46851.3" y="15551.2"
textLength="1876.55" font-size="524.934" lengthAdjust="spacingAndGlyphs"
text-anchor="middle" opacity="0">67mm</text>
<path d="M47488 15138
L47563 15138
L47601 15157
L47619 15176
L47657 15232
L47676 15307
L47676 15457
L47657 15494
L47638 15513
L47601 15532
L47526 15532
L47488 15513
L47469 15494
L47451 15457
L47451 15363
L47469 15326
L47488 15307
L47526 15288
L47601 15288
L47638 15307
L47657 15326
L47676 15363
" />
<path d="M47319 15138
L47057 15138
L47226 15532
" />
<path d="M46907 15532
L46907 15269
" />
<path d="M46907 15307
L46888 15288
L46851 15269
L46795 15269
L46757 15288
L46738 15326
L46738 15532
" />
<path d="M46738 15326
L46720 15288
L46682 15269
L46626 15269
L46588 15288
L46570 15326
L46570 15532
" />
<path d="M46382 15532
L46382 15269
" />
<path d="M46382 15307
L46363 15288
L46326 15269
L46270 15269
L46232 15288
L46213 15326
L46213 15532
" />
<path d="M46213 15326
L46195 15288
L46157 15269
L46101 15269
L46063 15288
L46045 15326
L46045 15532
" />
<path d="M70473 54330
L70473 14960
" />
<path d="M44095 14960
L70473 14960
" />
<path d="M44095 54330
L44095 14960
" />
<g >
</g>
<g >
</g>
<g >
</g>
<g >
</g>
<g >
</g>
<g >
</g>
<g >
</g>
<g >
</g>
<g >
</g>
<g >
</g>
<g >
</g>
<g >
</g>
<g >
</g>
<g >
</g>
<g >
</g>
<g >
</g>
<g >
</g>
<g >
</g>
<g >
</g>
</g> 
</svg>
