<?xml version="1.0" standalone="no"?>
 <!DOCTYPE svg PUBLIC "-//W3C//DTD SVG 1.1//EN" 
 "http://www.w3.org/Graphics/SVG/1.1/DTD/svg11.dtd"> 
<svg
  xmlns:svg="http://www.w3.org/2000/svg"
  xmlns="http://www.w3.org/2000/svg"
  xmlns:xlink="http://www.w3.org/1999/xlink"
  version="1.1"
  width="29.700220cm" height="21.000720cm" viewBox="0 0 116930 82680">
<title>SVG Picture created as splitter-Eco2_User.svg date 2021/06/10 12:35:16 </title>
  <desc>Picture generated by PCBNEW </desc>
<g style="fill:#000000; fill-opacity:1;stroke:#000000; stroke-opacity:1;
stroke-linecap:round; stroke-linejoin:round;"
 transform="translate(0 0) scale(1 1)">
</g>
<g style="fill:#000000; fill-opacity:0.0; 
stroke:#000000; stroke-width:-0.000393701; stroke-opacity:1; 
stroke-linecap:round; stroke-linejoin:round;">
</g>
<g style="fill:#000000; fill-opacity:0.0; 
stroke:#000000; stroke-width:78.7402; stroke-opacity:1; 
stroke-linecap:round; stroke-linejoin:round;">
<path d="M74725 50511
L74725 27283
" />
<path d="M74725.3 50511.8 A1181.1 1181.1 0.0 0 0 75906.4 51692.9" />
<path d="M95591 26102
L75906 26102
" />
<path d="M95591.4 51692.9 A1181.1 1181.1 0.0 0 0 96772.5 50511.8" />
<path d="M96772.5 27283.5 A1181.1 1181.1 0.0 0 0 95591.4 26102.4" />
<path d="M95591 51692
L75906 51692
" />
<path d="M75906.4 26102.4 A1181.1 1181.1 0.0 0 0 74725.3 27283.5" />
<path d="M96772 27283
L96772 50511
" />
</g>
<g style="fill:#000000; fill-opacity:0.0; 
stroke:#000000; stroke-width:59.0551; stroke-opacity:1; 
stroke-linecap:round; stroke-linejoin:round;">
<g transform="rotate(-180 83071.7 74015.7)">
<text x="83071.7" y="74212.6"
textLength="1051.65" font-size="524.934" lengthAdjust="spacingAndGlyphs"
text-anchor="middle" opacity="0">RPI</text>
</g>
<path d="M82903 73837
L82771 74025
" />
<path d="M82678 73837
L82678 74231
L82828 74231
L82865 74212
L82884 74193
L82903 74156
L82903 74100
L82884 74062
L82865 74043
L82828 74025
L82678 74025
" />
<path d="M83071 73837
L83071 74231
L83221 74231
L83259 74212
L83277 74193
L83296 74156
L83296 74100
L83277 74062
L83259 74043
L83221 74025
L83071 74025
" />
<path d="M83465 73837
L83465 74231
" />
<text x="95670.2" y="54527.6"
textLength="1801.56" font-size="524.934" lengthAdjust="spacingAndGlyphs"
text-anchor="middle" opacity="0">SIREN</text>
<path d="M96457 54490
L96401 54508
L96307 54508
L96270 54490
L96251 54471
L96232 54433
L96232 54396
L96251 54358
L96270 54340
L96307 54321
L96382 54302
L96420 54283
L96438 54265
L96457 54227
L96457 54190
L96438 54152
L96420 54133
L96382 54115
L96288 54115
L96232 54133
" />
<path d="M96063 54508
L96063 54115
" />
<path d="M95651 54508
L95782 54321
" />
<path d="M95876 54508
L95876 54115
L95726 54115
L95688 54133
L95670 54152
L95651 54190
L95651 54246
L95670 54283
L95688 54302
L95726 54321
L95876 54321
" />
<path d="M95482 54302
L95351 54302
" />
<path d="M95295 54508
L95482 54508
L95482 54115
L95295 54115
" />
<path d="M95126 54508
L95126 54115
L94901 54508
L94901 54115
" />
<path d="M66142 75590
L98032 75590
" />
<text x="67717.4" y="64370.1"
textLength="2551.46" font-size="524.934" lengthAdjust="spacingAndGlyphs"
text-anchor="middle" opacity="0">167 mm</text>
<path d="M68654 64351
L68879 64351
" />
<path d="M68767 64351
L68767 63957
L68804 64013
L68842 64051
L68879 64070
" />
<path d="M68317 63957
L68392 63957
L68429 63976
L68448 63995
L68486 64051
L68504 64126
L68504 64276
L68486 64313
L68467 64332
L68429 64351
L68354 64351
L68317 64332
L68298 64313
L68279 64276
L68279 64182
L68298 64145
L68317 64126
L68354 64107
L68429 64107
L68467 64126
L68486 64145
L68504 64182
" />
<path d="M68148 63957
L67886 63957
L68054 64351
" />
<path d="M67436 64351
L67436 64088
" />
<path d="M67436 64126
L67417 64107
L67379 64088
L67323 64088
L67286 64107
L67267 64145
L67267 64351
" />
<path d="M67267 64145
L67248 64107
L67211 64088
L67154 64088
L67117 64107
L67098 64145
L67098 64351
" />
<path d="M66911 64351
L66911 64088
" />
<path d="M66911 64126
L66892 64107
L66855 64088
L66798 64088
L66761 64107
L66742 64145
L66742 64351
" />
<path d="M66742 64145
L66723 64107
L66686 64088
L66630 64088
L66592 64107
L66573 64145
L66573 64351
" />
<text x="90158.3" y="75393.7"
textLength="2176.51" font-size="524.934" lengthAdjust="spacingAndGlyphs"
text-anchor="middle" opacity="0">81 mm</text>
<path d="M91058 75149
L91095 75131
L91114 75112
L91133 75074
L91133 75056
L91114 75018
L91095 75000
L91058 74981
L90983 74981
L90945 75000
L90927 75018
L90908 75056
L90908 75074
L90927 75112
L90945 75131
L90983 75149
L91058 75149
L91095 75168
L91114 75187
L91133 75224
L91133 75299
L91114 75337
L91095 75356
L91058 75374
L90983 75374
L90945 75356
L90927 75337
L90908 75299
L90908 75224
L90927 75187
L90945 75168
L90983 75149
" />
<path d="M90533 75374
L90758 75374
" />
<path d="M90645 75374
L90645 74981
L90683 75037
L90720 75074
L90758 75093
" />
<path d="M90064 75374
L90064 75112
" />
<path d="M90064 75149
L90045 75131
L90008 75112
L89952 75112
L89914 75131
L89895 75168
L89895 75374
" />
<path d="M89895 75168
L89877 75131
L89839 75112
L89783 75112
L89745 75131
L89727 75168
L89727 75374
" />
<path d="M89539 75374
L89539 75112
" />
<path d="M89539 75149
L89520 75131
L89483 75112
L89427 75112
L89389 75131
L89370 75168
L89370 75374
" />
<path d="M89370 75168
L89352 75131
L89314 75112
L89258 75112
L89220 75131
L89202 75168
L89202 75374
" />
<path d="M98032 75590
L98032 9842
" />
<path d="M66142 9842
L98032 9842
" />
<path d="M66142 75590
L66142 9842
" />
<g >
</g>
<g >
</g>
<g >
</g>
<g >
</g>
<g >
</g>
<g >
</g>
<g >
</g>
<g >
</g>
<g >
</g>
<g >
</g>
<g >
</g>
<g >
</g>
<g >
</g>
<g >
</g>
<g >
</g>
<g >
</g>
<g >
</g>
<g >
</g>
<g >
</g>
<g >
</g>
<g >
</g>
<g >
</g>
<g >
</g>
<g >
</g>
<g >
</g>
<g >
</g>
<g >
</g>
<g >
</g>
<g >
</g>
<g >
</g>
</g> 
</svg>
