<?xml version="1.0" standalone="no"?>
 <!DOCTYPE svg PUBLIC "-//W3C//DTD SVG 1.1//EN" 
 "http://www.w3.org/Graphics/SVG/1.1/DTD/svg11.dtd"> 
<svg
  xmlns:svg="http://www.w3.org/2000/svg"
  xmlns="http://www.w3.org/2000/svg"
  xmlns:xlink="http://www.w3.org/1999/xlink"
  version="1.1"
  width="29.700220cm" height="21.000720cm" viewBox="0 0 116930 82680">
<title>SVG Picture created as splitter-Eco2_User.svg date 2020/11/30 00:06:33 </title>
  <desc>Picture generated by PCBNEW </desc>
<g style="fill:#000000; fill-opacity:1;stroke:#000000; stroke-opacity:1;
stroke-linecap:round; stroke-linejoin:round;"
 transform="translate(0 0) scale(1 1)">
</g>
<g style="fill:#000000; fill-opacity:0.0; 
stroke:#000000; stroke-width:-0.000393701; stroke-opacity:1; 
stroke-linecap:round; stroke-linejoin:round;">
</g>
<g style="fill:#000000; fill-opacity:0.0; 
stroke:#000000; stroke-width:98.4252; stroke-opacity:1; 
stroke-linecap:round; stroke-linejoin:round;">
<path d="M55511 51968
L54724 51968
" />
<path d="M55118 51574
L55118 52362
" />
</g>
<g style="fill:#000000; fill-opacity:0.0; 
stroke:#000000; stroke-width:59.0551; stroke-opacity:1; 
stroke-linecap:round; stroke-linejoin:round;">
<circle cx="53937" cy="20472.4" r="556.777" /> 
<circle cx="62992.1" cy="16141.7" r="556.777" /> 
<text x="68110.2" y="19094.5"
textLength="1051.65" font-size="524.934" lengthAdjust="spacingAndGlyphs"
text-anchor="middle" opacity="0">RPI</text>
<path d="M67941 19075
L67810 18888
" />
<path d="M67716 19075
L67716 18682
L67866 18682
L67904 18700
L67922 18719
L67941 18757
L67941 18813
L67922 18850
L67904 18869
L67866 18888
L67716 18888
" />
<path d="M68110 19075
L68110 18682
L68260 18682
L68297 18700
L68316 18719
L68335 18757
L68335 18813
L68316 18850
L68297 18869
L68260 18888
L68110 18888
" />
<path d="M68503 19075
L68503 18682
" />
<text x="65748" y="34448.8"
textLength="1801.56" font-size="524.934" lengthAdjust="spacingAndGlyphs"
text-anchor="middle" opacity="0">SIREN</text>
<path d="M64960 34411
L65016 34430
L65110 34430
L65148 34411
L65166 34392
L65185 34355
L65185 34317
L65166 34280
L65148 34261
L65110 34242
L65035 34223
L64998 34205
L64979 34186
L64960 34148
L64960 34111
L64979 34073
L64998 34055
L65035 34036
L65129 34036
L65185 34055
" />
<path d="M65354 34430
L65354 34036
" />
<path d="M65766 34430
L65635 34242
" />
<path d="M65541 34430
L65541 34036
L65691 34036
L65729 34055
L65748 34073
L65766 34111
L65766 34167
L65748 34205
L65729 34223
L65691 34242
L65541 34242
" />
<path d="M65935 34223
L66066 34223
" />
<path d="M66122 34430
L65935 34430
L65935 34036
L66122 34036
" />
<path d="M66291 34430
L66291 34036
L66516 34430
L66516 34036
" />
<text x="68110.2" y="38779.5"
textLength="1576.58" font-size="524.934" lengthAdjust="spacingAndGlyphs"
text-anchor="middle" opacity="0">SEG3</text>
<path d="M67435 38742
L67491 38760
L67585 38760
L67622 38742
L67641 38723
L67660 38685
L67660 38648
L67641 38610
L67622 38592
L67585 38573
L67510 38554
L67472 38535
L67454 38517
L67435 38479
L67435 38442
L67454 38404
L67472 38385
L67510 38367
L67604 38367
L67660 38385
" />
<path d="M67829 38554
L67960 38554
" />
<path d="M68016 38760
L67829 38760
L67829 38367
L68016 38367
" />
<path d="M68391 38385
L68353 38367
L68297 38367
L68241 38385
L68203 38423
L68185 38460
L68166 38535
L68166 38592
L68185 38667
L68203 38704
L68241 38742
L68297 38760
L68335 38760
L68391 38742
L68410 38723
L68410 38592
L68335 38592
" />
<path d="M68541 38367
L68785 38367
L68653 38517
L68710 38517
L68747 38535
L68766 38554
L68785 38592
L68785 38685
L68766 38723
L68747 38742
L68710 38760
L68597 38760
L68560 38742
L68541 38723
" />
<text x="68110.2" y="45078.7"
textLength="1576.58" font-size="524.934" lengthAdjust="spacingAndGlyphs"
text-anchor="middle" opacity="0">SEG2</text>
<path d="M67435 45041
L67491 45059
L67585 45059
L67622 45041
L67641 45022
L67660 44985
L67660 44947
L67641 44910
L67622 44891
L67585 44872
L67510 44853
L67472 44835
L67454 44816
L67435 44778
L67435 44741
L67454 44703
L67472 44685
L67510 44666
L67604 44666
L67660 44685
" />
<path d="M67829 44853
L67960 44853
" />
<path d="M68016 45059
L67829 45059
L67829 44666
L68016 44666
" />
<path d="M68391 44685
L68353 44666
L68297 44666
L68241 44685
L68203 44722
L68185 44760
L68166 44835
L68166 44891
L68185 44966
L68203 45003
L68241 45041
L68297 45059
L68335 45059
L68391 45041
L68410 45022
L68410 44891
L68335 44891
" />
<path d="M68560 44703
L68578 44685
L68616 44666
L68710 44666
L68747 44685
L68766 44703
L68785 44741
L68785 44778
L68766 44835
L68541 45059
L68785 45059
" />
<text x="68110.2" y="50984.3"
textLength="1576.58" font-size="524.934" lengthAdjust="spacingAndGlyphs"
text-anchor="middle" opacity="0">SEG1</text>
<path d="M67435 50946
L67491 50965
L67585 50965
L67622 50946
L67641 50928
L67660 50890
L67660 50853
L67641 50815
L67622 50796
L67585 50778
L67510 50759
L67472 50740
L67454 50721
L67435 50684
L67435 50646
L67454 50609
L67472 50590
L67510 50571
L67604 50571
L67660 50590
" />
<path d="M67829 50759
L67960 50759
" />
<path d="M68016 50965
L67829 50965
L67829 50571
L68016 50571
" />
<path d="M68391 50590
L68353 50571
L68297 50571
L68241 50590
L68203 50628
L68185 50665
L68166 50740
L68166 50796
L68185 50871
L68203 50909
L68241 50946
L68297 50965
L68335 50965
L68391 50946
L68410 50928
L68410 50796
L68335 50796
" />
<path d="M68785 50965
L68560 50965
" />
<path d="M68672 50965
L68672 50571
L68635 50628
L68597 50665
L68560 50684
" />
<circle cx="51968.5" cy="53149.6" r="556.777" /> 
<circle cx="68897.6" cy="53149.6" r="556.777" /> 
<circle cx="68897.6" cy="47637.8" r="556.777" /> 
<circle cx="68897.6" cy="41732.3" r="556.777" /> 
<circle cx="68897.6" cy="35433.1" r="556.777" /> 
<circle cx="48031.5" cy="27559.1" r="556.777" /> 
<path d="M70472 54330
L46456 54330
" />
<text x="68897.6" y="16338.6"
textLength="2251.5" font-size="524.934" lengthAdjust="spacingAndGlyphs"
text-anchor="middle" opacity="0">100mm</text>
<path d="M68110 16319
L67885 16319
" />
<path d="M67997 16319
L67997 15926
L67960 15982
L67922 16019
L67885 16038
" />
<path d="M68353 15926
L68391 15926
L68428 15944
L68447 15963
L68466 16001
L68485 16076
L68485 16169
L68466 16244
L68447 16282
L68428 16301
L68391 16319
L68353 16319
L68316 16301
L68297 16282
L68278 16244
L68260 16169
L68260 16076
L68278 16001
L68297 15963
L68316 15944
L68353 15926
" />
<path d="M68728 15926
L68766 15926
L68803 15944
L68822 15963
L68841 16001
L68860 16076
L68860 16169
L68841 16244
L68822 16282
L68803 16301
L68766 16319
L68728 16319
L68691 16301
L68672 16282
L68653 16244
L68635 16169
L68635 16076
L68653 16001
L68672 15963
L68691 15944
L68728 15926
" />
<path d="M69028 16319
L69028 16057
" />
<path d="M69028 16094
L69047 16076
L69085 16057
L69141 16057
L69178 16076
L69197 16113
L69197 16319
" />
<path d="M69197 16113
L69216 16076
L69253 16057
L69310 16057
L69347 16076
L69366 16113
L69366 16319
" />
<path d="M69553 16319
L69553 16057
" />
<path d="M69553 16094
L69572 16076
L69610 16057
L69666 16057
L69703 16076
L69722 16113
L69722 16319
" />
<path d="M69722 16113
L69741 16076
L69778 16057
L69835 16057
L69872 16076
L69891 16113
L69891 16319
" />
<text x="58661.4" y="15551.2"
textLength="1876.55" font-size="524.934" lengthAdjust="spacingAndGlyphs"
text-anchor="middle" opacity="0">61mm</text>
<path d="M58023 15138
L57949 15138
L57911 15157
L57892 15176
L57855 15232
L57836 15307
L57836 15457
L57855 15494
L57874 15513
L57911 15532
L57986 15532
L58023 15513
L58042 15494
L58061 15457
L58061 15363
L58042 15326
L58023 15307
L57986 15288
L57911 15288
L57874 15307
L57855 15326
L57836 15363
" />
<path d="M58436 15532
L58211 15532
" />
<path d="M58323 15532
L58323 15138
L58286 15194
L58248 15232
L58211 15251
" />
<path d="M58605 15532
L58605 15269
" />
<path d="M58605 15307
L58623 15288
L58661 15269
L58717 15269
L58755 15288
L58773 15326
L58773 15532
" />
<path d="M58773 15326
L58792 15288
L58830 15269
L58886 15269
L58923 15288
L58942 15326
L58942 15532
" />
<path d="M59130 15532
L59130 15269
" />
<path d="M59130 15307
L59148 15288
L59186 15269
L59242 15269
L59280 15288
L59298 15326
L59298 15532
" />
<path d="M59298 15326
L59317 15288
L59355 15269
L59411 15269
L59448 15288
L59467 15326
L59467 15532
" />
<path d="M46456 54330
L46456 14960
" />
<path d="M70472 14960
L46456 14960
" />
<path d="M70472 54330
L70472 14960
" />
<g >
</g>
<g >
</g>
<g >
</g>
<g >
</g>
<g >
</g>
<g >
</g>
<g >
</g>
<g >
</g>
<g >
</g>
<g >
</g>
<g >
</g>
<g >
</g>
<g >
</g>
<g >
</g>
<g >
</g>
<g >
</g>
<g >
</g>
<g >
</g>
<g >
</g>
<g >
</g>
<g >
</g>
<g >
</g>
</g> 
</svg>
