<?xml version="1.0" standalone="no"?>
 <!DOCTYPE svg PUBLIC "-//W3C//DTD SVG 1.1//EN" 
 "http://www.w3.org/Graphics/SVG/1.1/DTD/svg11.dtd"> 
<svg
  xmlns:svg="http://www.w3.org/2000/svg"
  xmlns="http://www.w3.org/2000/svg"
  xmlns:xlink="http://www.w3.org/1999/xlink"
  version="1.1"
  width="29.700220cm" height="21.000720cm" viewBox="0 0 116930 82680">
<title>SVG Picture created as splitter-Eco2_User.svg date 2021/03/03 19:24:57 </title>
  <desc>Picture generated by PCBNEW </desc>
<g style="fill:#000000; fill-opacity:1;stroke:#000000; stroke-opacity:1;
stroke-linecap:round; stroke-linejoin:round;"
 transform="translate(0 0) scale(1 1)">
</g>
<g style="fill:#000000; fill-opacity:0.0; 
stroke:#000000; stroke-width:-0.000393701; stroke-opacity:1; 
stroke-linecap:round; stroke-linejoin:round;">
</g>
<g style="fill:#000000; fill-opacity:0.0; 
stroke:#000000; stroke-width:98.4252; stroke-opacity:1; 
stroke-linecap:round; stroke-linejoin:round;">
<path d="M61418 51968
L62205 51968
" />
<path d="M61811 51574
L61811 52362
" />
</g>
<g style="fill:#000000; fill-opacity:0.0; 
stroke:#000000; stroke-width:59.0551; stroke-opacity:1; 
stroke-linecap:round; stroke-linejoin:round;">
<circle cx="62993" cy="20472.4" r="556.777" /> 
<circle cx="53937.9" cy="16141.7" r="556.777" /> 
<text x="48819.8" y="19094.5"
textLength="1051.65" font-size="524.934" lengthAdjust="spacingAndGlyphs"
text-anchor="middle" opacity="0">RPI</text>
<path d="M48988 19075
L49119 18888
" />
<path d="M49213 19075
L49213 18682
L49063 18682
L49025 18700
L49007 18719
L48988 18757
L48988 18813
L49007 18850
L49025 18869
L49063 18888
L49213 18888
" />
<path d="M48819 19075
L48819 18682
L48669 18682
L48632 18700
L48613 18719
L48594 18757
L48594 18813
L48613 18850
L48632 18869
L48669 18888
L48819 18888
" />
<path d="M48426 19075
L48426 18682
" />
<text x="51182" y="34448.8"
textLength="1801.56" font-size="524.934" lengthAdjust="spacingAndGlyphs"
text-anchor="middle" opacity="0">SIREN</text>
<path d="M51969 34411
L51913 34430
L51819 34430
L51781 34411
L51763 34392
L51744 34355
L51744 34317
L51763 34280
L51781 34261
L51819 34242
L51894 34223
L51931 34205
L51950 34186
L51969 34148
L51969 34111
L51950 34073
L51931 34055
L51894 34036
L51800 34036
L51744 34055
" />
<path d="M51575 34430
L51575 34036
" />
<path d="M51163 34430
L51294 34242
" />
<path d="M51388 34430
L51388 34036
L51238 34036
L51200 34055
L51181 34073
L51163 34111
L51163 34167
L51181 34205
L51200 34223
L51238 34242
L51388 34242
" />
<path d="M50994 34223
L50863 34223
" />
<path d="M50807 34430
L50994 34430
L50994 34036
L50807 34036
" />
<path d="M50638 34430
L50638 34036
L50413 34430
L50413 34036
" />
<text x="48819.8" y="38779.5"
textLength="1576.58" font-size="524.934" lengthAdjust="spacingAndGlyphs"
text-anchor="middle" opacity="0">SEG3</text>
<path d="M49494 38742
L49438 38760
L49344 38760
L49307 38742
L49288 38723
L49269 38685
L49269 38648
L49288 38610
L49307 38592
L49344 38573
L49419 38554
L49457 38535
L49475 38517
L49494 38479
L49494 38442
L49475 38404
L49457 38385
L49419 38367
L49325 38367
L49269 38385
" />
<path d="M49100 38554
L48969 38554
" />
<path d="M48913 38760
L49100 38760
L49100 38367
L48913 38367
" />
<path d="M48538 38385
L48576 38367
L48632 38367
L48688 38385
L48726 38423
L48744 38460
L48763 38535
L48763 38592
L48744 38667
L48726 38704
L48688 38742
L48632 38760
L48594 38760
L48538 38742
L48519 38723
L48519 38592
L48594 38592
" />
<path d="M48388 38367
L48144 38367
L48276 38517
L48219 38517
L48182 38535
L48163 38554
L48144 38592
L48144 38685
L48163 38723
L48182 38742
L48219 38760
L48332 38760
L48369 38742
L48388 38723
" />
<text x="48819.8" y="45078.7"
textLength="1576.58" font-size="524.934" lengthAdjust="spacingAndGlyphs"
text-anchor="middle" opacity="0">SEG2</text>
<path d="M49494 45041
L49438 45059
L49344 45059
L49307 45041
L49288 45022
L49269 44985
L49269 44947
L49288 44910
L49307 44891
L49344 44872
L49419 44853
L49457 44835
L49475 44816
L49494 44778
L49494 44741
L49475 44703
L49457 44685
L49419 44666
L49325 44666
L49269 44685
" />
<path d="M49100 44853
L48969 44853
" />
<path d="M48913 45059
L49100 45059
L49100 44666
L48913 44666
" />
<path d="M48538 44685
L48576 44666
L48632 44666
L48688 44685
L48726 44722
L48744 44760
L48763 44835
L48763 44891
L48744 44966
L48726 45003
L48688 45041
L48632 45059
L48594 45059
L48538 45041
L48519 45022
L48519 44891
L48594 44891
" />
<path d="M48369 44703
L48351 44685
L48313 44666
L48219 44666
L48182 44685
L48163 44703
L48144 44741
L48144 44778
L48163 44835
L48388 45059
L48144 45059
" />
<text x="48819.8" y="50984.3"
textLength="1576.58" font-size="524.934" lengthAdjust="spacingAndGlyphs"
text-anchor="middle" opacity="0">SEG1</text>
<path d="M49494 50946
L49438 50965
L49344 50965
L49307 50946
L49288 50928
L49269 50890
L49269 50853
L49288 50815
L49307 50796
L49344 50778
L49419 50759
L49457 50740
L49475 50721
L49494 50684
L49494 50646
L49475 50609
L49457 50590
L49419 50571
L49325 50571
L49269 50590
" />
<path d="M49100 50759
L48969 50759
" />
<path d="M48913 50965
L49100 50965
L49100 50571
L48913 50571
" />
<path d="M48538 50590
L48576 50571
L48632 50571
L48688 50590
L48726 50628
L48744 50665
L48763 50740
L48763 50796
L48744 50871
L48726 50909
L48688 50946
L48632 50965
L48594 50965
L48538 50946
L48519 50928
L48519 50796
L48594 50796
" />
<path d="M48144 50965
L48369 50965
" />
<path d="M48257 50965
L48257 50571
L48294 50628
L48332 50665
L48369 50684
" />
<circle cx="64961.5" cy="53149.6" r="556.777" /> 
<circle cx="48032.4" cy="53149.6" r="556.777" /> 
<circle cx="48032.4" cy="47637.8" r="556.777" /> 
<circle cx="48032.4" cy="41732.3" r="556.777" /> 
<circle cx="48032.4" cy="35433.1" r="556.777" /> 
<circle cx="68898.5" cy="27559.1" r="556.777" /> 
<path d="M46457 54330
L70473 54330
" />
<text x="48032.4" y="16338.6"
textLength="2251.5" font-size="524.934" lengthAdjust="spacingAndGlyphs"
text-anchor="middle" opacity="0">100mm</text>
<path d="M48819 16319
L49044 16319
" />
<path d="M48932 16319
L48932 15926
L48969 15982
L49007 16019
L49044 16038
" />
<path d="M48576 15926
L48538 15926
L48501 15944
L48482 15963
L48463 16001
L48444 16076
L48444 16169
L48463 16244
L48482 16282
L48501 16301
L48538 16319
L48576 16319
L48613 16301
L48632 16282
L48651 16244
L48669 16169
L48669 16076
L48651 16001
L48632 15963
L48613 15944
L48576 15926
" />
<path d="M48201 15926
L48163 15926
L48126 15944
L48107 15963
L48088 16001
L48069 16076
L48069 16169
L48088 16244
L48107 16282
L48126 16301
L48163 16319
L48201 16319
L48238 16301
L48257 16282
L48276 16244
L48294 16169
L48294 16076
L48276 16001
L48257 15963
L48238 15944
L48201 15926
" />
<path d="M47901 16319
L47901 16057
" />
<path d="M47901 16094
L47882 16076
L47844 16057
L47788 16057
L47751 16076
L47732 16113
L47732 16319
" />
<path d="M47732 16113
L47713 16076
L47676 16057
L47619 16057
L47582 16076
L47563 16113
L47563 16319
" />
<path d="M47376 16319
L47376 16057
" />
<path d="M47376 16094
L47357 16076
L47319 16057
L47263 16057
L47226 16076
L47207 16113
L47207 16319
" />
<path d="M47207 16113
L47188 16076
L47151 16057
L47094 16057
L47057 16076
L47038 16113
L47038 16319
" />
<text x="58268.6" y="15551.2"
textLength="1876.55" font-size="524.934" lengthAdjust="spacingAndGlyphs"
text-anchor="middle" opacity="0">61mm</text>
<path d="M58906 15138
L58980 15138
L59018 15157
L59037 15176
L59074 15232
L59093 15307
L59093 15457
L59074 15494
L59055 15513
L59018 15532
L58943 15532
L58906 15513
L58887 15494
L58868 15457
L58868 15363
L58887 15326
L58906 15307
L58943 15288
L59018 15288
L59055 15307
L59074 15326
L59093 15363
" />
<path d="M58493 15532
L58718 15532
" />
<path d="M58606 15532
L58606 15138
L58643 15194
L58681 15232
L58718 15251
" />
<path d="M58324 15532
L58324 15269
" />
<path d="M58324 15307
L58306 15288
L58268 15269
L58212 15269
L58174 15288
L58156 15326
L58156 15532
" />
<path d="M58156 15326
L58137 15288
L58099 15269
L58043 15269
L58006 15288
L57987 15326
L57987 15532
" />
<path d="M57799 15532
L57799 15269
" />
<path d="M57799 15307
L57781 15288
L57743 15269
L57687 15269
L57649 15288
L57631 15326
L57631 15532
" />
<path d="M57631 15326
L57612 15288
L57574 15269
L57518 15269
L57481 15288
L57462 15326
L57462 15532
" />
<path d="M70473 54330
L70473 14960
" />
<path d="M46457 14960
L70473 14960
" />
<path d="M46457 54330
L46457 14960
" />
<g >
</g>
<g >
</g>
<g >
</g>
<g >
</g>
<g >
</g>
<g >
</g>
<g >
</g>
<g >
</g>
<g >
</g>
<g >
</g>
<g >
</g>
<g >
</g>
<g >
</g>
<g >
</g>
<g >
</g>
<g >
</g>
<g >
</g>
<g >
</g>
<g >
</g>
<g >
</g>
<g >
</g>
<g >
</g>
</g> 
</svg>
