M48
; DRILL file {KiCad 5.1.9} date Sat Jun 26 11:45:39 2021
; FORMAT={-:-/ absolute / metric / decimal}
; #@! TF.CreationDate,2021-06-26T11:45:39+02:00
; #@! TF.GenerationSoftware,Kicad,Pcbnew,5.1.9
; #@! TF.FileFunction,Plated,1,2,PTH
FMAT,2
METRIC
T1C0.400
T2C1.000
T3C1.190
T4C2.690
%
G90
G05
T1
X127.0Y-61.0
X127.0Y-86.0
X190.0Y-61.0
X190.0Y-86.0
T2
X152.84Y-76.0
X152.84Y-78.54
X155.38Y-76.0
X155.38Y-78.54
X157.92Y-76.0
X157.92Y-78.54
X160.46Y-76.0
X160.46Y-78.54
X163.0Y-76.0
X163.0Y-78.54
T3
X133.0Y-62.0
X135.54Y-62.0
X140.46Y-62.0
X143.0Y-62.0
X148.46Y-62.0
X151.0Y-62.0
X157.0Y-62.0
X159.54Y-62.0
X165.0Y-62.0
X167.54Y-62.0
X173.0Y-62.0
X175.54Y-62.0
X181.0Y-62.0
X183.54Y-62.0
T4
X143.9Y-77.02
X171.94Y-77.02
T0
M30
