%TF.GenerationSoftware,KiCad,Pcbnew,5.1.9*%
%TF.CreationDate,2021-06-11T19:55:18+02:00*%
%TF.ProjectId,breakout,62726561-6b6f-4757-942e-6b696361645f,rev?*%
%TF.SameCoordinates,Original*%
%TF.FileFunction,Other,ECO2*%
%FSLAX46Y46*%
G04 Gerber Fmt 4.6, Leading zero omitted, Abs format (unit mm)*
G04 Created by KiCad (PCBNEW 5.1.9) date 2021-06-11 19:55:18*
%MOMM*%
%LPD*%
G01*
G04 APERTURE LIST*
%ADD10C,0.150000*%
G04 APERTURE END LIST*
D10*
X123476190Y-73452380D02*
X124095238Y-73452380D01*
X123761904Y-73833333D01*
X123904761Y-73833333D01*
X124000000Y-73880952D01*
X124047619Y-73928571D01*
X124095238Y-74023809D01*
X124095238Y-74261904D01*
X124047619Y-74357142D01*
X124000000Y-74404761D01*
X123904761Y-74452380D01*
X123619047Y-74452380D01*
X123523809Y-74404761D01*
X123476190Y-74357142D01*
X124428571Y-73452380D02*
X125047619Y-73452380D01*
X124714285Y-73833333D01*
X124857142Y-73833333D01*
X124952380Y-73880952D01*
X125000000Y-73928571D01*
X125047619Y-74023809D01*
X125047619Y-74261904D01*
X125000000Y-74357142D01*
X124952380Y-74404761D01*
X124857142Y-74452380D01*
X124571428Y-74452380D01*
X124476190Y-74404761D01*
X124428571Y-74357142D01*
X126238095Y-74452380D02*
X126238095Y-73785714D01*
X126238095Y-73880952D02*
X126285714Y-73833333D01*
X126380952Y-73785714D01*
X126523809Y-73785714D01*
X126619047Y-73833333D01*
X126666666Y-73928571D01*
X126666666Y-74452380D01*
X126666666Y-73928571D02*
X126714285Y-73833333D01*
X126809523Y-73785714D01*
X126952380Y-73785714D01*
X127047619Y-73833333D01*
X127095238Y-73928571D01*
X127095238Y-74452380D01*
X127571428Y-74452380D02*
X127571428Y-73785714D01*
X127571428Y-73880952D02*
X127619047Y-73833333D01*
X127714285Y-73785714D01*
X127857142Y-73785714D01*
X127952380Y-73833333D01*
X128000000Y-73928571D01*
X128000000Y-74452380D01*
X128000000Y-73928571D02*
X128047619Y-73833333D01*
X128142857Y-73785714D01*
X128285714Y-73785714D01*
X128380952Y-73833333D01*
X128428571Y-73928571D01*
X128428571Y-74452380D01*
X137476190Y-88452380D02*
X138142857Y-88452380D01*
X137714285Y-89452380D01*
X139047619Y-89452380D02*
X138476190Y-89452380D01*
X138761904Y-89452380D02*
X138761904Y-88452380D01*
X138666666Y-88595238D01*
X138571428Y-88690476D01*
X138476190Y-88738095D01*
X140238095Y-89452380D02*
X140238095Y-88785714D01*
X140238095Y-88880952D02*
X140285714Y-88833333D01*
X140380952Y-88785714D01*
X140523809Y-88785714D01*
X140619047Y-88833333D01*
X140666666Y-88928571D01*
X140666666Y-89452380D01*
X140666666Y-88928571D02*
X140714285Y-88833333D01*
X140809523Y-88785714D01*
X140952380Y-88785714D01*
X141047619Y-88833333D01*
X141095238Y-88928571D01*
X141095238Y-89452380D01*
X141571428Y-89452380D02*
X141571428Y-88785714D01*
X141571428Y-88880952D02*
X141619047Y-88833333D01*
X141714285Y-88785714D01*
X141857142Y-88785714D01*
X141952380Y-88833333D01*
X142000000Y-88928571D01*
X142000000Y-89452380D01*
X142000000Y-88928571D02*
X142047619Y-88833333D01*
X142142857Y-88785714D01*
X142285714Y-88785714D01*
X142380952Y-88833333D01*
X142428571Y-88928571D01*
X142428571Y-89452380D01*
X194000000Y-57000000D02*
X123000000Y-57000000D01*
X194000000Y-90000000D02*
X194000000Y-57000000D01*
X123000000Y-90000000D02*
X194000000Y-90000000D01*
X123000000Y-57000000D02*
X123000000Y-90000000D01*
M02*
