%TF.GenerationSoftware,KiCad,Pcbnew,5.1.9*%
%TF.CreationDate,2021-06-26T11:31:53+02:00*%
%TF.ProjectId,breakout,62726561-6b6f-4757-942e-6b696361645f,rev?*%
%TF.SameCoordinates,Original*%
%TF.FileFunction,Soldermask,Bot*%
%TF.FilePolarity,Negative*%
%FSLAX46Y46*%
G04 Gerber Fmt 4.6, Leading zero omitted, Abs format (unit mm)*
G04 Created by KiCad (PCBNEW 5.1.9) date 2021-06-26 11:31:53*
%MOMM*%
%LPD*%
G01*
G04 APERTURE LIST*
%ADD10C,3.200000*%
%ADD11C,8.000000*%
%ADD12C,1.700000*%
%ADD13O,1.740000X2.190000*%
G04 APERTURE END LIST*
D10*
%TO.C,Screw*%
X190000000Y-86000000D03*
%TD*%
%TO.C,Screw*%
X190000000Y-61000000D03*
%TD*%
%TO.C,Screw*%
X127000000Y-86000000D03*
%TD*%
%TO.C,Screw*%
X127000000Y-61000000D03*
%TD*%
D11*
%TO.C,J0*%
X143900000Y-77020000D03*
X171940000Y-77020000D03*
D12*
X152840000Y-78540000D03*
X155380000Y-78540000D03*
X157920000Y-78540000D03*
X160460000Y-78540000D03*
X163000000Y-78540000D03*
X152840000Y-76000000D03*
X155380000Y-76000000D03*
X157920000Y-76000000D03*
X160460000Y-76000000D03*
G36*
G01*
X162400000Y-75150000D02*
X163600000Y-75150000D01*
G75*
G02*
X163850000Y-75400000I0J-250000D01*
G01*
X163850000Y-76600000D01*
G75*
G02*
X163600000Y-76850000I-250000J0D01*
G01*
X162400000Y-76850000D01*
G75*
G02*
X162150000Y-76600000I0J250000D01*
G01*
X162150000Y-75400000D01*
G75*
G02*
X162400000Y-75150000I250000J0D01*
G01*
G37*
%TD*%
D13*
%TO.C,J7*%
X133000000Y-62000000D03*
G36*
G01*
X136410000Y-61154999D02*
X136410000Y-62845001D01*
G75*
G02*
X136160001Y-63095000I-249999J0D01*
G01*
X134919999Y-63095000D01*
G75*
G02*
X134670000Y-62845001I0J249999D01*
G01*
X134670000Y-61154999D01*
G75*
G02*
X134919999Y-60905000I249999J0D01*
G01*
X136160001Y-60905000D01*
G75*
G02*
X136410000Y-61154999I0J-249999D01*
G01*
G37*
%TD*%
%TO.C,J6*%
X181000000Y-62000000D03*
G36*
G01*
X184410000Y-61154999D02*
X184410000Y-62845001D01*
G75*
G02*
X184160001Y-63095000I-249999J0D01*
G01*
X182919999Y-63095000D01*
G75*
G02*
X182670000Y-62845001I0J249999D01*
G01*
X182670000Y-61154999D01*
G75*
G02*
X182919999Y-60905000I249999J0D01*
G01*
X184160001Y-60905000D01*
G75*
G02*
X184410000Y-61154999I0J-249999D01*
G01*
G37*
%TD*%
%TO.C,J5*%
X140460000Y-62000000D03*
G36*
G01*
X143870000Y-61154999D02*
X143870000Y-62845001D01*
G75*
G02*
X143620001Y-63095000I-249999J0D01*
G01*
X142379999Y-63095000D01*
G75*
G02*
X142130000Y-62845001I0J249999D01*
G01*
X142130000Y-61154999D01*
G75*
G02*
X142379999Y-60905000I249999J0D01*
G01*
X143620001Y-60905000D01*
G75*
G02*
X143870000Y-61154999I0J-249999D01*
G01*
G37*
%TD*%
%TO.C,J4*%
X173000000Y-62000000D03*
G36*
G01*
X176410000Y-61154999D02*
X176410000Y-62845001D01*
G75*
G02*
X176160001Y-63095000I-249999J0D01*
G01*
X174919999Y-63095000D01*
G75*
G02*
X174670000Y-62845001I0J249999D01*
G01*
X174670000Y-61154999D01*
G75*
G02*
X174919999Y-60905000I249999J0D01*
G01*
X176160001Y-60905000D01*
G75*
G02*
X176410000Y-61154999I0J-249999D01*
G01*
G37*
%TD*%
%TO.C,J3*%
X148460000Y-62000000D03*
G36*
G01*
X151870000Y-61154999D02*
X151870000Y-62845001D01*
G75*
G02*
X151620001Y-63095000I-249999J0D01*
G01*
X150379999Y-63095000D01*
G75*
G02*
X150130000Y-62845001I0J249999D01*
G01*
X150130000Y-61154999D01*
G75*
G02*
X150379999Y-60905000I249999J0D01*
G01*
X151620001Y-60905000D01*
G75*
G02*
X151870000Y-61154999I0J-249999D01*
G01*
G37*
%TD*%
%TO.C,J2*%
X165000000Y-62000000D03*
G36*
G01*
X168410000Y-61154999D02*
X168410000Y-62845001D01*
G75*
G02*
X168160001Y-63095000I-249999J0D01*
G01*
X166919999Y-63095000D01*
G75*
G02*
X166670000Y-62845001I0J249999D01*
G01*
X166670000Y-61154999D01*
G75*
G02*
X166919999Y-60905000I249999J0D01*
G01*
X168160001Y-60905000D01*
G75*
G02*
X168410000Y-61154999I0J-249999D01*
G01*
G37*
%TD*%
%TO.C,J1*%
X157000000Y-62000000D03*
G36*
G01*
X160410000Y-61154999D02*
X160410000Y-62845001D01*
G75*
G02*
X160160001Y-63095000I-249999J0D01*
G01*
X158919999Y-63095000D01*
G75*
G02*
X158670000Y-62845001I0J249999D01*
G01*
X158670000Y-61154999D01*
G75*
G02*
X158919999Y-60905000I249999J0D01*
G01*
X160160001Y-60905000D01*
G75*
G02*
X160410000Y-61154999I0J-249999D01*
G01*
G37*
%TD*%
M02*
