  0
SECTION
  2
HEADER
  9
$ANGBASE
  50
0.0
  9
$ANGDIR
  70
1
  9
$MEASUREMENT
  70
1
  0
ENDSEC
  0
SECTION
  2
TABLES
  0
TABLE
  2
LTYPE
  70
4
  0
LTYPE
  5
40F
  2
CONTINUOUS
  70
0
  3
Solid line
  72
65
  73
0
  40
0.0
  0
LTYPE
  5
410
  2
DASHDOT
 70
0
  3
Dash Dot ____ _ ____ _
 72
65
 73
4
 40
2.0
 49
1.25
 49
-0.25
 49
0.25
 49
-0.25
  0
LTYPE
  5
411
  2
DASHED
 70
0
  3
Dashed __ __ __ __ __
 72
65
 73
2
 40
0.75
 49
0.5
 49
-0.25
  0
LTYPE
  5
43B
  2
DOTTED
 70
0
  3
Dotted .  .  .  .
 72
65
 73
2
 40
0.2
 49
0.0
 49
-0.2
  0
ENDTAB
  0
TABLE
  2
STYLE
  70
4
  0
STYLE
  2
KICAD
  70
0
  40
0
  41
1
  42
1
  50
0
  71
0
  3
isocp.shx
  0
STYLE
  2
KICADB
  70
0
  40
0
  41
1
  42
1
  50
0
  71
0
  3
isocp.shx
  0
STYLE
  2
KICADI
  70
0
  40
0
  41
1
  42
1
  50
15
  71
0
  3
isocp.shx
  0
STYLE
  2
KICADBI
  70
0
  40
0
  41
1
  42
1
  50
15
  71
0
  3
isocp.shx
  0
ENDTAB
  0
TABLE
  2
LAYER
  70
1
  0
LAYER
  2
BLACK
  70
0
  62
7
  6
CONTINUOUS
  0
ENDTAB
  0
ENDSEC
  0
SECTION
  2
ENTITIES
0
LINE
8
BLACK
6
CONTINUOUS
10
194.004
20
-56.925
11
194.015
21
-56.9261
0
LINE
8
BLACK
6
CONTINUOUS
10
194.015
20
-56.9261
11
194.029
21
-56.9304
0
LINE
8
BLACK
6
CONTINUOUS
10
194.029
20
-56.9304
11
194.042
21
-56.9373
0
LINE
8
BLACK
6
CONTINUOUS
10
194.042
20
-56.9373
11
194.053
21
-56.9467
0
LINE
8
BLACK
6
CONTINUOUS
10
194.053
20
-56.9467
11
194.063
21
-56.9581
0
LINE
8
BLACK
6
CONTINUOUS
10
194.063
20
-56.9581
11
194.07
21
-56.9712
0
LINE
8
BLACK
6
CONTINUOUS
10
194.07
20
-56.9712
11
194.074
21
-56.9853
0
LINE
8
BLACK
6
CONTINUOUS
10
194.074
20
-56.9853
11
194.075
21
-57
0
LINE
8
BLACK
6
CONTINUOUS
10
194.075
20
-57
11
194.075
21
-57.0037
0
LINE
8
BLACK
6
CONTINUOUS
10
194.075
20
-57.0037
11
194.075
21
-89.9963
0
LINE
8
BLACK
6
CONTINUOUS
10
194.075
20
-89.9963
11
194.075
21
-90
0
LINE
8
BLACK
6
CONTINUOUS
10
194.075
20
-90
11
194.074
21
-90.0147
0
LINE
8
BLACK
6
CONTINUOUS
10
194.074
20
-90.0147
11
194.07
21
-90.0288
0
LINE
8
BLACK
6
CONTINUOUS
10
194.07
20
-90.0288
11
194.063
21
-90.0419
0
LINE
8
BLACK
6
CONTINUOUS
10
194.063
20
-90.0419
11
194.053
21
-90.0533
0
LINE
8
BLACK
6
CONTINUOUS
10
194.053
20
-90.0533
11
194.042
21
-90.0627
0
LINE
8
BLACK
6
CONTINUOUS
10
194.042
20
-90.0627
11
194.029
21
-90.0696
0
LINE
8
BLACK
6
CONTINUOUS
10
194.029
20
-90.0696
11
194.015
21
-90.0739
0
LINE
8
BLACK
6
CONTINUOUS
10
194.015
20
-90.0739
11
194.004
21
-90.075
0
LINE
8
BLACK
6
CONTINUOUS
10
194.004
20
-90.075
11
194
21
-90.0754
0
LINE
8
BLACK
6
CONTINUOUS
10
194
20
-90.0754
11
193.996
21
-90.075
0
LINE
8
BLACK
6
CONTINUOUS
10
193.996
20
-90.075
11
123.004
21
-90.075
0
LINE
8
BLACK
6
CONTINUOUS
10
123.004
20
-90.075
11
123
21
-90.0754
0
LINE
8
BLACK
6
CONTINUOUS
10
123
20
-90.0754
11
122.996
21
-90.075
0
LINE
8
BLACK
6
CONTINUOUS
10
122.996
20
-90.075
11
122.985
21
-90.0739
0
LINE
8
BLACK
6
CONTINUOUS
10
122.985
20
-90.0739
11
122.971
21
-90.0696
0
LINE
8
BLACK
6
CONTINUOUS
10
122.971
20
-90.0696
11
122.958
21
-90.0627
0
LINE
8
BLACK
6
CONTINUOUS
10
122.958
20
-90.0627
11
122.947
21
-90.0533
0
LINE
8
BLACK
6
CONTINUOUS
10
122.947
20
-90.0533
11
122.937
21
-90.0419
0
LINE
8
BLACK
6
CONTINUOUS
10
122.937
20
-90.0419
11
122.93
21
-90.0288
0
LINE
8
BLACK
6
CONTINUOUS
10
122.93
20
-90.0288
11
122.926
21
-90.0147
0
LINE
8
BLACK
6
CONTINUOUS
10
122.926
20
-90.0147
11
122.925
21
-90
0
LINE
8
BLACK
6
CONTINUOUS
10
122.925
20
-90
11
122.925
21
-89.9963
0
LINE
8
BLACK
6
CONTINUOUS
10
122.925
20
-89.9963
11
122.925
21
-57.0037
0
LINE
8
BLACK
6
CONTINUOUS
10
122.925
20
-57.0037
11
122.925
21
-57
0
LINE
8
BLACK
6
CONTINUOUS
10
122.925
20
-57
11
122.926
21
-56.9853
0
LINE
8
BLACK
6
CONTINUOUS
10
122.926
20
-56.9853
11
122.93
21
-56.9712
0
LINE
8
BLACK
6
CONTINUOUS
10
122.93
20
-56.9712
11
122.937
21
-56.9581
0
LINE
8
BLACK
6
CONTINUOUS
10
122.937
20
-56.9581
11
122.947
21
-56.9467
0
LINE
8
BLACK
6
CONTINUOUS
10
122.947
20
-56.9467
11
122.958
21
-56.9373
0
LINE
8
BLACK
6
CONTINUOUS
10
122.958
20
-56.9373
11
122.971
21
-56.9304
0
LINE
8
BLACK
6
CONTINUOUS
10
122.971
20
-56.9304
11
122.985
21
-56.9261
0
LINE
8
BLACK
6
CONTINUOUS
10
122.985
20
-56.9261
11
122.996
21
-56.925
0
LINE
8
BLACK
6
CONTINUOUS
10
122.996
20
-56.925
11
123
21
-56.9246
0
LINE
8
BLACK
6
CONTINUOUS
10
123
20
-56.9246
11
123.004
21
-56.925
0
LINE
8
BLACK
6
CONTINUOUS
10
123.004
20
-56.925
11
193.996
21
-56.925
0
LINE
8
BLACK
6
CONTINUOUS
10
193.996
20
-56.925
11
194
21
-56.9246
0
LINE
8
BLACK
6
CONTINUOUS
10
194
20
-56.9246
11
194.004
21
-56.925
0
LINE
8
BLACK
6
CONTINUOUS
10
123.075
20
-57.075
11
123.075
21
-89.925
0
LINE
8
BLACK
6
CONTINUOUS
10
123.075
20
-89.925
11
193.925
21
-89.925
0
LINE
8
BLACK
6
CONTINUOUS
10
193.925
20
-89.925
11
193.925
21
-57.075
0
LINE
8
BLACK
6
CONTINUOUS
10
193.925
20
-57.075
11
123.075
21
-57.075
0
LINE
8
BLACK
6
CONTINUOUS
10
138.762
20
-88.3774
11
138.763
21
-88.3774
0
LINE
8
BLACK
6
CONTINUOUS
10
138.763
20
-88.3774
11
138.77
21
-88.3782
0
LINE
8
BLACK
6
CONTINUOUS
10
138.77
20
-88.3782
11
138.777
21
-88.3789
0
LINE
8
BLACK
6
CONTINUOUS
10
138.777
20
-88.3789
11
138.777
21
-88.3789
0
LINE
8
BLACK
6
CONTINUOUS
10
138.777
20
-88.3789
11
138.777
21
-88.3789
0
LINE
8
BLACK
6
CONTINUOUS
10
138.777
20
-88.3789
11
138.784
21
-88.3812
0
LINE
8
BLACK
6
CONTINUOUS
10
138.784
20
-88.3812
11
138.791
21
-88.3832
0
LINE
8
BLACK
6
CONTINUOUS
10
138.791
20
-88.3832
11
138.791
21
-88.3833
0
LINE
8
BLACK
6
CONTINUOUS
10
138.791
20
-88.3833
11
138.791
21
-88.3833
0
LINE
8
BLACK
6
CONTINUOUS
10
138.791
20
-88.3833
11
138.798
21
-88.3868
0
LINE
8
BLACK
6
CONTINUOUS
10
138.798
20
-88.3868
11
138.804
21
-88.3902
0
LINE
8
BLACK
6
CONTINUOUS
10
138.804
20
-88.3902
11
138.804
21
-88.3902
0
LINE
8
BLACK
6
CONTINUOUS
10
138.804
20
-88.3902
11
138.804
21
-88.3903
0
LINE
8
BLACK
6
CONTINUOUS
10
138.804
20
-88.3903
11
138.81
21
-88.3949
0
LINE
8
BLACK
6
CONTINUOUS
10
138.81
20
-88.3949
11
138.815
21
-88.3995
0
LINE
8
BLACK
6
CONTINUOUS
10
138.815
20
-88.3995
11
138.815
21
-88.3996
0
LINE
8
BLACK
6
CONTINUOUS
10
138.815
20
-88.3996
11
138.815
21
-88.3996
0
LINE
8
BLACK
6
CONTINUOUS
10
138.815
20
-88.3996
11
138.82
21
-88.4056
0
LINE
8
BLACK
6
CONTINUOUS
10
138.82
20
-88.4056
11
138.824
21
-88.4109
0
LINE
8
BLACK
6
CONTINUOUS
10
138.824
20
-88.4109
11
138.824
21
-88.4109
0
LINE
8
BLACK
6
CONTINUOUS
10
138.824
20
-88.4109
11
138.824
21
-88.411
0
LINE
8
BLACK
6
CONTINUOUS
10
138.824
20
-88.411
11
138.828
21
-88.4179
0
LINE
8
BLACK
6
CONTINUOUS
10
138.828
20
-88.4179
11
138.831
21
-88.4238
0
LINE
8
BLACK
6
CONTINUOUS
10
138.831
20
-88.4238
11
138.831
21
-88.4239
0
LINE
8
BLACK
6
CONTINUOUS
10
138.831
20
-88.4239
11
138.831
21
-88.4239
0
LINE
8
BLACK
6
CONTINUOUS
10
138.831
20
-88.4239
11
138.833
21
-88.4311
0
LINE
8
BLACK
6
CONTINUOUS
10
138.833
20
-88.4311
11
138.835
21
-88.4378
0
LINE
8
BLACK
6
CONTINUOUS
10
138.835
20
-88.4378
11
138.835
21
-88.4379
0
LINE
8
BLACK
6
CONTINUOUS
10
138.835
20
-88.4379
11
138.835
21
-88.4379
0
LINE
8
BLACK
6
CONTINUOUS
10
138.835
20
-88.4379
11
138.836
21
-88.4453
0
LINE
8
BLACK
6
CONTINUOUS
10
138.836
20
-88.4453
11
138.837
21
-88.4524
0
LINE
8
BLACK
6
CONTINUOUS
10
138.837
20
-88.4524
11
138.837
21
-89.3774
0
LINE
8
BLACK
6
CONTINUOUS
10
138.837
20
-89.3774
11
139.048
21
-89.3774
0
LINE
8
BLACK
6
CONTINUOUS
10
139.048
20
-89.3774
11
139.049
21
-89.3774
0
LINE
8
BLACK
6
CONTINUOUS
10
139.049
20
-89.3774
11
139.063
21
-89.379
0
LINE
8
BLACK
6
CONTINUOUS
10
139.063
20
-89.379
11
139.077
21
-89.3834
0
LINE
8
BLACK
6
CONTINUOUS
10
139.077
20
-89.3834
11
139.09
21
-89.3905
0
LINE
8
BLACK
6
CONTINUOUS
10
139.09
20
-89.3905
11
139.101
21
-89.3999
0
LINE
8
BLACK
6
CONTINUOUS
10
139.101
20
-89.3999
11
139.11
21
-89.4113
0
LINE
8
BLACK
6
CONTINUOUS
10
139.11
20
-89.4113
11
139.117
21
-89.4243
0
LINE
8
BLACK
6
CONTINUOUS
10
139.117
20
-89.4243
11
139.121
21
-89.4383
0
LINE
8
BLACK
6
CONTINUOUS
10
139.121
20
-89.4383
11
139.123
21
-89.4529
0
LINE
8
BLACK
6
CONTINUOUS
10
139.123
20
-89.4529
11
139.121
21
-89.4675
0
LINE
8
BLACK
6
CONTINUOUS
10
139.121
20
-89.4675
11
139.117
21
-89.4814
0
LINE
8
BLACK
6
CONTINUOUS
10
139.117
20
-89.4814
11
139.11
21
-89.4943
0
LINE
8
BLACK
6
CONTINUOUS
10
139.11
20
-89.4943
11
139.1
21
-89.5056
0
LINE
8
BLACK
6
CONTINUOUS
10
139.1
20
-89.5056
11
139.089
21
-89.5148
0
LINE
8
BLACK
6
CONTINUOUS
10
139.089
20
-89.5148
11
139.076
21
-89.5217
0
LINE
8
BLACK
6
CONTINUOUS
10
139.076
20
-89.5217
11
139.062
21
-89.526
0
LINE
8
BLACK
6
CONTINUOUS
10
139.062
20
-89.526
11
139.048
21
-89.5274
0
LINE
8
BLACK
6
CONTINUOUS
10
139.048
20
-89.5274
11
138.476
21
-89.5274
0
LINE
8
BLACK
6
CONTINUOUS
10
138.476
20
-89.5274
11
138.475
21
-89.5274
0
LINE
8
BLACK
6
CONTINUOUS
10
138.475
20
-89.5274
11
138.461
21
-89.5257
0
LINE
8
BLACK
6
CONTINUOUS
10
138.461
20
-89.5257
11
138.447
21
-89.5213
0
LINE
8
BLACK
6
CONTINUOUS
10
138.447
20
-89.5213
11
138.434
21
-89.5143
0
LINE
8
BLACK
6
CONTINUOUS
10
138.434
20
-89.5143
11
138.423
21
-89.5049
0
LINE
8
BLACK
6
CONTINUOUS
10
138.423
20
-89.5049
11
138.413
21
-89.4934
0
LINE
8
BLACK
6
CONTINUOUS
10
138.413
20
-89.4934
11
138.407
21
-89.4805
0
LINE
8
BLACK
6
CONTINUOUS
10
138.407
20
-89.4805
11
138.403
21
-89.4664
0
LINE
8
BLACK
6
CONTINUOUS
10
138.403
20
-89.4664
11
138.401
21
-89.4519
0
LINE
8
BLACK
6
CONTINUOUS
10
138.401
20
-89.4519
11
138.403
21
-89.4373
0
LINE
8
BLACK
6
CONTINUOUS
10
138.403
20
-89.4373
11
138.407
21
-89.4233
0
LINE
8
BLACK
6
CONTINUOUS
10
138.407
20
-89.4233
11
138.414
21
-89.4104
0
LINE
8
BLACK
6
CONTINUOUS
10
138.414
20
-89.4104
11
138.423
21
-89.3992
0
LINE
8
BLACK
6
CONTINUOUS
10
138.423
20
-89.3992
11
138.435
21
-89.3899
0
LINE
8
BLACK
6
CONTINUOUS
10
138.435
20
-89.3899
11
138.448
21
-89.383
0
LINE
8
BLACK
6
CONTINUOUS
10
138.448
20
-89.383
11
138.462
21
-89.3788
0
LINE
8
BLACK
6
CONTINUOUS
10
138.462
20
-89.3788
11
138.476
21
-89.3774
0
LINE
8
BLACK
6
CONTINUOUS
10
138.476
20
-89.3774
11
138.687
21
-89.3774
0
LINE
8
BLACK
6
CONTINUOUS
10
138.687
20
-89.3774
11
138.687
21
-88.6811
0
LINE
8
BLACK
6
CONTINUOUS
10
138.687
20
-88.6811
11
138.624
21
-88.7435
0
LINE
8
BLACK
6
CONTINUOUS
10
138.624
20
-88.7435
11
138.624
21
-88.7442
0
LINE
8
BLACK
6
CONTINUOUS
10
138.624
20
-88.7442
11
138.62
21
-88.7469
0
LINE
8
BLACK
6
CONTINUOUS
10
138.62
20
-88.7469
11
138.617
21
-88.7498
0
LINE
8
BLACK
6
CONTINUOUS
10
138.617
20
-88.7498
11
138.615
21
-88.7514
0
LINE
8
BLACK
6
CONTINUOUS
10
138.615
20
-88.7514
11
138.612
21
-88.7534
0
LINE
8
BLACK
6
CONTINUOUS
10
138.612
20
-88.7534
11
138.609
21
-88.7553
0
LINE
8
BLACK
6
CONTINUOUS
10
138.609
20
-88.7553
11
138.605
21
-88.7576
0
LINE
8
BLACK
6
CONTINUOUS
10
138.605
20
-88.7576
11
138.51
21
-88.8052
0
LINE
8
BLACK
6
CONTINUOUS
10
138.51
20
-88.8052
11
138.509
21
-88.8056
0
LINE
8
BLACK
6
CONTINUOUS
10
138.509
20
-88.8056
11
138.495
21
-88.8107
0
LINE
8
BLACK
6
CONTINUOUS
10
138.495
20
-88.8107
11
138.481
21
-88.813
0
LINE
8
BLACK
6
CONTINUOUS
10
138.481
20
-88.813
11
138.466
21
-88.8124
0
LINE
8
BLACK
6
CONTINUOUS
10
138.466
20
-88.8124
11
138.452
21
-88.809
0
LINE
8
BLACK
6
CONTINUOUS
10
138.452
20
-88.809
11
138.438
21
-88.8029
0
LINE
8
BLACK
6
CONTINUOUS
10
138.438
20
-88.8029
11
138.427
21
-88.7943
0
LINE
8
BLACK
6
CONTINUOUS
10
138.427
20
-88.7943
11
138.417
21
-88.7836
0
LINE
8
BLACK
6
CONTINUOUS
10
138.417
20
-88.7836
11
138.409
21
-88.7712
0
LINE
8
BLACK
6
CONTINUOUS
10
138.409
20
-88.7712
11
138.404
21
-88.7575
0
LINE
8
BLACK
6
CONTINUOUS
10
138.404
20
-88.7575
11
138.401
21
-88.743
0
LINE
8
BLACK
6
CONTINUOUS
10
138.401
20
-88.743
11
138.402
21
-88.7284
0
LINE
8
BLACK
6
CONTINUOUS
10
138.402
20
-88.7284
11
138.405
21
-88.7141
0
LINE
8
BLACK
6
CONTINUOUS
10
138.405
20
-88.7141
11
138.411
21
-88.7008
0
LINE
8
BLACK
6
CONTINUOUS
10
138.411
20
-88.7008
11
138.42
21
-88.6889
0
LINE
8
BLACK
6
CONTINUOUS
10
138.42
20
-88.6889
11
138.43
21
-88.6788
0
LINE
8
BLACK
6
CONTINUOUS
10
138.43
20
-88.6788
11
138.443
21
-88.671
0
LINE
8
BLACK
6
CONTINUOUS
10
138.443
20
-88.671
11
138.527
21
-88.6288
0
LINE
8
BLACK
6
CONTINUOUS
10
138.527
20
-88.6288
11
138.608
21
-88.5475
0
LINE
8
BLACK
6
CONTINUOUS
10
138.608
20
-88.5475
11
138.7
21
-88.4108
0
LINE
8
BLACK
6
CONTINUOUS
10
138.7
20
-88.4108
11
138.7
21
-88.41
0
LINE
8
BLACK
6
CONTINUOUS
10
138.7
20
-88.41
11
138.7
21
-88.41
0
LINE
8
BLACK
6
CONTINUOUS
10
138.7
20
-88.41
11
138.7
21
-88.41
0
LINE
8
BLACK
6
CONTINUOUS
10
138.7
20
-88.41
11
138.7
21
-88.4099
0
LINE
8
BLACK
6
CONTINUOUS
10
138.7
20
-88.4099
11
138.705
21
-88.4043
0
LINE
8
BLACK
6
CONTINUOUS
10
138.705
20
-88.4043
11
138.709
21
-88.3988
0
LINE
8
BLACK
6
CONTINUOUS
10
138.709
20
-88.3988
11
138.709
21
-88.3988
0
LINE
8
BLACK
6
CONTINUOUS
10
138.709
20
-88.3988
11
138.71
21
-88.3987
0
LINE
8
BLACK
6
CONTINUOUS
10
138.71
20
-88.3987
11
138.715
21
-88.394
0
LINE
8
BLACK
6
CONTINUOUS
10
138.715
20
-88.394
11
138.721
21
-88.3896
0
LINE
8
BLACK
6
CONTINUOUS
10
138.721
20
-88.3896
11
138.721
21
-88.3896
0
LINE
8
BLACK
6
CONTINUOUS
10
138.721
20
-88.3896
11
138.721
21
-88.3896
0
LINE
8
BLACK
6
CONTINUOUS
10
138.721
20
-88.3896
11
138.728
21
-88.386
0
LINE
8
BLACK
6
CONTINUOUS
10
138.728
20
-88.386
11
138.734
21
-88.3828
0
LINE
8
BLACK
6
CONTINUOUS
10
138.734
20
-88.3828
11
138.734
21
-88.3828
0
LINE
8
BLACK
6
CONTINUOUS
10
138.734
20
-88.3828
11
138.734
21
-88.3828
0
LINE
8
BLACK
6
CONTINUOUS
10
138.734
20
-88.3828
11
138.741
21
-88.3807
0
LINE
8
BLACK
6
CONTINUOUS
10
138.741
20
-88.3807
11
138.748
21
-88.3787
0
LINE
8
BLACK
6
CONTINUOUS
10
138.748
20
-88.3787
11
138.748
21
-88.3787
0
LINE
8
BLACK
6
CONTINUOUS
10
138.748
20
-88.3787
11
138.748
21
-88.3787
0
LINE
8
BLACK
6
CONTINUOUS
10
138.748
20
-88.3787
11
138.755
21
-88.378
0
LINE
8
BLACK
6
CONTINUOUS
10
138.755
20
-88.378
11
138.762
21
-88.3774
0
LINE
8
BLACK
6
CONTINUOUS
10
138.762
20
-88.3774
11
138.762
21
-88.3774
0
LINE
8
BLACK
6
CONTINUOUS
10
140.525
20
-88.7107
11
140.527
21
-88.711
0
LINE
8
BLACK
6
CONTINUOUS
10
140.527
20
-88.711
11
140.529
21
-88.7109
0
LINE
8
BLACK
6
CONTINUOUS
10
140.529
20
-88.7109
11
140.534
21
-88.7118
0
LINE
8
BLACK
6
CONTINUOUS
10
140.534
20
-88.7118
11
140.539
21
-88.7124
0
LINE
8
BLACK
6
CONTINUOUS
10
140.539
20
-88.7124
11
140.542
21
-88.713
0
LINE
8
BLACK
6
CONTINUOUS
10
140.542
20
-88.713
11
140.544
21
-88.7134
0
LINE
8
BLACK
6
CONTINUOUS
10
140.544
20
-88.7134
11
140.548
21
-88.7152
0
LINE
8
BLACK
6
CONTINUOUS
10
140.548
20
-88.7152
11
140.553
21
-88.7168
0
LINE
8
BLACK
6
CONTINUOUS
10
140.553
20
-88.7168
11
140.555
21
-88.7178
0
LINE
8
BLACK
6
CONTINUOUS
10
140.555
20
-88.7178
11
140.557
21
-88.7186
0
LINE
8
BLACK
6
CONTINUOUS
10
140.557
20
-88.7186
11
140.653
21
-88.7663
0
LINE
8
BLACK
6
CONTINUOUS
10
140.653
20
-88.7663
11
140.654
21
-88.7667
0
LINE
8
BLACK
6
CONTINUOUS
10
140.654
20
-88.7667
11
140.655
21
-88.7676
0
LINE
8
BLACK
6
CONTINUOUS
10
140.655
20
-88.7676
11
140.656
21
-88.7683
0
LINE
8
BLACK
6
CONTINUOUS
10
140.656
20
-88.7683
11
140.661
21
-88.7716
0
LINE
8
BLACK
6
CONTINUOUS
10
140.661
20
-88.7716
11
140.666
21
-88.7747
0
LINE
8
BLACK
6
CONTINUOUS
10
140.666
20
-88.7747
11
140.667
21
-88.7755
0
LINE
8
BLACK
6
CONTINUOUS
10
140.667
20
-88.7755
11
140.667
21
-88.7752
0
LINE
8
BLACK
6
CONTINUOUS
10
140.667
20
-88.7752
11
140.668
21
-88.774
0
LINE
8
BLACK
6
CONTINUOUS
10
140.668
20
-88.774
11
140.673
21
-88.771
0
LINE
8
BLACK
6
CONTINUOUS
10
140.673
20
-88.771
11
140.678
21
-88.7678
0
LINE
8
BLACK
6
CONTINUOUS
10
140.678
20
-88.7678
11
140.679
21
-88.7671
0
LINE
8
BLACK
6
CONTINUOUS
10
140.679
20
-88.7671
11
140.681
21
-88.7663
0
LINE
8
BLACK
6
CONTINUOUS
10
140.681
20
-88.7663
11
140.776
21
-88.7186
0
LINE
8
BLACK
6
CONTINUOUS
10
140.776
20
-88.7186
11
140.777
21
-88.7182
0
LINE
8
BLACK
6
CONTINUOUS
10
140.777
20
-88.7182
11
140.779
21
-88.7174
0
LINE
8
BLACK
6
CONTINUOUS
10
140.779
20
-88.7174
11
140.781
21
-88.7164
0
LINE
8
BLACK
6
CONTINUOUS
10
140.781
20
-88.7164
11
140.786
21
-88.7149
0
LINE
8
BLACK
6
CONTINUOUS
10
140.786
20
-88.7149
11
140.791
21
-88.7131
0
LINE
8
BLACK
6
CONTINUOUS
10
140.791
20
-88.7131
11
140.793
21
-88.7128
0
LINE
8
BLACK
6
CONTINUOUS
10
140.793
20
-88.7128
11
140.795
21
-88.7121
0
LINE
8
BLACK
6
CONTINUOUS
10
140.795
20
-88.7121
11
140.8
21
-88.7116
0
LINE
8
BLACK
6
CONTINUOUS
10
140.8
20
-88.7116
11
140.805
21
-88.7108
0
LINE
8
BLACK
6
CONTINUOUS
10
140.805
20
-88.7108
11
140.807
21
-88.7109
0
LINE
8
BLACK
6
CONTINUOUS
10
140.807
20
-88.7109
11
140.81
21
-88.7107
0
LINE
8
BLACK
6
CONTINUOUS
10
140.81
20
-88.7107
11
140.952
21
-88.7107
0
LINE
8
BLACK
6
CONTINUOUS
10
140.952
20
-88.7107
11
140.953
21
-88.7107
0
LINE
8
BLACK
6
CONTINUOUS
10
140.953
20
-88.7107
11
140.956
21
-88.711
0
LINE
8
BLACK
6
CONTINUOUS
10
140.956
20
-88.711
11
140.958
21
-88.7109
0
LINE
8
BLACK
6
CONTINUOUS
10
140.958
20
-88.7109
11
140.963
21
-88.7118
0
LINE
8
BLACK
6
CONTINUOUS
10
140.963
20
-88.7118
11
140.968
21
-88.7124
0
LINE
8
BLACK
6
CONTINUOUS
10
140.968
20
-88.7124
11
140.97
21
-88.713
0
LINE
8
BLACK
6
CONTINUOUS
10
140.97
20
-88.713
11
140.972
21
-88.7134
0
LINE
8
BLACK
6
CONTINUOUS
10
140.972
20
-88.7134
11
140.977
21
-88.7152
0
LINE
8
BLACK
6
CONTINUOUS
10
140.977
20
-88.7152
11
140.982
21
-88.7168
0
LINE
8
BLACK
6
CONTINUOUS
10
140.982
20
-88.7168
11
140.984
21
-88.7178
0
LINE
8
BLACK
6
CONTINUOUS
10
140.984
20
-88.7178
11
140.986
21
-88.7186
0
LINE
8
BLACK
6
CONTINUOUS
10
140.986
20
-88.7186
11
141.081
21
-88.7663
0
LINE
8
BLACK
6
CONTINUOUS
10
141.081
20
-88.7663
11
141.082
21
-88.7667
0
LINE
8
BLACK
6
CONTINUOUS
10
141.082
20
-88.7667
11
141.083
21
-88.7676
0
LINE
8
BLACK
6
CONTINUOUS
10
141.083
20
-88.7676
11
141.085
21
-88.7683
0
LINE
8
BLACK
6
CONTINUOUS
10
141.085
20
-88.7683
11
141.09
21
-88.7716
0
LINE
8
BLACK
6
CONTINUOUS
10
141.09
20
-88.7716
11
141.094
21
-88.7747
0
LINE
8
BLACK
6
CONTINUOUS
10
141.094
20
-88.7747
11
141.096
21
-88.7758
0
LINE
8
BLACK
6
CONTINUOUS
10
141.096
20
-88.7758
11
141.097
21
-88.7768
0
LINE
8
BLACK
6
CONTINUOUS
10
141.097
20
-88.7768
11
141.101
21
-88.7809
0
LINE
8
BLACK
6
CONTINUOUS
10
141.101
20
-88.7809
11
141.105
21
-88.7849
0
LINE
8
BLACK
6
CONTINUOUS
10
141.105
20
-88.7849
11
141.106
21
-88.7862
0
LINE
8
BLACK
6
CONTINUOUS
10
141.106
20
-88.7862
11
141.107
21
-88.7874
0
LINE
8
BLACK
6
CONTINUOUS
10
141.107
20
-88.7874
11
141.11
21
-88.7922
0
LINE
8
BLACK
6
CONTINUOUS
10
141.11
20
-88.7922
11
141.113
21
-88.7969
0
LINE
8
BLACK
6
CONTINUOUS
10
141.113
20
-88.7969
11
141.114
21
-88.7984
0
LINE
8
BLACK
6
CONTINUOUS
10
141.114
20
-88.7984
11
141.115
21
-88.7998
0
LINE
8
BLACK
6
CONTINUOUS
10
141.115
20
-88.7998
11
141.162
21
-88.895
0
LINE
8
BLACK
6
CONTINUOUS
10
141.162
20
-88.895
11
141.163
21
-88.896
0
LINE
8
BLACK
6
CONTINUOUS
10
141.163
20
-88.896
11
141.164
21
-88.898
0
LINE
8
BLACK
6
CONTINUOUS
10
141.164
20
-88.898
11
141.165
21
-88.9
0
LINE
8
BLACK
6
CONTINUOUS
10
141.165
20
-88.9
11
141.166
21
-88.9049
0
LINE
8
BLACK
6
CONTINUOUS
10
141.166
20
-88.9049
11
141.168
21
-88.9097
0
LINE
8
BLACK
6
CONTINUOUS
10
141.168
20
-88.9097
11
141.168
21
-88.9119
0
LINE
8
BLACK
6
CONTINUOUS
10
141.168
20
-88.9119
11
141.169
21
-88.914
0
LINE
8
BLACK
6
CONTINUOUS
10
141.169
20
-88.914
11
141.169
21
-88.9191
0
LINE
8
BLACK
6
CONTINUOUS
10
141.169
20
-88.9191
11
141.17
21
-88.9242
0
LINE
8
BLACK
6
CONTINUOUS
10
141.17
20
-88.9242
11
141.17
21
-88.9264
0
LINE
8
BLACK
6
CONTINUOUS
10
141.17
20
-88.9264
11
141.17
21
-88.9286
0
LINE
8
BLACK
6
CONTINUOUS
10
141.17
20
-88.9286
11
141.17
21
-89.4524
0
LINE
8
BLACK
6
CONTINUOUS
10
141.17
20
-89.4524
11
141.17
21
-89.4534
0
LINE
8
BLACK
6
CONTINUOUS
10
141.17
20
-89.4534
11
141.169
21
-89.468
0
LINE
8
BLACK
6
CONTINUOUS
10
141.169
20
-89.468
11
141.164
21
-89.4819
0
LINE
8
BLACK
6
CONTINUOUS
10
141.164
20
-89.4819
11
141.157
21
-89.4948
0
LINE
8
BLACK
6
CONTINUOUS
10
141.157
20
-89.4948
11
141.148
21
-89.506
0
LINE
8
BLACK
6
CONTINUOUS
10
141.148
20
-89.506
11
141.136
21
-89.5151
0
LINE
8
BLACK
6
CONTINUOUS
10
141.136
20
-89.5151
11
141.123
21
-89.5219
0
LINE
8
BLACK
6
CONTINUOUS
10
141.123
20
-89.5219
11
141.109
21
-89.5261
0
LINE
8
BLACK
6
CONTINUOUS
10
141.109
20
-89.5261
11
141.095
21
-89.5274
0
LINE
8
BLACK
6
CONTINUOUS
10
141.095
20
-89.5274
11
141.08
21
-89.5258
0
LINE
8
BLACK
6
CONTINUOUS
10
141.08
20
-89.5258
11
141.066
21
-89.5215
0
LINE
8
BLACK
6
CONTINUOUS
10
141.066
20
-89.5215
11
141.053
21
-89.5146
0
LINE
8
BLACK
6
CONTINUOUS
10
141.053
20
-89.5146
11
141.042
21
-89.5052
0
LINE
8
BLACK
6
CONTINUOUS
10
141.042
20
-89.5052
11
141.033
21
-89.4939
0
LINE
8
BLACK
6
CONTINUOUS
10
141.033
20
-89.4939
11
141.026
21
-89.481
0
LINE
8
BLACK
6
CONTINUOUS
10
141.026
20
-89.481
11
141.022
21
-89.4669
0
LINE
8
BLACK
6
CONTINUOUS
10
141.022
20
-89.4669
11
141.02
21
-89.4524
0
LINE
8
BLACK
6
CONTINUOUS
10
141.02
20
-89.4524
11
141.02
21
-88.9463
0
LINE
8
BLACK
6
CONTINUOUS
10
141.02
20
-88.9463
11
140.992
21
-88.8892
0
LINE
8
BLACK
6
CONTINUOUS
10
140.992
20
-88.8892
11
140.935
21
-88.8607
0
LINE
8
BLACK
6
CONTINUOUS
10
140.935
20
-88.8607
11
140.827
21
-88.8607
0
LINE
8
BLACK
6
CONTINUOUS
10
140.827
20
-88.8607
11
140.77
21
-88.8892
0
LINE
8
BLACK
6
CONTINUOUS
10
140.77
20
-88.8892
11
140.742
21
-88.9463
0
LINE
8
BLACK
6
CONTINUOUS
10
140.742
20
-88.9463
11
140.742
21
-89.4524
0
LINE
8
BLACK
6
CONTINUOUS
10
140.742
20
-89.4524
11
140.742
21
-89.4534
0
LINE
8
BLACK
6
CONTINUOUS
10
140.742
20
-89.4534
11
140.74
21
-89.468
0
LINE
8
BLACK
6
CONTINUOUS
10
140.74
20
-89.468
11
140.736
21
-89.4819
0
LINE
8
BLACK
6
CONTINUOUS
10
140.736
20
-89.4819
11
140.729
21
-89.4948
0
LINE
8
BLACK
6
CONTINUOUS
10
140.729
20
-89.4948
11
140.719
21
-89.506
0
LINE
8
BLACK
6
CONTINUOUS
10
140.719
20
-89.506
11
140.708
21
-89.5151
0
LINE
8
BLACK
6
CONTINUOUS
10
140.708
20
-89.5151
11
140.695
21
-89.5219
0
LINE
8
BLACK
6
CONTINUOUS
10
140.695
20
-89.5219
11
140.681
21
-89.5261
0
LINE
8
BLACK
6
CONTINUOUS
10
140.681
20
-89.5261
11
140.666
21
-89.5274
0
LINE
8
BLACK
6
CONTINUOUS
10
140.666
20
-89.5274
11
140.652
21
-89.5258
0
LINE
8
BLACK
6
CONTINUOUS
10
140.652
20
-89.5258
11
140.638
21
-89.5215
0
LINE
8
BLACK
6
CONTINUOUS
10
140.638
20
-89.5215
11
140.625
21
-89.5146
0
LINE
8
BLACK
6
CONTINUOUS
10
140.625
20
-89.5146
11
140.613
21
-89.5052
0
LINE
8
BLACK
6
CONTINUOUS
10
140.613
20
-89.5052
11
140.604
21
-89.4939
0
LINE
8
BLACK
6
CONTINUOUS
10
140.604
20
-89.4939
11
140.597
21
-89.481
0
LINE
8
BLACK
6
CONTINUOUS
10
140.597
20
-89.481
11
140.593
21
-89.4669
0
LINE
8
BLACK
6
CONTINUOUS
10
140.593
20
-89.4669
11
140.592
21
-89.4524
0
LINE
8
BLACK
6
CONTINUOUS
10
140.592
20
-89.4524
11
140.592
21
-88.9463
0
LINE
8
BLACK
6
CONTINUOUS
10
140.592
20
-88.9463
11
140.563
21
-88.8892
0
LINE
8
BLACK
6
CONTINUOUS
10
140.563
20
-88.8892
11
140.506
21
-88.8607
0
LINE
8
BLACK
6
CONTINUOUS
10
140.506
20
-88.8607
11
140.399
21
-88.8607
0
LINE
8
BLACK
6
CONTINUOUS
10
140.399
20
-88.8607
11
140.33
21
-88.895
0
LINE
8
BLACK
6
CONTINUOUS
10
140.33
20
-88.895
11
140.313
21
-88.912
0
LINE
8
BLACK
6
CONTINUOUS
10
140.313
20
-88.912
11
140.313
21
-89.4524
0
LINE
8
BLACK
6
CONTINUOUS
10
140.313
20
-89.4524
11
140.313
21
-89.4534
0
LINE
8
BLACK
6
CONTINUOUS
10
140.313
20
-89.4534
11
140.311
21
-89.468
0
LINE
8
BLACK
6
CONTINUOUS
10
140.311
20
-89.468
11
140.307
21
-89.4819
0
LINE
8
BLACK
6
CONTINUOUS
10
140.307
20
-89.4819
11
140.3
21
-89.4948
0
LINE
8
BLACK
6
CONTINUOUS
10
140.3
20
-89.4948
11
140.291
21
-89.506
0
LINE
8
BLACK
6
CONTINUOUS
10
140.291
20
-89.506
11
140.279
21
-89.5151
0
LINE
8
BLACK
6
CONTINUOUS
10
140.279
20
-89.5151
11
140.266
21
-89.5219
0
LINE
8
BLACK
6
CONTINUOUS
10
140.266
20
-89.5219
11
140.252
21
-89.5261
0
LINE
8
BLACK
6
CONTINUOUS
10
140.252
20
-89.5261
11
140.238
21
-89.5274
0
LINE
8
BLACK
6
CONTINUOUS
10
140.238
20
-89.5274
11
140.223
21
-89.5258
0
LINE
8
BLACK
6
CONTINUOUS
10
140.223
20
-89.5258
11
140.209
21
-89.5215
0
LINE
8
BLACK
6
CONTINUOUS
10
140.209
20
-89.5215
11
140.196
21
-89.5146
0
LINE
8
BLACK
6
CONTINUOUS
10
140.196
20
-89.5146
11
140.185
21
-89.5052
0
LINE
8
BLACK
6
CONTINUOUS
10
140.185
20
-89.5052
11
140.176
21
-89.4939
0
LINE
8
BLACK
6
CONTINUOUS
10
140.176
20
-89.4939
11
140.169
21
-89.481
0
LINE
8
BLACK
6
CONTINUOUS
10
140.169
20
-89.481
11
140.165
21
-89.4669
0
LINE
8
BLACK
6
CONTINUOUS
10
140.165
20
-89.4669
11
140.163
21
-89.4524
0
LINE
8
BLACK
6
CONTINUOUS
10
140.163
20
-89.4524
11
140.163
21
-88.7857
0
LINE
8
BLACK
6
CONTINUOUS
10
140.163
20
-88.7857
11
140.163
21
-88.7847
0
LINE
8
BLACK
6
CONTINUOUS
10
140.163
20
-88.7847
11
140.165
21
-88.7701
0
LINE
8
BLACK
6
CONTINUOUS
10
140.165
20
-88.7701
11
140.169
21
-88.7562
0
LINE
8
BLACK
6
CONTINUOUS
10
140.169
20
-88.7562
11
140.176
21
-88.7433
0
LINE
8
BLACK
6
CONTINUOUS
10
140.176
20
-88.7433
11
140.186
21
-88.7321
0
LINE
8
BLACK
6
CONTINUOUS
10
140.186
20
-88.7321
11
140.197
21
-88.723
0
LINE
8
BLACK
6
CONTINUOUS
10
140.197
20
-88.723
11
140.21
21
-88.7162
0
LINE
8
BLACK
6
CONTINUOUS
10
140.21
20
-88.7162
11
140.224
21
-88.712
0
LINE
8
BLACK
6
CONTINUOUS
10
140.224
20
-88.712
11
140.239
21
-88.7107
0
LINE
8
BLACK
6
CONTINUOUS
10
140.239
20
-88.7107
11
140.253
21
-88.7122
0
LINE
8
BLACK
6
CONTINUOUS
10
140.253
20
-88.7122
11
140.267
21
-88.7166
0
LINE
8
BLACK
6
CONTINUOUS
10
140.267
20
-88.7166
11
140.28
21
-88.7235
0
LINE
8
BLACK
6
CONTINUOUS
10
140.28
20
-88.7235
11
140.291
21
-88.7329
0
LINE
8
BLACK
6
CONTINUOUS
10
140.291
20
-88.7329
11
140.299
21
-88.7427
0
LINE
8
BLACK
6
CONTINUOUS
10
140.299
20
-88.7427
11
140.347
21
-88.7186
0
LINE
8
BLACK
6
CONTINUOUS
10
140.347
20
-88.7186
11
140.348
21
-88.7182
0
LINE
8
BLACK
6
CONTINUOUS
10
140.348
20
-88.7182
11
140.35
21
-88.7174
0
LINE
8
BLACK
6
CONTINUOUS
10
140.35
20
-88.7174
11
140.352
21
-88.7164
0
LINE
8
BLACK
6
CONTINUOUS
10
140.352
20
-88.7164
11
140.357
21
-88.7149
0
LINE
8
BLACK
6
CONTINUOUS
10
140.357
20
-88.7149
11
140.362
21
-88.7131
0
LINE
8
BLACK
6
CONTINUOUS
10
140.362
20
-88.7131
11
140.364
21
-88.7128
0
LINE
8
BLACK
6
CONTINUOUS
10
140.364
20
-88.7128
11
140.366
21
-88.7121
0
LINE
8
BLACK
6
CONTINUOUS
10
140.366
20
-88.7121
11
140.371
21
-88.7116
0
LINE
8
BLACK
6
CONTINUOUS
10
140.371
20
-88.7116
11
140.377
21
-88.7108
0
LINE
8
BLACK
6
CONTINUOUS
10
140.377
20
-88.7108
11
140.379
21
-88.7109
0
LINE
8
BLACK
6
CONTINUOUS
10
140.379
20
-88.7109
11
140.381
21
-88.7107
0
LINE
8
BLACK
6
CONTINUOUS
10
140.381
20
-88.7107
11
140.524
21
-88.7107
0
LINE
8
BLACK
6
CONTINUOUS
10
140.524
20
-88.7107
11
140.525
21
-88.7107
0
LINE
8
BLACK
6
CONTINUOUS
10
141.858
20
-88.7107
11
141.86
21
-88.711
0
LINE
8
BLACK
6
CONTINUOUS
10
141.86
20
-88.711
11
141.863
21
-88.7109
0
LINE
8
BLACK
6
CONTINUOUS
10
141.863
20
-88.7109
11
141.868
21
-88.7118
0
LINE
8
BLACK
6
CONTINUOUS
10
141.868
20
-88.7118
11
141.873
21
-88.7124
0
LINE
8
BLACK
6
CONTINUOUS
10
141.873
20
-88.7124
11
141.875
21
-88.713
0
LINE
8
BLACK
6
CONTINUOUS
10
141.875
20
-88.713
11
141.877
21
-88.7134
0
LINE
8
BLACK
6
CONTINUOUS
10
141.877
20
-88.7134
11
141.882
21
-88.7152
0
LINE
8
BLACK
6
CONTINUOUS
10
141.882
20
-88.7152
11
141.887
21
-88.7168
0
LINE
8
BLACK
6
CONTINUOUS
10
141.887
20
-88.7168
11
141.889
21
-88.7178
0
LINE
8
BLACK
6
CONTINUOUS
10
141.889
20
-88.7178
11
141.891
21
-88.7186
0
LINE
8
BLACK
6
CONTINUOUS
10
141.891
20
-88.7186
11
141.986
21
-88.7663
0
LINE
8
BLACK
6
CONTINUOUS
10
141.986
20
-88.7663
11
141.987
21
-88.7667
0
LINE
8
BLACK
6
CONTINUOUS
10
141.987
20
-88.7667
11
141.988
21
-88.7676
0
LINE
8
BLACK
6
CONTINUOUS
10
141.988
20
-88.7676
11
141.99
21
-88.7683
0
LINE
8
BLACK
6
CONTINUOUS
10
141.99
20
-88.7683
11
141.994
21
-88.7716
0
LINE
8
BLACK
6
CONTINUOUS
10
141.994
20
-88.7716
11
141.999
21
-88.7747
0
LINE
8
BLACK
6
CONTINUOUS
10
141.999
20
-88.7747
11
142
21
-88.7755
0
LINE
8
BLACK
6
CONTINUOUS
10
142
20
-88.7755
11
142.001
21
-88.7752
0
LINE
8
BLACK
6
CONTINUOUS
10
142.001
20
-88.7752
11
142.002
21
-88.774
0
LINE
8
BLACK
6
CONTINUOUS
10
142.002
20
-88.774
11
142.007
21
-88.771
0
LINE
8
BLACK
6
CONTINUOUS
10
142.007
20
-88.771
11
142.011
21
-88.7678
0
LINE
8
BLACK
6
CONTINUOUS
10
142.011
20
-88.7678
11
142.013
21
-88.7671
0
LINE
8
BLACK
6
CONTINUOUS
10
142.013
20
-88.7671
11
142.014
21
-88.7663
0
LINE
8
BLACK
6
CONTINUOUS
10
142.014
20
-88.7663
11
142.109
21
-88.7186
0
LINE
8
BLACK
6
CONTINUOUS
10
142.109
20
-88.7186
11
142.11
21
-88.7182
0
LINE
8
BLACK
6
CONTINUOUS
10
142.11
20
-88.7182
11
142.112
21
-88.7174
0
LINE
8
BLACK
6
CONTINUOUS
10
142.112
20
-88.7174
11
142.114
21
-88.7164
0
LINE
8
BLACK
6
CONTINUOUS
10
142.114
20
-88.7164
11
142.119
21
-88.7149
0
LINE
8
BLACK
6
CONTINUOUS
10
142.119
20
-88.7149
11
142.124
21
-88.7131
0
LINE
8
BLACK
6
CONTINUOUS
10
142.124
20
-88.7131
11
142.126
21
-88.7128
0
LINE
8
BLACK
6
CONTINUOUS
10
142.126
20
-88.7128
11
142.128
21
-88.7121
0
LINE
8
BLACK
6
CONTINUOUS
10
142.128
20
-88.7121
11
142.133
21
-88.7116
0
LINE
8
BLACK
6
CONTINUOUS
10
142.133
20
-88.7116
11
142.138
21
-88.7108
0
LINE
8
BLACK
6
CONTINUOUS
10
142.138
20
-88.7108
11
142.141
21
-88.7109
0
LINE
8
BLACK
6
CONTINUOUS
10
142.141
20
-88.7109
11
142.143
21
-88.7107
0
LINE
8
BLACK
6
CONTINUOUS
10
142.143
20
-88.7107
11
142.286
21
-88.7107
0
LINE
8
BLACK
6
CONTINUOUS
10
142.286
20
-88.7107
11
142.287
21
-88.7107
0
LINE
8
BLACK
6
CONTINUOUS
10
142.287
20
-88.7107
11
142.289
21
-88.711
0
LINE
8
BLACK
6
CONTINUOUS
10
142.289
20
-88.711
11
142.291
21
-88.7109
0
LINE
8
BLACK
6
CONTINUOUS
10
142.291
20
-88.7109
11
142.296
21
-88.7118
0
LINE
8
BLACK
6
CONTINUOUS
10
142.296
20
-88.7118
11
142.301
21
-88.7124
0
LINE
8
BLACK
6
CONTINUOUS
10
142.301
20
-88.7124
11
142.303
21
-88.713
0
LINE
8
BLACK
6
CONTINUOUS
10
142.303
20
-88.713
11
142.306
21
-88.7134
0
LINE
8
BLACK
6
CONTINUOUS
10
142.306
20
-88.7134
11
142.31
21
-88.7152
0
LINE
8
BLACK
6
CONTINUOUS
10
142.31
20
-88.7152
11
142.315
21
-88.7168
0
LINE
8
BLACK
6
CONTINUOUS
10
142.315
20
-88.7168
11
142.317
21
-88.7178
0
LINE
8
BLACK
6
CONTINUOUS
10
142.317
20
-88.7178
11
142.319
21
-88.7186
0
LINE
8
BLACK
6
CONTINUOUS
10
142.319
20
-88.7186
11
142.414
21
-88.7663
0
LINE
8
BLACK
6
CONTINUOUS
10
142.414
20
-88.7663
11
142.415
21
-88.7667
0
LINE
8
BLACK
6
CONTINUOUS
10
142.415
20
-88.7667
11
142.417
21
-88.7676
0
LINE
8
BLACK
6
CONTINUOUS
10
142.417
20
-88.7676
11
142.418
21
-88.7683
0
LINE
8
BLACK
6
CONTINUOUS
10
142.418
20
-88.7683
11
142.423
21
-88.7716
0
LINE
8
BLACK
6
CONTINUOUS
10
142.423
20
-88.7716
11
142.428
21
-88.7747
0
LINE
8
BLACK
6
CONTINUOUS
10
142.428
20
-88.7747
11
142.429
21
-88.7758
0
LINE
8
BLACK
6
CONTINUOUS
10
142.429
20
-88.7758
11
142.43
21
-88.7768
0
LINE
8
BLACK
6
CONTINUOUS
10
142.43
20
-88.7768
11
142.434
21
-88.7809
0
LINE
8
BLACK
6
CONTINUOUS
10
142.434
20
-88.7809
11
142.438
21
-88.7849
0
LINE
8
BLACK
6
CONTINUOUS
10
142.438
20
-88.7849
11
142.439
21
-88.7862
0
LINE
8
BLACK
6
CONTINUOUS
10
142.439
20
-88.7862
11
142.44
21
-88.7874
0
LINE
8
BLACK
6
CONTINUOUS
10
142.44
20
-88.7874
11
142.443
21
-88.7922
0
LINE
8
BLACK
6
CONTINUOUS
10
142.443
20
-88.7922
11
142.447
21
-88.7969
0
LINE
8
BLACK
6
CONTINUOUS
10
142.447
20
-88.7969
11
142.447
21
-88.7984
0
LINE
8
BLACK
6
CONTINUOUS
10
142.447
20
-88.7984
11
142.448
21
-88.7998
0
LINE
8
BLACK
6
CONTINUOUS
10
142.448
20
-88.7998
11
142.496
21
-88.895
0
LINE
8
BLACK
6
CONTINUOUS
10
142.496
20
-88.895
11
142.496
21
-88.896
0
LINE
8
BLACK
6
CONTINUOUS
10
142.496
20
-88.896
11
142.497
21
-88.898
0
LINE
8
BLACK
6
CONTINUOUS
10
142.497
20
-88.898
11
142.498
21
-88.9
0
LINE
8
BLACK
6
CONTINUOUS
10
142.498
20
-88.9
11
142.499
21
-88.9049
0
LINE
8
BLACK
6
CONTINUOUS
10
142.499
20
-88.9049
11
142.501
21
-88.9097
0
LINE
8
BLACK
6
CONTINUOUS
10
142.501
20
-88.9097
11
142.502
21
-88.9119
0
LINE
8
BLACK
6
CONTINUOUS
10
142.502
20
-88.9119
11
142.502
21
-88.914
0
LINE
8
BLACK
6
CONTINUOUS
10
142.502
20
-88.914
11
142.503
21
-88.9191
0
LINE
8
BLACK
6
CONTINUOUS
10
142.503
20
-88.9191
11
142.503
21
-88.9242
0
LINE
8
BLACK
6
CONTINUOUS
10
142.503
20
-88.9242
11
142.503
21
-88.9264
0
LINE
8
BLACK
6
CONTINUOUS
10
142.503
20
-88.9264
11
142.504
21
-88.9286
0
LINE
8
BLACK
6
CONTINUOUS
10
142.504
20
-88.9286
11
142.504
21
-89.4524
0
LINE
8
BLACK
6
CONTINUOUS
10
142.504
20
-89.4524
11
142.504
21
-89.4534
0
LINE
8
BLACK
6
CONTINUOUS
10
142.504
20
-89.4534
11
142.502
21
-89.468
0
LINE
8
BLACK
6
CONTINUOUS
10
142.502
20
-89.468
11
142.498
21
-89.4819
0
LINE
8
BLACK
6
CONTINUOUS
10
142.498
20
-89.4819
11
142.49
21
-89.4948
0
LINE
8
BLACK
6
CONTINUOUS
10
142.49
20
-89.4948
11
142.481
21
-89.506
0
LINE
8
BLACK
6
CONTINUOUS
10
142.481
20
-89.506
11
142.47
21
-89.5151
0
LINE
8
BLACK
6
CONTINUOUS
10
142.47
20
-89.5151
11
142.457
21
-89.5219
0
LINE
8
BLACK
6
CONTINUOUS
10
142.457
20
-89.5219
11
142.443
21
-89.5261
0
LINE
8
BLACK
6
CONTINUOUS
10
142.443
20
-89.5261
11
142.428
21
-89.5274
0
LINE
8
BLACK
6
CONTINUOUS
10
142.428
20
-89.5274
11
142.413
21
-89.5258
0
LINE
8
BLACK
6
CONTINUOUS
10
142.413
20
-89.5258
11
142.4
21
-89.5215
0
LINE
8
BLACK
6
CONTINUOUS
10
142.4
20
-89.5215
11
142.387
21
-89.5146
0
LINE
8
BLACK
6
CONTINUOUS
10
142.387
20
-89.5146
11
142.375
21
-89.5052
0
LINE
8
BLACK
6
CONTINUOUS
10
142.375
20
-89.5052
11
142.366
21
-89.4939
0
LINE
8
BLACK
6
CONTINUOUS
10
142.366
20
-89.4939
11
142.359
21
-89.481
0
LINE
8
BLACK
6
CONTINUOUS
10
142.359
20
-89.481
11
142.355
21
-89.4669
0
LINE
8
BLACK
6
CONTINUOUS
10
142.355
20
-89.4669
11
142.354
21
-89.4524
0
LINE
8
BLACK
6
CONTINUOUS
10
142.354
20
-89.4524
11
142.354
21
-88.9463
0
LINE
8
BLACK
6
CONTINUOUS
10
142.354
20
-88.9463
11
142.325
21
-88.8892
0
LINE
8
BLACK
6
CONTINUOUS
10
142.325
20
-88.8892
11
142.268
21
-88.8607
0
LINE
8
BLACK
6
CONTINUOUS
10
142.268
20
-88.8607
11
142.161
21
-88.8607
0
LINE
8
BLACK
6
CONTINUOUS
10
142.161
20
-88.8607
11
142.104
21
-88.8892
0
LINE
8
BLACK
6
CONTINUOUS
10
142.104
20
-88.8892
11
142.075
21
-88.9463
0
LINE
8
BLACK
6
CONTINUOUS
10
142.075
20
-88.9463
11
142.075
21
-89.4524
0
LINE
8
BLACK
6
CONTINUOUS
10
142.075
20
-89.4524
11
142.075
21
-89.4534
0
LINE
8
BLACK
6
CONTINUOUS
10
142.075
20
-89.4534
11
142.073
21
-89.468
0
LINE
8
BLACK
6
CONTINUOUS
10
142.073
20
-89.468
11
142.069
21
-89.4819
0
LINE
8
BLACK
6
CONTINUOUS
10
142.069
20
-89.4819
11
142.062
21
-89.4948
0
LINE
8
BLACK
6
CONTINUOUS
10
142.062
20
-89.4948
11
142.052
21
-89.506
0
LINE
8
BLACK
6
CONTINUOUS
10
142.052
20
-89.506
11
142.041
21
-89.5151
0
LINE
8
BLACK
6
CONTINUOUS
10
142.041
20
-89.5151
11
142.028
21
-89.5219
0
LINE
8
BLACK
6
CONTINUOUS
10
142.028
20
-89.5219
11
142.014
21
-89.5261
0
LINE
8
BLACK
6
CONTINUOUS
10
142.014
20
-89.5261
11
141.999
21
-89.5274
0
LINE
8
BLACK
6
CONTINUOUS
10
141.999
20
-89.5274
11
141.985
21
-89.5258
0
LINE
8
BLACK
6
CONTINUOUS
10
141.985
20
-89.5258
11
141.971
21
-89.5215
0
LINE
8
BLACK
6
CONTINUOUS
10
141.971
20
-89.5215
11
141.958
21
-89.5146
0
LINE
8
BLACK
6
CONTINUOUS
10
141.958
20
-89.5146
11
141.947
21
-89.5052
0
LINE
8
BLACK
6
CONTINUOUS
10
141.947
20
-89.5052
11
141.938
21
-89.4939
0
LINE
8
BLACK
6
CONTINUOUS
10
141.938
20
-89.4939
11
141.931
21
-89.481
0
LINE
8
BLACK
6
CONTINUOUS
10
141.931
20
-89.481
11
141.926
21
-89.4669
0
LINE
8
BLACK
6
CONTINUOUS
10
141.926
20
-89.4669
11
141.925
21
-89.4524
0
LINE
8
BLACK
6
CONTINUOUS
10
141.925
20
-89.4524
11
141.925
21
-88.9463
0
LINE
8
BLACK
6
CONTINUOUS
10
141.925
20
-88.9463
11
141.896
21
-88.8892
0
LINE
8
BLACK
6
CONTINUOUS
10
141.896
20
-88.8892
11
141.839
21
-88.8607
0
LINE
8
BLACK
6
CONTINUOUS
10
141.839
20
-88.8607
11
141.732
21
-88.8607
0
LINE
8
BLACK
6
CONTINUOUS
10
141.732
20
-88.8607
11
141.663
21
-88.895
0
LINE
8
BLACK
6
CONTINUOUS
10
141.663
20
-88.895
11
141.646
21
-88.912
0
LINE
8
BLACK
6
CONTINUOUS
10
141.646
20
-88.912
11
141.646
21
-89.4524
0
LINE
8
BLACK
6
CONTINUOUS
10
141.646
20
-89.4524
11
141.646
21
-89.4534
0
LINE
8
BLACK
6
CONTINUOUS
10
141.646
20
-89.4534
11
141.645
21
-89.468
0
LINE
8
BLACK
6
CONTINUOUS
10
141.645
20
-89.468
11
141.64
21
-89.4819
0
LINE
8
BLACK
6
CONTINUOUS
10
141.64
20
-89.4819
11
141.633
21
-89.4948
0
LINE
8
BLACK
6
CONTINUOUS
10
141.633
20
-89.4948
11
141.624
21
-89.506
0
LINE
8
BLACK
6
CONTINUOUS
10
141.624
20
-89.506
11
141.612
21
-89.5151
0
LINE
8
BLACK
6
CONTINUOUS
10
141.612
20
-89.5151
11
141.6
21
-89.5219
0
LINE
8
BLACK
6
CONTINUOUS
10
141.6
20
-89.5219
11
141.585
21
-89.5261
0
LINE
8
BLACK
6
CONTINUOUS
10
141.585
20
-89.5261
11
141.571
21
-89.5274
0
LINE
8
BLACK
6
CONTINUOUS
10
141.571
20
-89.5274
11
141.556
21
-89.5258
0
LINE
8
BLACK
6
CONTINUOUS
10
141.556
20
-89.5258
11
141.542
21
-89.5215
0
LINE
8
BLACK
6
CONTINUOUS
10
141.542
20
-89.5215
11
141.529
21
-89.5146
0
LINE
8
BLACK
6
CONTINUOUS
10
141.529
20
-89.5146
11
141.518
21
-89.5052
0
LINE
8
BLACK
6
CONTINUOUS
10
141.518
20
-89.5052
11
141.509
21
-89.4939
0
LINE
8
BLACK
6
CONTINUOUS
10
141.509
20
-89.4939
11
141.502
21
-89.481
0
LINE
8
BLACK
6
CONTINUOUS
10
141.502
20
-89.481
11
141.498
21
-89.4669
0
LINE
8
BLACK
6
CONTINUOUS
10
141.498
20
-89.4669
11
141.496
21
-89.4524
0
LINE
8
BLACK
6
CONTINUOUS
10
141.496
20
-89.4524
11
141.496
21
-88.7857
0
LINE
8
BLACK
6
CONTINUOUS
10
141.496
20
-88.7857
11
141.496
21
-88.7847
0
LINE
8
BLACK
6
CONTINUOUS
10
141.496
20
-88.7847
11
141.498
21
-88.7701
0
LINE
8
BLACK
6
CONTINUOUS
10
141.498
20
-88.7701
11
141.502
21
-88.7562
0
LINE
8
BLACK
6
CONTINUOUS
10
141.502
20
-88.7562
11
141.51
21
-88.7433
0
LINE
8
BLACK
6
CONTINUOUS
10
141.51
20
-88.7433
11
141.519
21
-88.7321
0
LINE
8
BLACK
6
CONTINUOUS
10
141.519
20
-88.7321
11
141.53
21
-88.723
0
LINE
8
BLACK
6
CONTINUOUS
10
141.53
20
-88.723
11
141.543
21
-88.7162
0
LINE
8
BLACK
6
CONTINUOUS
10
141.543
20
-88.7162
11
141.557
21
-88.712
0
LINE
8
BLACK
6
CONTINUOUS
10
141.557
20
-88.712
11
141.572
21
-88.7107
0
LINE
8
BLACK
6
CONTINUOUS
10
141.572
20
-88.7107
11
141.587
21
-88.7122
0
LINE
8
BLACK
6
CONTINUOUS
10
141.587
20
-88.7122
11
141.6
21
-88.7166
0
LINE
8
BLACK
6
CONTINUOUS
10
141.6
20
-88.7166
11
141.613
21
-88.7235
0
LINE
8
BLACK
6
CONTINUOUS
10
141.613
20
-88.7235
11
141.625
21
-88.7329
0
LINE
8
BLACK
6
CONTINUOUS
10
141.625
20
-88.7329
11
141.633
21
-88.7427
0
LINE
8
BLACK
6
CONTINUOUS
10
141.633
20
-88.7427
11
141.681
21
-88.7186
0
LINE
8
BLACK
6
CONTINUOUS
10
141.681
20
-88.7186
11
141.682
21
-88.7182
0
LINE
8
BLACK
6
CONTINUOUS
10
141.682
20
-88.7182
11
141.684
21
-88.7174
0
LINE
8
BLACK
6
CONTINUOUS
10
141.684
20
-88.7174
11
141.686
21
-88.7164
0
LINE
8
BLACK
6
CONTINUOUS
10
141.686
20
-88.7164
11
141.691
21
-88.7149
0
LINE
8
BLACK
6
CONTINUOUS
10
141.691
20
-88.7149
11
141.695
21
-88.7131
0
LINE
8
BLACK
6
CONTINUOUS
10
141.695
20
-88.7131
11
141.698
21
-88.7128
0
LINE
8
BLACK
6
CONTINUOUS
10
141.698
20
-88.7128
11
141.7
21
-88.7121
0
LINE
8
BLACK
6
CONTINUOUS
10
141.7
20
-88.7121
11
141.705
21
-88.7116
0
LINE
8
BLACK
6
CONTINUOUS
10
141.705
20
-88.7116
11
141.71
21
-88.7108
0
LINE
8
BLACK
6
CONTINUOUS
10
141.71
20
-88.7108
11
141.712
21
-88.7109
0
LINE
8
BLACK
6
CONTINUOUS
10
141.712
20
-88.7109
11
141.714
21
-88.7107
0
LINE
8
BLACK
6
CONTINUOUS
10
141.714
20
-88.7107
11
141.857
21
-88.7107
0
LINE
8
BLACK
6
CONTINUOUS
10
141.857
20
-88.7107
11
141.858
21
-88.7107
0
LINE
8
BLACK
6
CONTINUOUS
10
138.144
20
-88.3774
11
138.144
21
-88.3774
0
LINE
8
BLACK
6
CONTINUOUS
10
138.144
20
-88.3774
11
138.144
21
-88.3774
0
LINE
8
BLACK
6
CONTINUOUS
10
138.144
20
-88.3774
11
138.152
21
-88.3782
0
LINE
8
BLACK
6
CONTINUOUS
10
138.152
20
-88.3782
11
138.158
21
-88.379
0
LINE
8
BLACK
6
CONTINUOUS
10
138.158
20
-88.379
11
138.159
21
-88.3791
0
LINE
8
BLACK
6
CONTINUOUS
10
138.159
20
-88.3791
11
138.159
21
-88.3791
0
LINE
8
BLACK
6
CONTINUOUS
10
138.159
20
-88.3791
11
138.166
21
-88.3813
0
LINE
8
BLACK
6
CONTINUOUS
10
138.166
20
-88.3813
11
138.172
21
-88.3834
0
LINE
8
BLACK
6
CONTINUOUS
10
138.172
20
-88.3834
11
138.173
21
-88.3836
0
LINE
8
BLACK
6
CONTINUOUS
10
138.173
20
-88.3836
11
138.173
21
-88.3837
0
LINE
8
BLACK
6
CONTINUOUS
10
138.173
20
-88.3837
11
138.179
21
-88.3871
0
LINE
8
BLACK
6
CONTINUOUS
10
138.179
20
-88.3871
11
138.185
21
-88.3905
0
LINE
8
BLACK
6
CONTINUOUS
10
138.185
20
-88.3905
11
138.185
21
-88.3907
0
LINE
8
BLACK
6
CONTINUOUS
10
138.185
20
-88.3907
11
138.186
21
-88.3908
0
LINE
8
BLACK
6
CONTINUOUS
10
138.186
20
-88.3908
11
138.191
21
-88.3954
0
LINE
8
BLACK
6
CONTINUOUS
10
138.191
20
-88.3954
11
138.196
21
-88.3999
0
LINE
8
BLACK
6
CONTINUOUS
10
138.196
20
-88.3999
11
138.197
21
-88.4001
0
LINE
8
BLACK
6
CONTINUOUS
10
138.197
20
-88.4001
11
138.197
21
-88.4003
0
LINE
8
BLACK
6
CONTINUOUS
10
138.197
20
-88.4003
11
138.201
21
-88.4059
0
LINE
8
BLACK
6
CONTINUOUS
10
138.201
20
-88.4059
11
138.206
21
-88.4113
0
LINE
8
BLACK
6
CONTINUOUS
10
138.206
20
-88.4113
11
138.206
21
-88.4115
0
LINE
8
BLACK
6
CONTINUOUS
10
138.206
20
-88.4115
11
138.206
21
-88.4117
0
LINE
8
BLACK
6
CONTINUOUS
10
138.206
20
-88.4117
11
138.209
21
-88.4181
0
LINE
8
BLACK
6
CONTINUOUS
10
138.209
20
-88.4181
11
138.212
21
-88.4243
0
LINE
8
BLACK
6
CONTINUOUS
10
138.212
20
-88.4243
11
138.212
21
-88.4245
0
LINE
8
BLACK
6
CONTINUOUS
10
138.212
20
-88.4245
11
138.213
21
-88.4248
0
LINE
8
BLACK
6
CONTINUOUS
10
138.213
20
-88.4248
11
138.215
21
-88.4315
0
LINE
8
BLACK
6
CONTINUOUS
10
138.215
20
-88.4315
11
138.217
21
-88.4383
0
LINE
8
BLACK
6
CONTINUOUS
10
138.217
20
-88.4383
11
138.217
21
-88.4386
0
LINE
8
BLACK
6
CONTINUOUS
10
138.217
20
-88.4386
11
138.217
21
-88.4388
0
LINE
8
BLACK
6
CONTINUOUS
10
138.217
20
-88.4388
11
138.217
21
-88.4458
0
LINE
8
BLACK
6
CONTINUOUS
10
138.217
20
-88.4458
11
138.218
21
-88.4529
0
LINE
8
BLACK
6
CONTINUOUS
10
138.218
20
-88.4529
11
138.218
21
-88.4532
0
LINE
8
BLACK
6
CONTINUOUS
10
138.218
20
-88.4532
11
138.218
21
-88.4534
0
LINE
8
BLACK
6
CONTINUOUS
10
138.218
20
-88.4534
11
138.217
21
-88.4605
0
LINE
8
BLACK
6
CONTINUOUS
10
138.217
20
-88.4605
11
138.216
21
-88.4675
0
LINE
8
BLACK
6
CONTINUOUS
10
138.216
20
-88.4675
11
138.216
21
-88.4677
0
LINE
8
BLACK
6
CONTINUOUS
10
138.216
20
-88.4677
11
138.216
21
-88.468
0
LINE
8
BLACK
6
CONTINUOUS
10
138.216
20
-88.468
11
138.214
21
-88.4747
0
LINE
8
BLACK
6
CONTINUOUS
10
138.214
20
-88.4747
11
138.212
21
-88.4814
0
LINE
8
BLACK
6
CONTINUOUS
10
138.212
20
-88.4814
11
138.212
21
-88.4817
0
LINE
8
BLACK
6
CONTINUOUS
10
138.212
20
-88.4817
11
138.212
21
-88.4819
0
LINE
8
BLACK
6
CONTINUOUS
10
138.212
20
-88.4819
11
137.783
21
-89.4819
0
LINE
8
BLACK
6
CONTINUOUS
10
137.783
20
-89.4819
11
137.783
21
-89.4829
0
LINE
8
BLACK
6
CONTINUOUS
10
137.783
20
-89.4829
11
137.776
21
-89.4956
0
LINE
8
BLACK
6
CONTINUOUS
10
137.776
20
-89.4956
11
137.766
21
-89.5067
0
LINE
8
BLACK
6
CONTINUOUS
10
137.766
20
-89.5067
11
137.754
21
-89.5157
0
LINE
8
BLACK
6
CONTINUOUS
10
137.754
20
-89.5157
11
137.741
21
-89.5223
0
LINE
8
BLACK
6
CONTINUOUS
10
137.741
20
-89.5223
11
137.727
21
-89.5262
0
LINE
8
BLACK
6
CONTINUOUS
10
137.727
20
-89.5262
11
137.713
21
-89.5274
0
LINE
8
BLACK
6
CONTINUOUS
10
137.713
20
-89.5274
11
137.698
21
-89.5256
0
LINE
8
BLACK
6
CONTINUOUS
10
137.698
20
-89.5256
11
137.684
21
-89.5211
0
LINE
8
BLACK
6
CONTINUOUS
10
137.684
20
-89.5211
11
137.671
21
-89.514
0
LINE
8
BLACK
6
CONTINUOUS
10
137.671
20
-89.514
11
137.66
21
-89.5045
0
LINE
8
BLACK
6
CONTINUOUS
10
137.66
20
-89.5045
11
137.651
21
-89.493
0
LINE
8
BLACK
6
CONTINUOUS
10
137.651
20
-89.493
11
137.645
21
-89.48
0
LINE
8
BLACK
6
CONTINUOUS
10
137.645
20
-89.48
11
137.641
21
-89.4659
0
LINE
8
BLACK
6
CONTINUOUS
10
137.641
20
-89.4659
11
137.639
21
-89.4513
0
LINE
8
BLACK
6
CONTINUOUS
10
137.639
20
-89.4513
11
137.641
21
-89.4368
0
LINE
8
BLACK
6
CONTINUOUS
10
137.641
20
-89.4368
11
137.645
21
-89.4228
0
LINE
8
BLACK
6
CONTINUOUS
10
137.645
20
-89.4228
11
138.029
21
-88.5274
0
LINE
8
BLACK
6
CONTINUOUS
10
138.029
20
-88.5274
11
137.476
21
-88.5274
0
LINE
8
BLACK
6
CONTINUOUS
10
137.476
20
-88.5274
11
137.475
21
-88.5274
0
LINE
8
BLACK
6
CONTINUOUS
10
137.475
20
-88.5274
11
137.461
21
-88.5257
0
LINE
8
BLACK
6
CONTINUOUS
10
137.461
20
-88.5257
11
137.447
21
-88.5213
0
LINE
8
BLACK
6
CONTINUOUS
10
137.447
20
-88.5213
11
137.434
21
-88.5143
0
LINE
8
BLACK
6
CONTINUOUS
10
137.434
20
-88.5143
11
137.423
21
-88.5049
0
LINE
8
BLACK
6
CONTINUOUS
10
137.423
20
-88.5049
11
137.413
21
-88.4934
0
LINE
8
BLACK
6
CONTINUOUS
10
137.413
20
-88.4934
11
137.407
21
-88.4805
0
LINE
8
BLACK
6
CONTINUOUS
10
137.407
20
-88.4805
11
137.403
21
-88.4664
0
LINE
8
BLACK
6
CONTINUOUS
10
137.403
20
-88.4664
11
137.401
21
-88.4519
0
LINE
8
BLACK
6
CONTINUOUS
10
137.401
20
-88.4519
11
137.403
21
-88.4373
0
LINE
8
BLACK
6
CONTINUOUS
10
137.403
20
-88.4373
11
137.407
21
-88.4233
0
LINE
8
BLACK
6
CONTINUOUS
10
137.407
20
-88.4233
11
137.414
21
-88.4104
0
LINE
8
BLACK
6
CONTINUOUS
10
137.414
20
-88.4104
11
137.423
21
-88.3992
0
LINE
8
BLACK
6
CONTINUOUS
10
137.423
20
-88.3992
11
137.435
21
-88.3899
0
LINE
8
BLACK
6
CONTINUOUS
10
137.435
20
-88.3899
11
137.448
21
-88.383
0
LINE
8
BLACK
6
CONTINUOUS
10
137.448
20
-88.383
11
137.462
21
-88.3788
0
LINE
8
BLACK
6
CONTINUOUS
10
137.462
20
-88.3788
11
137.476
21
-88.3774
0
LINE
8
BLACK
6
CONTINUOUS
10
137.476
20
-88.3774
11
138.143
21
-88.3774
0
LINE
8
BLACK
6
CONTINUOUS
10
138.143
20
-88.3774
11
138.144
21
-88.3774
0
LINE
8
BLACK
6
CONTINUOUS
10
124.096
20
-73.3774
11
124.101
21
-73.3779
0
LINE
8
BLACK
6
CONTINUOUS
10
124.101
20
-73.3779
11
124.106
21
-73.3781
0
LINE
8
BLACK
6
CONTINUOUS
10
124.106
20
-73.3781
11
124.108
21
-73.3787
0
LINE
8
BLACK
6
CONTINUOUS
10
124.108
20
-73.3787
11
124.111
21
-73.379
0
LINE
8
BLACK
6
CONTINUOUS
10
124.111
20
-73.379
11
124.115
21
-73.3804
0
LINE
8
BLACK
6
CONTINUOUS
10
124.115
20
-73.3804
11
124.12
21
-73.3815
0
LINE
8
BLACK
6
CONTINUOUS
10
124.12
20
-73.3815
11
124.122
21
-73.3826
0
LINE
8
BLACK
6
CONTINUOUS
10
124.122
20
-73.3826
11
124.125
21
-73.3834
0
LINE
8
BLACK
6
CONTINUOUS
10
124.125
20
-73.3834
11
124.129
21
-73.3857
0
LINE
8
BLACK
6
CONTINUOUS
10
124.129
20
-73.3857
11
124.133
21
-73.3877
0
LINE
8
BLACK
6
CONTINUOUS
10
124.133
20
-73.3877
11
124.135
21
-73.3892
0
LINE
8
BLACK
6
CONTINUOUS
10
124.135
20
-73.3892
11
124.138
21
-73.3905
0
LINE
8
BLACK
6
CONTINUOUS
10
124.138
20
-73.3905
11
124.141
21
-73.3935
0
LINE
8
BLACK
6
CONTINUOUS
10
124.141
20
-73.3935
11
124.145
21
-73.3963
0
LINE
8
BLACK
6
CONTINUOUS
10
124.145
20
-73.3963
11
124.147
21
-73.3982
0
LINE
8
BLACK
6
CONTINUOUS
10
124.147
20
-73.3982
11
124.149
21
-73.3999
0
LINE
8
BLACK
6
CONTINUOUS
10
124.149
20
-73.3999
11
124.152
21
-73.4036
0
LINE
8
BLACK
6
CONTINUOUS
10
124.152
20
-73.4036
11
124.155
21
-73.407
0
LINE
8
BLACK
6
CONTINUOUS
10
124.155
20
-73.407
11
124.156
21
-73.4093
0
LINE
8
BLACK
6
CONTINUOUS
10
124.156
20
-73.4093
11
124.158
21
-73.4113
0
LINE
8
BLACK
6
CONTINUOUS
10
124.158
20
-73.4113
11
124.16
21
-73.4155
0
LINE
8
BLACK
6
CONTINUOUS
10
124.16
20
-73.4155
11
124.163
21
-73.4195
0
LINE
8
BLACK
6
CONTINUOUS
10
124.163
20
-73.4195
11
124.164
21
-73.422
0
LINE
8
BLACK
6
CONTINUOUS
10
124.164
20
-73.422
11
124.165
21
-73.4243
0
LINE
8
BLACK
6
CONTINUOUS
10
124.165
20
-73.4243
11
124.166
21
-73.4288
0
LINE
8
BLACK
6
CONTINUOUS
10
124.166
20
-73.4288
11
124.168
21
-73.4332
0
LINE
8
BLACK
6
CONTINUOUS
10
124.168
20
-73.4332
11
124.168
21
-73.4358
0
LINE
8
BLACK
6
CONTINUOUS
10
124.168
20
-73.4358
11
124.169
21
-73.4383
0
LINE
8
BLACK
6
CONTINUOUS
10
124.169
20
-73.4383
11
124.169
21
-73.443
0
LINE
8
BLACK
6
CONTINUOUS
10
124.169
20
-73.443
11
124.17
21
-73.4477
0
LINE
8
BLACK
6
CONTINUOUS
10
124.17
20
-73.4477
11
124.17
21
-73.4503
0
LINE
8
BLACK
6
CONTINUOUS
10
124.17
20
-73.4503
11
124.17
21
-73.4529
0
LINE
8
BLACK
6
CONTINUOUS
10
124.17
20
-73.4529
11
124.17
21
-73.4576
0
LINE
8
BLACK
6
CONTINUOUS
10
124.17
20
-73.4576
11
124.17
21
-73.4623
0
LINE
8
BLACK
6
CONTINUOUS
10
124.17
20
-73.4623
11
124.169
21
-73.4648
0
LINE
8
BLACK
6
CONTINUOUS
10
124.169
20
-73.4648
11
124.169
21
-73.4675
0
LINE
8
BLACK
6
CONTINUOUS
10
124.169
20
-73.4675
11
124.167
21
-73.472
0
LINE
8
BLACK
6
CONTINUOUS
10
124.167
20
-73.472
11
124.166
21
-73.4765
0
LINE
8
BLACK
6
CONTINUOUS
10
124.166
20
-73.4765
11
124.165
21
-73.4789
0
LINE
8
BLACK
6
CONTINUOUS
10
124.165
20
-73.4789
11
124.164
21
-73.4814
0
LINE
8
BLACK
6
CONTINUOUS
10
124.164
20
-73.4814
11
124.162
21
-73.4856
0
LINE
8
BLACK
6
CONTINUOUS
10
124.162
20
-73.4856
11
124.16
21
-73.4899
0
LINE
8
BLACK
6
CONTINUOUS
10
124.16
20
-73.4899
11
124.159
21
-73.492
0
LINE
8
BLACK
6
CONTINUOUS
10
124.159
20
-73.492
11
124.157
21
-73.4943
0
LINE
8
BLACK
6
CONTINUOUS
10
124.157
20
-73.4943
11
124.154
21
-73.4979
0
LINE
8
BLACK
6
CONTINUOUS
10
124.154
20
-73.4979
11
124.152
21
-73.5018
0
LINE
8
BLACK
6
CONTINUOUS
10
124.152
20
-73.5018
11
123.925
21
-73.7611
0
LINE
8
BLACK
6
CONTINUOUS
10
123.925
20
-73.7611
11
123.929
21
-73.7629
0
LINE
8
BLACK
6
CONTINUOUS
10
123.929
20
-73.7629
11
123.934
21
-73.7644
0
LINE
8
BLACK
6
CONTINUOUS
10
123.934
20
-73.7644
11
123.936
21
-73.7655
0
LINE
8
BLACK
6
CONTINUOUS
10
123.936
20
-73.7655
11
123.938
21
-73.7663
0
LINE
8
BLACK
6
CONTINUOUS
10
123.938
20
-73.7663
11
124.034
21
-73.8139
0
LINE
8
BLACK
6
CONTINUOUS
10
124.034
20
-73.8139
11
124.034
21
-73.8143
0
LINE
8
BLACK
6
CONTINUOUS
10
124.034
20
-73.8143
11
124.038
21
-73.8166
0
LINE
8
BLACK
6
CONTINUOUS
10
124.038
20
-73.8166
11
124.042
21
-73.8186
0
LINE
8
BLACK
6
CONTINUOUS
10
124.042
20
-73.8186
11
124.044
21
-73.8206
0
LINE
8
BLACK
6
CONTINUOUS
10
124.044
20
-73.8206
11
124.047
21
-73.8223
0
LINE
8
BLACK
6
CONTINUOUS
10
124.047
20
-73.8223
11
124.05
21
-73.8252
0
LINE
8
BLACK
6
CONTINUOUS
10
124.05
20
-73.8252
11
124.053
21
-73.8279
0
LINE
8
BLACK
6
CONTINUOUS
10
124.053
20
-73.8279
11
124.101
21
-73.8755
0
LINE
8
BLACK
6
CONTINUOUS
10
124.101
20
-73.8755
11
124.101
21
-73.8763
0
LINE
8
BLACK
6
CONTINUOUS
10
124.101
20
-73.8763
11
124.104
21
-73.8796
0
LINE
8
BLACK
6
CONTINUOUS
10
124.104
20
-73.8796
11
124.107
21
-73.8826
0
LINE
8
BLACK
6
CONTINUOUS
10
124.107
20
-73.8826
11
124.109
21
-73.8853
0
LINE
8
BLACK
6
CONTINUOUS
10
124.109
20
-73.8853
11
124.111
21
-73.8877
0
LINE
8
BLACK
6
CONTINUOUS
10
124.111
20
-73.8877
11
124.112
21
-73.8915
0
LINE
8
BLACK
6
CONTINUOUS
10
124.112
20
-73.8915
11
124.115
21
-73.895
0
LINE
8
BLACK
6
CONTINUOUS
10
124.115
20
-73.895
11
124.162
21
-73.9903
0
LINE
8
BLACK
6
CONTINUOUS
10
124.162
20
-73.9903
11
124.163
21
-73.9912
0
LINE
8
BLACK
6
CONTINUOUS
10
124.163
20
-73.9912
11
124.164
21
-73.9933
0
LINE
8
BLACK
6
CONTINUOUS
10
124.164
20
-73.9933
11
124.165
21
-73.9952
0
LINE
8
BLACK
6
CONTINUOUS
10
124.165
20
-73.9952
11
124.166
21
-74.0001
0
LINE
8
BLACK
6
CONTINUOUS
10
124.166
20
-74.0001
11
124.168
21
-74.0049
0
LINE
8
BLACK
6
CONTINUOUS
10
124.168
20
-74.0049
11
124.168
21
-74.0071
0
LINE
8
BLACK
6
CONTINUOUS
10
124.168
20
-74.0071
11
124.169
21
-74.0092
0
LINE
8
BLACK
6
CONTINUOUS
10
124.169
20
-74.0092
11
124.169
21
-74.0143
0
LINE
8
BLACK
6
CONTINUOUS
10
124.169
20
-74.0143
11
124.17
21
-74.0194
0
LINE
8
BLACK
6
CONTINUOUS
10
124.17
20
-74.0194
11
124.17
21
-74.0216
0
LINE
8
BLACK
6
CONTINUOUS
10
124.17
20
-74.0216
11
124.17
21
-74.0238
0
LINE
8
BLACK
6
CONTINUOUS
10
124.17
20
-74.0238
11
124.17
21
-74.2619
0
LINE
8
BLACK
6
CONTINUOUS
10
124.17
20
-74.2619
11
124.17
21
-74.263
0
LINE
8
BLACK
6
CONTINUOUS
10
124.17
20
-74.263
11
124.17
21
-74.2651
0
LINE
8
BLACK
6
CONTINUOUS
10
124.17
20
-74.2651
11
124.17
21
-74.2674
0
LINE
8
BLACK
6
CONTINUOUS
10
124.17
20
-74.2674
11
124.169
21
-74.2724
0
LINE
8
BLACK
6
CONTINUOUS
10
124.169
20
-74.2724
11
124.169
21
-74.2775
0
LINE
8
BLACK
6
CONTINUOUS
10
124.169
20
-74.2775
11
124.168
21
-74.2796
0
LINE
8
BLACK
6
CONTINUOUS
10
124.168
20
-74.2796
11
124.168
21
-74.2818
0
LINE
8
BLACK
6
CONTINUOUS
10
124.168
20
-74.2818
11
124.166
21
-74.2866
0
LINE
8
BLACK
6
CONTINUOUS
10
124.166
20
-74.2866
11
124.164
21
-74.2914
0
LINE
8
BLACK
6
CONTINUOUS
10
124.164
20
-74.2914
11
124.163
21
-74.2934
0
LINE
8
BLACK
6
CONTINUOUS
10
124.163
20
-74.2934
11
124.162
21
-74.2954
0
LINE
8
BLACK
6
CONTINUOUS
10
124.162
20
-74.2954
11
124.115
21
-74.3907
0
LINE
8
BLACK
6
CONTINUOUS
10
124.115
20
-74.3907
11
124.114
21
-74.3916
0
LINE
8
BLACK
6
CONTINUOUS
10
124.114
20
-74.3916
11
124.112
21
-74.3952
0
LINE
8
BLACK
6
CONTINUOUS
10
124.112
20
-74.3952
11
124.11
21
-74.3989
0
LINE
8
BLACK
6
CONTINUOUS
10
124.11
20
-74.3989
11
124.108
21
-74.4013
0
LINE
8
BLACK
6
CONTINUOUS
10
124.108
20
-74.4013
11
124.106
21
-74.4039
0
LINE
8
BLACK
6
CONTINUOUS
10
124.106
20
-74.4039
11
124.103
21
-74.4069
0
LINE
8
BLACK
6
CONTINUOUS
10
124.103
20
-74.4069
11
124.101
21
-74.4102
0
LINE
8
BLACK
6
CONTINUOUS
10
124.101
20
-74.4102
11
124.053
21
-74.4578
0
LINE
8
BLACK
6
CONTINUOUS
10
124.053
20
-74.4578
11
124.052
21
-74.4585
0
LINE
8
BLACK
6
CONTINUOUS
10
124.052
20
-74.4585
11
124.049
21
-74.4612
0
LINE
8
BLACK
6
CONTINUOUS
10
124.049
20
-74.4612
11
124.046
21
-74.4641
0
LINE
8
BLACK
6
CONTINUOUS
10
124.046
20
-74.4641
11
124.043
21
-74.4657
0
LINE
8
BLACK
6
CONTINUOUS
10
124.043
20
-74.4657
11
124.041
21
-74.4677
0
LINE
8
BLACK
6
CONTINUOUS
10
124.041
20
-74.4677
11
124.037
21
-74.4696
0
LINE
8
BLACK
6
CONTINUOUS
10
124.037
20
-74.4696
11
124.034
21
-74.4718
0
LINE
8
BLACK
6
CONTINUOUS
10
124.034
20
-74.4718
11
123.938
21
-74.5195
0
LINE
8
BLACK
6
CONTINUOUS
10
123.938
20
-74.5195
11
123.937
21
-74.5199
0
LINE
8
BLACK
6
CONTINUOUS
10
123.937
20
-74.5199
11
123.935
21
-74.5207
0
LINE
8
BLACK
6
CONTINUOUS
10
123.935
20
-74.5207
11
123.933
21
-74.5217
0
LINE
8
BLACK
6
CONTINUOUS
10
123.933
20
-74.5217
11
123.928
21
-74.5232
0
LINE
8
BLACK
6
CONTINUOUS
10
123.928
20
-74.5232
11
123.924
21
-74.525
0
LINE
8
BLACK
6
CONTINUOUS
10
123.924
20
-74.525
11
123.921
21
-74.5253
0
LINE
8
BLACK
6
CONTINUOUS
10
123.921
20
-74.5253
11
123.919
21
-74.526
0
LINE
8
BLACK
6
CONTINUOUS
10
123.919
20
-74.526
11
123.914
21
-74.5265
0
LINE
8
BLACK
6
CONTINUOUS
10
123.914
20
-74.5265
11
123.909
21
-74.5273
0
LINE
8
BLACK
6
CONTINUOUS
10
123.909
20
-74.5273
11
123.907
21
-74.5272
0
LINE
8
BLACK
6
CONTINUOUS
10
123.907
20
-74.5272
11
123.905
21
-74.5274
0
LINE
8
BLACK
6
CONTINUOUS
10
123.905
20
-74.5274
11
123.619
21
-74.5274
0
LINE
8
BLACK
6
CONTINUOUS
10
123.619
20
-74.5274
11
123.618
21
-74.5274
0
LINE
8
BLACK
6
CONTINUOUS
10
123.618
20
-74.5274
11
123.616
21
-74.5271
0
LINE
8
BLACK
6
CONTINUOUS
10
123.616
20
-74.5271
11
123.614
21
-74.5272
0
LINE
8
BLACK
6
CONTINUOUS
10
123.614
20
-74.5272
11
123.609
21
-74.5263
0
LINE
8
BLACK
6
CONTINUOUS
10
123.609
20
-74.5263
11
123.603
21
-74.5257
0
LINE
8
BLACK
6
CONTINUOUS
10
123.603
20
-74.5257
11
123.601
21
-74.5251
0
LINE
8
BLACK
6
CONTINUOUS
10
123.601
20
-74.5251
11
123.599
21
-74.5247
0
LINE
8
BLACK
6
CONTINUOUS
10
123.599
20
-74.5247
11
123.594
21
-74.5229
0
LINE
8
BLACK
6
CONTINUOUS
10
123.594
20
-74.5229
11
123.59
21
-74.5213
0
LINE
8
BLACK
6
CONTINUOUS
10
123.59
20
-74.5213
11
123.588
21
-74.5203
0
LINE
8
BLACK
6
CONTINUOUS
10
123.588
20
-74.5203
11
123.586
21
-74.5195
0
LINE
8
BLACK
6
CONTINUOUS
10
123.586
20
-74.5195
11
123.49
21
-74.4718
0
LINE
8
BLACK
6
CONTINUOUS
10
123.49
20
-74.4718
11
123.489
21
-74.4714
0
LINE
8
BLACK
6
CONTINUOUS
10
123.489
20
-74.4714
11
123.486
21
-74.4691
0
LINE
8
BLACK
6
CONTINUOUS
10
123.486
20
-74.4691
11
123.482
21
-74.4671
0
LINE
8
BLACK
6
CONTINUOUS
10
123.482
20
-74.4671
11
123.48
21
-74.4651
0
LINE
8
BLACK
6
CONTINUOUS
10
123.48
20
-74.4651
11
123.477
21
-74.4634
0
LINE
8
BLACK
6
CONTINUOUS
10
123.477
20
-74.4634
11
123.474
21
-74.4605
0
LINE
8
BLACK
6
CONTINUOUS
10
123.474
20
-74.4605
11
123.471
21
-74.4578
0
LINE
8
BLACK
6
CONTINUOUS
10
123.471
20
-74.4578
11
123.423
21
-74.4102
0
LINE
8
BLACK
6
CONTINUOUS
10
123.423
20
-74.4102
11
123.422
21
-74.4094
0
LINE
8
BLACK
6
CONTINUOUS
10
123.422
20
-74.4094
11
123.413
21
-74.398
0
LINE
8
BLACK
6
CONTINUOUS
10
123.413
20
-74.398
11
123.407
21
-74.385
0
LINE
8
BLACK
6
CONTINUOUS
10
123.407
20
-74.385
11
123.402
21
-74.3709
0
LINE
8
BLACK
6
CONTINUOUS
10
123.402
20
-74.3709
11
123.401
21
-74.3564
0
LINE
8
BLACK
6
CONTINUOUS
10
123.401
20
-74.3564
11
123.403
21
-74.3418
0
LINE
8
BLACK
6
CONTINUOUS
10
123.403
20
-74.3418
11
123.407
21
-74.3278
0
LINE
8
BLACK
6
CONTINUOUS
10
123.407
20
-74.3278
11
123.414
21
-74.315
0
LINE
8
BLACK
6
CONTINUOUS
10
123.414
20
-74.315
11
123.424
21
-74.3037
0
LINE
8
BLACK
6
CONTINUOUS
10
123.424
20
-74.3037
11
123.435
21
-74.2945
0
LINE
8
BLACK
6
CONTINUOUS
10
123.435
20
-74.2945
11
123.448
21
-74.2877
0
LINE
8
BLACK
6
CONTINUOUS
10
123.448
20
-74.2877
11
123.462
21
-74.2835
0
LINE
8
BLACK
6
CONTINUOUS
10
123.462
20
-74.2835
11
123.476
21
-74.2821
0
LINE
8
BLACK
6
CONTINUOUS
10
123.476
20
-74.2821
11
123.491
21
-74.2836
0
LINE
8
BLACK
6
CONTINUOUS
10
123.491
20
-74.2836
11
123.505
21
-74.2879
0
LINE
8
BLACK
6
CONTINUOUS
10
123.505
20
-74.2879
11
123.518
21
-74.2948
0
LINE
8
BLACK
6
CONTINUOUS
10
123.518
20
-74.2948
11
123.529
21
-74.3041
0
LINE
8
BLACK
6
CONTINUOUS
10
123.529
20
-74.3041
11
123.568
21
-74.3431
0
LINE
8
BLACK
6
CONTINUOUS
10
123.568
20
-74.3431
11
123.637
21
-74.3774
0
LINE
8
BLACK
6
CONTINUOUS
10
123.637
20
-74.3774
11
123.887
21
-74.3774
0
LINE
8
BLACK
6
CONTINUOUS
10
123.887
20
-74.3774
11
123.956
21
-74.3431
0
LINE
8
BLACK
6
CONTINUOUS
10
123.956
20
-74.3431
11
123.986
21
-74.3127
0
LINE
8
BLACK
6
CONTINUOUS
10
123.986
20
-74.3127
11
124.02
21
-74.2442
0
LINE
8
BLACK
6
CONTINUOUS
10
124.02
20
-74.2442
11
124.02
21
-74.0415
0
LINE
8
BLACK
6
CONTINUOUS
10
124.02
20
-74.0415
11
123.986
21
-73.973
0
LINE
8
BLACK
6
CONTINUOUS
10
123.986
20
-73.973
11
123.956
21
-73.9426
0
LINE
8
BLACK
6
CONTINUOUS
10
123.956
20
-73.9426
11
123.887
21
-73.9083
0
LINE
8
BLACK
6
CONTINUOUS
10
123.887
20
-73.9083
11
123.762
21
-73.9083
0
LINE
8
BLACK
6
CONTINUOUS
10
123.762
20
-73.9083
11
123.761
21
-73.9083
0
LINE
8
BLACK
6
CONTINUOUS
10
123.761
20
-73.9083
11
123.756
21
-73.9078
0
LINE
8
BLACK
6
CONTINUOUS
10
123.756
20
-73.9078
11
123.751
21
-73.9076
0
LINE
8
BLACK
6
CONTINUOUS
10
123.751
20
-73.9076
11
123.749
21
-73.907
0
LINE
8
BLACK
6
CONTINUOUS
10
123.749
20
-73.907
11
123.746
21
-73.9067
0
LINE
8
BLACK
6
CONTINUOUS
10
123.746
20
-73.9067
11
123.742
21
-73.9053
0
LINE
8
BLACK
6
CONTINUOUS
10
123.742
20
-73.9053
11
123.737
21
-73.9042
0
LINE
8
BLACK
6
CONTINUOUS
10
123.737
20
-73.9042
11
123.735
21
-73.9031
0
LINE
8
BLACK
6
CONTINUOUS
10
123.735
20
-73.9031
11
123.732
21
-73.9023
0
LINE
8
BLACK
6
CONTINUOUS
10
123.732
20
-73.9023
11
123.728
21
-73.9
0
LINE
8
BLACK
6
CONTINUOUS
10
123.728
20
-73.9
11
123.724
21
-73.898
0
LINE
8
BLACK
6
CONTINUOUS
10
123.724
20
-73.898
11
123.722
21
-73.8965
0
LINE
8
BLACK
6
CONTINUOUS
10
123.722
20
-73.8965
11
123.72
21
-73.8952
0
LINE
8
BLACK
6
CONTINUOUS
10
123.72
20
-73.8952
11
123.716
21
-73.8922
0
LINE
8
BLACK
6
CONTINUOUS
10
123.716
20
-73.8922
11
123.712
21
-73.8894
0
LINE
8
BLACK
6
CONTINUOUS
10
123.712
20
-73.8894
11
123.71
21
-73.8875
0
LINE
8
BLACK
6
CONTINUOUS
10
123.71
20
-73.8875
11
123.708
21
-73.8858
0
LINE
8
BLACK
6
CONTINUOUS
10
123.708
20
-73.8858
11
123.705
21
-73.8821
0
LINE
8
BLACK
6
CONTINUOUS
10
123.705
20
-73.8821
11
123.702
21
-73.8787
0
LINE
8
BLACK
6
CONTINUOUS
10
123.702
20
-73.8787
11
123.701
21
-73.8764
0
LINE
8
BLACK
6
CONTINUOUS
10
123.701
20
-73.8764
11
123.699
21
-73.8744
0
LINE
8
BLACK
6
CONTINUOUS
10
123.699
20
-73.8744
11
123.697
21
-73.8702
0
LINE
8
BLACK
6
CONTINUOUS
10
123.697
20
-73.8702
11
123.695
21
-73.8662
0
LINE
8
BLACK
6
CONTINUOUS
10
123.695
20
-73.8662
11
123.694
21
-73.8638
0
LINE
8
BLACK
6
CONTINUOUS
10
123.694
20
-73.8638
11
123.692
21
-73.8614
0
LINE
8
BLACK
6
CONTINUOUS
10
123.692
20
-73.8614
11
123.691
21
-73.8569
0
LINE
8
BLACK
6
CONTINUOUS
10
123.691
20
-73.8569
11
123.689
21
-73.8525
0
LINE
8
BLACK
6
CONTINUOUS
10
123.689
20
-73.8525
11
123.689
21
-73.8499
0
LINE
8
BLACK
6
CONTINUOUS
10
123.689
20
-73.8499
11
123.688
21
-73.8474
0
LINE
8
BLACK
6
CONTINUOUS
10
123.688
20
-73.8474
11
123.688
21
-73.8427
0
LINE
8
BLACK
6
CONTINUOUS
10
123.688
20
-73.8427
11
123.687
21
-73.8381
0
LINE
8
BLACK
6
CONTINUOUS
10
123.687
20
-73.8381
11
123.687
21
-73.8354
0
LINE
8
BLACK
6
CONTINUOUS
10
123.687
20
-73.8354
11
123.687
21
-73.8328
0
LINE
8
BLACK
6
CONTINUOUS
10
123.687
20
-73.8328
11
123.687
21
-73.8281
0
LINE
8
BLACK
6
CONTINUOUS
10
123.687
20
-73.8281
11
123.688
21
-73.8234
0
LINE
8
BLACK
6
CONTINUOUS
10
123.688
20
-73.8234
11
123.688
21
-73.8209
0
LINE
8
BLACK
6
CONTINUOUS
10
123.688
20
-73.8209
11
123.688
21
-73.8183
0
LINE
8
BLACK
6
CONTINUOUS
10
123.688
20
-73.8183
11
123.69
21
-73.8138
0
LINE
8
BLACK
6
CONTINUOUS
10
123.69
20
-73.8138
11
123.691
21
-73.8092
0
LINE
8
BLACK
6
CONTINUOUS
10
123.691
20
-73.8092
11
123.692
21
-73.8068
0
LINE
8
BLACK
6
CONTINUOUS
10
123.692
20
-73.8068
11
123.693
21
-73.8043
0
LINE
8
BLACK
6
CONTINUOUS
10
123.693
20
-73.8043
11
123.695
21
-73.8001
0
LINE
8
BLACK
6
CONTINUOUS
10
123.695
20
-73.8001
11
123.697
21
-73.7958
0
LINE
8
BLACK
6
CONTINUOUS
10
123.697
20
-73.7958
11
123.698
21
-73.7937
0
LINE
8
BLACK
6
CONTINUOUS
10
123.698
20
-73.7937
11
123.7
21
-73.7914
0
LINE
8
BLACK
6
CONTINUOUS
10
123.7
20
-73.7914
11
123.703
21
-73.7878
0
LINE
8
BLACK
6
CONTINUOUS
10
123.703
20
-73.7878
11
123.705
21
-73.7839
0
LINE
8
BLACK
6
CONTINUOUS
10
123.705
20
-73.7839
11
123.93
21
-73.5274
0
LINE
8
BLACK
6
CONTINUOUS
10
123.93
20
-73.5274
11
123.476
21
-73.5274
0
LINE
8
BLACK
6
CONTINUOUS
10
123.476
20
-73.5274
11
123.475
21
-73.5274
0
LINE
8
BLACK
6
CONTINUOUS
10
123.475
20
-73.5274
11
123.461
21
-73.5257
0
LINE
8
BLACK
6
CONTINUOUS
10
123.461
20
-73.5257
11
123.447
21
-73.5213
0
LINE
8
BLACK
6
CONTINUOUS
10
123.447
20
-73.5213
11
123.434
21
-73.5143
0
LINE
8
BLACK
6
CONTINUOUS
10
123.434
20
-73.5143
11
123.423
21
-73.5049
0
LINE
8
BLACK
6
CONTINUOUS
10
123.423
20
-73.5049
11
123.413
21
-73.4934
0
LINE
8
BLACK
6
CONTINUOUS
10
123.413
20
-73.4934
11
123.407
21
-73.4805
0
LINE
8
BLACK
6
CONTINUOUS
10
123.407
20
-73.4805
11
123.403
21
-73.4664
0
LINE
8
BLACK
6
CONTINUOUS
10
123.403
20
-73.4664
11
123.401
21
-73.4519
0
LINE
8
BLACK
6
CONTINUOUS
10
123.401
20
-73.4519
11
123.403
21
-73.4373
0
LINE
8
BLACK
6
CONTINUOUS
10
123.403
20
-73.4373
11
123.407
21
-73.4233
0
LINE
8
BLACK
6
CONTINUOUS
10
123.407
20
-73.4233
11
123.414
21
-73.4104
0
LINE
8
BLACK
6
CONTINUOUS
10
123.414
20
-73.4104
11
123.423
21
-73.3992
0
LINE
8
BLACK
6
CONTINUOUS
10
123.423
20
-73.3992
11
123.435
21
-73.3899
0
LINE
8
BLACK
6
CONTINUOUS
10
123.435
20
-73.3899
11
123.448
21
-73.383
0
LINE
8
BLACK
6
CONTINUOUS
10
123.448
20
-73.383
11
123.462
21
-73.3788
0
LINE
8
BLACK
6
CONTINUOUS
10
123.462
20
-73.3788
11
123.476
21
-73.3774
0
LINE
8
BLACK
6
CONTINUOUS
10
123.476
20
-73.3774
11
124.095
21
-73.3774
0
LINE
8
BLACK
6
CONTINUOUS
10
124.095
20
-73.3774
11
124.096
21
-73.3774
0
LINE
8
BLACK
6
CONTINUOUS
10
125.049
20
-73.3774
11
125.053
21
-73.3779
0
LINE
8
BLACK
6
CONTINUOUS
10
125.053
20
-73.3779
11
125.058
21
-73.3781
0
LINE
8
BLACK
6
CONTINUOUS
10
125.058
20
-73.3781
11
125.061
21
-73.3787
0
LINE
8
BLACK
6
CONTINUOUS
10
125.061
20
-73.3787
11
125.063
21
-73.379
0
LINE
8
BLACK
6
CONTINUOUS
10
125.063
20
-73.379
11
125.068
21
-73.3804
0
LINE
8
BLACK
6
CONTINUOUS
10
125.068
20
-73.3804
11
125.072
21
-73.3815
0
LINE
8
BLACK
6
CONTINUOUS
10
125.072
20
-73.3815
11
125.075
21
-73.3826
0
LINE
8
BLACK
6
CONTINUOUS
10
125.075
20
-73.3826
11
125.077
21
-73.3834
0
LINE
8
BLACK
6
CONTINUOUS
10
125.077
20
-73.3834
11
125.081
21
-73.3857
0
LINE
8
BLACK
6
CONTINUOUS
10
125.081
20
-73.3857
11
125.086
21
-73.3877
0
LINE
8
BLACK
6
CONTINUOUS
10
125.086
20
-73.3877
11
125.088
21
-73.3892
0
LINE
8
BLACK
6
CONTINUOUS
10
125.088
20
-73.3892
11
125.09
21
-73.3905
0
LINE
8
BLACK
6
CONTINUOUS
10
125.09
20
-73.3905
11
125.094
21
-73.3935
0
LINE
8
BLACK
6
CONTINUOUS
10
125.094
20
-73.3935
11
125.097
21
-73.3963
0
LINE
8
BLACK
6
CONTINUOUS
10
125.097
20
-73.3963
11
125.099
21
-73.3982
0
LINE
8
BLACK
6
CONTINUOUS
10
125.099
20
-73.3982
11
125.101
21
-73.3999
0
LINE
8
BLACK
6
CONTINUOUS
10
125.101
20
-73.3999
11
125.104
21
-73.4036
0
LINE
8
BLACK
6
CONTINUOUS
10
125.104
20
-73.4036
11
125.107
21
-73.407
0
LINE
8
BLACK
6
CONTINUOUS
10
125.107
20
-73.407
11
125.109
21
-73.4093
0
LINE
8
BLACK
6
CONTINUOUS
10
125.109
20
-73.4093
11
125.11
21
-73.4113
0
LINE
8
BLACK
6
CONTINUOUS
10
125.11
20
-73.4113
11
125.113
21
-73.4155
0
LINE
8
BLACK
6
CONTINUOUS
10
125.113
20
-73.4155
11
125.115
21
-73.4195
0
LINE
8
BLACK
6
CONTINUOUS
10
125.115
20
-73.4195
11
125.116
21
-73.422
0
LINE
8
BLACK
6
CONTINUOUS
10
125.116
20
-73.422
11
125.117
21
-73.4243
0
LINE
8
BLACK
6
CONTINUOUS
10
125.117
20
-73.4243
11
125.118
21
-73.4288
0
LINE
8
BLACK
6
CONTINUOUS
10
125.118
20
-73.4288
11
125.12
21
-73.4332
0
LINE
8
BLACK
6
CONTINUOUS
10
125.12
20
-73.4332
11
125.121
21
-73.4358
0
LINE
8
BLACK
6
CONTINUOUS
10
125.121
20
-73.4358
11
125.121
21
-73.4383
0
LINE
8
BLACK
6
CONTINUOUS
10
125.121
20
-73.4383
11
125.122
21
-73.443
0
LINE
8
BLACK
6
CONTINUOUS
10
125.122
20
-73.443
11
125.122
21
-73.4477
0
LINE
8
BLACK
6
CONTINUOUS
10
125.122
20
-73.4477
11
125.122
21
-73.4503
0
LINE
8
BLACK
6
CONTINUOUS
10
125.122
20
-73.4503
11
125.123
21
-73.4529
0
LINE
8
BLACK
6
CONTINUOUS
10
125.123
20
-73.4529
11
125.122
21
-73.4576
0
LINE
8
BLACK
6
CONTINUOUS
10
125.122
20
-73.4576
11
125.122
21
-73.4623
0
LINE
8
BLACK
6
CONTINUOUS
10
125.122
20
-73.4623
11
125.121
21
-73.4648
0
LINE
8
BLACK
6
CONTINUOUS
10
125.121
20
-73.4648
11
125.121
21
-73.4675
0
LINE
8
BLACK
6
CONTINUOUS
10
125.121
20
-73.4675
11
125.12
21
-73.472
0
LINE
8
BLACK
6
CONTINUOUS
10
125.12
20
-73.472
11
125.119
21
-73.4765
0
LINE
8
BLACK
6
CONTINUOUS
10
125.119
20
-73.4765
11
125.118
21
-73.4789
0
LINE
8
BLACK
6
CONTINUOUS
10
125.118
20
-73.4789
11
125.117
21
-73.4814
0
LINE
8
BLACK
6
CONTINUOUS
10
125.117
20
-73.4814
11
125.115
21
-73.4856
0
LINE
8
BLACK
6
CONTINUOUS
10
125.115
20
-73.4856
11
125.113
21
-73.4899
0
LINE
8
BLACK
6
CONTINUOUS
10
125.113
20
-73.4899
11
125.111
21
-73.492
0
LINE
8
BLACK
6
CONTINUOUS
10
125.111
20
-73.492
11
125.11
21
-73.4943
0
LINE
8
BLACK
6
CONTINUOUS
10
125.11
20
-73.4943
11
125.107
21
-73.4979
0
LINE
8
BLACK
6
CONTINUOUS
10
125.107
20
-73.4979
11
125.104
21
-73.5018
0
LINE
8
BLACK
6
CONTINUOUS
10
125.104
20
-73.5018
11
124.877
21
-73.7611
0
LINE
8
BLACK
6
CONTINUOUS
10
124.877
20
-73.7611
11
124.882
21
-73.7629
0
LINE
8
BLACK
6
CONTINUOUS
10
124.882
20
-73.7629
11
124.887
21
-73.7644
0
LINE
8
BLACK
6
CONTINUOUS
10
124.887
20
-73.7644
11
124.889
21
-73.7655
0
LINE
8
BLACK
6
CONTINUOUS
10
124.889
20
-73.7655
11
124.891
21
-73.7663
0
LINE
8
BLACK
6
CONTINUOUS
10
124.891
20
-73.7663
11
124.986
21
-73.8139
0
LINE
8
BLACK
6
CONTINUOUS
10
124.986
20
-73.8139
11
124.987
21
-73.8143
0
LINE
8
BLACK
6
CONTINUOUS
10
124.987
20
-73.8143
11
124.99
21
-73.8166
0
LINE
8
BLACK
6
CONTINUOUS
10
124.99
20
-73.8166
11
124.994
21
-73.8186
0
LINE
8
BLACK
6
CONTINUOUS
10
124.994
20
-73.8186
11
124.997
21
-73.8206
0
LINE
8
BLACK
6
CONTINUOUS
10
124.997
20
-73.8206
11
124.999
21
-73.8223
0
LINE
8
BLACK
6
CONTINUOUS
10
124.999
20
-73.8223
11
125.002
21
-73.8252
0
LINE
8
BLACK
6
CONTINUOUS
10
125.002
20
-73.8252
11
125.005
21
-73.8279
0
LINE
8
BLACK
6
CONTINUOUS
10
125.005
20
-73.8279
11
125.053
21
-73.8755
0
LINE
8
BLACK
6
CONTINUOUS
10
125.053
20
-73.8755
11
125.054
21
-73.8763
0
LINE
8
BLACK
6
CONTINUOUS
10
125.054
20
-73.8763
11
125.056
21
-73.8796
0
LINE
8
BLACK
6
CONTINUOUS
10
125.056
20
-73.8796
11
125.059
21
-73.8826
0
LINE
8
BLACK
6
CONTINUOUS
10
125.059
20
-73.8826
11
125.061
21
-73.8853
0
LINE
8
BLACK
6
CONTINUOUS
10
125.061
20
-73.8853
11
125.063
21
-73.8877
0
LINE
8
BLACK
6
CONTINUOUS
10
125.063
20
-73.8877
11
125.065
21
-73.8915
0
LINE
8
BLACK
6
CONTINUOUS
10
125.065
20
-73.8915
11
125.067
21
-73.895
0
LINE
8
BLACK
6
CONTINUOUS
10
125.067
20
-73.895
11
125.115
21
-73.9903
0
LINE
8
BLACK
6
CONTINUOUS
10
125.115
20
-73.9903
11
125.115
21
-73.9912
0
LINE
8
BLACK
6
CONTINUOUS
10
125.115
20
-73.9912
11
125.116
21
-73.9933
0
LINE
8
BLACK
6
CONTINUOUS
10
125.116
20
-73.9933
11
125.117
21
-73.9952
0
LINE
8
BLACK
6
CONTINUOUS
10
125.117
20
-73.9952
11
125.118
21
-74.0001
0
LINE
8
BLACK
6
CONTINUOUS
10
125.118
20
-74.0001
11
125.12
21
-74.0049
0
LINE
8
BLACK
6
CONTINUOUS
10
125.12
20
-74.0049
11
125.121
21
-74.0071
0
LINE
8
BLACK
6
CONTINUOUS
10
125.121
20
-74.0071
11
125.121
21
-74.0092
0
LINE
8
BLACK
6
CONTINUOUS
10
125.121
20
-74.0092
11
125.122
21
-74.0143
0
LINE
8
BLACK
6
CONTINUOUS
10
125.122
20
-74.0143
11
125.122
21
-74.0194
0
LINE
8
BLACK
6
CONTINUOUS
10
125.122
20
-74.0194
11
125.122
21
-74.0216
0
LINE
8
BLACK
6
CONTINUOUS
10
125.122
20
-74.0216
11
125.123
21
-74.0238
0
LINE
8
BLACK
6
CONTINUOUS
10
125.123
20
-74.0238
11
125.123
21
-74.2619
0
LINE
8
BLACK
6
CONTINUOUS
10
125.123
20
-74.2619
11
125.123
21
-74.263
0
LINE
8
BLACK
6
CONTINUOUS
10
125.123
20
-74.263
11
125.122
21
-74.2651
0
LINE
8
BLACK
6
CONTINUOUS
10
125.122
20
-74.2651
11
125.122
21
-74.2674
0
LINE
8
BLACK
6
CONTINUOUS
10
125.122
20
-74.2674
11
125.122
21
-74.2724
0
LINE
8
BLACK
6
CONTINUOUS
10
125.122
20
-74.2724
11
125.121
21
-74.2775
0
LINE
8
BLACK
6
CONTINUOUS
10
125.121
20
-74.2775
11
125.12
21
-74.2796
0
LINE
8
BLACK
6
CONTINUOUS
10
125.12
20
-74.2796
11
125.12
21
-74.2818
0
LINE
8
BLACK
6
CONTINUOUS
10
125.12
20
-74.2818
11
125.118
21
-74.2866
0
LINE
8
BLACK
6
CONTINUOUS
10
125.118
20
-74.2866
11
125.117
21
-74.2914
0
LINE
8
BLACK
6
CONTINUOUS
10
125.117
20
-74.2914
11
125.115
21
-74.2934
0
LINE
8
BLACK
6
CONTINUOUS
10
125.115
20
-74.2934
11
125.115
21
-74.2954
0
LINE
8
BLACK
6
CONTINUOUS
10
125.115
20
-74.2954
11
125.067
21
-74.3907
0
LINE
8
BLACK
6
CONTINUOUS
10
125.067
20
-74.3907
11
125.067
21
-74.3916
0
LINE
8
BLACK
6
CONTINUOUS
10
125.067
20
-74.3916
11
125.064
21
-74.3952
0
LINE
8
BLACK
6
CONTINUOUS
10
125.064
20
-74.3952
11
125.062
21
-74.3989
0
LINE
8
BLACK
6
CONTINUOUS
10
125.062
20
-74.3989
11
125.06
21
-74.4013
0
LINE
8
BLACK
6
CONTINUOUS
10
125.06
20
-74.4013
11
125.059
21
-74.4039
0
LINE
8
BLACK
6
CONTINUOUS
10
125.059
20
-74.4039
11
125.056
21
-74.4069
0
LINE
8
BLACK
6
CONTINUOUS
10
125.056
20
-74.4069
11
125.053
21
-74.4102
0
LINE
8
BLACK
6
CONTINUOUS
10
125.053
20
-74.4102
11
125.005
21
-74.4578
0
LINE
8
BLACK
6
CONTINUOUS
10
125.005
20
-74.4578
11
125.005
21
-74.4585
0
LINE
8
BLACK
6
CONTINUOUS
10
125.005
20
-74.4585
11
125.001
21
-74.4612
0
LINE
8
BLACK
6
CONTINUOUS
10
125.001
20
-74.4612
11
124.998
21
-74.4641
0
LINE
8
BLACK
6
CONTINUOUS
10
124.998
20
-74.4641
11
124.996
21
-74.4657
0
LINE
8
BLACK
6
CONTINUOUS
10
124.996
20
-74.4657
11
124.993
21
-74.4677
0
LINE
8
BLACK
6
CONTINUOUS
10
124.993
20
-74.4677
11
124.989
21
-74.4696
0
LINE
8
BLACK
6
CONTINUOUS
10
124.989
20
-74.4696
11
124.986
21
-74.4718
0
LINE
8
BLACK
6
CONTINUOUS
10
124.986
20
-74.4718
11
124.891
21
-74.5195
0
LINE
8
BLACK
6
CONTINUOUS
10
124.891
20
-74.5195
11
124.89
21
-74.5199
0
LINE
8
BLACK
6
CONTINUOUS
10
124.89
20
-74.5199
11
124.888
21
-74.5207
0
LINE
8
BLACK
6
CONTINUOUS
10
124.888
20
-74.5207
11
124.886
21
-74.5217
0
LINE
8
BLACK
6
CONTINUOUS
10
124.886
20
-74.5217
11
124.881
21
-74.5232
0
LINE
8
BLACK
6
CONTINUOUS
10
124.881
20
-74.5232
11
124.876
21
-74.525
0
LINE
8
BLACK
6
CONTINUOUS
10
124.876
20
-74.525
11
124.874
21
-74.5253
0
LINE
8
BLACK
6
CONTINUOUS
10
124.874
20
-74.5253
11
124.872
21
-74.526
0
LINE
8
BLACK
6
CONTINUOUS
10
124.872
20
-74.526
11
124.867
21
-74.5265
0
LINE
8
BLACK
6
CONTINUOUS
10
124.867
20
-74.5265
11
124.862
21
-74.5273
0
LINE
8
BLACK
6
CONTINUOUS
10
124.862
20
-74.5273
11
124.859
21
-74.5272
0
LINE
8
BLACK
6
CONTINUOUS
10
124.859
20
-74.5272
11
124.857
21
-74.5274
0
LINE
8
BLACK
6
CONTINUOUS
10
124.857
20
-74.5274
11
124.571
21
-74.5274
0
LINE
8
BLACK
6
CONTINUOUS
10
124.571
20
-74.5274
11
124.57
21
-74.5274
0
LINE
8
BLACK
6
CONTINUOUS
10
124.57
20
-74.5274
11
124.568
21
-74.5271
0
LINE
8
BLACK
6
CONTINUOUS
10
124.568
20
-74.5271
11
124.566
21
-74.5272
0
LINE
8
BLACK
6
CONTINUOUS
10
124.566
20
-74.5272
11
124.561
21
-74.5263
0
LINE
8
BLACK
6
CONTINUOUS
10
124.561
20
-74.5263
11
124.556
21
-74.5257
0
LINE
8
BLACK
6
CONTINUOUS
10
124.556
20
-74.5257
11
124.554
21
-74.5251
0
LINE
8
BLACK
6
CONTINUOUS
10
124.554
20
-74.5251
11
124.552
21
-74.5247
0
LINE
8
BLACK
6
CONTINUOUS
10
124.552
20
-74.5247
11
124.547
21
-74.5229
0
LINE
8
BLACK
6
CONTINUOUS
10
124.547
20
-74.5229
11
124.542
21
-74.5213
0
LINE
8
BLACK
6
CONTINUOUS
10
124.542
20
-74.5213
11
124.54
21
-74.5203
0
LINE
8
BLACK
6
CONTINUOUS
10
124.54
20
-74.5203
11
124.538
21
-74.5195
0
LINE
8
BLACK
6
CONTINUOUS
10
124.538
20
-74.5195
11
124.443
21
-74.4718
0
LINE
8
BLACK
6
CONTINUOUS
10
124.443
20
-74.4718
11
124.442
21
-74.4714
0
LINE
8
BLACK
6
CONTINUOUS
10
124.442
20
-74.4714
11
124.438
21
-74.4691
0
LINE
8
BLACK
6
CONTINUOUS
10
124.438
20
-74.4691
11
124.434
21
-74.4671
0
LINE
8
BLACK
6
CONTINUOUS
10
124.434
20
-74.4671
11
124.432
21
-74.4651
0
LINE
8
BLACK
6
CONTINUOUS
10
124.432
20
-74.4651
11
124.429
21
-74.4634
0
LINE
8
BLACK
6
CONTINUOUS
10
124.429
20
-74.4634
11
124.426
21
-74.4605
0
LINE
8
BLACK
6
CONTINUOUS
10
124.426
20
-74.4605
11
124.423
21
-74.4578
0
LINE
8
BLACK
6
CONTINUOUS
10
124.423
20
-74.4578
11
124.376
21
-74.4102
0
LINE
8
BLACK
6
CONTINUOUS
10
124.376
20
-74.4102
11
124.375
21
-74.4094
0
LINE
8
BLACK
6
CONTINUOUS
10
124.375
20
-74.4094
11
124.366
21
-74.398
0
LINE
8
BLACK
6
CONTINUOUS
10
124.366
20
-74.398
11
124.359
21
-74.385
0
LINE
8
BLACK
6
CONTINUOUS
10
124.359
20
-74.385
11
124.355
21
-74.3709
0
LINE
8
BLACK
6
CONTINUOUS
10
124.355
20
-74.3709
11
124.354
21
-74.3564
0
LINE
8
BLACK
6
CONTINUOUS
10
124.354
20
-74.3564
11
124.355
21
-74.3418
0
LINE
8
BLACK
6
CONTINUOUS
10
124.355
20
-74.3418
11
124.36
21
-74.3278
0
LINE
8
BLACK
6
CONTINUOUS
10
124.36
20
-74.3278
11
124.367
21
-74.315
0
LINE
8
BLACK
6
CONTINUOUS
10
124.367
20
-74.315
11
124.376
21
-74.3037
0
LINE
8
BLACK
6
CONTINUOUS
10
124.376
20
-74.3037
11
124.387
21
-74.2945
0
LINE
8
BLACK
6
CONTINUOUS
10
124.387
20
-74.2945
11
124.4
21
-74.2877
0
LINE
8
BLACK
6
CONTINUOUS
10
124.4
20
-74.2877
11
124.414
21
-74.2835
0
LINE
8
BLACK
6
CONTINUOUS
10
124.414
20
-74.2835
11
124.429
21
-74.2821
0
LINE
8
BLACK
6
CONTINUOUS
10
124.429
20
-74.2821
11
124.443
21
-74.2836
0
LINE
8
BLACK
6
CONTINUOUS
10
124.443
20
-74.2836
11
124.457
21
-74.2879
0
LINE
8
BLACK
6
CONTINUOUS
10
124.457
20
-74.2879
11
124.47
21
-74.2948
0
LINE
8
BLACK
6
CONTINUOUS
10
124.47
20
-74.2948
11
124.482
21
-74.3041
0
LINE
8
BLACK
6
CONTINUOUS
10
124.482
20
-74.3041
11
124.521
21
-74.3431
0
LINE
8
BLACK
6
CONTINUOUS
10
124.521
20
-74.3431
11
124.589
21
-74.3774
0
LINE
8
BLACK
6
CONTINUOUS
10
124.589
20
-74.3774
11
124.839
21
-74.3774
0
LINE
8
BLACK
6
CONTINUOUS
10
124.839
20
-74.3774
11
124.908
21
-74.3431
0
LINE
8
BLACK
6
CONTINUOUS
10
124.908
20
-74.3431
11
124.938
21
-74.3127
0
LINE
8
BLACK
6
CONTINUOUS
10
124.938
20
-74.3127
11
124.973
21
-74.2442
0
LINE
8
BLACK
6
CONTINUOUS
10
124.973
20
-74.2442
11
124.973
21
-74.0415
0
LINE
8
BLACK
6
CONTINUOUS
10
124.973
20
-74.0415
11
124.938
21
-73.973
0
LINE
8
BLACK
6
CONTINUOUS
10
124.938
20
-73.973
11
124.908
21
-73.9426
0
LINE
8
BLACK
6
CONTINUOUS
10
124.908
20
-73.9426
11
124.839
21
-73.9083
0
LINE
8
BLACK
6
CONTINUOUS
10
124.839
20
-73.9083
11
124.714
21
-73.9083
0
LINE
8
BLACK
6
CONTINUOUS
10
124.714
20
-73.9083
11
124.713
21
-73.9083
0
LINE
8
BLACK
6
CONTINUOUS
10
124.713
20
-73.9083
11
124.709
21
-73.9078
0
LINE
8
BLACK
6
CONTINUOUS
10
124.709
20
-73.9078
11
124.704
21
-73.9076
0
LINE
8
BLACK
6
CONTINUOUS
10
124.704
20
-73.9076
11
124.701
21
-73.907
0
LINE
8
BLACK
6
CONTINUOUS
10
124.701
20
-73.907
11
124.699
21
-73.9067
0
LINE
8
BLACK
6
CONTINUOUS
10
124.699
20
-73.9067
11
124.694
21
-73.9053
0
LINE
8
BLACK
6
CONTINUOUS
10
124.694
20
-73.9053
11
124.69
21
-73.9042
0
LINE
8
BLACK
6
CONTINUOUS
10
124.69
20
-73.9042
11
124.687
21
-73.9031
0
LINE
8
BLACK
6
CONTINUOUS
10
124.687
20
-73.9031
11
124.685
21
-73.9023
0
LINE
8
BLACK
6
CONTINUOUS
10
124.685
20
-73.9023
11
124.681
21
-73.9
0
LINE
8
BLACK
6
CONTINUOUS
10
124.681
20
-73.9
11
124.676
21
-73.898
0
LINE
8
BLACK
6
CONTINUOUS
10
124.676
20
-73.898
11
124.674
21
-73.8965
0
LINE
8
BLACK
6
CONTINUOUS
10
124.674
20
-73.8965
11
124.672
21
-73.8952
0
LINE
8
BLACK
6
CONTINUOUS
10
124.672
20
-73.8952
11
124.668
21
-73.8922
0
LINE
8
BLACK
6
CONTINUOUS
10
124.668
20
-73.8922
11
124.665
21
-73.8894
0
LINE
8
BLACK
6
CONTINUOUS
10
124.665
20
-73.8894
11
124.663
21
-73.8875
0
LINE
8
BLACK
6
CONTINUOUS
10
124.663
20
-73.8875
11
124.661
21
-73.8858
0
LINE
8
BLACK
6
CONTINUOUS
10
124.661
20
-73.8858
11
124.658
21
-73.8821
0
LINE
8
BLACK
6
CONTINUOUS
10
124.658
20
-73.8821
11
124.655
21
-73.8787
0
LINE
8
BLACK
6
CONTINUOUS
10
124.655
20
-73.8787
11
124.653
21
-73.8764
0
LINE
8
BLACK
6
CONTINUOUS
10
124.653
20
-73.8764
11
124.652
21
-73.8744
0
LINE
8
BLACK
6
CONTINUOUS
10
124.652
20
-73.8744
11
124.649
21
-73.8702
0
LINE
8
BLACK
6
CONTINUOUS
10
124.649
20
-73.8702
11
124.647
21
-73.8662
0
LINE
8
BLACK
6
CONTINUOUS
10
124.647
20
-73.8662
11
124.646
21
-73.8638
0
LINE
8
BLACK
6
CONTINUOUS
10
124.646
20
-73.8638
11
124.645
21
-73.8614
0
LINE
8
BLACK
6
CONTINUOUS
10
124.645
20
-73.8614
11
124.643
21
-73.8569
0
LINE
8
BLACK
6
CONTINUOUS
10
124.643
20
-73.8569
11
124.642
21
-73.8525
0
LINE
8
BLACK
6
CONTINUOUS
10
124.642
20
-73.8525
11
124.641
21
-73.8499
0
LINE
8
BLACK
6
CONTINUOUS
10
124.641
20
-73.8499
11
124.641
21
-73.8474
0
LINE
8
BLACK
6
CONTINUOUS
10
124.641
20
-73.8474
11
124.64
21
-73.8427
0
LINE
8
BLACK
6
CONTINUOUS
10
124.64
20
-73.8427
11
124.639
21
-73.8381
0
LINE
8
BLACK
6
CONTINUOUS
10
124.639
20
-73.8381
11
124.64
21
-73.8354
0
LINE
8
BLACK
6
CONTINUOUS
10
124.64
20
-73.8354
11
124.639
21
-73.8328
0
LINE
8
BLACK
6
CONTINUOUS
10
124.639
20
-73.8328
11
124.64
21
-73.8281
0
LINE
8
BLACK
6
CONTINUOUS
10
124.64
20
-73.8281
11
124.64
21
-73.8234
0
LINE
8
BLACK
6
CONTINUOUS
10
124.64
20
-73.8234
11
124.641
21
-73.8209
0
LINE
8
BLACK
6
CONTINUOUS
10
124.641
20
-73.8209
11
124.641
21
-73.8183
0
LINE
8
BLACK
6
CONTINUOUS
10
124.641
20
-73.8183
11
124.642
21
-73.8138
0
LINE
8
BLACK
6
CONTINUOUS
10
124.642
20
-73.8138
11
124.643
21
-73.8092
0
LINE
8
BLACK
6
CONTINUOUS
10
124.643
20
-73.8092
11
124.644
21
-73.8068
0
LINE
8
BLACK
6
CONTINUOUS
10
124.644
20
-73.8068
11
124.645
21
-73.8043
0
LINE
8
BLACK
6
CONTINUOUS
10
124.645
20
-73.8043
11
124.647
21
-73.8001
0
LINE
8
BLACK
6
CONTINUOUS
10
124.647
20
-73.8001
11
124.649
21
-73.7958
0
LINE
8
BLACK
6
CONTINUOUS
10
124.649
20
-73.7958
11
124.651
21
-73.7937
0
LINE
8
BLACK
6
CONTINUOUS
10
124.651
20
-73.7937
11
124.652
21
-73.7914
0
LINE
8
BLACK
6
CONTINUOUS
10
124.652
20
-73.7914
11
124.655
21
-73.7878
0
LINE
8
BLACK
6
CONTINUOUS
10
124.655
20
-73.7878
11
124.658
21
-73.7839
0
LINE
8
BLACK
6
CONTINUOUS
10
124.658
20
-73.7839
11
124.882
21
-73.5274
0
LINE
8
BLACK
6
CONTINUOUS
10
124.882
20
-73.5274
11
124.429
21
-73.5274
0
LINE
8
BLACK
6
CONTINUOUS
10
124.429
20
-73.5274
11
124.428
21
-73.5274
0
LINE
8
BLACK
6
CONTINUOUS
10
124.428
20
-73.5274
11
124.413
21
-73.5257
0
LINE
8
BLACK
6
CONTINUOUS
10
124.413
20
-73.5257
11
124.399
21
-73.5213
0
LINE
8
BLACK
6
CONTINUOUS
10
124.399
20
-73.5213
11
124.386
21
-73.5143
0
LINE
8
BLACK
6
CONTINUOUS
10
124.386
20
-73.5143
11
124.375
21
-73.5049
0
LINE
8
BLACK
6
CONTINUOUS
10
124.375
20
-73.5049
11
124.366
21
-73.4934
0
LINE
8
BLACK
6
CONTINUOUS
10
124.366
20
-73.4934
11
124.359
21
-73.4805
0
LINE
8
BLACK
6
CONTINUOUS
10
124.359
20
-73.4805
11
124.355
21
-73.4664
0
LINE
8
BLACK
6
CONTINUOUS
10
124.355
20
-73.4664
11
124.354
21
-73.4519
0
LINE
8
BLACK
6
CONTINUOUS
10
124.354
20
-73.4519
11
124.355
21
-73.4373
0
LINE
8
BLACK
6
CONTINUOUS
10
124.355
20
-73.4373
11
124.359
21
-73.4233
0
LINE
8
BLACK
6
CONTINUOUS
10
124.359
20
-73.4233
11
124.366
21
-73.4104
0
LINE
8
BLACK
6
CONTINUOUS
10
124.366
20
-73.4104
11
124.376
21
-73.3992
0
LINE
8
BLACK
6
CONTINUOUS
10
124.376
20
-73.3992
11
124.387
21
-73.3899
0
LINE
8
BLACK
6
CONTINUOUS
10
124.387
20
-73.3899
11
124.4
21
-73.383
0
LINE
8
BLACK
6
CONTINUOUS
10
124.4
20
-73.383
11
124.414
21
-73.3788
0
LINE
8
BLACK
6
CONTINUOUS
10
124.414
20
-73.3788
11
124.429
21
-73.3774
0
LINE
8
BLACK
6
CONTINUOUS
10
124.429
20
-73.3774
11
125.048
21
-73.3774
0
LINE
8
BLACK
6
CONTINUOUS
10
125.048
20
-73.3774
11
125.049
21
-73.3774
0
LINE
8
BLACK
6
CONTINUOUS
10
126.525
20
-73.7107
11
126.527
21
-73.711
0
LINE
8
BLACK
6
CONTINUOUS
10
126.527
20
-73.711
11
126.529
21
-73.7109
0
LINE
8
BLACK
6
CONTINUOUS
10
126.529
20
-73.7109
11
126.534
21
-73.7118
0
LINE
8
BLACK
6
CONTINUOUS
10
126.534
20
-73.7118
11
126.539
21
-73.7124
0
LINE
8
BLACK
6
CONTINUOUS
10
126.539
20
-73.7124
11
126.542
21
-73.713
0
LINE
8
BLACK
6
CONTINUOUS
10
126.542
20
-73.713
11
126.544
21
-73.7134
0
LINE
8
BLACK
6
CONTINUOUS
10
126.544
20
-73.7134
11
126.548
21
-73.7152
0
LINE
8
BLACK
6
CONTINUOUS
10
126.548
20
-73.7152
11
126.553
21
-73.7168
0
LINE
8
BLACK
6
CONTINUOUS
10
126.553
20
-73.7168
11
126.555
21
-73.7178
0
LINE
8
BLACK
6
CONTINUOUS
10
126.555
20
-73.7178
11
126.557
21
-73.7186
0
LINE
8
BLACK
6
CONTINUOUS
10
126.557
20
-73.7186
11
126.653
21
-73.7663
0
LINE
8
BLACK
6
CONTINUOUS
10
126.653
20
-73.7663
11
126.654
21
-73.7667
0
LINE
8
BLACK
6
CONTINUOUS
10
126.654
20
-73.7667
11
126.655
21
-73.7676
0
LINE
8
BLACK
6
CONTINUOUS
10
126.655
20
-73.7676
11
126.656
21
-73.7683
0
LINE
8
BLACK
6
CONTINUOUS
10
126.656
20
-73.7683
11
126.661
21
-73.7716
0
LINE
8
BLACK
6
CONTINUOUS
10
126.661
20
-73.7716
11
126.666
21
-73.7747
0
LINE
8
BLACK
6
CONTINUOUS
10
126.666
20
-73.7747
11
126.667
21
-73.7755
0
LINE
8
BLACK
6
CONTINUOUS
10
126.667
20
-73.7755
11
126.667
21
-73.7752
0
LINE
8
BLACK
6
CONTINUOUS
10
126.667
20
-73.7752
11
126.668
21
-73.774
0
LINE
8
BLACK
6
CONTINUOUS
10
126.668
20
-73.774
11
126.673
21
-73.771
0
LINE
8
BLACK
6
CONTINUOUS
10
126.673
20
-73.771
11
126.678
21
-73.7678
0
LINE
8
BLACK
6
CONTINUOUS
10
126.678
20
-73.7678
11
126.679
21
-73.7671
0
LINE
8
BLACK
6
CONTINUOUS
10
126.679
20
-73.7671
11
126.681
21
-73.7663
0
LINE
8
BLACK
6
CONTINUOUS
10
126.681
20
-73.7663
11
126.776
21
-73.7186
0
LINE
8
BLACK
6
CONTINUOUS
10
126.776
20
-73.7186
11
126.777
21
-73.7182
0
LINE
8
BLACK
6
CONTINUOUS
10
126.777
20
-73.7182
11
126.779
21
-73.7174
0
LINE
8
BLACK
6
CONTINUOUS
10
126.779
20
-73.7174
11
126.781
21
-73.7164
0
LINE
8
BLACK
6
CONTINUOUS
10
126.781
20
-73.7164
11
126.786
21
-73.7149
0
LINE
8
BLACK
6
CONTINUOUS
10
126.786
20
-73.7149
11
126.791
21
-73.7131
0
LINE
8
BLACK
6
CONTINUOUS
10
126.791
20
-73.7131
11
126.793
21
-73.7128
0
LINE
8
BLACK
6
CONTINUOUS
10
126.793
20
-73.7128
11
126.795
21
-73.7121
0
LINE
8
BLACK
6
CONTINUOUS
10
126.795
20
-73.7121
11
126.8
21
-73.7116
0
LINE
8
BLACK
6
CONTINUOUS
10
126.8
20
-73.7116
11
126.805
21
-73.7108
0
LINE
8
BLACK
6
CONTINUOUS
10
126.805
20
-73.7108
11
126.807
21
-73.7109
0
LINE
8
BLACK
6
CONTINUOUS
10
126.807
20
-73.7109
11
126.81
21
-73.7107
0
LINE
8
BLACK
6
CONTINUOUS
10
126.81
20
-73.7107
11
126.952
21
-73.7107
0
LINE
8
BLACK
6
CONTINUOUS
10
126.952
20
-73.7107
11
126.953
21
-73.7107
0
LINE
8
BLACK
6
CONTINUOUS
10
126.953
20
-73.7107
11
126.956
21
-73.711
0
LINE
8
BLACK
6
CONTINUOUS
10
126.956
20
-73.711
11
126.958
21
-73.7109
0
LINE
8
BLACK
6
CONTINUOUS
10
126.958
20
-73.7109
11
126.963
21
-73.7118
0
LINE
8
BLACK
6
CONTINUOUS
10
126.963
20
-73.7118
11
126.968
21
-73.7124
0
LINE
8
BLACK
6
CONTINUOUS
10
126.968
20
-73.7124
11
126.97
21
-73.713
0
LINE
8
BLACK
6
CONTINUOUS
10
126.97
20
-73.713
11
126.972
21
-73.7134
0
LINE
8
BLACK
6
CONTINUOUS
10
126.972
20
-73.7134
11
126.977
21
-73.7152
0
LINE
8
BLACK
6
CONTINUOUS
10
126.977
20
-73.7152
11
126.982
21
-73.7168
0
LINE
8
BLACK
6
CONTINUOUS
10
126.982
20
-73.7168
11
126.984
21
-73.7178
0
LINE
8
BLACK
6
CONTINUOUS
10
126.984
20
-73.7178
11
126.986
21
-73.7186
0
LINE
8
BLACK
6
CONTINUOUS
10
126.986
20
-73.7186
11
127.081
21
-73.7663
0
LINE
8
BLACK
6
CONTINUOUS
10
127.081
20
-73.7663
11
127.082
21
-73.7667
0
LINE
8
BLACK
6
CONTINUOUS
10
127.082
20
-73.7667
11
127.083
21
-73.7676
0
LINE
8
BLACK
6
CONTINUOUS
10
127.083
20
-73.7676
11
127.085
21
-73.7683
0
LINE
8
BLACK
6
CONTINUOUS
10
127.085
20
-73.7683
11
127.09
21
-73.7716
0
LINE
8
BLACK
6
CONTINUOUS
10
127.09
20
-73.7716
11
127.094
21
-73.7747
0
LINE
8
BLACK
6
CONTINUOUS
10
127.094
20
-73.7747
11
127.096
21
-73.7758
0
LINE
8
BLACK
6
CONTINUOUS
10
127.096
20
-73.7758
11
127.097
21
-73.7768
0
LINE
8
BLACK
6
CONTINUOUS
10
127.097
20
-73.7768
11
127.101
21
-73.7809
0
LINE
8
BLACK
6
CONTINUOUS
10
127.101
20
-73.7809
11
127.105
21
-73.7849
0
LINE
8
BLACK
6
CONTINUOUS
10
127.105
20
-73.7849
11
127.106
21
-73.7862
0
LINE
8
BLACK
6
CONTINUOUS
10
127.106
20
-73.7862
11
127.107
21
-73.7874
0
LINE
8
BLACK
6
CONTINUOUS
10
127.107
20
-73.7874
11
127.11
21
-73.7922
0
LINE
8
BLACK
6
CONTINUOUS
10
127.11
20
-73.7922
11
127.113
21
-73.7969
0
LINE
8
BLACK
6
CONTINUOUS
10
127.113
20
-73.7969
11
127.114
21
-73.7984
0
LINE
8
BLACK
6
CONTINUOUS
10
127.114
20
-73.7984
11
127.115
21
-73.7998
0
LINE
8
BLACK
6
CONTINUOUS
10
127.115
20
-73.7998
11
127.162
21
-73.895
0
LINE
8
BLACK
6
CONTINUOUS
10
127.162
20
-73.895
11
127.163
21
-73.896
0
LINE
8
BLACK
6
CONTINUOUS
10
127.163
20
-73.896
11
127.164
21
-73.898
0
LINE
8
BLACK
6
CONTINUOUS
10
127.164
20
-73.898
11
127.165
21
-73.9
0
LINE
8
BLACK
6
CONTINUOUS
10
127.165
20
-73.9
11
127.166
21
-73.9049
0
LINE
8
BLACK
6
CONTINUOUS
10
127.166
20
-73.9049
11
127.168
21
-73.9097
0
LINE
8
BLACK
6
CONTINUOUS
10
127.168
20
-73.9097
11
127.168
21
-73.9119
0
LINE
8
BLACK
6
CONTINUOUS
10
127.168
20
-73.9119
11
127.169
21
-73.914
0
LINE
8
BLACK
6
CONTINUOUS
10
127.169
20
-73.914
11
127.169
21
-73.9191
0
LINE
8
BLACK
6
CONTINUOUS
10
127.169
20
-73.9191
11
127.17
21
-73.9242
0
LINE
8
BLACK
6
CONTINUOUS
10
127.17
20
-73.9242
11
127.17
21
-73.9264
0
LINE
8
BLACK
6
CONTINUOUS
10
127.17
20
-73.9264
11
127.17
21
-73.9286
0
LINE
8
BLACK
6
CONTINUOUS
10
127.17
20
-73.9286
11
127.17
21
-74.4524
0
LINE
8
BLACK
6
CONTINUOUS
10
127.17
20
-74.4524
11
127.17
21
-74.4534
0
LINE
8
BLACK
6
CONTINUOUS
10
127.17
20
-74.4534
11
127.169
21
-74.468
0
LINE
8
BLACK
6
CONTINUOUS
10
127.169
20
-74.468
11
127.164
21
-74.4819
0
LINE
8
BLACK
6
CONTINUOUS
10
127.164
20
-74.4819
11
127.157
21
-74.4948
0
LINE
8
BLACK
6
CONTINUOUS
10
127.157
20
-74.4948
11
127.148
21
-74.506
0
LINE
8
BLACK
6
CONTINUOUS
10
127.148
20
-74.506
11
127.136
21
-74.5151
0
LINE
8
BLACK
6
CONTINUOUS
10
127.136
20
-74.5151
11
127.123
21
-74.5219
0
LINE
8
BLACK
6
CONTINUOUS
10
127.123
20
-74.5219
11
127.109
21
-74.5261
0
LINE
8
BLACK
6
CONTINUOUS
10
127.109
20
-74.5261
11
127.095
21
-74.5274
0
LINE
8
BLACK
6
CONTINUOUS
10
127.095
20
-74.5274
11
127.08
21
-74.5258
0
LINE
8
BLACK
6
CONTINUOUS
10
127.08
20
-74.5258
11
127.066
21
-74.5215
0
LINE
8
BLACK
6
CONTINUOUS
10
127.066
20
-74.5215
11
127.053
21
-74.5146
0
LINE
8
BLACK
6
CONTINUOUS
10
127.053
20
-74.5146
11
127.042
21
-74.5052
0
LINE
8
BLACK
6
CONTINUOUS
10
127.042
20
-74.5052
11
127.033
21
-74.4939
0
LINE
8
BLACK
6
CONTINUOUS
10
127.033
20
-74.4939
11
127.026
21
-74.481
0
LINE
8
BLACK
6
CONTINUOUS
10
127.026
20
-74.481
11
127.022
21
-74.4669
0
LINE
8
BLACK
6
CONTINUOUS
10
127.022
20
-74.4669
11
127.02
21
-74.4524
0
LINE
8
BLACK
6
CONTINUOUS
10
127.02
20
-74.4524
11
127.02
21
-73.9463
0
LINE
8
BLACK
6
CONTINUOUS
10
127.02
20
-73.9463
11
126.992
21
-73.8892
0
LINE
8
BLACK
6
CONTINUOUS
10
126.992
20
-73.8892
11
126.935
21
-73.8607
0
LINE
8
BLACK
6
CONTINUOUS
10
126.935
20
-73.8607
11
126.827
21
-73.8607
0
LINE
8
BLACK
6
CONTINUOUS
10
126.827
20
-73.8607
11
126.77
21
-73.8892
0
LINE
8
BLACK
6
CONTINUOUS
10
126.77
20
-73.8892
11
126.742
21
-73.9463
0
LINE
8
BLACK
6
CONTINUOUS
10
126.742
20
-73.9463
11
126.742
21
-74.4524
0
LINE
8
BLACK
6
CONTINUOUS
10
126.742
20
-74.4524
11
126.742
21
-74.4534
0
LINE
8
BLACK
6
CONTINUOUS
10
126.742
20
-74.4534
11
126.74
21
-74.468
0
LINE
8
BLACK
6
CONTINUOUS
10
126.74
20
-74.468
11
126.736
21
-74.4819
0
LINE
8
BLACK
6
CONTINUOUS
10
126.736
20
-74.4819
11
126.729
21
-74.4948
0
LINE
8
BLACK
6
CONTINUOUS
10
126.729
20
-74.4948
11
126.719
21
-74.506
0
LINE
8
BLACK
6
CONTINUOUS
10
126.719
20
-74.506
11
126.708
21
-74.5151
0
LINE
8
BLACK
6
CONTINUOUS
10
126.708
20
-74.5151
11
126.695
21
-74.5219
0
LINE
8
BLACK
6
CONTINUOUS
10
126.695
20
-74.5219
11
126.681
21
-74.5261
0
LINE
8
BLACK
6
CONTINUOUS
10
126.681
20
-74.5261
11
126.666
21
-74.5274
0
LINE
8
BLACK
6
CONTINUOUS
10
126.666
20
-74.5274
11
126.652
21
-74.5258
0
LINE
8
BLACK
6
CONTINUOUS
10
126.652
20
-74.5258
11
126.638
21
-74.5215
0
LINE
8
BLACK
6
CONTINUOUS
10
126.638
20
-74.5215
11
126.625
21
-74.5146
0
LINE
8
BLACK
6
CONTINUOUS
10
126.625
20
-74.5146
11
126.613
21
-74.5052
0
LINE
8
BLACK
6
CONTINUOUS
10
126.613
20
-74.5052
11
126.604
21
-74.4939
0
LINE
8
BLACK
6
CONTINUOUS
10
126.604
20
-74.4939
11
126.597
21
-74.481
0
LINE
8
BLACK
6
CONTINUOUS
10
126.597
20
-74.481
11
126.593
21
-74.4669
0
LINE
8
BLACK
6
CONTINUOUS
10
126.593
20
-74.4669
11
126.592
21
-74.4524
0
LINE
8
BLACK
6
CONTINUOUS
10
126.592
20
-74.4524
11
126.592
21
-73.9463
0
LINE
8
BLACK
6
CONTINUOUS
10
126.592
20
-73.9463
11
126.563
21
-73.8892
0
LINE
8
BLACK
6
CONTINUOUS
10
126.563
20
-73.8892
11
126.506
21
-73.8607
0
LINE
8
BLACK
6
CONTINUOUS
10
126.506
20
-73.8607
11
126.399
21
-73.8607
0
LINE
8
BLACK
6
CONTINUOUS
10
126.399
20
-73.8607
11
126.33
21
-73.895
0
LINE
8
BLACK
6
CONTINUOUS
10
126.33
20
-73.895
11
126.313
21
-73.912
0
LINE
8
BLACK
6
CONTINUOUS
10
126.313
20
-73.912
11
126.313
21
-74.4524
0
LINE
8
BLACK
6
CONTINUOUS
10
126.313
20
-74.4524
11
126.313
21
-74.4534
0
LINE
8
BLACK
6
CONTINUOUS
10
126.313
20
-74.4534
11
126.311
21
-74.468
0
LINE
8
BLACK
6
CONTINUOUS
10
126.311
20
-74.468
11
126.307
21
-74.4819
0
LINE
8
BLACK
6
CONTINUOUS
10
126.307
20
-74.4819
11
126.3
21
-74.4948
0
LINE
8
BLACK
6
CONTINUOUS
10
126.3
20
-74.4948
11
126.291
21
-74.506
0
LINE
8
BLACK
6
CONTINUOUS
10
126.291
20
-74.506
11
126.279
21
-74.5151
0
LINE
8
BLACK
6
CONTINUOUS
10
126.279
20
-74.5151
11
126.266
21
-74.5219
0
LINE
8
BLACK
6
CONTINUOUS
10
126.266
20
-74.5219
11
126.252
21
-74.5261
0
LINE
8
BLACK
6
CONTINUOUS
10
126.252
20
-74.5261
11
126.238
21
-74.5274
0
LINE
8
BLACK
6
CONTINUOUS
10
126.238
20
-74.5274
11
126.223
21
-74.5258
0
LINE
8
BLACK
6
CONTINUOUS
10
126.223
20
-74.5258
11
126.209
21
-74.5215
0
LINE
8
BLACK
6
CONTINUOUS
10
126.209
20
-74.5215
11
126.196
21
-74.5146
0
LINE
8
BLACK
6
CONTINUOUS
10
126.196
20
-74.5146
11
126.185
21
-74.5052
0
LINE
8
BLACK
6
CONTINUOUS
10
126.185
20
-74.5052
11
126.176
21
-74.4939
0
LINE
8
BLACK
6
CONTINUOUS
10
126.176
20
-74.4939
11
126.169
21
-74.481
0
LINE
8
BLACK
6
CONTINUOUS
10
126.169
20
-74.481
11
126.165
21
-74.4669
0
LINE
8
BLACK
6
CONTINUOUS
10
126.165
20
-74.4669
11
126.163
21
-74.4524
0
LINE
8
BLACK
6
CONTINUOUS
10
126.163
20
-74.4524
11
126.163
21
-73.7857
0
LINE
8
BLACK
6
CONTINUOUS
10
126.163
20
-73.7857
11
126.163
21
-73.7847
0
LINE
8
BLACK
6
CONTINUOUS
10
126.163
20
-73.7847
11
126.165
21
-73.7701
0
LINE
8
BLACK
6
CONTINUOUS
10
126.165
20
-73.7701
11
126.169
21
-73.7562
0
LINE
8
BLACK
6
CONTINUOUS
10
126.169
20
-73.7562
11
126.176
21
-73.7433
0
LINE
8
BLACK
6
CONTINUOUS
10
126.176
20
-73.7433
11
126.186
21
-73.7321
0
LINE
8
BLACK
6
CONTINUOUS
10
126.186
20
-73.7321
11
126.197
21
-73.723
0
LINE
8
BLACK
6
CONTINUOUS
10
126.197
20
-73.723
11
126.21
21
-73.7162
0
LINE
8
BLACK
6
CONTINUOUS
10
126.21
20
-73.7162
11
126.224
21
-73.712
0
LINE
8
BLACK
6
CONTINUOUS
10
126.224
20
-73.712
11
126.239
21
-73.7107
0
LINE
8
BLACK
6
CONTINUOUS
10
126.239
20
-73.7107
11
126.253
21
-73.7122
0
LINE
8
BLACK
6
CONTINUOUS
10
126.253
20
-73.7122
11
126.267
21
-73.7166
0
LINE
8
BLACK
6
CONTINUOUS
10
126.267
20
-73.7166
11
126.28
21
-73.7235
0
LINE
8
BLACK
6
CONTINUOUS
10
126.28
20
-73.7235
11
126.291
21
-73.7329
0
LINE
8
BLACK
6
CONTINUOUS
10
126.291
20
-73.7329
11
126.299
21
-73.7427
0
LINE
8
BLACK
6
CONTINUOUS
10
126.299
20
-73.7427
11
126.347
21
-73.7186
0
LINE
8
BLACK
6
CONTINUOUS
10
126.347
20
-73.7186
11
126.348
21
-73.7182
0
LINE
8
BLACK
6
CONTINUOUS
10
126.348
20
-73.7182
11
126.35
21
-73.7174
0
LINE
8
BLACK
6
CONTINUOUS
10
126.35
20
-73.7174
11
126.352
21
-73.7164
0
LINE
8
BLACK
6
CONTINUOUS
10
126.352
20
-73.7164
11
126.357
21
-73.7149
0
LINE
8
BLACK
6
CONTINUOUS
10
126.357
20
-73.7149
11
126.362
21
-73.7131
0
LINE
8
BLACK
6
CONTINUOUS
10
126.362
20
-73.7131
11
126.364
21
-73.7128
0
LINE
8
BLACK
6
CONTINUOUS
10
126.364
20
-73.7128
11
126.366
21
-73.7121
0
LINE
8
BLACK
6
CONTINUOUS
10
126.366
20
-73.7121
11
126.371
21
-73.7116
0
LINE
8
BLACK
6
CONTINUOUS
10
126.371
20
-73.7116
11
126.377
21
-73.7108
0
LINE
8
BLACK
6
CONTINUOUS
10
126.377
20
-73.7108
11
126.379
21
-73.7109
0
LINE
8
BLACK
6
CONTINUOUS
10
126.379
20
-73.7109
11
126.381
21
-73.7107
0
LINE
8
BLACK
6
CONTINUOUS
10
126.381
20
-73.7107
11
126.524
21
-73.7107
0
LINE
8
BLACK
6
CONTINUOUS
10
126.524
20
-73.7107
11
126.525
21
-73.7107
0
LINE
8
BLACK
6
CONTINUOUS
10
127.858
20
-73.7107
11
127.86
21
-73.711
0
LINE
8
BLACK
6
CONTINUOUS
10
127.86
20
-73.711
11
127.863
21
-73.7109
0
LINE
8
BLACK
6
CONTINUOUS
10
127.863
20
-73.7109
11
127.868
21
-73.7118
0
LINE
8
BLACK
6
CONTINUOUS
10
127.868
20
-73.7118
11
127.873
21
-73.7124
0
LINE
8
BLACK
6
CONTINUOUS
10
127.873
20
-73.7124
11
127.875
21
-73.713
0
LINE
8
BLACK
6
CONTINUOUS
10
127.875
20
-73.713
11
127.877
21
-73.7134
0
LINE
8
BLACK
6
CONTINUOUS
10
127.877
20
-73.7134
11
127.882
21
-73.7152
0
LINE
8
BLACK
6
CONTINUOUS
10
127.882
20
-73.7152
11
127.887
21
-73.7168
0
LINE
8
BLACK
6
CONTINUOUS
10
127.887
20
-73.7168
11
127.889
21
-73.7178
0
LINE
8
BLACK
6
CONTINUOUS
10
127.889
20
-73.7178
11
127.891
21
-73.7186
0
LINE
8
BLACK
6
CONTINUOUS
10
127.891
20
-73.7186
11
127.986
21
-73.7663
0
LINE
8
BLACK
6
CONTINUOUS
10
127.986
20
-73.7663
11
127.987
21
-73.7667
0
LINE
8
BLACK
6
CONTINUOUS
10
127.987
20
-73.7667
11
127.988
21
-73.7676
0
LINE
8
BLACK
6
CONTINUOUS
10
127.988
20
-73.7676
11
127.99
21
-73.7683
0
LINE
8
BLACK
6
CONTINUOUS
10
127.99
20
-73.7683
11
127.994
21
-73.7716
0
LINE
8
BLACK
6
CONTINUOUS
10
127.994
20
-73.7716
11
127.999
21
-73.7747
0
LINE
8
BLACK
6
CONTINUOUS
10
127.999
20
-73.7747
11
128
21
-73.7755
0
LINE
8
BLACK
6
CONTINUOUS
10
128
20
-73.7755
11
128.001
21
-73.7752
0
LINE
8
BLACK
6
CONTINUOUS
10
128.001
20
-73.7752
11
128.002
21
-73.774
0
LINE
8
BLACK
6
CONTINUOUS
10
128.002
20
-73.774
11
128.007
21
-73.771
0
LINE
8
BLACK
6
CONTINUOUS
10
128.007
20
-73.771
11
128.011
21
-73.7678
0
LINE
8
BLACK
6
CONTINUOUS
10
128.011
20
-73.7678
11
128.013
21
-73.7671
0
LINE
8
BLACK
6
CONTINUOUS
10
128.013
20
-73.7671
11
128.014
21
-73.7663
0
LINE
8
BLACK
6
CONTINUOUS
10
128.014
20
-73.7663
11
128.109
21
-73.7186
0
LINE
8
BLACK
6
CONTINUOUS
10
128.109
20
-73.7186
11
128.11
21
-73.7182
0
LINE
8
BLACK
6
CONTINUOUS
10
128.11
20
-73.7182
11
128.112
21
-73.7174
0
LINE
8
BLACK
6
CONTINUOUS
10
128.112
20
-73.7174
11
128.114
21
-73.7164
0
LINE
8
BLACK
6
CONTINUOUS
10
128.114
20
-73.7164
11
128.119
21
-73.7149
0
LINE
8
BLACK
6
CONTINUOUS
10
128.119
20
-73.7149
11
128.124
21
-73.7131
0
LINE
8
BLACK
6
CONTINUOUS
10
128.124
20
-73.7131
11
128.126
21
-73.7128
0
LINE
8
BLACK
6
CONTINUOUS
10
128.126
20
-73.7128
11
128.128
21
-73.7121
0
LINE
8
BLACK
6
CONTINUOUS
10
128.128
20
-73.7121
11
128.133
21
-73.7116
0
LINE
8
BLACK
6
CONTINUOUS
10
128.133
20
-73.7116
11
128.138
21
-73.7108
0
LINE
8
BLACK
6
CONTINUOUS
10
128.138
20
-73.7108
11
128.141
21
-73.7109
0
LINE
8
BLACK
6
CONTINUOUS
10
128.141
20
-73.7109
11
128.143
21
-73.7107
0
LINE
8
BLACK
6
CONTINUOUS
10
128.143
20
-73.7107
11
128.286
21
-73.7107
0
LINE
8
BLACK
6
CONTINUOUS
10
128.286
20
-73.7107
11
128.287
21
-73.7107
0
LINE
8
BLACK
6
CONTINUOUS
10
128.287
20
-73.7107
11
128.289
21
-73.711
0
LINE
8
BLACK
6
CONTINUOUS
10
128.289
20
-73.711
11
128.291
21
-73.7109
0
LINE
8
BLACK
6
CONTINUOUS
10
128.291
20
-73.7109
11
128.296
21
-73.7118
0
LINE
8
BLACK
6
CONTINUOUS
10
128.296
20
-73.7118
11
128.301
21
-73.7124
0
LINE
8
BLACK
6
CONTINUOUS
10
128.301
20
-73.7124
11
128.303
21
-73.713
0
LINE
8
BLACK
6
CONTINUOUS
10
128.303
20
-73.713
11
128.306
21
-73.7134
0
LINE
8
BLACK
6
CONTINUOUS
10
128.306
20
-73.7134
11
128.31
21
-73.7152
0
LINE
8
BLACK
6
CONTINUOUS
10
128.31
20
-73.7152
11
128.315
21
-73.7168
0
LINE
8
BLACK
6
CONTINUOUS
10
128.315
20
-73.7168
11
128.317
21
-73.7178
0
LINE
8
BLACK
6
CONTINUOUS
10
128.317
20
-73.7178
11
128.319
21
-73.7186
0
LINE
8
BLACK
6
CONTINUOUS
10
128.319
20
-73.7186
11
128.414
21
-73.7663
0
LINE
8
BLACK
6
CONTINUOUS
10
128.414
20
-73.7663
11
128.415
21
-73.7667
0
LINE
8
BLACK
6
CONTINUOUS
10
128.415
20
-73.7667
11
128.417
21
-73.7676
0
LINE
8
BLACK
6
CONTINUOUS
10
128.417
20
-73.7676
11
128.418
21
-73.7683
0
LINE
8
BLACK
6
CONTINUOUS
10
128.418
20
-73.7683
11
128.423
21
-73.7716
0
LINE
8
BLACK
6
CONTINUOUS
10
128.423
20
-73.7716
11
128.428
21
-73.7747
0
LINE
8
BLACK
6
CONTINUOUS
10
128.428
20
-73.7747
11
128.429
21
-73.7758
0
LINE
8
BLACK
6
CONTINUOUS
10
128.429
20
-73.7758
11
128.43
21
-73.7768
0
LINE
8
BLACK
6
CONTINUOUS
10
128.43
20
-73.7768
11
128.434
21
-73.7809
0
LINE
8
BLACK
6
CONTINUOUS
10
128.434
20
-73.7809
11
128.438
21
-73.7849
0
LINE
8
BLACK
6
CONTINUOUS
10
128.438
20
-73.7849
11
128.439
21
-73.7862
0
LINE
8
BLACK
6
CONTINUOUS
10
128.439
20
-73.7862
11
128.44
21
-73.7874
0
LINE
8
BLACK
6
CONTINUOUS
10
128.44
20
-73.7874
11
128.443
21
-73.7922
0
LINE
8
BLACK
6
CONTINUOUS
10
128.443
20
-73.7922
11
128.447
21
-73.7969
0
LINE
8
BLACK
6
CONTINUOUS
10
128.447
20
-73.7969
11
128.447
21
-73.7984
0
LINE
8
BLACK
6
CONTINUOUS
10
128.447
20
-73.7984
11
128.448
21
-73.7998
0
LINE
8
BLACK
6
CONTINUOUS
10
128.448
20
-73.7998
11
128.496
21
-73.895
0
LINE
8
BLACK
6
CONTINUOUS
10
128.496
20
-73.895
11
128.496
21
-73.896
0
LINE
8
BLACK
6
CONTINUOUS
10
128.496
20
-73.896
11
128.497
21
-73.898
0
LINE
8
BLACK
6
CONTINUOUS
10
128.497
20
-73.898
11
128.498
21
-73.9
0
LINE
8
BLACK
6
CONTINUOUS
10
128.498
20
-73.9
11
128.499
21
-73.9049
0
LINE
8
BLACK
6
CONTINUOUS
10
128.499
20
-73.9049
11
128.501
21
-73.9097
0
LINE
8
BLACK
6
CONTINUOUS
10
128.501
20
-73.9097
11
128.502
21
-73.9119
0
LINE
8
BLACK
6
CONTINUOUS
10
128.502
20
-73.9119
11
128.502
21
-73.914
0
LINE
8
BLACK
6
CONTINUOUS
10
128.502
20
-73.914
11
128.503
21
-73.9191
0
LINE
8
BLACK
6
CONTINUOUS
10
128.503
20
-73.9191
11
128.503
21
-73.9242
0
LINE
8
BLACK
6
CONTINUOUS
10
128.503
20
-73.9242
11
128.503
21
-73.9264
0
LINE
8
BLACK
6
CONTINUOUS
10
128.503
20
-73.9264
11
128.504
21
-73.9286
0
LINE
8
BLACK
6
CONTINUOUS
10
128.504
20
-73.9286
11
128.504
21
-74.4524
0
LINE
8
BLACK
6
CONTINUOUS
10
128.504
20
-74.4524
11
128.504
21
-74.4534
0
LINE
8
BLACK
6
CONTINUOUS
10
128.504
20
-74.4534
11
128.502
21
-74.468
0
LINE
8
BLACK
6
CONTINUOUS
10
128.502
20
-74.468
11
128.498
21
-74.4819
0
LINE
8
BLACK
6
CONTINUOUS
10
128.498
20
-74.4819
11
128.49
21
-74.4948
0
LINE
8
BLACK
6
CONTINUOUS
10
128.49
20
-74.4948
11
128.481
21
-74.506
0
LINE
8
BLACK
6
CONTINUOUS
10
128.481
20
-74.506
11
128.47
21
-74.5151
0
LINE
8
BLACK
6
CONTINUOUS
10
128.47
20
-74.5151
11
128.457
21
-74.5219
0
LINE
8
BLACK
6
CONTINUOUS
10
128.457
20
-74.5219
11
128.443
21
-74.5261
0
LINE
8
BLACK
6
CONTINUOUS
10
128.443
20
-74.5261
11
128.428
21
-74.5274
0
LINE
8
BLACK
6
CONTINUOUS
10
128.428
20
-74.5274
11
128.413
21
-74.5258
0
LINE
8
BLACK
6
CONTINUOUS
10
128.413
20
-74.5258
11
128.4
21
-74.5215
0
LINE
8
BLACK
6
CONTINUOUS
10
128.4
20
-74.5215
11
128.387
21
-74.5146
0
LINE
8
BLACK
6
CONTINUOUS
10
128.387
20
-74.5146
11
128.375
21
-74.5052
0
LINE
8
BLACK
6
CONTINUOUS
10
128.375
20
-74.5052
11
128.366
21
-74.4939
0
LINE
8
BLACK
6
CONTINUOUS
10
128.366
20
-74.4939
11
128.359
21
-74.481
0
LINE
8
BLACK
6
CONTINUOUS
10
128.359
20
-74.481
11
128.355
21
-74.4669
0
LINE
8
BLACK
6
CONTINUOUS
10
128.355
20
-74.4669
11
128.354
21
-74.4524
0
LINE
8
BLACK
6
CONTINUOUS
10
128.354
20
-74.4524
11
128.354
21
-73.9463
0
LINE
8
BLACK
6
CONTINUOUS
10
128.354
20
-73.9463
11
128.325
21
-73.8892
0
LINE
8
BLACK
6
CONTINUOUS
10
128.325
20
-73.8892
11
128.268
21
-73.8607
0
LINE
8
BLACK
6
CONTINUOUS
10
128.268
20
-73.8607
11
128.161
21
-73.8607
0
LINE
8
BLACK
6
CONTINUOUS
10
128.161
20
-73.8607
11
128.104
21
-73.8892
0
LINE
8
BLACK
6
CONTINUOUS
10
128.104
20
-73.8892
11
128.075
21
-73.9463
0
LINE
8
BLACK
6
CONTINUOUS
10
128.075
20
-73.9463
11
128.075
21
-74.4524
0
LINE
8
BLACK
6
CONTINUOUS
10
128.075
20
-74.4524
11
128.075
21
-74.4534
0
LINE
8
BLACK
6
CONTINUOUS
10
128.075
20
-74.4534
11
128.073
21
-74.468
0
LINE
8
BLACK
6
CONTINUOUS
10
128.073
20
-74.468
11
128.069
21
-74.4819
0
LINE
8
BLACK
6
CONTINUOUS
10
128.069
20
-74.4819
11
128.062
21
-74.4948
0
LINE
8
BLACK
6
CONTINUOUS
10
128.062
20
-74.4948
11
128.052
21
-74.506
0
LINE
8
BLACK
6
CONTINUOUS
10
128.052
20
-74.506
11
128.041
21
-74.5151
0
LINE
8
BLACK
6
CONTINUOUS
10
128.041
20
-74.5151
11
128.028
21
-74.5219
0
LINE
8
BLACK
6
CONTINUOUS
10
128.028
20
-74.5219
11
128.014
21
-74.5261
0
LINE
8
BLACK
6
CONTINUOUS
10
128.014
20
-74.5261
11
127.999
21
-74.5274
0
LINE
8
BLACK
6
CONTINUOUS
10
127.999
20
-74.5274
11
127.985
21
-74.5258
0
LINE
8
BLACK
6
CONTINUOUS
10
127.985
20
-74.5258
11
127.971
21
-74.5215
0
LINE
8
BLACK
6
CONTINUOUS
10
127.971
20
-74.5215
11
127.958
21
-74.5146
0
LINE
8
BLACK
6
CONTINUOUS
10
127.958
20
-74.5146
11
127.947
21
-74.5052
0
LINE
8
BLACK
6
CONTINUOUS
10
127.947
20
-74.5052
11
127.938
21
-74.4939
0
LINE
8
BLACK
6
CONTINUOUS
10
127.938
20
-74.4939
11
127.931
21
-74.481
0
LINE
8
BLACK
6
CONTINUOUS
10
127.931
20
-74.481
11
127.926
21
-74.4669
0
LINE
8
BLACK
6
CONTINUOUS
10
127.926
20
-74.4669
11
127.925
21
-74.4524
0
LINE
8
BLACK
6
CONTINUOUS
10
127.925
20
-74.4524
11
127.925
21
-73.9463
0
LINE
8
BLACK
6
CONTINUOUS
10
127.925
20
-73.9463
11
127.896
21
-73.8892
0
LINE
8
BLACK
6
CONTINUOUS
10
127.896
20
-73.8892
11
127.839
21
-73.8607
0
LINE
8
BLACK
6
CONTINUOUS
10
127.839
20
-73.8607
11
127.732
21
-73.8607
0
LINE
8
BLACK
6
CONTINUOUS
10
127.732
20
-73.8607
11
127.663
21
-73.895
0
LINE
8
BLACK
6
CONTINUOUS
10
127.663
20
-73.895
11
127.646
21
-73.912
0
LINE
8
BLACK
6
CONTINUOUS
10
127.646
20
-73.912
11
127.646
21
-74.4524
0
LINE
8
BLACK
6
CONTINUOUS
10
127.646
20
-74.4524
11
127.646
21
-74.4534
0
LINE
8
BLACK
6
CONTINUOUS
10
127.646
20
-74.4534
11
127.645
21
-74.468
0
LINE
8
BLACK
6
CONTINUOUS
10
127.645
20
-74.468
11
127.64
21
-74.4819
0
LINE
8
BLACK
6
CONTINUOUS
10
127.64
20
-74.4819
11
127.633
21
-74.4948
0
LINE
8
BLACK
6
CONTINUOUS
10
127.633
20
-74.4948
11
127.624
21
-74.506
0
LINE
8
BLACK
6
CONTINUOUS
10
127.624
20
-74.506
11
127.612
21
-74.5151
0
LINE
8
BLACK
6
CONTINUOUS
10
127.612
20
-74.5151
11
127.6
21
-74.5219
0
LINE
8
BLACK
6
CONTINUOUS
10
127.6
20
-74.5219
11
127.585
21
-74.5261
0
LINE
8
BLACK
6
CONTINUOUS
10
127.585
20
-74.5261
11
127.571
21
-74.5274
0
LINE
8
BLACK
6
CONTINUOUS
10
127.571
20
-74.5274
11
127.556
21
-74.5258
0
LINE
8
BLACK
6
CONTINUOUS
10
127.556
20
-74.5258
11
127.542
21
-74.5215
0
LINE
8
BLACK
6
CONTINUOUS
10
127.542
20
-74.5215
11
127.529
21
-74.5146
0
LINE
8
BLACK
6
CONTINUOUS
10
127.529
20
-74.5146
11
127.518
21
-74.5052
0
LINE
8
BLACK
6
CONTINUOUS
10
127.518
20
-74.5052
11
127.509
21
-74.4939
0
LINE
8
BLACK
6
CONTINUOUS
10
127.509
20
-74.4939
11
127.502
21
-74.481
0
LINE
8
BLACK
6
CONTINUOUS
10
127.502
20
-74.481
11
127.498
21
-74.4669
0
LINE
8
BLACK
6
CONTINUOUS
10
127.498
20
-74.4669
11
127.496
21
-74.4524
0
LINE
8
BLACK
6
CONTINUOUS
10
127.496
20
-74.4524
11
127.496
21
-73.7857
0
LINE
8
BLACK
6
CONTINUOUS
10
127.496
20
-73.7857
11
127.496
21
-73.7847
0
LINE
8
BLACK
6
CONTINUOUS
10
127.496
20
-73.7847
11
127.498
21
-73.7701
0
LINE
8
BLACK
6
CONTINUOUS
10
127.498
20
-73.7701
11
127.502
21
-73.7562
0
LINE
8
BLACK
6
CONTINUOUS
10
127.502
20
-73.7562
11
127.51
21
-73.7433
0
LINE
8
BLACK
6
CONTINUOUS
10
127.51
20
-73.7433
11
127.519
21
-73.7321
0
LINE
8
BLACK
6
CONTINUOUS
10
127.519
20
-73.7321
11
127.53
21
-73.723
0
LINE
8
BLACK
6
CONTINUOUS
10
127.53
20
-73.723
11
127.543
21
-73.7162
0
LINE
8
BLACK
6
CONTINUOUS
10
127.543
20
-73.7162
11
127.557
21
-73.712
0
LINE
8
BLACK
6
CONTINUOUS
10
127.557
20
-73.712
11
127.572
21
-73.7107
0
LINE
8
BLACK
6
CONTINUOUS
10
127.572
20
-73.7107
11
127.587
21
-73.7122
0
LINE
8
BLACK
6
CONTINUOUS
10
127.587
20
-73.7122
11
127.6
21
-73.7166
0
LINE
8
BLACK
6
CONTINUOUS
10
127.6
20
-73.7166
11
127.613
21
-73.7235
0
LINE
8
BLACK
6
CONTINUOUS
10
127.613
20
-73.7235
11
127.625
21
-73.7329
0
LINE
8
BLACK
6
CONTINUOUS
10
127.625
20
-73.7329
11
127.633
21
-73.7427
0
LINE
8
BLACK
6
CONTINUOUS
10
127.633
20
-73.7427
11
127.681
21
-73.7186
0
LINE
8
BLACK
6
CONTINUOUS
10
127.681
20
-73.7186
11
127.682
21
-73.7182
0
LINE
8
BLACK
6
CONTINUOUS
10
127.682
20
-73.7182
11
127.684
21
-73.7174
0
LINE
8
BLACK
6
CONTINUOUS
10
127.684
20
-73.7174
11
127.686
21
-73.7164
0
LINE
8
BLACK
6
CONTINUOUS
10
127.686
20
-73.7164
11
127.691
21
-73.7149
0
LINE
8
BLACK
6
CONTINUOUS
10
127.691
20
-73.7149
11
127.695
21
-73.7131
0
LINE
8
BLACK
6
CONTINUOUS
10
127.695
20
-73.7131
11
127.698
21
-73.7128
0
LINE
8
BLACK
6
CONTINUOUS
10
127.698
20
-73.7128
11
127.7
21
-73.7121
0
LINE
8
BLACK
6
CONTINUOUS
10
127.7
20
-73.7121
11
127.705
21
-73.7116
0
LINE
8
BLACK
6
CONTINUOUS
10
127.705
20
-73.7116
11
127.71
21
-73.7108
0
LINE
8
BLACK
6
CONTINUOUS
10
127.71
20
-73.7108
11
127.712
21
-73.7109
0
LINE
8
BLACK
6
CONTINUOUS
10
127.712
20
-73.7109
11
127.714
21
-73.7107
0
LINE
8
BLACK
6
CONTINUOUS
10
127.714
20
-73.7107
11
127.857
21
-73.7107
0
LINE
8
BLACK
6
CONTINUOUS
10
127.857
20
-73.7107
11
127.858
21
-73.7107
  0
ENDSEC
  0
EOF
