  0
SECTION
  2
HEADER
  9
$ANGBASE
  50
0.0
  9
$ANGDIR
  70
1
  9
$MEASUREMENT
  70
1
  0
ENDSEC
  0
SECTION
  2
TABLES
  0
TABLE
  2
LTYPE
  70
4
  0
LTYPE
  5
40F
  2
CONTINUOUS
  70
0
  3
Solid line
  72
65
  73
0
  40
0.0
  0
LTYPE
  5
410
  2
DASHDOT
 70
0
  3
Dash Dot ____ _ ____ _
 72
65
 73
4
 40
2.0
 49
1.25
 49
-0.25
 49
0.25
 49
-0.25
  0
LTYPE
  5
411
  2
DASHED
 70
0
  3
Dashed __ __ __ __ __
 72
65
 73
2
 40
0.75
 49
0.5
 49
-0.25
  0
LTYPE
  5
43B
  2
DOTTED
 70
0
  3
Dotted .  .  .  .
 72
65
 73
2
 40
0.2
 49
0.0
 49
-0.2
  0
ENDTAB
  0
TABLE
  2
STYLE
  70
4
  0
STYLE
  2
KICAD
  70
0
  40
0
  41
1
  42
1
  50
0
  71
0
  3
isocp.shx
  0
STYLE
  2
KICADB
  70
0
  40
0
  41
1
  42
1
  50
0
  71
0
  3
isocp.shx
  0
STYLE
  2
KICADI
  70
0
  40
0
  41
1
  42
1
  50
15
  71
0
  3
isocp.shx
  0
STYLE
  2
KICADBI
  70
0
  40
0
  41
1
  42
1
  50
15
  71
0
  3
isocp.shx
  0
ENDTAB
  0
TABLE
  2
LAYER
  70
1
  0
LAYER
  2
BLACK
  70
0
  62
7
  6
CONTINUOUS
  0
ENDTAB
  0
ENDSEC
  0
SECTION
  2
ENTITIES
0
LINE
8
BLACK
6
CONTINUOUS
10
190.467
20
-84.4615
11
190.758
21
-84.5821
0
LINE
8
BLACK
6
CONTINUOUS
10
190.758
20
-84.5821
11
191.02
21
-84.7572
0
LINE
8
BLACK
6
CONTINUOUS
10
191.02
20
-84.7572
11
191.243
21
-84.9801
0
LINE
8
BLACK
6
CONTINUOUS
10
191.243
20
-84.9801
11
191.418
21
-85.2421
0
LINE
8
BLACK
6
CONTINUOUS
10
191.418
20
-85.2421
11
191.539
21
-85.5333
0
LINE
8
BLACK
6
CONTINUOUS
10
191.539
20
-85.5333
11
191.6
21
-85.8424
0
LINE
8
BLACK
6
CONTINUOUS
10
191.6
20
-85.8424
11
191.6
21
-86.1576
0
LINE
8
BLACK
6
CONTINUOUS
10
191.6
20
-86.1576
11
191.539
21
-86.4667
0
LINE
8
BLACK
6
CONTINUOUS
10
191.539
20
-86.4667
11
191.418
21
-86.7579
0
LINE
8
BLACK
6
CONTINUOUS
10
191.418
20
-86.7579
11
191.243
21
-87.0199
0
LINE
8
BLACK
6
CONTINUOUS
10
191.243
20
-87.0199
11
191.02
21
-87.2428
0
LINE
8
BLACK
6
CONTINUOUS
10
191.02
20
-87.2428
11
190.758
21
-87.4179
0
LINE
8
BLACK
6
CONTINUOUS
10
190.758
20
-87.4179
11
190.467
21
-87.5385
0
LINE
8
BLACK
6
CONTINUOUS
10
190.467
20
-87.5385
11
190.158
21
-87.6
0
LINE
8
BLACK
6
CONTINUOUS
10
190.158
20
-87.6
11
189.842
21
-87.6
0
LINE
8
BLACK
6
CONTINUOUS
10
189.842
20
-87.6
11
189.533
21
-87.5385
0
LINE
8
BLACK
6
CONTINUOUS
10
189.533
20
-87.5385
11
189.242
21
-87.4179
0
LINE
8
BLACK
6
CONTINUOUS
10
189.242
20
-87.4179
11
188.98
21
-87.2428
0
LINE
8
BLACK
6
CONTINUOUS
10
188.98
20
-87.2428
11
188.757
21
-87.0199
0
LINE
8
BLACK
6
CONTINUOUS
10
188.757
20
-87.0199
11
188.582
21
-86.7579
0
LINE
8
BLACK
6
CONTINUOUS
10
188.582
20
-86.7579
11
188.461
21
-86.4667
0
LINE
8
BLACK
6
CONTINUOUS
10
188.461
20
-86.4667
11
188.4
21
-86.1576
0
LINE
8
BLACK
6
CONTINUOUS
10
188.4
20
-86.1576
11
188.4
21
-85.8424
0
LINE
8
BLACK
6
CONTINUOUS
10
188.4
20
-85.8424
11
188.461
21
-85.5333
0
LINE
8
BLACK
6
CONTINUOUS
10
188.461
20
-85.5333
11
188.582
21
-85.2421
0
LINE
8
BLACK
6
CONTINUOUS
10
188.582
20
-85.2421
11
188.757
21
-84.9801
0
LINE
8
BLACK
6
CONTINUOUS
10
188.757
20
-84.9801
11
188.98
21
-84.7572
0
LINE
8
BLACK
6
CONTINUOUS
10
188.98
20
-84.7572
11
189.242
21
-84.5821
0
LINE
8
BLACK
6
CONTINUOUS
10
189.242
20
-84.5821
11
189.533
21
-84.4615
0
LINE
8
BLACK
6
CONTINUOUS
10
189.533
20
-84.4615
11
189.842
21
-84.4
0
LINE
8
BLACK
6
CONTINUOUS
10
189.842
20
-84.4
11
190.158
21
-84.4
0
LINE
8
BLACK
6
CONTINUOUS
10
190.158
20
-84.4
11
190.467
21
-84.4615
0
LINE
8
BLACK
6
CONTINUOUS
10
127.467
20
-84.4615
11
127.758
21
-84.5821
0
LINE
8
BLACK
6
CONTINUOUS
10
127.758
20
-84.5821
11
128.02
21
-84.7572
0
LINE
8
BLACK
6
CONTINUOUS
10
128.02
20
-84.7572
11
128.243
21
-84.9801
0
LINE
8
BLACK
6
CONTINUOUS
10
128.243
20
-84.9801
11
128.418
21
-85.2421
0
LINE
8
BLACK
6
CONTINUOUS
10
128.418
20
-85.2421
11
128.539
21
-85.5333
0
LINE
8
BLACK
6
CONTINUOUS
10
128.539
20
-85.5333
11
128.6
21
-85.8424
0
LINE
8
BLACK
6
CONTINUOUS
10
128.6
20
-85.8424
11
128.6
21
-86.1576
0
LINE
8
BLACK
6
CONTINUOUS
10
128.6
20
-86.1576
11
128.539
21
-86.4667
0
LINE
8
BLACK
6
CONTINUOUS
10
128.539
20
-86.4667
11
128.418
21
-86.7579
0
LINE
8
BLACK
6
CONTINUOUS
10
128.418
20
-86.7579
11
128.243
21
-87.0199
0
LINE
8
BLACK
6
CONTINUOUS
10
128.243
20
-87.0199
11
128.02
21
-87.2428
0
LINE
8
BLACK
6
CONTINUOUS
10
128.02
20
-87.2428
11
127.758
21
-87.4179
0
LINE
8
BLACK
6
CONTINUOUS
10
127.758
20
-87.4179
11
127.467
21
-87.5385
0
LINE
8
BLACK
6
CONTINUOUS
10
127.467
20
-87.5385
11
127.158
21
-87.6
0
LINE
8
BLACK
6
CONTINUOUS
10
127.158
20
-87.6
11
126.842
21
-87.6
0
LINE
8
BLACK
6
CONTINUOUS
10
126.842
20
-87.6
11
126.533
21
-87.5385
0
LINE
8
BLACK
6
CONTINUOUS
10
126.533
20
-87.5385
11
126.242
21
-87.4179
0
LINE
8
BLACK
6
CONTINUOUS
10
126.242
20
-87.4179
11
125.98
21
-87.2428
0
LINE
8
BLACK
6
CONTINUOUS
10
125.98
20
-87.2428
11
125.757
21
-87.0199
0
LINE
8
BLACK
6
CONTINUOUS
10
125.757
20
-87.0199
11
125.582
21
-86.7579
0
LINE
8
BLACK
6
CONTINUOUS
10
125.582
20
-86.7579
11
125.461
21
-86.4667
0
LINE
8
BLACK
6
CONTINUOUS
10
125.461
20
-86.4667
11
125.4
21
-86.1576
0
LINE
8
BLACK
6
CONTINUOUS
10
125.4
20
-86.1576
11
125.4
21
-85.8424
0
LINE
8
BLACK
6
CONTINUOUS
10
125.4
20
-85.8424
11
125.461
21
-85.5333
0
LINE
8
BLACK
6
CONTINUOUS
10
125.461
20
-85.5333
11
125.582
21
-85.2421
0
LINE
8
BLACK
6
CONTINUOUS
10
125.582
20
-85.2421
11
125.757
21
-84.9801
0
LINE
8
BLACK
6
CONTINUOUS
10
125.757
20
-84.9801
11
125.98
21
-84.7572
0
LINE
8
BLACK
6
CONTINUOUS
10
125.98
20
-84.7572
11
126.242
21
-84.5821
0
LINE
8
BLACK
6
CONTINUOUS
10
126.242
20
-84.5821
11
126.533
21
-84.4615
0
LINE
8
BLACK
6
CONTINUOUS
10
126.533
20
-84.4615
11
126.842
21
-84.4
0
LINE
8
BLACK
6
CONTINUOUS
10
126.842
20
-84.4
11
127.158
21
-84.4
0
LINE
8
BLACK
6
CONTINUOUS
10
127.158
20
-84.4
11
127.467
21
-84.4615
0
LINE
8
BLACK
6
CONTINUOUS
10
145.067
20
-73.1737
11
145.795
21
-73.4752
0
LINE
8
BLACK
6
CONTINUOUS
10
145.795
20
-73.4752
11
146.45
21
-73.913
0
LINE
8
BLACK
6
CONTINUOUS
10
146.45
20
-73.913
11
147.007
21
-74.4701
0
LINE
8
BLACK
6
CONTINUOUS
10
147.007
20
-74.4701
11
147.445
21
-75.1253
0
LINE
8
BLACK
6
CONTINUOUS
10
147.445
20
-75.1253
11
147.746
21
-75.8532
0
LINE
8
BLACK
6
CONTINUOUS
10
147.746
20
-75.8532
11
147.9
21
-76.626
0
LINE
8
BLACK
6
CONTINUOUS
10
147.9
20
-76.626
11
147.9
21
-77.414
0
LINE
8
BLACK
6
CONTINUOUS
10
147.9
20
-77.414
11
147.746
21
-78.1868
0
LINE
8
BLACK
6
CONTINUOUS
10
147.746
20
-78.1868
11
147.445
21
-78.9147
0
LINE
8
BLACK
6
CONTINUOUS
10
147.445
20
-78.9147
11
147.007
21
-79.5699
0
LINE
8
BLACK
6
CONTINUOUS
10
147.007
20
-79.5699
11
146.45
21
-80.127
0
LINE
8
BLACK
6
CONTINUOUS
10
146.45
20
-80.127
11
145.795
21
-80.5648
0
LINE
8
BLACK
6
CONTINUOUS
10
145.795
20
-80.5648
11
145.067
21
-80.8663
0
LINE
8
BLACK
6
CONTINUOUS
10
145.067
20
-80.8663
11
144.294
21
-81.02
0
LINE
8
BLACK
6
CONTINUOUS
10
144.294
20
-81.02
11
143.506
21
-81.02
0
LINE
8
BLACK
6
CONTINUOUS
10
143.506
20
-81.02
11
142.733
21
-80.8663
0
LINE
8
BLACK
6
CONTINUOUS
10
142.733
20
-80.8663
11
142.005
21
-80.5648
0
LINE
8
BLACK
6
CONTINUOUS
10
142.005
20
-80.5648
11
141.35
21
-80.127
0
LINE
8
BLACK
6
CONTINUOUS
10
141.35
20
-80.127
11
140.793
21
-79.5699
0
LINE
8
BLACK
6
CONTINUOUS
10
140.793
20
-79.5699
11
140.355
21
-78.9147
0
LINE
8
BLACK
6
CONTINUOUS
10
140.355
20
-78.9147
11
140.054
21
-78.1868
0
LINE
8
BLACK
6
CONTINUOUS
10
140.054
20
-78.1868
11
139.9
21
-77.414
0
LINE
8
BLACK
6
CONTINUOUS
10
139.9
20
-77.414
11
139.9
21
-76.626
0
LINE
8
BLACK
6
CONTINUOUS
10
139.9
20
-76.626
11
140.054
21
-75.8532
0
LINE
8
BLACK
6
CONTINUOUS
10
140.054
20
-75.8532
11
140.355
21
-75.1253
0
LINE
8
BLACK
6
CONTINUOUS
10
140.355
20
-75.1253
11
140.793
21
-74.4701
0
LINE
8
BLACK
6
CONTINUOUS
10
140.793
20
-74.4701
11
141.35
21
-73.913
0
LINE
8
BLACK
6
CONTINUOUS
10
141.35
20
-73.913
11
142.005
21
-73.4752
0
LINE
8
BLACK
6
CONTINUOUS
10
142.005
20
-73.4752
11
142.733
21
-73.1737
0
LINE
8
BLACK
6
CONTINUOUS
10
142.733
20
-73.1737
11
143.506
21
-73.02
0
LINE
8
BLACK
6
CONTINUOUS
10
143.506
20
-73.02
11
144.294
21
-73.02
0
LINE
8
BLACK
6
CONTINUOUS
10
144.294
20
-73.02
11
145.067
21
-73.1737
0
LINE
8
BLACK
6
CONTINUOUS
10
173.107
20
-73.1737
11
173.835
21
-73.4752
0
LINE
8
BLACK
6
CONTINUOUS
10
173.835
20
-73.4752
11
174.49
21
-73.913
0
LINE
8
BLACK
6
CONTINUOUS
10
174.49
20
-73.913
11
175.047
21
-74.4701
0
LINE
8
BLACK
6
CONTINUOUS
10
175.047
20
-74.4701
11
175.485
21
-75.1253
0
LINE
8
BLACK
6
CONTINUOUS
10
175.485
20
-75.1253
11
175.786
21
-75.8532
0
LINE
8
BLACK
6
CONTINUOUS
10
175.786
20
-75.8532
11
175.94
21
-76.626
0
LINE
8
BLACK
6
CONTINUOUS
10
175.94
20
-76.626
11
175.94
21
-77.414
0
LINE
8
BLACK
6
CONTINUOUS
10
175.94
20
-77.414
11
175.786
21
-78.1868
0
LINE
8
BLACK
6
CONTINUOUS
10
175.786
20
-78.1868
11
175.485
21
-78.9147
0
LINE
8
BLACK
6
CONTINUOUS
10
175.485
20
-78.9147
11
175.047
21
-79.5699
0
LINE
8
BLACK
6
CONTINUOUS
10
175.047
20
-79.5699
11
174.49
21
-80.127
0
LINE
8
BLACK
6
CONTINUOUS
10
174.49
20
-80.127
11
173.835
21
-80.5648
0
LINE
8
BLACK
6
CONTINUOUS
10
173.835
20
-80.5648
11
173.107
21
-80.8663
0
LINE
8
BLACK
6
CONTINUOUS
10
173.107
20
-80.8663
11
172.334
21
-81.02
0
LINE
8
BLACK
6
CONTINUOUS
10
172.334
20
-81.02
11
171.546
21
-81.02
0
LINE
8
BLACK
6
CONTINUOUS
10
171.546
20
-81.02
11
170.773
21
-80.8663
0
LINE
8
BLACK
6
CONTINUOUS
10
170.773
20
-80.8663
11
170.045
21
-80.5648
0
LINE
8
BLACK
6
CONTINUOUS
10
170.045
20
-80.5648
11
169.39
21
-80.127
0
LINE
8
BLACK
6
CONTINUOUS
10
169.39
20
-80.127
11
168.833
21
-79.5699
0
LINE
8
BLACK
6
CONTINUOUS
10
168.833
20
-79.5699
11
168.395
21
-78.9147
0
LINE
8
BLACK
6
CONTINUOUS
10
168.395
20
-78.9147
11
168.094
21
-78.1868
0
LINE
8
BLACK
6
CONTINUOUS
10
168.094
20
-78.1868
11
167.94
21
-77.414
0
LINE
8
BLACK
6
CONTINUOUS
10
167.94
20
-77.414
11
167.94
21
-76.626
0
LINE
8
BLACK
6
CONTINUOUS
10
167.94
20
-76.626
11
168.094
21
-75.8532
0
LINE
8
BLACK
6
CONTINUOUS
10
168.094
20
-75.8532
11
168.395
21
-75.1253
0
LINE
8
BLACK
6
CONTINUOUS
10
168.395
20
-75.1253
11
168.833
21
-74.4701
0
LINE
8
BLACK
6
CONTINUOUS
10
168.833
20
-74.4701
11
169.39
21
-73.913
0
LINE
8
BLACK
6
CONTINUOUS
10
169.39
20
-73.913
11
170.045
21
-73.4752
0
LINE
8
BLACK
6
CONTINUOUS
10
170.045
20
-73.4752
11
170.773
21
-73.1737
0
LINE
8
BLACK
6
CONTINUOUS
10
170.773
20
-73.1737
11
171.546
21
-73.02
0
LINE
8
BLACK
6
CONTINUOUS
10
171.546
20
-73.02
11
172.334
21
-73.02
0
LINE
8
BLACK
6
CONTINUOUS
10
172.334
20
-73.02
11
173.107
21
-73.1737
0
LINE
8
BLACK
6
CONTINUOUS
10
153.088
20
-77.7227
11
153.243
21
-77.7867
0
LINE
8
BLACK
6
CONTINUOUS
10
153.243
20
-77.7867
11
153.382
21
-77.8798
0
LINE
8
BLACK
6
CONTINUOUS
10
153.382
20
-77.8798
11
153.5
21
-77.9982
0
LINE
8
BLACK
6
CONTINUOUS
10
153.5
20
-77.9982
11
153.593
21
-78.1374
0
LINE
8
BLACK
6
CONTINUOUS
10
153.593
20
-78.1374
11
153.657
21
-78.2921
0
LINE
8
BLACK
6
CONTINUOUS
10
153.657
20
-78.2921
11
153.69
21
-78.4563
0
LINE
8
BLACK
6
CONTINUOUS
10
153.69
20
-78.4563
11
153.69
21
-78.6237
0
LINE
8
BLACK
6
CONTINUOUS
10
153.69
20
-78.6237
11
153.657
21
-78.7879
0
LINE
8
BLACK
6
CONTINUOUS
10
153.657
20
-78.7879
11
153.593
21
-78.9426
0
LINE
8
BLACK
6
CONTINUOUS
10
153.593
20
-78.9426
11
153.5
21
-79.0818
0
LINE
8
BLACK
6
CONTINUOUS
10
153.5
20
-79.0818
11
153.382
21
-79.2002
0
LINE
8
BLACK
6
CONTINUOUS
10
153.382
20
-79.2002
11
153.243
21
-79.2933
0
LINE
8
BLACK
6
CONTINUOUS
10
153.243
20
-79.2933
11
153.088
21
-79.3573
0
LINE
8
BLACK
6
CONTINUOUS
10
153.088
20
-79.3573
11
152.924
21
-79.39
0
LINE
8
BLACK
6
CONTINUOUS
10
152.924
20
-79.39
11
152.756
21
-79.39
0
LINE
8
BLACK
6
CONTINUOUS
10
152.756
20
-79.39
11
152.592
21
-79.3573
0
LINE
8
BLACK
6
CONTINUOUS
10
152.592
20
-79.3573
11
152.437
21
-79.2933
0
LINE
8
BLACK
6
CONTINUOUS
10
152.437
20
-79.2933
11
152.298
21
-79.2002
0
LINE
8
BLACK
6
CONTINUOUS
10
152.298
20
-79.2002
11
152.18
21
-79.0818
0
LINE
8
BLACK
6
CONTINUOUS
10
152.18
20
-79.0818
11
152.087
21
-78.9426
0
LINE
8
BLACK
6
CONTINUOUS
10
152.087
20
-78.9426
11
152.023
21
-78.7879
0
LINE
8
BLACK
6
CONTINUOUS
10
152.023
20
-78.7879
11
151.99
21
-78.6237
0
LINE
8
BLACK
6
CONTINUOUS
10
151.99
20
-78.6237
11
151.99
21
-78.4563
0
LINE
8
BLACK
6
CONTINUOUS
10
151.99
20
-78.4563
11
152.023
21
-78.2921
0
LINE
8
BLACK
6
CONTINUOUS
10
152.023
20
-78.2921
11
152.087
21
-78.1374
0
LINE
8
BLACK
6
CONTINUOUS
10
152.087
20
-78.1374
11
152.18
21
-77.9982
0
LINE
8
BLACK
6
CONTINUOUS
10
152.18
20
-77.9982
11
152.298
21
-77.8798
0
LINE
8
BLACK
6
CONTINUOUS
10
152.298
20
-77.8798
11
152.437
21
-77.7867
0
LINE
8
BLACK
6
CONTINUOUS
10
152.437
20
-77.7867
11
152.592
21
-77.7227
0
LINE
8
BLACK
6
CONTINUOUS
10
152.592
20
-77.7227
11
152.756
21
-77.69
0
LINE
8
BLACK
6
CONTINUOUS
10
152.756
20
-77.69
11
152.924
21
-77.69
0
LINE
8
BLACK
6
CONTINUOUS
10
152.924
20
-77.69
11
153.088
21
-77.7227
0
LINE
8
BLACK
6
CONTINUOUS
10
155.628
20
-77.7227
11
155.783
21
-77.7867
0
LINE
8
BLACK
6
CONTINUOUS
10
155.783
20
-77.7867
11
155.922
21
-77.8798
0
LINE
8
BLACK
6
CONTINUOUS
10
155.922
20
-77.8798
11
156.04
21
-77.9982
0
LINE
8
BLACK
6
CONTINUOUS
10
156.04
20
-77.9982
11
156.133
21
-78.1374
0
LINE
8
BLACK
6
CONTINUOUS
10
156.133
20
-78.1374
11
156.197
21
-78.2921
0
LINE
8
BLACK
6
CONTINUOUS
10
156.197
20
-78.2921
11
156.23
21
-78.4563
0
LINE
8
BLACK
6
CONTINUOUS
10
156.23
20
-78.4563
11
156.23
21
-78.6237
0
LINE
8
BLACK
6
CONTINUOUS
10
156.23
20
-78.6237
11
156.197
21
-78.7879
0
LINE
8
BLACK
6
CONTINUOUS
10
156.197
20
-78.7879
11
156.133
21
-78.9426
0
LINE
8
BLACK
6
CONTINUOUS
10
156.133
20
-78.9426
11
156.04
21
-79.0818
0
LINE
8
BLACK
6
CONTINUOUS
10
156.04
20
-79.0818
11
155.922
21
-79.2002
0
LINE
8
BLACK
6
CONTINUOUS
10
155.922
20
-79.2002
11
155.783
21
-79.2933
0
LINE
8
BLACK
6
CONTINUOUS
10
155.783
20
-79.2933
11
155.628
21
-79.3573
0
LINE
8
BLACK
6
CONTINUOUS
10
155.628
20
-79.3573
11
155.464
21
-79.39
0
LINE
8
BLACK
6
CONTINUOUS
10
155.464
20
-79.39
11
155.296
21
-79.39
0
LINE
8
BLACK
6
CONTINUOUS
10
155.296
20
-79.39
11
155.132
21
-79.3573
0
LINE
8
BLACK
6
CONTINUOUS
10
155.132
20
-79.3573
11
154.977
21
-79.2933
0
LINE
8
BLACK
6
CONTINUOUS
10
154.977
20
-79.2933
11
154.838
21
-79.2002
0
LINE
8
BLACK
6
CONTINUOUS
10
154.838
20
-79.2002
11
154.72
21
-79.0818
0
LINE
8
BLACK
6
CONTINUOUS
10
154.72
20
-79.0818
11
154.627
21
-78.9426
0
LINE
8
BLACK
6
CONTINUOUS
10
154.627
20
-78.9426
11
154.563
21
-78.7879
0
LINE
8
BLACK
6
CONTINUOUS
10
154.563
20
-78.7879
11
154.53
21
-78.6237
0
LINE
8
BLACK
6
CONTINUOUS
10
154.53
20
-78.6237
11
154.53
21
-78.4563
0
LINE
8
BLACK
6
CONTINUOUS
10
154.53
20
-78.4563
11
154.563
21
-78.2921
0
LINE
8
BLACK
6
CONTINUOUS
10
154.563
20
-78.2921
11
154.627
21
-78.1374
0
LINE
8
BLACK
6
CONTINUOUS
10
154.627
20
-78.1374
11
154.72
21
-77.9982
0
LINE
8
BLACK
6
CONTINUOUS
10
154.72
20
-77.9982
11
154.838
21
-77.8798
0
LINE
8
BLACK
6
CONTINUOUS
10
154.838
20
-77.8798
11
154.977
21
-77.7867
0
LINE
8
BLACK
6
CONTINUOUS
10
154.977
20
-77.7867
11
155.132
21
-77.7227
0
LINE
8
BLACK
6
CONTINUOUS
10
155.132
20
-77.7227
11
155.296
21
-77.69
0
LINE
8
BLACK
6
CONTINUOUS
10
155.296
20
-77.69
11
155.464
21
-77.69
0
LINE
8
BLACK
6
CONTINUOUS
10
155.464
20
-77.69
11
155.628
21
-77.7227
0
LINE
8
BLACK
6
CONTINUOUS
10
158.168
20
-77.7227
11
158.323
21
-77.7867
0
LINE
8
BLACK
6
CONTINUOUS
10
158.323
20
-77.7867
11
158.462
21
-77.8798
0
LINE
8
BLACK
6
CONTINUOUS
10
158.462
20
-77.8798
11
158.58
21
-77.9982
0
LINE
8
BLACK
6
CONTINUOUS
10
158.58
20
-77.9982
11
158.673
21
-78.1374
0
LINE
8
BLACK
6
CONTINUOUS
10
158.673
20
-78.1374
11
158.737
21
-78.2921
0
LINE
8
BLACK
6
CONTINUOUS
10
158.737
20
-78.2921
11
158.77
21
-78.4563
0
LINE
8
BLACK
6
CONTINUOUS
10
158.77
20
-78.4563
11
158.77
21
-78.6237
0
LINE
8
BLACK
6
CONTINUOUS
10
158.77
20
-78.6237
11
158.737
21
-78.7879
0
LINE
8
BLACK
6
CONTINUOUS
10
158.737
20
-78.7879
11
158.673
21
-78.9426
0
LINE
8
BLACK
6
CONTINUOUS
10
158.673
20
-78.9426
11
158.58
21
-79.0818
0
LINE
8
BLACK
6
CONTINUOUS
10
158.58
20
-79.0818
11
158.462
21
-79.2002
0
LINE
8
BLACK
6
CONTINUOUS
10
158.462
20
-79.2002
11
158.323
21
-79.2933
0
LINE
8
BLACK
6
CONTINUOUS
10
158.323
20
-79.2933
11
158.168
21
-79.3573
0
LINE
8
BLACK
6
CONTINUOUS
10
158.168
20
-79.3573
11
158.004
21
-79.39
0
LINE
8
BLACK
6
CONTINUOUS
10
158.004
20
-79.39
11
157.836
21
-79.39
0
LINE
8
BLACK
6
CONTINUOUS
10
157.836
20
-79.39
11
157.672
21
-79.3573
0
LINE
8
BLACK
6
CONTINUOUS
10
157.672
20
-79.3573
11
157.517
21
-79.2933
0
LINE
8
BLACK
6
CONTINUOUS
10
157.517
20
-79.2933
11
157.378
21
-79.2002
0
LINE
8
BLACK
6
CONTINUOUS
10
157.378
20
-79.2002
11
157.26
21
-79.0818
0
LINE
8
BLACK
6
CONTINUOUS
10
157.26
20
-79.0818
11
157.167
21
-78.9426
0
LINE
8
BLACK
6
CONTINUOUS
10
157.167
20
-78.9426
11
157.103
21
-78.7879
0
LINE
8
BLACK
6
CONTINUOUS
10
157.103
20
-78.7879
11
157.07
21
-78.6237
0
LINE
8
BLACK
6
CONTINUOUS
10
157.07
20
-78.6237
11
157.07
21
-78.4563
0
LINE
8
BLACK
6
CONTINUOUS
10
157.07
20
-78.4563
11
157.103
21
-78.2921
0
LINE
8
BLACK
6
CONTINUOUS
10
157.103
20
-78.2921
11
157.167
21
-78.1374
0
LINE
8
BLACK
6
CONTINUOUS
10
157.167
20
-78.1374
11
157.26
21
-77.9982
0
LINE
8
BLACK
6
CONTINUOUS
10
157.26
20
-77.9982
11
157.378
21
-77.8798
0
LINE
8
BLACK
6
CONTINUOUS
10
157.378
20
-77.8798
11
157.517
21
-77.7867
0
LINE
8
BLACK
6
CONTINUOUS
10
157.517
20
-77.7867
11
157.672
21
-77.7227
0
LINE
8
BLACK
6
CONTINUOUS
10
157.672
20
-77.7227
11
157.836
21
-77.69
0
LINE
8
BLACK
6
CONTINUOUS
10
157.836
20
-77.69
11
158.004
21
-77.69
0
LINE
8
BLACK
6
CONTINUOUS
10
158.004
20
-77.69
11
158.168
21
-77.7227
0
LINE
8
BLACK
6
CONTINUOUS
10
160.708
20
-77.7227
11
160.863
21
-77.7867
0
LINE
8
BLACK
6
CONTINUOUS
10
160.863
20
-77.7867
11
161.002
21
-77.8798
0
LINE
8
BLACK
6
CONTINUOUS
10
161.002
20
-77.8798
11
161.12
21
-77.9982
0
LINE
8
BLACK
6
CONTINUOUS
10
161.12
20
-77.9982
11
161.213
21
-78.1374
0
LINE
8
BLACK
6
CONTINUOUS
10
161.213
20
-78.1374
11
161.277
21
-78.2921
0
LINE
8
BLACK
6
CONTINUOUS
10
161.277
20
-78.2921
11
161.31
21
-78.4563
0
LINE
8
BLACK
6
CONTINUOUS
10
161.31
20
-78.4563
11
161.31
21
-78.6237
0
LINE
8
BLACK
6
CONTINUOUS
10
161.31
20
-78.6237
11
161.277
21
-78.7879
0
LINE
8
BLACK
6
CONTINUOUS
10
161.277
20
-78.7879
11
161.213
21
-78.9426
0
LINE
8
BLACK
6
CONTINUOUS
10
161.213
20
-78.9426
11
161.12
21
-79.0818
0
LINE
8
BLACK
6
CONTINUOUS
10
161.12
20
-79.0818
11
161.002
21
-79.2002
0
LINE
8
BLACK
6
CONTINUOUS
10
161.002
20
-79.2002
11
160.863
21
-79.2933
0
LINE
8
BLACK
6
CONTINUOUS
10
160.863
20
-79.2933
11
160.708
21
-79.3573
0
LINE
8
BLACK
6
CONTINUOUS
10
160.708
20
-79.3573
11
160.544
21
-79.39
0
LINE
8
BLACK
6
CONTINUOUS
10
160.544
20
-79.39
11
160.376
21
-79.39
0
LINE
8
BLACK
6
CONTINUOUS
10
160.376
20
-79.39
11
160.212
21
-79.3573
0
LINE
8
BLACK
6
CONTINUOUS
10
160.212
20
-79.3573
11
160.057
21
-79.2933
0
LINE
8
BLACK
6
CONTINUOUS
10
160.057
20
-79.2933
11
159.918
21
-79.2002
0
LINE
8
BLACK
6
CONTINUOUS
10
159.918
20
-79.2002
11
159.8
21
-79.0818
0
LINE
8
BLACK
6
CONTINUOUS
10
159.8
20
-79.0818
11
159.707
21
-78.9426
0
LINE
8
BLACK
6
CONTINUOUS
10
159.707
20
-78.9426
11
159.643
21
-78.7879
0
LINE
8
BLACK
6
CONTINUOUS
10
159.643
20
-78.7879
11
159.61
21
-78.6237
0
LINE
8
BLACK
6
CONTINUOUS
10
159.61
20
-78.6237
11
159.61
21
-78.4563
0
LINE
8
BLACK
6
CONTINUOUS
10
159.61
20
-78.4563
11
159.643
21
-78.2921
0
LINE
8
BLACK
6
CONTINUOUS
10
159.643
20
-78.2921
11
159.707
21
-78.1374
0
LINE
8
BLACK
6
CONTINUOUS
10
159.707
20
-78.1374
11
159.8
21
-77.9982
0
LINE
8
BLACK
6
CONTINUOUS
10
159.8
20
-77.9982
11
159.918
21
-77.8798
0
LINE
8
BLACK
6
CONTINUOUS
10
159.918
20
-77.8798
11
160.057
21
-77.7867
0
LINE
8
BLACK
6
CONTINUOUS
10
160.057
20
-77.7867
11
160.212
21
-77.7227
0
LINE
8
BLACK
6
CONTINUOUS
10
160.212
20
-77.7227
11
160.376
21
-77.69
0
LINE
8
BLACK
6
CONTINUOUS
10
160.376
20
-77.69
11
160.544
21
-77.69
0
LINE
8
BLACK
6
CONTINUOUS
10
160.544
20
-77.69
11
160.708
21
-77.7227
0
LINE
8
BLACK
6
CONTINUOUS
10
163.248
20
-77.7227
11
163.403
21
-77.7867
0
LINE
8
BLACK
6
CONTINUOUS
10
163.403
20
-77.7867
11
163.542
21
-77.8798
0
LINE
8
BLACK
6
CONTINUOUS
10
163.542
20
-77.8798
11
163.66
21
-77.9982
0
LINE
8
BLACK
6
CONTINUOUS
10
163.66
20
-77.9982
11
163.753
21
-78.1374
0
LINE
8
BLACK
6
CONTINUOUS
10
163.753
20
-78.1374
11
163.817
21
-78.2921
0
LINE
8
BLACK
6
CONTINUOUS
10
163.817
20
-78.2921
11
163.85
21
-78.4563
0
LINE
8
BLACK
6
CONTINUOUS
10
163.85
20
-78.4563
11
163.85
21
-78.6237
0
LINE
8
BLACK
6
CONTINUOUS
10
163.85
20
-78.6237
11
163.817
21
-78.7879
0
LINE
8
BLACK
6
CONTINUOUS
10
163.817
20
-78.7879
11
163.753
21
-78.9426
0
LINE
8
BLACK
6
CONTINUOUS
10
163.753
20
-78.9426
11
163.66
21
-79.0818
0
LINE
8
BLACK
6
CONTINUOUS
10
163.66
20
-79.0818
11
163.542
21
-79.2002
0
LINE
8
BLACK
6
CONTINUOUS
10
163.542
20
-79.2002
11
163.403
21
-79.2933
0
LINE
8
BLACK
6
CONTINUOUS
10
163.403
20
-79.2933
11
163.248
21
-79.3573
0
LINE
8
BLACK
6
CONTINUOUS
10
163.248
20
-79.3573
11
163.084
21
-79.39
0
LINE
8
BLACK
6
CONTINUOUS
10
163.084
20
-79.39
11
162.916
21
-79.39
0
LINE
8
BLACK
6
CONTINUOUS
10
162.916
20
-79.39
11
162.752
21
-79.3573
0
LINE
8
BLACK
6
CONTINUOUS
10
162.752
20
-79.3573
11
162.597
21
-79.2933
0
LINE
8
BLACK
6
CONTINUOUS
10
162.597
20
-79.2933
11
162.458
21
-79.2002
0
LINE
8
BLACK
6
CONTINUOUS
10
162.458
20
-79.2002
11
162.34
21
-79.0818
0
LINE
8
BLACK
6
CONTINUOUS
10
162.34
20
-79.0818
11
162.247
21
-78.9426
0
LINE
8
BLACK
6
CONTINUOUS
10
162.247
20
-78.9426
11
162.183
21
-78.7879
0
LINE
8
BLACK
6
CONTINUOUS
10
162.183
20
-78.7879
11
162.15
21
-78.6237
0
LINE
8
BLACK
6
CONTINUOUS
10
162.15
20
-78.6237
11
162.15
21
-78.4563
0
LINE
8
BLACK
6
CONTINUOUS
10
162.15
20
-78.4563
11
162.183
21
-78.2921
0
LINE
8
BLACK
6
CONTINUOUS
10
162.183
20
-78.2921
11
162.247
21
-78.1374
0
LINE
8
BLACK
6
CONTINUOUS
10
162.247
20
-78.1374
11
162.34
21
-77.9982
0
LINE
8
BLACK
6
CONTINUOUS
10
162.34
20
-77.9982
11
162.458
21
-77.8798
0
LINE
8
BLACK
6
CONTINUOUS
10
162.458
20
-77.8798
11
162.597
21
-77.7867
0
LINE
8
BLACK
6
CONTINUOUS
10
162.597
20
-77.7867
11
162.752
21
-77.7227
0
LINE
8
BLACK
6
CONTINUOUS
10
162.752
20
-77.7227
11
162.916
21
-77.69
0
LINE
8
BLACK
6
CONTINUOUS
10
162.916
20
-77.69
11
163.084
21
-77.69
0
LINE
8
BLACK
6
CONTINUOUS
10
163.084
20
-77.69
11
163.248
21
-77.7227
0
LINE
8
BLACK
6
CONTINUOUS
10
155.628
20
-75.1827
11
155.783
21
-75.2467
0
LINE
8
BLACK
6
CONTINUOUS
10
155.783
20
-75.2467
11
155.922
21
-75.3398
0
LINE
8
BLACK
6
CONTINUOUS
10
155.922
20
-75.3398
11
156.04
21
-75.4582
0
LINE
8
BLACK
6
CONTINUOUS
10
156.04
20
-75.4582
11
156.133
21
-75.5974
0
LINE
8
BLACK
6
CONTINUOUS
10
156.133
20
-75.5974
11
156.197
21
-75.7521
0
LINE
8
BLACK
6
CONTINUOUS
10
156.197
20
-75.7521
11
156.23
21
-75.9163
0
LINE
8
BLACK
6
CONTINUOUS
10
156.23
20
-75.9163
11
156.23
21
-76.0837
0
LINE
8
BLACK
6
CONTINUOUS
10
156.23
20
-76.0837
11
156.197
21
-76.2479
0
LINE
8
BLACK
6
CONTINUOUS
10
156.197
20
-76.2479
11
156.133
21
-76.4026
0
LINE
8
BLACK
6
CONTINUOUS
10
156.133
20
-76.4026
11
156.04
21
-76.5418
0
LINE
8
BLACK
6
CONTINUOUS
10
156.04
20
-76.5418
11
155.922
21
-76.6602
0
LINE
8
BLACK
6
CONTINUOUS
10
155.922
20
-76.6602
11
155.783
21
-76.7533
0
LINE
8
BLACK
6
CONTINUOUS
10
155.783
20
-76.7533
11
155.628
21
-76.8173
0
LINE
8
BLACK
6
CONTINUOUS
10
155.628
20
-76.8173
11
155.464
21
-76.85
0
LINE
8
BLACK
6
CONTINUOUS
10
155.464
20
-76.85
11
155.296
21
-76.85
0
LINE
8
BLACK
6
CONTINUOUS
10
155.296
20
-76.85
11
155.132
21
-76.8173
0
LINE
8
BLACK
6
CONTINUOUS
10
155.132
20
-76.8173
11
154.977
21
-76.7533
0
LINE
8
BLACK
6
CONTINUOUS
10
154.977
20
-76.7533
11
154.838
21
-76.6602
0
LINE
8
BLACK
6
CONTINUOUS
10
154.838
20
-76.6602
11
154.72
21
-76.5418
0
LINE
8
BLACK
6
CONTINUOUS
10
154.72
20
-76.5418
11
154.627
21
-76.4026
0
LINE
8
BLACK
6
CONTINUOUS
10
154.627
20
-76.4026
11
154.563
21
-76.2479
0
LINE
8
BLACK
6
CONTINUOUS
10
154.563
20
-76.2479
11
154.53
21
-76.0837
0
LINE
8
BLACK
6
CONTINUOUS
10
154.53
20
-76.0837
11
154.53
21
-75.9163
0
LINE
8
BLACK
6
CONTINUOUS
10
154.53
20
-75.9163
11
154.563
21
-75.7521
0
LINE
8
BLACK
6
CONTINUOUS
10
154.563
20
-75.7521
11
154.627
21
-75.5974
0
LINE
8
BLACK
6
CONTINUOUS
10
154.627
20
-75.5974
11
154.72
21
-75.4582
0
LINE
8
BLACK
6
CONTINUOUS
10
154.72
20
-75.4582
11
154.838
21
-75.3398
0
LINE
8
BLACK
6
CONTINUOUS
10
154.838
20
-75.3398
11
154.977
21
-75.2467
0
LINE
8
BLACK
6
CONTINUOUS
10
154.977
20
-75.2467
11
155.132
21
-75.1827
0
LINE
8
BLACK
6
CONTINUOUS
10
155.132
20
-75.1827
11
155.296
21
-75.15
0
LINE
8
BLACK
6
CONTINUOUS
10
155.296
20
-75.15
11
155.464
21
-75.15
0
LINE
8
BLACK
6
CONTINUOUS
10
155.464
20
-75.15
11
155.628
21
-75.1827
0
LINE
8
BLACK
6
CONTINUOUS
10
163.649
20
-75.1548
11
163.696
21
-75.169
0
LINE
8
BLACK
6
CONTINUOUS
10
163.696
20
-75.169
11
163.739
21
-75.1921
0
LINE
8
BLACK
6
CONTINUOUS
10
163.739
20
-75.1921
11
163.777
21
-75.2232
0
LINE
8
BLACK
6
CONTINUOUS
10
163.777
20
-75.2232
11
163.808
21
-75.2611
0
LINE
8
BLACK
6
CONTINUOUS
10
163.808
20
-75.2611
11
163.831
21
-75.3043
0
LINE
8
BLACK
6
CONTINUOUS
10
163.831
20
-75.3043
11
163.845
21
-75.3512
0
LINE
8
BLACK
6
CONTINUOUS
10
163.845
20
-75.3512
11
163.85
21
-75.4
0
LINE
8
BLACK
6
CONTINUOUS
10
163.85
20
-75.4
11
163.85
21
-76.6
0
LINE
8
BLACK
6
CONTINUOUS
10
163.85
20
-76.6
11
163.845
21
-76.6488
0
LINE
8
BLACK
6
CONTINUOUS
10
163.845
20
-76.6488
11
163.831
21
-76.6957
0
LINE
8
BLACK
6
CONTINUOUS
10
163.831
20
-76.6957
11
163.808
21
-76.7389
0
LINE
8
BLACK
6
CONTINUOUS
10
163.808
20
-76.7389
11
163.777
21
-76.7768
0
LINE
8
BLACK
6
CONTINUOUS
10
163.777
20
-76.7768
11
163.739
21
-76.8079
0
LINE
8
BLACK
6
CONTINUOUS
10
163.739
20
-76.8079
11
163.696
21
-76.831
0
LINE
8
BLACK
6
CONTINUOUS
10
163.696
20
-76.831
11
163.649
21
-76.8452
0
LINE
8
BLACK
6
CONTINUOUS
10
163.649
20
-76.8452
11
163.6
21
-76.85
0
LINE
8
BLACK
6
CONTINUOUS
10
163.6
20
-76.85
11
162.4
21
-76.85
0
LINE
8
BLACK
6
CONTINUOUS
10
162.4
20
-76.85
11
162.351
21
-76.8452
0
LINE
8
BLACK
6
CONTINUOUS
10
162.351
20
-76.8452
11
162.304
21
-76.831
0
LINE
8
BLACK
6
CONTINUOUS
10
162.304
20
-76.831
11
162.261
21
-76.8079
0
LINE
8
BLACK
6
CONTINUOUS
10
162.261
20
-76.8079
11
162.223
21
-76.7768
0
LINE
8
BLACK
6
CONTINUOUS
10
162.223
20
-76.7768
11
162.192
21
-76.7389
0
LINE
8
BLACK
6
CONTINUOUS
10
162.192
20
-76.7389
11
162.169
21
-76.6957
0
LINE
8
BLACK
6
CONTINUOUS
10
162.169
20
-76.6957
11
162.155
21
-76.6488
0
LINE
8
BLACK
6
CONTINUOUS
10
162.155
20
-76.6488
11
162.15
21
-76.6
0
LINE
8
BLACK
6
CONTINUOUS
10
162.15
20
-76.6
11
162.15
21
-75.4
0
LINE
8
BLACK
6
CONTINUOUS
10
162.15
20
-75.4
11
162.155
21
-75.3512
0
LINE
8
BLACK
6
CONTINUOUS
10
162.155
20
-75.3512
11
162.169
21
-75.3043
0
LINE
8
BLACK
6
CONTINUOUS
10
162.169
20
-75.3043
11
162.192
21
-75.2611
0
LINE
8
BLACK
6
CONTINUOUS
10
162.192
20
-75.2611
11
162.223
21
-75.2232
0
LINE
8
BLACK
6
CONTINUOUS
10
162.223
20
-75.2232
11
162.261
21
-75.1921
0
LINE
8
BLACK
6
CONTINUOUS
10
162.261
20
-75.1921
11
162.304
21
-75.169
0
LINE
8
BLACK
6
CONTINUOUS
10
162.304
20
-75.169
11
162.351
21
-75.1548
0
LINE
8
BLACK
6
CONTINUOUS
10
162.351
20
-75.1548
11
162.4
21
-75.15
0
LINE
8
BLACK
6
CONTINUOUS
10
162.4
20
-75.15
11
163.6
21
-75.15
0
LINE
8
BLACK
6
CONTINUOUS
10
163.6
20
-75.15
11
163.649
21
-75.1548
0
LINE
8
BLACK
6
CONTINUOUS
10
160.708
20
-75.1827
11
160.863
21
-75.2467
0
LINE
8
BLACK
6
CONTINUOUS
10
160.863
20
-75.2467
11
161.002
21
-75.3398
0
LINE
8
BLACK
6
CONTINUOUS
10
161.002
20
-75.3398
11
161.12
21
-75.4582
0
LINE
8
BLACK
6
CONTINUOUS
10
161.12
20
-75.4582
11
161.213
21
-75.5974
0
LINE
8
BLACK
6
CONTINUOUS
10
161.213
20
-75.5974
11
161.277
21
-75.7521
0
LINE
8
BLACK
6
CONTINUOUS
10
161.277
20
-75.7521
11
161.31
21
-75.9163
0
LINE
8
BLACK
6
CONTINUOUS
10
161.31
20
-75.9163
11
161.31
21
-76.0837
0
LINE
8
BLACK
6
CONTINUOUS
10
161.31
20
-76.0837
11
161.277
21
-76.2479
0
LINE
8
BLACK
6
CONTINUOUS
10
161.277
20
-76.2479
11
161.213
21
-76.4026
0
LINE
8
BLACK
6
CONTINUOUS
10
161.213
20
-76.4026
11
161.12
21
-76.5418
0
LINE
8
BLACK
6
CONTINUOUS
10
161.12
20
-76.5418
11
161.002
21
-76.6602
0
LINE
8
BLACK
6
CONTINUOUS
10
161.002
20
-76.6602
11
160.863
21
-76.7533
0
LINE
8
BLACK
6
CONTINUOUS
10
160.863
20
-76.7533
11
160.708
21
-76.8173
0
LINE
8
BLACK
6
CONTINUOUS
10
160.708
20
-76.8173
11
160.544
21
-76.85
0
LINE
8
BLACK
6
CONTINUOUS
10
160.544
20
-76.85
11
160.376
21
-76.85
0
LINE
8
BLACK
6
CONTINUOUS
10
160.376
20
-76.85
11
160.212
21
-76.8173
0
LINE
8
BLACK
6
CONTINUOUS
10
160.212
20
-76.8173
11
160.057
21
-76.7533
0
LINE
8
BLACK
6
CONTINUOUS
10
160.057
20
-76.7533
11
159.918
21
-76.6602
0
LINE
8
BLACK
6
CONTINUOUS
10
159.918
20
-76.6602
11
159.8
21
-76.5418
0
LINE
8
BLACK
6
CONTINUOUS
10
159.8
20
-76.5418
11
159.707
21
-76.4026
0
LINE
8
BLACK
6
CONTINUOUS
10
159.707
20
-76.4026
11
159.643
21
-76.2479
0
LINE
8
BLACK
6
CONTINUOUS
10
159.643
20
-76.2479
11
159.61
21
-76.0837
0
LINE
8
BLACK
6
CONTINUOUS
10
159.61
20
-76.0837
11
159.61
21
-75.9163
0
LINE
8
BLACK
6
CONTINUOUS
10
159.61
20
-75.9163
11
159.643
21
-75.7521
0
LINE
8
BLACK
6
CONTINUOUS
10
159.643
20
-75.7521
11
159.707
21
-75.5974
0
LINE
8
BLACK
6
CONTINUOUS
10
159.707
20
-75.5974
11
159.8
21
-75.4582
0
LINE
8
BLACK
6
CONTINUOUS
10
159.8
20
-75.4582
11
159.918
21
-75.3398
0
LINE
8
BLACK
6
CONTINUOUS
10
159.918
20
-75.3398
11
160.057
21
-75.2467
0
LINE
8
BLACK
6
CONTINUOUS
10
160.057
20
-75.2467
11
160.212
21
-75.1827
0
LINE
8
BLACK
6
CONTINUOUS
10
160.212
20
-75.1827
11
160.376
21
-75.15
0
LINE
8
BLACK
6
CONTINUOUS
10
160.376
20
-75.15
11
160.544
21
-75.15
0
LINE
8
BLACK
6
CONTINUOUS
10
160.544
20
-75.15
11
160.708
21
-75.1827
0
LINE
8
BLACK
6
CONTINUOUS
10
158.168
20
-75.1827
11
158.323
21
-75.2467
0
LINE
8
BLACK
6
CONTINUOUS
10
158.323
20
-75.2467
11
158.462
21
-75.3398
0
LINE
8
BLACK
6
CONTINUOUS
10
158.462
20
-75.3398
11
158.58
21
-75.4582
0
LINE
8
BLACK
6
CONTINUOUS
10
158.58
20
-75.4582
11
158.673
21
-75.5974
0
LINE
8
BLACK
6
CONTINUOUS
10
158.673
20
-75.5974
11
158.737
21
-75.7521
0
LINE
8
BLACK
6
CONTINUOUS
10
158.737
20
-75.7521
11
158.77
21
-75.9163
0
LINE
8
BLACK
6
CONTINUOUS
10
158.77
20
-75.9163
11
158.77
21
-76.0837
0
LINE
8
BLACK
6
CONTINUOUS
10
158.77
20
-76.0837
11
158.737
21
-76.2479
0
LINE
8
BLACK
6
CONTINUOUS
10
158.737
20
-76.2479
11
158.673
21
-76.4026
0
LINE
8
BLACK
6
CONTINUOUS
10
158.673
20
-76.4026
11
158.58
21
-76.5418
0
LINE
8
BLACK
6
CONTINUOUS
10
158.58
20
-76.5418
11
158.462
21
-76.6602
0
LINE
8
BLACK
6
CONTINUOUS
10
158.462
20
-76.6602
11
158.323
21
-76.7533
0
LINE
8
BLACK
6
CONTINUOUS
10
158.323
20
-76.7533
11
158.168
21
-76.8173
0
LINE
8
BLACK
6
CONTINUOUS
10
158.168
20
-76.8173
11
158.004
21
-76.85
0
LINE
8
BLACK
6
CONTINUOUS
10
158.004
20
-76.85
11
157.836
21
-76.85
0
LINE
8
BLACK
6
CONTINUOUS
10
157.836
20
-76.85
11
157.672
21
-76.8173
0
LINE
8
BLACK
6
CONTINUOUS
10
157.672
20
-76.8173
11
157.517
21
-76.7533
0
LINE
8
BLACK
6
CONTINUOUS
10
157.517
20
-76.7533
11
157.378
21
-76.6602
0
LINE
8
BLACK
6
CONTINUOUS
10
157.378
20
-76.6602
11
157.26
21
-76.5418
0
LINE
8
BLACK
6
CONTINUOUS
10
157.26
20
-76.5418
11
157.167
21
-76.4026
0
LINE
8
BLACK
6
CONTINUOUS
10
157.167
20
-76.4026
11
157.103
21
-76.2479
0
LINE
8
BLACK
6
CONTINUOUS
10
157.103
20
-76.2479
11
157.07
21
-76.0837
0
LINE
8
BLACK
6
CONTINUOUS
10
157.07
20
-76.0837
11
157.07
21
-75.9163
0
LINE
8
BLACK
6
CONTINUOUS
10
157.07
20
-75.9163
11
157.103
21
-75.7521
0
LINE
8
BLACK
6
CONTINUOUS
10
157.103
20
-75.7521
11
157.167
21
-75.5974
0
LINE
8
BLACK
6
CONTINUOUS
10
157.167
20
-75.5974
11
157.26
21
-75.4582
0
LINE
8
BLACK
6
CONTINUOUS
10
157.26
20
-75.4582
11
157.378
21
-75.3398
0
LINE
8
BLACK
6
CONTINUOUS
10
157.378
20
-75.3398
11
157.517
21
-75.2467
0
LINE
8
BLACK
6
CONTINUOUS
10
157.517
20
-75.2467
11
157.672
21
-75.1827
0
LINE
8
BLACK
6
CONTINUOUS
10
157.672
20
-75.1827
11
157.836
21
-75.15
0
LINE
8
BLACK
6
CONTINUOUS
10
157.836
20
-75.15
11
158.004
21
-75.15
0
LINE
8
BLACK
6
CONTINUOUS
10
158.004
20
-75.15
11
158.168
21
-75.1827
0
LINE
8
BLACK
6
CONTINUOUS
10
153.088
20
-75.1827
11
153.243
21
-75.2467
0
LINE
8
BLACK
6
CONTINUOUS
10
153.243
20
-75.2467
11
153.382
21
-75.3398
0
LINE
8
BLACK
6
CONTINUOUS
10
153.382
20
-75.3398
11
153.5
21
-75.4582
0
LINE
8
BLACK
6
CONTINUOUS
10
153.5
20
-75.4582
11
153.593
21
-75.5974
0
LINE
8
BLACK
6
CONTINUOUS
10
153.593
20
-75.5974
11
153.657
21
-75.7521
0
LINE
8
BLACK
6
CONTINUOUS
10
153.657
20
-75.7521
11
153.69
21
-75.9163
0
LINE
8
BLACK
6
CONTINUOUS
10
153.69
20
-75.9163
11
153.69
21
-76.0837
0
LINE
8
BLACK
6
CONTINUOUS
10
153.69
20
-76.0837
11
153.657
21
-76.2479
0
LINE
8
BLACK
6
CONTINUOUS
10
153.657
20
-76.2479
11
153.593
21
-76.4026
0
LINE
8
BLACK
6
CONTINUOUS
10
153.593
20
-76.4026
11
153.5
21
-76.5418
0
LINE
8
BLACK
6
CONTINUOUS
10
153.5
20
-76.5418
11
153.382
21
-76.6602
0
LINE
8
BLACK
6
CONTINUOUS
10
153.382
20
-76.6602
11
153.243
21
-76.7533
0
LINE
8
BLACK
6
CONTINUOUS
10
153.243
20
-76.7533
11
153.088
21
-76.8173
0
LINE
8
BLACK
6
CONTINUOUS
10
153.088
20
-76.8173
11
152.924
21
-76.85
0
LINE
8
BLACK
6
CONTINUOUS
10
152.924
20
-76.85
11
152.756
21
-76.85
0
LINE
8
BLACK
6
CONTINUOUS
10
152.756
20
-76.85
11
152.592
21
-76.8173
0
LINE
8
BLACK
6
CONTINUOUS
10
152.592
20
-76.8173
11
152.437
21
-76.7533
0
LINE
8
BLACK
6
CONTINUOUS
10
152.437
20
-76.7533
11
152.298
21
-76.6602
0
LINE
8
BLACK
6
CONTINUOUS
10
152.298
20
-76.6602
11
152.18
21
-76.5418
0
LINE
8
BLACK
6
CONTINUOUS
10
152.18
20
-76.5418
11
152.087
21
-76.4026
0
LINE
8
BLACK
6
CONTINUOUS
10
152.087
20
-76.4026
11
152.023
21
-76.2479
0
LINE
8
BLACK
6
CONTINUOUS
10
152.023
20
-76.2479
11
151.99
21
-76.0837
0
LINE
8
BLACK
6
CONTINUOUS
10
151.99
20
-76.0837
11
151.99
21
-75.9163
0
LINE
8
BLACK
6
CONTINUOUS
10
151.99
20
-75.9163
11
152.023
21
-75.7521
0
LINE
8
BLACK
6
CONTINUOUS
10
152.023
20
-75.7521
11
152.087
21
-75.5974
0
LINE
8
BLACK
6
CONTINUOUS
10
152.087
20
-75.5974
11
152.18
21
-75.4582
0
LINE
8
BLACK
6
CONTINUOUS
10
152.18
20
-75.4582
11
152.298
21
-75.3398
0
LINE
8
BLACK
6
CONTINUOUS
10
152.298
20
-75.3398
11
152.437
21
-75.2467
0
LINE
8
BLACK
6
CONTINUOUS
10
152.437
20
-75.2467
11
152.592
21
-75.1827
0
LINE
8
BLACK
6
CONTINUOUS
10
152.592
20
-75.1827
11
152.756
21
-75.15
0
LINE
8
BLACK
6
CONTINUOUS
10
152.756
20
-75.15
11
152.924
21
-75.15
0
LINE
8
BLACK
6
CONTINUOUS
10
152.924
20
-75.15
11
153.088
21
-75.1827
0
LINE
8
BLACK
6
CONTINUOUS
10
157.171
20
-60.9176
11
157.335
21
-60.9673
0
LINE
8
BLACK
6
CONTINUOUS
10
157.335
20
-60.9673
11
157.486
21
-61.0481
0
LINE
8
BLACK
6
CONTINUOUS
10
157.486
20
-61.0481
11
157.618
21
-61.1568
0
LINE
8
BLACK
6
CONTINUOUS
10
157.618
20
-61.1568
11
157.727
21
-61.2893
0
LINE
8
BLACK
6
CONTINUOUS
10
157.727
20
-61.2893
11
157.808
21
-61.4405
0
LINE
8
BLACK
6
CONTINUOUS
10
157.808
20
-61.4405
11
157.857
21
-61.6044
0
LINE
8
BLACK
6
CONTINUOUS
10
157.857
20
-61.6044
11
157.87
21
-61.7323
0
LINE
8
BLACK
6
CONTINUOUS
10
157.87
20
-61.7323
11
157.87
21
-62.2677
0
LINE
8
BLACK
6
CONTINUOUS
10
157.87
20
-62.2677
11
157.857
21
-62.3956
0
LINE
8
BLACK
6
CONTINUOUS
10
157.857
20
-62.3956
11
157.808
21
-62.5595
0
LINE
8
BLACK
6
CONTINUOUS
10
157.808
20
-62.5595
11
157.727
21
-62.7107
0
LINE
8
BLACK
6
CONTINUOUS
10
157.727
20
-62.7107
11
157.618
21
-62.8432
0
LINE
8
BLACK
6
CONTINUOUS
10
157.618
20
-62.8432
11
157.486
21
-62.9519
0
LINE
8
BLACK
6
CONTINUOUS
10
157.486
20
-62.9519
11
157.335
21
-63.0327
0
LINE
8
BLACK
6
CONTINUOUS
10
157.335
20
-63.0327
11
157.171
21
-63.0824
0
LINE
8
BLACK
6
CONTINUOUS
10
157.171
20
-63.0824
11
157
21
-63.0992
0
LINE
8
BLACK
6
CONTINUOUS
10
157
20
-63.0992
11
156.829
21
-63.0824
0
LINE
8
BLACK
6
CONTINUOUS
10
156.829
20
-63.0824
11
156.665
21
-63.0327
0
LINE
8
BLACK
6
CONTINUOUS
10
156.665
20
-63.0327
11
156.514
21
-62.9519
0
LINE
8
BLACK
6
CONTINUOUS
10
156.514
20
-62.9519
11
156.382
21
-62.8432
0
LINE
8
BLACK
6
CONTINUOUS
10
156.382
20
-62.8432
11
156.273
21
-62.7107
0
LINE
8
BLACK
6
CONTINUOUS
10
156.273
20
-62.7107
11
156.192
21
-62.5595
0
LINE
8
BLACK
6
CONTINUOUS
10
156.192
20
-62.5595
11
156.143
21
-62.3955
0
LINE
8
BLACK
6
CONTINUOUS
10
156.143
20
-62.3955
11
156.13
21
-62.2677
0
LINE
8
BLACK
6
CONTINUOUS
10
156.13
20
-62.2677
11
156.13
21
-61.7323
0
LINE
8
BLACK
6
CONTINUOUS
10
156.13
20
-61.7323
11
156.143
21
-61.6044
0
LINE
8
BLACK
6
CONTINUOUS
10
156.143
20
-61.6044
11
156.192
21
-61.4405
0
LINE
8
BLACK
6
CONTINUOUS
10
156.192
20
-61.4405
11
156.273
21
-61.2893
0
LINE
8
BLACK
6
CONTINUOUS
10
156.273
20
-61.2893
11
156.382
21
-61.1568
0
LINE
8
BLACK
6
CONTINUOUS
10
156.382
20
-61.1568
11
156.514
21
-61.0481
0
LINE
8
BLACK
6
CONTINUOUS
10
156.514
20
-61.0481
11
156.665
21
-60.9673
0
LINE
8
BLACK
6
CONTINUOUS
10
156.665
20
-60.9673
11
156.829
21
-60.9176
0
LINE
8
BLACK
6
CONTINUOUS
10
156.829
20
-60.9176
11
157
21
-60.9008
0
LINE
8
BLACK
6
CONTINUOUS
10
157
20
-60.9008
11
157.171
21
-60.9176
0
LINE
8
BLACK
6
CONTINUOUS
10
133.171
20
-60.9176
11
133.335
21
-60.9673
0
LINE
8
BLACK
6
CONTINUOUS
10
133.335
20
-60.9673
11
133.486
21
-61.0481
0
LINE
8
BLACK
6
CONTINUOUS
10
133.486
20
-61.0481
11
133.618
21
-61.1568
0
LINE
8
BLACK
6
CONTINUOUS
10
133.618
20
-61.1568
11
133.727
21
-61.2893
0
LINE
8
BLACK
6
CONTINUOUS
10
133.727
20
-61.2893
11
133.808
21
-61.4405
0
LINE
8
BLACK
6
CONTINUOUS
10
133.808
20
-61.4405
11
133.857
21
-61.6044
0
LINE
8
BLACK
6
CONTINUOUS
10
133.857
20
-61.6044
11
133.87
21
-61.7323
0
LINE
8
BLACK
6
CONTINUOUS
10
133.87
20
-61.7323
11
133.87
21
-62.2677
0
LINE
8
BLACK
6
CONTINUOUS
10
133.87
20
-62.2677
11
133.857
21
-62.3956
0
LINE
8
BLACK
6
CONTINUOUS
10
133.857
20
-62.3956
11
133.808
21
-62.5595
0
LINE
8
BLACK
6
CONTINUOUS
10
133.808
20
-62.5595
11
133.727
21
-62.7107
0
LINE
8
BLACK
6
CONTINUOUS
10
133.727
20
-62.7107
11
133.618
21
-62.8432
0
LINE
8
BLACK
6
CONTINUOUS
10
133.618
20
-62.8432
11
133.486
21
-62.9519
0
LINE
8
BLACK
6
CONTINUOUS
10
133.486
20
-62.9519
11
133.335
21
-63.0327
0
LINE
8
BLACK
6
CONTINUOUS
10
133.335
20
-63.0327
11
133.171
21
-63.0824
0
LINE
8
BLACK
6
CONTINUOUS
10
133.171
20
-63.0824
11
133
21
-63.0992
0
LINE
8
BLACK
6
CONTINUOUS
10
133
20
-63.0992
11
132.829
21
-63.0824
0
LINE
8
BLACK
6
CONTINUOUS
10
132.829
20
-63.0824
11
132.665
21
-63.0327
0
LINE
8
BLACK
6
CONTINUOUS
10
132.665
20
-63.0327
11
132.514
21
-62.9519
0
LINE
8
BLACK
6
CONTINUOUS
10
132.514
20
-62.9519
11
132.382
21
-62.8432
0
LINE
8
BLACK
6
CONTINUOUS
10
132.382
20
-62.8432
11
132.273
21
-62.7107
0
LINE
8
BLACK
6
CONTINUOUS
10
132.273
20
-62.7107
11
132.192
21
-62.5595
0
LINE
8
BLACK
6
CONTINUOUS
10
132.192
20
-62.5595
11
132.143
21
-62.3955
0
LINE
8
BLACK
6
CONTINUOUS
10
132.143
20
-62.3955
11
132.13
21
-62.2677
0
LINE
8
BLACK
6
CONTINUOUS
10
132.13
20
-62.2677
11
132.13
21
-61.7323
0
LINE
8
BLACK
6
CONTINUOUS
10
132.13
20
-61.7323
11
132.143
21
-61.6044
0
LINE
8
BLACK
6
CONTINUOUS
10
132.143
20
-61.6044
11
132.192
21
-61.4405
0
LINE
8
BLACK
6
CONTINUOUS
10
132.192
20
-61.4405
11
132.273
21
-61.2893
0
LINE
8
BLACK
6
CONTINUOUS
10
132.273
20
-61.2893
11
132.382
21
-61.1568
0
LINE
8
BLACK
6
CONTINUOUS
10
132.382
20
-61.1568
11
132.514
21
-61.0481
0
LINE
8
BLACK
6
CONTINUOUS
10
132.514
20
-61.0481
11
132.665
21
-60.9673
0
LINE
8
BLACK
6
CONTINUOUS
10
132.665
20
-60.9673
11
132.829
21
-60.9176
0
LINE
8
BLACK
6
CONTINUOUS
10
132.829
20
-60.9176
11
133
21
-60.9008
0
LINE
8
BLACK
6
CONTINUOUS
10
133
20
-60.9008
11
133.171
21
-60.9176
0
LINE
8
BLACK
6
CONTINUOUS
10
181.171
20
-60.9176
11
181.335
21
-60.9673
0
LINE
8
BLACK
6
CONTINUOUS
10
181.335
20
-60.9673
11
181.486
21
-61.0481
0
LINE
8
BLACK
6
CONTINUOUS
10
181.486
20
-61.0481
11
181.618
21
-61.1568
0
LINE
8
BLACK
6
CONTINUOUS
10
181.618
20
-61.1568
11
181.727
21
-61.2893
0
LINE
8
BLACK
6
CONTINUOUS
10
181.727
20
-61.2893
11
181.808
21
-61.4405
0
LINE
8
BLACK
6
CONTINUOUS
10
181.808
20
-61.4405
11
181.857
21
-61.6044
0
LINE
8
BLACK
6
CONTINUOUS
10
181.857
20
-61.6044
11
181.87
21
-61.7323
0
LINE
8
BLACK
6
CONTINUOUS
10
181.87
20
-61.7323
11
181.87
21
-62.2677
0
LINE
8
BLACK
6
CONTINUOUS
10
181.87
20
-62.2677
11
181.857
21
-62.3956
0
LINE
8
BLACK
6
CONTINUOUS
10
181.857
20
-62.3956
11
181.808
21
-62.5595
0
LINE
8
BLACK
6
CONTINUOUS
10
181.808
20
-62.5595
11
181.727
21
-62.7107
0
LINE
8
BLACK
6
CONTINUOUS
10
181.727
20
-62.7107
11
181.618
21
-62.8432
0
LINE
8
BLACK
6
CONTINUOUS
10
181.618
20
-62.8432
11
181.486
21
-62.9519
0
LINE
8
BLACK
6
CONTINUOUS
10
181.486
20
-62.9519
11
181.335
21
-63.0327
0
LINE
8
BLACK
6
CONTINUOUS
10
181.335
20
-63.0327
11
181.171
21
-63.0824
0
LINE
8
BLACK
6
CONTINUOUS
10
181.171
20
-63.0824
11
181
21
-63.0992
0
LINE
8
BLACK
6
CONTINUOUS
10
181
20
-63.0992
11
180.829
21
-63.0824
0
LINE
8
BLACK
6
CONTINUOUS
10
180.829
20
-63.0824
11
180.665
21
-63.0327
0
LINE
8
BLACK
6
CONTINUOUS
10
180.665
20
-63.0327
11
180.514
21
-62.9519
0
LINE
8
BLACK
6
CONTINUOUS
10
180.514
20
-62.9519
11
180.382
21
-62.8432
0
LINE
8
BLACK
6
CONTINUOUS
10
180.382
20
-62.8432
11
180.273
21
-62.7107
0
LINE
8
BLACK
6
CONTINUOUS
10
180.273
20
-62.7107
11
180.192
21
-62.5595
0
LINE
8
BLACK
6
CONTINUOUS
10
180.192
20
-62.5595
11
180.143
21
-62.3955
0
LINE
8
BLACK
6
CONTINUOUS
10
180.143
20
-62.3955
11
180.13
21
-62.2677
0
LINE
8
BLACK
6
CONTINUOUS
10
180.13
20
-62.2677
11
180.13
21
-61.7323
0
LINE
8
BLACK
6
CONTINUOUS
10
180.13
20
-61.7323
11
180.143
21
-61.6044
0
LINE
8
BLACK
6
CONTINUOUS
10
180.143
20
-61.6044
11
180.192
21
-61.4405
0
LINE
8
BLACK
6
CONTINUOUS
10
180.192
20
-61.4405
11
180.273
21
-61.2893
0
LINE
8
BLACK
6
CONTINUOUS
10
180.273
20
-61.2893
11
180.382
21
-61.1568
0
LINE
8
BLACK
6
CONTINUOUS
10
180.382
20
-61.1568
11
180.514
21
-61.0481
0
LINE
8
BLACK
6
CONTINUOUS
10
180.514
20
-61.0481
11
180.665
21
-60.9673
0
LINE
8
BLACK
6
CONTINUOUS
10
180.665
20
-60.9673
11
180.829
21
-60.9176
0
LINE
8
BLACK
6
CONTINUOUS
10
180.829
20
-60.9176
11
181
21
-60.9008
0
LINE
8
BLACK
6
CONTINUOUS
10
181
20
-60.9008
11
181.171
21
-60.9176
0
LINE
8
BLACK
6
CONTINUOUS
10
165.171
20
-60.9176
11
165.335
21
-60.9673
0
LINE
8
BLACK
6
CONTINUOUS
10
165.335
20
-60.9673
11
165.486
21
-61.0481
0
LINE
8
BLACK
6
CONTINUOUS
10
165.486
20
-61.0481
11
165.618
21
-61.1568
0
LINE
8
BLACK
6
CONTINUOUS
10
165.618
20
-61.1568
11
165.727
21
-61.2893
0
LINE
8
BLACK
6
CONTINUOUS
10
165.727
20
-61.2893
11
165.808
21
-61.4405
0
LINE
8
BLACK
6
CONTINUOUS
10
165.808
20
-61.4405
11
165.857
21
-61.6044
0
LINE
8
BLACK
6
CONTINUOUS
10
165.857
20
-61.6044
11
165.87
21
-61.7323
0
LINE
8
BLACK
6
CONTINUOUS
10
165.87
20
-61.7323
11
165.87
21
-62.2677
0
LINE
8
BLACK
6
CONTINUOUS
10
165.87
20
-62.2677
11
165.857
21
-62.3956
0
LINE
8
BLACK
6
CONTINUOUS
10
165.857
20
-62.3956
11
165.808
21
-62.5595
0
LINE
8
BLACK
6
CONTINUOUS
10
165.808
20
-62.5595
11
165.727
21
-62.7107
0
LINE
8
BLACK
6
CONTINUOUS
10
165.727
20
-62.7107
11
165.618
21
-62.8432
0
LINE
8
BLACK
6
CONTINUOUS
10
165.618
20
-62.8432
11
165.486
21
-62.9519
0
LINE
8
BLACK
6
CONTINUOUS
10
165.486
20
-62.9519
11
165.335
21
-63.0327
0
LINE
8
BLACK
6
CONTINUOUS
10
165.335
20
-63.0327
11
165.171
21
-63.0824
0
LINE
8
BLACK
6
CONTINUOUS
10
165.171
20
-63.0824
11
165
21
-63.0992
0
LINE
8
BLACK
6
CONTINUOUS
10
165
20
-63.0992
11
164.829
21
-63.0824
0
LINE
8
BLACK
6
CONTINUOUS
10
164.829
20
-63.0824
11
164.665
21
-63.0327
0
LINE
8
BLACK
6
CONTINUOUS
10
164.665
20
-63.0327
11
164.514
21
-62.9519
0
LINE
8
BLACK
6
CONTINUOUS
10
164.514
20
-62.9519
11
164.382
21
-62.8432
0
LINE
8
BLACK
6
CONTINUOUS
10
164.382
20
-62.8432
11
164.273
21
-62.7107
0
LINE
8
BLACK
6
CONTINUOUS
10
164.273
20
-62.7107
11
164.192
21
-62.5595
0
LINE
8
BLACK
6
CONTINUOUS
10
164.192
20
-62.5595
11
164.143
21
-62.3955
0
LINE
8
BLACK
6
CONTINUOUS
10
164.143
20
-62.3955
11
164.13
21
-62.2677
0
LINE
8
BLACK
6
CONTINUOUS
10
164.13
20
-62.2677
11
164.13
21
-61.7323
0
LINE
8
BLACK
6
CONTINUOUS
10
164.13
20
-61.7323
11
164.143
21
-61.6044
0
LINE
8
BLACK
6
CONTINUOUS
10
164.143
20
-61.6044
11
164.192
21
-61.4405
0
LINE
8
BLACK
6
CONTINUOUS
10
164.192
20
-61.4405
11
164.273
21
-61.2893
0
LINE
8
BLACK
6
CONTINUOUS
10
164.273
20
-61.2893
11
164.382
21
-61.1568
0
LINE
8
BLACK
6
CONTINUOUS
10
164.382
20
-61.1568
11
164.514
21
-61.0481
0
LINE
8
BLACK
6
CONTINUOUS
10
164.514
20
-61.0481
11
164.665
21
-60.9673
0
LINE
8
BLACK
6
CONTINUOUS
10
164.665
20
-60.9673
11
164.829
21
-60.9176
0
LINE
8
BLACK
6
CONTINUOUS
10
164.829
20
-60.9176
11
165
21
-60.9008
0
LINE
8
BLACK
6
CONTINUOUS
10
165
20
-60.9008
11
165.171
21
-60.9176
0
LINE
8
BLACK
6
CONTINUOUS
10
140.631
20
-60.9176
11
140.795
21
-60.9673
0
LINE
8
BLACK
6
CONTINUOUS
10
140.795
20
-60.9673
11
140.946
21
-61.0481
0
LINE
8
BLACK
6
CONTINUOUS
10
140.946
20
-61.0481
11
141.078
21
-61.1568
0
LINE
8
BLACK
6
CONTINUOUS
10
141.078
20
-61.1568
11
141.187
21
-61.2893
0
LINE
8
BLACK
6
CONTINUOUS
10
141.187
20
-61.2893
11
141.268
21
-61.4405
0
LINE
8
BLACK
6
CONTINUOUS
10
141.268
20
-61.4405
11
141.317
21
-61.6044
0
LINE
8
BLACK
6
CONTINUOUS
10
141.317
20
-61.6044
11
141.33
21
-61.7323
0
LINE
8
BLACK
6
CONTINUOUS
10
141.33
20
-61.7323
11
141.33
21
-62.2677
0
LINE
8
BLACK
6
CONTINUOUS
10
141.33
20
-62.2677
11
141.317
21
-62.3956
0
LINE
8
BLACK
6
CONTINUOUS
10
141.317
20
-62.3956
11
141.268
21
-62.5595
0
LINE
8
BLACK
6
CONTINUOUS
10
141.268
20
-62.5595
11
141.187
21
-62.7107
0
LINE
8
BLACK
6
CONTINUOUS
10
141.187
20
-62.7107
11
141.078
21
-62.8432
0
LINE
8
BLACK
6
CONTINUOUS
10
141.078
20
-62.8432
11
140.946
21
-62.9519
0
LINE
8
BLACK
6
CONTINUOUS
10
140.946
20
-62.9519
11
140.795
21
-63.0327
0
LINE
8
BLACK
6
CONTINUOUS
10
140.795
20
-63.0327
11
140.631
21
-63.0824
0
LINE
8
BLACK
6
CONTINUOUS
10
140.631
20
-63.0824
11
140.46
21
-63.0992
0
LINE
8
BLACK
6
CONTINUOUS
10
140.46
20
-63.0992
11
140.289
21
-63.0824
0
LINE
8
BLACK
6
CONTINUOUS
10
140.289
20
-63.0824
11
140.125
21
-63.0327
0
LINE
8
BLACK
6
CONTINUOUS
10
140.125
20
-63.0327
11
139.974
21
-62.9519
0
LINE
8
BLACK
6
CONTINUOUS
10
139.974
20
-62.9519
11
139.842
21
-62.8432
0
LINE
8
BLACK
6
CONTINUOUS
10
139.842
20
-62.8432
11
139.733
21
-62.7107
0
LINE
8
BLACK
6
CONTINUOUS
10
139.733
20
-62.7107
11
139.652
21
-62.5595
0
LINE
8
BLACK
6
CONTINUOUS
10
139.652
20
-62.5595
11
139.603
21
-62.3955
0
LINE
8
BLACK
6
CONTINUOUS
10
139.603
20
-62.3955
11
139.59
21
-62.2677
0
LINE
8
BLACK
6
CONTINUOUS
10
139.59
20
-62.2677
11
139.59
21
-61.7323
0
LINE
8
BLACK
6
CONTINUOUS
10
139.59
20
-61.7323
11
139.603
21
-61.6044
0
LINE
8
BLACK
6
CONTINUOUS
10
139.603
20
-61.6044
11
139.652
21
-61.4405
0
LINE
8
BLACK
6
CONTINUOUS
10
139.652
20
-61.4405
11
139.733
21
-61.2893
0
LINE
8
BLACK
6
CONTINUOUS
10
139.733
20
-61.2893
11
139.842
21
-61.1568
0
LINE
8
BLACK
6
CONTINUOUS
10
139.842
20
-61.1568
11
139.974
21
-61.0481
0
LINE
8
BLACK
6
CONTINUOUS
10
139.974
20
-61.0481
11
140.125
21
-60.9673
0
LINE
8
BLACK
6
CONTINUOUS
10
140.125
20
-60.9673
11
140.289
21
-60.9176
0
LINE
8
BLACK
6
CONTINUOUS
10
140.289
20
-60.9176
11
140.46
21
-60.9008
0
LINE
8
BLACK
6
CONTINUOUS
10
140.46
20
-60.9008
11
140.631
21
-60.9176
0
LINE
8
BLACK
6
CONTINUOUS
10
173.171
20
-60.9176
11
173.335
21
-60.9673
0
LINE
8
BLACK
6
CONTINUOUS
10
173.335
20
-60.9673
11
173.486
21
-61.0481
0
LINE
8
BLACK
6
CONTINUOUS
10
173.486
20
-61.0481
11
173.618
21
-61.1568
0
LINE
8
BLACK
6
CONTINUOUS
10
173.618
20
-61.1568
11
173.727
21
-61.2893
0
LINE
8
BLACK
6
CONTINUOUS
10
173.727
20
-61.2893
11
173.808
21
-61.4405
0
LINE
8
BLACK
6
CONTINUOUS
10
173.808
20
-61.4405
11
173.857
21
-61.6044
0
LINE
8
BLACK
6
CONTINUOUS
10
173.857
20
-61.6044
11
173.87
21
-61.7323
0
LINE
8
BLACK
6
CONTINUOUS
10
173.87
20
-61.7323
11
173.87
21
-62.2677
0
LINE
8
BLACK
6
CONTINUOUS
10
173.87
20
-62.2677
11
173.857
21
-62.3956
0
LINE
8
BLACK
6
CONTINUOUS
10
173.857
20
-62.3956
11
173.808
21
-62.5595
0
LINE
8
BLACK
6
CONTINUOUS
10
173.808
20
-62.5595
11
173.727
21
-62.7107
0
LINE
8
BLACK
6
CONTINUOUS
10
173.727
20
-62.7107
11
173.618
21
-62.8432
0
LINE
8
BLACK
6
CONTINUOUS
10
173.618
20
-62.8432
11
173.486
21
-62.9519
0
LINE
8
BLACK
6
CONTINUOUS
10
173.486
20
-62.9519
11
173.335
21
-63.0327
0
LINE
8
BLACK
6
CONTINUOUS
10
173.335
20
-63.0327
11
173.171
21
-63.0824
0
LINE
8
BLACK
6
CONTINUOUS
10
173.171
20
-63.0824
11
173
21
-63.0992
0
LINE
8
BLACK
6
CONTINUOUS
10
173
20
-63.0992
11
172.829
21
-63.0824
0
LINE
8
BLACK
6
CONTINUOUS
10
172.829
20
-63.0824
11
172.665
21
-63.0327
0
LINE
8
BLACK
6
CONTINUOUS
10
172.665
20
-63.0327
11
172.514
21
-62.9519
0
LINE
8
BLACK
6
CONTINUOUS
10
172.514
20
-62.9519
11
172.382
21
-62.8432
0
LINE
8
BLACK
6
CONTINUOUS
10
172.382
20
-62.8432
11
172.273
21
-62.7107
0
LINE
8
BLACK
6
CONTINUOUS
10
172.273
20
-62.7107
11
172.192
21
-62.5595
0
LINE
8
BLACK
6
CONTINUOUS
10
172.192
20
-62.5595
11
172.143
21
-62.3955
0
LINE
8
BLACK
6
CONTINUOUS
10
172.143
20
-62.3955
11
172.13
21
-62.2677
0
LINE
8
BLACK
6
CONTINUOUS
10
172.13
20
-62.2677
11
172.13
21
-61.7323
0
LINE
8
BLACK
6
CONTINUOUS
10
172.13
20
-61.7323
11
172.143
21
-61.6044
0
LINE
8
BLACK
6
CONTINUOUS
10
172.143
20
-61.6044
11
172.192
21
-61.4405
0
LINE
8
BLACK
6
CONTINUOUS
10
172.192
20
-61.4405
11
172.273
21
-61.2893
0
LINE
8
BLACK
6
CONTINUOUS
10
172.273
20
-61.2893
11
172.382
21
-61.1568
0
LINE
8
BLACK
6
CONTINUOUS
10
172.382
20
-61.1568
11
172.514
21
-61.0481
0
LINE
8
BLACK
6
CONTINUOUS
10
172.514
20
-61.0481
11
172.665
21
-60.9673
0
LINE
8
BLACK
6
CONTINUOUS
10
172.665
20
-60.9673
11
172.829
21
-60.9176
0
LINE
8
BLACK
6
CONTINUOUS
10
172.829
20
-60.9176
11
173
21
-60.9008
0
LINE
8
BLACK
6
CONTINUOUS
10
173
20
-60.9008
11
173.171
21
-60.9176
0
LINE
8
BLACK
6
CONTINUOUS
10
148.631
20
-60.9176
11
148.795
21
-60.9673
0
LINE
8
BLACK
6
CONTINUOUS
10
148.795
20
-60.9673
11
148.946
21
-61.0481
0
LINE
8
BLACK
6
CONTINUOUS
10
148.946
20
-61.0481
11
149.078
21
-61.1568
0
LINE
8
BLACK
6
CONTINUOUS
10
149.078
20
-61.1568
11
149.187
21
-61.2893
0
LINE
8
BLACK
6
CONTINUOUS
10
149.187
20
-61.2893
11
149.268
21
-61.4405
0
LINE
8
BLACK
6
CONTINUOUS
10
149.268
20
-61.4405
11
149.317
21
-61.6044
0
LINE
8
BLACK
6
CONTINUOUS
10
149.317
20
-61.6044
11
149.33
21
-61.7323
0
LINE
8
BLACK
6
CONTINUOUS
10
149.33
20
-61.7323
11
149.33
21
-62.2677
0
LINE
8
BLACK
6
CONTINUOUS
10
149.33
20
-62.2677
11
149.317
21
-62.3956
0
LINE
8
BLACK
6
CONTINUOUS
10
149.317
20
-62.3956
11
149.268
21
-62.5595
0
LINE
8
BLACK
6
CONTINUOUS
10
149.268
20
-62.5595
11
149.187
21
-62.7107
0
LINE
8
BLACK
6
CONTINUOUS
10
149.187
20
-62.7107
11
149.078
21
-62.8432
0
LINE
8
BLACK
6
CONTINUOUS
10
149.078
20
-62.8432
11
148.946
21
-62.9519
0
LINE
8
BLACK
6
CONTINUOUS
10
148.946
20
-62.9519
11
148.795
21
-63.0327
0
LINE
8
BLACK
6
CONTINUOUS
10
148.795
20
-63.0327
11
148.631
21
-63.0824
0
LINE
8
BLACK
6
CONTINUOUS
10
148.631
20
-63.0824
11
148.46
21
-63.0992
0
LINE
8
BLACK
6
CONTINUOUS
10
148.46
20
-63.0992
11
148.289
21
-63.0824
0
LINE
8
BLACK
6
CONTINUOUS
10
148.289
20
-63.0824
11
148.125
21
-63.0327
0
LINE
8
BLACK
6
CONTINUOUS
10
148.125
20
-63.0327
11
147.974
21
-62.9519
0
LINE
8
BLACK
6
CONTINUOUS
10
147.974
20
-62.9519
11
147.842
21
-62.8432
0
LINE
8
BLACK
6
CONTINUOUS
10
147.842
20
-62.8432
11
147.733
21
-62.7107
0
LINE
8
BLACK
6
CONTINUOUS
10
147.733
20
-62.7107
11
147.652
21
-62.5595
0
LINE
8
BLACK
6
CONTINUOUS
10
147.652
20
-62.5595
11
147.603
21
-62.3955
0
LINE
8
BLACK
6
CONTINUOUS
10
147.603
20
-62.3955
11
147.59
21
-62.2677
0
LINE
8
BLACK
6
CONTINUOUS
10
147.59
20
-62.2677
11
147.59
21
-61.7323
0
LINE
8
BLACK
6
CONTINUOUS
10
147.59
20
-61.7323
11
147.603
21
-61.6044
0
LINE
8
BLACK
6
CONTINUOUS
10
147.603
20
-61.6044
11
147.652
21
-61.4405
0
LINE
8
BLACK
6
CONTINUOUS
10
147.652
20
-61.4405
11
147.733
21
-61.2893
0
LINE
8
BLACK
6
CONTINUOUS
10
147.733
20
-61.2893
11
147.842
21
-61.1568
0
LINE
8
BLACK
6
CONTINUOUS
10
147.842
20
-61.1568
11
147.974
21
-61.0481
0
LINE
8
BLACK
6
CONTINUOUS
10
147.974
20
-61.0481
11
148.125
21
-60.9673
0
LINE
8
BLACK
6
CONTINUOUS
10
148.125
20
-60.9673
11
148.289
21
-60.9176
0
LINE
8
BLACK
6
CONTINUOUS
10
148.289
20
-60.9176
11
148.46
21
-60.9008
0
LINE
8
BLACK
6
CONTINUOUS
10
148.46
20
-60.9008
11
148.631
21
-60.9176
0
LINE
8
BLACK
6
CONTINUOUS
10
160.209
20
-60.9098
11
160.256
21
-60.924
0
LINE
8
BLACK
6
CONTINUOUS
10
160.256
20
-60.924
11
160.299
21
-60.9471
0
LINE
8
BLACK
6
CONTINUOUS
10
160.299
20
-60.9471
11
160.337
21
-60.9782
0
LINE
8
BLACK
6
CONTINUOUS
10
160.337
20
-60.9782
11
160.368
21
-61.0161
0
LINE
8
BLACK
6
CONTINUOUS
10
160.368
20
-61.0161
11
160.391
21
-61.0593
0
LINE
8
BLACK
6
CONTINUOUS
10
160.391
20
-61.0593
11
160.405
21
-61.1062
0
LINE
8
BLACK
6
CONTINUOUS
10
160.405
20
-61.1062
11
160.41
21
-61.155
0
LINE
8
BLACK
6
CONTINUOUS
10
160.41
20
-61.155
11
160.41
21
-62.845
0
LINE
8
BLACK
6
CONTINUOUS
10
160.41
20
-62.845
11
160.405
21
-62.8938
0
LINE
8
BLACK
6
CONTINUOUS
10
160.405
20
-62.8938
11
160.391
21
-62.9407
0
LINE
8
BLACK
6
CONTINUOUS
10
160.391
20
-62.9407
11
160.368
21
-62.9839
0
LINE
8
BLACK
6
CONTINUOUS
10
160.368
20
-62.9839
11
160.337
21
-63.0218
0
LINE
8
BLACK
6
CONTINUOUS
10
160.337
20
-63.0218
11
160.299
21
-63.0529
0
LINE
8
BLACK
6
CONTINUOUS
10
160.299
20
-63.0529
11
160.256
21
-63.076
0
LINE
8
BLACK
6
CONTINUOUS
10
160.256
20
-63.076
11
160.209
21
-63.0902
0
LINE
8
BLACK
6
CONTINUOUS
10
160.209
20
-63.0902
11
160.16
21
-63.095
0
LINE
8
BLACK
6
CONTINUOUS
10
160.16
20
-63.095
11
158.92
21
-63.095
0
LINE
8
BLACK
6
CONTINUOUS
10
158.92
20
-63.095
11
158.871
21
-63.0902
0
LINE
8
BLACK
6
CONTINUOUS
10
158.871
20
-63.0902
11
158.824
21
-63.076
0
LINE
8
BLACK
6
CONTINUOUS
10
158.824
20
-63.076
11
158.781
21
-63.0529
0
LINE
8
BLACK
6
CONTINUOUS
10
158.781
20
-63.0529
11
158.743
21
-63.0218
0
LINE
8
BLACK
6
CONTINUOUS
10
158.743
20
-63.0218
11
158.712
21
-62.9839
0
LINE
8
BLACK
6
CONTINUOUS
10
158.712
20
-62.9839
11
158.689
21
-62.9407
0
LINE
8
BLACK
6
CONTINUOUS
10
158.689
20
-62.9407
11
158.675
21
-62.8938
0
LINE
8
BLACK
6
CONTINUOUS
10
158.675
20
-62.8938
11
158.67
21
-62.845
0
LINE
8
BLACK
6
CONTINUOUS
10
158.67
20
-62.845
11
158.67
21
-61.155
0
LINE
8
BLACK
6
CONTINUOUS
10
158.67
20
-61.155
11
158.675
21
-61.1062
0
LINE
8
BLACK
6
CONTINUOUS
10
158.675
20
-61.1062
11
158.689
21
-61.0593
0
LINE
8
BLACK
6
CONTINUOUS
10
158.689
20
-61.0593
11
158.712
21
-61.0161
0
LINE
8
BLACK
6
CONTINUOUS
10
158.712
20
-61.0161
11
158.743
21
-60.9782
0
LINE
8
BLACK
6
CONTINUOUS
10
158.743
20
-60.9782
11
158.781
21
-60.9471
0
LINE
8
BLACK
6
CONTINUOUS
10
158.781
20
-60.9471
11
158.824
21
-60.924
0
LINE
8
BLACK
6
CONTINUOUS
10
158.824
20
-60.924
11
158.871
21
-60.9098
0
LINE
8
BLACK
6
CONTINUOUS
10
158.871
20
-60.9098
11
158.92
21
-60.905
0
LINE
8
BLACK
6
CONTINUOUS
10
158.92
20
-60.905
11
160.16
21
-60.905
0
LINE
8
BLACK
6
CONTINUOUS
10
160.16
20
-60.905
11
160.209
21
-60.9098
0
LINE
8
BLACK
6
CONTINUOUS
10
168.209
20
-60.9098
11
168.256
21
-60.924
0
LINE
8
BLACK
6
CONTINUOUS
10
168.256
20
-60.924
11
168.299
21
-60.9471
0
LINE
8
BLACK
6
CONTINUOUS
10
168.299
20
-60.9471
11
168.337
21
-60.9782
0
LINE
8
BLACK
6
CONTINUOUS
10
168.337
20
-60.9782
11
168.368
21
-61.0161
0
LINE
8
BLACK
6
CONTINUOUS
10
168.368
20
-61.0161
11
168.391
21
-61.0593
0
LINE
8
BLACK
6
CONTINUOUS
10
168.391
20
-61.0593
11
168.405
21
-61.1062
0
LINE
8
BLACK
6
CONTINUOUS
10
168.405
20
-61.1062
11
168.41
21
-61.155
0
LINE
8
BLACK
6
CONTINUOUS
10
168.41
20
-61.155
11
168.41
21
-62.845
0
LINE
8
BLACK
6
CONTINUOUS
10
168.41
20
-62.845
11
168.405
21
-62.8938
0
LINE
8
BLACK
6
CONTINUOUS
10
168.405
20
-62.8938
11
168.391
21
-62.9407
0
LINE
8
BLACK
6
CONTINUOUS
10
168.391
20
-62.9407
11
168.368
21
-62.9839
0
LINE
8
BLACK
6
CONTINUOUS
10
168.368
20
-62.9839
11
168.337
21
-63.0218
0
LINE
8
BLACK
6
CONTINUOUS
10
168.337
20
-63.0218
11
168.299
21
-63.0529
0
LINE
8
BLACK
6
CONTINUOUS
10
168.299
20
-63.0529
11
168.256
21
-63.076
0
LINE
8
BLACK
6
CONTINUOUS
10
168.256
20
-63.076
11
168.209
21
-63.0902
0
LINE
8
BLACK
6
CONTINUOUS
10
168.209
20
-63.0902
11
168.16
21
-63.095
0
LINE
8
BLACK
6
CONTINUOUS
10
168.16
20
-63.095
11
166.92
21
-63.095
0
LINE
8
BLACK
6
CONTINUOUS
10
166.92
20
-63.095
11
166.871
21
-63.0902
0
LINE
8
BLACK
6
CONTINUOUS
10
166.871
20
-63.0902
11
166.824
21
-63.076
0
LINE
8
BLACK
6
CONTINUOUS
10
166.824
20
-63.076
11
166.781
21
-63.0529
0
LINE
8
BLACK
6
CONTINUOUS
10
166.781
20
-63.0529
11
166.743
21
-63.0218
0
LINE
8
BLACK
6
CONTINUOUS
10
166.743
20
-63.0218
11
166.712
21
-62.9839
0
LINE
8
BLACK
6
CONTINUOUS
10
166.712
20
-62.9839
11
166.689
21
-62.9407
0
LINE
8
BLACK
6
CONTINUOUS
10
166.689
20
-62.9407
11
166.675
21
-62.8938
0
LINE
8
BLACK
6
CONTINUOUS
10
166.675
20
-62.8938
11
166.67
21
-62.845
0
LINE
8
BLACK
6
CONTINUOUS
10
166.67
20
-62.845
11
166.67
21
-61.155
0
LINE
8
BLACK
6
CONTINUOUS
10
166.67
20
-61.155
11
166.675
21
-61.1062
0
LINE
8
BLACK
6
CONTINUOUS
10
166.675
20
-61.1062
11
166.689
21
-61.0593
0
LINE
8
BLACK
6
CONTINUOUS
10
166.689
20
-61.0593
11
166.712
21
-61.0161
0
LINE
8
BLACK
6
CONTINUOUS
10
166.712
20
-61.0161
11
166.743
21
-60.9782
0
LINE
8
BLACK
6
CONTINUOUS
10
166.743
20
-60.9782
11
166.781
21
-60.9471
0
LINE
8
BLACK
6
CONTINUOUS
10
166.781
20
-60.9471
11
166.824
21
-60.924
0
LINE
8
BLACK
6
CONTINUOUS
10
166.824
20
-60.924
11
166.871
21
-60.9098
0
LINE
8
BLACK
6
CONTINUOUS
10
166.871
20
-60.9098
11
166.92
21
-60.905
0
LINE
8
BLACK
6
CONTINUOUS
10
166.92
20
-60.905
11
168.16
21
-60.905
0
LINE
8
BLACK
6
CONTINUOUS
10
168.16
20
-60.905
11
168.209
21
-60.9098
0
LINE
8
BLACK
6
CONTINUOUS
10
151.669
20
-60.9098
11
151.716
21
-60.924
0
LINE
8
BLACK
6
CONTINUOUS
10
151.716
20
-60.924
11
151.759
21
-60.9471
0
LINE
8
BLACK
6
CONTINUOUS
10
151.759
20
-60.9471
11
151.797
21
-60.9782
0
LINE
8
BLACK
6
CONTINUOUS
10
151.797
20
-60.9782
11
151.828
21
-61.0161
0
LINE
8
BLACK
6
CONTINUOUS
10
151.828
20
-61.0161
11
151.851
21
-61.0593
0
LINE
8
BLACK
6
CONTINUOUS
10
151.851
20
-61.0593
11
151.865
21
-61.1062
0
LINE
8
BLACK
6
CONTINUOUS
10
151.865
20
-61.1062
11
151.87
21
-61.155
0
LINE
8
BLACK
6
CONTINUOUS
10
151.87
20
-61.155
11
151.87
21
-62.845
0
LINE
8
BLACK
6
CONTINUOUS
10
151.87
20
-62.845
11
151.865
21
-62.8938
0
LINE
8
BLACK
6
CONTINUOUS
10
151.865
20
-62.8938
11
151.851
21
-62.9407
0
LINE
8
BLACK
6
CONTINUOUS
10
151.851
20
-62.9407
11
151.828
21
-62.9839
0
LINE
8
BLACK
6
CONTINUOUS
10
151.828
20
-62.9839
11
151.797
21
-63.0218
0
LINE
8
BLACK
6
CONTINUOUS
10
151.797
20
-63.0218
11
151.759
21
-63.0529
0
LINE
8
BLACK
6
CONTINUOUS
10
151.759
20
-63.0529
11
151.716
21
-63.076
0
LINE
8
BLACK
6
CONTINUOUS
10
151.716
20
-63.076
11
151.669
21
-63.0902
0
LINE
8
BLACK
6
CONTINUOUS
10
151.669
20
-63.0902
11
151.62
21
-63.095
0
LINE
8
BLACK
6
CONTINUOUS
10
151.62
20
-63.095
11
150.38
21
-63.095
0
LINE
8
BLACK
6
CONTINUOUS
10
150.38
20
-63.095
11
150.331
21
-63.0902
0
LINE
8
BLACK
6
CONTINUOUS
10
150.331
20
-63.0902
11
150.284
21
-63.076
0
LINE
8
BLACK
6
CONTINUOUS
10
150.284
20
-63.076
11
150.241
21
-63.0529
0
LINE
8
BLACK
6
CONTINUOUS
10
150.241
20
-63.0529
11
150.203
21
-63.0218
0
LINE
8
BLACK
6
CONTINUOUS
10
150.203
20
-63.0218
11
150.172
21
-62.9839
0
LINE
8
BLACK
6
CONTINUOUS
10
150.172
20
-62.9839
11
150.149
21
-62.9407
0
LINE
8
BLACK
6
CONTINUOUS
10
150.149
20
-62.9407
11
150.135
21
-62.8938
0
LINE
8
BLACK
6
CONTINUOUS
10
150.135
20
-62.8938
11
150.13
21
-62.845
0
LINE
8
BLACK
6
CONTINUOUS
10
150.13
20
-62.845
11
150.13
21
-61.155
0
LINE
8
BLACK
6
CONTINUOUS
10
150.13
20
-61.155
11
150.135
21
-61.1062
0
LINE
8
BLACK
6
CONTINUOUS
10
150.135
20
-61.1062
11
150.149
21
-61.0593
0
LINE
8
BLACK
6
CONTINUOUS
10
150.149
20
-61.0593
11
150.172
21
-61.0161
0
LINE
8
BLACK
6
CONTINUOUS
10
150.172
20
-61.0161
11
150.203
21
-60.9782
0
LINE
8
BLACK
6
CONTINUOUS
10
150.203
20
-60.9782
11
150.241
21
-60.9471
0
LINE
8
BLACK
6
CONTINUOUS
10
150.241
20
-60.9471
11
150.284
21
-60.924
0
LINE
8
BLACK
6
CONTINUOUS
10
150.284
20
-60.924
11
150.331
21
-60.9098
0
LINE
8
BLACK
6
CONTINUOUS
10
150.331
20
-60.9098
11
150.38
21
-60.905
0
LINE
8
BLACK
6
CONTINUOUS
10
150.38
20
-60.905
11
151.62
21
-60.905
0
LINE
8
BLACK
6
CONTINUOUS
10
151.62
20
-60.905
11
151.669
21
-60.9098
0
LINE
8
BLACK
6
CONTINUOUS
10
176.209
20
-60.9098
11
176.256
21
-60.924
0
LINE
8
BLACK
6
CONTINUOUS
10
176.256
20
-60.924
11
176.299
21
-60.9471
0
LINE
8
BLACK
6
CONTINUOUS
10
176.299
20
-60.9471
11
176.337
21
-60.9782
0
LINE
8
BLACK
6
CONTINUOUS
10
176.337
20
-60.9782
11
176.368
21
-61.0161
0
LINE
8
BLACK
6
CONTINUOUS
10
176.368
20
-61.0161
11
176.391
21
-61.0593
0
LINE
8
BLACK
6
CONTINUOUS
10
176.391
20
-61.0593
11
176.405
21
-61.1062
0
LINE
8
BLACK
6
CONTINUOUS
10
176.405
20
-61.1062
11
176.41
21
-61.155
0
LINE
8
BLACK
6
CONTINUOUS
10
176.41
20
-61.155
11
176.41
21
-62.845
0
LINE
8
BLACK
6
CONTINUOUS
10
176.41
20
-62.845
11
176.405
21
-62.8938
0
LINE
8
BLACK
6
CONTINUOUS
10
176.405
20
-62.8938
11
176.391
21
-62.9407
0
LINE
8
BLACK
6
CONTINUOUS
10
176.391
20
-62.9407
11
176.368
21
-62.9839
0
LINE
8
BLACK
6
CONTINUOUS
10
176.368
20
-62.9839
11
176.337
21
-63.0218
0
LINE
8
BLACK
6
CONTINUOUS
10
176.337
20
-63.0218
11
176.299
21
-63.0529
0
LINE
8
BLACK
6
CONTINUOUS
10
176.299
20
-63.0529
11
176.256
21
-63.076
0
LINE
8
BLACK
6
CONTINUOUS
10
176.256
20
-63.076
11
176.209
21
-63.0902
0
LINE
8
BLACK
6
CONTINUOUS
10
176.209
20
-63.0902
11
176.16
21
-63.095
0
LINE
8
BLACK
6
CONTINUOUS
10
176.16
20
-63.095
11
174.92
21
-63.095
0
LINE
8
BLACK
6
CONTINUOUS
10
174.92
20
-63.095
11
174.871
21
-63.0902
0
LINE
8
BLACK
6
CONTINUOUS
10
174.871
20
-63.0902
11
174.824
21
-63.076
0
LINE
8
BLACK
6
CONTINUOUS
10
174.824
20
-63.076
11
174.781
21
-63.0529
0
LINE
8
BLACK
6
CONTINUOUS
10
174.781
20
-63.0529
11
174.743
21
-63.0218
0
LINE
8
BLACK
6
CONTINUOUS
10
174.743
20
-63.0218
11
174.712
21
-62.9839
0
LINE
8
BLACK
6
CONTINUOUS
10
174.712
20
-62.9839
11
174.689
21
-62.9407
0
LINE
8
BLACK
6
CONTINUOUS
10
174.689
20
-62.9407
11
174.675
21
-62.8938
0
LINE
8
BLACK
6
CONTINUOUS
10
174.675
20
-62.8938
11
174.67
21
-62.845
0
LINE
8
BLACK
6
CONTINUOUS
10
174.67
20
-62.845
11
174.67
21
-61.155
0
LINE
8
BLACK
6
CONTINUOUS
10
174.67
20
-61.155
11
174.675
21
-61.1062
0
LINE
8
BLACK
6
CONTINUOUS
10
174.675
20
-61.1062
11
174.689
21
-61.0593
0
LINE
8
BLACK
6
CONTINUOUS
10
174.689
20
-61.0593
11
174.712
21
-61.0161
0
LINE
8
BLACK
6
CONTINUOUS
10
174.712
20
-61.0161
11
174.743
21
-60.9782
0
LINE
8
BLACK
6
CONTINUOUS
10
174.743
20
-60.9782
11
174.781
21
-60.9471
0
LINE
8
BLACK
6
CONTINUOUS
10
174.781
20
-60.9471
11
174.824
21
-60.924
0
LINE
8
BLACK
6
CONTINUOUS
10
174.824
20
-60.924
11
174.871
21
-60.9098
0
LINE
8
BLACK
6
CONTINUOUS
10
174.871
20
-60.9098
11
174.92
21
-60.905
0
LINE
8
BLACK
6
CONTINUOUS
10
174.92
20
-60.905
11
176.16
21
-60.905
0
LINE
8
BLACK
6
CONTINUOUS
10
176.16
20
-60.905
11
176.209
21
-60.9098
0
LINE
8
BLACK
6
CONTINUOUS
10
143.669
20
-60.9098
11
143.716
21
-60.924
0
LINE
8
BLACK
6
CONTINUOUS
10
143.716
20
-60.924
11
143.759
21
-60.9471
0
LINE
8
BLACK
6
CONTINUOUS
10
143.759
20
-60.9471
11
143.797
21
-60.9782
0
LINE
8
BLACK
6
CONTINUOUS
10
143.797
20
-60.9782
11
143.828
21
-61.0161
0
LINE
8
BLACK
6
CONTINUOUS
10
143.828
20
-61.0161
11
143.851
21
-61.0593
0
LINE
8
BLACK
6
CONTINUOUS
10
143.851
20
-61.0593
11
143.865
21
-61.1062
0
LINE
8
BLACK
6
CONTINUOUS
10
143.865
20
-61.1062
11
143.87
21
-61.155
0
LINE
8
BLACK
6
CONTINUOUS
10
143.87
20
-61.155
11
143.87
21
-62.845
0
LINE
8
BLACK
6
CONTINUOUS
10
143.87
20
-62.845
11
143.865
21
-62.8938
0
LINE
8
BLACK
6
CONTINUOUS
10
143.865
20
-62.8938
11
143.851
21
-62.9407
0
LINE
8
BLACK
6
CONTINUOUS
10
143.851
20
-62.9407
11
143.828
21
-62.9839
0
LINE
8
BLACK
6
CONTINUOUS
10
143.828
20
-62.9839
11
143.797
21
-63.0218
0
LINE
8
BLACK
6
CONTINUOUS
10
143.797
20
-63.0218
11
143.759
21
-63.0529
0
LINE
8
BLACK
6
CONTINUOUS
10
143.759
20
-63.0529
11
143.716
21
-63.076
0
LINE
8
BLACK
6
CONTINUOUS
10
143.716
20
-63.076
11
143.669
21
-63.0902
0
LINE
8
BLACK
6
CONTINUOUS
10
143.669
20
-63.0902
11
143.62
21
-63.095
0
LINE
8
BLACK
6
CONTINUOUS
10
143.62
20
-63.095
11
142.38
21
-63.095
0
LINE
8
BLACK
6
CONTINUOUS
10
142.38
20
-63.095
11
142.331
21
-63.0902
0
LINE
8
BLACK
6
CONTINUOUS
10
142.331
20
-63.0902
11
142.284
21
-63.076
0
LINE
8
BLACK
6
CONTINUOUS
10
142.284
20
-63.076
11
142.241
21
-63.0529
0
LINE
8
BLACK
6
CONTINUOUS
10
142.241
20
-63.0529
11
142.203
21
-63.0218
0
LINE
8
BLACK
6
CONTINUOUS
10
142.203
20
-63.0218
11
142.172
21
-62.9839
0
LINE
8
BLACK
6
CONTINUOUS
10
142.172
20
-62.9839
11
142.149
21
-62.9407
0
LINE
8
BLACK
6
CONTINUOUS
10
142.149
20
-62.9407
11
142.135
21
-62.8938
0
LINE
8
BLACK
6
CONTINUOUS
10
142.135
20
-62.8938
11
142.13
21
-62.845
0
LINE
8
BLACK
6
CONTINUOUS
10
142.13
20
-62.845
11
142.13
21
-61.155
0
LINE
8
BLACK
6
CONTINUOUS
10
142.13
20
-61.155
11
142.135
21
-61.1062
0
LINE
8
BLACK
6
CONTINUOUS
10
142.135
20
-61.1062
11
142.149
21
-61.0593
0
LINE
8
BLACK
6
CONTINUOUS
10
142.149
20
-61.0593
11
142.172
21
-61.0161
0
LINE
8
BLACK
6
CONTINUOUS
10
142.172
20
-61.0161
11
142.203
21
-60.9782
0
LINE
8
BLACK
6
CONTINUOUS
10
142.203
20
-60.9782
11
142.241
21
-60.9471
0
LINE
8
BLACK
6
CONTINUOUS
10
142.241
20
-60.9471
11
142.284
21
-60.924
0
LINE
8
BLACK
6
CONTINUOUS
10
142.284
20
-60.924
11
142.331
21
-60.9098
0
LINE
8
BLACK
6
CONTINUOUS
10
142.331
20
-60.9098
11
142.38
21
-60.905
0
LINE
8
BLACK
6
CONTINUOUS
10
142.38
20
-60.905
11
143.62
21
-60.905
0
LINE
8
BLACK
6
CONTINUOUS
10
143.62
20
-60.905
11
143.669
21
-60.9098
0
LINE
8
BLACK
6
CONTINUOUS
10
184.209
20
-60.9098
11
184.256
21
-60.924
0
LINE
8
BLACK
6
CONTINUOUS
10
184.256
20
-60.924
11
184.299
21
-60.9471
0
LINE
8
BLACK
6
CONTINUOUS
10
184.299
20
-60.9471
11
184.337
21
-60.9782
0
LINE
8
BLACK
6
CONTINUOUS
10
184.337
20
-60.9782
11
184.368
21
-61.0161
0
LINE
8
BLACK
6
CONTINUOUS
10
184.368
20
-61.0161
11
184.391
21
-61.0593
0
LINE
8
BLACK
6
CONTINUOUS
10
184.391
20
-61.0593
11
184.405
21
-61.1062
0
LINE
8
BLACK
6
CONTINUOUS
10
184.405
20
-61.1062
11
184.41
21
-61.155
0
LINE
8
BLACK
6
CONTINUOUS
10
184.41
20
-61.155
11
184.41
21
-62.845
0
LINE
8
BLACK
6
CONTINUOUS
10
184.41
20
-62.845
11
184.405
21
-62.8938
0
LINE
8
BLACK
6
CONTINUOUS
10
184.405
20
-62.8938
11
184.391
21
-62.9407
0
LINE
8
BLACK
6
CONTINUOUS
10
184.391
20
-62.9407
11
184.368
21
-62.9839
0
LINE
8
BLACK
6
CONTINUOUS
10
184.368
20
-62.9839
11
184.337
21
-63.0218
0
LINE
8
BLACK
6
CONTINUOUS
10
184.337
20
-63.0218
11
184.299
21
-63.0529
0
LINE
8
BLACK
6
CONTINUOUS
10
184.299
20
-63.0529
11
184.256
21
-63.076
0
LINE
8
BLACK
6
CONTINUOUS
10
184.256
20
-63.076
11
184.209
21
-63.0902
0
LINE
8
BLACK
6
CONTINUOUS
10
184.209
20
-63.0902
11
184.16
21
-63.095
0
LINE
8
BLACK
6
CONTINUOUS
10
184.16
20
-63.095
11
182.92
21
-63.095
0
LINE
8
BLACK
6
CONTINUOUS
10
182.92
20
-63.095
11
182.871
21
-63.0902
0
LINE
8
BLACK
6
CONTINUOUS
10
182.871
20
-63.0902
11
182.824
21
-63.076
0
LINE
8
BLACK
6
CONTINUOUS
10
182.824
20
-63.076
11
182.781
21
-63.0529
0
LINE
8
BLACK
6
CONTINUOUS
10
182.781
20
-63.0529
11
182.743
21
-63.0218
0
LINE
8
BLACK
6
CONTINUOUS
10
182.743
20
-63.0218
11
182.712
21
-62.9839
0
LINE
8
BLACK
6
CONTINUOUS
10
182.712
20
-62.9839
11
182.689
21
-62.9407
0
LINE
8
BLACK
6
CONTINUOUS
10
182.689
20
-62.9407
11
182.675
21
-62.8938
0
LINE
8
BLACK
6
CONTINUOUS
10
182.675
20
-62.8938
11
182.67
21
-62.845
0
LINE
8
BLACK
6
CONTINUOUS
10
182.67
20
-62.845
11
182.67
21
-61.155
0
LINE
8
BLACK
6
CONTINUOUS
10
182.67
20
-61.155
11
182.675
21
-61.1062
0
LINE
8
BLACK
6
CONTINUOUS
10
182.675
20
-61.1062
11
182.689
21
-61.0593
0
LINE
8
BLACK
6
CONTINUOUS
10
182.689
20
-61.0593
11
182.712
21
-61.0161
0
LINE
8
BLACK
6
CONTINUOUS
10
182.712
20
-61.0161
11
182.743
21
-60.9782
0
LINE
8
BLACK
6
CONTINUOUS
10
182.743
20
-60.9782
11
182.781
21
-60.9471
0
LINE
8
BLACK
6
CONTINUOUS
10
182.781
20
-60.9471
11
182.824
21
-60.924
0
LINE
8
BLACK
6
CONTINUOUS
10
182.824
20
-60.924
11
182.871
21
-60.9098
0
LINE
8
BLACK
6
CONTINUOUS
10
182.871
20
-60.9098
11
182.92
21
-60.905
0
LINE
8
BLACK
6
CONTINUOUS
10
182.92
20
-60.905
11
184.16
21
-60.905
0
LINE
8
BLACK
6
CONTINUOUS
10
184.16
20
-60.905
11
184.209
21
-60.9098
0
LINE
8
BLACK
6
CONTINUOUS
10
136.209
20
-60.9098
11
136.256
21
-60.924
0
LINE
8
BLACK
6
CONTINUOUS
10
136.256
20
-60.924
11
136.299
21
-60.9471
0
LINE
8
BLACK
6
CONTINUOUS
10
136.299
20
-60.9471
11
136.337
21
-60.9782
0
LINE
8
BLACK
6
CONTINUOUS
10
136.337
20
-60.9782
11
136.368
21
-61.0161
0
LINE
8
BLACK
6
CONTINUOUS
10
136.368
20
-61.0161
11
136.391
21
-61.0593
0
LINE
8
BLACK
6
CONTINUOUS
10
136.391
20
-61.0593
11
136.405
21
-61.1062
0
LINE
8
BLACK
6
CONTINUOUS
10
136.405
20
-61.1062
11
136.41
21
-61.155
0
LINE
8
BLACK
6
CONTINUOUS
10
136.41
20
-61.155
11
136.41
21
-62.845
0
LINE
8
BLACK
6
CONTINUOUS
10
136.41
20
-62.845
11
136.405
21
-62.8938
0
LINE
8
BLACK
6
CONTINUOUS
10
136.405
20
-62.8938
11
136.391
21
-62.9407
0
LINE
8
BLACK
6
CONTINUOUS
10
136.391
20
-62.9407
11
136.368
21
-62.9839
0
LINE
8
BLACK
6
CONTINUOUS
10
136.368
20
-62.9839
11
136.337
21
-63.0218
0
LINE
8
BLACK
6
CONTINUOUS
10
136.337
20
-63.0218
11
136.299
21
-63.0529
0
LINE
8
BLACK
6
CONTINUOUS
10
136.299
20
-63.0529
11
136.256
21
-63.076
0
LINE
8
BLACK
6
CONTINUOUS
10
136.256
20
-63.076
11
136.209
21
-63.0902
0
LINE
8
BLACK
6
CONTINUOUS
10
136.209
20
-63.0902
11
136.16
21
-63.095
0
LINE
8
BLACK
6
CONTINUOUS
10
136.16
20
-63.095
11
134.92
21
-63.095
0
LINE
8
BLACK
6
CONTINUOUS
10
134.92
20
-63.095
11
134.871
21
-63.0902
0
LINE
8
BLACK
6
CONTINUOUS
10
134.871
20
-63.0902
11
134.824
21
-63.076
0
LINE
8
BLACK
6
CONTINUOUS
10
134.824
20
-63.076
11
134.781
21
-63.0529
0
LINE
8
BLACK
6
CONTINUOUS
10
134.781
20
-63.0529
11
134.743
21
-63.0218
0
LINE
8
BLACK
6
CONTINUOUS
10
134.743
20
-63.0218
11
134.712
21
-62.9839
0
LINE
8
BLACK
6
CONTINUOUS
10
134.712
20
-62.9839
11
134.689
21
-62.9407
0
LINE
8
BLACK
6
CONTINUOUS
10
134.689
20
-62.9407
11
134.675
21
-62.8938
0
LINE
8
BLACK
6
CONTINUOUS
10
134.675
20
-62.8938
11
134.67
21
-62.845
0
LINE
8
BLACK
6
CONTINUOUS
10
134.67
20
-62.845
11
134.67
21
-61.155
0
LINE
8
BLACK
6
CONTINUOUS
10
134.67
20
-61.155
11
134.675
21
-61.1062
0
LINE
8
BLACK
6
CONTINUOUS
10
134.675
20
-61.1062
11
134.689
21
-61.0593
0
LINE
8
BLACK
6
CONTINUOUS
10
134.689
20
-61.0593
11
134.712
21
-61.0161
0
LINE
8
BLACK
6
CONTINUOUS
10
134.712
20
-61.0161
11
134.743
21
-60.9782
0
LINE
8
BLACK
6
CONTINUOUS
10
134.743
20
-60.9782
11
134.781
21
-60.9471
0
LINE
8
BLACK
6
CONTINUOUS
10
134.781
20
-60.9471
11
134.824
21
-60.924
0
LINE
8
BLACK
6
CONTINUOUS
10
134.824
20
-60.924
11
134.871
21
-60.9098
0
LINE
8
BLACK
6
CONTINUOUS
10
134.871
20
-60.9098
11
134.92
21
-60.905
0
LINE
8
BLACK
6
CONTINUOUS
10
134.92
20
-60.905
11
136.16
21
-60.905
0
LINE
8
BLACK
6
CONTINUOUS
10
136.16
20
-60.905
11
136.209
21
-60.9098
0
LINE
8
BLACK
6
CONTINUOUS
10
127.467
20
-59.4615
11
127.758
21
-59.5821
0
LINE
8
BLACK
6
CONTINUOUS
10
127.758
20
-59.5821
11
128.02
21
-59.7572
0
LINE
8
BLACK
6
CONTINUOUS
10
128.02
20
-59.7572
11
128.243
21
-59.9801
0
LINE
8
BLACK
6
CONTINUOUS
10
128.243
20
-59.9801
11
128.418
21
-60.2421
0
LINE
8
BLACK
6
CONTINUOUS
10
128.418
20
-60.2421
11
128.539
21
-60.5333
0
LINE
8
BLACK
6
CONTINUOUS
10
128.539
20
-60.5333
11
128.6
21
-60.8424
0
LINE
8
BLACK
6
CONTINUOUS
10
128.6
20
-60.8424
11
128.6
21
-61.1576
0
LINE
8
BLACK
6
CONTINUOUS
10
128.6
20
-61.1576
11
128.539
21
-61.4667
0
LINE
8
BLACK
6
CONTINUOUS
10
128.539
20
-61.4667
11
128.418
21
-61.7579
0
LINE
8
BLACK
6
CONTINUOUS
10
128.418
20
-61.7579
11
128.243
21
-62.0199
0
LINE
8
BLACK
6
CONTINUOUS
10
128.243
20
-62.0199
11
128.02
21
-62.2428
0
LINE
8
BLACK
6
CONTINUOUS
10
128.02
20
-62.2428
11
127.758
21
-62.4179
0
LINE
8
BLACK
6
CONTINUOUS
10
127.758
20
-62.4179
11
127.467
21
-62.5385
0
LINE
8
BLACK
6
CONTINUOUS
10
127.467
20
-62.5385
11
127.158
21
-62.6
0
LINE
8
BLACK
6
CONTINUOUS
10
127.158
20
-62.6
11
126.842
21
-62.6
0
LINE
8
BLACK
6
CONTINUOUS
10
126.842
20
-62.6
11
126.533
21
-62.5385
0
LINE
8
BLACK
6
CONTINUOUS
10
126.533
20
-62.5385
11
126.242
21
-62.4179
0
LINE
8
BLACK
6
CONTINUOUS
10
126.242
20
-62.4179
11
125.98
21
-62.2428
0
LINE
8
BLACK
6
CONTINUOUS
10
125.98
20
-62.2428
11
125.757
21
-62.0199
0
LINE
8
BLACK
6
CONTINUOUS
10
125.757
20
-62.0199
11
125.582
21
-61.7579
0
LINE
8
BLACK
6
CONTINUOUS
10
125.582
20
-61.7579
11
125.461
21
-61.4667
0
LINE
8
BLACK
6
CONTINUOUS
10
125.461
20
-61.4667
11
125.4
21
-61.1576
0
LINE
8
BLACK
6
CONTINUOUS
10
125.4
20
-61.1576
11
125.4
21
-60.8424
0
LINE
8
BLACK
6
CONTINUOUS
10
125.4
20
-60.8424
11
125.461
21
-60.5333
0
LINE
8
BLACK
6
CONTINUOUS
10
125.461
20
-60.5333
11
125.582
21
-60.2421
0
LINE
8
BLACK
6
CONTINUOUS
10
125.582
20
-60.2421
11
125.757
21
-59.9801
0
LINE
8
BLACK
6
CONTINUOUS
10
125.757
20
-59.9801
11
125.98
21
-59.7572
0
LINE
8
BLACK
6
CONTINUOUS
10
125.98
20
-59.7572
11
126.242
21
-59.5821
0
LINE
8
BLACK
6
CONTINUOUS
10
126.242
20
-59.5821
11
126.533
21
-59.4615
0
LINE
8
BLACK
6
CONTINUOUS
10
126.533
20
-59.4615
11
126.842
21
-59.4
0
LINE
8
BLACK
6
CONTINUOUS
10
126.842
20
-59.4
11
127.158
21
-59.4
0
LINE
8
BLACK
6
CONTINUOUS
10
127.158
20
-59.4
11
127.467
21
-59.4615
0
LINE
8
BLACK
6
CONTINUOUS
10
190.467
20
-59.4615
11
190.758
21
-59.5821
0
LINE
8
BLACK
6
CONTINUOUS
10
190.758
20
-59.5821
11
191.02
21
-59.7572
0
LINE
8
BLACK
6
CONTINUOUS
10
191.02
20
-59.7572
11
191.243
21
-59.9801
0
LINE
8
BLACK
6
CONTINUOUS
10
191.243
20
-59.9801
11
191.418
21
-60.2421
0
LINE
8
BLACK
6
CONTINUOUS
10
191.418
20
-60.2421
11
191.539
21
-60.5333
0
LINE
8
BLACK
6
CONTINUOUS
10
191.539
20
-60.5333
11
191.6
21
-60.8424
0
LINE
8
BLACK
6
CONTINUOUS
10
191.6
20
-60.8424
11
191.6
21
-61.1576
0
LINE
8
BLACK
6
CONTINUOUS
10
191.6
20
-61.1576
11
191.539
21
-61.4667
0
LINE
8
BLACK
6
CONTINUOUS
10
191.539
20
-61.4667
11
191.418
21
-61.7579
0
LINE
8
BLACK
6
CONTINUOUS
10
191.418
20
-61.7579
11
191.243
21
-62.0199
0
LINE
8
BLACK
6
CONTINUOUS
10
191.243
20
-62.0199
11
191.02
21
-62.2428
0
LINE
8
BLACK
6
CONTINUOUS
10
191.02
20
-62.2428
11
190.758
21
-62.4179
0
LINE
8
BLACK
6
CONTINUOUS
10
190.758
20
-62.4179
11
190.467
21
-62.5385
0
LINE
8
BLACK
6
CONTINUOUS
10
190.467
20
-62.5385
11
190.158
21
-62.6
0
LINE
8
BLACK
6
CONTINUOUS
10
190.158
20
-62.6
11
189.842
21
-62.6
0
LINE
8
BLACK
6
CONTINUOUS
10
189.842
20
-62.6
11
189.533
21
-62.5385
0
LINE
8
BLACK
6
CONTINUOUS
10
189.533
20
-62.5385
11
189.242
21
-62.4179
0
LINE
8
BLACK
6
CONTINUOUS
10
189.242
20
-62.4179
11
188.98
21
-62.2428
0
LINE
8
BLACK
6
CONTINUOUS
10
188.98
20
-62.2428
11
188.757
21
-62.0199
0
LINE
8
BLACK
6
CONTINUOUS
10
188.757
20
-62.0199
11
188.582
21
-61.7579
0
LINE
8
BLACK
6
CONTINUOUS
10
188.582
20
-61.7579
11
188.461
21
-61.4667
0
LINE
8
BLACK
6
CONTINUOUS
10
188.461
20
-61.4667
11
188.4
21
-61.1576
0
LINE
8
BLACK
6
CONTINUOUS
10
188.4
20
-61.1576
11
188.4
21
-60.8424
0
LINE
8
BLACK
6
CONTINUOUS
10
188.4
20
-60.8424
11
188.461
21
-60.5333
0
LINE
8
BLACK
6
CONTINUOUS
10
188.461
20
-60.5333
11
188.582
21
-60.2421
0
LINE
8
BLACK
6
CONTINUOUS
10
188.582
20
-60.2421
11
188.757
21
-59.9801
0
LINE
8
BLACK
6
CONTINUOUS
10
188.757
20
-59.9801
11
188.98
21
-59.7572
0
LINE
8
BLACK
6
CONTINUOUS
10
188.98
20
-59.7572
11
189.242
21
-59.5821
0
LINE
8
BLACK
6
CONTINUOUS
10
189.242
20
-59.5821
11
189.533
21
-59.4615
0
LINE
8
BLACK
6
CONTINUOUS
10
189.533
20
-59.4615
11
189.842
21
-59.4
0
LINE
8
BLACK
6
CONTINUOUS
10
189.842
20
-59.4
11
190.158
21
-59.4
0
LINE
8
BLACK
6
CONTINUOUS
10
190.158
20
-59.4
11
190.467
21
-59.4615
  0
ENDSEC
  0
EOF
