<?xml version="1.0" standalone="no"?>
 <!DOCTYPE svg PUBLIC "-//W3C//DTD SVG 1.1//EN" 
 "http://www.w3.org/Graphics/SVG/1.1/DTD/svg11.dtd"> 
<svg
  xmlns:svg="http://www.w3.org/2000/svg"
  xmlns="http://www.w3.org/2000/svg"
  xmlns:xlink="http://www.w3.org/1999/xlink"
  version="1.1"
  width="29.700220cm" height="21.000720cm" viewBox="0 0 116930 82680">
<title>SVG Picture created as controller-Eco2_User.svg date 2021/06/26 11:27:53 </title>
  <desc>Picture generated by PCBNEW </desc>
<g style="fill:#000000; fill-opacity:1;stroke:#000000; stroke-opacity:1;
stroke-linecap:round; stroke-linejoin:round;"
 transform="translate(0 0) scale(1 1)">
</g>
<g style="fill:#000000; fill-opacity:0.0; 
stroke:#000000; stroke-width:-0.000393701; stroke-opacity:1; 
stroke-linecap:round; stroke-linejoin:round;">
</g>
<g style="fill:#000000; fill-opacity:0.0; 
stroke:#000000; stroke-width:59.0551; stroke-opacity:1; 
stroke-linecap:round; stroke-linejoin:round;">
<text x="70867" y="40354.3"
textLength="3734.35" font-size="524.934" lengthAdjust="spacingAndGlyphs"
text-anchor="middle" opacity="0">BIT 0 1 2 3</text>
<path d="M72432 40129
L72376 40148
L72357 40166
L72338 40204
L72338 40260
L72357 40298
L72376 40316
L72413 40335
L72563 40335
L72563 39941
L72432 39941
L72394 39960
L72376 39979
L72357 40016
L72357 40054
L72376 40091
L72394 40110
L72432 40129
L72563 40129
" />
<path d="M72169 40335
L72169 39941
" />
<path d="M72038 39941
L71813 39941
" />
<path d="M71926 40335
L71926 39941
" />
<path d="M71307 39941
L71270 39941
L71232 39960
L71213 39979
L71195 40016
L71176 40091
L71176 40185
L71195 40260
L71213 40298
L71232 40316
L71270 40335
L71307 40335
L71345 40316
L71363 40298
L71382 40260
L71401 40185
L71401 40091
L71382 40016
L71363 39979
L71345 39960
L71307 39941
" />
<path d="M70501 40335
L70726 40335
" />
<path d="M70613 40335
L70613 39941
L70651 39998
L70688 40035
L70726 40054
" />
<path d="M70051 39979
L70032 39960
L69995 39941
L69901 39941
L69864 39960
L69845 39979
L69826 40016
L69826 40054
L69845 40110
L70070 40335
L69826 40335
" />
<path d="M69395 39941
L69151 39941
L69282 40091
L69226 40091
L69189 40110
L69170 40129
L69151 40166
L69151 40260
L69170 40298
L69189 40316
L69226 40335
L69339 40335
L69376 40316
L69395 40298
" />
<text x="48819.8" y="43110.2"
textLength="2720.19" font-size="524.934" lengthAdjust="spacingAndGlyphs"
text-anchor="middle" opacity="0">SEGMENT</text>
<path d="M50066 43072
L50010 43091
L49916 43091
L49879 43072
L49860 43053
L49841 43016
L49841 42979
L49860 42941
L49879 42922
L49916 42904
L49991 42885
L50028 42866
L50047 42847
L50066 42810
L50066 42772
L50047 42735
L50028 42716
L49991 42697
L49897 42697
L49841 42716
" />
<path d="M49672 42885
L49541 42885
" />
<path d="M49485 43091
L49672 43091
L49672 42697
L49485 42697
" />
<path d="M49110 42716
L49147 42697
L49204 42697
L49260 42716
L49297 42754
L49316 42791
L49335 42866
L49335 42922
L49316 42997
L49297 43035
L49260 43072
L49204 43091
L49166 43091
L49110 43072
L49091 43053
L49091 42922
L49166 42922
" />
<path d="M48922 43091
L48922 42697
L48791 42979
L48660 42697
L48660 43091
" />
<path d="M48472 42885
L48341 42885
" />
<path d="M48285 43091
L48472 43091
L48472 42697
L48285 42697
" />
<path d="M48116 43091
L48116 42697
L47891 43091
L47891 42697
" />
<path d="M47760 42697
L47535 42697
" />
<path d="M47648 43091
L47648 42697
" />
<text x="35433.9" y="29330.7"
textLength="2176.51" font-size="524.934" lengthAdjust="spacingAndGlyphs"
text-anchor="middle" opacity="0">83 mm</text>
<path d="M36333 29086
L36371 29068
L36390 29049
L36408 29011
L36408 28993
L36390 28955
L36371 28937
L36333 28918
L36258 28918
L36221 28937
L36202 28955
L36183 28993
L36183 29011
L36202 29049
L36221 29068
L36258 29086
L36333 29086
L36371 29105
L36390 29124
L36408 29161
L36408 29236
L36390 29274
L36371 29293
L36333 29311
L36258 29311
L36221 29293
L36202 29274
L36183 29236
L36183 29161
L36202 29124
L36221 29105
L36258 29086
" />
<path d="M36052 28918
L35808 28918
L35940 29068
L35883 29068
L35846 29086
L35827 29105
L35808 29143
L35808 29236
L35827 29274
L35846 29293
L35883 29311
L35996 29311
L36033 29293
L36052 29274
" />
<path d="M35340 29311
L35340 29049
" />
<path d="M35340 29086
L35321 29068
L35283 29049
L35227 29049
L35190 29068
L35171 29105
L35171 29311
" />
<path d="M35171 29105
L35152 29068
L35115 29049
L35058 29049
L35021 29068
L35002 29105
L35002 29311
" />
<path d="M34815 29311
L34815 29049
" />
<path d="M34815 29086
L34796 29068
L34759 29049
L34702 29049
L34665 29068
L34646 29105
L34646 29311
" />
<path d="M34646 29105
L34627 29068
L34590 29049
L34534 29049
L34496 29068
L34477 29105
L34477 29311
" />
<text x="37402.4" y="14763.8"
textLength="2551.46" font-size="524.934" lengthAdjust="spacingAndGlyphs"
text-anchor="middle" opacity="0">125 mm</text>
<path d="M38339 14745
L38564 14745
" />
<path d="M38452 14745
L38452 14351
L38489 14407
L38527 14445
L38564 14463
" />
<path d="M38189 14388
L38171 14370
L38133 14351
L38039 14351
L38002 14370
L37983 14388
L37964 14426
L37964 14463
L37983 14520
L38208 14745
L37964 14745
" />
<path d="M37608 14351
L37796 14351
L37814 14538
L37796 14520
L37758 14501
L37664 14501
L37627 14520
L37608 14538
L37589 14576
L37589 14670
L37608 14707
L37627 14726
L37664 14745
L37758 14745
L37796 14726
L37814 14707
" />
<path d="M37121 14745
L37121 14482
" />
<path d="M37121 14520
L37102 14501
L37064 14482
L37008 14482
L36971 14501
L36952 14538
L36952 14745
" />
<path d="M36952 14538
L36933 14501
L36896 14482
L36840 14482
L36802 14501
L36783 14538
L36783 14745
" />
<path d="M36596 14745
L36596 14482
" />
<path d="M36596 14520
L36577 14501
L36540 14482
L36483 14482
L36446 14501
L36427 14538
L36427 14745
" />
<path d="M36427 14538
L36408 14501
L36371 14482
L36315 14482
L36277 14501
L36258 14538
L36258 14745
" />
<path d="M34252 14173
L72835 14173
" />
<path d="M34252 46850
L34252 14173
" />
<path d="M35040 46850
L34252 46850
" />
<path d="M83465 46850
L83465 14173
" />
<path d="M83071 46850
L83465 46850
" />
<path d="M35040 46850
L83071 46850
" />
<path d="M82284 14173
L83465 14173
" />
<path d="M72835 14173
L82284 14173
" />
<g >
</g>
<g >
</g>
<g >
</g>
<g >
</g>
<g >
</g>
<g >
</g>
<g >
</g>
<g >
</g>
<g >
</g>
<g >
</g>
<g >
</g>
<g >
</g>
<g >
</g>
<g >
</g>
<g >
</g>
<g >
</g>
<g >
</g>
<g >
</g>
<g >
</g>
<g >
</g>
<g >
</g>
<g >
</g>
<g >
</g>
<g >
</g>
<g >
</g>
<g >
</g>
<g >
</g>
<g >
</g>
<g >
</g>
<g >
</g>
<g >
</g>
<g >
</g>
<g >
</g>
<g >
</g>
<g >
</g>
<g >
</g>
<g >
</g>
<g >
</g>
<g >
</g>
<g >
</g>
<g >
</g>
<g >
</g>
<g >
</g>
<g >
</g>
<g >
</g>
<g >
</g>
<g >
</g>
<g >
</g>
<g >
</g>
<g >
</g>
<g >
</g>
<g >
</g>
<g >
</g>
<g >
</g>
<g >
</g>
<g >
</g>
<g >
</g>
</g> 
</svg>
