  0
SECTION
  2
HEADER
  9
$ANGBASE
  50
0.0
  9
$ANGDIR
  70
1
  9
$MEASUREMENT
  70
1
  0
ENDSEC
  0
SECTION
  2
TABLES
  0
TABLE
  2
LTYPE
  70
4
  0
LTYPE
  5
40F
  2
CONTINUOUS
  70
0
  3
Solid line
  72
65
  73
0
  40
0.0
  0
LTYPE
  5
410
  2
DASHDOT
 70
0
  3
Dash Dot ____ _ ____ _
 72
65
 73
4
 40
2.0
 49
1.25
 49
-0.25
 49
0.25
 49
-0.25
  0
LTYPE
  5
411
  2
DASHED
 70
0
  3
Dashed __ __ __ __ __
 72
65
 73
2
 40
0.75
 49
0.5
 49
-0.25
  0
LTYPE
  5
43B
  2
DOTTED
 70
0
  3
Dotted .  .  .  .
 72
65
 73
2
 40
0.2
 49
0.0
 49
-0.2
  0
ENDTAB
  0
TABLE
  2
STYLE
  70
4
  0
STYLE
  2
KICAD
  70
0
  40
0
  41
1
  42
1
  50
0
  71
0
  3
isocp.shx
  0
STYLE
  2
KICADB
  70
0
  40
0
  41
1
  42
1
  50
0
  71
0
  3
isocp.shx
  0
STYLE
  2
KICADI
  70
0
  40
0
  41
1
  42
1
  50
15
  71
0
  3
isocp.shx
  0
STYLE
  2
KICADBI
  70
0
  40
0
  41
1
  42
1
  50
15
  71
0
  3
isocp.shx
  0
ENDTAB
  0
TABLE
  2
LAYER
  70
1
  0
LAYER
  2
BLACK
  70
0
  62
7
  6
CONTINUOUS
  0
ENDTAB
  0
ENDSEC
  0
SECTION
  2
ENTITIES
0
LINE
8
BLACK
6
CONTINUOUS
10
191.006
20
-83.875
11
191.006
21
-83.875
0
LINE
8
BLACK
6
CONTINUOUS
10
191.006
20
-83.875
11
191.025
21
-83.8768
0
LINE
8
BLACK
6
CONTINUOUS
10
191.025
20
-83.8768
11
191.048
21
-83.884
0
LINE
8
BLACK
6
CONTINUOUS
10
191.048
20
-83.884
11
191.07
21
-83.8956
0
LINE
8
BLACK
6
CONTINUOUS
10
191.07
20
-83.8956
11
191.089
21
-83.9112
0
LINE
8
BLACK
6
CONTINUOUS
10
191.089
20
-83.9112
11
191.093
21
-83.916
0
LINE
8
BLACK
6
CONTINUOUS
10
191.093
20
-83.916
11
192.084
21
-84.9073
0
LINE
8
BLACK
6
CONTINUOUS
10
192.084
20
-84.9073
11
192.089
21
-84.9112
0
LINE
8
BLACK
6
CONTINUOUS
10
192.089
20
-84.9112
11
192.093
21
-84.9159
0
LINE
8
BLACK
6
CONTINUOUS
10
192.093
20
-84.9159
11
192.093
21
-84.9159
0
LINE
8
BLACK
6
CONTINUOUS
10
192.093
20
-84.9159
11
192.103
21
-84.9283
0
LINE
8
BLACK
6
CONTINUOUS
10
192.103
20
-84.9283
11
192.104
21
-84.9302
0
LINE
8
BLACK
6
CONTINUOUS
10
192.104
20
-84.9302
11
192.116
21
-84.9519
0
LINE
8
BLACK
6
CONTINUOUS
10
192.116
20
-84.9519
11
192.123
21
-84.9755
0
LINE
8
BLACK
6
CONTINUOUS
10
192.123
20
-84.9755
11
192.125
21
-84.9939
0
LINE
8
BLACK
6
CONTINUOUS
10
192.125
20
-84.9939
11
192.125
21
-84.9939
0
LINE
8
BLACK
6
CONTINUOUS
10
192.125
20
-84.9939
11
192.126
21
-85
0
LINE
8
BLACK
6
CONTINUOUS
10
192.126
20
-85
11
192.125
21
-85.0061
0
LINE
8
BLACK
6
CONTINUOUS
10
192.125
20
-85.0061
11
192.125
21
-86.9939
0
LINE
8
BLACK
6
CONTINUOUS
10
192.125
20
-86.9939
11
192.126
21
-87
0
LINE
8
BLACK
6
CONTINUOUS
10
192.126
20
-87
11
192.125
21
-87.0061
0
LINE
8
BLACK
6
CONTINUOUS
10
192.125
20
-87.0061
11
192.125
21
-87.0061
0
LINE
8
BLACK
6
CONTINUOUS
10
192.125
20
-87.0061
11
192.123
21
-87.0245
0
LINE
8
BLACK
6
CONTINUOUS
10
192.123
20
-87.0245
11
192.116
21
-87.0481
0
LINE
8
BLACK
6
CONTINUOUS
10
192.116
20
-87.0481
11
192.104
21
-87.0698
0
LINE
8
BLACK
6
CONTINUOUS
10
192.104
20
-87.0698
11
192.093
21
-87.0841
0
LINE
8
BLACK
6
CONTINUOUS
10
192.093
20
-87.0841
11
192.093
21
-87.0841
0
LINE
8
BLACK
6
CONTINUOUS
10
192.093
20
-87.0841
11
192.089
21
-87.0888
0
LINE
8
BLACK
6
CONTINUOUS
10
192.089
20
-87.0888
11
192.084
21
-87.0927
0
LINE
8
BLACK
6
CONTINUOUS
10
192.084
20
-87.0927
11
191.093
21
-88.084
0
LINE
8
BLACK
6
CONTINUOUS
10
191.093
20
-88.084
11
191.089
21
-88.0888
0
LINE
8
BLACK
6
CONTINUOUS
10
191.089
20
-88.0888
11
191.07
21
-88.1044
0
LINE
8
BLACK
6
CONTINUOUS
10
191.07
20
-88.1044
11
191.048
21
-88.116
0
LINE
8
BLACK
6
CONTINUOUS
10
191.048
20
-88.116
11
191.025
21
-88.1232
0
LINE
8
BLACK
6
CONTINUOUS
10
191.025
20
-88.1232
11
191.006
21
-88.125
0
LINE
8
BLACK
6
CONTINUOUS
10
191.006
20
-88.125
11
191.006
21
-88.125
0
LINE
8
BLACK
6
CONTINUOUS
10
191.006
20
-88.125
11
191
21
-88.1256
0
LINE
8
BLACK
6
CONTINUOUS
10
191
20
-88.1256
11
190.994
21
-88.125
0
LINE
8
BLACK
6
CONTINUOUS
10
190.994
20
-88.125
11
189.006
21
-88.125
0
LINE
8
BLACK
6
CONTINUOUS
10
189.006
20
-88.125
11
189
21
-88.1256
0
LINE
8
BLACK
6
CONTINUOUS
10
189
20
-88.1256
11
188.994
21
-88.125
0
LINE
8
BLACK
6
CONTINUOUS
10
188.994
20
-88.125
11
188.994
21
-88.125
0
LINE
8
BLACK
6
CONTINUOUS
10
188.994
20
-88.125
11
188.975
21
-88.1232
0
LINE
8
BLACK
6
CONTINUOUS
10
188.975
20
-88.1232
11
188.952
21
-88.116
0
LINE
8
BLACK
6
CONTINUOUS
10
188.952
20
-88.116
11
188.93
21
-88.1044
0
LINE
8
BLACK
6
CONTINUOUS
10
188.93
20
-88.1044
11
188.916
21
-88.0927
0
LINE
8
BLACK
6
CONTINUOUS
10
188.916
20
-88.0927
11
188.916
21
-88.0927
0
LINE
8
BLACK
6
CONTINUOUS
10
188.916
20
-88.0927
11
188.911
21
-88.0888
0
LINE
8
BLACK
6
CONTINUOUS
10
188.911
20
-88.0888
11
188.907
21
-88.0841
0
LINE
8
BLACK
6
CONTINUOUS
10
188.907
20
-88.0841
11
187.916
21
-87.0927
0
LINE
8
BLACK
6
CONTINUOUS
10
187.916
20
-87.0927
11
187.911
21
-87.0888
0
LINE
8
BLACK
6
CONTINUOUS
10
187.911
20
-87.0888
11
187.896
21
-87.0698
0
LINE
8
BLACK
6
CONTINUOUS
10
187.896
20
-87.0698
11
187.884
21
-87.0481
0
LINE
8
BLACK
6
CONTINUOUS
10
187.884
20
-87.0481
11
187.877
21
-87.0245
0
LINE
8
BLACK
6
CONTINUOUS
10
187.877
20
-87.0245
11
187.875
21
-87.0061
0
LINE
8
BLACK
6
CONTINUOUS
10
187.875
20
-87.0061
11
187.875
21
-87.0061
0
LINE
8
BLACK
6
CONTINUOUS
10
187.875
20
-87.0061
11
187.874
21
-87
0
LINE
8
BLACK
6
CONTINUOUS
10
187.874
20
-87
11
187.875
21
-86.9939
0
LINE
8
BLACK
6
CONTINUOUS
10
187.875
20
-86.9939
11
187.875
21
-85.0061
0
LINE
8
BLACK
6
CONTINUOUS
10
187.875
20
-85.0061
11
187.874
21
-85
0
LINE
8
BLACK
6
CONTINUOUS
10
187.874
20
-85
11
187.877
21
-84.9755
0
LINE
8
BLACK
6
CONTINUOUS
10
187.877
20
-84.9755
11
187.884
21
-84.9519
0
LINE
8
BLACK
6
CONTINUOUS
10
187.884
20
-84.9519
11
187.896
21
-84.9302
0
LINE
8
BLACK
6
CONTINUOUS
10
187.896
20
-84.9302
11
187.907
21
-84.9159
0
LINE
8
BLACK
6
CONTINUOUS
10
187.907
20
-84.9159
11
187.907
21
-84.9159
0
LINE
8
BLACK
6
CONTINUOUS
10
187.907
20
-84.9159
11
187.911
21
-84.9112
0
LINE
8
BLACK
6
CONTINUOUS
10
187.911
20
-84.9112
11
187.916
21
-84.9073
0
LINE
8
BLACK
6
CONTINUOUS
10
187.916
20
-84.9073
11
188.907
21
-83.9159
0
LINE
8
BLACK
6
CONTINUOUS
10
188.907
20
-83.9159
11
188.911
21
-83.9112
0
LINE
8
BLACK
6
CONTINUOUS
10
188.911
20
-83.9112
11
188.916
21
-83.9073
0
LINE
8
BLACK
6
CONTINUOUS
10
188.916
20
-83.9073
11
188.916
21
-83.9073
0
LINE
8
BLACK
6
CONTINUOUS
10
188.916
20
-83.9073
11
188.93
21
-83.8956
0
LINE
8
BLACK
6
CONTINUOUS
10
188.93
20
-83.8956
11
188.952
21
-83.884
0
LINE
8
BLACK
6
CONTINUOUS
10
188.952
20
-83.884
11
188.975
21
-83.8768
0
LINE
8
BLACK
6
CONTINUOUS
10
188.975
20
-83.8768
11
188.994
21
-83.875
0
LINE
8
BLACK
6
CONTINUOUS
10
188.994
20
-83.875
11
188.994
21
-83.875
0
LINE
8
BLACK
6
CONTINUOUS
10
188.994
20
-83.875
11
189
21
-83.8744
0
LINE
8
BLACK
6
CONTINUOUS
10
189
20
-83.8744
11
189.006
21
-83.875
0
LINE
8
BLACK
6
CONTINUOUS
10
189.006
20
-83.875
11
190.994
21
-83.875
0
LINE
8
BLACK
6
CONTINUOUS
10
190.994
20
-83.875
11
191
21
-83.8744
0
LINE
8
BLACK
6
CONTINUOUS
10
191
20
-83.8744
11
191.006
21
-83.875
0
LINE
8
BLACK
6
CONTINUOUS
10
189.052
20
-84.125
11
188.125
21
-85.0518
0
LINE
8
BLACK
6
CONTINUOUS
10
188.125
20
-85.0518
11
188.125
21
-86.9482
0
LINE
8
BLACK
6
CONTINUOUS
10
188.125
20
-86.9482
11
189.052
21
-87.875
0
LINE
8
BLACK
6
CONTINUOUS
10
189.052
20
-87.875
11
190.948
21
-87.875
0
LINE
8
BLACK
6
CONTINUOUS
10
190.948
20
-87.875
11
191.875
21
-86.9482
0
LINE
8
BLACK
6
CONTINUOUS
10
191.875
20
-86.9482
11
191.875
21
-85.0518
0
LINE
8
BLACK
6
CONTINUOUS
10
191.875
20
-85.0518
11
190.948
21
-84.125
0
LINE
8
BLACK
6
CONTINUOUS
10
190.948
20
-84.125
11
189.052
21
-84.125
0
LINE
8
BLACK
6
CONTINUOUS
10
190.467
20
-84.4615
11
190.758
21
-84.5821
0
LINE
8
BLACK
6
CONTINUOUS
10
190.758
20
-84.5821
11
191.02
21
-84.7572
0
LINE
8
BLACK
6
CONTINUOUS
10
191.02
20
-84.7572
11
191.243
21
-84.9801
0
LINE
8
BLACK
6
CONTINUOUS
10
191.243
20
-84.9801
11
191.418
21
-85.2421
0
LINE
8
BLACK
6
CONTINUOUS
10
191.418
20
-85.2421
11
191.539
21
-85.5333
0
LINE
8
BLACK
6
CONTINUOUS
10
191.539
20
-85.5333
11
191.6
21
-85.8424
0
LINE
8
BLACK
6
CONTINUOUS
10
191.6
20
-85.8424
11
191.6
21
-86.1576
0
LINE
8
BLACK
6
CONTINUOUS
10
191.6
20
-86.1576
11
191.539
21
-86.4667
0
LINE
8
BLACK
6
CONTINUOUS
10
191.539
20
-86.4667
11
191.418
21
-86.7579
0
LINE
8
BLACK
6
CONTINUOUS
10
191.418
20
-86.7579
11
191.243
21
-87.0199
0
LINE
8
BLACK
6
CONTINUOUS
10
191.243
20
-87.0199
11
191.02
21
-87.2428
0
LINE
8
BLACK
6
CONTINUOUS
10
191.02
20
-87.2428
11
190.758
21
-87.4179
0
LINE
8
BLACK
6
CONTINUOUS
10
190.758
20
-87.4179
11
190.467
21
-87.5385
0
LINE
8
BLACK
6
CONTINUOUS
10
190.467
20
-87.5385
11
190.158
21
-87.6
0
LINE
8
BLACK
6
CONTINUOUS
10
190.158
20
-87.6
11
189.842
21
-87.6
0
LINE
8
BLACK
6
CONTINUOUS
10
189.842
20
-87.6
11
189.533
21
-87.5385
0
LINE
8
BLACK
6
CONTINUOUS
10
189.533
20
-87.5385
11
189.242
21
-87.4179
0
LINE
8
BLACK
6
CONTINUOUS
10
189.242
20
-87.4179
11
188.98
21
-87.2428
0
LINE
8
BLACK
6
CONTINUOUS
10
188.98
20
-87.2428
11
188.757
21
-87.0199
0
LINE
8
BLACK
6
CONTINUOUS
10
188.757
20
-87.0199
11
188.582
21
-86.7579
0
LINE
8
BLACK
6
CONTINUOUS
10
188.582
20
-86.7579
11
188.461
21
-86.4667
0
LINE
8
BLACK
6
CONTINUOUS
10
188.461
20
-86.4667
11
188.4
21
-86.1576
0
LINE
8
BLACK
6
CONTINUOUS
10
188.4
20
-86.1576
11
188.4
21
-85.8424
0
LINE
8
BLACK
6
CONTINUOUS
10
188.4
20
-85.8424
11
188.461
21
-85.5333
0
LINE
8
BLACK
6
CONTINUOUS
10
188.461
20
-85.5333
11
188.582
21
-85.2421
0
LINE
8
BLACK
6
CONTINUOUS
10
188.582
20
-85.2421
11
188.757
21
-84.9801
0
LINE
8
BLACK
6
CONTINUOUS
10
188.757
20
-84.9801
11
188.98
21
-84.7572
0
LINE
8
BLACK
6
CONTINUOUS
10
188.98
20
-84.7572
11
189.242
21
-84.5821
0
LINE
8
BLACK
6
CONTINUOUS
10
189.242
20
-84.5821
11
189.533
21
-84.4615
0
LINE
8
BLACK
6
CONTINUOUS
10
189.533
20
-84.4615
11
189.842
21
-84.4
0
LINE
8
BLACK
6
CONTINUOUS
10
189.842
20
-84.4
11
190.158
21
-84.4
0
LINE
8
BLACK
6
CONTINUOUS
10
190.158
20
-84.4
11
190.467
21
-84.4615
0
LINE
8
BLACK
6
CONTINUOUS
10
128.006
20
-83.875
11
128.006
21
-83.875
0
LINE
8
BLACK
6
CONTINUOUS
10
128.006
20
-83.875
11
128.025
21
-83.8768
0
LINE
8
BLACK
6
CONTINUOUS
10
128.025
20
-83.8768
11
128.048
21
-83.884
0
LINE
8
BLACK
6
CONTINUOUS
10
128.048
20
-83.884
11
128.07
21
-83.8956
0
LINE
8
BLACK
6
CONTINUOUS
10
128.07
20
-83.8956
11
128.089
21
-83.9112
0
LINE
8
BLACK
6
CONTINUOUS
10
128.089
20
-83.9112
11
128.093
21
-83.916
0
LINE
8
BLACK
6
CONTINUOUS
10
128.093
20
-83.916
11
129.084
21
-84.9073
0
LINE
8
BLACK
6
CONTINUOUS
10
129.084
20
-84.9073
11
129.089
21
-84.9112
0
LINE
8
BLACK
6
CONTINUOUS
10
129.089
20
-84.9112
11
129.093
21
-84.9159
0
LINE
8
BLACK
6
CONTINUOUS
10
129.093
20
-84.9159
11
129.093
21
-84.9159
0
LINE
8
BLACK
6
CONTINUOUS
10
129.093
20
-84.9159
11
129.103
21
-84.9283
0
LINE
8
BLACK
6
CONTINUOUS
10
129.103
20
-84.9283
11
129.104
21
-84.9302
0
LINE
8
BLACK
6
CONTINUOUS
10
129.104
20
-84.9302
11
129.116
21
-84.9519
0
LINE
8
BLACK
6
CONTINUOUS
10
129.116
20
-84.9519
11
129.123
21
-84.9755
0
LINE
8
BLACK
6
CONTINUOUS
10
129.123
20
-84.9755
11
129.125
21
-84.9939
0
LINE
8
BLACK
6
CONTINUOUS
10
129.125
20
-84.9939
11
129.125
21
-84.9939
0
LINE
8
BLACK
6
CONTINUOUS
10
129.125
20
-84.9939
11
129.126
21
-85
0
LINE
8
BLACK
6
CONTINUOUS
10
129.126
20
-85
11
129.125
21
-85.0061
0
LINE
8
BLACK
6
CONTINUOUS
10
129.125
20
-85.0061
11
129.125
21
-86.9939
0
LINE
8
BLACK
6
CONTINUOUS
10
129.125
20
-86.9939
11
129.126
21
-87
0
LINE
8
BLACK
6
CONTINUOUS
10
129.126
20
-87
11
129.125
21
-87.0061
0
LINE
8
BLACK
6
CONTINUOUS
10
129.125
20
-87.0061
11
129.125
21
-87.0061
0
LINE
8
BLACK
6
CONTINUOUS
10
129.125
20
-87.0061
11
129.123
21
-87.0245
0
LINE
8
BLACK
6
CONTINUOUS
10
129.123
20
-87.0245
11
129.116
21
-87.0481
0
LINE
8
BLACK
6
CONTINUOUS
10
129.116
20
-87.0481
11
129.104
21
-87.0698
0
LINE
8
BLACK
6
CONTINUOUS
10
129.104
20
-87.0698
11
129.093
21
-87.0841
0
LINE
8
BLACK
6
CONTINUOUS
10
129.093
20
-87.0841
11
129.093
21
-87.0841
0
LINE
8
BLACK
6
CONTINUOUS
10
129.093
20
-87.0841
11
129.089
21
-87.0888
0
LINE
8
BLACK
6
CONTINUOUS
10
129.089
20
-87.0888
11
129.084
21
-87.0927
0
LINE
8
BLACK
6
CONTINUOUS
10
129.084
20
-87.0927
11
128.093
21
-88.084
0
LINE
8
BLACK
6
CONTINUOUS
10
128.093
20
-88.084
11
128.089
21
-88.0888
0
LINE
8
BLACK
6
CONTINUOUS
10
128.089
20
-88.0888
11
128.07
21
-88.1044
0
LINE
8
BLACK
6
CONTINUOUS
10
128.07
20
-88.1044
11
128.048
21
-88.116
0
LINE
8
BLACK
6
CONTINUOUS
10
128.048
20
-88.116
11
128.025
21
-88.1232
0
LINE
8
BLACK
6
CONTINUOUS
10
128.025
20
-88.1232
11
128.006
21
-88.125
0
LINE
8
BLACK
6
CONTINUOUS
10
128.006
20
-88.125
11
128.006
21
-88.125
0
LINE
8
BLACK
6
CONTINUOUS
10
128.006
20
-88.125
11
128
21
-88.1256
0
LINE
8
BLACK
6
CONTINUOUS
10
128
20
-88.1256
11
127.994
21
-88.125
0
LINE
8
BLACK
6
CONTINUOUS
10
127.994
20
-88.125
11
126.006
21
-88.125
0
LINE
8
BLACK
6
CONTINUOUS
10
126.006
20
-88.125
11
126
21
-88.1256
0
LINE
8
BLACK
6
CONTINUOUS
10
126
20
-88.1256
11
125.994
21
-88.125
0
LINE
8
BLACK
6
CONTINUOUS
10
125.994
20
-88.125
11
125.994
21
-88.125
0
LINE
8
BLACK
6
CONTINUOUS
10
125.994
20
-88.125
11
125.975
21
-88.1232
0
LINE
8
BLACK
6
CONTINUOUS
10
125.975
20
-88.1232
11
125.952
21
-88.116
0
LINE
8
BLACK
6
CONTINUOUS
10
125.952
20
-88.116
11
125.93
21
-88.1044
0
LINE
8
BLACK
6
CONTINUOUS
10
125.93
20
-88.1044
11
125.916
21
-88.0927
0
LINE
8
BLACK
6
CONTINUOUS
10
125.916
20
-88.0927
11
125.916
21
-88.0927
0
LINE
8
BLACK
6
CONTINUOUS
10
125.916
20
-88.0927
11
125.911
21
-88.0888
0
LINE
8
BLACK
6
CONTINUOUS
10
125.911
20
-88.0888
11
125.907
21
-88.0841
0
LINE
8
BLACK
6
CONTINUOUS
10
125.907
20
-88.0841
11
124.916
21
-87.0927
0
LINE
8
BLACK
6
CONTINUOUS
10
124.916
20
-87.0927
11
124.911
21
-87.0888
0
LINE
8
BLACK
6
CONTINUOUS
10
124.911
20
-87.0888
11
124.907
21
-87.084
0
LINE
8
BLACK
6
CONTINUOUS
10
124.907
20
-87.084
11
124.896
21
-87.0698
0
LINE
8
BLACK
6
CONTINUOUS
10
124.896
20
-87.0698
11
124.884
21
-87.0481
0
LINE
8
BLACK
6
CONTINUOUS
10
124.884
20
-87.0481
11
124.877
21
-87.0245
0
LINE
8
BLACK
6
CONTINUOUS
10
124.877
20
-87.0245
11
124.874
21
-87
0
LINE
8
BLACK
6
CONTINUOUS
10
124.874
20
-87
11
124.875
21
-86.9939
0
LINE
8
BLACK
6
CONTINUOUS
10
124.875
20
-86.9939
11
124.875
21
-85.0061
0
LINE
8
BLACK
6
CONTINUOUS
10
124.875
20
-85.0061
11
124.874
21
-85
0
LINE
8
BLACK
6
CONTINUOUS
10
124.874
20
-85
11
124.875
21
-84.9939
0
LINE
8
BLACK
6
CONTINUOUS
10
124.875
20
-84.9939
11
124.875
21
-84.9939
0
LINE
8
BLACK
6
CONTINUOUS
10
124.875
20
-84.9939
11
124.877
21
-84.9755
0
LINE
8
BLACK
6
CONTINUOUS
10
124.877
20
-84.9755
11
124.884
21
-84.9519
0
LINE
8
BLACK
6
CONTINUOUS
10
124.884
20
-84.9519
11
124.896
21
-84.9302
0
LINE
8
BLACK
6
CONTINUOUS
10
124.896
20
-84.9302
11
124.911
21
-84.9112
0
LINE
8
BLACK
6
CONTINUOUS
10
124.911
20
-84.9112
11
124.916
21
-84.9073
0
LINE
8
BLACK
6
CONTINUOUS
10
124.916
20
-84.9073
11
125.907
21
-83.9159
0
LINE
8
BLACK
6
CONTINUOUS
10
125.907
20
-83.9159
11
125.911
21
-83.9112
0
LINE
8
BLACK
6
CONTINUOUS
10
125.911
20
-83.9112
11
125.916
21
-83.9073
0
LINE
8
BLACK
6
CONTINUOUS
10
125.916
20
-83.9073
11
125.916
21
-83.9073
0
LINE
8
BLACK
6
CONTINUOUS
10
125.916
20
-83.9073
11
125.93
21
-83.8956
0
LINE
8
BLACK
6
CONTINUOUS
10
125.93
20
-83.8956
11
125.952
21
-83.884
0
LINE
8
BLACK
6
CONTINUOUS
10
125.952
20
-83.884
11
125.975
21
-83.8768
0
LINE
8
BLACK
6
CONTINUOUS
10
125.975
20
-83.8768
11
125.994
21
-83.875
0
LINE
8
BLACK
6
CONTINUOUS
10
125.994
20
-83.875
11
125.994
21
-83.875
0
LINE
8
BLACK
6
CONTINUOUS
10
125.994
20
-83.875
11
126
21
-83.8744
0
LINE
8
BLACK
6
CONTINUOUS
10
126
20
-83.8744
11
126.006
21
-83.875
0
LINE
8
BLACK
6
CONTINUOUS
10
126.006
20
-83.875
11
127.994
21
-83.875
0
LINE
8
BLACK
6
CONTINUOUS
10
127.994
20
-83.875
11
128
21
-83.8744
0
LINE
8
BLACK
6
CONTINUOUS
10
128
20
-83.8744
11
128.006
21
-83.875
0
LINE
8
BLACK
6
CONTINUOUS
10
126.052
20
-84.125
11
125.125
21
-85.0518
0
LINE
8
BLACK
6
CONTINUOUS
10
125.125
20
-85.0518
11
125.125
21
-86.9482
0
LINE
8
BLACK
6
CONTINUOUS
10
125.125
20
-86.9482
11
126.052
21
-87.875
0
LINE
8
BLACK
6
CONTINUOUS
10
126.052
20
-87.875
11
127.948
21
-87.875
0
LINE
8
BLACK
6
CONTINUOUS
10
127.948
20
-87.875
11
128.875
21
-86.9482
0
LINE
8
BLACK
6
CONTINUOUS
10
128.875
20
-86.9482
11
128.875
21
-85.0518
0
LINE
8
BLACK
6
CONTINUOUS
10
128.875
20
-85.0518
11
127.948
21
-84.125
0
LINE
8
BLACK
6
CONTINUOUS
10
127.948
20
-84.125
11
126.052
21
-84.125
0
LINE
8
BLACK
6
CONTINUOUS
10
127.467
20
-84.4615
11
127.758
21
-84.5821
0
LINE
8
BLACK
6
CONTINUOUS
10
127.758
20
-84.5821
11
128.02
21
-84.7572
0
LINE
8
BLACK
6
CONTINUOUS
10
128.02
20
-84.7572
11
128.243
21
-84.9801
0
LINE
8
BLACK
6
CONTINUOUS
10
128.243
20
-84.9801
11
128.418
21
-85.2421
0
LINE
8
BLACK
6
CONTINUOUS
10
128.418
20
-85.2421
11
128.539
21
-85.5333
0
LINE
8
BLACK
6
CONTINUOUS
10
128.539
20
-85.5333
11
128.6
21
-85.8424
0
LINE
8
BLACK
6
CONTINUOUS
10
128.6
20
-85.8424
11
128.6
21
-86.1576
0
LINE
8
BLACK
6
CONTINUOUS
10
128.6
20
-86.1576
11
128.539
21
-86.4667
0
LINE
8
BLACK
6
CONTINUOUS
10
128.539
20
-86.4667
11
128.418
21
-86.7579
0
LINE
8
BLACK
6
CONTINUOUS
10
128.418
20
-86.7579
11
128.243
21
-87.0199
0
LINE
8
BLACK
6
CONTINUOUS
10
128.243
20
-87.0199
11
128.02
21
-87.2428
0
LINE
8
BLACK
6
CONTINUOUS
10
128.02
20
-87.2428
11
127.758
21
-87.4179
0
LINE
8
BLACK
6
CONTINUOUS
10
127.758
20
-87.4179
11
127.467
21
-87.5385
0
LINE
8
BLACK
6
CONTINUOUS
10
127.467
20
-87.5385
11
127.158
21
-87.6
0
LINE
8
BLACK
6
CONTINUOUS
10
127.158
20
-87.6
11
126.842
21
-87.6
0
LINE
8
BLACK
6
CONTINUOUS
10
126.842
20
-87.6
11
126.533
21
-87.5385
0
LINE
8
BLACK
6
CONTINUOUS
10
126.533
20
-87.5385
11
126.242
21
-87.4179
0
LINE
8
BLACK
6
CONTINUOUS
10
126.242
20
-87.4179
11
125.98
21
-87.2428
0
LINE
8
BLACK
6
CONTINUOUS
10
125.98
20
-87.2428
11
125.757
21
-87.0199
0
LINE
8
BLACK
6
CONTINUOUS
10
125.757
20
-87.0199
11
125.582
21
-86.7579
0
LINE
8
BLACK
6
CONTINUOUS
10
125.582
20
-86.7579
11
125.461
21
-86.4667
0
LINE
8
BLACK
6
CONTINUOUS
10
125.461
20
-86.4667
11
125.4
21
-86.1576
0
LINE
8
BLACK
6
CONTINUOUS
10
125.4
20
-86.1576
11
125.4
21
-85.8424
0
LINE
8
BLACK
6
CONTINUOUS
10
125.4
20
-85.8424
11
125.461
21
-85.5333
0
LINE
8
BLACK
6
CONTINUOUS
10
125.461
20
-85.5333
11
125.582
21
-85.2421
0
LINE
8
BLACK
6
CONTINUOUS
10
125.582
20
-85.2421
11
125.757
21
-84.9801
0
LINE
8
BLACK
6
CONTINUOUS
10
125.757
20
-84.9801
11
125.98
21
-84.7572
0
LINE
8
BLACK
6
CONTINUOUS
10
125.98
20
-84.7572
11
126.242
21
-84.5821
0
LINE
8
BLACK
6
CONTINUOUS
10
126.242
20
-84.5821
11
126.533
21
-84.4615
0
LINE
8
BLACK
6
CONTINUOUS
10
126.533
20
-84.4615
11
126.842
21
-84.4
0
LINE
8
BLACK
6
CONTINUOUS
10
126.842
20
-84.4
11
127.158
21
-84.4
0
LINE
8
BLACK
6
CONTINUOUS
10
127.158
20
-84.4
11
127.467
21
-84.4615
0
LINE
8
BLACK
6
CONTINUOUS
10
183.736
20
-59.5545
11
183.925
21
-59.6117
0
LINE
8
BLACK
6
CONTINUOUS
10
183.925
20
-59.6117
11
184.098
21
-59.7045
0
LINE
8
BLACK
6
CONTINUOUS
10
184.098
20
-59.7045
11
184.251
21
-59.8295
0
LINE
8
BLACK
6
CONTINUOUS
10
184.251
20
-59.8295
11
184.282
21
-59.8676
0
LINE
8
BLACK
6
CONTINUOUS
10
184.282
20
-59.8676
11
185.672
21
-61.2582
0
LINE
8
BLACK
6
CONTINUOUS
10
185.672
20
-61.2582
11
185.711
21
-61.2895
0
LINE
8
BLACK
6
CONTINUOUS
10
185.711
20
-61.2895
11
185.835
21
-61.4417
0
LINE
8
BLACK
6
CONTINUOUS
10
185.835
20
-61.4417
11
185.928
21
-61.6155
0
LINE
8
BLACK
6
CONTINUOUS
10
185.928
20
-61.6155
11
185.986
21
-61.804
0
LINE
8
BLACK
6
CONTINUOUS
10
185.986
20
-61.804
11
186.005
21
-62
0
LINE
8
BLACK
6
CONTINUOUS
10
186.005
20
-62
11
186.001
21
-62.04
0
LINE
8
BLACK
6
CONTINUOUS
10
186.001
20
-62.04
11
186.005
21
-62.08
0
LINE
8
BLACK
6
CONTINUOUS
10
186.005
20
-62.08
11
185.986
21
-62.276
0
LINE
8
BLACK
6
CONTINUOUS
10
185.986
20
-62.276
11
185.928
21
-62.4645
0
LINE
8
BLACK
6
CONTINUOUS
10
185.928
20
-62.4645
11
185.878
21
-62.5595
0
LINE
8
BLACK
6
CONTINUOUS
10
185.878
20
-62.5595
11
185.835
21
-62.6383
0
LINE
8
BLACK
6
CONTINUOUS
10
185.835
20
-62.6383
11
185.711
21
-62.7905
0
LINE
8
BLACK
6
CONTINUOUS
10
185.711
20
-62.7905
11
185.672
21
-62.8218
0
LINE
8
BLACK
6
CONTINUOUS
10
185.672
20
-62.8218
11
184.54
21
-63.9542
0
LINE
8
BLACK
6
CONTINUOUS
10
184.54
20
-63.9542
11
184.54
21
-82.4109
0
LINE
8
BLACK
6
CONTINUOUS
10
184.54
20
-82.4109
11
184.545
21
-82.46
0
LINE
8
BLACK
6
CONTINUOUS
10
184.545
20
-82.46
11
184.54
21
-82.5091
0
LINE
8
BLACK
6
CONTINUOUS
10
184.54
20
-82.5091
11
184.54
21
-82.5091
0
LINE
8
BLACK
6
CONTINUOUS
10
184.54
20
-82.5091
11
184.526
21
-82.656
0
LINE
8
BLACK
6
CONTINUOUS
10
184.526
20
-82.656
11
184.468
21
-82.8445
0
LINE
8
BLACK
6
CONTINUOUS
10
184.468
20
-82.8445
11
184.375
21
-83.0183
0
LINE
8
BLACK
6
CONTINUOUS
10
184.375
20
-83.0183
11
184.251
21
-83.1705
0
LINE
8
BLACK
6
CONTINUOUS
10
184.251
20
-83.1705
11
184.212
21
-83.2018
0
LINE
8
BLACK
6
CONTINUOUS
10
184.212
20
-83.2018
11
179.742
21
-87.6724
0
LINE
8
BLACK
6
CONTINUOUS
10
179.742
20
-87.6724
11
179.711
21
-87.7105
0
LINE
8
BLACK
6
CONTINUOUS
10
179.711
20
-87.7105
11
179.558
21
-87.8355
0
LINE
8
BLACK
6
CONTINUOUS
10
179.558
20
-87.8355
11
179.385
21
-87.9283
0
LINE
8
BLACK
6
CONTINUOUS
10
179.385
20
-87.9283
11
179.196
21
-87.9855
0
LINE
8
BLACK
6
CONTINUOUS
10
179.196
20
-87.9855
11
179.049
21
-88
0
LINE
8
BLACK
6
CONTINUOUS
10
179.049
20
-88
11
179
21
-88.0048
0
LINE
8
BLACK
6
CONTINUOUS
10
179
20
-88.0048
11
178.951
21
-88
0
LINE
8
BLACK
6
CONTINUOUS
10
178.951
20
-88
11
159.049
21
-88
0
LINE
8
BLACK
6
CONTINUOUS
10
159.049
20
-88
11
159
21
-88.0048
0
LINE
8
BLACK
6
CONTINUOUS
10
159
20
-88.0048
11
158.804
21
-87.9855
0
LINE
8
BLACK
6
CONTINUOUS
10
158.804
20
-87.9855
11
158.615
21
-87.9283
0
LINE
8
BLACK
6
CONTINUOUS
10
158.615
20
-87.9283
11
158.442
21
-87.8355
0
LINE
8
BLACK
6
CONTINUOUS
10
158.442
20
-87.8355
11
158.328
21
-87.7418
0
LINE
8
BLACK
6
CONTINUOUS
10
158.328
20
-87.7418
11
158.328
21
-87.7418
0
LINE
8
BLACK
6
CONTINUOUS
10
158.328
20
-87.7418
11
158.289
21
-87.7105
0
LINE
8
BLACK
6
CONTINUOUS
10
158.289
20
-87.7105
11
158.258
21
-87.6724
0
LINE
8
BLACK
6
CONTINUOUS
10
158.258
20
-87.6724
11
157.248
21
-86.6618
0
LINE
8
BLACK
6
CONTINUOUS
10
157.248
20
-86.6618
11
157.209
21
-86.6305
0
LINE
8
BLACK
6
CONTINUOUS
10
157.209
20
-86.6305
11
157.085
21
-86.4783
0
LINE
8
BLACK
6
CONTINUOUS
10
157.085
20
-86.4783
11
157.034
21
-86.3846
0
LINE
8
BLACK
6
CONTINUOUS
10
157.034
20
-86.3846
11
156.992
21
-86.3045
0
LINE
8
BLACK
6
CONTINUOUS
10
156.992
20
-86.3045
11
156.934
21
-86.116
0
LINE
8
BLACK
6
CONTINUOUS
10
156.934
20
-86.116
11
156.915
21
-85.92
0
LINE
8
BLACK
6
CONTINUOUS
10
156.915
20
-85.92
11
156.92
21
-85.8709
0
LINE
8
BLACK
6
CONTINUOUS
10
156.92
20
-85.8709
11
156.92
21
-78.4909
0
LINE
8
BLACK
6
CONTINUOUS
10
156.92
20
-78.4909
11
156.934
21
-78.344
0
LINE
8
BLACK
6
CONTINUOUS
10
156.934
20
-78.344
11
156.992
21
-78.1555
0
LINE
8
BLACK
6
CONTINUOUS
10
156.992
20
-78.1555
11
157.085
21
-77.9817
0
LINE
8
BLACK
6
CONTINUOUS
10
157.085
20
-77.9817
11
157.209
21
-77.8295
0
LINE
8
BLACK
6
CONTINUOUS
10
157.209
20
-77.8295
11
157.362
21
-77.7045
0
LINE
8
BLACK
6
CONTINUOUS
10
157.362
20
-77.7045
11
157.535
21
-77.6117
0
LINE
8
BLACK
6
CONTINUOUS
10
157.535
20
-77.6117
11
157.724
21
-77.5545
0
LINE
8
BLACK
6
CONTINUOUS
10
157.724
20
-77.5545
11
157.92
21
-77.5352
0
LINE
8
BLACK
6
CONTINUOUS
10
157.92
20
-77.5352
11
158.116
21
-77.5545
0
LINE
8
BLACK
6
CONTINUOUS
10
158.116
20
-77.5545
11
158.305
21
-77.6117
0
LINE
8
BLACK
6
CONTINUOUS
10
158.305
20
-77.6117
11
158.478
21
-77.7045
0
LINE
8
BLACK
6
CONTINUOUS
10
158.478
20
-77.7045
11
158.631
21
-77.8295
0
LINE
8
BLACK
6
CONTINUOUS
10
158.631
20
-77.8295
11
158.755
21
-77.9817
0
LINE
8
BLACK
6
CONTINUOUS
10
158.755
20
-77.9817
11
158.848
21
-78.1555
0
LINE
8
BLACK
6
CONTINUOUS
10
158.848
20
-78.1555
11
158.906
21
-78.344
0
LINE
8
BLACK
6
CONTINUOUS
10
158.906
20
-78.344
11
158.92
21
-78.4909
0
LINE
8
BLACK
6
CONTINUOUS
10
158.92
20
-78.4909
11
158.92
21
-85.5058
0
LINE
8
BLACK
6
CONTINUOUS
10
158.92
20
-85.5058
11
159.414
21
-86
0
LINE
8
BLACK
6
CONTINUOUS
10
159.414
20
-86
11
178.586
21
-86
0
LINE
8
BLACK
6
CONTINUOUS
10
178.586
20
-86
11
182.54
21
-82.0458
0
LINE
8
BLACK
6
CONTINUOUS
10
182.54
20
-82.0458
11
182.54
21
-63.5891
0
LINE
8
BLACK
6
CONTINUOUS
10
182.54
20
-63.5891
11
182.535
21
-63.54
0
LINE
8
BLACK
6
CONTINUOUS
10
182.535
20
-63.54
11
182.54
21
-63.4909
0
LINE
8
BLACK
6
CONTINUOUS
10
182.54
20
-63.4909
11
182.54
21
-62.0491
0
LINE
8
BLACK
6
CONTINUOUS
10
182.54
20
-62.0491
11
182.535
21
-62
0
LINE
8
BLACK
6
CONTINUOUS
10
182.535
20
-62
11
182.54
21
-61.9509
0
LINE
8
BLACK
6
CONTINUOUS
10
182.54
20
-61.9509
11
182.54
21
-60.5891
0
LINE
8
BLACK
6
CONTINUOUS
10
182.54
20
-60.5891
11
182.535
21
-60.54
0
LINE
8
BLACK
6
CONTINUOUS
10
182.535
20
-60.54
11
182.554
21
-60.344
0
LINE
8
BLACK
6
CONTINUOUS
10
182.554
20
-60.344
11
182.612
21
-60.1555
0
LINE
8
BLACK
6
CONTINUOUS
10
182.612
20
-60.1555
11
182.682
21
-60.0245
0
LINE
8
BLACK
6
CONTINUOUS
10
182.682
20
-60.0245
11
182.705
21
-59.9817
0
LINE
8
BLACK
6
CONTINUOUS
10
182.705
20
-59.9817
11
182.829
21
-59.8295
0
LINE
8
BLACK
6
CONTINUOUS
10
182.829
20
-59.8295
11
182.982
21
-59.7045
0
LINE
8
BLACK
6
CONTINUOUS
10
182.982
20
-59.7045
11
183.155
21
-59.6117
0
LINE
8
BLACK
6
CONTINUOUS
10
183.155
20
-59.6117
11
183.253
21
-59.5821
0
LINE
8
BLACK
6
CONTINUOUS
10
183.253
20
-59.5821
11
183.344
21
-59.5545
0
LINE
8
BLACK
6
CONTINUOUS
10
183.344
20
-59.5545
11
183.54
21
-59.5352
0
LINE
8
BLACK
6
CONTINUOUS
10
183.54
20
-59.5352
11
183.736
21
-59.5545
0
LINE
8
BLACK
6
CONTINUOUS
10
176.209
20
-60.9098
11
176.256
21
-60.924
0
LINE
8
BLACK
6
CONTINUOUS
10
176.256
20
-60.924
11
176.299
21
-60.9471
0
LINE
8
BLACK
6
CONTINUOUS
10
176.299
20
-60.9471
11
176.337
21
-60.9782
0
LINE
8
BLACK
6
CONTINUOUS
10
176.337
20
-60.9782
11
176.355
21
-61
0
LINE
8
BLACK
6
CONTINUOUS
10
176.355
20
-61
11
177.049
21
-61
0
LINE
8
BLACK
6
CONTINUOUS
10
177.049
20
-61
11
177.196
21
-61.0145
0
LINE
8
BLACK
6
CONTINUOUS
10
177.196
20
-61.0145
11
177.385
21
-61.0717
0
LINE
8
BLACK
6
CONTINUOUS
10
177.385
20
-61.0717
11
177.558
21
-61.1645
0
LINE
8
BLACK
6
CONTINUOUS
10
177.558
20
-61.1645
11
177.711
21
-61.2895
0
LINE
8
BLACK
6
CONTINUOUS
10
177.711
20
-61.2895
11
177.835
21
-61.4417
0
LINE
8
BLACK
6
CONTINUOUS
10
177.835
20
-61.4417
11
177.928
21
-61.6155
0
LINE
8
BLACK
6
CONTINUOUS
10
177.928
20
-61.6155
11
177.986
21
-61.804
0
LINE
8
BLACK
6
CONTINUOUS
10
177.986
20
-61.804
11
178.005
21
-62
0
LINE
8
BLACK
6
CONTINUOUS
10
178.005
20
-62
11
177.986
21
-62.196
0
LINE
8
BLACK
6
CONTINUOUS
10
177.986
20
-62.196
11
177.928
21
-62.3845
0
LINE
8
BLACK
6
CONTINUOUS
10
177.928
20
-62.3845
11
177.835
21
-62.5583
0
LINE
8
BLACK
6
CONTINUOUS
10
177.835
20
-62.5583
11
177.711
21
-62.7105
0
LINE
8
BLACK
6
CONTINUOUS
10
177.711
20
-62.7105
11
177.558
21
-62.8355
0
LINE
8
BLACK
6
CONTINUOUS
10
177.558
20
-62.8355
11
177.385
21
-62.9283
0
LINE
8
BLACK
6
CONTINUOUS
10
177.385
20
-62.9283
11
177.196
21
-62.9855
0
LINE
8
BLACK
6
CONTINUOUS
10
177.196
20
-62.9855
11
177.049
21
-63
0
LINE
8
BLACK
6
CONTINUOUS
10
177.049
20
-63
11
176.54
21
-63
0
LINE
8
BLACK
6
CONTINUOUS
10
176.54
20
-63
11
176.54
21
-65.1258
0
LINE
8
BLACK
6
CONTINUOUS
10
176.54
20
-65.1258
11
179.672
21
-68.2582
0
LINE
8
BLACK
6
CONTINUOUS
10
179.672
20
-68.2582
11
179.711
21
-68.2895
0
LINE
8
BLACK
6
CONTINUOUS
10
179.711
20
-68.2895
11
179.835
21
-68.4417
0
LINE
8
BLACK
6
CONTINUOUS
10
179.835
20
-68.4417
11
179.898
21
-68.5583
0
LINE
8
BLACK
6
CONTINUOUS
10
179.898
20
-68.5583
11
179.928
21
-68.6155
0
LINE
8
BLACK
6
CONTINUOUS
10
179.928
20
-68.6155
11
179.986
21
-68.804
0
LINE
8
BLACK
6
CONTINUOUS
10
179.986
20
-68.804
11
180.005
21
-69
0
LINE
8
BLACK
6
CONTINUOUS
10
180.005
20
-69
11
180
21
-69.0491
0
LINE
8
BLACK
6
CONTINUOUS
10
180
20
-69.0491
11
180
21
-81.9509
0
LINE
8
BLACK
6
CONTINUOUS
10
180
20
-81.9509
11
180.005
21
-82
0
LINE
8
BLACK
6
CONTINUOUS
10
180.005
20
-82
11
180
21
-82.0491
0
LINE
8
BLACK
6
CONTINUOUS
10
180
20
-82.0491
11
180
21
-82.0491
0
LINE
8
BLACK
6
CONTINUOUS
10
180
20
-82.0491
11
179.986
21
-82.196
0
LINE
8
BLACK
6
CONTINUOUS
10
179.986
20
-82.196
11
179.928
21
-82.3845
0
LINE
8
BLACK
6
CONTINUOUS
10
179.928
20
-82.3845
11
179.835
21
-82.5583
0
LINE
8
BLACK
6
CONTINUOUS
10
179.835
20
-82.5583
11
179.711
21
-82.7105
0
LINE
8
BLACK
6
CONTINUOUS
10
179.711
20
-82.7105
11
179.672
21
-82.7418
0
LINE
8
BLACK
6
CONTINUOUS
10
179.672
20
-82.7418
11
177.742
21
-84.6724
0
LINE
8
BLACK
6
CONTINUOUS
10
177.742
20
-84.6724
11
177.711
21
-84.7105
0
LINE
8
BLACK
6
CONTINUOUS
10
177.711
20
-84.7105
11
177.558
21
-84.8355
0
LINE
8
BLACK
6
CONTINUOUS
10
177.558
20
-84.8355
11
177.385
21
-84.9283
0
LINE
8
BLACK
6
CONTINUOUS
10
177.385
20
-84.9283
11
177.196
21
-84.9855
0
LINE
8
BLACK
6
CONTINUOUS
10
177.196
20
-84.9855
11
177.196
21
-84.9855
0
LINE
8
BLACK
6
CONTINUOUS
10
177.196
20
-84.9855
11
177.134
21
-84.9917
0
LINE
8
BLACK
6
CONTINUOUS
10
177.134
20
-84.9917
11
177.049
21
-85
0
LINE
8
BLACK
6
CONTINUOUS
10
177.049
20
-85
11
177
21
-85.0048
0
LINE
8
BLACK
6
CONTINUOUS
10
177
20
-85.0048
11
176.951
21
-85
0
LINE
8
BLACK
6
CONTINUOUS
10
176.951
20
-85
11
160.969
21
-85
0
LINE
8
BLACK
6
CONTINUOUS
10
160.969
20
-85
11
160.92
21
-85.0048
0
LINE
8
BLACK
6
CONTINUOUS
10
160.92
20
-85.0048
11
160.871
21
-85
0
LINE
8
BLACK
6
CONTINUOUS
10
160.871
20
-85
11
160.871
21
-85
0
LINE
8
BLACK
6
CONTINUOUS
10
160.871
20
-85
11
160.724
21
-84.9855
0
LINE
8
BLACK
6
CONTINUOUS
10
160.724
20
-84.9855
11
160.535
21
-84.9283
0
LINE
8
BLACK
6
CONTINUOUS
10
160.535
20
-84.9283
11
160.362
21
-84.8355
0
LINE
8
BLACK
6
CONTINUOUS
10
160.362
20
-84.8355
11
160.209
21
-84.7105
0
LINE
8
BLACK
6
CONTINUOUS
10
160.209
20
-84.7105
11
160.178
21
-84.6724
0
LINE
8
BLACK
6
CONTINUOUS
10
160.178
20
-84.6724
11
159.788
21
-84.2818
0
LINE
8
BLACK
6
CONTINUOUS
10
159.788
20
-84.2818
11
159.749
21
-84.2505
0
LINE
8
BLACK
6
CONTINUOUS
10
159.749
20
-84.2505
11
159.625
21
-84.0983
0
LINE
8
BLACK
6
CONTINUOUS
10
159.625
20
-84.0983
11
159.572
21
-84
0
LINE
8
BLACK
6
CONTINUOUS
10
159.572
20
-84
11
159.532
21
-83.9245
0
LINE
8
BLACK
6
CONTINUOUS
10
159.532
20
-83.9245
11
159.474
21
-83.736
0
LINE
8
BLACK
6
CONTINUOUS
10
159.474
20
-83.736
11
159.455
21
-83.54
0
LINE
8
BLACK
6
CONTINUOUS
10
159.455
20
-83.54
11
159.46
21
-83.4909
0
LINE
8
BLACK
6
CONTINUOUS
10
159.46
20
-83.4909
11
159.46
21
-78.4909
0
LINE
8
BLACK
6
CONTINUOUS
10
159.46
20
-78.4909
11
159.474
21
-78.344
0
LINE
8
BLACK
6
CONTINUOUS
10
159.474
20
-78.344
11
159.532
21
-78.1555
0
LINE
8
BLACK
6
CONTINUOUS
10
159.532
20
-78.1555
11
159.625
21
-77.9817
0
LINE
8
BLACK
6
CONTINUOUS
10
159.625
20
-77.9817
11
159.749
21
-77.8295
0
LINE
8
BLACK
6
CONTINUOUS
10
159.749
20
-77.8295
11
159.902
21
-77.7045
0
LINE
8
BLACK
6
CONTINUOUS
10
159.902
20
-77.7045
11
160.075
21
-77.6117
0
LINE
8
BLACK
6
CONTINUOUS
10
160.075
20
-77.6117
11
160.264
21
-77.5545
0
LINE
8
BLACK
6
CONTINUOUS
10
160.264
20
-77.5545
11
160.46
21
-77.5352
0
LINE
8
BLACK
6
CONTINUOUS
10
160.46
20
-77.5352
11
160.656
21
-77.5545
0
LINE
8
BLACK
6
CONTINUOUS
10
160.656
20
-77.5545
11
160.845
21
-77.6117
0
LINE
8
BLACK
6
CONTINUOUS
10
160.845
20
-77.6117
11
161.018
21
-77.7045
0
LINE
8
BLACK
6
CONTINUOUS
10
161.018
20
-77.7045
11
161.171
21
-77.8295
0
LINE
8
BLACK
6
CONTINUOUS
10
161.171
20
-77.8295
11
161.295
21
-77.9817
0
LINE
8
BLACK
6
CONTINUOUS
10
161.295
20
-77.9817
11
161.388
21
-78.1555
0
LINE
8
BLACK
6
CONTINUOUS
10
161.388
20
-78.1555
11
161.446
21
-78.344
0
LINE
8
BLACK
6
CONTINUOUS
10
161.446
20
-78.344
11
161.46
21
-78.4909
0
LINE
8
BLACK
6
CONTINUOUS
10
161.46
20
-78.4909
11
161.46
21
-83
0
LINE
8
BLACK
6
CONTINUOUS
10
161.46
20
-83
11
176.586
21
-83
0
LINE
8
BLACK
6
CONTINUOUS
10
176.586
20
-83
11
178
21
-81.5858
0
LINE
8
BLACK
6
CONTINUOUS
10
178
20
-81.5858
11
178
21
-69.4142
0
LINE
8
BLACK
6
CONTINUOUS
10
178
20
-69.4142
11
174.868
21
-66.2818
0
LINE
8
BLACK
6
CONTINUOUS
10
174.868
20
-66.2818
11
174.829
21
-66.2505
0
LINE
8
BLACK
6
CONTINUOUS
10
174.829
20
-66.2505
11
174.705
21
-66.0983
0
LINE
8
BLACK
6
CONTINUOUS
10
174.705
20
-66.0983
11
174.612
21
-65.9245
0
LINE
8
BLACK
6
CONTINUOUS
10
174.612
20
-65.9245
11
174.559
21
-65.7495
0
LINE
8
BLACK
6
CONTINUOUS
10
174.559
20
-65.7495
11
174.554
21
-65.736
0
LINE
8
BLACK
6
CONTINUOUS
10
174.554
20
-65.736
11
174.535
21
-65.54
0
LINE
8
BLACK
6
CONTINUOUS
10
174.535
20
-65.54
11
174.54
21
-65.4909
0
LINE
8
BLACK
6
CONTINUOUS
10
174.54
20
-65.4909
11
174.54
21
-62.0491
0
LINE
8
BLACK
6
CONTINUOUS
10
174.54
20
-62.0491
11
174.535
21
-62
0
LINE
8
BLACK
6
CONTINUOUS
10
174.535
20
-62
11
174.554
21
-61.804
0
LINE
8
BLACK
6
CONTINUOUS
10
174.554
20
-61.804
11
174.612
21
-61.6155
0
LINE
8
BLACK
6
CONTINUOUS
10
174.612
20
-61.6155
11
174.67
21
-61.5063
0
LINE
8
BLACK
6
CONTINUOUS
10
174.67
20
-61.5063
11
174.67
21
-61.155
0
LINE
8
BLACK
6
CONTINUOUS
10
174.67
20
-61.155
11
174.675
21
-61.1062
0
LINE
8
BLACK
6
CONTINUOUS
10
174.675
20
-61.1062
11
174.689
21
-61.0593
0
LINE
8
BLACK
6
CONTINUOUS
10
174.689
20
-61.0593
11
174.712
21
-61.0161
0
LINE
8
BLACK
6
CONTINUOUS
10
174.712
20
-61.0161
11
174.743
21
-60.9782
0
LINE
8
BLACK
6
CONTINUOUS
10
174.743
20
-60.9782
11
174.781
21
-60.9471
0
LINE
8
BLACK
6
CONTINUOUS
10
174.781
20
-60.9471
11
174.824
21
-60.924
0
LINE
8
BLACK
6
CONTINUOUS
10
174.824
20
-60.924
11
174.871
21
-60.9098
0
LINE
8
BLACK
6
CONTINUOUS
10
174.871
20
-60.9098
11
174.92
21
-60.905
0
LINE
8
BLACK
6
CONTINUOUS
10
174.92
20
-60.905
11
176.16
21
-60.905
0
LINE
8
BLACK
6
CONTINUOUS
10
176.16
20
-60.905
11
176.209
21
-60.9098
0
LINE
8
BLACK
6
CONTINUOUS
10
173.673
20
-60.259
11
173.711
21
-60.2895
0
LINE
8
BLACK
6
CONTINUOUS
10
173.711
20
-60.2895
11
173.835
21
-60.4417
0
LINE
8
BLACK
6
CONTINUOUS
10
173.835
20
-60.4417
11
173.928
21
-60.6155
0
LINE
8
BLACK
6
CONTINUOUS
10
173.928
20
-60.6155
11
173.986
21
-60.804
0
LINE
8
BLACK
6
CONTINUOUS
10
173.986
20
-60.804
11
173.995
21
-60.905
0
LINE
8
BLACK
6
CONTINUOUS
10
173.995
20
-60.905
11
174.005
21
-61
0
LINE
8
BLACK
6
CONTINUOUS
10
174.005
20
-61
11
174
21
-61.0491
0
LINE
8
BLACK
6
CONTINUOUS
10
174
20
-61.0491
11
174
21
-62.0491
0
LINE
8
BLACK
6
CONTINUOUS
10
174
20
-62.0491
11
173.986
21
-62.196
0
LINE
8
BLACK
6
CONTINUOUS
10
173.986
20
-62.196
11
173.928
21
-62.3845
0
LINE
8
BLACK
6
CONTINUOUS
10
173.928
20
-62.3845
11
173.835
21
-62.5583
0
LINE
8
BLACK
6
CONTINUOUS
10
173.835
20
-62.5583
11
173.758
21
-62.6531
0
LINE
8
BLACK
6
CONTINUOUS
10
173.758
20
-62.6531
11
173.727
21
-62.7107
0
LINE
8
BLACK
6
CONTINUOUS
10
173.727
20
-62.7107
11
173.618
21
-62.8432
0
LINE
8
BLACK
6
CONTINUOUS
10
173.618
20
-62.8432
11
173.486
21
-62.9519
0
LINE
8
BLACK
6
CONTINUOUS
10
173.486
20
-62.9519
11
173.335
21
-63.0327
0
LINE
8
BLACK
6
CONTINUOUS
10
173.335
20
-63.0327
11
173.171
21
-63.0824
0
LINE
8
BLACK
6
CONTINUOUS
10
173.171
20
-63.0824
11
173
21
-63.0992
0
LINE
8
BLACK
6
CONTINUOUS
10
173
20
-63.0992
11
172.829
21
-63.0824
0
LINE
8
BLACK
6
CONTINUOUS
10
172.829
20
-63.0824
11
172.665
21
-63.0327
0
LINE
8
BLACK
6
CONTINUOUS
10
172.665
20
-63.0327
11
172.514
21
-62.9519
0
LINE
8
BLACK
6
CONTINUOUS
10
172.514
20
-62.9519
11
172.382
21
-62.8432
0
LINE
8
BLACK
6
CONTINUOUS
10
172.382
20
-62.8432
11
172.273
21
-62.7107
0
LINE
8
BLACK
6
CONTINUOUS
10
172.273
20
-62.7107
11
172.242
21
-62.6531
0
LINE
8
BLACK
6
CONTINUOUS
10
172.242
20
-62.6531
11
172.165
21
-62.5583
0
LINE
8
BLACK
6
CONTINUOUS
10
172.165
20
-62.5583
11
172.072
21
-62.3845
0
LINE
8
BLACK
6
CONTINUOUS
10
172.072
20
-62.3845
11
172.014
21
-62.196
0
LINE
8
BLACK
6
CONTINUOUS
10
172.014
20
-62.196
11
172
21
-62.0491
0
LINE
8
BLACK
6
CONTINUOUS
10
172
20
-62.0491
11
172
21
-61.4142
0
LINE
8
BLACK
6
CONTINUOUS
10
172
20
-61.4142
11
170.836
21
-60.25
0
LINE
8
BLACK
6
CONTINUOUS
10
170.836
20
-60.25
11
166
21
-60.25
0
LINE
8
BLACK
6
CONTINUOUS
10
166
20
-60.25
11
166
21
-60.9509
0
LINE
8
BLACK
6
CONTINUOUS
10
166
20
-60.9509
11
166.005
21
-61
0
LINE
8
BLACK
6
CONTINUOUS
10
166.005
20
-61
11
166
21
-61.0491
0
LINE
8
BLACK
6
CONTINUOUS
10
166
20
-61.0491
11
166
21
-62.0491
0
LINE
8
BLACK
6
CONTINUOUS
10
166
20
-62.0491
11
165.986
21
-62.196
0
LINE
8
BLACK
6
CONTINUOUS
10
165.986
20
-62.196
11
165.928
21
-62.3845
0
LINE
8
BLACK
6
CONTINUOUS
10
165.928
20
-62.3845
11
165.835
21
-62.5583
0
LINE
8
BLACK
6
CONTINUOUS
10
165.835
20
-62.5583
11
165.758
21
-62.6531
0
LINE
8
BLACK
6
CONTINUOUS
10
165.758
20
-62.6531
11
165.727
21
-62.7107
0
LINE
8
BLACK
6
CONTINUOUS
10
165.727
20
-62.7107
11
165.618
21
-62.8432
0
LINE
8
BLACK
6
CONTINUOUS
10
165.618
20
-62.8432
11
165.486
21
-62.9519
0
LINE
8
BLACK
6
CONTINUOUS
10
165.486
20
-62.9519
11
165.335
21
-63.0327
0
LINE
8
BLACK
6
CONTINUOUS
10
165.335
20
-63.0327
11
165.171
21
-63.0824
0
LINE
8
BLACK
6
CONTINUOUS
10
165.171
20
-63.0824
11
165
21
-63.0992
0
LINE
8
BLACK
6
CONTINUOUS
10
165
20
-63.0992
11
164.829
21
-63.0824
0
LINE
8
BLACK
6
CONTINUOUS
10
164.829
20
-63.0824
11
164.665
21
-63.0327
0
LINE
8
BLACK
6
CONTINUOUS
10
164.665
20
-63.0327
11
164.514
21
-62.9519
0
LINE
8
BLACK
6
CONTINUOUS
10
164.514
20
-62.9519
11
164.382
21
-62.8432
0
LINE
8
BLACK
6
CONTINUOUS
10
164.382
20
-62.8432
11
164.273
21
-62.7107
0
LINE
8
BLACK
6
CONTINUOUS
10
164.273
20
-62.7107
11
164.242
21
-62.6531
0
LINE
8
BLACK
6
CONTINUOUS
10
164.242
20
-62.6531
11
164.165
21
-62.5583
0
LINE
8
BLACK
6
CONTINUOUS
10
164.165
20
-62.5583
11
164.072
21
-62.3845
0
LINE
8
BLACK
6
CONTINUOUS
10
164.072
20
-62.3845
11
164.014
21
-62.196
0
LINE
8
BLACK
6
CONTINUOUS
10
164.014
20
-62.196
11
164
21
-62.0491
0
LINE
8
BLACK
6
CONTINUOUS
10
164
20
-62.0491
11
164
21
-61.4142
0
LINE
8
BLACK
6
CONTINUOUS
10
164
20
-61.4142
11
162.836
21
-60.25
0
LINE
8
BLACK
6
CONTINUOUS
10
162.836
20
-60.25
11
158
21
-60.25
0
LINE
8
BLACK
6
CONTINUOUS
10
158
20
-60.25
11
158
21
-60.9509
0
LINE
8
BLACK
6
CONTINUOUS
10
158
20
-60.9509
11
158.005
21
-61
0
LINE
8
BLACK
6
CONTINUOUS
10
158.005
20
-61
11
158
21
-61.0491
0
LINE
8
BLACK
6
CONTINUOUS
10
158
20
-61.0491
11
158
21
-62.0491
0
LINE
8
BLACK
6
CONTINUOUS
10
158
20
-62.0491
11
157.986
21
-62.196
0
LINE
8
BLACK
6
CONTINUOUS
10
157.986
20
-62.196
11
157.928
21
-62.3845
0
LINE
8
BLACK
6
CONTINUOUS
10
157.928
20
-62.3845
11
157.835
21
-62.5583
0
LINE
8
BLACK
6
CONTINUOUS
10
157.835
20
-62.5583
11
157.758
21
-62.6531
0
LINE
8
BLACK
6
CONTINUOUS
10
157.758
20
-62.6531
11
157.727
21
-62.7107
0
LINE
8
BLACK
6
CONTINUOUS
10
157.727
20
-62.7107
11
157.618
21
-62.8432
0
LINE
8
BLACK
6
CONTINUOUS
10
157.618
20
-62.8432
11
157.486
21
-62.9519
0
LINE
8
BLACK
6
CONTINUOUS
10
157.486
20
-62.9519
11
157.335
21
-63.0327
0
LINE
8
BLACK
6
CONTINUOUS
10
157.335
20
-63.0327
11
157.171
21
-63.0824
0
LINE
8
BLACK
6
CONTINUOUS
10
157.171
20
-63.0824
11
157
21
-63.0992
0
LINE
8
BLACK
6
CONTINUOUS
10
157
20
-63.0992
11
156.829
21
-63.0824
0
LINE
8
BLACK
6
CONTINUOUS
10
156.829
20
-63.0824
11
156.665
21
-63.0327
0
LINE
8
BLACK
6
CONTINUOUS
10
156.665
20
-63.0327
11
156.514
21
-62.9519
0
LINE
8
BLACK
6
CONTINUOUS
10
156.514
20
-62.9519
11
156.382
21
-62.8432
0
LINE
8
BLACK
6
CONTINUOUS
10
156.382
20
-62.8432
11
156.273
21
-62.7107
0
LINE
8
BLACK
6
CONTINUOUS
10
156.273
20
-62.7107
11
156.242
21
-62.6531
0
LINE
8
BLACK
6
CONTINUOUS
10
156.242
20
-62.6531
11
156.165
21
-62.5583
0
LINE
8
BLACK
6
CONTINUOUS
10
156.165
20
-62.5583
11
156.072
21
-62.3845
0
LINE
8
BLACK
6
CONTINUOUS
10
156.072
20
-62.3845
11
156.014
21
-62.196
0
LINE
8
BLACK
6
CONTINUOUS
10
156.014
20
-62.196
11
156
21
-62.0491
0
LINE
8
BLACK
6
CONTINUOUS
10
156
20
-62.0491
11
156
21
-61.4142
0
LINE
8
BLACK
6
CONTINUOUS
10
156
20
-61.4142
11
154.836
21
-60.25
0
LINE
8
BLACK
6
CONTINUOUS
10
154.836
20
-60.25
11
149.46
21
-60.25
0
LINE
8
BLACK
6
CONTINUOUS
10
149.46
20
-60.25
11
149.46
21
-60.4109
0
LINE
8
BLACK
6
CONTINUOUS
10
149.46
20
-60.4109
11
149.465
21
-60.46
0
LINE
8
BLACK
6
CONTINUOUS
10
149.465
20
-60.46
11
149.46
21
-60.5091
0
LINE
8
BLACK
6
CONTINUOUS
10
149.46
20
-60.5091
11
149.46
21
-62.0491
0
LINE
8
BLACK
6
CONTINUOUS
10
149.46
20
-62.0491
11
149.446
21
-62.196
0
LINE
8
BLACK
6
CONTINUOUS
10
149.446
20
-62.196
11
149.388
21
-62.3845
0
LINE
8
BLACK
6
CONTINUOUS
10
149.388
20
-62.3845
11
149.295
21
-62.5583
0
LINE
8
BLACK
6
CONTINUOUS
10
149.295
20
-62.5583
11
149.218
21
-62.6531
0
LINE
8
BLACK
6
CONTINUOUS
10
149.218
20
-62.6531
11
149.187
21
-62.7107
0
LINE
8
BLACK
6
CONTINUOUS
10
149.187
20
-62.7107
11
149.078
21
-62.8432
0
LINE
8
BLACK
6
CONTINUOUS
10
149.078
20
-62.8432
11
148.946
21
-62.9519
0
LINE
8
BLACK
6
CONTINUOUS
10
148.946
20
-62.9519
11
148.795
21
-63.0327
0
LINE
8
BLACK
6
CONTINUOUS
10
148.795
20
-63.0327
11
148.631
21
-63.0824
0
LINE
8
BLACK
6
CONTINUOUS
10
148.631
20
-63.0824
11
148.46
21
-63.0992
0
LINE
8
BLACK
6
CONTINUOUS
10
148.46
20
-63.0992
11
148.289
21
-63.0824
0
LINE
8
BLACK
6
CONTINUOUS
10
148.289
20
-63.0824
11
148.125
21
-63.0327
0
LINE
8
BLACK
6
CONTINUOUS
10
148.125
20
-63.0327
11
147.974
21
-62.9519
0
LINE
8
BLACK
6
CONTINUOUS
10
147.974
20
-62.9519
11
147.842
21
-62.8432
0
LINE
8
BLACK
6
CONTINUOUS
10
147.842
20
-62.8432
11
147.733
21
-62.7107
0
LINE
8
BLACK
6
CONTINUOUS
10
147.733
20
-62.7107
11
147.702
21
-62.6531
0
LINE
8
BLACK
6
CONTINUOUS
10
147.702
20
-62.6531
11
147.625
21
-62.5583
0
LINE
8
BLACK
6
CONTINUOUS
10
147.625
20
-62.5583
11
147.532
21
-62.3845
0
LINE
8
BLACK
6
CONTINUOUS
10
147.532
20
-62.3845
11
147.474
21
-62.196
0
LINE
8
BLACK
6
CONTINUOUS
10
147.474
20
-62.196
11
147.46
21
-62.0491
0
LINE
8
BLACK
6
CONTINUOUS
10
147.46
20
-62.0491
11
147.46
21
-60.8742
0
LINE
8
BLACK
6
CONTINUOUS
10
147.46
20
-60.8742
11
146.836
21
-60.25
0
LINE
8
BLACK
6
CONTINUOUS
10
146.836
20
-60.25
11
141.46
21
-60.25
0
LINE
8
BLACK
6
CONTINUOUS
10
141.46
20
-60.25
11
141.46
21
-60.4109
0
LINE
8
BLACK
6
CONTINUOUS
10
141.46
20
-60.4109
11
141.465
21
-60.46
0
LINE
8
BLACK
6
CONTINUOUS
10
141.465
20
-60.46
11
141.46
21
-60.5091
0
LINE
8
BLACK
6
CONTINUOUS
10
141.46
20
-60.5091
11
141.46
21
-62.0491
0
LINE
8
BLACK
6
CONTINUOUS
10
141.46
20
-62.0491
11
141.446
21
-62.196
0
LINE
8
BLACK
6
CONTINUOUS
10
141.446
20
-62.196
11
141.388
21
-62.3845
0
LINE
8
BLACK
6
CONTINUOUS
10
141.388
20
-62.3845
11
141.295
21
-62.5583
0
LINE
8
BLACK
6
CONTINUOUS
10
141.295
20
-62.5583
11
141.218
21
-62.6531
0
LINE
8
BLACK
6
CONTINUOUS
10
141.218
20
-62.6531
11
141.187
21
-62.7107
0
LINE
8
BLACK
6
CONTINUOUS
10
141.187
20
-62.7107
11
141.078
21
-62.8432
0
LINE
8
BLACK
6
CONTINUOUS
10
141.078
20
-62.8432
11
140.946
21
-62.9519
0
LINE
8
BLACK
6
CONTINUOUS
10
140.946
20
-62.9519
11
140.795
21
-63.0327
0
LINE
8
BLACK
6
CONTINUOUS
10
140.795
20
-63.0327
11
140.631
21
-63.0824
0
LINE
8
BLACK
6
CONTINUOUS
10
140.631
20
-63.0824
11
140.46
21
-63.0992
0
LINE
8
BLACK
6
CONTINUOUS
10
140.46
20
-63.0992
11
140.289
21
-63.0824
0
LINE
8
BLACK
6
CONTINUOUS
10
140.289
20
-63.0824
11
140.125
21
-63.0327
0
LINE
8
BLACK
6
CONTINUOUS
10
140.125
20
-63.0327
11
139.974
21
-62.9519
0
LINE
8
BLACK
6
CONTINUOUS
10
139.974
20
-62.9519
11
139.842
21
-62.8432
0
LINE
8
BLACK
6
CONTINUOUS
10
139.842
20
-62.8432
11
139.733
21
-62.7107
0
LINE
8
BLACK
6
CONTINUOUS
10
139.733
20
-62.7107
11
139.702
21
-62.6531
0
LINE
8
BLACK
6
CONTINUOUS
10
139.702
20
-62.6531
11
139.625
21
-62.5583
0
LINE
8
BLACK
6
CONTINUOUS
10
139.625
20
-62.5583
11
139.532
21
-62.3845
0
LINE
8
BLACK
6
CONTINUOUS
10
139.532
20
-62.3845
11
139.474
21
-62.196
0
LINE
8
BLACK
6
CONTINUOUS
10
139.474
20
-62.196
11
139.46
21
-62.0491
0
LINE
8
BLACK
6
CONTINUOUS
10
139.46
20
-62.0491
11
139.46
21
-60.8742
0
LINE
8
BLACK
6
CONTINUOUS
10
139.46
20
-60.8742
11
138.836
21
-60.25
0
LINE
8
BLACK
6
CONTINUOUS
10
138.836
20
-60.25
11
134.164
21
-60.25
0
LINE
8
BLACK
6
CONTINUOUS
10
134.164
20
-60.25
11
133.742
21
-60.6724
0
LINE
8
BLACK
6
CONTINUOUS
10
133.742
20
-60.6724
11
133.742
21
-60.6724
0
LINE
8
BLACK
6
CONTINUOUS
10
133.742
20
-60.6724
11
133.408
21
-61.0065
0
LINE
8
BLACK
6
CONTINUOUS
10
133.408
20
-61.0065
11
133.486
21
-61.0481
0
LINE
8
BLACK
6
CONTINUOUS
10
133.486
20
-61.0481
11
133.618
21
-61.1568
0
LINE
8
BLACK
6
CONTINUOUS
10
133.618
20
-61.1568
11
133.727
21
-61.2893
0
LINE
8
BLACK
6
CONTINUOUS
10
133.727
20
-61.2893
11
133.758
21
-61.3469
0
LINE
8
BLACK
6
CONTINUOUS
10
133.758
20
-61.3469
11
133.835
21
-61.4417
0
LINE
8
BLACK
6
CONTINUOUS
10
133.835
20
-61.4417
11
133.928
21
-61.6155
0
LINE
8
BLACK
6
CONTINUOUS
10
133.928
20
-61.6155
11
133.986
21
-61.804
0
LINE
8
BLACK
6
CONTINUOUS
10
133.986
20
-61.804
11
134.005
21
-62
0
LINE
8
BLACK
6
CONTINUOUS
10
134.005
20
-62
11
134
21
-62.0491
0
LINE
8
BLACK
6
CONTINUOUS
10
134
20
-62.0491
11
134
21
-63.9509
0
LINE
8
BLACK
6
CONTINUOUS
10
134
20
-63.9509
11
134.005
21
-64
0
LINE
8
BLACK
6
CONTINUOUS
10
134.005
20
-64
11
134
21
-64.0491
0
LINE
8
BLACK
6
CONTINUOUS
10
134
20
-64.0491
11
134
21
-76.5858
0
LINE
8
BLACK
6
CONTINUOUS
10
134
20
-76.5858
11
139.414
21
-82
0
LINE
8
BLACK
6
CONTINUOUS
10
139.414
20
-82
11
150.995
21
-82
0
LINE
8
BLACK
6
CONTINUOUS
10
150.995
20
-82
11
151
21
-81.9509
0
LINE
8
BLACK
6
CONTINUOUS
10
151
20
-81.9509
11
151
21
-76.0491
0
LINE
8
BLACK
6
CONTINUOUS
10
151
20
-76.0491
11
150.995
21
-76
0
LINE
8
BLACK
6
CONTINUOUS
10
150.995
20
-76
11
151.014
21
-75.804
0
LINE
8
BLACK
6
CONTINUOUS
10
151.014
20
-75.804
11
151.072
21
-75.6155
0
LINE
8
BLACK
6
CONTINUOUS
10
151.072
20
-75.6155
11
151.165
21
-75.4417
0
LINE
8
BLACK
6
CONTINUOUS
10
151.165
20
-75.4417
11
151.289
21
-75.2895
0
LINE
8
BLACK
6
CONTINUOUS
10
151.289
20
-75.2895
11
151.442
21
-75.1645
0
LINE
8
BLACK
6
CONTINUOUS
10
151.442
20
-75.1645
11
151.615
21
-75.0717
0
LINE
8
BLACK
6
CONTINUOUS
10
151.615
20
-75.0717
11
151.804
21
-75.0145
0
LINE
8
BLACK
6
CONTINUOUS
10
151.804
20
-75.0145
11
151.951
21
-75
0
LINE
8
BLACK
6
CONTINUOUS
10
151.951
20
-75
11
152
21
-74.9952
0
LINE
8
BLACK
6
CONTINUOUS
10
152
20
-74.9952
11
152.049
21
-75
0
LINE
8
BLACK
6
CONTINUOUS
10
152.049
20
-75
11
152.791
21
-75
0
LINE
8
BLACK
6
CONTINUOUS
10
152.791
20
-75
11
152.84
21
-74.9952
0
LINE
8
BLACK
6
CONTINUOUS
10
152.84
20
-74.9952
11
152.889
21
-75
0
LINE
8
BLACK
6
CONTINUOUS
10
152.889
20
-75
11
153.036
21
-75.0145
0
LINE
8
BLACK
6
CONTINUOUS
10
153.036
20
-75.0145
11
153.225
21
-75.0717
0
LINE
8
BLACK
6
CONTINUOUS
10
153.225
20
-75.0717
11
153.398
21
-75.1645
0
LINE
8
BLACK
6
CONTINUOUS
10
153.398
20
-75.1645
11
153.551
21
-75.2895
0
LINE
8
BLACK
6
CONTINUOUS
10
153.551
20
-75.2895
11
153.675
21
-75.4417
0
LINE
8
BLACK
6
CONTINUOUS
10
153.675
20
-75.4417
11
153.768
21
-75.6155
0
LINE
8
BLACK
6
CONTINUOUS
10
153.768
20
-75.6155
11
153.826
21
-75.804
0
LINE
8
BLACK
6
CONTINUOUS
10
153.826
20
-75.804
11
153.845
21
-76
0
LINE
8
BLACK
6
CONTINUOUS
10
153.845
20
-76
11
153.84
21
-76.0491
0
LINE
8
BLACK
6
CONTINUOUS
10
153.84
20
-76.0491
11
153.84
21
-77.54
0
LINE
8
BLACK
6
CONTINUOUS
10
153.84
20
-77.54
11
155.331
21
-77.54
0
LINE
8
BLACK
6
CONTINUOUS
10
155.331
20
-77.54
11
155.38
21
-77.5352
0
LINE
8
BLACK
6
CONTINUOUS
10
155.38
20
-77.5352
11
155.429
21
-77.54
0
LINE
8
BLACK
6
CONTINUOUS
10
155.429
20
-77.54
11
155.429
21
-77.54
0
LINE
8
BLACK
6
CONTINUOUS
10
155.429
20
-77.54
11
155.576
21
-77.5545
0
LINE
8
BLACK
6
CONTINUOUS
10
155.576
20
-77.5545
11
155.765
21
-77.6117
0
LINE
8
BLACK
6
CONTINUOUS
10
155.765
20
-77.6117
11
155.938
21
-77.7045
0
LINE
8
BLACK
6
CONTINUOUS
10
155.938
20
-77.7045
11
156.091
21
-77.8295
0
LINE
8
BLACK
6
CONTINUOUS
10
156.091
20
-77.8295
11
156.215
21
-77.9817
0
LINE
8
BLACK
6
CONTINUOUS
10
156.215
20
-77.9817
11
156.308
21
-78.1555
0
LINE
8
BLACK
6
CONTINUOUS
10
156.308
20
-78.1555
11
156.366
21
-78.344
0
LINE
8
BLACK
6
CONTINUOUS
10
156.366
20
-78.344
11
156.385
21
-78.54
0
LINE
8
BLACK
6
CONTINUOUS
10
156.385
20
-78.54
11
156.366
21
-78.736
0
LINE
8
BLACK
6
CONTINUOUS
10
156.366
20
-78.736
11
156.308
21
-78.9245
0
LINE
8
BLACK
6
CONTINUOUS
10
156.308
20
-78.9245
11
156.215
21
-79.0983
0
LINE
8
BLACK
6
CONTINUOUS
10
156.215
20
-79.0983
11
156.091
21
-79.2505
0
LINE
8
BLACK
6
CONTINUOUS
10
156.091
20
-79.2505
11
156.052
21
-79.2818
0
LINE
8
BLACK
6
CONTINUOUS
10
156.052
20
-79.2818
11
153.84
21
-81.4942
0
LINE
8
BLACK
6
CONTINUOUS
10
153.84
20
-81.4942
11
153.84
21
-82.1109
0
LINE
8
BLACK
6
CONTINUOUS
10
153.84
20
-82.1109
11
153.845
21
-82.16
0
LINE
8
BLACK
6
CONTINUOUS
10
153.845
20
-82.16
11
153.84
21
-82.2091
0
LINE
8
BLACK
6
CONTINUOUS
10
153.84
20
-82.2091
11
153.826
21
-82.356
0
LINE
8
BLACK
6
CONTINUOUS
10
153.826
20
-82.356
11
153.768
21
-82.5445
0
LINE
8
BLACK
6
CONTINUOUS
10
153.768
20
-82.5445
11
153.675
21
-82.7183
0
LINE
8
BLACK
6
CONTINUOUS
10
153.675
20
-82.7183
11
153.551
21
-82.8705
0
LINE
8
BLACK
6
CONTINUOUS
10
153.551
20
-82.8705
11
153.512
21
-82.9018
0
LINE
8
BLACK
6
CONTINUOUS
10
153.512
20
-82.9018
11
153.242
21
-83.1724
0
LINE
8
BLACK
6
CONTINUOUS
10
153.242
20
-83.1724
11
153.242
21
-83.1724
0
LINE
8
BLACK
6
CONTINUOUS
10
153.242
20
-83.1724
11
153.242
21
-83.1724
0
LINE
8
BLACK
6
CONTINUOUS
10
153.242
20
-83.1724
11
153.211
21
-83.2105
0
LINE
8
BLACK
6
CONTINUOUS
10
153.211
20
-83.2105
11
153.172
21
-83.2418
0
LINE
8
BLACK
6
CONTINUOUS
10
153.172
20
-83.2418
11
152.742
21
-83.6724
0
LINE
8
BLACK
6
CONTINUOUS
10
152.742
20
-83.6724
11
152.711
21
-83.7105
0
LINE
8
BLACK
6
CONTINUOUS
10
152.711
20
-83.7105
11
152.558
21
-83.8355
0
LINE
8
BLACK
6
CONTINUOUS
10
152.558
20
-83.8355
11
152.385
21
-83.9283
0
LINE
8
BLACK
6
CONTINUOUS
10
152.385
20
-83.9283
11
152.196
21
-83.9855
0
LINE
8
BLACK
6
CONTINUOUS
10
152.196
20
-83.9855
11
152.049
21
-84
0
LINE
8
BLACK
6
CONTINUOUS
10
152.049
20
-84
11
152
21
-84.0048
0
LINE
8
BLACK
6
CONTINUOUS
10
152
20
-84.0048
11
151.951
21
-84
0
LINE
8
BLACK
6
CONTINUOUS
10
151.951
20
-84
11
139.049
21
-84
0
LINE
8
BLACK
6
CONTINUOUS
10
139.049
20
-84
11
139
21
-84.0048
0
LINE
8
BLACK
6
CONTINUOUS
10
139
20
-84.0048
11
138.951
21
-84
0
LINE
8
BLACK
6
CONTINUOUS
10
138.951
20
-84
11
138.951
21
-84
0
LINE
8
BLACK
6
CONTINUOUS
10
138.951
20
-84
11
138.804
21
-83.9855
0
LINE
8
BLACK
6
CONTINUOUS
10
138.804
20
-83.9855
11
138.615
21
-83.9283
0
LINE
8
BLACK
6
CONTINUOUS
10
138.615
20
-83.9283
11
138.442
21
-83.8355
0
LINE
8
BLACK
6
CONTINUOUS
10
138.442
20
-83.8355
11
138.289
21
-83.7105
0
LINE
8
BLACK
6
CONTINUOUS
10
138.289
20
-83.7105
11
138.258
21
-83.6724
0
LINE
8
BLACK
6
CONTINUOUS
10
138.258
20
-83.6724
11
132.328
21
-77.7418
0
LINE
8
BLACK
6
CONTINUOUS
10
132.328
20
-77.7418
11
132.289
21
-77.7105
0
LINE
8
BLACK
6
CONTINUOUS
10
132.289
20
-77.7105
11
132.165
21
-77.5583
0
LINE
8
BLACK
6
CONTINUOUS
10
132.165
20
-77.5583
11
132.072
21
-77.3845
0
LINE
8
BLACK
6
CONTINUOUS
10
132.072
20
-77.3845
11
132.014
21
-77.196
0
LINE
8
BLACK
6
CONTINUOUS
10
132.014
20
-77.196
11
132
21
-77.0491
0
LINE
8
BLACK
6
CONTINUOUS
10
132
20
-77.0491
11
131.995
21
-77
0
LINE
8
BLACK
6
CONTINUOUS
10
131.995
20
-77
11
132
21
-76.9509
0
LINE
8
BLACK
6
CONTINUOUS
10
132
20
-76.9509
11
132
21
-64.4142
0
LINE
8
BLACK
6
CONTINUOUS
10
132
20
-64.4142
11
131.328
21
-63.7418
0
LINE
8
BLACK
6
CONTINUOUS
10
131.328
20
-63.7418
11
131.289
21
-63.7105
0
LINE
8
BLACK
6
CONTINUOUS
10
131.289
20
-63.7105
11
131.165
21
-63.5583
0
LINE
8
BLACK
6
CONTINUOUS
10
131.165
20
-63.5583
11
131.072
21
-63.3845
0
LINE
8
BLACK
6
CONTINUOUS
10
131.072
20
-63.3845
11
131.072
21
-63.3845
0
LINE
8
BLACK
6
CONTINUOUS
10
131.072
20
-63.3845
11
131.014
21
-63.196
0
LINE
8
BLACK
6
CONTINUOUS
10
131.014
20
-63.196
11
130.995
21
-63
0
LINE
8
BLACK
6
CONTINUOUS
10
130.995
20
-63
11
131
21
-62.9509
0
LINE
8
BLACK
6
CONTINUOUS
10
131
20
-62.9509
11
131
21
-62.0491
0
LINE
8
BLACK
6
CONTINUOUS
10
131
20
-62.0491
11
130.995
21
-62
0
LINE
8
BLACK
6
CONTINUOUS
10
130.995
20
-62
11
131
21
-61.9509
0
LINE
8
BLACK
6
CONTINUOUS
10
131
20
-61.9509
11
131
21
-61.0491
0
LINE
8
BLACK
6
CONTINUOUS
10
131
20
-61.0491
11
130.995
21
-61
0
LINE
8
BLACK
6
CONTINUOUS
10
130.995
20
-61
11
131.014
21
-60.804
0
LINE
8
BLACK
6
CONTINUOUS
10
131.014
20
-60.804
11
131.072
21
-60.6155
0
LINE
8
BLACK
6
CONTINUOUS
10
131.072
20
-60.6155
11
131.138
21
-60.4909
0
LINE
8
BLACK
6
CONTINUOUS
10
131.138
20
-60.4909
11
131.165
21
-60.4417
0
LINE
8
BLACK
6
CONTINUOUS
10
131.165
20
-60.4417
11
131.289
21
-60.2895
0
LINE
8
BLACK
6
CONTINUOUS
10
131.289
20
-60.2895
11
131.328
21
-60.2582
0
LINE
8
BLACK
6
CONTINUOUS
10
131.328
20
-60.2582
11
132.328
21
-59.2582
0
LINE
8
BLACK
6
CONTINUOUS
10
132.328
20
-59.2582
11
132.328
21
-59.2582
0
LINE
8
BLACK
6
CONTINUOUS
10
132.328
20
-59.2582
11
132.761
21
-58.8246
0
LINE
8
BLACK
6
CONTINUOUS
10
132.761
20
-58.8246
11
132.768
21
-58.755
0
LINE
8
BLACK
6
CONTINUOUS
10
132.768
20
-58.755
11
132.84
21
-58.5193
0
LINE
8
BLACK
6
CONTINUOUS
10
132.84
20
-58.5193
11
132.956
21
-58.3022
0
LINE
8
BLACK
6
CONTINUOUS
10
132.956
20
-58.3022
11
133.112
21
-58.1118
0
LINE
8
BLACK
6
CONTINUOUS
10
133.112
20
-58.1118
11
133.302
21
-57.9556
0
LINE
8
BLACK
6
CONTINUOUS
10
133.302
20
-57.9556
11
133.519
21
-57.8396
0
LINE
8
BLACK
6
CONTINUOUS
10
133.519
20
-57.8396
11
133.755
21
-57.7681
0
LINE
8
BLACK
6
CONTINUOUS
10
133.755
20
-57.7681
11
133.939
21
-57.75
0
LINE
8
BLACK
6
CONTINUOUS
10
133.939
20
-57.75
11
180.061
21
-57.75
0
LINE
8
BLACK
6
CONTINUOUS
10
180.061
20
-57.75
11
180.245
21
-57.7681
0
LINE
8
BLACK
6
CONTINUOUS
10
180.245
20
-57.7681
11
180.481
21
-57.8396
0
LINE
8
BLACK
6
CONTINUOUS
10
180.481
20
-57.8396
11
180.698
21
-57.9556
0
LINE
8
BLACK
6
CONTINUOUS
10
180.698
20
-57.9556
11
180.888
21
-58.1118
0
LINE
8
BLACK
6
CONTINUOUS
10
180.888
20
-58.1118
11
181.044
21
-58.3022
0
LINE
8
BLACK
6
CONTINUOUS
10
181.044
20
-58.3022
11
181.16
21
-58.5193
0
LINE
8
BLACK
6
CONTINUOUS
10
181.16
20
-58.5193
11
181.232
21
-58.755
0
LINE
8
BLACK
6
CONTINUOUS
10
181.232
20
-58.755
11
181.239
21
-58.8246
0
LINE
8
BLACK
6
CONTINUOUS
10
181.239
20
-58.8246
11
181.672
21
-59.2582
0
LINE
8
BLACK
6
CONTINUOUS
10
181.672
20
-59.2582
11
181.711
21
-59.2895
0
LINE
8
BLACK
6
CONTINUOUS
10
181.711
20
-59.2895
11
181.742
21
-59.3276
0
LINE
8
BLACK
6
CONTINUOUS
10
181.742
20
-59.3276
11
181.835
21
-59.4417
0
LINE
8
BLACK
6
CONTINUOUS
10
181.835
20
-59.4417
11
181.928
21
-59.6155
0
LINE
8
BLACK
6
CONTINUOUS
10
181.928
20
-59.6155
11
181.986
21
-59.804
0
LINE
8
BLACK
6
CONTINUOUS
10
181.986
20
-59.804
11
182.005
21
-60
0
LINE
8
BLACK
6
CONTINUOUS
10
182.005
20
-60
11
182
21
-60.0491
0
LINE
8
BLACK
6
CONTINUOUS
10
182
20
-60.0491
11
182
21
-60.9509
0
LINE
8
BLACK
6
CONTINUOUS
10
182
20
-60.9509
11
182.005
21
-61
0
LINE
8
BLACK
6
CONTINUOUS
10
182.005
20
-61
11
182
21
-61.0491
0
LINE
8
BLACK
6
CONTINUOUS
10
182
20
-61.0491
11
182
21
-62.0491
0
LINE
8
BLACK
6
CONTINUOUS
10
182
20
-62.0491
11
181.986
21
-62.196
0
LINE
8
BLACK
6
CONTINUOUS
10
181.986
20
-62.196
11
181.928
21
-62.3845
0
LINE
8
BLACK
6
CONTINUOUS
10
181.928
20
-62.3845
11
181.835
21
-62.5583
0
LINE
8
BLACK
6
CONTINUOUS
10
181.835
20
-62.5583
11
181.758
21
-62.6531
0
LINE
8
BLACK
6
CONTINUOUS
10
181.758
20
-62.6531
11
181.727
21
-62.7107
0
LINE
8
BLACK
6
CONTINUOUS
10
181.727
20
-62.7107
11
181.618
21
-62.8432
0
LINE
8
BLACK
6
CONTINUOUS
10
181.618
20
-62.8432
11
181.486
21
-62.9519
0
LINE
8
BLACK
6
CONTINUOUS
10
181.486
20
-62.9519
11
181.335
21
-63.0327
0
LINE
8
BLACK
6
CONTINUOUS
10
181.335
20
-63.0327
11
181.171
21
-63.0824
0
LINE
8
BLACK
6
CONTINUOUS
10
181.171
20
-63.0824
11
181
21
-63.0992
0
LINE
8
BLACK
6
CONTINUOUS
10
181
20
-63.0992
11
180.829
21
-63.0824
0
LINE
8
BLACK
6
CONTINUOUS
10
180.829
20
-63.0824
11
180.665
21
-63.0327
0
LINE
8
BLACK
6
CONTINUOUS
10
180.665
20
-63.0327
11
180.514
21
-62.9519
0
LINE
8
BLACK
6
CONTINUOUS
10
180.514
20
-62.9519
11
180.382
21
-62.8432
0
LINE
8
BLACK
6
CONTINUOUS
10
180.382
20
-62.8432
11
180.273
21
-62.7107
0
LINE
8
BLACK
6
CONTINUOUS
10
180.273
20
-62.7107
11
180.242
21
-62.6531
0
LINE
8
BLACK
6
CONTINUOUS
10
180.242
20
-62.6531
11
180.165
21
-62.5583
0
LINE
8
BLACK
6
CONTINUOUS
10
180.165
20
-62.5583
11
180.072
21
-62.3845
0
LINE
8
BLACK
6
CONTINUOUS
10
180.072
20
-62.3845
11
180.014
21
-62.196
0
LINE
8
BLACK
6
CONTINUOUS
10
180.014
20
-62.196
11
180
21
-62.0491
0
LINE
8
BLACK
6
CONTINUOUS
10
180
20
-62.0491
11
180
21
-61.4142
0
LINE
8
BLACK
6
CONTINUOUS
10
180
20
-61.4142
11
178.836
21
-60.25
0
LINE
8
BLACK
6
CONTINUOUS
10
178.836
20
-60.25
11
173.703
21
-60.25
0
LINE
8
BLACK
6
CONTINUOUS
10
173.703
20
-60.25
11
173.673
21
-60.259
0
LINE
8
BLACK
6
CONTINUOUS
10
173.107
20
-73.1737
11
173.835
21
-73.4752
0
LINE
8
BLACK
6
CONTINUOUS
10
173.835
20
-73.4752
11
174.49
21
-73.913
0
LINE
8
BLACK
6
CONTINUOUS
10
174.49
20
-73.913
11
175.047
21
-74.4701
0
LINE
8
BLACK
6
CONTINUOUS
10
175.047
20
-74.4701
11
175.485
21
-75.1253
0
LINE
8
BLACK
6
CONTINUOUS
10
175.485
20
-75.1253
11
175.786
21
-75.8532
0
LINE
8
BLACK
6
CONTINUOUS
10
175.786
20
-75.8532
11
175.94
21
-76.626
0
LINE
8
BLACK
6
CONTINUOUS
10
175.94
20
-76.626
11
175.94
21
-77.414
0
LINE
8
BLACK
6
CONTINUOUS
10
175.94
20
-77.414
11
175.786
21
-78.1868
0
LINE
8
BLACK
6
CONTINUOUS
10
175.786
20
-78.1868
11
175.485
21
-78.9147
0
LINE
8
BLACK
6
CONTINUOUS
10
175.485
20
-78.9147
11
175.047
21
-79.5699
0
LINE
8
BLACK
6
CONTINUOUS
10
175.047
20
-79.5699
11
174.49
21
-80.127
0
LINE
8
BLACK
6
CONTINUOUS
10
174.49
20
-80.127
11
173.835
21
-80.5648
0
LINE
8
BLACK
6
CONTINUOUS
10
173.835
20
-80.5648
11
173.107
21
-80.8663
0
LINE
8
BLACK
6
CONTINUOUS
10
173.107
20
-80.8663
11
172.334
21
-81.02
0
LINE
8
BLACK
6
CONTINUOUS
10
172.334
20
-81.02
11
171.546
21
-81.02
0
LINE
8
BLACK
6
CONTINUOUS
10
171.546
20
-81.02
11
170.773
21
-80.8663
0
LINE
8
BLACK
6
CONTINUOUS
10
170.773
20
-80.8663
11
170.045
21
-80.5648
0
LINE
8
BLACK
6
CONTINUOUS
10
170.045
20
-80.5648
11
169.39
21
-80.127
0
LINE
8
BLACK
6
CONTINUOUS
10
169.39
20
-80.127
11
168.833
21
-79.5699
0
LINE
8
BLACK
6
CONTINUOUS
10
168.833
20
-79.5699
11
168.395
21
-78.9147
0
LINE
8
BLACK
6
CONTINUOUS
10
168.395
20
-78.9147
11
168.094
21
-78.1868
0
LINE
8
BLACK
6
CONTINUOUS
10
168.094
20
-78.1868
11
167.94
21
-77.414
0
LINE
8
BLACK
6
CONTINUOUS
10
167.94
20
-77.414
11
167.94
21
-76.626
0
LINE
8
BLACK
6
CONTINUOUS
10
167.94
20
-76.626
11
168.094
21
-75.8532
0
LINE
8
BLACK
6
CONTINUOUS
10
168.094
20
-75.8532
11
168.395
21
-75.1253
0
LINE
8
BLACK
6
CONTINUOUS
10
168.395
20
-75.1253
11
168.833
21
-74.4701
0
LINE
8
BLACK
6
CONTINUOUS
10
168.833
20
-74.4701
11
169.39
21
-73.913
0
LINE
8
BLACK
6
CONTINUOUS
10
169.39
20
-73.913
11
170.045
21
-73.4752
0
LINE
8
BLACK
6
CONTINUOUS
10
170.045
20
-73.4752
11
170.773
21
-73.1737
0
LINE
8
BLACK
6
CONTINUOUS
10
170.773
20
-73.1737
11
171.546
21
-73.02
0
LINE
8
BLACK
6
CONTINUOUS
10
171.546
20
-73.02
11
172.334
21
-73.02
0
LINE
8
BLACK
6
CONTINUOUS
10
172.334
20
-73.02
11
173.107
21
-73.1737
0
LINE
8
BLACK
6
CONTINUOUS
10
145.067
20
-73.1737
11
145.795
21
-73.4752
0
LINE
8
BLACK
6
CONTINUOUS
10
145.795
20
-73.4752
11
146.45
21
-73.913
0
LINE
8
BLACK
6
CONTINUOUS
10
146.45
20
-73.913
11
147.007
21
-74.4701
0
LINE
8
BLACK
6
CONTINUOUS
10
147.007
20
-74.4701
11
147.445
21
-75.1253
0
LINE
8
BLACK
6
CONTINUOUS
10
147.445
20
-75.1253
11
147.746
21
-75.8532
0
LINE
8
BLACK
6
CONTINUOUS
10
147.746
20
-75.8532
11
147.9
21
-76.626
0
LINE
8
BLACK
6
CONTINUOUS
10
147.9
20
-76.626
11
147.9
21
-77.414
0
LINE
8
BLACK
6
CONTINUOUS
10
147.9
20
-77.414
11
147.746
21
-78.1868
0
LINE
8
BLACK
6
CONTINUOUS
10
147.746
20
-78.1868
11
147.445
21
-78.9147
0
LINE
8
BLACK
6
CONTINUOUS
10
147.445
20
-78.9147
11
147.007
21
-79.5699
0
LINE
8
BLACK
6
CONTINUOUS
10
147.007
20
-79.5699
11
146.45
21
-80.127
0
LINE
8
BLACK
6
CONTINUOUS
10
146.45
20
-80.127
11
145.795
21
-80.5648
0
LINE
8
BLACK
6
CONTINUOUS
10
145.795
20
-80.5648
11
145.067
21
-80.8663
0
LINE
8
BLACK
6
CONTINUOUS
10
145.067
20
-80.8663
11
144.294
21
-81.02
0
LINE
8
BLACK
6
CONTINUOUS
10
144.294
20
-81.02
11
143.506
21
-81.02
0
LINE
8
BLACK
6
CONTINUOUS
10
143.506
20
-81.02
11
142.733
21
-80.8663
0
LINE
8
BLACK
6
CONTINUOUS
10
142.733
20
-80.8663
11
142.005
21
-80.5648
0
LINE
8
BLACK
6
CONTINUOUS
10
142.005
20
-80.5648
11
141.35
21
-80.127
0
LINE
8
BLACK
6
CONTINUOUS
10
141.35
20
-80.127
11
140.793
21
-79.5699
0
LINE
8
BLACK
6
CONTINUOUS
10
140.793
20
-79.5699
11
140.355
21
-78.9147
0
LINE
8
BLACK
6
CONTINUOUS
10
140.355
20
-78.9147
11
140.054
21
-78.1868
0
LINE
8
BLACK
6
CONTINUOUS
10
140.054
20
-78.1868
11
139.9
21
-77.414
0
LINE
8
BLACK
6
CONTINUOUS
10
139.9
20
-77.414
11
139.9
21
-76.626
0
LINE
8
BLACK
6
CONTINUOUS
10
139.9
20
-76.626
11
140.054
21
-75.8532
0
LINE
8
BLACK
6
CONTINUOUS
10
140.054
20
-75.8532
11
140.355
21
-75.1253
0
LINE
8
BLACK
6
CONTINUOUS
10
140.355
20
-75.1253
11
140.793
21
-74.4701
0
LINE
8
BLACK
6
CONTINUOUS
10
140.793
20
-74.4701
11
141.35
21
-73.913
0
LINE
8
BLACK
6
CONTINUOUS
10
141.35
20
-73.913
11
142.005
21
-73.4752
0
LINE
8
BLACK
6
CONTINUOUS
10
142.005
20
-73.4752
11
142.733
21
-73.1737
0
LINE
8
BLACK
6
CONTINUOUS
10
142.733
20
-73.1737
11
143.506
21
-73.02
0
LINE
8
BLACK
6
CONTINUOUS
10
143.506
20
-73.02
11
144.294
21
-73.02
0
LINE
8
BLACK
6
CONTINUOUS
10
144.294
20
-73.02
11
145.067
21
-73.1737
0
LINE
8
BLACK
6
CONTINUOUS
10
168.209
20
-60.9098
11
168.256
21
-60.924
0
LINE
8
BLACK
6
CONTINUOUS
10
168.256
20
-60.924
11
168.299
21
-60.9471
0
LINE
8
BLACK
6
CONTINUOUS
10
168.299
20
-60.9471
11
168.337
21
-60.9782
0
LINE
8
BLACK
6
CONTINUOUS
10
168.337
20
-60.9782
11
168.355
21
-61
0
LINE
8
BLACK
6
CONTINUOUS
10
168.355
20
-61
11
169.049
21
-61
0
LINE
8
BLACK
6
CONTINUOUS
10
169.049
20
-61
11
169.196
21
-61.0145
0
LINE
8
BLACK
6
CONTINUOUS
10
169.196
20
-61.0145
11
169.385
21
-61.0717
0
LINE
8
BLACK
6
CONTINUOUS
10
169.385
20
-61.0717
11
169.558
21
-61.1645
0
LINE
8
BLACK
6
CONTINUOUS
10
169.558
20
-61.1645
11
169.711
21
-61.2895
0
LINE
8
BLACK
6
CONTINUOUS
10
169.711
20
-61.2895
11
169.835
21
-61.4417
0
LINE
8
BLACK
6
CONTINUOUS
10
169.835
20
-61.4417
11
169.928
21
-61.6155
0
LINE
8
BLACK
6
CONTINUOUS
10
169.928
20
-61.6155
11
169.986
21
-61.804
0
LINE
8
BLACK
6
CONTINUOUS
10
169.986
20
-61.804
11
170.005
21
-62
0
LINE
8
BLACK
6
CONTINUOUS
10
170.005
20
-62
11
169.986
21
-62.196
0
LINE
8
BLACK
6
CONTINUOUS
10
169.986
20
-62.196
11
169.928
21
-62.3845
0
LINE
8
BLACK
6
CONTINUOUS
10
169.928
20
-62.3845
11
169.835
21
-62.5583
0
LINE
8
BLACK
6
CONTINUOUS
10
169.835
20
-62.5583
11
169.711
21
-62.7105
0
LINE
8
BLACK
6
CONTINUOUS
10
169.711
20
-62.7105
11
169.558
21
-62.8355
0
LINE
8
BLACK
6
CONTINUOUS
10
169.558
20
-62.8355
11
169.385
21
-62.9283
0
LINE
8
BLACK
6
CONTINUOUS
10
169.385
20
-62.9283
11
169.196
21
-62.9855
0
LINE
8
BLACK
6
CONTINUOUS
10
169.196
20
-62.9855
11
169.049
21
-63
0
LINE
8
BLACK
6
CONTINUOUS
10
169.049
20
-63
11
168.54
21
-63
0
LINE
8
BLACK
6
CONTINUOUS
10
168.54
20
-63
11
168.54
21
-66.4109
0
LINE
8
BLACK
6
CONTINUOUS
10
168.54
20
-66.4109
11
168.545
21
-66.46
0
LINE
8
BLACK
6
CONTINUOUS
10
168.545
20
-66.46
11
168.54
21
-66.5091
0
LINE
8
BLACK
6
CONTINUOUS
10
168.54
20
-66.5091
11
168.526
21
-66.656
0
LINE
8
BLACK
6
CONTINUOUS
10
168.526
20
-66.656
11
168.468
21
-66.8445
0
LINE
8
BLACK
6
CONTINUOUS
10
168.468
20
-66.8445
11
168.375
21
-67.0183
0
LINE
8
BLACK
6
CONTINUOUS
10
168.375
20
-67.0183
11
168.251
21
-67.1705
0
LINE
8
BLACK
6
CONTINUOUS
10
168.251
20
-67.1705
11
168.212
21
-67.2018
0
LINE
8
BLACK
6
CONTINUOUS
10
168.212
20
-67.2018
11
167
21
-68.4142
0
LINE
8
BLACK
6
CONTINUOUS
10
167
20
-68.4142
11
167
21
-79.0309
0
LINE
8
BLACK
6
CONTINUOUS
10
167
20
-79.0309
11
167.005
21
-79.08
0
LINE
8
BLACK
6
CONTINUOUS
10
167.005
20
-79.08
11
167
21
-79.1291
0
LINE
8
BLACK
6
CONTINUOUS
10
167
20
-79.1291
11
167
21
-79.1291
0
LINE
8
BLACK
6
CONTINUOUS
10
167
20
-79.1291
11
166.986
21
-79.276
0
LINE
8
BLACK
6
CONTINUOUS
10
166.986
20
-79.276
11
166.928
21
-79.4645
0
LINE
8
BLACK
6
CONTINUOUS
10
166.928
20
-79.4645
11
166.835
21
-79.6383
0
LINE
8
BLACK
6
CONTINUOUS
10
166.835
20
-79.6383
11
166.711
21
-79.7905
0
LINE
8
BLACK
6
CONTINUOUS
10
166.711
20
-79.7905
11
166.672
21
-79.8218
0
LINE
8
BLACK
6
CONTINUOUS
10
166.672
20
-79.8218
11
166.282
21
-80.2124
0
LINE
8
BLACK
6
CONTINUOUS
10
166.282
20
-80.2124
11
166.251
21
-80.2505
0
LINE
8
BLACK
6
CONTINUOUS
10
166.251
20
-80.2505
11
166.098
21
-80.3755
0
LINE
8
BLACK
6
CONTINUOUS
10
166.098
20
-80.3755
11
165.925
21
-80.4683
0
LINE
8
BLACK
6
CONTINUOUS
10
165.925
20
-80.4683
11
165.736
21
-80.5255
0
LINE
8
BLACK
6
CONTINUOUS
10
165.736
20
-80.5255
11
165.589
21
-80.54
0
LINE
8
BLACK
6
CONTINUOUS
10
165.589
20
-80.54
11
165.54
21
-80.5448
0
LINE
8
BLACK
6
CONTINUOUS
10
165.54
20
-80.5448
11
165.491
21
-80.54
0
LINE
8
BLACK
6
CONTINUOUS
10
165.491
20
-80.54
11
164.049
21
-80.54
0
LINE
8
BLACK
6
CONTINUOUS
10
164.049
20
-80.54
11
164
21
-80.5448
0
LINE
8
BLACK
6
CONTINUOUS
10
164
20
-80.5448
11
163.804
21
-80.5255
0
LINE
8
BLACK
6
CONTINUOUS
10
163.804
20
-80.5255
11
163.615
21
-80.4683
0
LINE
8
BLACK
6
CONTINUOUS
10
163.615
20
-80.4683
11
163.442
21
-80.3755
0
LINE
8
BLACK
6
CONTINUOUS
10
163.442
20
-80.3755
11
163.328
21
-80.2818
0
LINE
8
BLACK
6
CONTINUOUS
10
163.328
20
-80.2818
11
163.328
21
-80.2818
0
LINE
8
BLACK
6
CONTINUOUS
10
163.328
20
-80.2818
11
163.289
21
-80.2505
0
LINE
8
BLACK
6
CONTINUOUS
10
163.289
20
-80.2505
11
163.258
21
-80.2124
0
LINE
8
BLACK
6
CONTINUOUS
10
163.258
20
-80.2124
11
162.258
21
-79.2124
0
LINE
8
BLACK
6
CONTINUOUS
10
162.258
20
-79.2124
11
162.165
21
-79.0983
0
LINE
8
BLACK
6
CONTINUOUS
10
162.165
20
-79.0983
11
162.072
21
-78.9245
0
LINE
8
BLACK
6
CONTINUOUS
10
162.072
20
-78.9245
11
162.014
21
-78.736
0
LINE
8
BLACK
6
CONTINUOUS
10
162.014
20
-78.736
11
161.995
21
-78.54
0
LINE
8
BLACK
6
CONTINUOUS
10
161.995
20
-78.54
11
162.014
21
-78.344
0
LINE
8
BLACK
6
CONTINUOUS
10
162.014
20
-78.344
11
162.072
21
-78.1555
0
LINE
8
BLACK
6
CONTINUOUS
10
162.072
20
-78.1555
11
162.165
21
-77.9817
0
LINE
8
BLACK
6
CONTINUOUS
10
162.165
20
-77.9817
11
162.289
21
-77.8295
0
LINE
8
BLACK
6
CONTINUOUS
10
162.289
20
-77.8295
11
162.442
21
-77.7045
0
LINE
8
BLACK
6
CONTINUOUS
10
162.442
20
-77.7045
11
162.615
21
-77.6117
0
LINE
8
BLACK
6
CONTINUOUS
10
162.615
20
-77.6117
11
162.804
21
-77.5545
0
LINE
8
BLACK
6
CONTINUOUS
10
162.804
20
-77.5545
11
163
21
-77.5352
0
LINE
8
BLACK
6
CONTINUOUS
10
163
20
-77.5352
11
163.196
21
-77.5545
0
LINE
8
BLACK
6
CONTINUOUS
10
163.196
20
-77.5545
11
163.385
21
-77.6117
0
LINE
8
BLACK
6
CONTINUOUS
10
163.385
20
-77.6117
11
163.558
21
-77.7045
0
LINE
8
BLACK
6
CONTINUOUS
10
163.558
20
-77.7045
11
163.672
21
-77.7982
0
LINE
8
BLACK
6
CONTINUOUS
10
163.672
20
-77.7982
11
164.414
21
-78.54
0
LINE
8
BLACK
6
CONTINUOUS
10
164.414
20
-78.54
11
165
21
-78.54
0
LINE
8
BLACK
6
CONTINUOUS
10
165
20
-78.54
11
165
21
-68.0491
0
LINE
8
BLACK
6
CONTINUOUS
10
165
20
-68.0491
11
164.995
21
-68
0
LINE
8
BLACK
6
CONTINUOUS
10
164.995
20
-68
11
165.014
21
-67.804
0
LINE
8
BLACK
6
CONTINUOUS
10
165.014
20
-67.804
11
165.072
21
-67.6155
0
LINE
8
BLACK
6
CONTINUOUS
10
165.072
20
-67.6155
11
165.072
21
-67.6155
0
LINE
8
BLACK
6
CONTINUOUS
10
165.072
20
-67.6155
11
165.165
21
-67.4417
0
LINE
8
BLACK
6
CONTINUOUS
10
165.165
20
-67.4417
11
165.289
21
-67.2895
0
LINE
8
BLACK
6
CONTINUOUS
10
165.289
20
-67.2895
11
165.328
21
-67.2582
0
LINE
8
BLACK
6
CONTINUOUS
10
165.328
20
-67.2582
11
166.54
21
-66.0458
0
LINE
8
BLACK
6
CONTINUOUS
10
166.54
20
-66.0458
11
166.54
21
-62.0491
0
LINE
8
BLACK
6
CONTINUOUS
10
166.54
20
-62.0491
11
166.535
21
-62
0
LINE
8
BLACK
6
CONTINUOUS
10
166.535
20
-62
11
166.554
21
-61.804
0
LINE
8
BLACK
6
CONTINUOUS
10
166.554
20
-61.804
11
166.612
21
-61.6155
0
LINE
8
BLACK
6
CONTINUOUS
10
166.612
20
-61.6155
11
166.67
21
-61.5063
0
LINE
8
BLACK
6
CONTINUOUS
10
166.67
20
-61.5063
11
166.67
21
-61.155
0
LINE
8
BLACK
6
CONTINUOUS
10
166.67
20
-61.155
11
166.675
21
-61.1062
0
LINE
8
BLACK
6
CONTINUOUS
10
166.675
20
-61.1062
11
166.689
21
-61.0593
0
LINE
8
BLACK
6
CONTINUOUS
10
166.689
20
-61.0593
11
166.712
21
-61.0161
0
LINE
8
BLACK
6
CONTINUOUS
10
166.712
20
-61.0161
11
166.743
21
-60.9782
0
LINE
8
BLACK
6
CONTINUOUS
10
166.743
20
-60.9782
11
166.781
21
-60.9471
0
LINE
8
BLACK
6
CONTINUOUS
10
166.781
20
-60.9471
11
166.824
21
-60.924
0
LINE
8
BLACK
6
CONTINUOUS
10
166.824
20
-60.924
11
166.871
21
-60.9098
0
LINE
8
BLACK
6
CONTINUOUS
10
166.871
20
-60.9098
11
166.92
21
-60.905
0
LINE
8
BLACK
6
CONTINUOUS
10
166.92
20
-60.905
11
168.16
21
-60.905
0
LINE
8
BLACK
6
CONTINUOUS
10
168.16
20
-60.905
11
168.209
21
-60.9098
0
LINE
8
BLACK
6
CONTINUOUS
10
136.209
20
-60.9098
11
136.256
21
-60.924
0
LINE
8
BLACK
6
CONTINUOUS
10
136.256
20
-60.924
11
136.299
21
-60.9471
0
LINE
8
BLACK
6
CONTINUOUS
10
136.299
20
-60.9471
11
136.337
21
-60.9782
0
LINE
8
BLACK
6
CONTINUOUS
10
136.337
20
-60.9782
11
136.355
21
-61
0
LINE
8
BLACK
6
CONTINUOUS
10
136.355
20
-61
11
137.049
21
-61
0
LINE
8
BLACK
6
CONTINUOUS
10
137.049
20
-61
11
137.196
21
-61.0145
0
LINE
8
BLACK
6
CONTINUOUS
10
137.196
20
-61.0145
11
137.385
21
-61.0717
0
LINE
8
BLACK
6
CONTINUOUS
10
137.385
20
-61.0717
11
137.558
21
-61.1645
0
LINE
8
BLACK
6
CONTINUOUS
10
137.558
20
-61.1645
11
137.711
21
-61.2895
0
LINE
8
BLACK
6
CONTINUOUS
10
137.711
20
-61.2895
11
137.835
21
-61.4417
0
LINE
8
BLACK
6
CONTINUOUS
10
137.835
20
-61.4417
11
137.928
21
-61.6155
0
LINE
8
BLACK
6
CONTINUOUS
10
137.928
20
-61.6155
11
137.986
21
-61.804
0
LINE
8
BLACK
6
CONTINUOUS
10
137.986
20
-61.804
11
138.005
21
-62
0
LINE
8
BLACK
6
CONTINUOUS
10
138.005
20
-62
11
137.986
21
-62.196
0
LINE
8
BLACK
6
CONTINUOUS
10
137.986
20
-62.196
11
137.928
21
-62.3845
0
LINE
8
BLACK
6
CONTINUOUS
10
137.928
20
-62.3845
11
137.835
21
-62.5583
0
LINE
8
BLACK
6
CONTINUOUS
10
137.835
20
-62.5583
11
137.711
21
-62.7105
0
LINE
8
BLACK
6
CONTINUOUS
10
137.711
20
-62.7105
11
137.558
21
-62.8355
0
LINE
8
BLACK
6
CONTINUOUS
10
137.558
20
-62.8355
11
137.385
21
-62.9283
0
LINE
8
BLACK
6
CONTINUOUS
10
137.385
20
-62.9283
11
137.196
21
-62.9855
0
LINE
8
BLACK
6
CONTINUOUS
10
137.196
20
-62.9855
11
137.049
21
-63
0
LINE
8
BLACK
6
CONTINUOUS
10
137.049
20
-63
11
136.54
21
-63
0
LINE
8
BLACK
6
CONTINUOUS
10
136.54
20
-63
11
136.54
21
-65.1258
0
LINE
8
BLACK
6
CONTINUOUS
10
136.54
20
-65.1258
11
137.414
21
-66
0
LINE
8
BLACK
6
CONTINUOUS
10
137.414
20
-66
11
139.951
21
-66
0
LINE
8
BLACK
6
CONTINUOUS
10
139.951
20
-66
11
140
21
-65.9952
0
LINE
8
BLACK
6
CONTINUOUS
10
140
20
-65.9952
11
140.049
21
-66
0
LINE
8
BLACK
6
CONTINUOUS
10
140.049
20
-66
11
140.196
21
-66.0145
0
LINE
8
BLACK
6
CONTINUOUS
10
140.196
20
-66.0145
11
140.385
21
-66.0717
0
LINE
8
BLACK
6
CONTINUOUS
10
140.385
20
-66.0717
11
140.558
21
-66.1645
0
LINE
8
BLACK
6
CONTINUOUS
10
140.558
20
-66.1645
11
140.711
21
-66.2895
0
LINE
8
BLACK
6
CONTINUOUS
10
140.711
20
-66.2895
11
140.742
21
-66.3276
0
LINE
8
BLACK
6
CONTINUOUS
10
140.742
20
-66.3276
11
144.414
21
-70
0
LINE
8
BLACK
6
CONTINUOUS
10
144.414
20
-70
11
151.533
21
-70
0
LINE
8
BLACK
6
CONTINUOUS
10
151.533
20
-70
11
151.582
21
-69.9952
0
LINE
8
BLACK
6
CONTINUOUS
10
151.582
20
-69.9952
11
151.631
21
-70
0
LINE
8
BLACK
6
CONTINUOUS
10
151.631
20
-70
11
151.778
21
-70.0145
0
LINE
8
BLACK
6
CONTINUOUS
10
151.778
20
-70.0145
11
151.967
21
-70.0717
0
LINE
8
BLACK
6
CONTINUOUS
10
151.967
20
-70.0717
11
152.14
21
-70.1645
0
LINE
8
BLACK
6
CONTINUOUS
10
152.14
20
-70.1645
11
152.293
21
-70.2895
0
LINE
8
BLACK
6
CONTINUOUS
10
152.293
20
-70.2895
11
152.324
21
-70.3276
0
LINE
8
BLACK
6
CONTINUOUS
10
152.324
20
-70.3276
11
156.052
21
-74.0561
0
LINE
8
BLACK
6
CONTINUOUS
10
156.052
20
-74.0561
11
156.091
21
-74.0874
0
LINE
8
BLACK
6
CONTINUOUS
10
156.091
20
-74.0874
11
156.122
21
-74.1255
0
LINE
8
BLACK
6
CONTINUOUS
10
156.122
20
-74.1255
11
156.215
21
-74.2397
0
LINE
8
BLACK
6
CONTINUOUS
10
156.215
20
-74.2397
11
156.308
21
-74.4134
0
LINE
8
BLACK
6
CONTINUOUS
10
156.308
20
-74.4134
11
156.366
21
-74.6019
0
LINE
8
BLACK
6
CONTINUOUS
10
156.366
20
-74.6019
11
156.385
21
-74.7979
0
LINE
8
BLACK
6
CONTINUOUS
10
156.385
20
-74.7979
11
156.38
21
-74.847
0
LINE
8
BLACK
6
CONTINUOUS
10
156.38
20
-74.847
11
156.38
21
-76.0491
0
LINE
8
BLACK
6
CONTINUOUS
10
156.38
20
-76.0491
11
156.366
21
-76.196
0
LINE
8
BLACK
6
CONTINUOUS
10
156.366
20
-76.196
11
156.308
21
-76.3845
0
LINE
8
BLACK
6
CONTINUOUS
10
156.308
20
-76.3845
11
156.215
21
-76.5583
0
LINE
8
BLACK
6
CONTINUOUS
10
156.215
20
-76.5583
11
156.091
21
-76.7105
0
LINE
8
BLACK
6
CONTINUOUS
10
156.091
20
-76.7105
11
155.938
21
-76.8355
0
LINE
8
BLACK
6
CONTINUOUS
10
155.938
20
-76.8355
11
155.765
21
-76.9283
0
LINE
8
BLACK
6
CONTINUOUS
10
155.765
20
-76.9283
11
155.576
21
-76.9855
0
LINE
8
BLACK
6
CONTINUOUS
10
155.576
20
-76.9855
11
155.38
21
-77.0048
0
LINE
8
BLACK
6
CONTINUOUS
10
155.38
20
-77.0048
11
155.184
21
-76.9855
0
LINE
8
BLACK
6
CONTINUOUS
10
155.184
20
-76.9855
11
154.995
21
-76.9283
0
LINE
8
BLACK
6
CONTINUOUS
10
154.995
20
-76.9283
11
154.822
21
-76.8355
0
LINE
8
BLACK
6
CONTINUOUS
10
154.822
20
-76.8355
11
154.669
21
-76.7105
0
LINE
8
BLACK
6
CONTINUOUS
10
154.669
20
-76.7105
11
154.545
21
-76.5583
0
LINE
8
BLACK
6
CONTINUOUS
10
154.545
20
-76.5583
11
154.452
21
-76.3845
0
LINE
8
BLACK
6
CONTINUOUS
10
154.452
20
-76.3845
11
154.394
21
-76.196
0
LINE
8
BLACK
6
CONTINUOUS
10
154.394
20
-76.196
11
154.38
21
-76.0491
0
LINE
8
BLACK
6
CONTINUOUS
10
154.38
20
-76.0491
11
154.38
21
-75.2121
0
LINE
8
BLACK
6
CONTINUOUS
10
154.38
20
-75.2121
11
151.168
21
-72
0
LINE
8
BLACK
6
CONTINUOUS
10
151.168
20
-72
11
144.049
21
-72
0
LINE
8
BLACK
6
CONTINUOUS
10
144.049
20
-72
11
144
21
-72.0048
0
LINE
8
BLACK
6
CONTINUOUS
10
144
20
-72.0048
11
143.951
21
-72
0
LINE
8
BLACK
6
CONTINUOUS
10
143.951
20
-72
11
143.951
21
-72
0
LINE
8
BLACK
6
CONTINUOUS
10
143.951
20
-72
11
143.804
21
-71.9855
0
LINE
8
BLACK
6
CONTINUOUS
10
143.804
20
-71.9855
11
143.615
21
-71.9283
0
LINE
8
BLACK
6
CONTINUOUS
10
143.615
20
-71.9283
11
143.442
21
-71.8355
0
LINE
8
BLACK
6
CONTINUOUS
10
143.442
20
-71.8355
11
143.289
21
-71.7105
0
LINE
8
BLACK
6
CONTINUOUS
10
143.289
20
-71.7105
11
143.258
21
-71.6724
0
LINE
8
BLACK
6
CONTINUOUS
10
143.258
20
-71.6724
11
139.586
21
-68
0
LINE
8
BLACK
6
CONTINUOUS
10
139.586
20
-68
11
137.049
21
-68
0
LINE
8
BLACK
6
CONTINUOUS
10
137.049
20
-68
11
137
21
-68.0048
0
LINE
8
BLACK
6
CONTINUOUS
10
137
20
-68.0048
11
136.804
21
-67.9855
0
LINE
8
BLACK
6
CONTINUOUS
10
136.804
20
-67.9855
11
136.615
21
-67.9283
0
LINE
8
BLACK
6
CONTINUOUS
10
136.615
20
-67.9283
11
136.442
21
-67.8355
0
LINE
8
BLACK
6
CONTINUOUS
10
136.442
20
-67.8355
11
136.328
21
-67.7418
0
LINE
8
BLACK
6
CONTINUOUS
10
136.328
20
-67.7418
11
136.289
21
-67.7105
0
LINE
8
BLACK
6
CONTINUOUS
10
136.289
20
-67.7105
11
136.258
21
-67.6724
0
LINE
8
BLACK
6
CONTINUOUS
10
136.258
20
-67.6724
11
134.868
21
-66.2818
0
LINE
8
BLACK
6
CONTINUOUS
10
134.868
20
-66.2818
11
134.829
21
-66.2505
0
LINE
8
BLACK
6
CONTINUOUS
10
134.829
20
-66.2505
11
134.705
21
-66.0983
0
LINE
8
BLACK
6
CONTINUOUS
10
134.705
20
-66.0983
11
134.612
21
-65.9245
0
LINE
8
BLACK
6
CONTINUOUS
10
134.612
20
-65.9245
11
134.559
21
-65.7495
0
LINE
8
BLACK
6
CONTINUOUS
10
134.559
20
-65.7495
11
134.554
21
-65.736
0
LINE
8
BLACK
6
CONTINUOUS
10
134.554
20
-65.736
11
134.535
21
-65.54
0
LINE
8
BLACK
6
CONTINUOUS
10
134.535
20
-65.54
11
134.54
21
-65.4909
0
LINE
8
BLACK
6
CONTINUOUS
10
134.54
20
-65.4909
11
134.54
21
-62.0491
0
LINE
8
BLACK
6
CONTINUOUS
10
134.54
20
-62.0491
11
134.535
21
-62
0
LINE
8
BLACK
6
CONTINUOUS
10
134.535
20
-62
11
134.554
21
-61.804
0
LINE
8
BLACK
6
CONTINUOUS
10
134.554
20
-61.804
11
134.612
21
-61.6155
0
LINE
8
BLACK
6
CONTINUOUS
10
134.612
20
-61.6155
11
134.67
21
-61.5063
0
LINE
8
BLACK
6
CONTINUOUS
10
134.67
20
-61.5063
11
134.67
21
-61.155
0
LINE
8
BLACK
6
CONTINUOUS
10
134.67
20
-61.155
11
134.675
21
-61.1062
0
LINE
8
BLACK
6
CONTINUOUS
10
134.675
20
-61.1062
11
134.689
21
-61.0593
0
LINE
8
BLACK
6
CONTINUOUS
10
134.689
20
-61.0593
11
134.712
21
-61.0161
0
LINE
8
BLACK
6
CONTINUOUS
10
134.712
20
-61.0161
11
134.743
21
-60.9782
0
LINE
8
BLACK
6
CONTINUOUS
10
134.743
20
-60.9782
11
134.781
21
-60.9471
0
LINE
8
BLACK
6
CONTINUOUS
10
134.781
20
-60.9471
11
134.824
21
-60.924
0
LINE
8
BLACK
6
CONTINUOUS
10
134.824
20
-60.924
11
134.871
21
-60.9098
0
LINE
8
BLACK
6
CONTINUOUS
10
134.871
20
-60.9098
11
134.92
21
-60.905
0
LINE
8
BLACK
6
CONTINUOUS
10
134.92
20
-60.905
11
136.16
21
-60.905
0
LINE
8
BLACK
6
CONTINUOUS
10
136.16
20
-60.905
11
136.209
21
-60.9098
0
LINE
8
BLACK
6
CONTINUOUS
10
145.196
20
-61.0145
11
145.385
21
-61.0717
0
LINE
8
BLACK
6
CONTINUOUS
10
145.385
20
-61.0717
11
145.558
21
-61.1645
0
LINE
8
BLACK
6
CONTINUOUS
10
145.558
20
-61.1645
11
145.711
21
-61.2895
0
LINE
8
BLACK
6
CONTINUOUS
10
145.711
20
-61.2895
11
145.835
21
-61.4417
0
LINE
8
BLACK
6
CONTINUOUS
10
145.835
20
-61.4417
11
145.928
21
-61.6155
0
LINE
8
BLACK
6
CONTINUOUS
10
145.928
20
-61.6155
11
145.986
21
-61.804
0
LINE
8
BLACK
6
CONTINUOUS
10
145.986
20
-61.804
11
146.005
21
-62
0
LINE
8
BLACK
6
CONTINUOUS
10
146.005
20
-62
11
145.986
21
-62.196
0
LINE
8
BLACK
6
CONTINUOUS
10
145.986
20
-62.196
11
145.928
21
-62.3845
0
LINE
8
BLACK
6
CONTINUOUS
10
145.928
20
-62.3845
11
145.835
21
-62.5583
0
LINE
8
BLACK
6
CONTINUOUS
10
145.835
20
-62.5583
11
145.711
21
-62.7105
0
LINE
8
BLACK
6
CONTINUOUS
10
145.711
20
-62.7105
11
145.558
21
-62.8355
0
LINE
8
BLACK
6
CONTINUOUS
10
145.558
20
-62.8355
11
145.385
21
-62.9283
0
LINE
8
BLACK
6
CONTINUOUS
10
145.385
20
-62.9283
11
145.196
21
-62.9855
0
LINE
8
BLACK
6
CONTINUOUS
10
145.196
20
-62.9855
11
145.049
21
-63
0
LINE
8
BLACK
6
CONTINUOUS
10
145.049
20
-63
11
144
21
-63
0
LINE
8
BLACK
6
CONTINUOUS
10
144
20
-63
11
144
21
-64.5858
0
LINE
8
BLACK
6
CONTINUOUS
10
144
20
-64.5858
11
146.414
21
-67
0
LINE
8
BLACK
6
CONTINUOUS
10
146.414
20
-67
11
152.951
21
-67
0
LINE
8
BLACK
6
CONTINUOUS
10
152.951
20
-67
11
153
21
-66.9952
0
LINE
8
BLACK
6
CONTINUOUS
10
153
20
-66.9952
11
153.049
21
-67
0
LINE
8
BLACK
6
CONTINUOUS
10
153.049
20
-67
11
153.196
21
-67.0145
0
LINE
8
BLACK
6
CONTINUOUS
10
153.196
20
-67.0145
11
153.385
21
-67.0717
0
LINE
8
BLACK
6
CONTINUOUS
10
153.385
20
-67.0717
11
153.558
21
-67.1645
0
LINE
8
BLACK
6
CONTINUOUS
10
153.558
20
-67.1645
11
153.711
21
-67.2895
0
LINE
8
BLACK
6
CONTINUOUS
10
153.711
20
-67.2895
11
153.742
21
-67.3276
0
LINE
8
BLACK
6
CONTINUOUS
10
153.742
20
-67.3276
11
158.592
21
-72.1782
0
LINE
8
BLACK
6
CONTINUOUS
10
158.592
20
-72.1782
11
158.631
21
-72.2095
0
LINE
8
BLACK
6
CONTINUOUS
10
158.631
20
-72.2095
11
158.662
21
-72.2476
0
LINE
8
BLACK
6
CONTINUOUS
10
158.662
20
-72.2476
11
158.755
21
-72.3617
0
LINE
8
BLACK
6
CONTINUOUS
10
158.755
20
-72.3617
11
158.848
21
-72.5355
0
LINE
8
BLACK
6
CONTINUOUS
10
158.848
20
-72.5355
11
158.906
21
-72.724
0
LINE
8
BLACK
6
CONTINUOUS
10
158.906
20
-72.724
11
158.925
21
-72.92
0
LINE
8
BLACK
6
CONTINUOUS
10
158.925
20
-72.92
11
158.92
21
-72.9691
0
LINE
8
BLACK
6
CONTINUOUS
10
158.92
20
-72.9691
11
158.92
21
-76.0491
0
LINE
8
BLACK
6
CONTINUOUS
10
158.92
20
-76.0491
11
158.906
21
-76.196
0
LINE
8
BLACK
6
CONTINUOUS
10
158.906
20
-76.196
11
158.848
21
-76.3845
0
LINE
8
BLACK
6
CONTINUOUS
10
158.848
20
-76.3845
11
158.755
21
-76.5583
0
LINE
8
BLACK
6
CONTINUOUS
10
158.755
20
-76.5583
11
158.631
21
-76.7105
0
LINE
8
BLACK
6
CONTINUOUS
10
158.631
20
-76.7105
11
158.478
21
-76.8355
0
LINE
8
BLACK
6
CONTINUOUS
10
158.478
20
-76.8355
11
158.305
21
-76.9283
0
LINE
8
BLACK
6
CONTINUOUS
10
158.305
20
-76.9283
11
158.116
21
-76.9855
0
LINE
8
BLACK
6
CONTINUOUS
10
158.116
20
-76.9855
11
157.92
21
-77.0048
0
LINE
8
BLACK
6
CONTINUOUS
10
157.92
20
-77.0048
11
157.724
21
-76.9855
0
LINE
8
BLACK
6
CONTINUOUS
10
157.724
20
-76.9855
11
157.535
21
-76.9283
0
LINE
8
BLACK
6
CONTINUOUS
10
157.535
20
-76.9283
11
157.362
21
-76.8355
0
LINE
8
BLACK
6
CONTINUOUS
10
157.362
20
-76.8355
11
157.209
21
-76.7105
0
LINE
8
BLACK
6
CONTINUOUS
10
157.209
20
-76.7105
11
157.085
21
-76.5583
0
LINE
8
BLACK
6
CONTINUOUS
10
157.085
20
-76.5583
11
156.992
21
-76.3845
0
LINE
8
BLACK
6
CONTINUOUS
10
156.992
20
-76.3845
11
156.934
21
-76.196
0
LINE
8
BLACK
6
CONTINUOUS
10
156.934
20
-76.196
11
156.92
21
-76.0491
0
LINE
8
BLACK
6
CONTINUOUS
10
156.92
20
-76.0491
11
156.92
21
-73.3342
0
LINE
8
BLACK
6
CONTINUOUS
10
156.92
20
-73.3342
11
152.586
21
-69
0
LINE
8
BLACK
6
CONTINUOUS
10
152.586
20
-69
11
146.049
21
-69
0
LINE
8
BLACK
6
CONTINUOUS
10
146.049
20
-69
11
146
21
-69.0048
0
LINE
8
BLACK
6
CONTINUOUS
10
146
20
-69.0048
11
145.804
21
-68.9855
0
LINE
8
BLACK
6
CONTINUOUS
10
145.804
20
-68.9855
11
145.615
21
-68.9283
0
LINE
8
BLACK
6
CONTINUOUS
10
145.615
20
-68.9283
11
145.442
21
-68.8355
0
LINE
8
BLACK
6
CONTINUOUS
10
145.442
20
-68.8355
11
145.328
21
-68.7418
0
LINE
8
BLACK
6
CONTINUOUS
10
145.328
20
-68.7418
11
145.328
21
-68.7418
0
LINE
8
BLACK
6
CONTINUOUS
10
145.328
20
-68.7418
11
145.289
21
-68.7105
0
LINE
8
BLACK
6
CONTINUOUS
10
145.289
20
-68.7105
11
145.258
21
-68.6724
0
LINE
8
BLACK
6
CONTINUOUS
10
145.258
20
-68.6724
11
142.328
21
-65.7418
0
LINE
8
BLACK
6
CONTINUOUS
10
142.328
20
-65.7418
11
142.289
21
-65.7105
0
LINE
8
BLACK
6
CONTINUOUS
10
142.289
20
-65.7105
11
142.165
21
-65.5583
0
LINE
8
BLACK
6
CONTINUOUS
10
142.165
20
-65.5583
11
142.072
21
-65.3845
0
LINE
8
BLACK
6
CONTINUOUS
10
142.072
20
-65.3845
11
142.031
21
-65.2505
0
LINE
8
BLACK
6
CONTINUOUS
10
142.031
20
-65.2505
11
142.014
21
-65.196
0
LINE
8
BLACK
6
CONTINUOUS
10
142.014
20
-65.196
11
141.995
21
-65
0
LINE
8
BLACK
6
CONTINUOUS
10
141.995
20
-65
11
142
21
-64.9509
0
LINE
8
BLACK
6
CONTINUOUS
10
142
20
-64.9509
11
142
21
-62.0491
0
LINE
8
BLACK
6
CONTINUOUS
10
142
20
-62.0491
11
141.995
21
-62
0
LINE
8
BLACK
6
CONTINUOUS
10
141.995
20
-62
11
142.014
21
-61.804
0
LINE
8
BLACK
6
CONTINUOUS
10
142.014
20
-61.804
11
142.072
21
-61.6155
0
LINE
8
BLACK
6
CONTINUOUS
10
142.072
20
-61.6155
11
142.13
21
-61.5063
0
LINE
8
BLACK
6
CONTINUOUS
10
142.13
20
-61.5063
11
142.13
21
-61.155
0
LINE
8
BLACK
6
CONTINUOUS
10
142.13
20
-61.155
11
142.135
21
-61.1062
0
LINE
8
BLACK
6
CONTINUOUS
10
142.135
20
-61.1062
11
142.149
21
-61.0593
0
LINE
8
BLACK
6
CONTINUOUS
10
142.149
20
-61.0593
11
142.172
21
-61.0161
0
LINE
8
BLACK
6
CONTINUOUS
10
142.172
20
-61.0161
11
142.203
21
-60.9782
0
LINE
8
BLACK
6
CONTINUOUS
10
142.203
20
-60.9782
11
142.241
21
-60.9471
0
LINE
8
BLACK
6
CONTINUOUS
10
142.241
20
-60.9471
11
142.284
21
-60.924
0
LINE
8
BLACK
6
CONTINUOUS
10
142.284
20
-60.924
11
142.331
21
-60.9098
0
LINE
8
BLACK
6
CONTINUOUS
10
142.331
20
-60.9098
11
142.38
21
-60.905
0
LINE
8
BLACK
6
CONTINUOUS
10
142.38
20
-60.905
11
143.62
21
-60.905
0
LINE
8
BLACK
6
CONTINUOUS
10
143.62
20
-60.905
11
143.669
21
-60.9098
0
LINE
8
BLACK
6
CONTINUOUS
10
143.669
20
-60.9098
11
143.716
21
-60.924
0
LINE
8
BLACK
6
CONTINUOUS
10
143.716
20
-60.924
11
143.759
21
-60.9471
0
LINE
8
BLACK
6
CONTINUOUS
10
143.759
20
-60.9471
11
143.797
21
-60.9782
0
LINE
8
BLACK
6
CONTINUOUS
10
143.797
20
-60.9782
11
143.815
21
-61
0
LINE
8
BLACK
6
CONTINUOUS
10
143.815
20
-61
11
145.049
21
-61
0
LINE
8
BLACK
6
CONTINUOUS
10
145.049
20
-61
11
145.196
21
-61.0145
0
LINE
8
BLACK
6
CONTINUOUS
10
160.209
20
-60.9098
11
160.256
21
-60.924
0
LINE
8
BLACK
6
CONTINUOUS
10
160.256
20
-60.924
11
160.299
21
-60.9471
0
LINE
8
BLACK
6
CONTINUOUS
10
160.299
20
-60.9471
11
160.337
21
-60.9782
0
LINE
8
BLACK
6
CONTINUOUS
10
160.337
20
-60.9782
11
160.355
21
-61
0
LINE
8
BLACK
6
CONTINUOUS
10
160.355
20
-61
11
161.049
21
-61
0
LINE
8
BLACK
6
CONTINUOUS
10
161.049
20
-61
11
161.196
21
-61.0145
0
LINE
8
BLACK
6
CONTINUOUS
10
161.196
20
-61.0145
11
161.385
21
-61.0717
0
LINE
8
BLACK
6
CONTINUOUS
10
161.385
20
-61.0717
11
161.558
21
-61.1645
0
LINE
8
BLACK
6
CONTINUOUS
10
161.558
20
-61.1645
11
161.711
21
-61.2895
0
LINE
8
BLACK
6
CONTINUOUS
10
161.711
20
-61.2895
11
161.835
21
-61.4417
0
LINE
8
BLACK
6
CONTINUOUS
10
161.835
20
-61.4417
11
161.928
21
-61.6155
0
LINE
8
BLACK
6
CONTINUOUS
10
161.928
20
-61.6155
11
161.986
21
-61.804
0
LINE
8
BLACK
6
CONTINUOUS
10
161.986
20
-61.804
11
162.005
21
-62
0
LINE
8
BLACK
6
CONTINUOUS
10
162.005
20
-62
11
161.986
21
-62.196
0
LINE
8
BLACK
6
CONTINUOUS
10
161.986
20
-62.196
11
161.928
21
-62.3845
0
LINE
8
BLACK
6
CONTINUOUS
10
161.928
20
-62.3845
11
161.835
21
-62.5583
0
LINE
8
BLACK
6
CONTINUOUS
10
161.835
20
-62.5583
11
161.711
21
-62.7105
0
LINE
8
BLACK
6
CONTINUOUS
10
161.711
20
-62.7105
11
161.558
21
-62.8355
0
LINE
8
BLACK
6
CONTINUOUS
10
161.558
20
-62.8355
11
161.385
21
-62.9283
0
LINE
8
BLACK
6
CONTINUOUS
10
161.385
20
-62.9283
11
161.196
21
-62.9855
0
LINE
8
BLACK
6
CONTINUOUS
10
161.196
20
-62.9855
11
161.049
21
-63
0
LINE
8
BLACK
6
CONTINUOUS
10
161.049
20
-63
11
160.54
21
-63
0
LINE
8
BLACK
6
CONTINUOUS
10
160.54
20
-63
11
160.54
21
-64.1258
0
LINE
8
BLACK
6
CONTINUOUS
10
160.54
20
-64.1258
11
163.672
21
-67.2582
0
LINE
8
BLACK
6
CONTINUOUS
10
163.672
20
-67.2582
11
163.711
21
-67.2895
0
LINE
8
BLACK
6
CONTINUOUS
10
163.711
20
-67.2895
11
163.835
21
-67.4417
0
LINE
8
BLACK
6
CONTINUOUS
10
163.835
20
-67.4417
11
163.898
21
-67.5583
0
LINE
8
BLACK
6
CONTINUOUS
10
163.898
20
-67.5583
11
163.928
21
-67.6155
0
LINE
8
BLACK
6
CONTINUOUS
10
163.928
20
-67.6155
11
163.986
21
-67.804
0
LINE
8
BLACK
6
CONTINUOUS
10
163.986
20
-67.804
11
164.005
21
-68
0
LINE
8
BLACK
6
CONTINUOUS
10
164.005
20
-68
11
164
21
-68.0491
0
LINE
8
BLACK
6
CONTINUOUS
10
164
20
-68.0491
11
164
21
-76.0491
0
LINE
8
BLACK
6
CONTINUOUS
10
164
20
-76.0491
11
163.986
21
-76.196
0
LINE
8
BLACK
6
CONTINUOUS
10
163.986
20
-76.196
11
163.928
21
-76.3845
0
LINE
8
BLACK
6
CONTINUOUS
10
163.928
20
-76.3845
11
163.85
21
-76.5311
0
LINE
8
BLACK
6
CONTINUOUS
10
163.85
20
-76.5311
11
163.85
21
-76.6
0
LINE
8
BLACK
6
CONTINUOUS
10
163.85
20
-76.6
11
163.845
21
-76.6488
0
LINE
8
BLACK
6
CONTINUOUS
10
163.845
20
-76.6488
11
163.831
21
-76.6957
0
LINE
8
BLACK
6
CONTINUOUS
10
163.831
20
-76.6957
11
163.808
21
-76.7389
0
LINE
8
BLACK
6
CONTINUOUS
10
163.808
20
-76.7389
11
163.777
21
-76.7768
0
LINE
8
BLACK
6
CONTINUOUS
10
163.777
20
-76.7768
11
163.739
21
-76.8079
0
LINE
8
BLACK
6
CONTINUOUS
10
163.739
20
-76.8079
11
163.696
21
-76.831
0
LINE
8
BLACK
6
CONTINUOUS
10
163.696
20
-76.831
11
163.649
21
-76.8452
0
LINE
8
BLACK
6
CONTINUOUS
10
163.649
20
-76.8452
11
163.6
21
-76.85
0
LINE
8
BLACK
6
CONTINUOUS
10
163.6
20
-76.85
11
163.531
21
-76.85
0
LINE
8
BLACK
6
CONTINUOUS
10
163.531
20
-76.85
11
163.385
21
-76.9283
0
LINE
8
BLACK
6
CONTINUOUS
10
163.385
20
-76.9283
11
163.196
21
-76.9855
0
LINE
8
BLACK
6
CONTINUOUS
10
163.196
20
-76.9855
11
163
21
-77.0048
0
LINE
8
BLACK
6
CONTINUOUS
10
163
20
-77.0048
11
162.804
21
-76.9855
0
LINE
8
BLACK
6
CONTINUOUS
10
162.804
20
-76.9855
11
162.615
21
-76.9283
0
LINE
8
BLACK
6
CONTINUOUS
10
162.615
20
-76.9283
11
162.469
21
-76.85
0
LINE
8
BLACK
6
CONTINUOUS
10
162.469
20
-76.85
11
162.4
21
-76.85
0
LINE
8
BLACK
6
CONTINUOUS
10
162.4
20
-76.85
11
162.351
21
-76.8452
0
LINE
8
BLACK
6
CONTINUOUS
10
162.351
20
-76.8452
11
162.304
21
-76.831
0
LINE
8
BLACK
6
CONTINUOUS
10
162.304
20
-76.831
11
162.261
21
-76.8079
0
LINE
8
BLACK
6
CONTINUOUS
10
162.261
20
-76.8079
11
162.223
21
-76.7768
0
LINE
8
BLACK
6
CONTINUOUS
10
162.223
20
-76.7768
11
162.192
21
-76.7389
0
LINE
8
BLACK
6
CONTINUOUS
10
162.192
20
-76.7389
11
162.169
21
-76.6957
0
LINE
8
BLACK
6
CONTINUOUS
10
162.169
20
-76.6957
11
162.155
21
-76.6488
0
LINE
8
BLACK
6
CONTINUOUS
10
162.155
20
-76.6488
11
162.15
21
-76.6
0
LINE
8
BLACK
6
CONTINUOUS
10
162.15
20
-76.6
11
162.15
21
-76.5311
0
LINE
8
BLACK
6
CONTINUOUS
10
162.15
20
-76.5311
11
162.072
21
-76.3845
0
LINE
8
BLACK
6
CONTINUOUS
10
162.072
20
-76.3845
11
162.014
21
-76.196
0
LINE
8
BLACK
6
CONTINUOUS
10
162.014
20
-76.196
11
162
21
-76.0491
0
LINE
8
BLACK
6
CONTINUOUS
10
162
20
-76.0491
11
162
21
-68.4142
0
LINE
8
BLACK
6
CONTINUOUS
10
162
20
-68.4142
11
158.868
21
-65.2818
0
LINE
8
BLACK
6
CONTINUOUS
10
158.868
20
-65.2818
11
158.829
21
-65.2505
0
LINE
8
BLACK
6
CONTINUOUS
10
158.829
20
-65.2505
11
158.705
21
-65.0983
0
LINE
8
BLACK
6
CONTINUOUS
10
158.705
20
-65.0983
11
158.612
21
-64.9245
0
LINE
8
BLACK
6
CONTINUOUS
10
158.612
20
-64.9245
11
158.585
21
-64.8355
0
LINE
8
BLACK
6
CONTINUOUS
10
158.585
20
-64.8355
11
158.554
21
-64.736
0
LINE
8
BLACK
6
CONTINUOUS
10
158.554
20
-64.736
11
158.535
21
-64.54
0
LINE
8
BLACK
6
CONTINUOUS
10
158.535
20
-64.54
11
158.54
21
-64.4909
0
LINE
8
BLACK
6
CONTINUOUS
10
158.54
20
-64.4909
11
158.54
21
-62.0491
0
LINE
8
BLACK
6
CONTINUOUS
10
158.54
20
-62.0491
11
158.535
21
-62
0
LINE
8
BLACK
6
CONTINUOUS
10
158.535
20
-62
11
158.554
21
-61.804
0
LINE
8
BLACK
6
CONTINUOUS
10
158.554
20
-61.804
11
158.612
21
-61.6155
0
LINE
8
BLACK
6
CONTINUOUS
10
158.612
20
-61.6155
11
158.67
21
-61.5063
0
LINE
8
BLACK
6
CONTINUOUS
10
158.67
20
-61.5063
11
158.67
21
-61.155
0
LINE
8
BLACK
6
CONTINUOUS
10
158.67
20
-61.155
11
158.675
21
-61.1062
0
LINE
8
BLACK
6
CONTINUOUS
10
158.675
20
-61.1062
11
158.689
21
-61.0593
0
LINE
8
BLACK
6
CONTINUOUS
10
158.689
20
-61.0593
11
158.712
21
-61.0161
0
LINE
8
BLACK
6
CONTINUOUS
10
158.712
20
-61.0161
11
158.743
21
-60.9782
0
LINE
8
BLACK
6
CONTINUOUS
10
158.743
20
-60.9782
11
158.781
21
-60.9471
0
LINE
8
BLACK
6
CONTINUOUS
10
158.781
20
-60.9471
11
158.824
21
-60.924
0
LINE
8
BLACK
6
CONTINUOUS
10
158.824
20
-60.924
11
158.871
21
-60.9098
0
LINE
8
BLACK
6
CONTINUOUS
10
158.871
20
-60.9098
11
158.92
21
-60.905
0
LINE
8
BLACK
6
CONTINUOUS
10
158.92
20
-60.905
11
160.16
21
-60.905
0
LINE
8
BLACK
6
CONTINUOUS
10
160.16
20
-60.905
11
160.209
21
-60.9098
0
LINE
8
BLACK
6
CONTINUOUS
10
153.196
20
-61.0145
11
153.385
21
-61.0717
0
LINE
8
BLACK
6
CONTINUOUS
10
153.385
20
-61.0717
11
153.558
21
-61.1645
0
LINE
8
BLACK
6
CONTINUOUS
10
153.558
20
-61.1645
11
153.711
21
-61.2895
0
LINE
8
BLACK
6
CONTINUOUS
10
153.711
20
-61.2895
11
153.835
21
-61.4417
0
LINE
8
BLACK
6
CONTINUOUS
10
153.835
20
-61.4417
11
153.928
21
-61.6155
0
LINE
8
BLACK
6
CONTINUOUS
10
153.928
20
-61.6155
11
153.986
21
-61.804
0
LINE
8
BLACK
6
CONTINUOUS
10
153.986
20
-61.804
11
154.005
21
-62
0
LINE
8
BLACK
6
CONTINUOUS
10
154.005
20
-62
11
153.986
21
-62.196
0
LINE
8
BLACK
6
CONTINUOUS
10
153.986
20
-62.196
11
153.928
21
-62.3845
0
LINE
8
BLACK
6
CONTINUOUS
10
153.928
20
-62.3845
11
153.835
21
-62.5583
0
LINE
8
BLACK
6
CONTINUOUS
10
153.835
20
-62.5583
11
153.711
21
-62.7105
0
LINE
8
BLACK
6
CONTINUOUS
10
153.711
20
-62.7105
11
153.558
21
-62.8355
0
LINE
8
BLACK
6
CONTINUOUS
10
153.558
20
-62.8355
11
153.385
21
-62.9283
0
LINE
8
BLACK
6
CONTINUOUS
10
153.385
20
-62.9283
11
153.196
21
-62.9855
0
LINE
8
BLACK
6
CONTINUOUS
10
153.196
20
-62.9855
11
153.049
21
-63
0
LINE
8
BLACK
6
CONTINUOUS
10
153.049
20
-63
11
152
21
-63
0
LINE
8
BLACK
6
CONTINUOUS
10
152
20
-63
11
152
21
-63.5858
0
LINE
8
BLACK
6
CONTINUOUS
10
152
20
-63.5858
11
152.414
21
-64
0
LINE
8
BLACK
6
CONTINUOUS
10
152.414
20
-64
11
153.951
21
-64
0
LINE
8
BLACK
6
CONTINUOUS
10
153.951
20
-64
11
154
21
-63.9952
0
LINE
8
BLACK
6
CONTINUOUS
10
154
20
-63.9952
11
154.049
21
-64
0
LINE
8
BLACK
6
CONTINUOUS
10
154.049
20
-64
11
154.196
21
-64.0145
0
LINE
8
BLACK
6
CONTINUOUS
10
154.196
20
-64.0145
11
154.385
21
-64.0717
0
LINE
8
BLACK
6
CONTINUOUS
10
154.385
20
-64.0717
11
154.558
21
-64.1645
0
LINE
8
BLACK
6
CONTINUOUS
10
154.558
20
-64.1645
11
154.711
21
-64.2895
0
LINE
8
BLACK
6
CONTINUOUS
10
154.711
20
-64.2895
11
154.742
21
-64.3276
0
LINE
8
BLACK
6
CONTINUOUS
10
154.742
20
-64.3276
11
161.132
21
-70.7182
0
LINE
8
BLACK
6
CONTINUOUS
10
161.132
20
-70.7182
11
161.171
21
-70.7495
0
LINE
8
BLACK
6
CONTINUOUS
10
161.171
20
-70.7495
11
161.202
21
-70.7876
0
LINE
8
BLACK
6
CONTINUOUS
10
161.202
20
-70.7876
11
161.295
21
-70.9017
0
LINE
8
BLACK
6
CONTINUOUS
10
161.295
20
-70.9017
11
161.388
21
-71.0755
0
LINE
8
BLACK
6
CONTINUOUS
10
161.388
20
-71.0755
11
161.446
21
-71.264
0
LINE
8
BLACK
6
CONTINUOUS
10
161.446
20
-71.264
11
161.465
21
-71.46
0
LINE
8
BLACK
6
CONTINUOUS
10
161.465
20
-71.46
11
161.46
21
-71.5091
0
LINE
8
BLACK
6
CONTINUOUS
10
161.46
20
-71.5091
11
161.46
21
-76.0491
0
LINE
8
BLACK
6
CONTINUOUS
10
161.46
20
-76.0491
11
161.446
21
-76.196
0
LINE
8
BLACK
6
CONTINUOUS
10
161.446
20
-76.196
11
161.388
21
-76.3845
0
LINE
8
BLACK
6
CONTINUOUS
10
161.388
20
-76.3845
11
161.295
21
-76.5583
0
LINE
8
BLACK
6
CONTINUOUS
10
161.295
20
-76.5583
11
161.171
21
-76.7105
0
LINE
8
BLACK
6
CONTINUOUS
10
161.171
20
-76.7105
11
161.018
21
-76.8355
0
LINE
8
BLACK
6
CONTINUOUS
10
161.018
20
-76.8355
11
160.845
21
-76.9283
0
LINE
8
BLACK
6
CONTINUOUS
10
160.845
20
-76.9283
11
160.656
21
-76.9855
0
LINE
8
BLACK
6
CONTINUOUS
10
160.656
20
-76.9855
11
160.46
21
-77.0048
0
LINE
8
BLACK
6
CONTINUOUS
10
160.46
20
-77.0048
11
160.264
21
-76.9855
0
LINE
8
BLACK
6
CONTINUOUS
10
160.264
20
-76.9855
11
160.075
21
-76.9283
0
LINE
8
BLACK
6
CONTINUOUS
10
160.075
20
-76.9283
11
159.902
21
-76.8355
0
LINE
8
BLACK
6
CONTINUOUS
10
159.902
20
-76.8355
11
159.749
21
-76.7105
0
LINE
8
BLACK
6
CONTINUOUS
10
159.749
20
-76.7105
11
159.625
21
-76.5583
0
LINE
8
BLACK
6
CONTINUOUS
10
159.625
20
-76.5583
11
159.532
21
-76.3845
0
LINE
8
BLACK
6
CONTINUOUS
10
159.532
20
-76.3845
11
159.474
21
-76.196
0
LINE
8
BLACK
6
CONTINUOUS
10
159.474
20
-76.196
11
159.46
21
-76.0491
0
LINE
8
BLACK
6
CONTINUOUS
10
159.46
20
-76.0491
11
159.46
21
-71.8742
0
LINE
8
BLACK
6
CONTINUOUS
10
159.46
20
-71.8742
11
153.586
21
-66
0
LINE
8
BLACK
6
CONTINUOUS
10
153.586
20
-66
11
152.049
21
-66
0
LINE
8
BLACK
6
CONTINUOUS
10
152.049
20
-66
11
152
21
-66.0048
0
LINE
8
BLACK
6
CONTINUOUS
10
152
20
-66.0048
11
151.804
21
-65.9855
0
LINE
8
BLACK
6
CONTINUOUS
10
151.804
20
-65.9855
11
151.615
21
-65.9283
0
LINE
8
BLACK
6
CONTINUOUS
10
151.615
20
-65.9283
11
151.442
21
-65.8355
0
LINE
8
BLACK
6
CONTINUOUS
10
151.442
20
-65.8355
11
151.328
21
-65.7418
0
LINE
8
BLACK
6
CONTINUOUS
10
151.328
20
-65.7418
11
151.289
21
-65.7105
0
LINE
8
BLACK
6
CONTINUOUS
10
151.289
20
-65.7105
11
151.258
21
-65.6724
0
LINE
8
BLACK
6
CONTINUOUS
10
151.258
20
-65.6724
11
150.328
21
-64.7418
0
LINE
8
BLACK
6
CONTINUOUS
10
150.328
20
-64.7418
11
150.289
21
-64.7105
0
LINE
8
BLACK
6
CONTINUOUS
10
150.289
20
-64.7105
11
150.165
21
-64.5583
0
LINE
8
BLACK
6
CONTINUOUS
10
150.165
20
-64.5583
11
150.072
21
-64.3845
0
LINE
8
BLACK
6
CONTINUOUS
10
150.072
20
-64.3845
11
150.054
21
-64.3276
0
LINE
8
BLACK
6
CONTINUOUS
10
150.054
20
-64.3276
11
150.014
21
-64.196
0
LINE
8
BLACK
6
CONTINUOUS
10
150.014
20
-64.196
11
149.995
21
-64
0
LINE
8
BLACK
6
CONTINUOUS
10
149.995
20
-64
11
150
21
-63.9509
0
LINE
8
BLACK
6
CONTINUOUS
10
150
20
-63.9509
11
150
21
-62.0491
0
LINE
8
BLACK
6
CONTINUOUS
10
150
20
-62.0491
11
149.995
21
-62
0
LINE
8
BLACK
6
CONTINUOUS
10
149.995
20
-62
11
150.014
21
-61.804
0
LINE
8
BLACK
6
CONTINUOUS
10
150.014
20
-61.804
11
150.072
21
-61.6155
0
LINE
8
BLACK
6
CONTINUOUS
10
150.072
20
-61.6155
11
150.13
21
-61.5063
0
LINE
8
BLACK
6
CONTINUOUS
10
150.13
20
-61.5063
11
150.13
21
-61.155
0
LINE
8
BLACK
6
CONTINUOUS
10
150.13
20
-61.155
11
150.135
21
-61.1062
0
LINE
8
BLACK
6
CONTINUOUS
10
150.135
20
-61.1062
11
150.149
21
-61.0593
0
LINE
8
BLACK
6
CONTINUOUS
10
150.149
20
-61.0593
11
150.172
21
-61.0161
0
LINE
8
BLACK
6
CONTINUOUS
10
150.172
20
-61.0161
11
150.203
21
-60.9782
0
LINE
8
BLACK
6
CONTINUOUS
10
150.203
20
-60.9782
11
150.241
21
-60.9471
0
LINE
8
BLACK
6
CONTINUOUS
10
150.241
20
-60.9471
11
150.284
21
-60.924
0
LINE
8
BLACK
6
CONTINUOUS
10
150.284
20
-60.924
11
150.331
21
-60.9098
0
LINE
8
BLACK
6
CONTINUOUS
10
150.331
20
-60.9098
11
150.38
21
-60.905
0
LINE
8
BLACK
6
CONTINUOUS
10
150.38
20
-60.905
11
151.62
21
-60.905
0
LINE
8
BLACK
6
CONTINUOUS
10
151.62
20
-60.905
11
151.669
21
-60.9098
0
LINE
8
BLACK
6
CONTINUOUS
10
151.669
20
-60.9098
11
151.716
21
-60.924
0
LINE
8
BLACK
6
CONTINUOUS
10
151.716
20
-60.924
11
151.759
21
-60.9471
0
LINE
8
BLACK
6
CONTINUOUS
10
151.759
20
-60.9471
11
151.797
21
-60.9782
0
LINE
8
BLACK
6
CONTINUOUS
10
151.797
20
-60.9782
11
151.815
21
-61
0
LINE
8
BLACK
6
CONTINUOUS
10
151.815
20
-61
11
153.049
21
-61
0
LINE
8
BLACK
6
CONTINUOUS
10
153.049
20
-61
11
153.196
21
-61.0145
0
LINE
8
BLACK
6
CONTINUOUS
10
128.006
20
-58.875
11
128.006
21
-58.875
0
LINE
8
BLACK
6
CONTINUOUS
10
128.006
20
-58.875
11
128.025
21
-58.8768
0
LINE
8
BLACK
6
CONTINUOUS
10
128.025
20
-58.8768
11
128.048
21
-58.884
0
LINE
8
BLACK
6
CONTINUOUS
10
128.048
20
-58.884
11
128.07
21
-58.8956
0
LINE
8
BLACK
6
CONTINUOUS
10
128.07
20
-58.8956
11
128.089
21
-58.9112
0
LINE
8
BLACK
6
CONTINUOUS
10
128.089
20
-58.9112
11
128.093
21
-58.916
0
LINE
8
BLACK
6
CONTINUOUS
10
128.093
20
-58.916
11
129.084
21
-59.9073
0
LINE
8
BLACK
6
CONTINUOUS
10
129.084
20
-59.9073
11
129.089
21
-59.9112
0
LINE
8
BLACK
6
CONTINUOUS
10
129.089
20
-59.9112
11
129.093
21
-59.9159
0
LINE
8
BLACK
6
CONTINUOUS
10
129.093
20
-59.9159
11
129.093
21
-59.9159
0
LINE
8
BLACK
6
CONTINUOUS
10
129.093
20
-59.9159
11
129.1
21
-59.9245
0
LINE
8
BLACK
6
CONTINUOUS
10
129.1
20
-59.9245
11
129.104
21
-59.9302
0
LINE
8
BLACK
6
CONTINUOUS
10
129.104
20
-59.9302
11
129.116
21
-59.9519
0
LINE
8
BLACK
6
CONTINUOUS
10
129.116
20
-59.9519
11
129.123
21
-59.9755
0
LINE
8
BLACK
6
CONTINUOUS
10
129.123
20
-59.9755
11
129.125
21
-59.9939
0
LINE
8
BLACK
6
CONTINUOUS
10
129.125
20
-59.9939
11
129.125
21
-59.9939
0
LINE
8
BLACK
6
CONTINUOUS
10
129.125
20
-59.9939
11
129.126
21
-60
0
LINE
8
BLACK
6
CONTINUOUS
10
129.126
20
-60
11
129.125
21
-60.0061
0
LINE
8
BLACK
6
CONTINUOUS
10
129.125
20
-60.0061
11
129.125
21
-61.9939
0
LINE
8
BLACK
6
CONTINUOUS
10
129.125
20
-61.9939
11
129.126
21
-62
0
LINE
8
BLACK
6
CONTINUOUS
10
129.126
20
-62
11
129.125
21
-62.0061
0
LINE
8
BLACK
6
CONTINUOUS
10
129.125
20
-62.0061
11
129.125
21
-62.0061
0
LINE
8
BLACK
6
CONTINUOUS
10
129.125
20
-62.0061
11
129.123
21
-62.0245
0
LINE
8
BLACK
6
CONTINUOUS
10
129.123
20
-62.0245
11
129.116
21
-62.0481
0
LINE
8
BLACK
6
CONTINUOUS
10
129.116
20
-62.0481
11
129.115
21
-62.0491
0
LINE
8
BLACK
6
CONTINUOUS
10
129.115
20
-62.0491
11
129.104
21
-62.0698
0
LINE
8
BLACK
6
CONTINUOUS
10
129.104
20
-62.0698
11
129.093
21
-62.0841
0
LINE
8
BLACK
6
CONTINUOUS
10
129.093
20
-62.0841
11
129.093
21
-62.0841
0
LINE
8
BLACK
6
CONTINUOUS
10
129.093
20
-62.0841
11
129.089
21
-62.0888
0
LINE
8
BLACK
6
CONTINUOUS
10
129.089
20
-62.0888
11
129.084
21
-62.0927
0
LINE
8
BLACK
6
CONTINUOUS
10
129.084
20
-62.0927
11
128.093
21
-63.084
0
LINE
8
BLACK
6
CONTINUOUS
10
128.093
20
-63.084
11
128.089
21
-63.0888
0
LINE
8
BLACK
6
CONTINUOUS
10
128.089
20
-63.0888
11
128.07
21
-63.1044
0
LINE
8
BLACK
6
CONTINUOUS
10
128.07
20
-63.1044
11
128.048
21
-63.116
0
LINE
8
BLACK
6
CONTINUOUS
10
128.048
20
-63.116
11
128.025
21
-63.1232
0
LINE
8
BLACK
6
CONTINUOUS
10
128.025
20
-63.1232
11
128.006
21
-63.125
0
LINE
8
BLACK
6
CONTINUOUS
10
128.006
20
-63.125
11
128.006
21
-63.125
0
LINE
8
BLACK
6
CONTINUOUS
10
128.006
20
-63.125
11
128
21
-63.1256
0
LINE
8
BLACK
6
CONTINUOUS
10
128
20
-63.1256
11
127.994
21
-63.125
0
LINE
8
BLACK
6
CONTINUOUS
10
127.994
20
-63.125
11
126.006
21
-63.125
0
LINE
8
BLACK
6
CONTINUOUS
10
126.006
20
-63.125
11
126
21
-63.1256
0
LINE
8
BLACK
6
CONTINUOUS
10
126
20
-63.1256
11
125.994
21
-63.125
0
LINE
8
BLACK
6
CONTINUOUS
10
125.994
20
-63.125
11
125.994
21
-63.125
0
LINE
8
BLACK
6
CONTINUOUS
10
125.994
20
-63.125
11
125.975
21
-63.1232
0
LINE
8
BLACK
6
CONTINUOUS
10
125.975
20
-63.1232
11
125.952
21
-63.116
0
LINE
8
BLACK
6
CONTINUOUS
10
125.952
20
-63.116
11
125.93
21
-63.1044
0
LINE
8
BLACK
6
CONTINUOUS
10
125.93
20
-63.1044
11
125.924
21
-63.0992
0
LINE
8
BLACK
6
CONTINUOUS
10
125.924
20
-63.0992
11
125.916
21
-63.0927
0
LINE
8
BLACK
6
CONTINUOUS
10
125.916
20
-63.0927
11
125.916
21
-63.0927
0
LINE
8
BLACK
6
CONTINUOUS
10
125.916
20
-63.0927
11
125.911
21
-63.0888
0
LINE
8
BLACK
6
CONTINUOUS
10
125.911
20
-63.0888
11
125.907
21
-63.0841
0
LINE
8
BLACK
6
CONTINUOUS
10
125.907
20
-63.0841
11
124.916
21
-62.0927
0
LINE
8
BLACK
6
CONTINUOUS
10
124.916
20
-62.0927
11
124.911
21
-62.0888
0
LINE
8
BLACK
6
CONTINUOUS
10
124.911
20
-62.0888
11
124.904
21
-62.08
0
LINE
8
BLACK
6
CONTINUOUS
10
124.904
20
-62.08
11
124.896
21
-62.0698
0
LINE
8
BLACK
6
CONTINUOUS
10
124.896
20
-62.0698
11
124.884
21
-62.0481
0
LINE
8
BLACK
6
CONTINUOUS
10
124.884
20
-62.0481
11
124.877
21
-62.0245
0
LINE
8
BLACK
6
CONTINUOUS
10
124.877
20
-62.0245
11
124.874
21
-62
0
LINE
8
BLACK
6
CONTINUOUS
10
124.874
20
-62
11
124.875
21
-61.9939
0
LINE
8
BLACK
6
CONTINUOUS
10
124.875
20
-61.9939
11
124.875
21
-60.0061
0
LINE
8
BLACK
6
CONTINUOUS
10
124.875
20
-60.0061
11
124.874
21
-60
0
LINE
8
BLACK
6
CONTINUOUS
10
124.874
20
-60
11
124.875
21
-59.9939
0
LINE
8
BLACK
6
CONTINUOUS
10
124.875
20
-59.9939
11
124.875
21
-59.9939
0
LINE
8
BLACK
6
CONTINUOUS
10
124.875
20
-59.9939
11
124.877
21
-59.9755
0
LINE
8
BLACK
6
CONTINUOUS
10
124.877
20
-59.9755
11
124.884
21
-59.9519
0
LINE
8
BLACK
6
CONTINUOUS
10
124.884
20
-59.9519
11
124.896
21
-59.9302
0
LINE
8
BLACK
6
CONTINUOUS
10
124.896
20
-59.9302
11
124.911
21
-59.9112
0
LINE
8
BLACK
6
CONTINUOUS
10
124.911
20
-59.9112
11
124.916
21
-59.9073
0
LINE
8
BLACK
6
CONTINUOUS
10
124.916
20
-59.9073
11
125.907
21
-58.9159
0
LINE
8
BLACK
6
CONTINUOUS
10
125.907
20
-58.9159
11
125.911
21
-58.9112
0
LINE
8
BLACK
6
CONTINUOUS
10
125.911
20
-58.9112
11
125.916
21
-58.9073
0
LINE
8
BLACK
6
CONTINUOUS
10
125.916
20
-58.9073
11
125.916
21
-58.9073
0
LINE
8
BLACK
6
CONTINUOUS
10
125.916
20
-58.9073
11
125.93
21
-58.8956
0
LINE
8
BLACK
6
CONTINUOUS
10
125.93
20
-58.8956
11
125.952
21
-58.884
0
LINE
8
BLACK
6
CONTINUOUS
10
125.952
20
-58.884
11
125.975
21
-58.8768
0
LINE
8
BLACK
6
CONTINUOUS
10
125.975
20
-58.8768
11
125.994
21
-58.875
0
LINE
8
BLACK
6
CONTINUOUS
10
125.994
20
-58.875
11
125.994
21
-58.875
0
LINE
8
BLACK
6
CONTINUOUS
10
125.994
20
-58.875
11
126
21
-58.8744
0
LINE
8
BLACK
6
CONTINUOUS
10
126
20
-58.8744
11
126.006
21
-58.875
0
LINE
8
BLACK
6
CONTINUOUS
10
126.006
20
-58.875
11
127.994
21
-58.875
0
LINE
8
BLACK
6
CONTINUOUS
10
127.994
20
-58.875
11
128
21
-58.8744
0
LINE
8
BLACK
6
CONTINUOUS
10
128
20
-58.8744
11
128.006
21
-58.875
0
LINE
8
BLACK
6
CONTINUOUS
10
126.052
20
-59.125
11
125.125
21
-60.0518
0
LINE
8
BLACK
6
CONTINUOUS
10
125.125
20
-60.0518
11
125.125
21
-61.9482
0
LINE
8
BLACK
6
CONTINUOUS
10
125.125
20
-61.9482
11
126.052
21
-62.875
0
LINE
8
BLACK
6
CONTINUOUS
10
126.052
20
-62.875
11
127.948
21
-62.875
0
LINE
8
BLACK
6
CONTINUOUS
10
127.948
20
-62.875
11
128.875
21
-61.9482
0
LINE
8
BLACK
6
CONTINUOUS
10
128.875
20
-61.9482
11
128.875
21
-60.0518
0
LINE
8
BLACK
6
CONTINUOUS
10
128.875
20
-60.0518
11
127.948
21
-59.125
0
LINE
8
BLACK
6
CONTINUOUS
10
127.948
20
-59.125
11
126.052
21
-59.125
0
LINE
8
BLACK
6
CONTINUOUS
10
127.467
20
-59.4615
11
127.758
21
-59.5821
0
LINE
8
BLACK
6
CONTINUOUS
10
127.758
20
-59.5821
11
128.02
21
-59.7572
0
LINE
8
BLACK
6
CONTINUOUS
10
128.02
20
-59.7572
11
128.243
21
-59.9801
0
LINE
8
BLACK
6
CONTINUOUS
10
128.243
20
-59.9801
11
128.418
21
-60.2421
0
LINE
8
BLACK
6
CONTINUOUS
10
128.418
20
-60.2421
11
128.539
21
-60.5333
0
LINE
8
BLACK
6
CONTINUOUS
10
128.539
20
-60.5333
11
128.6
21
-60.8424
0
LINE
8
BLACK
6
CONTINUOUS
10
128.6
20
-60.8424
11
128.6
21
-61.1576
0
LINE
8
BLACK
6
CONTINUOUS
10
128.6
20
-61.1576
11
128.539
21
-61.4667
0
LINE
8
BLACK
6
CONTINUOUS
10
128.539
20
-61.4667
11
128.418
21
-61.7579
0
LINE
8
BLACK
6
CONTINUOUS
10
128.418
20
-61.7579
11
128.243
21
-62.0199
0
LINE
8
BLACK
6
CONTINUOUS
10
128.243
20
-62.0199
11
128.02
21
-62.2428
0
LINE
8
BLACK
6
CONTINUOUS
10
128.02
20
-62.2428
11
127.758
21
-62.4179
0
LINE
8
BLACK
6
CONTINUOUS
10
127.758
20
-62.4179
11
127.467
21
-62.5385
0
LINE
8
BLACK
6
CONTINUOUS
10
127.467
20
-62.5385
11
127.158
21
-62.6
0
LINE
8
BLACK
6
CONTINUOUS
10
127.158
20
-62.6
11
126.842
21
-62.6
0
LINE
8
BLACK
6
CONTINUOUS
10
126.842
20
-62.6
11
126.533
21
-62.5385
0
LINE
8
BLACK
6
CONTINUOUS
10
126.533
20
-62.5385
11
126.242
21
-62.4179
0
LINE
8
BLACK
6
CONTINUOUS
10
126.242
20
-62.4179
11
125.98
21
-62.2428
0
LINE
8
BLACK
6
CONTINUOUS
10
125.98
20
-62.2428
11
125.757
21
-62.0199
0
LINE
8
BLACK
6
CONTINUOUS
10
125.757
20
-62.0199
11
125.582
21
-61.7579
0
LINE
8
BLACK
6
CONTINUOUS
10
125.582
20
-61.7579
11
125.461
21
-61.4667
0
LINE
8
BLACK
6
CONTINUOUS
10
125.461
20
-61.4667
11
125.4
21
-61.1576
0
LINE
8
BLACK
6
CONTINUOUS
10
125.4
20
-61.1576
11
125.4
21
-60.8424
0
LINE
8
BLACK
6
CONTINUOUS
10
125.4
20
-60.8424
11
125.461
21
-60.5333
0
LINE
8
BLACK
6
CONTINUOUS
10
125.461
20
-60.5333
11
125.582
21
-60.2421
0
LINE
8
BLACK
6
CONTINUOUS
10
125.582
20
-60.2421
11
125.757
21
-59.9801
0
LINE
8
BLACK
6
CONTINUOUS
10
125.757
20
-59.9801
11
125.98
21
-59.7572
0
LINE
8
BLACK
6
CONTINUOUS
10
125.98
20
-59.7572
11
126.242
21
-59.5821
0
LINE
8
BLACK
6
CONTINUOUS
10
126.242
20
-59.5821
11
126.533
21
-59.4615
0
LINE
8
BLACK
6
CONTINUOUS
10
126.533
20
-59.4615
11
126.842
21
-59.4
0
LINE
8
BLACK
6
CONTINUOUS
10
126.842
20
-59.4
11
127.158
21
-59.4
0
LINE
8
BLACK
6
CONTINUOUS
10
127.158
20
-59.4
11
127.467
21
-59.4615
0
LINE
8
BLACK
6
CONTINUOUS
10
191.006
20
-58.875
11
191.006
21
-58.875
0
LINE
8
BLACK
6
CONTINUOUS
10
191.006
20
-58.875
11
191.025
21
-58.8768
0
LINE
8
BLACK
6
CONTINUOUS
10
191.025
20
-58.8768
11
191.048
21
-58.884
0
LINE
8
BLACK
6
CONTINUOUS
10
191.048
20
-58.884
11
191.07
21
-58.8956
0
LINE
8
BLACK
6
CONTINUOUS
10
191.07
20
-58.8956
11
191.089
21
-58.9112
0
LINE
8
BLACK
6
CONTINUOUS
10
191.089
20
-58.9112
11
191.093
21
-58.916
0
LINE
8
BLACK
6
CONTINUOUS
10
191.093
20
-58.916
11
192.084
21
-59.9073
0
LINE
8
BLACK
6
CONTINUOUS
10
192.084
20
-59.9073
11
192.089
21
-59.9112
0
LINE
8
BLACK
6
CONTINUOUS
10
192.089
20
-59.9112
11
192.093
21
-59.9159
0
LINE
8
BLACK
6
CONTINUOUS
10
192.093
20
-59.9159
11
192.093
21
-59.9159
0
LINE
8
BLACK
6
CONTINUOUS
10
192.093
20
-59.9159
11
192.1
21
-59.9245
0
LINE
8
BLACK
6
CONTINUOUS
10
192.1
20
-59.9245
11
192.104
21
-59.9302
0
LINE
8
BLACK
6
CONTINUOUS
10
192.104
20
-59.9302
11
192.116
21
-59.9519
0
LINE
8
BLACK
6
CONTINUOUS
10
192.116
20
-59.9519
11
192.123
21
-59.9755
0
LINE
8
BLACK
6
CONTINUOUS
10
192.123
20
-59.9755
11
192.125
21
-59.9939
0
LINE
8
BLACK
6
CONTINUOUS
10
192.125
20
-59.9939
11
192.125
21
-59.9939
0
LINE
8
BLACK
6
CONTINUOUS
10
192.125
20
-59.9939
11
192.126
21
-60
0
LINE
8
BLACK
6
CONTINUOUS
10
192.126
20
-60
11
192.125
21
-60.0061
0
LINE
8
BLACK
6
CONTINUOUS
10
192.125
20
-60.0061
11
192.125
21
-61.9939
0
LINE
8
BLACK
6
CONTINUOUS
10
192.125
20
-61.9939
11
192.126
21
-62
0
LINE
8
BLACK
6
CONTINUOUS
10
192.126
20
-62
11
192.125
21
-62.0061
0
LINE
8
BLACK
6
CONTINUOUS
10
192.125
20
-62.0061
11
192.125
21
-62.0061
0
LINE
8
BLACK
6
CONTINUOUS
10
192.125
20
-62.0061
11
192.123
21
-62.0245
0
LINE
8
BLACK
6
CONTINUOUS
10
192.123
20
-62.0245
11
192.116
21
-62.0481
0
LINE
8
BLACK
6
CONTINUOUS
10
192.116
20
-62.0481
11
192.115
21
-62.0491
0
LINE
8
BLACK
6
CONTINUOUS
10
192.115
20
-62.0491
11
192.104
21
-62.0698
0
LINE
8
BLACK
6
CONTINUOUS
10
192.104
20
-62.0698
11
192.093
21
-62.0841
0
LINE
8
BLACK
6
CONTINUOUS
10
192.093
20
-62.0841
11
192.093
21
-62.0841
0
LINE
8
BLACK
6
CONTINUOUS
10
192.093
20
-62.0841
11
192.089
21
-62.0888
0
LINE
8
BLACK
6
CONTINUOUS
10
192.089
20
-62.0888
11
192.084
21
-62.0927
0
LINE
8
BLACK
6
CONTINUOUS
10
192.084
20
-62.0927
11
191.093
21
-63.084
0
LINE
8
BLACK
6
CONTINUOUS
10
191.093
20
-63.084
11
191.089
21
-63.0888
0
LINE
8
BLACK
6
CONTINUOUS
10
191.089
20
-63.0888
11
191.07
21
-63.1044
0
LINE
8
BLACK
6
CONTINUOUS
10
191.07
20
-63.1044
11
191.048
21
-63.116
0
LINE
8
BLACK
6
CONTINUOUS
10
191.048
20
-63.116
11
191.025
21
-63.1232
0
LINE
8
BLACK
6
CONTINUOUS
10
191.025
20
-63.1232
11
191.006
21
-63.125
0
LINE
8
BLACK
6
CONTINUOUS
10
191.006
20
-63.125
11
191.006
21
-63.125
0
LINE
8
BLACK
6
CONTINUOUS
10
191.006
20
-63.125
11
191
21
-63.1256
0
LINE
8
BLACK
6
CONTINUOUS
10
191
20
-63.1256
11
190.994
21
-63.125
0
LINE
8
BLACK
6
CONTINUOUS
10
190.994
20
-63.125
11
189.006
21
-63.125
0
LINE
8
BLACK
6
CONTINUOUS
10
189.006
20
-63.125
11
189
21
-63.1256
0
LINE
8
BLACK
6
CONTINUOUS
10
189
20
-63.1256
11
188.994
21
-63.125
0
LINE
8
BLACK
6
CONTINUOUS
10
188.994
20
-63.125
11
188.994
21
-63.125
0
LINE
8
BLACK
6
CONTINUOUS
10
188.994
20
-63.125
11
188.975
21
-63.1232
0
LINE
8
BLACK
6
CONTINUOUS
10
188.975
20
-63.1232
11
188.952
21
-63.116
0
LINE
8
BLACK
6
CONTINUOUS
10
188.952
20
-63.116
11
188.93
21
-63.1044
0
LINE
8
BLACK
6
CONTINUOUS
10
188.93
20
-63.1044
11
188.924
21
-63.0992
0
LINE
8
BLACK
6
CONTINUOUS
10
188.924
20
-63.0992
11
188.916
21
-63.0927
0
LINE
8
BLACK
6
CONTINUOUS
10
188.916
20
-63.0927
11
188.916
21
-63.0927
0
LINE
8
BLACK
6
CONTINUOUS
10
188.916
20
-63.0927
11
188.911
21
-63.0888
0
LINE
8
BLACK
6
CONTINUOUS
10
188.911
20
-63.0888
11
188.907
21
-63.0841
0
LINE
8
BLACK
6
CONTINUOUS
10
188.907
20
-63.0841
11
187.916
21
-62.0927
0
LINE
8
BLACK
6
CONTINUOUS
10
187.916
20
-62.0927
11
187.911
21
-62.0888
0
LINE
8
BLACK
6
CONTINUOUS
10
187.911
20
-62.0888
11
187.896
21
-62.0698
0
LINE
8
BLACK
6
CONTINUOUS
10
187.896
20
-62.0698
11
187.884
21
-62.0481
0
LINE
8
BLACK
6
CONTINUOUS
10
187.884
20
-62.0481
11
187.877
21
-62.0245
0
LINE
8
BLACK
6
CONTINUOUS
10
187.877
20
-62.0245
11
187.875
21
-62.0061
0
LINE
8
BLACK
6
CONTINUOUS
10
187.875
20
-62.0061
11
187.875
21
-62.0061
0
LINE
8
BLACK
6
CONTINUOUS
10
187.875
20
-62.0061
11
187.874
21
-62
0
LINE
8
BLACK
6
CONTINUOUS
10
187.874
20
-62
11
187.875
21
-61.9939
0
LINE
8
BLACK
6
CONTINUOUS
10
187.875
20
-61.9939
11
187.875
21
-60.0061
0
LINE
8
BLACK
6
CONTINUOUS
10
187.875
20
-60.0061
11
187.874
21
-60
0
LINE
8
BLACK
6
CONTINUOUS
10
187.874
20
-60
11
187.877
21
-59.9755
0
LINE
8
BLACK
6
CONTINUOUS
10
187.877
20
-59.9755
11
187.884
21
-59.9519
0
LINE
8
BLACK
6
CONTINUOUS
10
187.884
20
-59.9519
11
187.896
21
-59.9302
0
LINE
8
BLACK
6
CONTINUOUS
10
187.896
20
-59.9302
11
187.907
21
-59.9159
0
LINE
8
BLACK
6
CONTINUOUS
10
187.907
20
-59.9159
11
187.907
21
-59.9159
0
LINE
8
BLACK
6
CONTINUOUS
10
187.907
20
-59.9159
11
187.911
21
-59.9112
0
LINE
8
BLACK
6
CONTINUOUS
10
187.911
20
-59.9112
11
187.916
21
-59.9073
0
LINE
8
BLACK
6
CONTINUOUS
10
187.916
20
-59.9073
11
188.907
21
-58.9159
0
LINE
8
BLACK
6
CONTINUOUS
10
188.907
20
-58.9159
11
188.911
21
-58.9112
0
LINE
8
BLACK
6
CONTINUOUS
10
188.911
20
-58.9112
11
188.916
21
-58.9073
0
LINE
8
BLACK
6
CONTINUOUS
10
188.916
20
-58.9073
11
188.916
21
-58.9073
0
LINE
8
BLACK
6
CONTINUOUS
10
188.916
20
-58.9073
11
188.93
21
-58.8956
0
LINE
8
BLACK
6
CONTINUOUS
10
188.93
20
-58.8956
11
188.952
21
-58.884
0
LINE
8
BLACK
6
CONTINUOUS
10
188.952
20
-58.884
11
188.975
21
-58.8768
0
LINE
8
BLACK
6
CONTINUOUS
10
188.975
20
-58.8768
11
188.994
21
-58.875
0
LINE
8
BLACK
6
CONTINUOUS
10
188.994
20
-58.875
11
188.994
21
-58.875
0
LINE
8
BLACK
6
CONTINUOUS
10
188.994
20
-58.875
11
189
21
-58.8744
0
LINE
8
BLACK
6
CONTINUOUS
10
189
20
-58.8744
11
189.006
21
-58.875
0
LINE
8
BLACK
6
CONTINUOUS
10
189.006
20
-58.875
11
190.994
21
-58.875
0
LINE
8
BLACK
6
CONTINUOUS
10
190.994
20
-58.875
11
191
21
-58.8744
0
LINE
8
BLACK
6
CONTINUOUS
10
191
20
-58.8744
11
191.006
21
-58.875
0
LINE
8
BLACK
6
CONTINUOUS
10
189.052
20
-59.125
11
188.125
21
-60.0518
0
LINE
8
BLACK
6
CONTINUOUS
10
188.125
20
-60.0518
11
188.125
21
-61.9482
0
LINE
8
BLACK
6
CONTINUOUS
10
188.125
20
-61.9482
11
189.052
21
-62.875
0
LINE
8
BLACK
6
CONTINUOUS
10
189.052
20
-62.875
11
190.948
21
-62.875
0
LINE
8
BLACK
6
CONTINUOUS
10
190.948
20
-62.875
11
191.875
21
-61.9482
0
LINE
8
BLACK
6
CONTINUOUS
10
191.875
20
-61.9482
11
191.875
21
-60.0518
0
LINE
8
BLACK
6
CONTINUOUS
10
191.875
20
-60.0518
11
190.948
21
-59.125
0
LINE
8
BLACK
6
CONTINUOUS
10
190.948
20
-59.125
11
189.052
21
-59.125
0
LINE
8
BLACK
6
CONTINUOUS
10
190.467
20
-59.4615
11
190.758
21
-59.5821
0
LINE
8
BLACK
6
CONTINUOUS
10
190.758
20
-59.5821
11
191.02
21
-59.7572
0
LINE
8
BLACK
6
CONTINUOUS
10
191.02
20
-59.7572
11
191.243
21
-59.9801
0
LINE
8
BLACK
6
CONTINUOUS
10
191.243
20
-59.9801
11
191.418
21
-60.2421
0
LINE
8
BLACK
6
CONTINUOUS
10
191.418
20
-60.2421
11
191.539
21
-60.5333
0
LINE
8
BLACK
6
CONTINUOUS
10
191.539
20
-60.5333
11
191.6
21
-60.8424
0
LINE
8
BLACK
6
CONTINUOUS
10
191.6
20
-60.8424
11
191.6
21
-61.1576
0
LINE
8
BLACK
6
CONTINUOUS
10
191.6
20
-61.1576
11
191.539
21
-61.4667
0
LINE
8
BLACK
6
CONTINUOUS
10
191.539
20
-61.4667
11
191.418
21
-61.7579
0
LINE
8
BLACK
6
CONTINUOUS
10
191.418
20
-61.7579
11
191.243
21
-62.0199
0
LINE
8
BLACK
6
CONTINUOUS
10
191.243
20
-62.0199
11
191.02
21
-62.2428
0
LINE
8
BLACK
6
CONTINUOUS
10
191.02
20
-62.2428
11
190.758
21
-62.4179
0
LINE
8
BLACK
6
CONTINUOUS
10
190.758
20
-62.4179
11
190.467
21
-62.5385
0
LINE
8
BLACK
6
CONTINUOUS
10
190.467
20
-62.5385
11
190.158
21
-62.6
0
LINE
8
BLACK
6
CONTINUOUS
10
190.158
20
-62.6
11
189.842
21
-62.6
0
LINE
8
BLACK
6
CONTINUOUS
10
189.842
20
-62.6
11
189.533
21
-62.5385
0
LINE
8
BLACK
6
CONTINUOUS
10
189.533
20
-62.5385
11
189.242
21
-62.4179
0
LINE
8
BLACK
6
CONTINUOUS
10
189.242
20
-62.4179
11
188.98
21
-62.2428
0
LINE
8
BLACK
6
CONTINUOUS
10
188.98
20
-62.2428
11
188.757
21
-62.0199
0
LINE
8
BLACK
6
CONTINUOUS
10
188.757
20
-62.0199
11
188.582
21
-61.7579
0
LINE
8
BLACK
6
CONTINUOUS
10
188.582
20
-61.7579
11
188.461
21
-61.4667
0
LINE
8
BLACK
6
CONTINUOUS
10
188.461
20
-61.4667
11
188.4
21
-61.1576
0
LINE
8
BLACK
6
CONTINUOUS
10
188.4
20
-61.1576
11
188.4
21
-60.8424
0
LINE
8
BLACK
6
CONTINUOUS
10
188.4
20
-60.8424
11
188.461
21
-60.5333
0
LINE
8
BLACK
6
CONTINUOUS
10
188.461
20
-60.5333
11
188.582
21
-60.2421
0
LINE
8
BLACK
6
CONTINUOUS
10
188.582
20
-60.2421
11
188.757
21
-59.9801
0
LINE
8
BLACK
6
CONTINUOUS
10
188.757
20
-59.9801
11
188.98
21
-59.7572
0
LINE
8
BLACK
6
CONTINUOUS
10
188.98
20
-59.7572
11
189.242
21
-59.5821
0
LINE
8
BLACK
6
CONTINUOUS
10
189.242
20
-59.5821
11
189.533
21
-59.4615
0
LINE
8
BLACK
6
CONTINUOUS
10
189.533
20
-59.4615
11
189.842
21
-59.4
0
LINE
8
BLACK
6
CONTINUOUS
10
189.842
20
-59.4
11
190.158
21
-59.4
0
LINE
8
BLACK
6
CONTINUOUS
10
190.158
20
-59.4
11
190.467
21
-59.4615
0
CIRCLE
8
BLACK
10
190
20
-86
40
0.175
0
CIRCLE
8
BLACK
10
190
20
-61
40
0.175
0
CIRCLE
8
BLACK
10
127
20
-86
40
0.175
0
CIRCLE
8
BLACK
10
127
20
-61
40
0.175
0
CIRCLE
8
BLACK
10
143.9
20
-77.02
40
0.175
0
CIRCLE
8
BLACK
10
171.94
20
-77.02
40
0.175
0
CIRCLE
8
BLACK
10
152.84
20
-78.54
40
0.175
0
CIRCLE
8
BLACK
10
155.38
20
-78.54
40
0.175
0
CIRCLE
8
BLACK
10
157.92
20
-78.54
40
0.175
0
CIRCLE
8
BLACK
10
160.46
20
-78.54
40
0.175
0
CIRCLE
8
BLACK
10
163
20
-78.54
40
0.175
0
CIRCLE
8
BLACK
10
152.84
20
-76
40
0.175
0
CIRCLE
8
BLACK
10
155.38
20
-76
40
0.175
0
CIRCLE
8
BLACK
10
157.92
20
-76
40
0.175
0
CIRCLE
8
BLACK
10
160.46
20
-76
40
0.175
0
CIRCLE
8
BLACK
10
163
20
-76
40
0.175
0
CIRCLE
8
BLACK
10
133
20
-62
40
0.175
0
CIRCLE
8
BLACK
10
135.54
20
-62
40
0.175
0
CIRCLE
8
BLACK
10
181
20
-62
40
0.175
0
CIRCLE
8
BLACK
10
183.54
20
-62
40
0.175
0
CIRCLE
8
BLACK
10
140.46
20
-62
40
0.175
0
CIRCLE
8
BLACK
10
143
20
-62
40
0.175
0
CIRCLE
8
BLACK
10
173
20
-62
40
0.175
0
CIRCLE
8
BLACK
10
175.54
20
-62
40
0.175
0
CIRCLE
8
BLACK
10
148.46
20
-62
40
0.175
0
CIRCLE
8
BLACK
10
151
20
-62
40
0.175
0
CIRCLE
8
BLACK
10
165
20
-62
40
0.175
0
CIRCLE
8
BLACK
10
167.54
20
-62
40
0.175
0
CIRCLE
8
BLACK
10
157
20
-62
40
0.175
0
CIRCLE
8
BLACK
10
159.54
20
-62
40
0.175
0
CIRCLE
8
BLACK
10
127
20
-61
40
0.2
0
CIRCLE
8
BLACK
10
127
20
-86
40
0.2
0
CIRCLE
8
BLACK
10
190
20
-86
40
0.2
0
CIRCLE
8
BLACK
10
190
20
-61
40
0.2
  0
ENDSEC
  0
EOF
