  0
SECTION
  2
HEADER
  9
$ANGBASE
  50
0.0
  9
$ANGDIR
  70
1
  9
$MEASUREMENT
  70
0
  0
ENDSEC
  0
SECTION
  2
TABLES
  0
TABLE
  2
LTYPE
  70
4
  0
LTYPE
  5
40F
  2
CONTINUOUS
  70
0
  3
Solid line
  72
65
  73
0
  40
0.0
  0
LTYPE
  5
410
  2
DASHDOT
 70
0
  3
Dash Dot ____ _ ____ _
 72
65
 73
4
 40
2.0
 49
1.25
 49
-0.25
 49
0.25
 49
-0.25
  0
LTYPE
  5
411
  2
DASHED
 70
0
  3
Dashed __ __ __ __ __
 72
65
 73
2
 40
0.75
 49
0.5
 49
-0.25
  0
LTYPE
  5
43B
  2
DOTTED
 70
0
  3
Dotted .  .  .  .
 72
65
 73
2
 40
0.2
 49
0.0
 49
-0.2
  0
ENDTAB
  0
TABLE
  2
STYLE
  70
4
  0
STYLE
  2
KICAD
  70
0
  40
0
  41
1
  42
1
  50
0
  71
0
  3
isocp.shx
  0
STYLE
  2
KICADB
  70
0
  40
0
  41
1
  42
1
  50
0
  71
0
  3
isocp.shx
  0
STYLE
  2
KICADI
  70
0
  40
0
  41
1
  42
1
  50
15
  71
0
  3
isocp.shx
  0
STYLE
  2
KICADBI
  70
0
  40
0
  41
1
  42
1
  50
15
  71
0
  3
isocp.shx
  0
ENDTAB
  0
TABLE
  2
LAYER
  70
1
  0
LAYER
  2
BLACK
  70
0
  62
7
  6
CONTINUOUS
  0
ENDTAB
  0
ENDSEC
  0
SECTION
  2
ENTITIES
0
LINE
8
BLACK
6
CONTINUOUS
10
7.09121
20
-3.37068
11
7.09407
21
-3.37187
0
LINE
8
BLACK
6
CONTINUOUS
10
7.09407
20
-3.37187
11
7.09665
21
-3.37359
0
LINE
8
BLACK
6
CONTINUOUS
10
7.09665
20
-3.37359
11
7.09885
21
-3.37579
0
LINE
8
BLACK
6
CONTINUOUS
10
7.09885
20
-3.37579
11
7.10057
21
-3.37837
0
LINE
8
BLACK
6
CONTINUOUS
10
7.10057
20
-3.37837
11
7.10176
21
-3.38123
0
LINE
8
BLACK
6
CONTINUOUS
10
7.10176
20
-3.38123
11
7.10236
21
-3.38428
0
LINE
8
BLACK
6
CONTINUOUS
10
7.10236
20
-3.38428
11
7.10236
21
-3.38738
0
LINE
8
BLACK
6
CONTINUOUS
10
7.10236
20
-3.38738
11
7.10176
21
-3.39042
0
LINE
8
BLACK
6
CONTINUOUS
10
7.10176
20
-3.39042
11
7.10057
21
-3.39329
0
LINE
8
BLACK
6
CONTINUOUS
10
7.10057
20
-3.39329
11
7.09885
21
-3.39587
0
LINE
8
BLACK
6
CONTINUOUS
10
7.09885
20
-3.39587
11
7.09665
21
-3.39806
0
LINE
8
BLACK
6
CONTINUOUS
10
7.09665
20
-3.39806
11
7.09407
21
-3.39978
0
LINE
8
BLACK
6
CONTINUOUS
10
7.09407
20
-3.39978
11
7.09121
21
-3.40097
0
LINE
8
BLACK
6
CONTINUOUS
10
7.09121
20
-3.40097
11
7.08817
21
-3.40157
0
LINE
8
BLACK
6
CONTINUOUS
10
7.08817
20
-3.40157
11
7.08506
21
-3.40157
0
LINE
8
BLACK
6
CONTINUOUS
10
7.08506
20
-3.40157
11
7.08202
21
-3.40097
0
LINE
8
BLACK
6
CONTINUOUS
10
7.08202
20
-3.40097
11
7.07915
21
-3.39978
0
LINE
8
BLACK
6
CONTINUOUS
10
7.07915
20
-3.39978
11
7.07658
21
-3.39806
0
LINE
8
BLACK
6
CONTINUOUS
10
7.07658
20
-3.39806
11
7.07438
21
-3.39587
0
LINE
8
BLACK
6
CONTINUOUS
10
7.07438
20
-3.39587
11
7.07266
21
-3.39329
0
LINE
8
BLACK
6
CONTINUOUS
10
7.07266
20
-3.39329
11
7.07147
21
-3.39042
0
LINE
8
BLACK
6
CONTINUOUS
10
7.07147
20
-3.39042
11
7.07087
21
-3.38738
0
LINE
8
BLACK
6
CONTINUOUS
10
7.07087
20
-3.38738
11
7.07087
21
-3.38428
0
LINE
8
BLACK
6
CONTINUOUS
10
7.07087
20
-3.38428
11
7.07147
21
-3.38123
0
LINE
8
BLACK
6
CONTINUOUS
10
7.07147
20
-3.38123
11
7.07266
21
-3.37837
0
LINE
8
BLACK
6
CONTINUOUS
10
7.07266
20
-3.37837
11
7.07438
21
-3.37579
0
LINE
8
BLACK
6
CONTINUOUS
10
7.07438
20
-3.37579
11
7.07658
21
-3.37359
0
LINE
8
BLACK
6
CONTINUOUS
10
7.07658
20
-3.37359
11
7.07915
21
-3.37187
0
LINE
8
BLACK
6
CONTINUOUS
10
7.07915
20
-3.37187
11
7.08202
21
-3.37068
0
LINE
8
BLACK
6
CONTINUOUS
10
7.08202
20
-3.37068
11
7.08506
21
-3.37008
0
LINE
8
BLACK
6
CONTINUOUS
10
7.08506
20
-3.37008
11
7.08817
21
-3.37008
0
LINE
8
BLACK
6
CONTINUOUS
10
7.08817
20
-3.37008
11
7.09121
21
-3.37068
0
LINE
8
BLACK
6
CONTINUOUS
10
5.35892
20
-3.37068
11
5.36179
21
-3.37187
0
LINE
8
BLACK
6
CONTINUOUS
10
5.36179
20
-3.37187
11
5.36437
21
-3.37359
0
LINE
8
BLACK
6
CONTINUOUS
10
5.36437
20
-3.37359
11
5.36656
21
-3.37579
0
LINE
8
BLACK
6
CONTINUOUS
10
5.36656
20
-3.37579
11
5.36829
21
-3.37837
0
LINE
8
BLACK
6
CONTINUOUS
10
5.36829
20
-3.37837
11
5.36947
21
-3.38123
0
LINE
8
BLACK
6
CONTINUOUS
10
5.36947
20
-3.38123
11
5.37008
21
-3.38428
0
LINE
8
BLACK
6
CONTINUOUS
10
5.37008
20
-3.38428
11
5.37008
21
-3.38738
0
LINE
8
BLACK
6
CONTINUOUS
10
5.37008
20
-3.38738
11
5.36947
21
-3.39042
0
LINE
8
BLACK
6
CONTINUOUS
10
5.36947
20
-3.39042
11
5.36829
21
-3.39329
0
LINE
8
BLACK
6
CONTINUOUS
10
5.36829
20
-3.39329
11
5.36656
21
-3.39587
0
LINE
8
BLACK
6
CONTINUOUS
10
5.36656
20
-3.39587
11
5.36437
21
-3.39806
0
LINE
8
BLACK
6
CONTINUOUS
10
5.36437
20
-3.39806
11
5.36179
21
-3.39978
0
LINE
8
BLACK
6
CONTINUOUS
10
5.36179
20
-3.39978
11
5.35892
21
-3.40097
0
LINE
8
BLACK
6
CONTINUOUS
10
5.35892
20
-3.40097
11
5.35588
21
-3.40157
0
LINE
8
BLACK
6
CONTINUOUS
10
5.35588
20
-3.40157
11
5.35278
21
-3.40157
0
LINE
8
BLACK
6
CONTINUOUS
10
5.35278
20
-3.40157
11
5.34974
21
-3.40097
0
LINE
8
BLACK
6
CONTINUOUS
10
5.34974
20
-3.40097
11
5.34687
21
-3.39978
0
LINE
8
BLACK
6
CONTINUOUS
10
5.34687
20
-3.39978
11
5.34429
21
-3.39806
0
LINE
8
BLACK
6
CONTINUOUS
10
5.34429
20
-3.39806
11
5.3421
21
-3.39587
0
LINE
8
BLACK
6
CONTINUOUS
10
5.3421
20
-3.39587
11
5.34037
21
-3.39329
0
LINE
8
BLACK
6
CONTINUOUS
10
5.34037
20
-3.39329
11
5.33919
21
-3.39042
0
LINE
8
BLACK
6
CONTINUOUS
10
5.33919
20
-3.39042
11
5.33858
21
-3.38738
0
LINE
8
BLACK
6
CONTINUOUS
10
5.33858
20
-3.38738
11
5.33858
21
-3.38428
0
LINE
8
BLACK
6
CONTINUOUS
10
5.33858
20
-3.38428
11
5.33919
21
-3.38123
0
LINE
8
BLACK
6
CONTINUOUS
10
5.33919
20
-3.38123
11
5.34037
21
-3.37837
0
LINE
8
BLACK
6
CONTINUOUS
10
5.34037
20
-3.37837
11
5.3421
21
-3.37579
0
LINE
8
BLACK
6
CONTINUOUS
10
5.3421
20
-3.37579
11
5.34429
21
-3.37359
0
LINE
8
BLACK
6
CONTINUOUS
10
5.34429
20
-3.37359
11
5.34687
21
-3.37187
0
LINE
8
BLACK
6
CONTINUOUS
10
5.34687
20
-3.37187
11
5.34974
21
-3.37068
0
LINE
8
BLACK
6
CONTINUOUS
10
5.34974
20
-3.37068
11
5.35278
21
-3.37008
0
LINE
8
BLACK
6
CONTINUOUS
10
5.35278
20
-3.37008
11
5.35588
21
-3.37008
0
LINE
8
BLACK
6
CONTINUOUS
10
5.35588
20
-3.37008
11
5.35892
21
-3.37068
0
LINE
8
BLACK
6
CONTINUOUS
10
5.67026
20
-3.30224
11
5.67118
21
-3.30252
0
LINE
8
BLACK
6
CONTINUOUS
10
5.67118
20
-3.30252
11
5.67204
21
-3.30297
0
LINE
8
BLACK
6
CONTINUOUS
10
5.67204
20
-3.30297
11
5.67279
21
-3.30359
0
LINE
8
BLACK
6
CONTINUOUS
10
5.67279
20
-3.30359
11
5.6734
21
-3.30434
0
LINE
8
BLACK
6
CONTINUOUS
10
5.6734
20
-3.30434
11
5.67386
21
-3.30519
0
LINE
8
BLACK
6
CONTINUOUS
10
5.67386
20
-3.30519
11
5.67414
21
-3.30612
0
LINE
8
BLACK
6
CONTINUOUS
10
5.67414
20
-3.30612
11
5.67421
21
-3.30685
0
LINE
8
BLACK
6
CONTINUOUS
10
5.67421
20
-3.30685
11
5.67421
21
-3.34154
0
LINE
8
BLACK
6
CONTINUOUS
10
5.67421
20
-3.34154
11
5.7089
21
-3.34154
0
LINE
8
BLACK
6
CONTINUOUS
10
5.7089
20
-3.34154
11
5.70963
21
-3.34161
0
LINE
8
BLACK
6
CONTINUOUS
10
5.70963
20
-3.34161
11
5.71055
21
-3.34189
0
LINE
8
BLACK
6
CONTINUOUS
10
5.71055
20
-3.34189
11
5.71141
21
-3.34235
0
LINE
8
BLACK
6
CONTINUOUS
10
5.71141
20
-3.34235
11
5.71216
21
-3.34296
0
LINE
8
BLACK
6
CONTINUOUS
10
5.71216
20
-3.34296
11
5.71277
21
-3.34371
0
LINE
8
BLACK
6
CONTINUOUS
10
5.71277
20
-3.34371
11
5.71323
21
-3.34456
0
LINE
8
BLACK
6
CONTINUOUS
10
5.71323
20
-3.34456
11
5.71351
21
-3.34549
0
LINE
8
BLACK
6
CONTINUOUS
10
5.71351
20
-3.34549
11
5.71361
21
-3.34646
0
LINE
8
BLACK
6
CONTINUOUS
10
5.71361
20
-3.34646
11
5.71351
21
-3.34742
0
LINE
8
BLACK
6
CONTINUOUS
10
5.71351
20
-3.34742
11
5.71323
21
-3.34835
0
LINE
8
BLACK
6
CONTINUOUS
10
5.71323
20
-3.34835
11
5.71277
21
-3.3492
0
LINE
8
BLACK
6
CONTINUOUS
10
5.71277
20
-3.3492
11
5.71216
21
-3.34995
0
LINE
8
BLACK
6
CONTINUOUS
10
5.71216
20
-3.34995
11
5.71141
21
-3.35057
0
LINE
8
BLACK
6
CONTINUOUS
10
5.71141
20
-3.35057
11
5.71055
21
-3.35103
0
LINE
8
BLACK
6
CONTINUOUS
10
5.71055
20
-3.35103
11
5.70963
21
-3.35131
0
LINE
8
BLACK
6
CONTINUOUS
10
5.70963
20
-3.35131
11
5.7089
21
-3.35138
0
LINE
8
BLACK
6
CONTINUOUS
10
5.7089
20
-3.35138
11
5.67421
21
-3.35138
0
LINE
8
BLACK
6
CONTINUOUS
10
5.67421
20
-3.35138
11
5.67421
21
-3.38607
0
LINE
8
BLACK
6
CONTINUOUS
10
5.67421
20
-3.38607
11
5.67414
21
-3.38679
0
LINE
8
BLACK
6
CONTINUOUS
10
5.67414
20
-3.38679
11
5.67386
21
-3.38772
0
LINE
8
BLACK
6
CONTINUOUS
10
5.67386
20
-3.38772
11
5.6734
21
-3.38857
0
LINE
8
BLACK
6
CONTINUOUS
10
5.6734
20
-3.38857
11
5.67279
21
-3.38932
0
LINE
8
BLACK
6
CONTINUOUS
10
5.67279
20
-3.38932
11
5.67204
21
-3.38994
0
LINE
8
BLACK
6
CONTINUOUS
10
5.67204
20
-3.38994
11
5.67118
21
-3.3904
0
LINE
8
BLACK
6
CONTINUOUS
10
5.67118
20
-3.3904
11
5.67026
21
-3.39068
0
LINE
8
BLACK
6
CONTINUOUS
10
5.67026
20
-3.39068
11
5.66929
21
-3.39077
0
LINE
8
BLACK
6
CONTINUOUS
10
5.66929
20
-3.39077
11
5.66833
21
-3.39068
0
LINE
8
BLACK
6
CONTINUOUS
10
5.66833
20
-3.39068
11
5.6674
21
-3.3904
0
LINE
8
BLACK
6
CONTINUOUS
10
5.6674
20
-3.3904
11
5.66654
21
-3.38994
0
LINE
8
BLACK
6
CONTINUOUS
10
5.66654
20
-3.38994
11
5.66579
21
-3.38932
0
LINE
8
BLACK
6
CONTINUOUS
10
5.66579
20
-3.38932
11
5.66518
21
-3.38857
0
LINE
8
BLACK
6
CONTINUOUS
10
5.66518
20
-3.38857
11
5.66472
21
-3.38772
0
LINE
8
BLACK
6
CONTINUOUS
10
5.66472
20
-3.38772
11
5.66444
21
-3.38679
0
LINE
8
BLACK
6
CONTINUOUS
10
5.66444
20
-3.38679
11
5.66437
21
-3.38607
0
LINE
8
BLACK
6
CONTINUOUS
10
5.66437
20
-3.38607
11
5.66437
21
-3.35138
0
LINE
8
BLACK
6
CONTINUOUS
10
5.66437
20
-3.35138
11
5.62968
21
-3.35138
0
LINE
8
BLACK
6
CONTINUOUS
10
5.62968
20
-3.35138
11
5.62896
21
-3.35131
0
LINE
8
BLACK
6
CONTINUOUS
10
5.62896
20
-3.35131
11
5.62803
21
-3.35103
0
LINE
8
BLACK
6
CONTINUOUS
10
5.62803
20
-3.35103
11
5.62717
21
-3.35057
0
LINE
8
BLACK
6
CONTINUOUS
10
5.62717
20
-3.35057
11
5.62642
21
-3.34995
0
LINE
8
BLACK
6
CONTINUOUS
10
5.62642
20
-3.34995
11
5.62581
21
-3.3492
0
LINE
8
BLACK
6
CONTINUOUS
10
5.62581
20
-3.3492
11
5.62535
21
-3.34835
0
LINE
8
BLACK
6
CONTINUOUS
10
5.62535
20
-3.34835
11
5.62507
21
-3.34742
0
LINE
8
BLACK
6
CONTINUOUS
10
5.62507
20
-3.34742
11
5.62498
21
-3.34646
0
LINE
8
BLACK
6
CONTINUOUS
10
5.62498
20
-3.34646
11
5.62507
21
-3.34549
0
LINE
8
BLACK
6
CONTINUOUS
10
5.62507
20
-3.34549
11
5.62535
21
-3.34456
0
LINE
8
BLACK
6
CONTINUOUS
10
5.62535
20
-3.34456
11
5.62581
21
-3.34371
0
LINE
8
BLACK
6
CONTINUOUS
10
5.62581
20
-3.34371
11
5.62642
21
-3.34296
0
LINE
8
BLACK
6
CONTINUOUS
10
5.62642
20
-3.34296
11
5.62717
21
-3.34235
0
LINE
8
BLACK
6
CONTINUOUS
10
5.62717
20
-3.34235
11
5.62803
21
-3.34189
0
LINE
8
BLACK
6
CONTINUOUS
10
5.62803
20
-3.34189
11
5.62896
21
-3.34161
0
LINE
8
BLACK
6
CONTINUOUS
10
5.62896
20
-3.34161
11
5.62968
21
-3.34154
0
LINE
8
BLACK
6
CONTINUOUS
10
5.62968
20
-3.34154
11
5.66437
21
-3.34154
0
LINE
8
BLACK
6
CONTINUOUS
10
5.66437
20
-3.34154
11
5.66437
21
-3.30685
0
LINE
8
BLACK
6
CONTINUOUS
10
5.66437
20
-3.30685
11
5.66444
21
-3.30612
0
LINE
8
BLACK
6
CONTINUOUS
10
5.66444
20
-3.30612
11
5.66472
21
-3.30519
0
LINE
8
BLACK
6
CONTINUOUS
10
5.66472
20
-3.30519
11
5.66518
21
-3.30434
0
LINE
8
BLACK
6
CONTINUOUS
10
5.66518
20
-3.30434
11
5.66579
21
-3.30359
0
LINE
8
BLACK
6
CONTINUOUS
10
5.66579
20
-3.30359
11
5.66654
21
-3.30297
0
LINE
8
BLACK
6
CONTINUOUS
10
5.66654
20
-3.30297
11
5.6674
21
-3.30252
0
LINE
8
BLACK
6
CONTINUOUS
10
5.6674
20
-3.30252
11
5.66833
21
-3.30224
0
LINE
8
BLACK
6
CONTINUOUS
10
5.66833
20
-3.30224
11
5.66929
21
-3.30214
0
LINE
8
BLACK
6
CONTINUOUS
10
5.66929
20
-3.30214
11
5.67026
21
-3.30224
0
LINE
8
BLACK
6
CONTINUOUS
10
7.21244
20
-2.40214
11
7.21986
21
-2.4044
0
LINE
8
BLACK
6
CONTINUOUS
10
7.21986
20
-2.4044
11
7.22563
21
-2.40748
0
LINE
8
BLACK
6
CONTINUOUS
10
7.22563
20
-2.40748
11
7.23819
21
-2.40748
0
LINE
8
BLACK
6
CONTINUOUS
10
7.23819
20
-2.40748
11
7.23819
21
-2.42003
0
LINE
8
BLACK
6
CONTINUOUS
10
7.23819
20
-2.42003
11
7.24127
21
-2.42581
0
LINE
8
BLACK
6
CONTINUOUS
10
7.24127
20
-2.42581
11
7.24352
21
-2.43323
0
LINE
8
BLACK
6
CONTINUOUS
10
7.24352
20
-2.43323
11
7.24409
21
-2.43901
0
LINE
8
BLACK
6
CONTINUOUS
10
7.24409
20
-2.43901
11
7.24409
21
-2.48225
0
LINE
8
BLACK
6
CONTINUOUS
10
7.24409
20
-2.48225
11
7.24352
21
-2.48803
0
LINE
8
BLACK
6
CONTINUOUS
10
7.24352
20
-2.48803
11
7.24127
21
-2.49545
0
LINE
8
BLACK
6
CONTINUOUS
10
7.24127
20
-2.49545
11
7.23762
21
-2.50229
0
LINE
8
BLACK
6
CONTINUOUS
10
7.23762
20
-2.50229
11
7.23425
21
-2.50639
0
LINE
8
BLACK
6
CONTINUOUS
10
7.23425
20
-2.50639
11
7.23425
21
-2.8332
0
LINE
8
BLACK
6
CONTINUOUS
10
7.23425
20
-2.8332
11
7.23439
21
-2.83465
0
LINE
8
BLACK
6
CONTINUOUS
10
7.23439
20
-2.83465
11
7.23425
21
-2.8361
0
LINE
8
BLACK
6
CONTINUOUS
10
7.23425
20
-2.8361
11
7.23425
21
-2.8361
0
LINE
8
BLACK
6
CONTINUOUS
10
7.23425
20
-2.8361
11
7.23382
21
-2.84043
0
LINE
8
BLACK
6
CONTINUOUS
10
7.23382
20
-2.84043
11
7.23382
21
-2.84043
0
LINE
8
BLACK
6
CONTINUOUS
10
7.23382
20
-2.84043
11
7.23214
21
-2.846
0
LINE
8
BLACK
6
CONTINUOUS
10
7.23214
20
-2.846
11
7.22939
21
-2.85113
0
LINE
8
BLACK
6
CONTINUOUS
10
7.22939
20
-2.85113
11
7.22691
21
-2.85416
0
LINE
8
BLACK
6
CONTINUOUS
10
7.22691
20
-2.85416
11
7.2257
21
-2.85563
0
LINE
8
BLACK
6
CONTINUOUS
10
7.2257
20
-2.85563
11
7.22458
21
-2.85655
0
LINE
8
BLACK
6
CONTINUOUS
10
7.22458
20
-2.85655
11
6.75419
21
-3.32694
0
LINE
8
BLACK
6
CONTINUOUS
10
6.75419
20
-3.32694
11
6.75326
21
-3.32807
0
LINE
8
BLACK
6
CONTINUOUS
10
6.75326
20
-3.32807
11
6.74877
21
-3.33176
0
LINE
8
BLACK
6
CONTINUOUS
10
6.74877
20
-3.33176
11
6.74364
21
-3.3345
0
LINE
8
BLACK
6
CONTINUOUS
10
6.74364
20
-3.3345
11
6.73807
21
-3.33619
0
LINE
8
BLACK
6
CONTINUOUS
10
6.73807
20
-3.33619
11
6.73373
21
-3.33661
0
LINE
8
BLACK
6
CONTINUOUS
10
6.73373
20
-3.33661
11
6.73373
21
-3.33661
0
LINE
8
BLACK
6
CONTINUOUS
10
6.73373
20
-3.33661
11
6.73228
21
-3.33676
0
LINE
8
BLACK
6
CONTINUOUS
10
6.73228
20
-3.33676
11
6.73083
21
-3.33661
0
LINE
8
BLACK
6
CONTINUOUS
10
6.73083
20
-3.33661
11
6.41877
21
-3.33661
0
LINE
8
BLACK
6
CONTINUOUS
10
6.41877
20
-3.33661
11
6.41732
21
-3.33676
0
LINE
8
BLACK
6
CONTINUOUS
10
6.41732
20
-3.33676
11
6.41587
21
-3.33661
0
LINE
8
BLACK
6
CONTINUOUS
10
6.41587
20
-3.33661
11
6.41587
21
-3.33661
0
LINE
8
BLACK
6
CONTINUOUS
10
6.41587
20
-3.33661
11
6.41153
21
-3.33619
0
LINE
8
BLACK
6
CONTINUOUS
10
6.41153
20
-3.33619
11
6.40597
21
-3.3345
0
LINE
8
BLACK
6
CONTINUOUS
10
6.40597
20
-3.3345
11
6.40084
21
-3.33176
0
LINE
8
BLACK
6
CONTINUOUS
10
6.40084
20
-3.33176
11
6.39634
21
-3.32807
0
LINE
8
BLACK
6
CONTINUOUS
10
6.39634
20
-3.32807
11
6.39542
21
-3.32694
0
LINE
8
BLACK
6
CONTINUOUS
10
6.39542
20
-3.32694
11
6.27621
21
-3.20773
0
LINE
8
BLACK
6
CONTINUOUS
10
6.27621
20
-3.20773
11
6.27508
21
-3.20681
0
LINE
8
BLACK
6
CONTINUOUS
10
6.27508
20
-3.20681
11
6.27416
21
-3.20568
0
LINE
8
BLACK
6
CONTINUOUS
10
6.27416
20
-3.20568
11
6.27416
21
-3.20568
0
LINE
8
BLACK
6
CONTINUOUS
10
6.27416
20
-3.20568
11
6.27308
21
-3.20436
0
LINE
8
BLACK
6
CONTINUOUS
10
6.27308
20
-3.20436
11
6.27139
21
-3.20231
0
LINE
8
BLACK
6
CONTINUOUS
10
6.27139
20
-3.20231
11
6.26865
21
-3.19718
0
LINE
8
BLACK
6
CONTINUOUS
10
6.26865
20
-3.19718
11
6.26865
21
-3.19718
0
LINE
8
BLACK
6
CONTINUOUS
10
6.26865
20
-3.19718
11
6.26696
21
-3.19162
0
LINE
8
BLACK
6
CONTINUOUS
10
6.26696
20
-3.19162
11
6.26639
21
-3.18583
0
LINE
8
BLACK
6
CONTINUOUS
10
6.26639
20
-3.18583
11
6.26654
21
-3.18438
0
LINE
8
BLACK
6
CONTINUOUS
10
6.26654
20
-3.18438
11
6.26654
21
-3.10817
0
LINE
8
BLACK
6
CONTINUOUS
10
6.26654
20
-3.10817
11
6.26641
21
-3.10798
0
LINE
8
BLACK
6
CONTINUOUS
10
6.26641
20
-3.10798
11
6.26388
21
-3.10189
0
LINE
8
BLACK
6
CONTINUOUS
10
6.26388
20
-3.10189
11
6.2626
21
-3.09542
0
LINE
8
BLACK
6
CONTINUOUS
10
6.2626
20
-3.09542
11
6.2626
21
-3.08883
0
LINE
8
BLACK
6
CONTINUOUS
10
6.2626
20
-3.08883
11
6.26388
21
-3.08236
0
LINE
8
BLACK
6
CONTINUOUS
10
6.26388
20
-3.08236
11
6.26641
21
-3.07627
0
LINE
8
BLACK
6
CONTINUOUS
10
6.26641
20
-3.07627
11
6.27007
21
-3.07079
0
LINE
8
BLACK
6
CONTINUOUS
10
6.27007
20
-3.07079
11
6.27473
21
-3.06613
0
LINE
8
BLACK
6
CONTINUOUS
10
6.27473
20
-3.06613
11
6.28021
21
-3.06247
0
LINE
8
BLACK
6
CONTINUOUS
10
6.28021
20
-3.06247
11
6.2863
21
-3.05995
0
LINE
8
BLACK
6
CONTINUOUS
10
6.2863
20
-3.05995
11
6.29277
21
-3.05866
0
LINE
8
BLACK
6
CONTINUOUS
10
6.29277
20
-3.05866
11
6.29936
21
-3.05866
0
LINE
8
BLACK
6
CONTINUOUS
10
6.29936
20
-3.05866
11
6.30582
21
-3.05995
0
LINE
8
BLACK
6
CONTINUOUS
10
6.30582
20
-3.05995
11
6.31191
21
-3.06247
0
LINE
8
BLACK
6
CONTINUOUS
10
6.31191
20
-3.06247
11
6.3174
21
-3.06613
0
LINE
8
BLACK
6
CONTINUOUS
10
6.3174
20
-3.06613
11
6.32206
21
-3.07079
0
LINE
8
BLACK
6
CONTINUOUS
10
6.32206
20
-3.07079
11
6.32572
21
-3.07627
0
LINE
8
BLACK
6
CONTINUOUS
10
6.32572
20
-3.07627
11
6.32824
21
-3.08236
0
LINE
8
BLACK
6
CONTINUOUS
10
6.32824
20
-3.08236
11
6.32953
21
-3.08883
0
LINE
8
BLACK
6
CONTINUOUS
10
6.32953
20
-3.08883
11
6.32953
21
-3.09542
0
LINE
8
BLACK
6
CONTINUOUS
10
6.32953
20
-3.09542
11
6.32824
21
-3.10189
0
LINE
8
BLACK
6
CONTINUOUS
10
6.32824
20
-3.10189
11
6.32572
21
-3.10798
0
LINE
8
BLACK
6
CONTINUOUS
10
6.32572
20
-3.10798
11
6.32559
21
-3.10817
0
LINE
8
BLACK
6
CONTINUOUS
10
6.32559
20
-3.10817
11
6.32559
21
-3.1736
0
LINE
8
BLACK
6
CONTINUOUS
10
6.32559
20
-3.1736
11
6.42955
21
-3.27756
0
LINE
8
BLACK
6
CONTINUOUS
10
6.42955
20
-3.27756
11
6.72005
21
-3.27756
0
LINE
8
BLACK
6
CONTINUOUS
10
6.72005
20
-3.27756
11
7.1752
21
-2.82241
0
LINE
8
BLACK
6
CONTINUOUS
10
7.1752
20
-2.82241
11
7.1752
21
-2.50639
0
LINE
8
BLACK
6
CONTINUOUS
10
7.1752
20
-2.50639
11
7.17183
21
-2.50229
0
LINE
8
BLACK
6
CONTINUOUS
10
7.17183
20
-2.50229
11
7.16818
21
-2.49545
0
LINE
8
BLACK
6
CONTINUOUS
10
7.16818
20
-2.49545
11
7.16592
21
-2.48803
0
LINE
8
BLACK
6
CONTINUOUS
10
7.16592
20
-2.48803
11
7.16535
21
-2.48225
0
LINE
8
BLACK
6
CONTINUOUS
10
7.16535
20
-2.48225
11
7.16535
21
-2.43901
0
LINE
8
BLACK
6
CONTINUOUS
10
7.16535
20
-2.43901
11
7.16592
21
-2.43323
0
LINE
8
BLACK
6
CONTINUOUS
10
7.16592
20
-2.43323
11
7.16818
21
-2.42581
0
LINE
8
BLACK
6
CONTINUOUS
10
7.16818
20
-2.42581
11
7.17126
21
-2.42003
0
LINE
8
BLACK
6
CONTINUOUS
10
7.17126
20
-2.42003
11
7.17126
21
-2.40748
0
LINE
8
BLACK
6
CONTINUOUS
10
7.17126
20
-2.40748
11
7.18381
21
-2.40748
0
LINE
8
BLACK
6
CONTINUOUS
10
7.18381
20
-2.40748
11
7.18959
21
-2.4044
0
LINE
8
BLACK
6
CONTINUOUS
10
7.18959
20
-2.4044
11
7.19701
21
-2.40214
0
LINE
8
BLACK
6
CONTINUOUS
10
7.19701
20
-2.40214
11
7.20472
21
-2.40138
0
LINE
8
BLACK
6
CONTINUOUS
10
7.20472
20
-2.40138
11
7.21244
21
-2.40214
0
LINE
8
BLACK
6
CONTINUOUS
10
6.93685
20
-2.40214
11
6.94427
21
-2.4044
0
LINE
8
BLACK
6
CONTINUOUS
10
6.94427
20
-2.4044
11
6.95004
21
-2.40748
0
LINE
8
BLACK
6
CONTINUOUS
10
6.95004
20
-2.40748
11
6.9626
21
-2.40748
0
LINE
8
BLACK
6
CONTINUOUS
10
6.9626
20
-2.40748
11
6.9626
21
-2.42003
0
LINE
8
BLACK
6
CONTINUOUS
10
6.9626
20
-2.42003
11
6.96568
21
-2.42581
0
LINE
8
BLACK
6
CONTINUOUS
10
6.96568
20
-2.42581
11
6.96793
21
-2.43323
0
LINE
8
BLACK
6
CONTINUOUS
10
6.96793
20
-2.43323
11
6.9685
21
-2.43901
0
LINE
8
BLACK
6
CONTINUOUS
10
6.9685
20
-2.43901
11
6.9685
21
-2.48225
0
LINE
8
BLACK
6
CONTINUOUS
10
6.9685
20
-2.48225
11
6.96793
21
-2.48803
0
LINE
8
BLACK
6
CONTINUOUS
10
6.96793
20
-2.48803
11
6.96568
21
-2.49545
0
LINE
8
BLACK
6
CONTINUOUS
10
6.96568
20
-2.49545
11
6.96203
21
-2.50229
0
LINE
8
BLACK
6
CONTINUOUS
10
6.96203
20
-2.50229
11
6.95866
21
-2.50639
0
LINE
8
BLACK
6
CONTINUOUS
10
6.95866
20
-2.50639
11
6.95866
21
-2.87257
0
LINE
8
BLACK
6
CONTINUOUS
10
6.95866
20
-2.87257
11
6.9588
21
-2.87402
0
LINE
8
BLACK
6
CONTINUOUS
10
6.9588
20
-2.87402
11
6.95866
21
-2.87547
0
LINE
8
BLACK
6
CONTINUOUS
10
6.95866
20
-2.87547
11
6.95866
21
-2.87547
0
LINE
8
BLACK
6
CONTINUOUS
10
6.95866
20
-2.87547
11
6.95823
21
-2.8798
0
LINE
8
BLACK
6
CONTINUOUS
10
6.95823
20
-2.8798
11
6.95655
21
-2.88537
0
LINE
8
BLACK
6
CONTINUOUS
10
6.95655
20
-2.88537
11
6.9538
21
-2.8905
0
LINE
8
BLACK
6
CONTINUOUS
10
6.9538
20
-2.8905
11
6.9538
21
-2.8905
0
LINE
8
BLACK
6
CONTINUOUS
10
6.9538
20
-2.8905
11
6.95104
21
-2.89387
0
LINE
8
BLACK
6
CONTINUOUS
10
6.95104
20
-2.89387
11
6.95104
21
-2.89387
0
LINE
8
BLACK
6
CONTINUOUS
10
6.95104
20
-2.89387
11
6.95011
21
-2.895
0
LINE
8
BLACK
6
CONTINUOUS
10
6.95011
20
-2.895
11
6.94899
21
-2.89592
0
LINE
8
BLACK
6
CONTINUOUS
10
6.94899
20
-2.89592
11
6.63608
21
-3.20883
0
LINE
8
BLACK
6
CONTINUOUS
10
6.63608
20
-3.20883
11
6.63515
21
-3.20996
0
LINE
8
BLACK
6
CONTINUOUS
10
6.63515
20
-3.20996
11
6.63066
21
-3.21365
0
LINE
8
BLACK
6
CONTINUOUS
10
6.63066
20
-3.21365
11
6.62553
21
-3.21639
0
LINE
8
BLACK
6
CONTINUOUS
10
6.62553
20
-3.21639
11
6.61996
21
-3.21808
0
LINE
8
BLACK
6
CONTINUOUS
10
6.61996
20
-3.21808
11
6.61562
21
-3.2185
0
LINE
8
BLACK
6
CONTINUOUS
10
6.61562
20
-3.2185
11
6.61562
21
-3.2185
0
LINE
8
BLACK
6
CONTINUOUS
10
6.61562
20
-3.2185
11
6.61417
21
-3.21865
0
LINE
8
BLACK
6
CONTINUOUS
10
6.61417
20
-3.21865
11
6.61272
21
-3.2185
0
LINE
8
BLACK
6
CONTINUOUS
10
6.61272
20
-3.2185
11
6.44704
21
-3.2185
0
LINE
8
BLACK
6
CONTINUOUS
10
6.44704
20
-3.2185
11
6.44559
21
-3.21865
0
LINE
8
BLACK
6
CONTINUOUS
10
6.44559
20
-3.21865
11
6.44414
21
-3.2185
0
LINE
8
BLACK
6
CONTINUOUS
10
6.44414
20
-3.2185
11
6.44414
21
-3.2185
0
LINE
8
BLACK
6
CONTINUOUS
10
6.44414
20
-3.2185
11
6.4398
21
-3.21808
0
LINE
8
BLACK
6
CONTINUOUS
10
6.4398
20
-3.21808
11
6.43423
21
-3.21639
0
LINE
8
BLACK
6
CONTINUOUS
10
6.43423
20
-3.21639
11
6.4291
21
-3.21365
0
LINE
8
BLACK
6
CONTINUOUS
10
6.4291
20
-3.21365
11
6.42461
21
-3.20996
0
LINE
8
BLACK
6
CONTINUOUS
10
6.42461
20
-3.20996
11
6.42368
21
-3.20883
0
LINE
8
BLACK
6
CONTINUOUS
10
6.42368
20
-3.20883
11
6.37621
21
-3.16136
0
LINE
8
BLACK
6
CONTINUOUS
10
6.37621
20
-3.16136
11
6.37508
21
-3.16043
0
LINE
8
BLACK
6
CONTINUOUS
10
6.37508
20
-3.16043
11
6.37416
21
-3.15931
0
LINE
8
BLACK
6
CONTINUOUS
10
6.37416
20
-3.15931
11
6.37416
21
-3.15931
0
LINE
8
BLACK
6
CONTINUOUS
10
6.37416
20
-3.15931
11
6.37204
21
-3.15673
0
LINE
8
BLACK
6
CONTINUOUS
10
6.37204
20
-3.15673
11
6.37139
21
-3.15594
0
LINE
8
BLACK
6
CONTINUOUS
10
6.37139
20
-3.15594
11
6.36865
21
-3.15081
0
LINE
8
BLACK
6
CONTINUOUS
10
6.36865
20
-3.15081
11
6.36865
21
-3.15081
0
LINE
8
BLACK
6
CONTINUOUS
10
6.36865
20
-3.15081
11
6.36696
21
-3.14524
0
LINE
8
BLACK
6
CONTINUOUS
10
6.36696
20
-3.14524
11
6.36639
21
-3.13945
0
LINE
8
BLACK
6
CONTINUOUS
10
6.36639
20
-3.13945
11
6.36654
21
-3.138
0
LINE
8
BLACK
6
CONTINUOUS
10
6.36654
20
-3.138
11
6.36654
21
-3.10817
0
LINE
8
BLACK
6
CONTINUOUS
10
6.36654
20
-3.10817
11
6.36641
21
-3.10798
0
LINE
8
BLACK
6
CONTINUOUS
10
6.36641
20
-3.10798
11
6.36388
21
-3.10189
0
LINE
8
BLACK
6
CONTINUOUS
10
6.36388
20
-3.10189
11
6.3626
21
-3.09542
0
LINE
8
BLACK
6
CONTINUOUS
10
6.3626
20
-3.09542
11
6.3626
21
-3.08883
0
LINE
8
BLACK
6
CONTINUOUS
10
6.3626
20
-3.08883
11
6.36388
21
-3.08236
0
LINE
8
BLACK
6
CONTINUOUS
10
6.36388
20
-3.08236
11
6.36641
21
-3.07627
0
LINE
8
BLACK
6
CONTINUOUS
10
6.36641
20
-3.07627
11
6.37007
21
-3.07079
0
LINE
8
BLACK
6
CONTINUOUS
10
6.37007
20
-3.07079
11
6.37473
21
-3.06613
0
LINE
8
BLACK
6
CONTINUOUS
10
6.37473
20
-3.06613
11
6.38021
21
-3.06247
0
LINE
8
BLACK
6
CONTINUOUS
10
6.38021
20
-3.06247
11
6.3863
21
-3.05995
0
LINE
8
BLACK
6
CONTINUOUS
10
6.3863
20
-3.05995
11
6.39277
21
-3.05866
0
LINE
8
BLACK
6
CONTINUOUS
10
6.39277
20
-3.05866
11
6.39936
21
-3.05866
0
LINE
8
BLACK
6
CONTINUOUS
10
6.39936
20
-3.05866
11
6.40582
21
-3.05995
0
LINE
8
BLACK
6
CONTINUOUS
10
6.40582
20
-3.05995
11
6.41191
21
-3.06247
0
LINE
8
BLACK
6
CONTINUOUS
10
6.41191
20
-3.06247
11
6.4174
21
-3.06613
0
LINE
8
BLACK
6
CONTINUOUS
10
6.4174
20
-3.06613
11
6.42206
21
-3.07079
0
LINE
8
BLACK
6
CONTINUOUS
10
6.42206
20
-3.07079
11
6.42572
21
-3.07627
0
LINE
8
BLACK
6
CONTINUOUS
10
6.42572
20
-3.07627
11
6.42824
21
-3.08236
0
LINE
8
BLACK
6
CONTINUOUS
10
6.42824
20
-3.08236
11
6.42953
21
-3.08883
0
LINE
8
BLACK
6
CONTINUOUS
10
6.42953
20
-3.08883
11
6.42953
21
-3.09542
0
LINE
8
BLACK
6
CONTINUOUS
10
6.42953
20
-3.09542
11
6.42824
21
-3.10189
0
LINE
8
BLACK
6
CONTINUOUS
10
6.42824
20
-3.10189
11
6.42572
21
-3.10798
0
LINE
8
BLACK
6
CONTINUOUS
10
6.42572
20
-3.10798
11
6.42559
21
-3.10817
0
LINE
8
BLACK
6
CONTINUOUS
10
6.42559
20
-3.10817
11
6.42559
21
-3.12722
0
LINE
8
BLACK
6
CONTINUOUS
10
6.42559
20
-3.12722
11
6.45782
21
-3.15945
0
LINE
8
BLACK
6
CONTINUOUS
10
6.45782
20
-3.15945
11
6.60194
21
-3.15945
0
LINE
8
BLACK
6
CONTINUOUS
10
6.60194
20
-3.15945
11
6.89961
21
-2.86178
0
LINE
8
BLACK
6
CONTINUOUS
10
6.89961
20
-2.86178
11
6.89961
21
-2.50639
0
LINE
8
BLACK
6
CONTINUOUS
10
6.89961
20
-2.50639
11
6.89624
21
-2.50229
0
LINE
8
BLACK
6
CONTINUOUS
10
6.89624
20
-2.50229
11
6.89258
21
-2.49545
0
LINE
8
BLACK
6
CONTINUOUS
10
6.89258
20
-2.49545
11
6.89033
21
-2.48803
0
LINE
8
BLACK
6
CONTINUOUS
10
6.89033
20
-2.48803
11
6.88976
21
-2.48225
0
LINE
8
BLACK
6
CONTINUOUS
10
6.88976
20
-2.48225
11
6.88976
21
-2.43901
0
LINE
8
BLACK
6
CONTINUOUS
10
6.88976
20
-2.43901
11
6.89033
21
-2.43323
0
LINE
8
BLACK
6
CONTINUOUS
10
6.89033
20
-2.43323
11
6.89258
21
-2.42581
0
LINE
8
BLACK
6
CONTINUOUS
10
6.89258
20
-2.42581
11
6.89567
21
-2.42003
0
LINE
8
BLACK
6
CONTINUOUS
10
6.89567
20
-2.42003
11
6.89567
21
-2.40748
0
LINE
8
BLACK
6
CONTINUOUS
10
6.89567
20
-2.40748
11
6.90822
21
-2.40748
0
LINE
8
BLACK
6
CONTINUOUS
10
6.90822
20
-2.40748
11
6.91399
21
-2.4044
0
LINE
8
BLACK
6
CONTINUOUS
10
6.91399
20
-2.4044
11
6.92142
21
-2.40214
0
LINE
8
BLACK
6
CONTINUOUS
10
6.92142
20
-2.40214
11
6.92913
21
-2.40138
0
LINE
8
BLACK
6
CONTINUOUS
10
6.92913
20
-2.40138
11
6.93685
21
-2.40214
0
LINE
8
BLACK
6
CONTINUOUS
10
7.05689
20
-2.27433
11
7.06617
21
-2.27715
0
LINE
8
BLACK
6
CONTINUOUS
10
7.06617
20
-2.27715
11
7.07472
21
-2.28172
0
LINE
8
BLACK
6
CONTINUOUS
10
7.07472
20
-2.28172
11
7.08221
21
-2.28787
0
LINE
8
BLACK
6
CONTINUOUS
10
7.08221
20
-2.28787
11
7.08836
21
-2.29536
0
LINE
8
BLACK
6
CONTINUOUS
10
7.08836
20
-2.29536
11
7.09293
21
-2.30391
0
LINE
8
BLACK
6
CONTINUOUS
10
7.09293
20
-2.30391
11
7.09574
21
-2.31319
0
LINE
8
BLACK
6
CONTINUOUS
10
7.09574
20
-2.31319
11
7.09669
21
-2.32283
0
LINE
8
BLACK
6
CONTINUOUS
10
7.09669
20
-2.32283
11
7.09601
21
-2.32984
0
LINE
8
BLACK
6
CONTINUOUS
10
7.09601
20
-2.32984
11
7.12458
21
-2.35841
0
LINE
8
BLACK
6
CONTINUOUS
10
7.12458
20
-2.35841
11
7.1257
21
-2.35933
0
LINE
8
BLACK
6
CONTINUOUS
10
7.1257
20
-2.35933
11
7.12663
21
-2.36046
0
LINE
8
BLACK
6
CONTINUOUS
10
7.12663
20
-2.36046
11
7.12663
21
-2.36046
0
LINE
8
BLACK
6
CONTINUOUS
10
7.12663
20
-2.36046
11
7.12673
21
-2.36058
0
LINE
8
BLACK
6
CONTINUOUS
10
7.12673
20
-2.36058
11
7.12939
21
-2.36383
0
LINE
8
BLACK
6
CONTINUOUS
10
7.12939
20
-2.36383
11
7.13214
21
-2.36896
0
LINE
8
BLACK
6
CONTINUOUS
10
7.13214
20
-2.36896
11
7.13382
21
-2.37453
0
LINE
8
BLACK
6
CONTINUOUS
10
7.13382
20
-2.37453
11
7.13425
21
-2.37886
0
LINE
8
BLACK
6
CONTINUOUS
10
7.13425
20
-2.37886
11
7.13425
21
-2.37887
0
LINE
8
BLACK
6
CONTINUOUS
10
7.13425
20
-2.37887
11
7.13439
21
-2.38031
0
LINE
8
BLACK
6
CONTINUOUS
10
7.13439
20
-2.38031
11
7.13425
21
-2.38176
0
LINE
8
BLACK
6
CONTINUOUS
10
7.13425
20
-2.38176
11
7.13425
21
-2.4249
0
LINE
8
BLACK
6
CONTINUOUS
10
7.13425
20
-2.4249
11
7.13438
21
-2.42509
0
LINE
8
BLACK
6
CONTINUOUS
10
7.13438
20
-2.42509
11
7.1369
21
-2.43118
0
LINE
8
BLACK
6
CONTINUOUS
10
7.1369
20
-2.43118
11
7.13819
21
-2.43765
0
LINE
8
BLACK
6
CONTINUOUS
10
7.13819
20
-2.43765
11
7.13819
21
-2.44424
0
LINE
8
BLACK
6
CONTINUOUS
10
7.13819
20
-2.44424
11
7.1369
21
-2.45071
0
LINE
8
BLACK
6
CONTINUOUS
10
7.1369
20
-2.45071
11
7.13438
21
-2.4568
0
LINE
8
BLACK
6
CONTINUOUS
10
7.13438
20
-2.4568
11
7.13072
21
-2.46228
0
LINE
8
BLACK
6
CONTINUOUS
10
7.13072
20
-2.46228
11
7.12606
21
-2.46694
0
LINE
8
BLACK
6
CONTINUOUS
10
7.12606
20
-2.46694
11
7.12058
21
-2.4706
0
LINE
8
BLACK
6
CONTINUOUS
10
7.12058
20
-2.4706
11
7.11449
21
-2.47312
0
LINE
8
BLACK
6
CONTINUOUS
10
7.11449
20
-2.47312
11
7.10802
21
-2.47441
0
LINE
8
BLACK
6
CONTINUOUS
10
7.10802
20
-2.47441
11
7.10143
21
-2.47441
0
LINE
8
BLACK
6
CONTINUOUS
10
7.10143
20
-2.47441
11
7.09496
21
-2.47312
0
LINE
8
BLACK
6
CONTINUOUS
10
7.09496
20
-2.47312
11
7.08887
21
-2.4706
0
LINE
8
BLACK
6
CONTINUOUS
10
7.08887
20
-2.4706
11
7.08339
21
-2.46694
0
LINE
8
BLACK
6
CONTINUOUS
10
7.08339
20
-2.46694
11
7.07873
21
-2.46228
0
LINE
8
BLACK
6
CONTINUOUS
10
7.07873
20
-2.46228
11
7.07507
21
-2.4568
0
LINE
8
BLACK
6
CONTINUOUS
10
7.07507
20
-2.4568
11
7.07255
21
-2.45071
0
LINE
8
BLACK
6
CONTINUOUS
10
7.07255
20
-2.45071
11
7.0725
21
-2.45048
0
LINE
8
BLACK
6
CONTINUOUS
10
7.0725
20
-2.45048
11
6.99407
21
-2.37205
0
LINE
8
BLACK
6
CONTINUOUS
10
6.99407
20
-2.37205
11
6.88231
21
-2.37205
0
LINE
8
BLACK
6
CONTINUOUS
10
6.88231
20
-2.37205
11
6.85866
21
-2.3957
0
LINE
8
BLACK
6
CONTINUOUS
10
6.85866
20
-2.3957
11
6.85866
21
-2.4249
0
LINE
8
BLACK
6
CONTINUOUS
10
6.85866
20
-2.4249
11
6.85879
21
-2.42509
0
LINE
8
BLACK
6
CONTINUOUS
10
6.85879
20
-2.42509
11
6.86131
21
-2.43118
0
LINE
8
BLACK
6
CONTINUOUS
10
6.86131
20
-2.43118
11
6.8626
21
-2.43765
0
LINE
8
BLACK
6
CONTINUOUS
10
6.8626
20
-2.43765
11
6.8626
21
-2.44424
0
LINE
8
BLACK
6
CONTINUOUS
10
6.8626
20
-2.44424
11
6.86131
21
-2.45071
0
LINE
8
BLACK
6
CONTINUOUS
10
6.86131
20
-2.45071
11
6.85879
21
-2.4568
0
LINE
8
BLACK
6
CONTINUOUS
10
6.85879
20
-2.4568
11
6.85513
21
-2.46228
0
LINE
8
BLACK
6
CONTINUOUS
10
6.85513
20
-2.46228
11
6.85047
21
-2.46694
0
LINE
8
BLACK
6
CONTINUOUS
10
6.85047
20
-2.46694
11
6.84499
21
-2.4706
0
LINE
8
BLACK
6
CONTINUOUS
10
6.84499
20
-2.4706
11
6.8389
21
-2.47312
0
LINE
8
BLACK
6
CONTINUOUS
10
6.8389
20
-2.47312
11
6.83243
21
-2.47441
0
LINE
8
BLACK
6
CONTINUOUS
10
6.83243
20
-2.47441
11
6.82584
21
-2.47441
0
LINE
8
BLACK
6
CONTINUOUS
10
6.82584
20
-2.47441
11
6.81937
21
-2.47312
0
LINE
8
BLACK
6
CONTINUOUS
10
6.81937
20
-2.47312
11
6.81328
21
-2.4706
0
LINE
8
BLACK
6
CONTINUOUS
10
6.81328
20
-2.4706
11
6.8078
21
-2.46694
0
LINE
8
BLACK
6
CONTINUOUS
10
6.8078
20
-2.46694
11
6.80314
21
-2.46228
0
LINE
8
BLACK
6
CONTINUOUS
10
6.80314
20
-2.46228
11
6.79948
21
-2.4568
0
LINE
8
BLACK
6
CONTINUOUS
10
6.79948
20
-2.4568
11
6.79696
21
-2.45071
0
LINE
8
BLACK
6
CONTINUOUS
10
6.79696
20
-2.45071
11
6.79567
21
-2.44424
0
LINE
8
BLACK
6
CONTINUOUS
10
6.79567
20
-2.44424
11
6.79567
21
-2.43765
0
LINE
8
BLACK
6
CONTINUOUS
10
6.79567
20
-2.43765
11
6.79696
21
-2.43118
0
LINE
8
BLACK
6
CONTINUOUS
10
6.79696
20
-2.43118
11
6.79948
21
-2.42509
0
LINE
8
BLACK
6
CONTINUOUS
10
6.79948
20
-2.42509
11
6.79961
21
-2.4249
0
LINE
8
BLACK
6
CONTINUOUS
10
6.79961
20
-2.4249
11
6.79961
21
-2.39255
0
LINE
8
BLACK
6
CONTINUOUS
10
6.79961
20
-2.39255
11
6.77911
21
-2.37205
0
LINE
8
BLACK
6
CONTINUOUS
10
6.77911
20
-2.37205
11
6.56735
21
-2.37205
0
LINE
8
BLACK
6
CONTINUOUS
10
6.56735
20
-2.37205
11
6.5437
21
-2.3957
0
LINE
8
BLACK
6
CONTINUOUS
10
6.5437
20
-2.3957
11
6.5437
21
-2.4249
0
LINE
8
BLACK
6
CONTINUOUS
10
6.5437
20
-2.4249
11
6.54383
21
-2.42509
0
LINE
8
BLACK
6
CONTINUOUS
10
6.54383
20
-2.42509
11
6.54635
21
-2.43118
0
LINE
8
BLACK
6
CONTINUOUS
10
6.54635
20
-2.43118
11
6.54764
21
-2.43765
0
LINE
8
BLACK
6
CONTINUOUS
10
6.54764
20
-2.43765
11
6.54764
21
-2.44424
0
LINE
8
BLACK
6
CONTINUOUS
10
6.54764
20
-2.44424
11
6.54635
21
-2.45071
0
LINE
8
BLACK
6
CONTINUOUS
10
6.54635
20
-2.45071
11
6.54383
21
-2.4568
0
LINE
8
BLACK
6
CONTINUOUS
10
6.54383
20
-2.4568
11
6.54017
21
-2.46228
0
LINE
8
BLACK
6
CONTINUOUS
10
6.54017
20
-2.46228
11
6.53551
21
-2.46694
0
LINE
8
BLACK
6
CONTINUOUS
10
6.53551
20
-2.46694
11
6.53002
21
-2.4706
0
LINE
8
BLACK
6
CONTINUOUS
10
6.53002
20
-2.4706
11
6.52393
21
-2.47312
0
LINE
8
BLACK
6
CONTINUOUS
10
6.52393
20
-2.47312
11
6.51747
21
-2.47441
0
LINE
8
BLACK
6
CONTINUOUS
10
6.51747
20
-2.47441
11
6.51088
21
-2.47441
0
LINE
8
BLACK
6
CONTINUOUS
10
6.51088
20
-2.47441
11
6.50441
21
-2.47312
0
LINE
8
BLACK
6
CONTINUOUS
10
6.50441
20
-2.47312
11
6.49832
21
-2.4706
0
LINE
8
BLACK
6
CONTINUOUS
10
6.49832
20
-2.4706
11
6.49284
21
-2.46694
0
LINE
8
BLACK
6
CONTINUOUS
10
6.49284
20
-2.46694
11
6.48818
21
-2.46228
0
LINE
8
BLACK
6
CONTINUOUS
10
6.48818
20
-2.46228
11
6.48452
21
-2.4568
0
LINE
8
BLACK
6
CONTINUOUS
10
6.48452
20
-2.4568
11
6.48199
21
-2.45071
0
LINE
8
BLACK
6
CONTINUOUS
10
6.48199
20
-2.45071
11
6.48071
21
-2.44424
0
LINE
8
BLACK
6
CONTINUOUS
10
6.48071
20
-2.44424
11
6.48071
21
-2.43765
0
LINE
8
BLACK
6
CONTINUOUS
10
6.48071
20
-2.43765
11
6.48199
21
-2.43118
0
LINE
8
BLACK
6
CONTINUOUS
10
6.48199
20
-2.43118
11
6.48452
21
-2.42509
0
LINE
8
BLACK
6
CONTINUOUS
10
6.48452
20
-2.42509
11
6.48465
21
-2.4249
0
LINE
8
BLACK
6
CONTINUOUS
10
6.48465
20
-2.4249
11
6.48465
21
-2.39255
0
LINE
8
BLACK
6
CONTINUOUS
10
6.48465
20
-2.39255
11
6.46415
21
-2.37205
0
LINE
8
BLACK
6
CONTINUOUS
10
6.46415
20
-2.37205
11
6.25239
21
-2.37205
0
LINE
8
BLACK
6
CONTINUOUS
10
6.25239
20
-2.37205
11
6.22874
21
-2.3957
0
LINE
8
BLACK
6
CONTINUOUS
10
6.22874
20
-2.3957
11
6.22874
21
-2.4249
0
LINE
8
BLACK
6
CONTINUOUS
10
6.22874
20
-2.4249
11
6.22887
21
-2.42509
0
LINE
8
BLACK
6
CONTINUOUS
10
6.22887
20
-2.42509
11
6.23139
21
-2.43118
0
LINE
8
BLACK
6
CONTINUOUS
10
6.23139
20
-2.43118
11
6.23268
21
-2.43765
0
LINE
8
BLACK
6
CONTINUOUS
10
6.23268
20
-2.43765
11
6.23268
21
-2.44424
0
LINE
8
BLACK
6
CONTINUOUS
10
6.23268
20
-2.44424
11
6.23139
21
-2.45071
0
LINE
8
BLACK
6
CONTINUOUS
10
6.23139
20
-2.45071
11
6.22887
21
-2.4568
0
LINE
8
BLACK
6
CONTINUOUS
10
6.22887
20
-2.4568
11
6.22521
21
-2.46228
0
LINE
8
BLACK
6
CONTINUOUS
10
6.22521
20
-2.46228
11
6.22055
21
-2.46694
0
LINE
8
BLACK
6
CONTINUOUS
10
6.22055
20
-2.46694
11
6.21506
21
-2.4706
0
LINE
8
BLACK
6
CONTINUOUS
10
6.21506
20
-2.4706
11
6.20897
21
-2.47312
0
LINE
8
BLACK
6
CONTINUOUS
10
6.20897
20
-2.47312
11
6.20251
21
-2.47441
0
LINE
8
BLACK
6
CONTINUOUS
10
6.20251
20
-2.47441
11
6.19592
21
-2.47441
0
LINE
8
BLACK
6
CONTINUOUS
10
6.19592
20
-2.47441
11
6.18945
21
-2.47312
0
LINE
8
BLACK
6
CONTINUOUS
10
6.18945
20
-2.47312
11
6.18336
21
-2.4706
0
LINE
8
BLACK
6
CONTINUOUS
10
6.18336
20
-2.4706
11
6.17788
21
-2.46694
0
LINE
8
BLACK
6
CONTINUOUS
10
6.17788
20
-2.46694
11
6.17322
21
-2.46228
0
LINE
8
BLACK
6
CONTINUOUS
10
6.17322
20
-2.46228
11
6.16956
21
-2.4568
0
LINE
8
BLACK
6
CONTINUOUS
10
6.16956
20
-2.4568
11
6.16703
21
-2.45071
0
LINE
8
BLACK
6
CONTINUOUS
10
6.16703
20
-2.45071
11
6.16575
21
-2.44424
0
LINE
8
BLACK
6
CONTINUOUS
10
6.16575
20
-2.44424
11
6.16575
21
-2.43765
0
LINE
8
BLACK
6
CONTINUOUS
10
6.16575
20
-2.43765
11
6.16703
21
-2.43118
0
LINE
8
BLACK
6
CONTINUOUS
10
6.16703
20
-2.43118
11
6.16956
21
-2.42509
0
LINE
8
BLACK
6
CONTINUOUS
10
6.16956
20
-2.42509
11
6.16969
21
-2.4249
0
LINE
8
BLACK
6
CONTINUOUS
10
6.16969
20
-2.4249
11
6.16969
21
-2.39255
0
LINE
8
BLACK
6
CONTINUOUS
10
6.16969
20
-2.39255
11
6.14919
21
-2.37205
0
LINE
8
BLACK
6
CONTINUOUS
10
6.14919
20
-2.37205
11
5.93023
21
-2.37205
0
LINE
8
BLACK
6
CONTINUOUS
10
5.93023
20
-2.37205
11
5.92977
21
-2.37356
0
LINE
8
BLACK
6
CONTINUOUS
10
5.92977
20
-2.37356
11
5.92703
21
-2.37869
0
LINE
8
BLACK
6
CONTINUOUS
10
5.92703
20
-2.37869
11
5.92427
21
-2.38206
0
LINE
8
BLACK
6
CONTINUOUS
10
5.92427
20
-2.38206
11
5.91378
21
-2.39255
0
LINE
8
BLACK
6
CONTINUOUS
10
5.91378
20
-2.39255
11
5.91378
21
-2.4249
0
LINE
8
BLACK
6
CONTINUOUS
10
5.91378
20
-2.4249
11
5.91391
21
-2.42509
0
LINE
8
BLACK
6
CONTINUOUS
10
5.91391
20
-2.42509
11
5.91643
21
-2.43118
0
LINE
8
BLACK
6
CONTINUOUS
10
5.91643
20
-2.43118
11
5.91772
21
-2.43765
0
LINE
8
BLACK
6
CONTINUOUS
10
5.91772
20
-2.43765
11
5.91772
21
-2.44424
0
LINE
8
BLACK
6
CONTINUOUS
10
5.91772
20
-2.44424
11
5.91643
21
-2.45071
0
LINE
8
BLACK
6
CONTINUOUS
10
5.91643
20
-2.45071
11
5.91391
21
-2.4568
0
LINE
8
BLACK
6
CONTINUOUS
10
5.91391
20
-2.4568
11
5.91025
21
-2.46228
0
LINE
8
BLACK
6
CONTINUOUS
10
5.91025
20
-2.46228
11
5.90558
21
-2.46694
0
LINE
8
BLACK
6
CONTINUOUS
10
5.90558
20
-2.46694
11
5.9001
21
-2.4706
0
LINE
8
BLACK
6
CONTINUOUS
10
5.9001
20
-2.4706
11
5.89401
21
-2.47312
0
LINE
8
BLACK
6
CONTINUOUS
10
5.89401
20
-2.47312
11
5.88755
21
-2.47441
0
LINE
8
BLACK
6
CONTINUOUS
10
5.88755
20
-2.47441
11
5.88096
21
-2.47441
0
LINE
8
BLACK
6
CONTINUOUS
10
5.88096
20
-2.47441
11
5.87449
21
-2.47312
0
LINE
8
BLACK
6
CONTINUOUS
10
5.87449
20
-2.47312
11
5.8684
21
-2.4706
0
LINE
8
BLACK
6
CONTINUOUS
10
5.8684
20
-2.4706
11
5.86292
21
-2.46694
0
LINE
8
BLACK
6
CONTINUOUS
10
5.86292
20
-2.46694
11
5.85826
21
-2.46228
0
LINE
8
BLACK
6
CONTINUOUS
10
5.85826
20
-2.46228
11
5.8546
21
-2.4568
0
LINE
8
BLACK
6
CONTINUOUS
10
5.8546
20
-2.4568
11
5.85207
21
-2.45071
0
LINE
8
BLACK
6
CONTINUOUS
10
5.85207
20
-2.45071
11
5.85079
21
-2.44424
0
LINE
8
BLACK
6
CONTINUOUS
10
5.85079
20
-2.44424
11
5.85079
21
-2.43765
0
LINE
8
BLACK
6
CONTINUOUS
10
5.85079
20
-2.43765
11
5.85207
21
-2.43118
0
LINE
8
BLACK
6
CONTINUOUS
10
5.85207
20
-2.43118
11
5.8546
21
-2.42509
0
LINE
8
BLACK
6
CONTINUOUS
10
5.8546
20
-2.42509
11
5.85472
21
-2.4249
0
LINE
8
BLACK
6
CONTINUOUS
10
5.85472
20
-2.4249
11
5.85472
21
-2.39255
0
LINE
8
BLACK
6
CONTINUOUS
10
5.85472
20
-2.39255
11
5.83423
21
-2.37205
0
LINE
8
BLACK
6
CONTINUOUS
10
5.83423
20
-2.37205
11
5.60743
21
-2.37205
0
LINE
8
BLACK
6
CONTINUOUS
10
5.60743
20
-2.37205
11
5.60426
21
-2.37591
0
LINE
8
BLACK
6
CONTINUOUS
10
5.60426
20
-2.37591
11
5.59882
21
-2.38038
0
LINE
8
BLACK
6
CONTINUOUS
10
5.59882
20
-2.38038
11
5.59882
21
-2.4249
0
LINE
8
BLACK
6
CONTINUOUS
10
5.59882
20
-2.4249
11
5.59895
21
-2.42509
0
LINE
8
BLACK
6
CONTINUOUS
10
5.59895
20
-2.42509
11
5.60147
21
-2.43118
0
LINE
8
BLACK
6
CONTINUOUS
10
5.60147
20
-2.43118
11
5.60276
21
-2.43765
0
LINE
8
BLACK
6
CONTINUOUS
10
5.60276
20
-2.43765
11
5.60276
21
-2.44424
0
LINE
8
BLACK
6
CONTINUOUS
10
5.60276
20
-2.44424
11
5.60147
21
-2.45071
0
LINE
8
BLACK
6
CONTINUOUS
10
5.60147
20
-2.45071
11
5.59895
21
-2.4568
0
LINE
8
BLACK
6
CONTINUOUS
10
5.59895
20
-2.4568
11
5.59528
21
-2.46228
0
LINE
8
BLACK
6
CONTINUOUS
10
5.59528
20
-2.46228
11
5.59062
21
-2.46694
0
LINE
8
BLACK
6
CONTINUOUS
10
5.59062
20
-2.46694
11
5.58514
21
-2.4706
0
LINE
8
BLACK
6
CONTINUOUS
10
5.58514
20
-2.4706
11
5.57905
21
-2.47312
0
LINE
8
BLACK
6
CONTINUOUS
10
5.57905
20
-2.47312
11
5.57259
21
-2.47441
0
LINE
8
BLACK
6
CONTINUOUS
10
5.57259
20
-2.47441
11
5.566
21
-2.47441
0
LINE
8
BLACK
6
CONTINUOUS
10
5.566
20
-2.47441
11
5.55953
21
-2.47312
0
LINE
8
BLACK
6
CONTINUOUS
10
5.55953
20
-2.47312
11
5.55344
21
-2.4706
0
LINE
8
BLACK
6
CONTINUOUS
10
5.55344
20
-2.4706
11
5.54796
21
-2.46694
0
LINE
8
BLACK
6
CONTINUOUS
10
5.54796
20
-2.46694
11
5.5433
21
-2.46228
0
LINE
8
BLACK
6
CONTINUOUS
10
5.5433
20
-2.46228
11
5.53964
21
-2.4568
0
LINE
8
BLACK
6
CONTINUOUS
10
5.53964
20
-2.4568
11
5.53711
21
-2.45071
0
LINE
8
BLACK
6
CONTINUOUS
10
5.53711
20
-2.45071
11
5.53583
21
-2.44424
0
LINE
8
BLACK
6
CONTINUOUS
10
5.53583
20
-2.44424
11
5.53583
21
-2.43765
0
LINE
8
BLACK
6
CONTINUOUS
10
5.53583
20
-2.43765
11
5.53711
21
-2.43118
0
LINE
8
BLACK
6
CONTINUOUS
10
5.53711
20
-2.43118
11
5.53964
21
-2.42509
0
LINE
8
BLACK
6
CONTINUOUS
10
5.53964
20
-2.42509
11
5.53976
21
-2.4249
0
LINE
8
BLACK
6
CONTINUOUS
10
5.53976
20
-2.4249
11
5.53976
21
-2.38038
0
LINE
8
BLACK
6
CONTINUOUS
10
5.53976
20
-2.38038
11
5.5362
21
-2.37745
0
LINE
8
BLACK
6
CONTINUOUS
10
5.5362
20
-2.37745
11
5.5308
21
-2.37205
0
LINE
8
BLACK
6
CONTINUOUS
10
5.5308
20
-2.37205
11
5.30354
21
-2.37205
0
LINE
8
BLACK
6
CONTINUOUS
10
5.30354
20
-2.37205
11
5.30354
21
-2.43853
0
LINE
8
BLACK
6
CONTINUOUS
10
5.30354
20
-2.43853
11
5.30378
21
-2.44094
0
LINE
8
BLACK
6
CONTINUOUS
10
5.30378
20
-2.44094
11
5.30354
21
-2.44336
0
LINE
8
BLACK
6
CONTINUOUS
10
5.30354
20
-2.44336
11
5.30354
21
-2.44336
0
LINE
8
BLACK
6
CONTINUOUS
10
5.30354
20
-2.44336
11
5.30283
21
-2.45059
0
LINE
8
BLACK
6
CONTINUOUS
10
5.30283
20
-2.45059
11
5.30002
21
-2.45987
0
LINE
8
BLACK
6
CONTINUOUS
10
5.30002
20
-2.45987
11
5.29545
21
-2.46842
0
LINE
8
BLACK
6
CONTINUOUS
10
5.29545
20
-2.46842
11
5.2893
21
-2.47591
0
LINE
8
BLACK
6
CONTINUOUS
10
5.2893
20
-2.47591
11
5.28742
21
-2.47745
0
LINE
8
BLACK
6
CONTINUOUS
10
5.28742
20
-2.47745
11
5.24606
21
-2.51881
0
LINE
8
BLACK
6
CONTINUOUS
10
5.24606
20
-2.51881
11
5.24606
21
-2.73552
0
LINE
8
BLACK
6
CONTINUOUS
10
5.24606
20
-2.73552
11
5.55346
21
-3.04291
0
LINE
8
BLACK
6
CONTINUOUS
10
5.55346
20
-3.04291
11
6.06654
21
-3.04291
0
LINE
8
BLACK
6
CONTINUOUS
10
6.06654
20
-3.04291
11
6.06654
21
-3.00817
0
LINE
8
BLACK
6
CONTINUOUS
10
6.06654
20
-3.00817
11
6.06641
21
-3.00798
0
LINE
8
BLACK
6
CONTINUOUS
10
6.06641
20
-3.00798
11
6.06388
21
-3.00189
0
LINE
8
BLACK
6
CONTINUOUS
10
6.06388
20
-3.00189
11
6.0626
21
-2.99542
0
LINE
8
BLACK
6
CONTINUOUS
10
6.0626
20
-2.99542
11
6.0626
21
-2.98883
0
LINE
8
BLACK
6
CONTINUOUS
10
6.0626
20
-2.98883
11
6.06388
21
-2.98236
0
LINE
8
BLACK
6
CONTINUOUS
10
6.06388
20
-2.98236
11
6.06641
21
-2.97627
0
LINE
8
BLACK
6
CONTINUOUS
10
6.06641
20
-2.97627
11
6.07007
21
-2.97079
0
LINE
8
BLACK
6
CONTINUOUS
10
6.07007
20
-2.97079
11
6.07473
21
-2.96613
0
LINE
8
BLACK
6
CONTINUOUS
10
6.07473
20
-2.96613
11
6.08021
21
-2.96247
0
LINE
8
BLACK
6
CONTINUOUS
10
6.08021
20
-2.96247
11
6.0863
21
-2.95995
0
LINE
8
BLACK
6
CONTINUOUS
10
6.0863
20
-2.95995
11
6.09277
21
-2.95866
0
LINE
8
BLACK
6
CONTINUOUS
10
6.09277
20
-2.95866
11
6.09936
21
-2.95866
0
LINE
8
BLACK
6
CONTINUOUS
10
6.09936
20
-2.95866
11
6.10582
21
-2.95995
0
LINE
8
BLACK
6
CONTINUOUS
10
6.10582
20
-2.95995
11
6.11191
21
-2.96247
0
LINE
8
BLACK
6
CONTINUOUS
10
6.11191
20
-2.96247
11
6.1174
21
-2.96613
0
LINE
8
BLACK
6
CONTINUOUS
10
6.1174
20
-2.96613
11
6.12206
21
-2.97079
0
LINE
8
BLACK
6
CONTINUOUS
10
6.12206
20
-2.97079
11
6.12572
21
-2.97627
0
LINE
8
BLACK
6
CONTINUOUS
10
6.12572
20
-2.97627
11
6.12824
21
-2.98236
0
LINE
8
BLACK
6
CONTINUOUS
10
6.12824
20
-2.98236
11
6.12953
21
-2.98883
0
LINE
8
BLACK
6
CONTINUOUS
10
6.12953
20
-2.98883
11
6.12953
21
-2.99542
0
LINE
8
BLACK
6
CONTINUOUS
10
6.12953
20
-2.99542
11
6.12824
21
-3.00189
0
LINE
8
BLACK
6
CONTINUOUS
10
6.12824
20
-3.00189
11
6.12572
21
-3.00798
0
LINE
8
BLACK
6
CONTINUOUS
10
6.12572
20
-3.00798
11
6.12559
21
-3.00817
0
LINE
8
BLACK
6
CONTINUOUS
10
6.12559
20
-3.00817
11
6.12559
21
-3.0527
0
LINE
8
BLACK
6
CONTINUOUS
10
6.12559
20
-3.0527
11
6.13103
21
-3.05716
0
LINE
8
BLACK
6
CONTINUOUS
10
6.13103
20
-3.05716
11
6.13549
21
-3.0626
0
LINE
8
BLACK
6
CONTINUOUS
10
6.13549
20
-3.0626
11
6.18002
21
-3.0626
0
LINE
8
BLACK
6
CONTINUOUS
10
6.18002
20
-3.0626
11
6.18021
21
-3.06247
0
LINE
8
BLACK
6
CONTINUOUS
10
6.18021
20
-3.06247
11
6.1863
21
-3.05995
0
LINE
8
BLACK
6
CONTINUOUS
10
6.1863
20
-3.05995
11
6.19277
21
-3.05866
0
LINE
8
BLACK
6
CONTINUOUS
10
6.19277
20
-3.05866
11
6.19936
21
-3.05866
0
LINE
8
BLACK
6
CONTINUOUS
10
6.19936
20
-3.05866
11
6.20582
21
-3.05995
0
LINE
8
BLACK
6
CONTINUOUS
10
6.20582
20
-3.05995
11
6.21191
21
-3.06247
0
LINE
8
BLACK
6
CONTINUOUS
10
6.21191
20
-3.06247
11
6.2174
21
-3.06613
0
LINE
8
BLACK
6
CONTINUOUS
10
6.2174
20
-3.06613
11
6.22206
21
-3.07079
0
LINE
8
BLACK
6
CONTINUOUS
10
6.22206
20
-3.07079
11
6.22572
21
-3.07627
0
LINE
8
BLACK
6
CONTINUOUS
10
6.22572
20
-3.07627
11
6.22824
21
-3.08236
0
LINE
8
BLACK
6
CONTINUOUS
10
6.22824
20
-3.08236
11
6.22953
21
-3.08883
0
LINE
8
BLACK
6
CONTINUOUS
10
6.22953
20
-3.08883
11
6.22953
21
-3.09542
0
LINE
8
BLACK
6
CONTINUOUS
10
6.22953
20
-3.09542
11
6.22824
21
-3.10189
0
LINE
8
BLACK
6
CONTINUOUS
10
6.22824
20
-3.10189
11
6.22572
21
-3.10798
0
LINE
8
BLACK
6
CONTINUOUS
10
6.22572
20
-3.10798
11
6.22206
21
-3.11346
0
LINE
8
BLACK
6
CONTINUOUS
10
6.22206
20
-3.11346
11
6.2174
21
-3.11812
0
LINE
8
BLACK
6
CONTINUOUS
10
6.2174
20
-3.11812
11
6.21191
21
-3.12178
0
LINE
8
BLACK
6
CONTINUOUS
10
6.21191
20
-3.12178
11
6.20582
21
-3.1243
0
LINE
8
BLACK
6
CONTINUOUS
10
6.20582
20
-3.1243
11
6.19936
21
-3.12559
0
LINE
8
BLACK
6
CONTINUOUS
10
6.19936
20
-3.12559
11
6.19277
21
-3.12559
0
LINE
8
BLACK
6
CONTINUOUS
10
6.19277
20
-3.12559
11
6.1863
21
-3.1243
0
LINE
8
BLACK
6
CONTINUOUS
10
6.1863
20
-3.1243
11
6.18021
21
-3.12178
0
LINE
8
BLACK
6
CONTINUOUS
10
6.18021
20
-3.12178
11
6.18002
21
-3.12165
0
LINE
8
BLACK
6
CONTINUOUS
10
6.18002
20
-3.12165
11
6.13549
21
-3.12165
0
LINE
8
BLACK
6
CONTINUOUS
10
6.13549
20
-3.12165
11
6.13103
21
-3.12709
0
LINE
8
BLACK
6
CONTINUOUS
10
6.13103
20
-3.12709
11
6.12354
21
-3.13324
0
LINE
8
BLACK
6
CONTINUOUS
10
6.12354
20
-3.13324
11
6.11499
21
-3.13781
0
LINE
8
BLACK
6
CONTINUOUS
10
6.11499
20
-3.13781
11
6.10571
21
-3.14063
0
LINE
8
BLACK
6
CONTINUOUS
10
6.10571
20
-3.14063
11
6.09848
21
-3.14134
0
LINE
8
BLACK
6
CONTINUOUS
10
6.09848
20
-3.14134
11
5.53549
21
-3.14134
0
LINE
8
BLACK
6
CONTINUOUS
10
5.53549
20
-3.14134
11
5.53307
21
-3.14158
0
LINE
8
BLACK
6
CONTINUOUS
10
5.53307
20
-3.14158
11
5.52342
21
-3.14063
0
LINE
8
BLACK
6
CONTINUOUS
10
5.52342
20
-3.14063
11
5.51415
21
-3.13781
0
LINE
8
BLACK
6
CONTINUOUS
10
5.51415
20
-3.13781
11
5.5056
21
-3.13324
0
LINE
8
BLACK
6
CONTINUOUS
10
5.5056
20
-3.13324
11
5.4981
21
-3.12709
0
LINE
8
BLACK
6
CONTINUOUS
10
5.4981
20
-3.12709
11
5.49656
21
-3.12522
0
LINE
8
BLACK
6
CONTINUOUS
10
5.49656
20
-3.12522
11
5.16376
21
-2.79241
0
LINE
8
BLACK
6
CONTINUOUS
10
5.16376
20
-2.79241
11
5.16188
21
-2.79087
0
LINE
8
BLACK
6
CONTINUOUS
10
5.16188
20
-2.79087
11
5.15573
21
-2.78338
0
LINE
8
BLACK
6
CONTINUOUS
10
5.15573
20
-2.78338
11
5.15116
21
-2.77483
0
LINE
8
BLACK
6
CONTINUOUS
10
5.15116
20
-2.77483
11
5.14835
21
-2.76555
0
LINE
8
BLACK
6
CONTINUOUS
10
5.14835
20
-2.76555
11
5.14764
21
-2.75832
0
LINE
8
BLACK
6
CONTINUOUS
10
5.14764
20
-2.75832
11
5.14764
21
-2.75832
0
LINE
8
BLACK
6
CONTINUOUS
10
5.14764
20
-2.75832
11
5.1474
21
-2.75591
0
LINE
8
BLACK
6
CONTINUOUS
10
5.1474
20
-2.75591
11
5.14764
21
-2.75349
0
LINE
8
BLACK
6
CONTINUOUS
10
5.14764
20
-2.75349
11
5.14764
21
-2.50084
0
LINE
8
BLACK
6
CONTINUOUS
10
5.14764
20
-2.50084
11
5.1474
21
-2.49843
0
LINE
8
BLACK
6
CONTINUOUS
10
5.1474
20
-2.49843
11
5.14835
21
-2.48878
0
LINE
8
BLACK
6
CONTINUOUS
10
5.14835
20
-2.48878
11
5.15116
21
-2.4795
0
LINE
8
BLACK
6
CONTINUOUS
10
5.15116
20
-2.4795
11
5.15409
21
-2.47403
0
LINE
8
BLACK
6
CONTINUOUS
10
5.15409
20
-2.47403
11
5.15573
21
-2.47095
0
LINE
8
BLACK
6
CONTINUOUS
10
5.15573
20
-2.47095
11
5.16188
21
-2.46346
0
LINE
8
BLACK
6
CONTINUOUS
10
5.16188
20
-2.46346
11
5.16376
21
-2.46192
0
LINE
8
BLACK
6
CONTINUOUS
10
5.16376
20
-2.46192
11
5.20512
21
-2.42056
0
LINE
8
BLACK
6
CONTINUOUS
10
5.20512
20
-2.42056
11
5.20512
21
-2.34651
0
LINE
8
BLACK
6
CONTINUOUS
10
5.20512
20
-2.34651
11
5.20488
21
-2.34409
0
LINE
8
BLACK
6
CONTINUOUS
10
5.20488
20
-2.34409
11
5.20583
21
-2.33445
0
LINE
8
BLACK
6
CONTINUOUS
10
5.20583
20
-2.33445
11
5.20864
21
-2.32517
0
LINE
8
BLACK
6
CONTINUOUS
10
5.20864
20
-2.32517
11
5.21172
21
-2.31942
0
LINE
8
BLACK
6
CONTINUOUS
10
5.21172
20
-2.31942
11
5.21321
21
-2.31662
0
LINE
8
BLACK
6
CONTINUOUS
10
5.21321
20
-2.31662
11
5.21936
21
-2.30913
0
LINE
8
BLACK
6
CONTINUOUS
10
5.21936
20
-2.30913
11
5.22124
21
-2.30759
0
LINE
8
BLACK
6
CONTINUOUS
10
5.22124
20
-2.30759
11
5.23908
21
-2.28975
0
LINE
8
BLACK
6
CONTINUOUS
10
5.23908
20
-2.28975
11
5.24062
21
-2.28787
0
LINE
8
BLACK
6
CONTINUOUS
10
5.24062
20
-2.28787
11
5.24812
21
-2.28172
0
LINE
8
BLACK
6
CONTINUOUS
10
5.24812
20
-2.28172
11
5.25667
21
-2.27715
0
LINE
8
BLACK
6
CONTINUOUS
10
5.25667
20
-2.27715
11
5.26378
21
-2.27499
0
LINE
8
BLACK
6
CONTINUOUS
10
5.26378
20
-2.27499
11
5.26594
21
-2.27433
0
LINE
8
BLACK
6
CONTINUOUS
10
5.26594
20
-2.27433
11
5.26695
21
-2.27423
0
LINE
8
BLACK
6
CONTINUOUS
10
5.26695
20
-2.27423
11
5.27317
21
-2.27362
0
LINE
8
BLACK
6
CONTINUOUS
10
5.27317
20
-2.27362
11
5.27317
21
-2.27362
0
LINE
8
BLACK
6
CONTINUOUS
10
5.27317
20
-2.27362
11
5.27559
21
-2.27338
0
LINE
8
BLACK
6
CONTINUOUS
10
5.27559
20
-2.27338
11
5.27801
21
-2.27362
0
LINE
8
BLACK
6
CONTINUOUS
10
5.27801
20
-2.27362
11
5.54876
21
-2.27362
0
LINE
8
BLACK
6
CONTINUOUS
10
5.54876
20
-2.27362
11
5.55118
21
-2.27338
0
LINE
8
BLACK
6
CONTINUOUS
10
5.55118
20
-2.27338
11
5.5536
21
-2.27362
0
LINE
8
BLACK
6
CONTINUOUS
10
5.5536
20
-2.27362
11
7.04966
21
-2.27362
0
LINE
8
BLACK
6
CONTINUOUS
10
7.04966
20
-2.27362
11
7.05689
21
-2.27433
0
LINE
8
BLACK
6
CONTINUOUS
10
6.62189
20
-2.40214
11
6.62931
21
-2.4044
0
LINE
8
BLACK
6
CONTINUOUS
10
6.62931
20
-2.4044
11
6.63508
21
-2.40748
0
LINE
8
BLACK
6
CONTINUOUS
10
6.63508
20
-2.40748
11
6.64764
21
-2.40748
0
LINE
8
BLACK
6
CONTINUOUS
10
6.64764
20
-2.40748
11
6.64764
21
-2.42003
0
LINE
8
BLACK
6
CONTINUOUS
10
6.64764
20
-2.42003
11
6.65072
21
-2.42581
0
LINE
8
BLACK
6
CONTINUOUS
10
6.65072
20
-2.42581
11
6.65297
21
-2.43323
0
LINE
8
BLACK
6
CONTINUOUS
10
6.65297
20
-2.43323
11
6.65354
21
-2.43901
0
LINE
8
BLACK
6
CONTINUOUS
10
6.65354
20
-2.43901
11
6.65354
21
-2.48225
0
LINE
8
BLACK
6
CONTINUOUS
10
6.65354
20
-2.48225
11
6.65297
21
-2.48803
0
LINE
8
BLACK
6
CONTINUOUS
10
6.65297
20
-2.48803
11
6.65072
21
-2.49545
0
LINE
8
BLACK
6
CONTINUOUS
10
6.65072
20
-2.49545
11
6.64707
21
-2.50229
0
LINE
8
BLACK
6
CONTINUOUS
10
6.64707
20
-2.50229
11
6.6437
21
-2.50639
0
LINE
8
BLACK
6
CONTINUOUS
10
6.6437
20
-2.50639
11
6.6437
21
-3.03005
0
LINE
8
BLACK
6
CONTINUOUS
10
6.6437
20
-3.03005
11
6.64384
21
-3.0315
0
LINE
8
BLACK
6
CONTINUOUS
10
6.64384
20
-3.0315
11
6.6437
21
-3.03295
0
LINE
8
BLACK
6
CONTINUOUS
10
6.6437
20
-3.03295
11
6.6437
21
-3.03295
0
LINE
8
BLACK
6
CONTINUOUS
10
6.6437
20
-3.03295
11
6.64327
21
-3.03728
0
LINE
8
BLACK
6
CONTINUOUS
10
6.64327
20
-3.03728
11
6.64159
21
-3.04285
0
LINE
8
BLACK
6
CONTINUOUS
10
6.64159
20
-3.04285
11
6.63884
21
-3.04798
0
LINE
8
BLACK
6
CONTINUOUS
10
6.63884
20
-3.04798
11
6.63515
21
-3.05248
0
LINE
8
BLACK
6
CONTINUOUS
10
6.63515
20
-3.05248
11
6.63403
21
-3.0534
0
LINE
8
BLACK
6
CONTINUOUS
10
6.63403
20
-3.0534
11
6.57545
21
-3.11198
0
LINE
8
BLACK
6
CONTINUOUS
10
6.57545
20
-3.11198
11
6.57452
21
-3.11311
0
LINE
8
BLACK
6
CONTINUOUS
10
6.57452
20
-3.11311
11
6.57003
21
-3.1168
0
LINE
8
BLACK
6
CONTINUOUS
10
6.57003
20
-3.1168
11
6.5649
21
-3.11954
0
LINE
8
BLACK
6
CONTINUOUS
10
6.5649
20
-3.11954
11
6.55933
21
-3.12123
0
LINE
8
BLACK
6
CONTINUOUS
10
6.55933
20
-3.12123
11
6.55499
21
-3.12165
0
LINE
8
BLACK
6
CONTINUOUS
10
6.55499
20
-3.12165
11
6.55499
21
-3.12165
0
LINE
8
BLACK
6
CONTINUOUS
10
6.55499
20
-3.12165
11
6.55354
21
-3.1218
0
LINE
8
BLACK
6
CONTINUOUS
10
6.55354
20
-3.1218
11
6.55209
21
-3.12165
0
LINE
8
BLACK
6
CONTINUOUS
10
6.55209
20
-3.12165
11
6.51211
21
-3.12165
0
LINE
8
BLACK
6
CONTINUOUS
10
6.51211
20
-3.12165
11
6.51191
21
-3.12178
0
LINE
8
BLACK
6
CONTINUOUS
10
6.51191
20
-3.12178
11
6.50582
21
-3.1243
0
LINE
8
BLACK
6
CONTINUOUS
10
6.50582
20
-3.1243
11
6.49936
21
-3.12559
0
LINE
8
BLACK
6
CONTINUOUS
10
6.49936
20
-3.12559
11
6.49277
21
-3.12559
0
LINE
8
BLACK
6
CONTINUOUS
10
6.49277
20
-3.12559
11
6.4863
21
-3.1243
0
LINE
8
BLACK
6
CONTINUOUS
10
6.4863
20
-3.1243
11
6.48021
21
-3.12178
0
LINE
8
BLACK
6
CONTINUOUS
10
6.48021
20
-3.12178
11
6.47473
21
-3.11812
0
LINE
8
BLACK
6
CONTINUOUS
10
6.47473
20
-3.11812
11
6.47007
21
-3.11346
0
LINE
8
BLACK
6
CONTINUOUS
10
6.47007
20
-3.11346
11
6.46641
21
-3.10798
0
LINE
8
BLACK
6
CONTINUOUS
10
6.46641
20
-3.10798
11
6.46388
21
-3.10189
0
LINE
8
BLACK
6
CONTINUOUS
10
6.46388
20
-3.10189
11
6.4626
21
-3.09542
0
LINE
8
BLACK
6
CONTINUOUS
10
6.4626
20
-3.09542
11
6.4626
21
-3.08883
0
LINE
8
BLACK
6
CONTINUOUS
10
6.4626
20
-3.08883
11
6.46388
21
-3.08236
0
LINE
8
BLACK
6
CONTINUOUS
10
6.46388
20
-3.08236
11
6.46641
21
-3.07627
0
LINE
8
BLACK
6
CONTINUOUS
10
6.46641
20
-3.07627
11
6.47007
21
-3.07079
0
LINE
8
BLACK
6
CONTINUOUS
10
6.47007
20
-3.07079
11
6.47473
21
-3.06613
0
LINE
8
BLACK
6
CONTINUOUS
10
6.47473
20
-3.06613
11
6.48021
21
-3.06247
0
LINE
8
BLACK
6
CONTINUOUS
10
6.48021
20
-3.06247
11
6.4863
21
-3.05995
0
LINE
8
BLACK
6
CONTINUOUS
10
6.4863
20
-3.05995
11
6.49277
21
-3.05866
0
LINE
8
BLACK
6
CONTINUOUS
10
6.49277
20
-3.05866
11
6.49936
21
-3.05866
0
LINE
8
BLACK
6
CONTINUOUS
10
6.49936
20
-3.05866
11
6.50582
21
-3.05995
0
LINE
8
BLACK
6
CONTINUOUS
10
6.50582
20
-3.05995
11
6.51191
21
-3.06247
0
LINE
8
BLACK
6
CONTINUOUS
10
6.51191
20
-3.06247
11
6.51211
21
-3.0626
0
LINE
8
BLACK
6
CONTINUOUS
10
6.51211
20
-3.0626
11
6.54131
21
-3.0626
0
LINE
8
BLACK
6
CONTINUOUS
10
6.54131
20
-3.0626
11
6.58465
21
-3.01927
0
LINE
8
BLACK
6
CONTINUOUS
10
6.58465
20
-3.01927
11
6.58465
21
-2.50639
0
LINE
8
BLACK
6
CONTINUOUS
10
6.58465
20
-2.50639
11
6.58128
21
-2.50229
0
LINE
8
BLACK
6
CONTINUOUS
10
6.58128
20
-2.50229
11
6.57762
21
-2.49545
0
LINE
8
BLACK
6
CONTINUOUS
10
6.57762
20
-2.49545
11
6.57537
21
-2.48803
0
LINE
8
BLACK
6
CONTINUOUS
10
6.57537
20
-2.48803
11
6.5748
21
-2.48225
0
LINE
8
BLACK
6
CONTINUOUS
10
6.5748
20
-2.48225
11
6.5748
21
-2.43901
0
LINE
8
BLACK
6
CONTINUOUS
10
6.5748
20
-2.43901
11
6.57537
21
-2.43323
0
LINE
8
BLACK
6
CONTINUOUS
10
6.57537
20
-2.43323
11
6.57762
21
-2.42581
0
LINE
8
BLACK
6
CONTINUOUS
10
6.57762
20
-2.42581
11
6.58071
21
-2.42003
0
LINE
8
BLACK
6
CONTINUOUS
10
6.58071
20
-2.42003
11
6.58071
21
-2.40748
0
LINE
8
BLACK
6
CONTINUOUS
10
6.58071
20
-2.40748
11
6.59326
21
-2.40748
0
LINE
8
BLACK
6
CONTINUOUS
10
6.59326
20
-2.40748
11
6.59903
21
-2.4044
0
LINE
8
BLACK
6
CONTINUOUS
10
6.59903
20
-2.4044
11
6.60646
21
-2.40214
0
LINE
8
BLACK
6
CONTINUOUS
10
6.60646
20
-2.40214
11
6.61417
21
-2.40138
0
LINE
8
BLACK
6
CONTINUOUS
10
6.61417
20
-2.40138
11
6.62189
21
-2.40214
0
LINE
8
BLACK
6
CONTINUOUS
10
6.30693
20
-2.40214
11
6.31435
21
-2.4044
0
LINE
8
BLACK
6
CONTINUOUS
10
6.31435
20
-2.4044
11
6.32012
21
-2.40748
0
LINE
8
BLACK
6
CONTINUOUS
10
6.32012
20
-2.40748
11
6.33268
21
-2.40748
0
LINE
8
BLACK
6
CONTINUOUS
10
6.33268
20
-2.40748
11
6.33268
21
-2.42003
0
LINE
8
BLACK
6
CONTINUOUS
10
6.33268
20
-2.42003
11
6.33576
21
-2.42581
0
LINE
8
BLACK
6
CONTINUOUS
10
6.33576
20
-2.42581
11
6.33801
21
-2.43323
0
LINE
8
BLACK
6
CONTINUOUS
10
6.33801
20
-2.43323
11
6.33858
21
-2.43901
0
LINE
8
BLACK
6
CONTINUOUS
10
6.33858
20
-2.43901
11
6.33858
21
-2.48225
0
LINE
8
BLACK
6
CONTINUOUS
10
6.33858
20
-2.48225
11
6.33801
21
-2.48803
0
LINE
8
BLACK
6
CONTINUOUS
10
6.33801
20
-2.48803
11
6.33576
21
-2.49545
0
LINE
8
BLACK
6
CONTINUOUS
10
6.33576
20
-2.49545
11
6.33211
21
-2.50229
0
LINE
8
BLACK
6
CONTINUOUS
10
6.33211
20
-2.50229
11
6.32874
21
-2.50639
0
LINE
8
BLACK
6
CONTINUOUS
10
6.32874
20
-2.50639
11
6.32874
21
-2.54682
0
LINE
8
BLACK
6
CONTINUOUS
10
6.32874
20
-2.54682
11
6.51592
21
-2.734
0
LINE
8
BLACK
6
CONTINUOUS
10
6.51592
20
-2.734
11
6.51704
21
-2.73493
0
LINE
8
BLACK
6
CONTINUOUS
10
6.51704
20
-2.73493
11
6.52073
21
-2.73942
0
LINE
8
BLACK
6
CONTINUOUS
10
6.52073
20
-2.73942
11
6.52347
21
-2.74455
0
LINE
8
BLACK
6
CONTINUOUS
10
6.52347
20
-2.74455
11
6.52516
21
-2.75012
0
LINE
8
BLACK
6
CONTINUOUS
10
6.52516
20
-2.75012
11
6.52559
21
-2.75446
0
LINE
8
BLACK
6
CONTINUOUS
10
6.52559
20
-2.75446
11
6.52559
21
-2.75446
0
LINE
8
BLACK
6
CONTINUOUS
10
6.52559
20
-2.75446
11
6.52573
21
-2.75591
0
LINE
8
BLACK
6
CONTINUOUS
10
6.52573
20
-2.75591
11
6.52559
21
-2.75736
0
LINE
8
BLACK
6
CONTINUOUS
10
6.52559
20
-2.75736
11
6.52559
21
-2.95866
0
LINE
8
BLACK
6
CONTINUOUS
10
6.52559
20
-2.95866
11
6.52953
21
-2.95866
0
LINE
8
BLACK
6
CONTINUOUS
10
6.52953
20
-2.95866
11
6.52953
21
-3.02559
0
LINE
8
BLACK
6
CONTINUOUS
10
6.52953
20
-3.02559
11
6.4626
21
-3.02559
0
LINE
8
BLACK
6
CONTINUOUS
10
6.4626
20
-3.02559
11
6.4626
21
-2.95866
0
LINE
8
BLACK
6
CONTINUOUS
10
6.4626
20
-2.95866
11
6.46654
21
-2.95866
0
LINE
8
BLACK
6
CONTINUOUS
10
6.46654
20
-2.95866
11
6.46654
21
-2.76814
0
LINE
8
BLACK
6
CONTINUOUS
10
6.46654
20
-2.76814
11
6.27936
21
-2.58096
0
LINE
8
BLACK
6
CONTINUOUS
10
6.27936
20
-2.58096
11
6.27823
21
-2.58004
0
LINE
8
BLACK
6
CONTINUOUS
10
6.27823
20
-2.58004
11
6.27731
21
-2.57891
0
LINE
8
BLACK
6
CONTINUOUS
10
6.27731
20
-2.57891
11
6.27731
21
-2.57891
0
LINE
8
BLACK
6
CONTINUOUS
10
6.27731
20
-2.57891
11
6.27623
21
-2.57759
0
LINE
8
BLACK
6
CONTINUOUS
10
6.27623
20
-2.57759
11
6.27454
21
-2.57554
0
LINE
8
BLACK
6
CONTINUOUS
10
6.27454
20
-2.57554
11
6.2718
21
-2.57041
0
LINE
8
BLACK
6
CONTINUOUS
10
6.2718
20
-2.57041
11
6.2718
21
-2.57041
0
LINE
8
BLACK
6
CONTINUOUS
10
6.2718
20
-2.57041
11
6.27011
21
-2.56484
0
LINE
8
BLACK
6
CONTINUOUS
10
6.27011
20
-2.56484
11
6.26954
21
-2.55906
0
LINE
8
BLACK
6
CONTINUOUS
10
6.26954
20
-2.55906
11
6.26969
21
-2.5576
0
LINE
8
BLACK
6
CONTINUOUS
10
6.26969
20
-2.5576
11
6.26969
21
-2.50639
0
LINE
8
BLACK
6
CONTINUOUS
10
6.26969
20
-2.50639
11
6.26632
21
-2.50229
0
LINE
8
BLACK
6
CONTINUOUS
10
6.26632
20
-2.50229
11
6.26266
21
-2.49545
0
LINE
8
BLACK
6
CONTINUOUS
10
6.26266
20
-2.49545
11
6.26041
21
-2.48803
0
LINE
8
BLACK
6
CONTINUOUS
10
6.26041
20
-2.48803
11
6.25984
21
-2.48225
0
LINE
8
BLACK
6
CONTINUOUS
10
6.25984
20
-2.48225
11
6.25984
21
-2.43901
0
LINE
8
BLACK
6
CONTINUOUS
10
6.25984
20
-2.43901
11
6.26041
21
-2.43323
0
LINE
8
BLACK
6
CONTINUOUS
10
6.26041
20
-2.43323
11
6.26266
21
-2.42581
0
LINE
8
BLACK
6
CONTINUOUS
10
6.26266
20
-2.42581
11
6.26575
21
-2.42003
0
LINE
8
BLACK
6
CONTINUOUS
10
6.26575
20
-2.42003
11
6.26575
21
-2.40748
0
LINE
8
BLACK
6
CONTINUOUS
10
6.26575
20
-2.40748
11
6.2783
21
-2.40748
0
LINE
8
BLACK
6
CONTINUOUS
10
6.2783
20
-2.40748
11
6.28407
21
-2.4044
0
LINE
8
BLACK
6
CONTINUOUS
10
6.28407
20
-2.4044
11
6.29149
21
-2.40214
0
LINE
8
BLACK
6
CONTINUOUS
10
6.29149
20
-2.40214
11
6.29921
21
-2.40138
0
LINE
8
BLACK
6
CONTINUOUS
10
6.29921
20
-2.40138
11
6.30693
21
-2.40214
0
LINE
8
BLACK
6
CONTINUOUS
10
5.99197
20
-2.40214
11
5.99939
21
-2.4044
0
LINE
8
BLACK
6
CONTINUOUS
10
5.99939
20
-2.4044
11
6.00516
21
-2.40748
0
LINE
8
BLACK
6
CONTINUOUS
10
6.00516
20
-2.40748
11
6.01772
21
-2.40748
0
LINE
8
BLACK
6
CONTINUOUS
10
6.01772
20
-2.40748
11
6.01772
21
-2.42003
0
LINE
8
BLACK
6
CONTINUOUS
10
6.01772
20
-2.42003
11
6.0208
21
-2.42581
0
LINE
8
BLACK
6
CONTINUOUS
10
6.0208
20
-2.42581
11
6.02305
21
-2.43323
0
LINE
8
BLACK
6
CONTINUOUS
10
6.02305
20
-2.43323
11
6.02362
21
-2.43901
0
LINE
8
BLACK
6
CONTINUOUS
10
6.02362
20
-2.43901
11
6.02362
21
-2.48225
0
LINE
8
BLACK
6
CONTINUOUS
10
6.02362
20
-2.48225
11
6.02305
21
-2.48803
0
LINE
8
BLACK
6
CONTINUOUS
10
6.02305
20
-2.48803
11
6.0208
21
-2.49545
0
LINE
8
BLACK
6
CONTINUOUS
10
6.0208
20
-2.49545
11
6.01715
21
-2.50229
0
LINE
8
BLACK
6
CONTINUOUS
10
6.01715
20
-2.50229
11
6.01378
21
-2.50639
0
LINE
8
BLACK
6
CONTINUOUS
10
6.01378
20
-2.50639
11
6.01378
21
-2.54682
0
LINE
8
BLACK
6
CONTINUOUS
10
6.01378
20
-2.54682
11
6.07522
21
-2.60827
0
LINE
8
BLACK
6
CONTINUOUS
10
6.07522
20
-2.60827
11
6.21902
21
-2.60827
0
LINE
8
BLACK
6
CONTINUOUS
10
6.21902
20
-2.60827
11
6.22047
21
-2.60812
0
LINE
8
BLACK
6
CONTINUOUS
10
6.22047
20
-2.60812
11
6.22192
21
-2.60827
0
LINE
8
BLACK
6
CONTINUOUS
10
6.22192
20
-2.60827
11
6.22192
21
-2.60827
0
LINE
8
BLACK
6
CONTINUOUS
10
6.22192
20
-2.60827
11
6.22626
21
-2.60869
0
LINE
8
BLACK
6
CONTINUOUS
10
6.22626
20
-2.60869
11
6.23183
21
-2.61038
0
LINE
8
BLACK
6
CONTINUOUS
10
6.23183
20
-2.61038
11
6.23696
21
-2.61313
0
LINE
8
BLACK
6
CONTINUOUS
10
6.23696
20
-2.61313
11
6.24145
21
-2.61682
0
LINE
8
BLACK
6
CONTINUOUS
10
6.24145
20
-2.61682
11
6.24238
21
-2.61794
0
LINE
8
BLACK
6
CONTINUOUS
10
6.24238
20
-2.61794
11
6.41592
21
-2.79148
0
LINE
8
BLACK
6
CONTINUOUS
10
6.41592
20
-2.79148
11
6.41704
21
-2.79241
0
LINE
8
BLACK
6
CONTINUOUS
10
6.41704
20
-2.79241
11
6.41797
21
-2.79353
0
LINE
8
BLACK
6
CONTINUOUS
10
6.41797
20
-2.79353
11
6.41797
21
-2.79353
0
LINE
8
BLACK
6
CONTINUOUS
10
6.41797
20
-2.79353
11
6.42037
21
-2.79645
0
LINE
8
BLACK
6
CONTINUOUS
10
6.42037
20
-2.79645
11
6.42073
21
-2.7969
0
LINE
8
BLACK
6
CONTINUOUS
10
6.42073
20
-2.7969
11
6.42347
21
-2.80203
0
LINE
8
BLACK
6
CONTINUOUS
10
6.42347
20
-2.80203
11
6.42516
21
-2.8076
0
LINE
8
BLACK
6
CONTINUOUS
10
6.42516
20
-2.8076
11
6.42559
21
-2.81194
0
LINE
8
BLACK
6
CONTINUOUS
10
6.42559
20
-2.81194
11
6.42559
21
-2.81194
0
LINE
8
BLACK
6
CONTINUOUS
10
6.42559
20
-2.81194
11
6.42573
21
-2.81339
0
LINE
8
BLACK
6
CONTINUOUS
10
6.42573
20
-2.81339
11
6.42559
21
-2.81484
0
LINE
8
BLACK
6
CONTINUOUS
10
6.42559
20
-2.81484
11
6.42559
21
-2.97608
0
LINE
8
BLACK
6
CONTINUOUS
10
6.42559
20
-2.97608
11
6.42572
21
-2.97627
0
LINE
8
BLACK
6
CONTINUOUS
10
6.42572
20
-2.97627
11
6.42824
21
-2.98236
0
LINE
8
BLACK
6
CONTINUOUS
10
6.42824
20
-2.98236
11
6.42953
21
-2.98883
0
LINE
8
BLACK
6
CONTINUOUS
10
6.42953
20
-2.98883
11
6.42953
21
-2.99542
0
LINE
8
BLACK
6
CONTINUOUS
10
6.42953
20
-2.99542
11
6.42824
21
-3.00189
0
LINE
8
BLACK
6
CONTINUOUS
10
6.42824
20
-3.00189
11
6.42572
21
-3.00798
0
LINE
8
BLACK
6
CONTINUOUS
10
6.42572
20
-3.00798
11
6.42206
21
-3.01346
0
LINE
8
BLACK
6
CONTINUOUS
10
6.42206
20
-3.01346
11
6.4174
21
-3.01812
0
LINE
8
BLACK
6
CONTINUOUS
10
6.4174
20
-3.01812
11
6.41191
21
-3.02178
0
LINE
8
BLACK
6
CONTINUOUS
10
6.41191
20
-3.02178
11
6.40582
21
-3.0243
0
LINE
8
BLACK
6
CONTINUOUS
10
6.40582
20
-3.0243
11
6.39936
21
-3.02559
0
LINE
8
BLACK
6
CONTINUOUS
10
6.39936
20
-3.02559
11
6.39277
21
-3.02559
0
LINE
8
BLACK
6
CONTINUOUS
10
6.39277
20
-3.02559
11
6.3863
21
-3.0243
0
LINE
8
BLACK
6
CONTINUOUS
10
6.3863
20
-3.0243
11
6.38021
21
-3.02178
0
LINE
8
BLACK
6
CONTINUOUS
10
6.38021
20
-3.02178
11
6.37473
21
-3.01812
0
LINE
8
BLACK
6
CONTINUOUS
10
6.37473
20
-3.01812
11
6.37007
21
-3.01346
0
LINE
8
BLACK
6
CONTINUOUS
10
6.37007
20
-3.01346
11
6.36641
21
-3.00798
0
LINE
8
BLACK
6
CONTINUOUS
10
6.36641
20
-3.00798
11
6.36388
21
-3.00189
0
LINE
8
BLACK
6
CONTINUOUS
10
6.36388
20
-3.00189
11
6.3626
21
-2.99542
0
LINE
8
BLACK
6
CONTINUOUS
10
6.3626
20
-2.99542
11
6.3626
21
-2.98883
0
LINE
8
BLACK
6
CONTINUOUS
10
6.3626
20
-2.98883
11
6.36388
21
-2.98236
0
LINE
8
BLACK
6
CONTINUOUS
10
6.36388
20
-2.98236
11
6.36641
21
-2.97627
0
LINE
8
BLACK
6
CONTINUOUS
10
6.36641
20
-2.97627
11
6.36654
21
-2.97608
0
LINE
8
BLACK
6
CONTINUOUS
10
6.36654
20
-2.97608
11
6.36654
21
-2.82562
0
LINE
8
BLACK
6
CONTINUOUS
10
6.36654
20
-2.82562
11
6.20824
21
-2.66732
0
LINE
8
BLACK
6
CONTINUOUS
10
6.20824
20
-2.66732
11
6.06444
21
-2.66732
0
LINE
8
BLACK
6
CONTINUOUS
10
6.06444
20
-2.66732
11
6.06299
21
-2.66747
0
LINE
8
BLACK
6
CONTINUOUS
10
6.06299
20
-2.66747
11
6.06154
21
-2.66732
0
LINE
8
BLACK
6
CONTINUOUS
10
6.06154
20
-2.66732
11
6.06154
21
-2.66732
0
LINE
8
BLACK
6
CONTINUOUS
10
6.06154
20
-2.66732
11
6.0572
21
-2.6669
0
LINE
8
BLACK
6
CONTINUOUS
10
6.0572
20
-2.6669
11
6.05164
21
-2.66521
0
LINE
8
BLACK
6
CONTINUOUS
10
6.05164
20
-2.66521
11
6.04651
21
-2.66247
0
LINE
8
BLACK
6
CONTINUOUS
10
6.04651
20
-2.66247
11
6.04201
21
-2.65878
0
LINE
8
BLACK
6
CONTINUOUS
10
6.04201
20
-2.65878
11
6.04109
21
-2.65765
0
LINE
8
BLACK
6
CONTINUOUS
10
6.04109
20
-2.65765
11
5.9644
21
-2.58096
0
LINE
8
BLACK
6
CONTINUOUS
10
5.9644
20
-2.58096
11
5.96327
21
-2.58004
0
LINE
8
BLACK
6
CONTINUOUS
10
5.96327
20
-2.58004
11
5.95958
21
-2.57554
0
LINE
8
BLACK
6
CONTINUOUS
10
5.95958
20
-2.57554
11
5.95684
21
-2.57041
0
LINE
8
BLACK
6
CONTINUOUS
10
5.95684
20
-2.57041
11
5.95515
21
-2.56484
0
LINE
8
BLACK
6
CONTINUOUS
10
5.95515
20
-2.56484
11
5.95472
21
-2.56051
0
LINE
8
BLACK
6
CONTINUOUS
10
5.95472
20
-2.56051
11
5.95472
21
-2.56051
0
LINE
8
BLACK
6
CONTINUOUS
10
5.95472
20
-2.56051
11
5.95458
21
-2.55906
0
LINE
8
BLACK
6
CONTINUOUS
10
5.95458
20
-2.55906
11
5.95472
21
-2.55761
0
LINE
8
BLACK
6
CONTINUOUS
10
5.95472
20
-2.55761
11
5.95472
21
-2.50639
0
LINE
8
BLACK
6
CONTINUOUS
10
5.95472
20
-2.50639
11
5.95136
21
-2.50229
0
LINE
8
BLACK
6
CONTINUOUS
10
5.95136
20
-2.50229
11
5.9477
21
-2.49545
0
LINE
8
BLACK
6
CONTINUOUS
10
5.9477
20
-2.49545
11
5.94545
21
-2.48803
0
LINE
8
BLACK
6
CONTINUOUS
10
5.94545
20
-2.48803
11
5.94488
21
-2.48225
0
LINE
8
BLACK
6
CONTINUOUS
10
5.94488
20
-2.48225
11
5.94488
21
-2.43901
0
LINE
8
BLACK
6
CONTINUOUS
10
5.94488
20
-2.43901
11
5.94545
21
-2.43323
0
LINE
8
BLACK
6
CONTINUOUS
10
5.94545
20
-2.43323
11
5.9477
21
-2.42581
0
LINE
8
BLACK
6
CONTINUOUS
10
5.9477
20
-2.42581
11
5.95079
21
-2.42003
0
LINE
8
BLACK
6
CONTINUOUS
10
5.95079
20
-2.42003
11
5.95079
21
-2.40748
0
LINE
8
BLACK
6
CONTINUOUS
10
5.95079
20
-2.40748
11
5.96334
21
-2.40748
0
LINE
8
BLACK
6
CONTINUOUS
10
5.96334
20
-2.40748
11
5.96911
21
-2.4044
0
LINE
8
BLACK
6
CONTINUOUS
10
5.96911
20
-2.4044
11
5.97653
21
-2.40214
0
LINE
8
BLACK
6
CONTINUOUS
10
5.97653
20
-2.40214
11
5.98425
21
-2.40138
0
LINE
8
BLACK
6
CONTINUOUS
10
5.98425
20
-2.40138
11
5.99197
21
-2.40214
0
LINE
8
BLACK
6
CONTINUOUS
10
5.36205
20
-2.40214
11
5.36947
21
-2.4044
0
LINE
8
BLACK
6
CONTINUOUS
10
5.36947
20
-2.4044
11
5.37524
21
-2.40748
0
LINE
8
BLACK
6
CONTINUOUS
10
5.37524
20
-2.40748
11
5.3878
21
-2.40748
0
LINE
8
BLACK
6
CONTINUOUS
10
5.3878
20
-2.40748
11
5.3878
21
-2.41873
0
LINE
8
BLACK
6
CONTINUOUS
10
5.3878
20
-2.41873
11
5.42291
21
-2.45384
0
LINE
8
BLACK
6
CONTINUOUS
10
5.42291
20
-2.45384
11
5.42659
21
-2.45834
0
LINE
8
BLACK
6
CONTINUOUS
10
5.42659
20
-2.45834
11
5.43025
21
-2.46518
0
LINE
8
BLACK
6
CONTINUOUS
10
5.43025
20
-2.46518
11
5.4325
21
-2.4726
0
LINE
8
BLACK
6
CONTINUOUS
10
5.4325
20
-2.4726
11
5.43302
21
-2.47788
0
LINE
8
BLACK
6
CONTINUOUS
10
5.43302
20
-2.47788
11
5.79963
21
-2.84449
0
LINE
8
BLACK
6
CONTINUOUS
10
5.79963
20
-2.84449
11
6.14028
21
-2.84449
0
LINE
8
BLACK
6
CONTINUOUS
10
6.14028
20
-2.84449
11
6.14173
21
-2.84435
0
LINE
8
BLACK
6
CONTINUOUS
10
6.14173
20
-2.84435
11
6.14318
21
-2.84449
0
LINE
8
BLACK
6
CONTINUOUS
10
6.14318
20
-2.84449
11
6.14318
21
-2.84449
0
LINE
8
BLACK
6
CONTINUOUS
10
6.14318
20
-2.84449
11
6.14752
21
-2.84492
0
LINE
8
BLACK
6
CONTINUOUS
10
6.14752
20
-2.84492
11
6.15309
21
-2.8466
0
LINE
8
BLACK
6
CONTINUOUS
10
6.15309
20
-2.8466
11
6.15822
21
-2.84935
0
LINE
8
BLACK
6
CONTINUOUS
10
6.15822
20
-2.84935
11
6.16271
21
-2.85304
0
LINE
8
BLACK
6
CONTINUOUS
10
6.16271
20
-2.85304
11
6.16364
21
-2.85416
0
LINE
8
BLACK
6
CONTINUOUS
10
6.16364
20
-2.85416
11
6.21592
21
-2.90644
0
LINE
8
BLACK
6
CONTINUOUS
10
6.21592
20
-2.90644
11
6.21704
21
-2.90737
0
LINE
8
BLACK
6
CONTINUOUS
10
6.21704
20
-2.90737
11
6.22073
21
-2.91186
0
LINE
8
BLACK
6
CONTINUOUS
10
6.22073
20
-2.91186
11
6.22347
21
-2.91699
0
LINE
8
BLACK
6
CONTINUOUS
10
6.22347
20
-2.91699
11
6.22516
21
-2.92256
0
LINE
8
BLACK
6
CONTINUOUS
10
6.22516
20
-2.92256
11
6.22559
21
-2.9269
0
LINE
8
BLACK
6
CONTINUOUS
10
6.22559
20
-2.9269
11
6.22559
21
-2.9269
0
LINE
8
BLACK
6
CONTINUOUS
10
6.22559
20
-2.9269
11
6.22573
21
-2.92835
0
LINE
8
BLACK
6
CONTINUOUS
10
6.22573
20
-2.92835
11
6.22559
21
-2.9298
0
LINE
8
BLACK
6
CONTINUOUS
10
6.22559
20
-2.9298
11
6.22559
21
-2.97608
0
LINE
8
BLACK
6
CONTINUOUS
10
6.22559
20
-2.97608
11
6.22572
21
-2.97627
0
LINE
8
BLACK
6
CONTINUOUS
10
6.22572
20
-2.97627
11
6.22824
21
-2.98236
0
LINE
8
BLACK
6
CONTINUOUS
10
6.22824
20
-2.98236
11
6.22953
21
-2.98883
0
LINE
8
BLACK
6
CONTINUOUS
10
6.22953
20
-2.98883
11
6.22953
21
-2.99542
0
LINE
8
BLACK
6
CONTINUOUS
10
6.22953
20
-2.99542
11
6.22824
21
-3.00189
0
LINE
8
BLACK
6
CONTINUOUS
10
6.22824
20
-3.00189
11
6.22572
21
-3.00798
0
LINE
8
BLACK
6
CONTINUOUS
10
6.22572
20
-3.00798
11
6.22206
21
-3.01346
0
LINE
8
BLACK
6
CONTINUOUS
10
6.22206
20
-3.01346
11
6.2174
21
-3.01812
0
LINE
8
BLACK
6
CONTINUOUS
10
6.2174
20
-3.01812
11
6.21191
21
-3.02178
0
LINE
8
BLACK
6
CONTINUOUS
10
6.21191
20
-3.02178
11
6.20582
21
-3.0243
0
LINE
8
BLACK
6
CONTINUOUS
10
6.20582
20
-3.0243
11
6.19936
21
-3.02559
0
LINE
8
BLACK
6
CONTINUOUS
10
6.19936
20
-3.02559
11
6.19277
21
-3.02559
0
LINE
8
BLACK
6
CONTINUOUS
10
6.19277
20
-3.02559
11
6.1863
21
-3.0243
0
LINE
8
BLACK
6
CONTINUOUS
10
6.1863
20
-3.0243
11
6.18021
21
-3.02178
0
LINE
8
BLACK
6
CONTINUOUS
10
6.18021
20
-3.02178
11
6.17473
21
-3.01812
0
LINE
8
BLACK
6
CONTINUOUS
10
6.17473
20
-3.01812
11
6.17007
21
-3.01346
0
LINE
8
BLACK
6
CONTINUOUS
10
6.17007
20
-3.01346
11
6.16641
21
-3.00798
0
LINE
8
BLACK
6
CONTINUOUS
10
6.16641
20
-3.00798
11
6.16388
21
-3.00189
0
LINE
8
BLACK
6
CONTINUOUS
10
6.16388
20
-3.00189
11
6.1626
21
-2.99542
0
LINE
8
BLACK
6
CONTINUOUS
10
6.1626
20
-2.99542
11
6.1626
21
-2.98883
0
LINE
8
BLACK
6
CONTINUOUS
10
6.1626
20
-2.98883
11
6.16388
21
-2.98236
0
LINE
8
BLACK
6
CONTINUOUS
10
6.16388
20
-2.98236
11
6.16641
21
-2.97627
0
LINE
8
BLACK
6
CONTINUOUS
10
6.16641
20
-2.97627
11
6.16654
21
-2.97608
0
LINE
8
BLACK
6
CONTINUOUS
10
6.16654
20
-2.97608
11
6.16654
21
-2.94058
0
LINE
8
BLACK
6
CONTINUOUS
10
6.16654
20
-2.94058
11
6.1295
21
-2.90354
0
LINE
8
BLACK
6
CONTINUOUS
10
6.1295
20
-2.90354
11
5.78885
21
-2.90354
0
LINE
8
BLACK
6
CONTINUOUS
10
5.78885
20
-2.90354
11
5.7874
21
-2.90369
0
LINE
8
BLACK
6
CONTINUOUS
10
5.7874
20
-2.90369
11
5.78595
21
-2.90354
0
LINE
8
BLACK
6
CONTINUOUS
10
5.78595
20
-2.90354
11
5.78595
21
-2.90354
0
LINE
8
BLACK
6
CONTINUOUS
10
5.78595
20
-2.90354
11
5.78161
21
-2.90312
0
LINE
8
BLACK
6
CONTINUOUS
10
5.78161
20
-2.90312
11
5.77605
21
-2.90143
0
LINE
8
BLACK
6
CONTINUOUS
10
5.77605
20
-2.90143
11
5.77092
21
-2.89869
0
LINE
8
BLACK
6
CONTINUOUS
10
5.77092
20
-2.89869
11
5.76642
21
-2.895
0
LINE
8
BLACK
6
CONTINUOUS
10
5.76642
20
-2.895
11
5.7655
21
-2.89387
0
LINE
8
BLACK
6
CONTINUOUS
10
5.7655
20
-2.89387
11
5.39126
21
-2.51964
0
LINE
8
BLACK
6
CONTINUOUS
10
5.39126
20
-2.51964
11
5.38598
21
-2.51912
0
LINE
8
BLACK
6
CONTINUOUS
10
5.38598
20
-2.51912
11
5.37856
21
-2.51686
0
LINE
8
BLACK
6
CONTINUOUS
10
5.37856
20
-2.51686
11
5.37172
21
-2.51321
0
LINE
8
BLACK
6
CONTINUOUS
10
5.37172
20
-2.51321
11
5.36723
21
-2.50952
0
LINE
8
BLACK
6
CONTINUOUS
10
5.36723
20
-2.50952
11
5.33212
21
-2.47441
0
LINE
8
BLACK
6
CONTINUOUS
10
5.33212
20
-2.47441
11
5.32087
21
-2.47441
0
LINE
8
BLACK
6
CONTINUOUS
10
5.32087
20
-2.47441
11
5.32087
21
-2.46185
0
LINE
8
BLACK
6
CONTINUOUS
10
5.32087
20
-2.46185
11
5.31778
21
-2.45608
0
LINE
8
BLACK
6
CONTINUOUS
10
5.31778
20
-2.45608
11
5.31553
21
-2.44866
0
LINE
8
BLACK
6
CONTINUOUS
10
5.31553
20
-2.44866
11
5.31477
21
-2.44094
0
LINE
8
BLACK
6
CONTINUOUS
10
5.31477
20
-2.44094
11
5.31553
21
-2.43323
0
LINE
8
BLACK
6
CONTINUOUS
10
5.31553
20
-2.43323
11
5.31778
21
-2.42581
0
LINE
8
BLACK
6
CONTINUOUS
10
5.31778
20
-2.42581
11
5.32087
21
-2.42003
0
LINE
8
BLACK
6
CONTINUOUS
10
5.32087
20
-2.42003
11
5.32087
21
-2.40748
0
LINE
8
BLACK
6
CONTINUOUS
10
5.32087
20
-2.40748
11
5.33342
21
-2.40748
0
LINE
8
BLACK
6
CONTINUOUS
10
5.33342
20
-2.40748
11
5.33919
21
-2.4044
0
LINE
8
BLACK
6
CONTINUOUS
10
5.33919
20
-2.4044
11
5.34661
21
-2.40214
0
LINE
8
BLACK
6
CONTINUOUS
10
5.34661
20
-2.40214
11
5.35433
21
-2.40138
0
LINE
8
BLACK
6
CONTINUOUS
10
5.35433
20
-2.40138
11
5.36205
21
-2.40214
0
LINE
8
BLACK
6
CONTINUOUS
10
5.67701
20
-2.40214
11
5.68443
21
-2.4044
0
LINE
8
BLACK
6
CONTINUOUS
10
5.68443
20
-2.4044
11
5.6902
21
-2.40748
0
LINE
8
BLACK
6
CONTINUOUS
10
5.6902
20
-2.40748
11
5.70276
21
-2.40748
0
LINE
8
BLACK
6
CONTINUOUS
10
5.70276
20
-2.40748
11
5.70276
21
-2.42003
0
LINE
8
BLACK
6
CONTINUOUS
10
5.70276
20
-2.42003
11
5.70584
21
-2.42581
0
LINE
8
BLACK
6
CONTINUOUS
10
5.70584
20
-2.42581
11
5.70809
21
-2.43323
0
LINE
8
BLACK
6
CONTINUOUS
10
5.70809
20
-2.43323
11
5.70866
21
-2.43901
0
LINE
8
BLACK
6
CONTINUOUS
10
5.70866
20
-2.43901
11
5.70866
21
-2.47793
0
LINE
8
BLACK
6
CONTINUOUS
10
5.70866
20
-2.47793
11
5.95711
21
-2.72638
0
LINE
8
BLACK
6
CONTINUOUS
10
5.95711
20
-2.72638
11
6.17965
21
-2.72638
0
LINE
8
BLACK
6
CONTINUOUS
10
6.17965
20
-2.72638
11
6.1811
21
-2.72624
0
LINE
8
BLACK
6
CONTINUOUS
10
6.1811
20
-2.72624
11
6.18255
21
-2.72638
0
LINE
8
BLACK
6
CONTINUOUS
10
6.18255
20
-2.72638
11
6.18255
21
-2.72638
0
LINE
8
BLACK
6
CONTINUOUS
10
6.18255
20
-2.72638
11
6.18689
21
-2.72681
0
LINE
8
BLACK
6
CONTINUOUS
10
6.18689
20
-2.72681
11
6.19246
21
-2.72849
0
LINE
8
BLACK
6
CONTINUOUS
10
6.19246
20
-2.72849
11
6.19759
21
-2.73124
0
LINE
8
BLACK
6
CONTINUOUS
10
6.19759
20
-2.73124
11
6.20208
21
-2.73493
0
LINE
8
BLACK
6
CONTINUOUS
10
6.20208
20
-2.73493
11
6.20301
21
-2.73605
0
LINE
8
BLACK
6
CONTINUOUS
10
6.20301
20
-2.73605
11
6.31592
21
-2.84896
0
LINE
8
BLACK
6
CONTINUOUS
10
6.31592
20
-2.84896
11
6.31704
21
-2.84989
0
LINE
8
BLACK
6
CONTINUOUS
10
6.31704
20
-2.84989
11
6.31797
21
-2.85101
0
LINE
8
BLACK
6
CONTINUOUS
10
6.31797
20
-2.85101
11
6.31797
21
-2.85101
0
LINE
8
BLACK
6
CONTINUOUS
10
6.31797
20
-2.85101
11
6.31963
21
-2.85304
0
LINE
8
BLACK
6
CONTINUOUS
10
6.31963
20
-2.85304
11
6.32073
21
-2.85438
0
LINE
8
BLACK
6
CONTINUOUS
10
6.32073
20
-2.85438
11
6.32347
21
-2.85951
0
LINE
8
BLACK
6
CONTINUOUS
10
6.32347
20
-2.85951
11
6.32516
21
-2.86508
0
LINE
8
BLACK
6
CONTINUOUS
10
6.32516
20
-2.86508
11
6.32559
21
-2.86942
0
LINE
8
BLACK
6
CONTINUOUS
10
6.32559
20
-2.86942
11
6.32559
21
-2.86942
0
LINE
8
BLACK
6
CONTINUOUS
10
6.32559
20
-2.86942
11
6.32573
21
-2.87087
0
LINE
8
BLACK
6
CONTINUOUS
10
6.32573
20
-2.87087
11
6.32559
21
-2.87232
0
LINE
8
BLACK
6
CONTINUOUS
10
6.32559
20
-2.87232
11
6.32559
21
-2.97608
0
LINE
8
BLACK
6
CONTINUOUS
10
6.32559
20
-2.97608
11
6.32572
21
-2.97627
0
LINE
8
BLACK
6
CONTINUOUS
10
6.32572
20
-2.97627
11
6.32824
21
-2.98236
0
LINE
8
BLACK
6
CONTINUOUS
10
6.32824
20
-2.98236
11
6.32953
21
-2.98883
0
LINE
8
BLACK
6
CONTINUOUS
10
6.32953
20
-2.98883
11
6.32953
21
-2.99542
0
LINE
8
BLACK
6
CONTINUOUS
10
6.32953
20
-2.99542
11
6.32824
21
-3.00189
0
LINE
8
BLACK
6
CONTINUOUS
10
6.32824
20
-3.00189
11
6.32572
21
-3.00798
0
LINE
8
BLACK
6
CONTINUOUS
10
6.32572
20
-3.00798
11
6.32206
21
-3.01346
0
LINE
8
BLACK
6
CONTINUOUS
10
6.32206
20
-3.01346
11
6.3174
21
-3.01812
0
LINE
8
BLACK
6
CONTINUOUS
10
6.3174
20
-3.01812
11
6.31191
21
-3.02178
0
LINE
8
BLACK
6
CONTINUOUS
10
6.31191
20
-3.02178
11
6.30582
21
-3.0243
0
LINE
8
BLACK
6
CONTINUOUS
10
6.30582
20
-3.0243
11
6.29936
21
-3.02559
0
LINE
8
BLACK
6
CONTINUOUS
10
6.29936
20
-3.02559
11
6.29277
21
-3.02559
0
LINE
8
BLACK
6
CONTINUOUS
10
6.29277
20
-3.02559
11
6.2863
21
-3.0243
0
LINE
8
BLACK
6
CONTINUOUS
10
6.2863
20
-3.0243
11
6.28021
21
-3.02178
0
LINE
8
BLACK
6
CONTINUOUS
10
6.28021
20
-3.02178
11
6.27473
21
-3.01812
0
LINE
8
BLACK
6
CONTINUOUS
10
6.27473
20
-3.01812
11
6.27007
21
-3.01346
0
LINE
8
BLACK
6
CONTINUOUS
10
6.27007
20
-3.01346
11
6.26641
21
-3.00798
0
LINE
8
BLACK
6
CONTINUOUS
10
6.26641
20
-3.00798
11
6.26388
21
-3.00189
0
LINE
8
BLACK
6
CONTINUOUS
10
6.26388
20
-3.00189
11
6.2626
21
-2.99542
0
LINE
8
BLACK
6
CONTINUOUS
10
6.2626
20
-2.99542
11
6.2626
21
-2.98883
0
LINE
8
BLACK
6
CONTINUOUS
10
6.2626
20
-2.98883
11
6.26388
21
-2.98236
0
LINE
8
BLACK
6
CONTINUOUS
10
6.26388
20
-2.98236
11
6.26641
21
-2.97627
0
LINE
8
BLACK
6
CONTINUOUS
10
6.26641
20
-2.97627
11
6.26654
21
-2.97608
0
LINE
8
BLACK
6
CONTINUOUS
10
6.26654
20
-2.97608
11
6.26654
21
-2.8831
0
LINE
8
BLACK
6
CONTINUOUS
10
6.26654
20
-2.8831
11
6.16887
21
-2.78543
0
LINE
8
BLACK
6
CONTINUOUS
10
6.16887
20
-2.78543
11
5.94633
21
-2.78543
0
LINE
8
BLACK
6
CONTINUOUS
10
5.94633
20
-2.78543
11
5.94488
21
-2.78558
0
LINE
8
BLACK
6
CONTINUOUS
10
5.94488
20
-2.78558
11
5.94343
21
-2.78543
0
LINE
8
BLACK
6
CONTINUOUS
10
5.94343
20
-2.78543
11
5.94343
21
-2.78543
0
LINE
8
BLACK
6
CONTINUOUS
10
5.94343
20
-2.78543
11
5.93909
21
-2.78501
0
LINE
8
BLACK
6
CONTINUOUS
10
5.93909
20
-2.78501
11
5.93353
21
-2.78332
0
LINE
8
BLACK
6
CONTINUOUS
10
5.93353
20
-2.78332
11
5.9284
21
-2.78058
0
LINE
8
BLACK
6
CONTINUOUS
10
5.9284
20
-2.78058
11
5.9239
21
-2.77689
0
LINE
8
BLACK
6
CONTINUOUS
10
5.9239
20
-2.77689
11
5.92298
21
-2.77576
0
LINE
8
BLACK
6
CONTINUOUS
10
5.92298
20
-2.77576
11
5.66685
21
-2.51964
0
LINE
8
BLACK
6
CONTINUOUS
10
5.66685
20
-2.51964
11
5.66157
21
-2.51912
0
LINE
8
BLACK
6
CONTINUOUS
10
5.66157
20
-2.51912
11
5.65415
21
-2.51686
0
LINE
8
BLACK
6
CONTINUOUS
10
5.65415
20
-2.51686
11
5.64731
21
-2.51321
0
LINE
8
BLACK
6
CONTINUOUS
10
5.64731
20
-2.51321
11
5.64132
21
-2.50829
0
LINE
8
BLACK
6
CONTINUOUS
10
5.64132
20
-2.50829
11
5.6364
21
-2.50229
0
LINE
8
BLACK
6
CONTINUOUS
10
5.6364
20
-2.50229
11
5.63274
21
-2.49545
0
LINE
8
BLACK
6
CONTINUOUS
10
5.63274
20
-2.49545
11
5.63049
21
-2.48803
0
LINE
8
BLACK
6
CONTINUOUS
10
5.63049
20
-2.48803
11
5.62992
21
-2.48225
0
LINE
8
BLACK
6
CONTINUOUS
10
5.62992
20
-2.48225
11
5.62992
21
-2.43901
0
LINE
8
BLACK
6
CONTINUOUS
10
5.62992
20
-2.43901
11
5.63049
21
-2.43323
0
LINE
8
BLACK
6
CONTINUOUS
10
5.63049
20
-2.43323
11
5.63274
21
-2.42581
0
LINE
8
BLACK
6
CONTINUOUS
10
5.63274
20
-2.42581
11
5.63583
21
-2.42003
0
LINE
8
BLACK
6
CONTINUOUS
10
5.63583
20
-2.42003
11
5.63583
21
-2.40748
0
LINE
8
BLACK
6
CONTINUOUS
10
5.63583
20
-2.40748
11
5.64838
21
-2.40748
0
LINE
8
BLACK
6
CONTINUOUS
10
5.64838
20
-2.40748
11
5.65415
21
-2.4044
0
LINE
8
BLACK
6
CONTINUOUS
10
5.65415
20
-2.4044
11
5.66157
21
-2.40214
0
LINE
8
BLACK
6
CONTINUOUS
10
5.66157
20
-2.40214
11
5.66929
21
-2.40138
0
LINE
8
BLACK
6
CONTINUOUS
10
5.66929
20
-2.40138
11
5.67701
21
-2.40214
0
LINE
8
BLACK
6
CONTINUOUS
10
5.35892
20
-2.62265
11
5.36179
21
-2.62384
0
LINE
8
BLACK
6
CONTINUOUS
10
5.36179
20
-2.62384
11
5.36437
21
-2.62556
0
LINE
8
BLACK
6
CONTINUOUS
10
5.36437
20
-2.62556
11
5.36656
21
-2.62776
0
LINE
8
BLACK
6
CONTINUOUS
10
5.36656
20
-2.62776
11
5.36829
21
-2.63034
0
LINE
8
BLACK
6
CONTINUOUS
10
5.36829
20
-2.63034
11
5.36947
21
-2.6332
0
LINE
8
BLACK
6
CONTINUOUS
10
5.36947
20
-2.6332
11
5.37008
21
-2.63624
0
LINE
8
BLACK
6
CONTINUOUS
10
5.37008
20
-2.63624
11
5.37008
21
-2.63935
0
LINE
8
BLACK
6
CONTINUOUS
10
5.37008
20
-2.63935
11
5.36947
21
-2.64239
0
LINE
8
BLACK
6
CONTINUOUS
10
5.36947
20
-2.64239
11
5.36829
21
-2.64525
0
LINE
8
BLACK
6
CONTINUOUS
10
5.36829
20
-2.64525
11
5.36656
21
-2.64783
0
LINE
8
BLACK
6
CONTINUOUS
10
5.36656
20
-2.64783
11
5.36437
21
-2.65003
0
LINE
8
BLACK
6
CONTINUOUS
10
5.36437
20
-2.65003
11
5.36179
21
-2.65175
0
LINE
8
BLACK
6
CONTINUOUS
10
5.36179
20
-2.65175
11
5.35892
21
-2.65294
0
LINE
8
BLACK
6
CONTINUOUS
10
5.35892
20
-2.65294
11
5.35588
21
-2.65354
0
LINE
8
BLACK
6
CONTINUOUS
10
5.35588
20
-2.65354
11
5.35278
21
-2.65354
0
LINE
8
BLACK
6
CONTINUOUS
10
5.35278
20
-2.65354
11
5.34974
21
-2.65294
0
LINE
8
BLACK
6
CONTINUOUS
10
5.34974
20
-2.65294
11
5.34687
21
-2.65175
0
LINE
8
BLACK
6
CONTINUOUS
10
5.34687
20
-2.65175
11
5.34429
21
-2.65003
0
LINE
8
BLACK
6
CONTINUOUS
10
5.34429
20
-2.65003
11
5.3421
21
-2.64783
0
LINE
8
BLACK
6
CONTINUOUS
10
5.3421
20
-2.64783
11
5.34037
21
-2.64525
0
LINE
8
BLACK
6
CONTINUOUS
10
5.34037
20
-2.64525
11
5.33919
21
-2.64239
0
LINE
8
BLACK
6
CONTINUOUS
10
5.33919
20
-2.64239
11
5.33858
21
-2.63935
0
LINE
8
BLACK
6
CONTINUOUS
10
5.33858
20
-2.63935
11
5.33858
21
-2.63624
0
LINE
8
BLACK
6
CONTINUOUS
10
5.33858
20
-2.63624
11
5.33919
21
-2.6332
0
LINE
8
BLACK
6
CONTINUOUS
10
5.33919
20
-2.6332
11
5.34037
21
-2.63034
0
LINE
8
BLACK
6
CONTINUOUS
10
5.34037
20
-2.63034
11
5.3421
21
-2.62776
0
LINE
8
BLACK
6
CONTINUOUS
10
5.3421
20
-2.62776
11
5.34429
21
-2.62556
0
LINE
8
BLACK
6
CONTINUOUS
10
5.34429
20
-2.62556
11
5.34687
21
-2.62384
0
LINE
8
BLACK
6
CONTINUOUS
10
5.34687
20
-2.62384
11
5.34974
21
-2.62265
0
LINE
8
BLACK
6
CONTINUOUS
10
5.34974
20
-2.62265
11
5.35278
21
-2.62205
0
LINE
8
BLACK
6
CONTINUOUS
10
5.35278
20
-2.62205
11
5.35588
21
-2.62205
0
LINE
8
BLACK
6
CONTINUOUS
10
5.35588
20
-2.62205
11
5.35892
21
-2.62265
0
LINE
8
BLACK
6
CONTINUOUS
10
7.09121
20
-2.62265
11
7.09407
21
-2.62384
0
LINE
8
BLACK
6
CONTINUOUS
10
7.09407
20
-2.62384
11
7.09665
21
-2.62556
0
LINE
8
BLACK
6
CONTINUOUS
10
7.09665
20
-2.62556
11
7.09885
21
-2.62776
0
LINE
8
BLACK
6
CONTINUOUS
10
7.09885
20
-2.62776
11
7.10057
21
-2.63034
0
LINE
8
BLACK
6
CONTINUOUS
10
7.10057
20
-2.63034
11
7.10176
21
-2.6332
0
LINE
8
BLACK
6
CONTINUOUS
10
7.10176
20
-2.6332
11
7.10236
21
-2.63624
0
LINE
8
BLACK
6
CONTINUOUS
10
7.10236
20
-2.63624
11
7.10236
21
-2.63935
0
LINE
8
BLACK
6
CONTINUOUS
10
7.10236
20
-2.63935
11
7.10176
21
-2.64239
0
LINE
8
BLACK
6
CONTINUOUS
10
7.10176
20
-2.64239
11
7.10057
21
-2.64525
0
LINE
8
BLACK
6
CONTINUOUS
10
7.10057
20
-2.64525
11
7.09885
21
-2.64783
0
LINE
8
BLACK
6
CONTINUOUS
10
7.09885
20
-2.64783
11
7.09665
21
-2.65003
0
LINE
8
BLACK
6
CONTINUOUS
10
7.09665
20
-2.65003
11
7.09407
21
-2.65175
0
LINE
8
BLACK
6
CONTINUOUS
10
7.09407
20
-2.65175
11
7.09121
21
-2.65294
0
LINE
8
BLACK
6
CONTINUOUS
10
7.09121
20
-2.65294
11
7.08817
21
-2.65354
0
LINE
8
BLACK
6
CONTINUOUS
10
7.08817
20
-2.65354
11
7.08506
21
-2.65354
0
LINE
8
BLACK
6
CONTINUOUS
10
7.08506
20
-2.65354
11
7.08202
21
-2.65294
0
LINE
8
BLACK
6
CONTINUOUS
10
7.08202
20
-2.65294
11
7.07915
21
-2.65175
0
LINE
8
BLACK
6
CONTINUOUS
10
7.07915
20
-2.65175
11
7.07658
21
-2.65003
0
LINE
8
BLACK
6
CONTINUOUS
10
7.07658
20
-2.65003
11
7.07438
21
-2.64783
0
LINE
8
BLACK
6
CONTINUOUS
10
7.07438
20
-2.64783
11
7.07266
21
-2.64525
0
LINE
8
BLACK
6
CONTINUOUS
10
7.07266
20
-2.64525
11
7.07147
21
-2.64239
0
LINE
8
BLACK
6
CONTINUOUS
10
7.07147
20
-2.64239
11
7.07087
21
-2.63935
0
LINE
8
BLACK
6
CONTINUOUS
10
7.07087
20
-2.63935
11
7.07087
21
-2.63624
0
LINE
8
BLACK
6
CONTINUOUS
10
7.07087
20
-2.63624
11
7.07147
21
-2.6332
0
LINE
8
BLACK
6
CONTINUOUS
10
7.07147
20
-2.6332
11
7.07266
21
-2.63034
0
LINE
8
BLACK
6
CONTINUOUS
10
7.07266
20
-2.63034
11
7.07438
21
-2.62776
0
LINE
8
BLACK
6
CONTINUOUS
10
7.07438
20
-2.62776
11
7.07658
21
-2.62556
0
LINE
8
BLACK
6
CONTINUOUS
10
7.07658
20
-2.62556
11
7.07915
21
-2.62384
0
LINE
8
BLACK
6
CONTINUOUS
10
7.07915
20
-2.62384
11
7.08202
21
-2.62265
0
LINE
8
BLACK
6
CONTINUOUS
10
7.08202
20
-2.62265
11
7.08506
21
-2.62205
0
LINE
8
BLACK
6
CONTINUOUS
10
7.08506
20
-2.62205
11
7.08817
21
-2.62205
0
LINE
8
BLACK
6
CONTINUOUS
10
7.08817
20
-2.62205
11
7.09121
21
-2.62265
0
CIRCLE
8
BLACK
10
7.08661
20
-2.6378
40
0.00787402
0
CIRCLE
8
BLACK
10
7.08661
20
-3.38583
40
0.00787402
0
CIRCLE
8
BLACK
10
5.35433
20
-3.38583
40
0.00787402
0
CIRCLE
8
BLACK
10
5.35433
20
-2.6378
40
0.00787402
  0
ENDSEC
  0
EOF
