  0
SECTION
  2
HEADER
  9
$ANGBASE
  50
0.0
  9
$ANGDIR
  70
1
  9
$MEASUREMENT
  70
0
  0
ENDSEC
  0
SECTION
  2
TABLES
  0
TABLE
  2
LTYPE
  70
4
  0
LTYPE
  5
40F
  2
CONTINUOUS
  70
0
  3
Solid line
  72
65
  73
0
  40
0.0
  0
LTYPE
  5
410
  2
DASHDOT
 70
0
  3
Dash Dot ____ _ ____ _
 72
65
 73
4
 40
2.0
 49
1.25
 49
-0.25
 49
0.25
 49
-0.25
  0
LTYPE
  5
411
  2
DASHED
 70
0
  3
Dashed __ __ __ __ __
 72
65
 73
2
 40
0.75
 49
0.5
 49
-0.25
  0
LTYPE
  5
43B
  2
DOTTED
 70
0
  3
Dotted .  .  .  .
 72
65
 73
2
 40
0.2
 49
0.0
 49
-0.2
  0
ENDTAB
  0
TABLE
  2
STYLE
  70
4
  0
STYLE
  2
KICAD
  70
0
  40
0
  41
1
  42
1
  50
0
  71
0
  3
isocp.shx
  0
STYLE
  2
KICADB
  70
0
  40
0
  41
1
  42
1
  50
0
  71
0
  3
isocp.shx
  0
STYLE
  2
KICADI
  70
0
  40
0
  41
1
  42
1
  50
15
  71
0
  3
isocp.shx
  0
STYLE
  2
KICADBI
  70
0
  40
0
  41
1
  42
1
  50
15
  71
0
  3
isocp.shx
  0
ENDTAB
  0
TABLE
  2
LAYER
  70
1
  0
LAYER
  2
BLACK
  70
0
  62
7
  6
CONTINUOUS
  0
ENDTAB
  0
ENDSEC
  0
SECTION
  2
ENTITIES
0
LINE
8
BLACK
6
CONTINUOUS
10
7.32298
20
-2.24114
11
7.32341
21
-2.24118
0
LINE
8
BLACK
6
CONTINUOUS
10
7.32341
20
-2.24118
11
7.32397
21
-2.24135
0
LINE
8
BLACK
6
CONTINUOUS
10
7.32397
20
-2.24135
11
7.32448
21
-2.24163
0
LINE
8
BLACK
6
CONTINUOUS
10
7.32448
20
-2.24163
11
7.32493
21
-2.242
0
LINE
8
BLACK
6
CONTINUOUS
10
7.32493
20
-2.242
11
7.3253
21
-2.24245
0
LINE
8
BLACK
6
CONTINUOUS
10
7.3253
20
-2.24245
11
7.32558
21
-2.24296
0
LINE
8
BLACK
6
CONTINUOUS
10
7.32558
20
-2.24296
11
7.32574
21
-2.24352
0
LINE
8
BLACK
6
CONTINUOUS
10
7.32574
20
-2.24352
11
7.3258
21
-2.24409
0
LINE
8
BLACK
6
CONTINUOUS
10
7.3258
20
-2.24409
11
7.32579
21
-2.24424
0
LINE
8
BLACK
6
CONTINUOUS
10
7.32579
20
-2.24424
11
7.32579
21
-3.54316
0
LINE
8
BLACK
6
CONTINUOUS
10
7.32579
20
-3.54316
11
7.3258
21
-3.54331
0
LINE
8
BLACK
6
CONTINUOUS
10
7.3258
20
-3.54331
11
7.32574
21
-3.54389
0
LINE
8
BLACK
6
CONTINUOUS
10
7.32574
20
-3.54389
11
7.32558
21
-3.54444
0
LINE
8
BLACK
6
CONTINUOUS
10
7.32558
20
-3.54444
11
7.3253
21
-3.54496
0
LINE
8
BLACK
6
CONTINUOUS
10
7.3253
20
-3.54496
11
7.32493
21
-3.54541
0
LINE
8
BLACK
6
CONTINUOUS
10
7.32493
20
-3.54541
11
7.32448
21
-3.54577
0
LINE
8
BLACK
6
CONTINUOUS
10
7.32448
20
-3.54577
11
7.32397
21
-3.54605
0
LINE
8
BLACK
6
CONTINUOUS
10
7.32397
20
-3.54605
11
7.32341
21
-3.54622
0
LINE
8
BLACK
6
CONTINUOUS
10
7.32341
20
-3.54622
11
7.32298
21
-3.54626
0
LINE
8
BLACK
6
CONTINUOUS
10
7.32298
20
-3.54626
11
7.32283
21
-3.54627
0
LINE
8
BLACK
6
CONTINUOUS
10
7.32283
20
-3.54627
11
7.32269
21
-3.54626
0
LINE
8
BLACK
6
CONTINUOUS
10
7.32269
20
-3.54626
11
5.11825
21
-3.54626
0
LINE
8
BLACK
6
CONTINUOUS
10
5.11825
20
-3.54626
11
5.11811
21
-3.54627
0
LINE
8
BLACK
6
CONTINUOUS
10
5.11811
20
-3.54627
11
5.11797
21
-3.54626
0
LINE
8
BLACK
6
CONTINUOUS
10
5.11797
20
-3.54626
11
5.11753
21
-3.54622
0
LINE
8
BLACK
6
CONTINUOUS
10
5.11753
20
-3.54622
11
5.11697
21
-3.54605
0
LINE
8
BLACK
6
CONTINUOUS
10
5.11697
20
-3.54605
11
5.11646
21
-3.54577
0
LINE
8
BLACK
6
CONTINUOUS
10
5.11646
20
-3.54577
11
5.11601
21
-3.54541
0
LINE
8
BLACK
6
CONTINUOUS
10
5.11601
20
-3.54541
11
5.11564
21
-3.54496
0
LINE
8
BLACK
6
CONTINUOUS
10
5.11564
20
-3.54496
11
5.11537
21
-3.54444
0
LINE
8
BLACK
6
CONTINUOUS
10
5.11537
20
-3.54444
11
5.1152
21
-3.54389
0
LINE
8
BLACK
6
CONTINUOUS
10
5.1152
20
-3.54389
11
5.11514
21
-3.54331
0
LINE
8
BLACK
6
CONTINUOUS
10
5.11514
20
-3.54331
11
5.11516
21
-3.54316
0
LINE
8
BLACK
6
CONTINUOUS
10
5.11516
20
-3.54316
11
5.11516
21
-2.24424
0
LINE
8
BLACK
6
CONTINUOUS
10
5.11516
20
-2.24424
11
5.11514
21
-2.24409
0
LINE
8
BLACK
6
CONTINUOUS
10
5.11514
20
-2.24409
11
5.1152
21
-2.24352
0
LINE
8
BLACK
6
CONTINUOUS
10
5.1152
20
-2.24352
11
5.11537
21
-2.24296
0
LINE
8
BLACK
6
CONTINUOUS
10
5.11537
20
-2.24296
11
5.11564
21
-2.24245
0
LINE
8
BLACK
6
CONTINUOUS
10
5.11564
20
-2.24245
11
5.11601
21
-2.242
0
LINE
8
BLACK
6
CONTINUOUS
10
5.11601
20
-2.242
11
5.11646
21
-2.24163
0
LINE
8
BLACK
6
CONTINUOUS
10
5.11646
20
-2.24163
11
5.11697
21
-2.24135
0
LINE
8
BLACK
6
CONTINUOUS
10
5.11697
20
-2.24135
11
5.11753
21
-2.24118
0
LINE
8
BLACK
6
CONTINUOUS
10
5.11753
20
-2.24118
11
5.11797
21
-2.24114
0
LINE
8
BLACK
6
CONTINUOUS
10
5.11797
20
-2.24114
11
5.11811
21
-2.24113
0
LINE
8
BLACK
6
CONTINUOUS
10
5.11811
20
-2.24113
11
5.11825
21
-2.24114
0
LINE
8
BLACK
6
CONTINUOUS
10
5.11825
20
-2.24114
11
7.32269
21
-2.24114
0
LINE
8
BLACK
6
CONTINUOUS
10
7.32269
20
-2.24114
11
7.32283
21
-2.24113
0
LINE
8
BLACK
6
CONTINUOUS
10
7.32283
20
-2.24113
11
7.32298
21
-2.24114
0
LINE
8
BLACK
6
CONTINUOUS
10
5.12106
20
-2.24705
11
5.12106
21
-3.54035
0
LINE
8
BLACK
6
CONTINUOUS
10
5.12106
20
-3.54035
11
7.31988
21
-3.54035
0
LINE
8
BLACK
6
CONTINUOUS
10
7.31988
20
-3.54035
11
7.31988
21
-2.24705
0
LINE
8
BLACK
6
CONTINUOUS
10
7.31988
20
-2.24705
11
5.12106
21
-2.24705
0
LINE
8
BLACK
6
CONTINUOUS
10
5.44998
20
-3.47942
11
5.45056
21
-3.47949
0
LINE
8
BLACK
6
CONTINUOUS
10
5.45056
20
-3.47949
11
5.45111
21
-3.47966
0
LINE
8
BLACK
6
CONTINUOUS
10
5.45111
20
-3.47966
11
5.45161
21
-3.47994
0
LINE
8
BLACK
6
CONTINUOUS
10
5.45161
20
-3.47994
11
5.45205
21
-3.48031
0
LINE
8
BLACK
6
CONTINUOUS
10
5.45205
20
-3.48031
11
5.45241
21
-3.48076
0
LINE
8
BLACK
6
CONTINUOUS
10
5.45241
20
-3.48076
11
5.45268
21
-3.48127
0
LINE
8
BLACK
6
CONTINUOUS
10
5.45268
20
-3.48127
11
5.45284
21
-3.48182
0
LINE
8
BLACK
6
CONTINUOUS
10
5.45284
20
-3.48182
11
5.4529
21
-3.4824
0
LINE
8
BLACK
6
CONTINUOUS
10
5.4529
20
-3.4824
11
5.45284
21
-3.48297
0
LINE
8
BLACK
6
CONTINUOUS
10
5.45284
20
-3.48297
11
5.45267
21
-3.48352
0
LINE
8
BLACK
6
CONTINUOUS
10
5.45267
20
-3.48352
11
5.45239
21
-3.48403
0
LINE
8
BLACK
6
CONTINUOUS
10
5.45239
20
-3.48403
11
5.45202
21
-3.48447
0
LINE
8
BLACK
6
CONTINUOUS
10
5.45202
20
-3.48447
11
5.45158
21
-3.48484
0
LINE
8
BLACK
6
CONTINUOUS
10
5.45158
20
-3.48484
11
5.45107
21
-3.48511
0
LINE
8
BLACK
6
CONTINUOUS
10
5.45107
20
-3.48511
11
5.45052
21
-3.48527
0
LINE
8
BLACK
6
CONTINUOUS
10
5.45052
20
-3.48527
11
5.44994
21
-3.48533
0
LINE
8
BLACK
6
CONTINUOUS
10
5.44994
20
-3.48533
11
5.43387
21
-3.48533
0
LINE
8
BLACK
6
CONTINUOUS
10
5.43387
20
-3.48533
11
5.43289
21
-3.4951
0
LINE
8
BLACK
6
CONTINUOUS
10
5.43289
20
-3.4951
11
5.43363
21
-3.49473
0
LINE
8
BLACK
6
CONTINUOUS
10
5.43363
20
-3.49473
11
5.43366
21
-3.49472
0
LINE
8
BLACK
6
CONTINUOUS
10
5.43366
20
-3.49472
11
5.43374
21
-3.49469
0
LINE
8
BLACK
6
CONTINUOUS
10
5.43374
20
-3.49469
11
5.43382
21
-3.49465
0
LINE
8
BLACK
6
CONTINUOUS
10
5.43382
20
-3.49465
11
5.43401
21
-3.49459
0
LINE
8
BLACK
6
CONTINUOUS
10
5.43401
20
-3.49459
11
5.4342
21
-3.49452
0
LINE
8
BLACK
6
CONTINUOUS
10
5.4342
20
-3.49452
11
5.43429
21
-3.4945
0
LINE
8
BLACK
6
CONTINUOUS
10
5.43429
20
-3.4945
11
5.43437
21
-3.49448
0
LINE
8
BLACK
6
CONTINUOUS
10
5.43437
20
-3.49448
11
5.43457
21
-3.49446
0
LINE
8
BLACK
6
CONTINUOUS
10
5.43457
20
-3.49446
11
5.43477
21
-3.49443
0
LINE
8
BLACK
6
CONTINUOUS
10
5.43477
20
-3.49443
11
5.43486
21
-3.49443
0
LINE
8
BLACK
6
CONTINUOUS
10
5.43486
20
-3.49443
11
5.43495
21
-3.49442
0
LINE
8
BLACK
6
CONTINUOUS
10
5.43495
20
-3.49442
11
5.44432
21
-3.49442
0
LINE
8
BLACK
6
CONTINUOUS
10
5.44432
20
-3.49442
11
5.44436
21
-3.49442
0
LINE
8
BLACK
6
CONTINUOUS
10
5.44436
20
-3.49442
11
5.44445
21
-3.49443
0
LINE
8
BLACK
6
CONTINUOUS
10
5.44445
20
-3.49443
11
5.44453
21
-3.49443
0
LINE
8
BLACK
6
CONTINUOUS
10
5.44453
20
-3.49443
11
5.44473
21
-3.49446
0
LINE
8
BLACK
6
CONTINUOUS
10
5.44473
20
-3.49446
11
5.44493
21
-3.49449
0
LINE
8
BLACK
6
CONTINUOUS
10
5.44493
20
-3.49449
11
5.44502
21
-3.49451
0
LINE
8
BLACK
6
CONTINUOUS
10
5.44502
20
-3.49451
11
5.4451
21
-3.49453
0
LINE
8
BLACK
6
CONTINUOUS
10
5.4451
20
-3.49453
11
5.44529
21
-3.4946
0
LINE
8
BLACK
6
CONTINUOUS
10
5.44529
20
-3.4946
11
5.44548
21
-3.49466
0
LINE
8
BLACK
6
CONTINUOUS
10
5.44548
20
-3.49466
11
5.44556
21
-3.4947
0
LINE
8
BLACK
6
CONTINUOUS
10
5.44556
20
-3.4947
11
5.44564
21
-3.49473
0
LINE
8
BLACK
6
CONTINUOUS
10
5.44564
20
-3.49473
11
5.44939
21
-3.49661
0
LINE
8
BLACK
6
CONTINUOUS
10
5.44939
20
-3.49661
11
5.44943
21
-3.49663
0
LINE
8
BLACK
6
CONTINUOUS
10
5.44943
20
-3.49663
11
5.44957
21
-3.49672
0
LINE
8
BLACK
6
CONTINUOUS
10
5.44957
20
-3.49672
11
5.44971
21
-3.4968
0
LINE
8
BLACK
6
CONTINUOUS
10
5.44971
20
-3.4968
11
5.44981
21
-3.49687
0
LINE
8
BLACK
6
CONTINUOUS
10
5.44981
20
-3.49687
11
5.44991
21
-3.49694
0
LINE
8
BLACK
6
CONTINUOUS
10
5.44991
20
-3.49694
11
5.45003
21
-3.49706
0
LINE
8
BLACK
6
CONTINUOUS
10
5.45003
20
-3.49706
11
5.45016
21
-3.49716
0
LINE
8
BLACK
6
CONTINUOUS
10
5.45016
20
-3.49716
11
5.45203
21
-3.49904
0
LINE
8
BLACK
6
CONTINUOUS
10
5.45203
20
-3.49904
11
5.45206
21
-3.49907
0
LINE
8
BLACK
6
CONTINUOUS
10
5.45206
20
-3.49907
11
5.45216
21
-3.4992
0
LINE
8
BLACK
6
CONTINUOUS
10
5.45216
20
-3.4992
11
5.45228
21
-3.49932
0
LINE
8
BLACK
6
CONTINUOUS
10
5.45228
20
-3.49932
11
5.45234
21
-3.49942
0
LINE
8
BLACK
6
CONTINUOUS
10
5.45234
20
-3.49942
11
5.45242
21
-3.49952
0
LINE
8
BLACK
6
CONTINUOUS
10
5.45242
20
-3.49952
11
5.4525
21
-3.49966
0
LINE
8
BLACK
6
CONTINUOUS
10
5.4525
20
-3.49966
11
5.45258
21
-3.4998
0
LINE
8
BLACK
6
CONTINUOUS
10
5.45258
20
-3.4998
11
5.45446
21
-3.50355
0
LINE
8
BLACK
6
CONTINUOUS
10
5.45446
20
-3.50355
11
5.45448
21
-3.50359
0
LINE
8
BLACK
6
CONTINUOUS
10
5.45448
20
-3.50359
11
5.45451
21
-3.50367
0
LINE
8
BLACK
6
CONTINUOUS
10
5.45451
20
-3.50367
11
5.45455
21
-3.50375
0
LINE
8
BLACK
6
CONTINUOUS
10
5.45455
20
-3.50375
11
5.45461
21
-3.50394
0
LINE
8
BLACK
6
CONTINUOUS
10
5.45461
20
-3.50394
11
5.45468
21
-3.50413
0
LINE
8
BLACK
6
CONTINUOUS
10
5.45468
20
-3.50413
11
5.45469
21
-3.50422
0
LINE
8
BLACK
6
CONTINUOUS
10
5.45469
20
-3.50422
11
5.45472
21
-3.5043
0
LINE
8
BLACK
6
CONTINUOUS
10
5.45472
20
-3.5043
11
5.45473
21
-3.5045
0
LINE
8
BLACK
6
CONTINUOUS
10
5.45473
20
-3.5045
11
5.45477
21
-3.5047
0
LINE
8
BLACK
6
CONTINUOUS
10
5.45477
20
-3.5047
11
5.45476
21
-3.50479
0
LINE
8
BLACK
6
CONTINUOUS
10
5.45476
20
-3.50479
11
5.45477
21
-3.50487
0
LINE
8
BLACK
6
CONTINUOUS
10
5.45477
20
-3.50487
11
5.45477
21
-3.51425
0
LINE
8
BLACK
6
CONTINUOUS
10
5.45477
20
-3.51425
11
5.45477
21
-3.51429
0
LINE
8
BLACK
6
CONTINUOUS
10
5.45477
20
-3.51429
11
5.45476
21
-3.51438
0
LINE
8
BLACK
6
CONTINUOUS
10
5.45476
20
-3.51438
11
5.45476
21
-3.51446
0
LINE
8
BLACK
6
CONTINUOUS
10
5.45476
20
-3.51446
11
5.45473
21
-3.51466
0
LINE
8
BLACK
6
CONTINUOUS
10
5.45473
20
-3.51466
11
5.45471
21
-3.51486
0
LINE
8
BLACK
6
CONTINUOUS
10
5.45471
20
-3.51486
11
5.45468
21
-3.51494
0
LINE
8
BLACK
6
CONTINUOUS
10
5.45468
20
-3.51494
11
5.45467
21
-3.51503
0
LINE
8
BLACK
6
CONTINUOUS
10
5.45467
20
-3.51503
11
5.45459
21
-3.51522
0
LINE
8
BLACK
6
CONTINUOUS
10
5.45459
20
-3.51522
11
5.45453
21
-3.51541
0
LINE
8
BLACK
6
CONTINUOUS
10
5.45453
20
-3.51541
11
5.45449
21
-3.51549
0
LINE
8
BLACK
6
CONTINUOUS
10
5.45449
20
-3.51549
11
5.45446
21
-3.51557
0
LINE
8
BLACK
6
CONTINUOUS
10
5.45446
20
-3.51557
11
5.45258
21
-3.51932
0
LINE
8
BLACK
6
CONTINUOUS
10
5.45258
20
-3.51932
11
5.45257
21
-3.51935
0
LINE
8
BLACK
6
CONTINUOUS
10
5.45257
20
-3.51935
11
5.45248
21
-3.51949
0
LINE
8
BLACK
6
CONTINUOUS
10
5.45248
20
-3.51949
11
5.4524
21
-3.51964
0
LINE
8
BLACK
6
CONTINUOUS
10
5.4524
20
-3.51964
11
5.45232
21
-3.51974
0
LINE
8
BLACK
6
CONTINUOUS
10
5.45232
20
-3.51974
11
5.45225
21
-3.51984
0
LINE
8
BLACK
6
CONTINUOUS
10
5.45225
20
-3.51984
11
5.45214
21
-3.51996
0
LINE
8
BLACK
6
CONTINUOUS
10
5.45214
20
-3.51996
11
5.45203
21
-3.52009
0
LINE
8
BLACK
6
CONTINUOUS
10
5.45203
20
-3.52009
11
5.45016
21
-3.52196
0
LINE
8
BLACK
6
CONTINUOUS
10
5.45016
20
-3.52196
11
5.45013
21
-3.52199
0
LINE
8
BLACK
6
CONTINUOUS
10
5.45013
20
-3.52199
11
5.45
21
-3.52209
0
LINE
8
BLACK
6
CONTINUOUS
10
5.45
20
-3.52209
11
5.44988
21
-3.52221
0
LINE
8
BLACK
6
CONTINUOUS
10
5.44988
20
-3.52221
11
5.44977
21
-3.52227
0
LINE
8
BLACK
6
CONTINUOUS
10
5.44977
20
-3.52227
11
5.44968
21
-3.52235
0
LINE
8
BLACK
6
CONTINUOUS
10
5.44968
20
-3.52235
11
5.44953
21
-3.52243
0
LINE
8
BLACK
6
CONTINUOUS
10
5.44953
20
-3.52243
11
5.44939
21
-3.52251
0
LINE
8
BLACK
6
CONTINUOUS
10
5.44939
20
-3.52251
11
5.44564
21
-3.52439
0
LINE
8
BLACK
6
CONTINUOUS
10
5.44564
20
-3.52439
11
5.4456
21
-3.52441
0
LINE
8
BLACK
6
CONTINUOUS
10
5.4456
20
-3.52441
11
5.44552
21
-3.52444
0
LINE
8
BLACK
6
CONTINUOUS
10
5.44552
20
-3.52444
11
5.44544
21
-3.52448
0
LINE
8
BLACK
6
CONTINUOUS
10
5.44544
20
-3.52448
11
5.44525
21
-3.52454
0
LINE
8
BLACK
6
CONTINUOUS
10
5.44525
20
-3.52454
11
5.44506
21
-3.52461
0
LINE
8
BLACK
6
CONTINUOUS
10
5.44506
20
-3.52461
11
5.44498
21
-3.52462
0
LINE
8
BLACK
6
CONTINUOUS
10
5.44498
20
-3.52462
11
5.44489
21
-3.52464
0
LINE
8
BLACK
6
CONTINUOUS
10
5.44489
20
-3.52464
11
5.44469
21
-3.52466
0
LINE
8
BLACK
6
CONTINUOUS
10
5.44469
20
-3.52466
11
5.44449
21
-3.52469
0
LINE
8
BLACK
6
CONTINUOUS
10
5.44449
20
-3.52469
11
5.44441
21
-3.52469
0
LINE
8
BLACK
6
CONTINUOUS
10
5.44441
20
-3.52469
11
5.44432
21
-3.5247
0
LINE
8
BLACK
6
CONTINUOUS
10
5.44432
20
-3.5247
11
5.43495
21
-3.5247
0
LINE
8
BLACK
6
CONTINUOUS
10
5.43495
20
-3.5247
11
5.4349
21
-3.5247
0
LINE
8
BLACK
6
CONTINUOUS
10
5.4349
20
-3.5247
11
5.43482
21
-3.52469
0
LINE
8
BLACK
6
CONTINUOUS
10
5.43482
20
-3.52469
11
5.43473
21
-3.52469
0
LINE
8
BLACK
6
CONTINUOUS
10
5.43473
20
-3.52469
11
5.43453
21
-3.52466
0
LINE
8
BLACK
6
CONTINUOUS
10
5.43453
20
-3.52466
11
5.43433
21
-3.52464
0
LINE
8
BLACK
6
CONTINUOUS
10
5.43433
20
-3.52464
11
5.43425
21
-3.52461
0
LINE
8
BLACK
6
CONTINUOUS
10
5.43425
20
-3.52461
11
5.43416
21
-3.52459
0
LINE
8
BLACK
6
CONTINUOUS
10
5.43416
20
-3.52459
11
5.43397
21
-3.52452
0
LINE
8
BLACK
6
CONTINUOUS
10
5.43397
20
-3.52452
11
5.43378
21
-3.52446
0
LINE
8
BLACK
6
CONTINUOUS
10
5.43378
20
-3.52446
11
5.43371
21
-3.52442
0
LINE
8
BLACK
6
CONTINUOUS
10
5.43371
20
-3.52442
11
5.43363
21
-3.52439
0
LINE
8
BLACK
6
CONTINUOUS
10
5.43363
20
-3.52439
11
5.42988
21
-3.52251
0
LINE
8
BLACK
6
CONTINUOUS
10
5.42988
20
-3.52251
11
5.42984
21
-3.52249
0
LINE
8
BLACK
6
CONTINUOUS
10
5.42984
20
-3.52249
11
5.4297
21
-3.5224
0
LINE
8
BLACK
6
CONTINUOUS
10
5.4297
20
-3.5224
11
5.42955
21
-3.52233
0
LINE
8
BLACK
6
CONTINUOUS
10
5.42955
20
-3.52233
11
5.42946
21
-3.52225
0
LINE
8
BLACK
6
CONTINUOUS
10
5.42946
20
-3.52225
11
5.42936
21
-3.52218
0
LINE
8
BLACK
6
CONTINUOUS
10
5.42936
20
-3.52218
11
5.42924
21
-3.52207
0
LINE
8
BLACK
6
CONTINUOUS
10
5.42924
20
-3.52207
11
5.42911
21
-3.52196
0
LINE
8
BLACK
6
CONTINUOUS
10
5.42911
20
-3.52196
11
5.42723
21
-3.52009
0
LINE
8
BLACK
6
CONTINUOUS
10
5.42723
20
-3.52009
11
5.4272
21
-3.52006
0
LINE
8
BLACK
6
CONTINUOUS
10
5.4272
20
-3.52006
11
5.42684
21
-3.51961
0
LINE
8
BLACK
6
CONTINUOUS
10
5.42684
20
-3.51961
11
5.42658
21
-3.51909
0
LINE
8
BLACK
6
CONTINUOUS
10
5.42658
20
-3.51909
11
5.42642
21
-3.51854
0
LINE
8
BLACK
6
CONTINUOUS
10
5.42642
20
-3.51854
11
5.42637
21
-3.51797
0
LINE
8
BLACK
6
CONTINUOUS
10
5.42637
20
-3.51797
11
5.42643
21
-3.51739
0
LINE
8
BLACK
6
CONTINUOUS
10
5.42643
20
-3.51739
11
5.4266
21
-3.51684
0
LINE
8
BLACK
6
CONTINUOUS
10
5.4266
20
-3.51684
11
5.42688
21
-3.51634
0
LINE
8
BLACK
6
CONTINUOUS
10
5.42688
20
-3.51634
11
5.42725
21
-3.5159
0
LINE
8
BLACK
6
CONTINUOUS
10
5.42725
20
-3.5159
11
5.4277
21
-3.51553
0
LINE
8
BLACK
6
CONTINUOUS
10
5.4277
20
-3.51553
11
5.42821
21
-3.51526
0
LINE
8
BLACK
6
CONTINUOUS
10
5.42821
20
-3.51526
11
5.42876
21
-3.5151
0
LINE
8
BLACK
6
CONTINUOUS
10
5.42876
20
-3.5151
11
5.42933
21
-3.51504
0
LINE
8
BLACK
6
CONTINUOUS
10
5.42933
20
-3.51504
11
5.4299
21
-3.5151
0
LINE
8
BLACK
6
CONTINUOUS
10
5.4299
20
-3.5151
11
5.43046
21
-3.51527
0
LINE
8
BLACK
6
CONTINUOUS
10
5.43046
20
-3.51527
11
5.43096
21
-3.51554
0
LINE
8
BLACK
6
CONTINUOUS
10
5.43096
20
-3.51554
11
5.43141
21
-3.51591
0
LINE
8
BLACK
6
CONTINUOUS
10
5.43141
20
-3.51591
11
5.43295
21
-3.51745
0
LINE
8
BLACK
6
CONTINUOUS
10
5.43295
20
-3.51745
11
5.43564
21
-3.51879
0
LINE
8
BLACK
6
CONTINUOUS
10
5.43564
20
-3.51879
11
5.44362
21
-3.51879
0
LINE
8
BLACK
6
CONTINUOUS
10
5.44362
20
-3.51879
11
5.44632
21
-3.51745
0
LINE
8
BLACK
6
CONTINUOUS
10
5.44632
20
-3.51745
11
5.44752
21
-3.51625
0
LINE
8
BLACK
6
CONTINUOUS
10
5.44752
20
-3.51625
11
5.44887
21
-3.51355
0
LINE
8
BLACK
6
CONTINUOUS
10
5.44887
20
-3.51355
11
5.44887
21
-3.50557
0
LINE
8
BLACK
6
CONTINUOUS
10
5.44887
20
-3.50557
11
5.44752
21
-3.50287
0
LINE
8
BLACK
6
CONTINUOUS
10
5.44752
20
-3.50287
11
5.44632
21
-3.50168
0
LINE
8
BLACK
6
CONTINUOUS
10
5.44632
20
-3.50168
11
5.44362
21
-3.50033
0
LINE
8
BLACK
6
CONTINUOUS
10
5.44362
20
-3.50033
11
5.43564
21
-3.50033
0
LINE
8
BLACK
6
CONTINUOUS
10
5.43564
20
-3.50033
11
5.43295
21
-3.50168
0
LINE
8
BLACK
6
CONTINUOUS
10
5.43295
20
-3.50168
11
5.43141
21
-3.50321
0
LINE
8
BLACK
6
CONTINUOUS
10
5.43141
20
-3.50321
11
5.43138
21
-3.50324
0
LINE
8
BLACK
6
CONTINUOUS
10
5.43138
20
-3.50324
11
5.43127
21
-3.50333
0
LINE
8
BLACK
6
CONTINUOUS
10
5.43127
20
-3.50333
11
5.43117
21
-3.50343
0
LINE
8
BLACK
6
CONTINUOUS
10
5.43117
20
-3.50343
11
5.43104
21
-3.50351
0
LINE
8
BLACK
6
CONTINUOUS
10
5.43104
20
-3.50351
11
5.43093
21
-3.5036
0
LINE
8
BLACK
6
CONTINUOUS
10
5.43093
20
-3.5036
11
5.4308
21
-3.50367
0
LINE
8
BLACK
6
CONTINUOUS
10
5.4308
20
-3.50367
11
5.43068
21
-3.50374
0
LINE
8
BLACK
6
CONTINUOUS
10
5.43068
20
-3.50374
11
5.43055
21
-3.5038
0
LINE
8
BLACK
6
CONTINUOUS
10
5.43055
20
-3.5038
11
5.43042
21
-3.50387
0
LINE
8
BLACK
6
CONTINUOUS
10
5.43042
20
-3.50387
11
5.43028
21
-3.50391
0
LINE
8
BLACK
6
CONTINUOUS
10
5.43028
20
-3.50391
11
5.43015
21
-3.50396
0
LINE
8
BLACK
6
CONTINUOUS
10
5.43015
20
-3.50396
11
5.43001
21
-3.50399
0
LINE
8
BLACK
6
CONTINUOUS
10
5.43001
20
-3.50399
11
5.42986
21
-3.50403
0
LINE
8
BLACK
6
CONTINUOUS
10
5.42986
20
-3.50403
11
5.42972
21
-3.50404
0
LINE
8
BLACK
6
CONTINUOUS
10
5.42972
20
-3.50404
11
5.42958
21
-3.50407
0
LINE
8
BLACK
6
CONTINUOUS
10
5.42958
20
-3.50407
11
5.42944
21
-3.50406
0
LINE
8
BLACK
6
CONTINUOUS
10
5.42944
20
-3.50406
11
5.42929
21
-3.50408
0
LINE
8
BLACK
6
CONTINUOUS
10
5.42929
20
-3.50408
11
5.42915
21
-3.50406
0
LINE
8
BLACK
6
CONTINUOUS
10
5.42915
20
-3.50406
11
5.42901
21
-3.50406
0
LINE
8
BLACK
6
CONTINUOUS
10
5.42901
20
-3.50406
11
5.42886
21
-3.50403
0
LINE
8
BLACK
6
CONTINUOUS
10
5.42886
20
-3.50403
11
5.42872
21
-3.50402
0
LINE
8
BLACK
6
CONTINUOUS
10
5.42872
20
-3.50402
11
5.42858
21
-3.50397
0
LINE
8
BLACK
6
CONTINUOUS
10
5.42858
20
-3.50397
11
5.42844
21
-3.50394
0
LINE
8
BLACK
6
CONTINUOUS
10
5.42844
20
-3.50394
11
5.42831
21
-3.50389
0
LINE
8
BLACK
6
CONTINUOUS
10
5.42831
20
-3.50389
11
5.42817
21
-3.50384
0
LINE
8
BLACK
6
CONTINUOUS
10
5.42817
20
-3.50384
11
5.42804
21
-3.50377
0
LINE
8
BLACK
6
CONTINUOUS
10
5.42804
20
-3.50377
11
5.42791
21
-3.50372
0
LINE
8
BLACK
6
CONTINUOUS
10
5.42791
20
-3.50372
11
5.42779
21
-3.50364
0
LINE
8
BLACK
6
CONTINUOUS
10
5.42779
20
-3.50364
11
5.42766
21
-3.50357
0
LINE
8
BLACK
6
CONTINUOUS
10
5.42766
20
-3.50357
11
5.42755
21
-3.50348
0
LINE
8
BLACK
6
CONTINUOUS
10
5.42755
20
-3.50348
11
5.42743
21
-3.5034
0
LINE
8
BLACK
6
CONTINUOUS
10
5.42743
20
-3.5034
11
5.42733
21
-3.50329
0
LINE
8
BLACK
6
CONTINUOUS
10
5.42733
20
-3.50329
11
5.42722
21
-3.5032
0
LINE
8
BLACK
6
CONTINUOUS
10
5.42722
20
-3.5032
11
5.42713
21
-3.50309
0
LINE
8
BLACK
6
CONTINUOUS
10
5.42713
20
-3.50309
11
5.42703
21
-3.50299
0
LINE
8
BLACK
6
CONTINUOUS
10
5.42703
20
-3.50299
11
5.42695
21
-3.50286
0
LINE
8
BLACK
6
CONTINUOUS
10
5.42695
20
-3.50286
11
5.42686
21
-3.50275
0
LINE
8
BLACK
6
CONTINUOUS
10
5.42686
20
-3.50275
11
5.42679
21
-3.50262
0
LINE
8
BLACK
6
CONTINUOUS
10
5.42679
20
-3.50262
11
5.42671
21
-3.50251
0
LINE
8
BLACK
6
CONTINUOUS
10
5.42671
20
-3.50251
11
5.42666
21
-3.50237
0
LINE
8
BLACK
6
CONTINUOUS
10
5.42666
20
-3.50237
11
5.42659
21
-3.50224
0
LINE
8
BLACK
6
CONTINUOUS
10
5.42659
20
-3.50224
11
5.42655
21
-3.5021
0
LINE
8
BLACK
6
CONTINUOUS
10
5.42655
20
-3.5021
11
5.42649
21
-3.50197
0
LINE
8
BLACK
6
CONTINUOUS
10
5.42649
20
-3.50197
11
5.42646
21
-3.50183
0
LINE
8
BLACK
6
CONTINUOUS
10
5.42646
20
-3.50183
11
5.42642
21
-3.50169
0
LINE
8
BLACK
6
CONTINUOUS
10
5.42642
20
-3.50169
11
5.42641
21
-3.50155
0
LINE
8
BLACK
6
CONTINUOUS
10
5.42641
20
-3.50155
11
5.42638
21
-3.50141
0
LINE
8
BLACK
6
CONTINUOUS
10
5.42638
20
-3.50141
11
5.42638
21
-3.50126
0
LINE
8
BLACK
6
CONTINUOUS
10
5.42638
20
-3.50126
11
5.42637
21
-3.50111
0
LINE
8
BLACK
6
CONTINUOUS
10
5.42637
20
-3.50111
11
5.42638
21
-3.50097
0
LINE
8
BLACK
6
CONTINUOUS
10
5.42638
20
-3.50097
11
5.42638
21
-3.50083
0
LINE
8
BLACK
6
CONTINUOUS
10
5.42638
20
-3.50083
11
5.42826
21
-3.48208
0
LINE
8
BLACK
6
CONTINUOUS
10
5.42826
20
-3.48208
11
5.42826
21
-3.48204
0
LINE
8
BLACK
6
CONTINUOUS
10
5.42826
20
-3.48204
11
5.42829
21
-3.48191
0
LINE
8
BLACK
6
CONTINUOUS
10
5.42829
20
-3.48191
11
5.4283
21
-3.48178
0
LINE
8
BLACK
6
CONTINUOUS
10
5.4283
20
-3.48178
11
5.42835
21
-3.48163
0
LINE
8
BLACK
6
CONTINUOUS
10
5.42835
20
-3.48163
11
5.42838
21
-3.48148
0
LINE
8
BLACK
6
CONTINUOUS
10
5.42838
20
-3.48148
11
5.42844
21
-3.48136
0
LINE
8
BLACK
6
CONTINUOUS
10
5.42844
20
-3.48136
11
5.42847
21
-3.48123
0
LINE
8
BLACK
6
CONTINUOUS
10
5.42847
20
-3.48123
11
5.42855
21
-3.48109
0
LINE
8
BLACK
6
CONTINUOUS
10
5.42855
20
-3.48109
11
5.42861
21
-3.48095
0
LINE
8
BLACK
6
CONTINUOUS
10
5.42861
20
-3.48095
11
5.42869
21
-3.48084
0
LINE
8
BLACK
6
CONTINUOUS
10
5.42869
20
-3.48084
11
5.42875
21
-3.48073
0
LINE
8
BLACK
6
CONTINUOUS
10
5.42875
20
-3.48073
11
5.42885
21
-3.4806
0
LINE
8
BLACK
6
CONTINUOUS
10
5.42885
20
-3.4806
11
5.42894
21
-3.48047
0
LINE
8
BLACK
6
CONTINUOUS
10
5.42894
20
-3.48047
11
5.42903
21
-3.48038
0
LINE
8
BLACK
6
CONTINUOUS
10
5.42903
20
-3.48038
11
5.42912
21
-3.48028
0
LINE
8
BLACK
6
CONTINUOUS
10
5.42912
20
-3.48028
11
5.42924
21
-3.48018
0
LINE
8
BLACK
6
CONTINUOUS
10
5.42924
20
-3.48018
11
5.42935
21
-3.48007
0
LINE
8
BLACK
6
CONTINUOUS
10
5.42935
20
-3.48007
11
5.42946
21
-3.48
0
LINE
8
BLACK
6
CONTINUOUS
10
5.42946
20
-3.48
11
5.42956
21
-3.47992
0
LINE
8
BLACK
6
CONTINUOUS
10
5.42956
20
-3.47992
11
5.4297
21
-3.47984
0
LINE
8
BLACK
6
CONTINUOUS
10
5.4297
20
-3.47984
11
5.42983
21
-3.47976
0
LINE
8
BLACK
6
CONTINUOUS
10
5.42983
20
-3.47976
11
5.42995
21
-3.47971
0
LINE
8
BLACK
6
CONTINUOUS
10
5.42995
20
-3.47971
11
5.43007
21
-3.47965
0
LINE
8
BLACK
6
CONTINUOUS
10
5.43007
20
-3.47965
11
5.43022
21
-3.4796
0
LINE
8
BLACK
6
CONTINUOUS
10
5.43022
20
-3.4796
11
5.43037
21
-3.47954
0
LINE
8
BLACK
6
CONTINUOUS
10
5.43037
20
-3.47954
11
5.4305
21
-3.47952
0
LINE
8
BLACK
6
CONTINUOUS
10
5.4305
20
-3.47952
11
5.43062
21
-3.47948
0
LINE
8
BLACK
6
CONTINUOUS
10
5.43062
20
-3.47948
11
5.43078
21
-3.47947
0
LINE
8
BLACK
6
CONTINUOUS
10
5.43078
20
-3.47947
11
5.43093
21
-3.47944
0
LINE
8
BLACK
6
CONTINUOUS
10
5.43093
20
-3.47944
11
5.43107
21
-3.47944
0
LINE
8
BLACK
6
CONTINUOUS
10
5.43107
20
-3.47944
11
5.4312
21
-3.47942
0
LINE
8
BLACK
6
CONTINUOUS
10
5.4312
20
-3.47942
11
5.44994
21
-3.47942
0
LINE
8
BLACK
6
CONTINUOUS
10
5.44994
20
-3.47942
11
5.44998
21
-3.47942
0
LINE
8
BLACK
6
CONTINUOUS
10
5.48561
20
-3.47942
11
5.48618
21
-3.47949
0
LINE
8
BLACK
6
CONTINUOUS
10
5.48618
20
-3.47949
11
5.48673
21
-3.47966
0
LINE
8
BLACK
6
CONTINUOUS
10
5.48673
20
-3.47966
11
5.48723
21
-3.47994
0
LINE
8
BLACK
6
CONTINUOUS
10
5.48723
20
-3.47994
11
5.48767
21
-3.48031
0
LINE
8
BLACK
6
CONTINUOUS
10
5.48767
20
-3.48031
11
5.48804
21
-3.48076
0
LINE
8
BLACK
6
CONTINUOUS
10
5.48804
20
-3.48076
11
5.4883
21
-3.48127
0
LINE
8
BLACK
6
CONTINUOUS
10
5.4883
20
-3.48127
11
5.48846
21
-3.48182
0
LINE
8
BLACK
6
CONTINUOUS
10
5.48846
20
-3.48182
11
5.48852
21
-3.4824
0
LINE
8
BLACK
6
CONTINUOUS
10
5.48852
20
-3.4824
11
5.48846
21
-3.48297
0
LINE
8
BLACK
6
CONTINUOUS
10
5.48846
20
-3.48297
11
5.48829
21
-3.48352
0
LINE
8
BLACK
6
CONTINUOUS
10
5.48829
20
-3.48352
11
5.48801
21
-3.48403
0
LINE
8
BLACK
6
CONTINUOUS
10
5.48801
20
-3.48403
11
5.48764
21
-3.48447
0
LINE
8
BLACK
6
CONTINUOUS
10
5.48764
20
-3.48447
11
5.4872
21
-3.48484
0
LINE
8
BLACK
6
CONTINUOUS
10
5.4872
20
-3.48484
11
5.48669
21
-3.48511
0
LINE
8
BLACK
6
CONTINUOUS
10
5.48669
20
-3.48511
11
5.48614
21
-3.48527
0
LINE
8
BLACK
6
CONTINUOUS
10
5.48614
20
-3.48527
11
5.48556
21
-3.48533
0
LINE
8
BLACK
6
CONTINUOUS
10
5.48556
20
-3.48533
11
5.47876
21
-3.48533
0
LINE
8
BLACK
6
CONTINUOUS
10
5.47876
20
-3.48533
11
5.47606
21
-3.48668
0
LINE
8
BLACK
6
CONTINUOUS
10
5.47606
20
-3.48668
11
5.47474
21
-3.48801
0
LINE
8
BLACK
6
CONTINUOUS
10
5.47474
20
-3.48801
11
5.47143
21
-3.49296
0
LINE
8
BLACK
6
CONTINUOUS
10
5.47143
20
-3.49296
11
5.4707
21
-3.49588
0
LINE
8
BLACK
6
CONTINUOUS
10
5.4707
20
-3.49588
11
5.473
21
-3.49473
0
LINE
8
BLACK
6
CONTINUOUS
10
5.473
20
-3.49473
11
5.47303
21
-3.49472
0
LINE
8
BLACK
6
CONTINUOUS
10
5.47303
20
-3.49472
11
5.47311
21
-3.49469
0
LINE
8
BLACK
6
CONTINUOUS
10
5.47311
20
-3.49469
11
5.47319
21
-3.49465
0
LINE
8
BLACK
6
CONTINUOUS
10
5.47319
20
-3.49465
11
5.47338
21
-3.49459
0
LINE
8
BLACK
6
CONTINUOUS
10
5.47338
20
-3.49459
11
5.47357
21
-3.49452
0
LINE
8
BLACK
6
CONTINUOUS
10
5.47357
20
-3.49452
11
5.47366
21
-3.4945
0
LINE
8
BLACK
6
CONTINUOUS
10
5.47366
20
-3.4945
11
5.47374
21
-3.49448
0
LINE
8
BLACK
6
CONTINUOUS
10
5.47374
20
-3.49448
11
5.47394
21
-3.49446
0
LINE
8
BLACK
6
CONTINUOUS
10
5.47394
20
-3.49446
11
5.47414
21
-3.49443
0
LINE
8
BLACK
6
CONTINUOUS
10
5.47414
20
-3.49443
11
5.47423
21
-3.49443
0
LINE
8
BLACK
6
CONTINUOUS
10
5.47423
20
-3.49443
11
5.47432
21
-3.49442
0
LINE
8
BLACK
6
CONTINUOUS
10
5.47432
20
-3.49442
11
5.48181
21
-3.49442
0
LINE
8
BLACK
6
CONTINUOUS
10
5.48181
20
-3.49442
11
5.48186
21
-3.49442
0
LINE
8
BLACK
6
CONTINUOUS
10
5.48186
20
-3.49442
11
5.48194
21
-3.49443
0
LINE
8
BLACK
6
CONTINUOUS
10
5.48194
20
-3.49443
11
5.48203
21
-3.49443
0
LINE
8
BLACK
6
CONTINUOUS
10
5.48203
20
-3.49443
11
5.48223
21
-3.49446
0
LINE
8
BLACK
6
CONTINUOUS
10
5.48223
20
-3.49446
11
5.48243
21
-3.49449
0
LINE
8
BLACK
6
CONTINUOUS
10
5.48243
20
-3.49449
11
5.48251
21
-3.49451
0
LINE
8
BLACK
6
CONTINUOUS
10
5.48251
20
-3.49451
11
5.4826
21
-3.49453
0
LINE
8
BLACK
6
CONTINUOUS
10
5.4826
20
-3.49453
11
5.48279
21
-3.4946
0
LINE
8
BLACK
6
CONTINUOUS
10
5.48279
20
-3.4946
11
5.48298
21
-3.49466
0
LINE
8
BLACK
6
CONTINUOUS
10
5.48298
20
-3.49466
11
5.48305
21
-3.4947
0
LINE
8
BLACK
6
CONTINUOUS
10
5.48305
20
-3.4947
11
5.48314
21
-3.49473
0
LINE
8
BLACK
6
CONTINUOUS
10
5.48314
20
-3.49473
11
5.48688
21
-3.49661
0
LINE
8
BLACK
6
CONTINUOUS
10
5.48688
20
-3.49661
11
5.48692
21
-3.49663
0
LINE
8
BLACK
6
CONTINUOUS
10
5.48692
20
-3.49663
11
5.48706
21
-3.49672
0
LINE
8
BLACK
6
CONTINUOUS
10
5.48706
20
-3.49672
11
5.48721
21
-3.4968
0
LINE
8
BLACK
6
CONTINUOUS
10
5.48721
20
-3.4968
11
5.4873
21
-3.49687
0
LINE
8
BLACK
6
CONTINUOUS
10
5.4873
20
-3.49687
11
5.48741
21
-3.49694
0
LINE
8
BLACK
6
CONTINUOUS
10
5.48741
20
-3.49694
11
5.48752
21
-3.49706
0
LINE
8
BLACK
6
CONTINUOUS
10
5.48752
20
-3.49706
11
5.48765
21
-3.49716
0
LINE
8
BLACK
6
CONTINUOUS
10
5.48765
20
-3.49716
11
5.48953
21
-3.49904
0
LINE
8
BLACK
6
CONTINUOUS
10
5.48953
20
-3.49904
11
5.48956
21
-3.49907
0
LINE
8
BLACK
6
CONTINUOUS
10
5.48956
20
-3.49907
11
5.48966
21
-3.4992
0
LINE
8
BLACK
6
CONTINUOUS
10
5.48966
20
-3.4992
11
5.48977
21
-3.49932
0
LINE
8
BLACK
6
CONTINUOUS
10
5.48977
20
-3.49932
11
5.48984
21
-3.49942
0
LINE
8
BLACK
6
CONTINUOUS
10
5.48984
20
-3.49942
11
5.48992
21
-3.49952
0
LINE
8
BLACK
6
CONTINUOUS
10
5.48992
20
-3.49952
11
5.48999
21
-3.49966
0
LINE
8
BLACK
6
CONTINUOUS
10
5.48999
20
-3.49966
11
5.49008
21
-3.4998
0
LINE
8
BLACK
6
CONTINUOUS
10
5.49008
20
-3.4998
11
5.49195
21
-3.50355
0
LINE
8
BLACK
6
CONTINUOUS
10
5.49195
20
-3.50355
11
5.49197
21
-3.50359
0
LINE
8
BLACK
6
CONTINUOUS
10
5.49197
20
-3.50359
11
5.492
21
-3.50367
0
LINE
8
BLACK
6
CONTINUOUS
10
5.492
20
-3.50367
11
5.49204
21
-3.50375
0
LINE
8
BLACK
6
CONTINUOUS
10
5.49204
20
-3.50375
11
5.4921
21
-3.50394
0
LINE
8
BLACK
6
CONTINUOUS
10
5.4921
20
-3.50394
11
5.49217
21
-3.50413
0
LINE
8
BLACK
6
CONTINUOUS
10
5.49217
20
-3.50413
11
5.49219
21
-3.50422
0
LINE
8
BLACK
6
CONTINUOUS
10
5.49219
20
-3.50422
11
5.49221
21
-3.5043
0
LINE
8
BLACK
6
CONTINUOUS
10
5.49221
20
-3.5043
11
5.49223
21
-3.5045
0
LINE
8
BLACK
6
CONTINUOUS
10
5.49223
20
-3.5045
11
5.49226
21
-3.5047
0
LINE
8
BLACK
6
CONTINUOUS
10
5.49226
20
-3.5047
11
5.49226
21
-3.50479
0
LINE
8
BLACK
6
CONTINUOUS
10
5.49226
20
-3.50479
11
5.49227
21
-3.50487
0
LINE
8
BLACK
6
CONTINUOUS
10
5.49227
20
-3.50487
11
5.49227
21
-3.51425
0
LINE
8
BLACK
6
CONTINUOUS
10
5.49227
20
-3.51425
11
5.49227
21
-3.51429
0
LINE
8
BLACK
6
CONTINUOUS
10
5.49227
20
-3.51429
11
5.49226
21
-3.51438
0
LINE
8
BLACK
6
CONTINUOUS
10
5.49226
20
-3.51438
11
5.49226
21
-3.51446
0
LINE
8
BLACK
6
CONTINUOUS
10
5.49226
20
-3.51446
11
5.49222
21
-3.51466
0
LINE
8
BLACK
6
CONTINUOUS
10
5.49222
20
-3.51466
11
5.4922
21
-3.51486
0
LINE
8
BLACK
6
CONTINUOUS
10
5.4922
20
-3.51486
11
5.49218
21
-3.51494
0
LINE
8
BLACK
6
CONTINUOUS
10
5.49218
20
-3.51494
11
5.49216
21
-3.51503
0
LINE
8
BLACK
6
CONTINUOUS
10
5.49216
20
-3.51503
11
5.49209
21
-3.51522
0
LINE
8
BLACK
6
CONTINUOUS
10
5.49209
20
-3.51522
11
5.49203
21
-3.51541
0
LINE
8
BLACK
6
CONTINUOUS
10
5.49203
20
-3.51541
11
5.49199
21
-3.51549
0
LINE
8
BLACK
6
CONTINUOUS
10
5.49199
20
-3.51549
11
5.49195
21
-3.51557
0
LINE
8
BLACK
6
CONTINUOUS
10
5.49195
20
-3.51557
11
5.49008
21
-3.51932
0
LINE
8
BLACK
6
CONTINUOUS
10
5.49008
20
-3.51932
11
5.49006
21
-3.51935
0
LINE
8
BLACK
6
CONTINUOUS
10
5.49006
20
-3.51935
11
5.48997
21
-3.51949
0
LINE
8
BLACK
6
CONTINUOUS
10
5.48997
20
-3.51949
11
5.48989
21
-3.51964
0
LINE
8
BLACK
6
CONTINUOUS
10
5.48989
20
-3.51964
11
5.48981
21
-3.51974
0
LINE
8
BLACK
6
CONTINUOUS
10
5.48981
20
-3.51974
11
5.48975
21
-3.51984
0
LINE
8
BLACK
6
CONTINUOUS
10
5.48975
20
-3.51984
11
5.48963
21
-3.51996
0
LINE
8
BLACK
6
CONTINUOUS
10
5.48963
20
-3.51996
11
5.48953
21
-3.52009
0
LINE
8
BLACK
6
CONTINUOUS
10
5.48953
20
-3.52009
11
5.48765
21
-3.52196
0
LINE
8
BLACK
6
CONTINUOUS
10
5.48765
20
-3.52196
11
5.48762
21
-3.52199
0
LINE
8
BLACK
6
CONTINUOUS
10
5.48762
20
-3.52199
11
5.48749
21
-3.52209
0
LINE
8
BLACK
6
CONTINUOUS
10
5.48749
20
-3.52209
11
5.48737
21
-3.52221
0
LINE
8
BLACK
6
CONTINUOUS
10
5.48737
20
-3.52221
11
5.48727
21
-3.52227
0
LINE
8
BLACK
6
CONTINUOUS
10
5.48727
20
-3.52227
11
5.48717
21
-3.52235
0
LINE
8
BLACK
6
CONTINUOUS
10
5.48717
20
-3.52235
11
5.48703
21
-3.52243
0
LINE
8
BLACK
6
CONTINUOUS
10
5.48703
20
-3.52243
11
5.48688
21
-3.52251
0
LINE
8
BLACK
6
CONTINUOUS
10
5.48688
20
-3.52251
11
5.48314
21
-3.52439
0
LINE
8
BLACK
6
CONTINUOUS
10
5.48314
20
-3.52439
11
5.4831
21
-3.52441
0
LINE
8
BLACK
6
CONTINUOUS
10
5.4831
20
-3.52441
11
5.48302
21
-3.52444
0
LINE
8
BLACK
6
CONTINUOUS
10
5.48302
20
-3.52444
11
5.48294
21
-3.52448
0
LINE
8
BLACK
6
CONTINUOUS
10
5.48294
20
-3.52448
11
5.48275
21
-3.52454
0
LINE
8
BLACK
6
CONTINUOUS
10
5.48275
20
-3.52454
11
5.48256
21
-3.52461
0
LINE
8
BLACK
6
CONTINUOUS
10
5.48256
20
-3.52461
11
5.48247
21
-3.52462
0
LINE
8
BLACK
6
CONTINUOUS
10
5.48247
20
-3.52462
11
5.48239
21
-3.52464
0
LINE
8
BLACK
6
CONTINUOUS
10
5.48239
20
-3.52464
11
5.48219
21
-3.52466
0
LINE
8
BLACK
6
CONTINUOUS
10
5.48219
20
-3.52466
11
5.48199
21
-3.52469
0
LINE
8
BLACK
6
CONTINUOUS
10
5.48199
20
-3.52469
11
5.4819
21
-3.52469
0
LINE
8
BLACK
6
CONTINUOUS
10
5.4819
20
-3.52469
11
5.48181
21
-3.5247
0
LINE
8
BLACK
6
CONTINUOUS
10
5.48181
20
-3.5247
11
5.47432
21
-3.5247
0
LINE
8
BLACK
6
CONTINUOUS
10
5.47432
20
-3.5247
11
5.47427
21
-3.5247
0
LINE
8
BLACK
6
CONTINUOUS
10
5.47427
20
-3.5247
11
5.47419
21
-3.52469
0
LINE
8
BLACK
6
CONTINUOUS
10
5.47419
20
-3.52469
11
5.4741
21
-3.52469
0
LINE
8
BLACK
6
CONTINUOUS
10
5.4741
20
-3.52469
11
5.4739
21
-3.52466
0
LINE
8
BLACK
6
CONTINUOUS
10
5.4739
20
-3.52466
11
5.4737
21
-3.52464
0
LINE
8
BLACK
6
CONTINUOUS
10
5.4737
20
-3.52464
11
5.47362
21
-3.52461
0
LINE
8
BLACK
6
CONTINUOUS
10
5.47362
20
-3.52461
11
5.47353
21
-3.52459
0
LINE
8
BLACK
6
CONTINUOUS
10
5.47353
20
-3.52459
11
5.47334
21
-3.52452
0
LINE
8
BLACK
6
CONTINUOUS
10
5.47334
20
-3.52452
11
5.47315
21
-3.52446
0
LINE
8
BLACK
6
CONTINUOUS
10
5.47315
20
-3.52446
11
5.47308
21
-3.52442
0
LINE
8
BLACK
6
CONTINUOUS
10
5.47308
20
-3.52442
11
5.473
21
-3.52439
0
LINE
8
BLACK
6
CONTINUOUS
10
5.473
20
-3.52439
11
5.46925
21
-3.52251
0
LINE
8
BLACK
6
CONTINUOUS
10
5.46925
20
-3.52251
11
5.46921
21
-3.52249
0
LINE
8
BLACK
6
CONTINUOUS
10
5.46921
20
-3.52249
11
5.46907
21
-3.5224
0
LINE
8
BLACK
6
CONTINUOUS
10
5.46907
20
-3.5224
11
5.46892
21
-3.52233
0
LINE
8
BLACK
6
CONTINUOUS
10
5.46892
20
-3.52233
11
5.46883
21
-3.52225
0
LINE
8
BLACK
6
CONTINUOUS
10
5.46883
20
-3.52225
11
5.46873
21
-3.52218
0
LINE
8
BLACK
6
CONTINUOUS
10
5.46873
20
-3.52218
11
5.46861
21
-3.52207
0
LINE
8
BLACK
6
CONTINUOUS
10
5.46861
20
-3.52207
11
5.46848
21
-3.52196
0
LINE
8
BLACK
6
CONTINUOUS
10
5.46848
20
-3.52196
11
5.4666
21
-3.52009
0
LINE
8
BLACK
6
CONTINUOUS
10
5.4666
20
-3.52009
11
5.46657
21
-3.52006
0
LINE
8
BLACK
6
CONTINUOUS
10
5.46657
20
-3.52006
11
5.46647
21
-3.51993
0
LINE
8
BLACK
6
CONTINUOUS
10
5.46647
20
-3.51993
11
5.46636
21
-3.51981
0
LINE
8
BLACK
6
CONTINUOUS
10
5.46636
20
-3.51981
11
5.46629
21
-3.5197
0
LINE
8
BLACK
6
CONTINUOUS
10
5.46629
20
-3.5197
11
5.46622
21
-3.51961
0
LINE
8
BLACK
6
CONTINUOUS
10
5.46622
20
-3.51961
11
5.46614
21
-3.51946
0
LINE
8
BLACK
6
CONTINUOUS
10
5.46614
20
-3.51946
11
5.46605
21
-3.51932
0
LINE
8
BLACK
6
CONTINUOUS
10
5.46605
20
-3.51932
11
5.46418
21
-3.51557
0
LINE
8
BLACK
6
CONTINUOUS
10
5.46418
20
-3.51557
11
5.46416
21
-3.51553
0
LINE
8
BLACK
6
CONTINUOUS
10
5.46416
20
-3.51553
11
5.46413
21
-3.51545
0
LINE
8
BLACK
6
CONTINUOUS
10
5.46413
20
-3.51545
11
5.46409
21
-3.51537
0
LINE
8
BLACK
6
CONTINUOUS
10
5.46409
20
-3.51537
11
5.46403
21
-3.51518
0
LINE
8
BLACK
6
CONTINUOUS
10
5.46403
20
-3.51518
11
5.46396
21
-3.51499
0
LINE
8
BLACK
6
CONTINUOUS
10
5.46396
20
-3.51499
11
5.46395
21
-3.51491
0
LINE
8
BLACK
6
CONTINUOUS
10
5.46395
20
-3.51491
11
5.46392
21
-3.51482
0
LINE
8
BLACK
6
CONTINUOUS
10
5.46392
20
-3.51482
11
5.4639
21
-3.51462
0
LINE
8
BLACK
6
CONTINUOUS
10
5.4639
20
-3.51462
11
5.46387
21
-3.51442
0
LINE
8
BLACK
6
CONTINUOUS
10
5.46387
20
-3.51442
11
5.46387
21
-3.51433
0
LINE
8
BLACK
6
CONTINUOUS
10
5.46387
20
-3.51433
11
5.46386
21
-3.51425
0
LINE
8
BLACK
6
CONTINUOUS
10
5.46386
20
-3.51425
11
5.46386
21
-3.49925
0
LINE
8
BLACK
6
CONTINUOUS
10
5.46386
20
-3.49925
11
5.46386
21
-3.49921
0
LINE
8
BLACK
6
CONTINUOUS
10
5.46386
20
-3.49921
11
5.46387
21
-3.49916
0
LINE
8
BLACK
6
CONTINUOUS
10
5.46387
20
-3.49916
11
5.46387
21
-3.4991
0
LINE
8
BLACK
6
CONTINUOUS
10
5.46387
20
-3.4991
11
5.4639
21
-3.49887
0
LINE
8
BLACK
6
CONTINUOUS
10
5.4639
20
-3.49887
11
5.46393
21
-3.49864
0
LINE
8
BLACK
6
CONTINUOUS
10
5.46393
20
-3.49864
11
5.46394
21
-3.49859
0
LINE
8
BLACK
6
CONTINUOUS
10
5.46394
20
-3.49859
11
5.46395
21
-3.49853
0
LINE
8
BLACK
6
CONTINUOUS
10
5.46395
20
-3.49853
11
5.46583
21
-3.49103
0
LINE
8
BLACK
6
CONTINUOUS
10
5.46583
20
-3.49103
11
5.46584
21
-3.49099
0
LINE
8
BLACK
6
CONTINUOUS
10
5.46584
20
-3.49099
11
5.46591
21
-3.49081
0
LINE
8
BLACK
6
CONTINUOUS
10
5.46591
20
-3.49081
11
5.46596
21
-3.49062
0
LINE
8
BLACK
6
CONTINUOUS
10
5.46596
20
-3.49062
11
5.46601
21
-3.49054
0
LINE
8
BLACK
6
CONTINUOUS
10
5.46601
20
-3.49054
11
5.46604
21
-3.49045
0
LINE
8
BLACK
6
CONTINUOUS
10
5.46604
20
-3.49045
11
5.46614
21
-3.49029
0
LINE
8
BLACK
6
CONTINUOUS
10
5.46614
20
-3.49029
11
5.46623
21
-3.49011
0
LINE
8
BLACK
6
CONTINUOUS
10
5.46623
20
-3.49011
11
5.46998
21
-3.48449
0
LINE
8
BLACK
6
CONTINUOUS
10
5.46998
20
-3.48449
11
5.46999
21
-3.48448
0
LINE
8
BLACK
6
CONTINUOUS
10
5.46999
20
-3.48448
11
5.46999
21
-3.48448
0
LINE
8
BLACK
6
CONTINUOUS
10
5.46999
20
-3.48448
11
5.46999
21
-3.48448
0
LINE
8
BLACK
6
CONTINUOUS
10
5.46999
20
-3.48448
11
5.47001
21
-3.48445
0
LINE
8
BLACK
6
CONTINUOUS
10
5.47001
20
-3.48445
11
5.47018
21
-3.48425
0
LINE
8
BLACK
6
CONTINUOUS
10
5.47018
20
-3.48425
11
5.47035
21
-3.48404
0
LINE
8
BLACK
6
CONTINUOUS
10
5.47035
20
-3.48404
11
5.47223
21
-3.48216
0
LINE
8
BLACK
6
CONTINUOUS
10
5.47223
20
-3.48216
11
5.47226
21
-3.48214
0
LINE
8
BLACK
6
CONTINUOUS
10
5.47226
20
-3.48214
11
5.47239
21
-3.48203
0
LINE
8
BLACK
6
CONTINUOUS
10
5.47239
20
-3.48203
11
5.47251
21
-3.48192
0
LINE
8
BLACK
6
CONTINUOUS
10
5.47251
20
-3.48192
11
5.47261
21
-3.48185
0
LINE
8
BLACK
6
CONTINUOUS
10
5.47261
20
-3.48185
11
5.47271
21
-3.48178
0
LINE
8
BLACK
6
CONTINUOUS
10
5.47271
20
-3.48178
11
5.47285
21
-3.4817
0
LINE
8
BLACK
6
CONTINUOUS
10
5.47285
20
-3.4817
11
5.473
21
-3.48161
0
LINE
8
BLACK
6
CONTINUOUS
10
5.473
20
-3.48161
11
5.47674
21
-3.47974
0
LINE
8
BLACK
6
CONTINUOUS
10
5.47674
20
-3.47974
11
5.47678
21
-3.47972
0
LINE
8
BLACK
6
CONTINUOUS
10
5.47678
20
-3.47972
11
5.47686
21
-3.47969
0
LINE
8
BLACK
6
CONTINUOUS
10
5.47686
20
-3.47969
11
5.47694
21
-3.47965
0
LINE
8
BLACK
6
CONTINUOUS
10
5.47694
20
-3.47965
11
5.47713
21
-3.47959
0
LINE
8
BLACK
6
CONTINUOUS
10
5.47713
20
-3.47959
11
5.47732
21
-3.47952
0
LINE
8
BLACK
6
CONTINUOUS
10
5.47732
20
-3.47952
11
5.47741
21
-3.47951
0
LINE
8
BLACK
6
CONTINUOUS
10
5.47741
20
-3.47951
11
5.47749
21
-3.47948
0
LINE
8
BLACK
6
CONTINUOUS
10
5.47749
20
-3.47948
11
5.47769
21
-3.47946
0
LINE
8
BLACK
6
CONTINUOUS
10
5.47769
20
-3.47946
11
5.47789
21
-3.47943
0
LINE
8
BLACK
6
CONTINUOUS
10
5.47789
20
-3.47943
11
5.47798
21
-3.47943
0
LINE
8
BLACK
6
CONTINUOUS
10
5.47798
20
-3.47943
11
5.47807
21
-3.47942
0
LINE
8
BLACK
6
CONTINUOUS
10
5.47807
20
-3.47942
11
5.48556
21
-3.47942
0
LINE
8
BLACK
6
CONTINUOUS
10
5.48556
20
-3.47942
11
5.48561
21
-3.47942
0
LINE
8
BLACK
6
CONTINUOUS
10
5.47501
20
-3.50033
11
5.47232
21
-3.50168
0
LINE
8
BLACK
6
CONTINUOUS
10
5.47232
20
-3.50168
11
5.47112
21
-3.50287
0
LINE
8
BLACK
6
CONTINUOUS
10
5.47112
20
-3.50287
11
5.46977
21
-3.50557
0
LINE
8
BLACK
6
CONTINUOUS
10
5.46977
20
-3.50557
11
5.46977
21
-3.51355
0
LINE
8
BLACK
6
CONTINUOUS
10
5.46977
20
-3.51355
11
5.47112
21
-3.51625
0
LINE
8
BLACK
6
CONTINUOUS
10
5.47112
20
-3.51625
11
5.47232
21
-3.51745
0
LINE
8
BLACK
6
CONTINUOUS
10
5.47232
20
-3.51745
11
5.47501
21
-3.51879
0
LINE
8
BLACK
6
CONTINUOUS
10
5.47501
20
-3.51879
11
5.48112
21
-3.51879
0
LINE
8
BLACK
6
CONTINUOUS
10
5.48112
20
-3.51879
11
5.48382
21
-3.51745
0
LINE
8
BLACK
6
CONTINUOUS
10
5.48382
20
-3.51745
11
5.48501
21
-3.51625
0
LINE
8
BLACK
6
CONTINUOUS
10
5.48501
20
-3.51625
11
5.48636
21
-3.51355
0
LINE
8
BLACK
6
CONTINUOUS
10
5.48636
20
-3.51355
11
5.48636
21
-3.50557
0
LINE
8
BLACK
6
CONTINUOUS
10
5.48636
20
-3.50557
11
5.48501
21
-3.50287
0
LINE
8
BLACK
6
CONTINUOUS
10
5.48501
20
-3.50287
11
5.48382
21
-3.50168
0
LINE
8
BLACK
6
CONTINUOUS
10
5.48382
20
-3.50168
11
5.48112
21
-3.50033
0
LINE
8
BLACK
6
CONTINUOUS
10
5.48112
20
-3.50033
11
5.47501
21
-3.50033
0
LINE
8
BLACK
6
CONTINUOUS
10
5.56997
20
-3.49255
11
5.57006
21
-3.49256
0
LINE
8
BLACK
6
CONTINUOUS
10
5.57006
20
-3.49256
11
5.57014
21
-3.49256
0
LINE
8
BLACK
6
CONTINUOUS
10
5.57014
20
-3.49256
11
5.57034
21
-3.49259
0
LINE
8
BLACK
6
CONTINUOUS
10
5.57034
20
-3.49259
11
5.57054
21
-3.49261
0
LINE
8
BLACK
6
CONTINUOUS
10
5.57054
20
-3.49261
11
5.57063
21
-3.49264
0
LINE
8
BLACK
6
CONTINUOUS
10
5.57063
20
-3.49264
11
5.57071
21
-3.49265
0
LINE
8
BLACK
6
CONTINUOUS
10
5.57071
20
-3.49265
11
5.5709
21
-3.49273
0
LINE
8
BLACK
6
CONTINUOUS
10
5.5709
20
-3.49273
11
5.57109
21
-3.49279
0
LINE
8
BLACK
6
CONTINUOUS
10
5.57109
20
-3.49279
11
5.57117
21
-3.49283
0
LINE
8
BLACK
6
CONTINUOUS
10
5.57117
20
-3.49283
11
5.57125
21
-3.49286
0
LINE
8
BLACK
6
CONTINUOUS
10
5.57125
20
-3.49286
11
5.575
21
-3.49473
0
LINE
8
BLACK
6
CONTINUOUS
10
5.575
20
-3.49473
11
5.57504
21
-3.49475
0
LINE
8
BLACK
6
CONTINUOUS
10
5.57504
20
-3.49475
11
5.57509
21
-3.49479
0
LINE
8
BLACK
6
CONTINUOUS
10
5.57509
20
-3.49479
11
5.57515
21
-3.49481
0
LINE
8
BLACK
6
CONTINUOUS
10
5.57515
20
-3.49481
11
5.57533
21
-3.49494
0
LINE
8
BLACK
6
CONTINUOUS
10
5.57533
20
-3.49494
11
5.57552
21
-3.49507
0
LINE
8
BLACK
6
CONTINUOUS
10
5.57552
20
-3.49507
11
5.57555
21
-3.4951
0
LINE
8
BLACK
6
CONTINUOUS
10
5.57555
20
-3.4951
11
5.57557
21
-3.49508
0
LINE
8
BLACK
6
CONTINUOUS
10
5.57557
20
-3.49508
11
5.57562
21
-3.49504
0
LINE
8
BLACK
6
CONTINUOUS
10
5.57562
20
-3.49504
11
5.57581
21
-3.49492
0
LINE
8
BLACK
6
CONTINUOUS
10
5.57581
20
-3.49492
11
5.57599
21
-3.49479
0
LINE
8
BLACK
6
CONTINUOUS
10
5.57599
20
-3.49479
11
5.57605
21
-3.49477
0
LINE
8
BLACK
6
CONTINUOUS
10
5.57605
20
-3.49477
11
5.57611
21
-3.49473
0
LINE
8
BLACK
6
CONTINUOUS
10
5.57611
20
-3.49473
11
5.57986
21
-3.49286
0
LINE
8
BLACK
6
CONTINUOUS
10
5.57986
20
-3.49286
11
5.57989
21
-3.49284
0
LINE
8
BLACK
6
CONTINUOUS
10
5.57989
20
-3.49284
11
5.57998
21
-3.49281
0
LINE
8
BLACK
6
CONTINUOUS
10
5.57998
20
-3.49281
11
5.58005
21
-3.49277
0
LINE
8
BLACK
6
CONTINUOUS
10
5.58005
20
-3.49277
11
5.58025
21
-3.49271
0
LINE
8
BLACK
6
CONTINUOUS
10
5.58025
20
-3.49271
11
5.58043
21
-3.49264
0
LINE
8
BLACK
6
CONTINUOUS
10
5.58043
20
-3.49264
11
5.58052
21
-3.49263
0
LINE
8
BLACK
6
CONTINUOUS
10
5.58052
20
-3.49263
11
5.5806
21
-3.4926
0
LINE
8
BLACK
6
CONTINUOUS
10
5.5806
20
-3.4926
11
5.5808
21
-3.49258
0
LINE
8
BLACK
6
CONTINUOUS
10
5.5808
20
-3.49258
11
5.581
21
-3.49255
0
LINE
8
BLACK
6
CONTINUOUS
10
5.581
20
-3.49255
11
5.58109
21
-3.49256
0
LINE
8
BLACK
6
CONTINUOUS
10
5.58109
20
-3.49256
11
5.58118
21
-3.49255
0
LINE
8
BLACK
6
CONTINUOUS
10
5.58118
20
-3.49255
11
5.5868
21
-3.49255
0
LINE
8
BLACK
6
CONTINUOUS
10
5.5868
20
-3.49255
11
5.58684
21
-3.49255
0
LINE
8
BLACK
6
CONTINUOUS
10
5.58684
20
-3.49255
11
5.58693
21
-3.49256
0
LINE
8
BLACK
6
CONTINUOUS
10
5.58693
20
-3.49256
11
5.58702
21
-3.49256
0
LINE
8
BLACK
6
CONTINUOUS
10
5.58702
20
-3.49256
11
5.58722
21
-3.49259
0
LINE
8
BLACK
6
CONTINUOUS
10
5.58722
20
-3.49259
11
5.58742
21
-3.49261
0
LINE
8
BLACK
6
CONTINUOUS
10
5.58742
20
-3.49261
11
5.5875
21
-3.49264
0
LINE
8
BLACK
6
CONTINUOUS
10
5.5875
20
-3.49264
11
5.58758
21
-3.49265
0
LINE
8
BLACK
6
CONTINUOUS
10
5.58758
20
-3.49265
11
5.58777
21
-3.49273
0
LINE
8
BLACK
6
CONTINUOUS
10
5.58777
20
-3.49273
11
5.58796
21
-3.49279
0
LINE
8
BLACK
6
CONTINUOUS
10
5.58796
20
-3.49279
11
5.58804
21
-3.49283
0
LINE
8
BLACK
6
CONTINUOUS
10
5.58804
20
-3.49283
11
5.58812
21
-3.49286
0
LINE
8
BLACK
6
CONTINUOUS
10
5.58812
20
-3.49286
11
5.59187
21
-3.49473
0
LINE
8
BLACK
6
CONTINUOUS
10
5.59187
20
-3.49473
11
5.59191
21
-3.49475
0
LINE
8
BLACK
6
CONTINUOUS
10
5.59191
20
-3.49475
11
5.59196
21
-3.49479
0
LINE
8
BLACK
6
CONTINUOUS
10
5.59196
20
-3.49479
11
5.59202
21
-3.49481
0
LINE
8
BLACK
6
CONTINUOUS
10
5.59202
20
-3.49481
11
5.5922
21
-3.49494
0
LINE
8
BLACK
6
CONTINUOUS
10
5.5922
20
-3.49494
11
5.59239
21
-3.49507
0
LINE
8
BLACK
6
CONTINUOUS
10
5.59239
20
-3.49507
11
5.59244
21
-3.49511
0
LINE
8
BLACK
6
CONTINUOUS
10
5.59244
20
-3.49511
11
5.59249
21
-3.49515
0
LINE
8
BLACK
6
CONTINUOUS
10
5.59249
20
-3.49515
11
5.59264
21
-3.49531
0
LINE
8
BLACK
6
CONTINUOUS
10
5.59264
20
-3.49531
11
5.59281
21
-3.49547
0
LINE
8
BLACK
6
CONTINUOUS
10
5.59281
20
-3.49547
11
5.59284
21
-3.49552
0
LINE
8
BLACK
6
CONTINUOUS
10
5.59284
20
-3.49552
11
5.59289
21
-3.49557
0
LINE
8
BLACK
6
CONTINUOUS
10
5.59289
20
-3.49557
11
5.59301
21
-3.49576
0
LINE
8
BLACK
6
CONTINUOUS
10
5.59301
20
-3.49576
11
5.59313
21
-3.49594
0
LINE
8
BLACK
6
CONTINUOUS
10
5.59313
20
-3.49594
11
5.59316
21
-3.496
0
LINE
8
BLACK
6
CONTINUOUS
10
5.59316
20
-3.496
11
5.59319
21
-3.49605
0
LINE
8
BLACK
6
CONTINUOUS
10
5.59319
20
-3.49605
11
5.59507
21
-3.4998
0
LINE
8
BLACK
6
CONTINUOUS
10
5.59507
20
-3.4998
11
5.59509
21
-3.49984
0
LINE
8
BLACK
6
CONTINUOUS
10
5.59509
20
-3.49984
11
5.59512
21
-3.49992
0
LINE
8
BLACK
6
CONTINUOUS
10
5.59512
20
-3.49992
11
5.59516
21
-3.5
0
LINE
8
BLACK
6
CONTINUOUS
10
5.59516
20
-3.5
11
5.59521
21
-3.50019
0
LINE
8
BLACK
6
CONTINUOUS
10
5.59521
20
-3.50019
11
5.59528
21
-3.50038
0
LINE
8
BLACK
6
CONTINUOUS
10
5.59528
20
-3.50038
11
5.5953
21
-3.50047
0
LINE
8
BLACK
6
CONTINUOUS
10
5.5953
20
-3.50047
11
5.59532
21
-3.50055
0
LINE
8
BLACK
6
CONTINUOUS
10
5.59532
20
-3.50055
11
5.59534
21
-3.50075
0
LINE
8
BLACK
6
CONTINUOUS
10
5.59534
20
-3.50075
11
5.59537
21
-3.50095
0
LINE
8
BLACK
6
CONTINUOUS
10
5.59537
20
-3.50095
11
5.59537
21
-3.50104
0
LINE
8
BLACK
6
CONTINUOUS
10
5.59537
20
-3.50104
11
5.59538
21
-3.50112
0
LINE
8
BLACK
6
CONTINUOUS
10
5.59538
20
-3.50112
11
5.59538
21
-3.52175
0
LINE
8
BLACK
6
CONTINUOUS
10
5.59538
20
-3.52175
11
5.59538
21
-3.52179
0
LINE
8
BLACK
6
CONTINUOUS
10
5.59538
20
-3.52179
11
5.59531
21
-3.52236
0
LINE
8
BLACK
6
CONTINUOUS
10
5.59531
20
-3.52236
11
5.59514
21
-3.52291
0
LINE
8
BLACK
6
CONTINUOUS
10
5.59514
20
-3.52291
11
5.59486
21
-3.52342
0
LINE
8
BLACK
6
CONTINUOUS
10
5.59486
20
-3.52342
11
5.59449
21
-3.52386
0
LINE
8
BLACK
6
CONTINUOUS
10
5.59449
20
-3.52386
11
5.59404
21
-3.52422
0
LINE
8
BLACK
6
CONTINUOUS
10
5.59404
20
-3.52422
11
5.59353
21
-3.52448
0
LINE
8
BLACK
6
CONTINUOUS
10
5.59353
20
-3.52448
11
5.59298
21
-3.52465
0
LINE
8
BLACK
6
CONTINUOUS
10
5.59298
20
-3.52465
11
5.59241
21
-3.5247
0
LINE
8
BLACK
6
CONTINUOUS
10
5.59241
20
-3.5247
11
5.59183
21
-3.52464
0
LINE
8
BLACK
6
CONTINUOUS
10
5.59183
20
-3.52464
11
5.59128
21
-3.52447
0
LINE
8
BLACK
6
CONTINUOUS
10
5.59128
20
-3.52447
11
5.59077
21
-3.5242
0
LINE
8
BLACK
6
CONTINUOUS
10
5.59077
20
-3.5242
11
5.59033
21
-3.52383
0
LINE
8
BLACK
6
CONTINUOUS
10
5.59033
20
-3.52383
11
5.58997
21
-3.52338
0
LINE
8
BLACK
6
CONTINUOUS
10
5.58997
20
-3.52338
11
5.5897
21
-3.52287
0
LINE
8
BLACK
6
CONTINUOUS
10
5.5897
20
-3.52287
11
5.58953
21
-3.52232
0
LINE
8
BLACK
6
CONTINUOUS
10
5.58953
20
-3.52232
11
5.58947
21
-3.52175
0
LINE
8
BLACK
6
CONTINUOUS
10
5.58947
20
-3.52175
11
5.58947
21
-3.50182
0
LINE
8
BLACK
6
CONTINUOUS
10
5.58947
20
-3.50182
11
5.58835
21
-3.49958
0
LINE
8
BLACK
6
CONTINUOUS
10
5.58835
20
-3.49958
11
5.5861
21
-3.49845
0
LINE
8
BLACK
6
CONTINUOUS
10
5.5861
20
-3.49845
11
5.58187
21
-3.49845
0
LINE
8
BLACK
6
CONTINUOUS
10
5.58187
20
-3.49845
11
5.57963
21
-3.49958
0
LINE
8
BLACK
6
CONTINUOUS
10
5.57963
20
-3.49958
11
5.57851
21
-3.50182
0
LINE
8
BLACK
6
CONTINUOUS
10
5.57851
20
-3.50182
11
5.57851
21
-3.52175
0
LINE
8
BLACK
6
CONTINUOUS
10
5.57851
20
-3.52175
11
5.57851
21
-3.52179
0
LINE
8
BLACK
6
CONTINUOUS
10
5.57851
20
-3.52179
11
5.57844
21
-3.52236
0
LINE
8
BLACK
6
CONTINUOUS
10
5.57844
20
-3.52236
11
5.57827
21
-3.52291
0
LINE
8
BLACK
6
CONTINUOUS
10
5.57827
20
-3.52291
11
5.57799
21
-3.52342
0
LINE
8
BLACK
6
CONTINUOUS
10
5.57799
20
-3.52342
11
5.57762
21
-3.52386
0
LINE
8
BLACK
6
CONTINUOUS
10
5.57762
20
-3.52386
11
5.57717
21
-3.52422
0
LINE
8
BLACK
6
CONTINUOUS
10
5.57717
20
-3.52422
11
5.57666
21
-3.52448
0
LINE
8
BLACK
6
CONTINUOUS
10
5.57666
20
-3.52448
11
5.57611
21
-3.52465
0
LINE
8
BLACK
6
CONTINUOUS
10
5.57611
20
-3.52465
11
5.57553
21
-3.5247
0
LINE
8
BLACK
6
CONTINUOUS
10
5.57553
20
-3.5247
11
5.57496
21
-3.52464
0
LINE
8
BLACK
6
CONTINUOUS
10
5.57496
20
-3.52464
11
5.57441
21
-3.52447
0
LINE
8
BLACK
6
CONTINUOUS
10
5.57441
20
-3.52447
11
5.5739
21
-3.5242
0
LINE
8
BLACK
6
CONTINUOUS
10
5.5739
20
-3.5242
11
5.57346
21
-3.52383
0
LINE
8
BLACK
6
CONTINUOUS
10
5.57346
20
-3.52383
11
5.57309
21
-3.52338
0
LINE
8
BLACK
6
CONTINUOUS
10
5.57309
20
-3.52338
11
5.57282
21
-3.52287
0
LINE
8
BLACK
6
CONTINUOUS
10
5.57282
20
-3.52287
11
5.57266
21
-3.52232
0
LINE
8
BLACK
6
CONTINUOUS
10
5.57266
20
-3.52232
11
5.5726
21
-3.52175
0
LINE
8
BLACK
6
CONTINUOUS
10
5.5726
20
-3.52175
11
5.5726
21
-3.50182
0
LINE
8
BLACK
6
CONTINUOUS
10
5.5726
20
-3.50182
11
5.57148
21
-3.49958
0
LINE
8
BLACK
6
CONTINUOUS
10
5.57148
20
-3.49958
11
5.56923
21
-3.49845
0
LINE
8
BLACK
6
CONTINUOUS
10
5.56923
20
-3.49845
11
5.565
21
-3.49845
0
LINE
8
BLACK
6
CONTINUOUS
10
5.565
20
-3.49845
11
5.5623
21
-3.4998
0
LINE
8
BLACK
6
CONTINUOUS
10
5.5623
20
-3.4998
11
5.56163
21
-3.50047
0
LINE
8
BLACK
6
CONTINUOUS
10
5.56163
20
-3.50047
11
5.56163
21
-3.52175
0
LINE
8
BLACK
6
CONTINUOUS
10
5.56163
20
-3.52175
11
5.56163
21
-3.52179
0
LINE
8
BLACK
6
CONTINUOUS
10
5.56163
20
-3.52179
11
5.56157
21
-3.52236
0
LINE
8
BLACK
6
CONTINUOUS
10
5.56157
20
-3.52236
11
5.56139
21
-3.52291
0
LINE
8
BLACK
6
CONTINUOUS
10
5.56139
20
-3.52291
11
5.56112
21
-3.52342
0
LINE
8
BLACK
6
CONTINUOUS
10
5.56112
20
-3.52342
11
5.56075
21
-3.52386
0
LINE
8
BLACK
6
CONTINUOUS
10
5.56075
20
-3.52386
11
5.5603
21
-3.52422
0
LINE
8
BLACK
6
CONTINUOUS
10
5.5603
20
-3.52422
11
5.55979
21
-3.52448
0
LINE
8
BLACK
6
CONTINUOUS
10
5.55979
20
-3.52448
11
5.55923
21
-3.52465
0
LINE
8
BLACK
6
CONTINUOUS
10
5.55923
20
-3.52465
11
5.55866
21
-3.5247
0
LINE
8
BLACK
6
CONTINUOUS
10
5.55866
20
-3.5247
11
5.55809
21
-3.52464
0
LINE
8
BLACK
6
CONTINUOUS
10
5.55809
20
-3.52464
11
5.55754
21
-3.52447
0
LINE
8
BLACK
6
CONTINUOUS
10
5.55754
20
-3.52447
11
5.55703
21
-3.5242
0
LINE
8
BLACK
6
CONTINUOUS
10
5.55703
20
-3.5242
11
5.55658
21
-3.52383
0
LINE
8
BLACK
6
CONTINUOUS
10
5.55658
20
-3.52383
11
5.55622
21
-3.52338
0
LINE
8
BLACK
6
CONTINUOUS
10
5.55622
20
-3.52338
11
5.55595
21
-3.52287
0
LINE
8
BLACK
6
CONTINUOUS
10
5.55595
20
-3.52287
11
5.55578
21
-3.52232
0
LINE
8
BLACK
6
CONTINUOUS
10
5.55578
20
-3.52232
11
5.55573
21
-3.52175
0
LINE
8
BLACK
6
CONTINUOUS
10
5.55573
20
-3.52175
11
5.55573
21
-3.4955
0
LINE
8
BLACK
6
CONTINUOUS
10
5.55573
20
-3.4955
11
5.55573
21
-3.49546
0
LINE
8
BLACK
6
CONTINUOUS
10
5.55573
20
-3.49546
11
5.55579
21
-3.49489
0
LINE
8
BLACK
6
CONTINUOUS
10
5.55579
20
-3.49489
11
5.55597
21
-3.49434
0
LINE
8
BLACK
6
CONTINUOUS
10
5.55597
20
-3.49434
11
5.55624
21
-3.49383
0
LINE
8
BLACK
6
CONTINUOUS
10
5.55624
20
-3.49383
11
5.55661
21
-3.49339
0
LINE
8
BLACK
6
CONTINUOUS
10
5.55661
20
-3.49339
11
5.55706
21
-3.49303
0
LINE
8
BLACK
6
CONTINUOUS
10
5.55706
20
-3.49303
11
5.55757
21
-3.49276
0
LINE
8
BLACK
6
CONTINUOUS
10
5.55757
20
-3.49276
11
5.55813
21
-3.4926
0
LINE
8
BLACK
6
CONTINUOUS
10
5.55813
20
-3.4926
11
5.5587
21
-3.49255
0
LINE
8
BLACK
6
CONTINUOUS
10
5.5587
20
-3.49255
11
5.55927
21
-3.49261
0
LINE
8
BLACK
6
CONTINUOUS
10
5.55927
20
-3.49261
11
5.55982
21
-3.49278
0
LINE
8
BLACK
6
CONTINUOUS
10
5.55982
20
-3.49278
11
5.56033
21
-3.49305
0
LINE
8
BLACK
6
CONTINUOUS
10
5.56033
20
-3.49305
11
5.56078
21
-3.49342
0
LINE
8
BLACK
6
CONTINUOUS
10
5.56078
20
-3.49342
11
5.56109
21
-3.49381
0
LINE
8
BLACK
6
CONTINUOUS
10
5.56109
20
-3.49381
11
5.56298
21
-3.49286
0
LINE
8
BLACK
6
CONTINUOUS
10
5.56298
20
-3.49286
11
5.56302
21
-3.49284
0
LINE
8
BLACK
6
CONTINUOUS
10
5.56302
20
-3.49284
11
5.5631
21
-3.49281
0
LINE
8
BLACK
6
CONTINUOUS
10
5.5631
20
-3.49281
11
5.56318
21
-3.49277
0
LINE
8
BLACK
6
CONTINUOUS
10
5.56318
20
-3.49277
11
5.56337
21
-3.49271
0
LINE
8
BLACK
6
CONTINUOUS
10
5.56337
20
-3.49271
11
5.56356
21
-3.49264
0
LINE
8
BLACK
6
CONTINUOUS
10
5.56356
20
-3.49264
11
5.56365
21
-3.49263
0
LINE
8
BLACK
6
CONTINUOUS
10
5.56365
20
-3.49263
11
5.56373
21
-3.4926
0
LINE
8
BLACK
6
CONTINUOUS
10
5.56373
20
-3.4926
11
5.56393
21
-3.49258
0
LINE
8
BLACK
6
CONTINUOUS
10
5.56393
20
-3.49258
11
5.56413
21
-3.49255
0
LINE
8
BLACK
6
CONTINUOUS
10
5.56413
20
-3.49255
11
5.56422
21
-3.49256
0
LINE
8
BLACK
6
CONTINUOUS
10
5.56422
20
-3.49256
11
5.5643
21
-3.49255
0
LINE
8
BLACK
6
CONTINUOUS
10
5.5643
20
-3.49255
11
5.56993
21
-3.49255
0
LINE
8
BLACK
6
CONTINUOUS
10
5.56993
20
-3.49255
11
5.56997
21
-3.49255
0
LINE
8
BLACK
6
CONTINUOUS
10
5.51748
20
-3.49255
11
5.51756
21
-3.49256
0
LINE
8
BLACK
6
CONTINUOUS
10
5.51756
20
-3.49256
11
5.51765
21
-3.49256
0
LINE
8
BLACK
6
CONTINUOUS
10
5.51765
20
-3.49256
11
5.51785
21
-3.49259
0
LINE
8
BLACK
6
CONTINUOUS
10
5.51785
20
-3.49259
11
5.51805
21
-3.49261
0
LINE
8
BLACK
6
CONTINUOUS
10
5.51805
20
-3.49261
11
5.51813
21
-3.49264
0
LINE
8
BLACK
6
CONTINUOUS
10
5.51813
20
-3.49264
11
5.51822
21
-3.49265
0
LINE
8
BLACK
6
CONTINUOUS
10
5.51822
20
-3.49265
11
5.51841
21
-3.49273
0
LINE
8
BLACK
6
CONTINUOUS
10
5.51841
20
-3.49273
11
5.5186
21
-3.49279
0
LINE
8
BLACK
6
CONTINUOUS
10
5.5186
20
-3.49279
11
5.51867
21
-3.49283
0
LINE
8
BLACK
6
CONTINUOUS
10
5.51867
20
-3.49283
11
5.51876
21
-3.49286
0
LINE
8
BLACK
6
CONTINUOUS
10
5.51876
20
-3.49286
11
5.52251
21
-3.49473
0
LINE
8
BLACK
6
CONTINUOUS
10
5.52251
20
-3.49473
11
5.52254
21
-3.49475
0
LINE
8
BLACK
6
CONTINUOUS
10
5.52254
20
-3.49475
11
5.5226
21
-3.49479
0
LINE
8
BLACK
6
CONTINUOUS
10
5.5226
20
-3.49479
11
5.52265
21
-3.49481
0
LINE
8
BLACK
6
CONTINUOUS
10
5.52265
20
-3.49481
11
5.52284
21
-3.49494
0
LINE
8
BLACK
6
CONTINUOUS
10
5.52284
20
-3.49494
11
5.52303
21
-3.49507
0
LINE
8
BLACK
6
CONTINUOUS
10
5.52303
20
-3.49507
11
5.52306
21
-3.4951
0
LINE
8
BLACK
6
CONTINUOUS
10
5.52306
20
-3.4951
11
5.52308
21
-3.49508
0
LINE
8
BLACK
6
CONTINUOUS
10
5.52308
20
-3.49508
11
5.52313
21
-3.49504
0
LINE
8
BLACK
6
CONTINUOUS
10
5.52313
20
-3.49504
11
5.52332
21
-3.49492
0
LINE
8
BLACK
6
CONTINUOUS
10
5.52332
20
-3.49492
11
5.5235
21
-3.49479
0
LINE
8
BLACK
6
CONTINUOUS
10
5.5235
20
-3.49479
11
5.52356
21
-3.49477
0
LINE
8
BLACK
6
CONTINUOUS
10
5.52356
20
-3.49477
11
5.52361
21
-3.49473
0
LINE
8
BLACK
6
CONTINUOUS
10
5.52361
20
-3.49473
11
5.52736
21
-3.49286
0
LINE
8
BLACK
6
CONTINUOUS
10
5.52736
20
-3.49286
11
5.5274
21
-3.49284
0
LINE
8
BLACK
6
CONTINUOUS
10
5.5274
20
-3.49284
11
5.52748
21
-3.49281
0
LINE
8
BLACK
6
CONTINUOUS
10
5.52748
20
-3.49281
11
5.52756
21
-3.49277
0
LINE
8
BLACK
6
CONTINUOUS
10
5.52756
20
-3.49277
11
5.52775
21
-3.49271
0
LINE
8
BLACK
6
CONTINUOUS
10
5.52775
20
-3.49271
11
5.52794
21
-3.49264
0
LINE
8
BLACK
6
CONTINUOUS
10
5.52794
20
-3.49264
11
5.52803
21
-3.49263
0
LINE
8
BLACK
6
CONTINUOUS
10
5.52803
20
-3.49263
11
5.52811
21
-3.4926
0
LINE
8
BLACK
6
CONTINUOUS
10
5.52811
20
-3.4926
11
5.52831
21
-3.49258
0
LINE
8
BLACK
6
CONTINUOUS
10
5.52831
20
-3.49258
11
5.52851
21
-3.49255
0
LINE
8
BLACK
6
CONTINUOUS
10
5.52851
20
-3.49255
11
5.5286
21
-3.49256
0
LINE
8
BLACK
6
CONTINUOUS
10
5.5286
20
-3.49256
11
5.52868
21
-3.49255
0
LINE
8
BLACK
6
CONTINUOUS
10
5.52868
20
-3.49255
11
5.53431
21
-3.49255
0
LINE
8
BLACK
6
CONTINUOUS
10
5.53431
20
-3.49255
11
5.53435
21
-3.49255
0
LINE
8
BLACK
6
CONTINUOUS
10
5.53435
20
-3.49255
11
5.53444
21
-3.49256
0
LINE
8
BLACK
6
CONTINUOUS
10
5.53444
20
-3.49256
11
5.53452
21
-3.49256
0
LINE
8
BLACK
6
CONTINUOUS
10
5.53452
20
-3.49256
11
5.53472
21
-3.49259
0
LINE
8
BLACK
6
CONTINUOUS
10
5.53472
20
-3.49259
11
5.53492
21
-3.49261
0
LINE
8
BLACK
6
CONTINUOUS
10
5.53492
20
-3.49261
11
5.535
21
-3.49264
0
LINE
8
BLACK
6
CONTINUOUS
10
5.535
20
-3.49264
11
5.53509
21
-3.49265
0
LINE
8
BLACK
6
CONTINUOUS
10
5.53509
20
-3.49265
11
5.53528
21
-3.49273
0
LINE
8
BLACK
6
CONTINUOUS
10
5.53528
20
-3.49273
11
5.53547
21
-3.49279
0
LINE
8
BLACK
6
CONTINUOUS
10
5.53547
20
-3.49279
11
5.53555
21
-3.49283
0
LINE
8
BLACK
6
CONTINUOUS
10
5.53555
20
-3.49283
11
5.53563
21
-3.49286
0
LINE
8
BLACK
6
CONTINUOUS
10
5.53563
20
-3.49286
11
5.53938
21
-3.49473
0
LINE
8
BLACK
6
CONTINUOUS
10
5.53938
20
-3.49473
11
5.53941
21
-3.49475
0
LINE
8
BLACK
6
CONTINUOUS
10
5.53941
20
-3.49475
11
5.53947
21
-3.49479
0
LINE
8
BLACK
6
CONTINUOUS
10
5.53947
20
-3.49479
11
5.53953
21
-3.49481
0
LINE
8
BLACK
6
CONTINUOUS
10
5.53953
20
-3.49481
11
5.53971
21
-3.49494
0
LINE
8
BLACK
6
CONTINUOUS
10
5.53971
20
-3.49494
11
5.5399
21
-3.49507
0
LINE
8
BLACK
6
CONTINUOUS
10
5.5399
20
-3.49507
11
5.53994
21
-3.49511
0
LINE
8
BLACK
6
CONTINUOUS
10
5.53994
20
-3.49511
11
5.54
21
-3.49515
0
LINE
8
BLACK
6
CONTINUOUS
10
5.54
20
-3.49515
11
5.54015
21
-3.49531
0
LINE
8
BLACK
6
CONTINUOUS
10
5.54015
20
-3.49531
11
5.54031
21
-3.49547
0
LINE
8
BLACK
6
CONTINUOUS
10
5.54031
20
-3.49547
11
5.54035
21
-3.49552
0
LINE
8
BLACK
6
CONTINUOUS
10
5.54035
20
-3.49552
11
5.54039
21
-3.49557
0
LINE
8
BLACK
6
CONTINUOUS
10
5.54039
20
-3.49557
11
5.54051
21
-3.49576
0
LINE
8
BLACK
6
CONTINUOUS
10
5.54051
20
-3.49576
11
5.54064
21
-3.49594
0
LINE
8
BLACK
6
CONTINUOUS
10
5.54064
20
-3.49594
11
5.54066
21
-3.496
0
LINE
8
BLACK
6
CONTINUOUS
10
5.54066
20
-3.496
11
5.5407
21
-3.49605
0
LINE
8
BLACK
6
CONTINUOUS
10
5.5407
20
-3.49605
11
5.54257
21
-3.4998
0
LINE
8
BLACK
6
CONTINUOUS
10
5.54257
20
-3.4998
11
5.54259
21
-3.49984
0
LINE
8
BLACK
6
CONTINUOUS
10
5.54259
20
-3.49984
11
5.54262
21
-3.49992
0
LINE
8
BLACK
6
CONTINUOUS
10
5.54262
20
-3.49992
11
5.54266
21
-3.5
0
LINE
8
BLACK
6
CONTINUOUS
10
5.54266
20
-3.5
11
5.54272
21
-3.50019
0
LINE
8
BLACK
6
CONTINUOUS
10
5.54272
20
-3.50019
11
5.54279
21
-3.50038
0
LINE
8
BLACK
6
CONTINUOUS
10
5.54279
20
-3.50038
11
5.5428
21
-3.50047
0
LINE
8
BLACK
6
CONTINUOUS
10
5.5428
20
-3.50047
11
5.54283
21
-3.50055
0
LINE
8
BLACK
6
CONTINUOUS
10
5.54283
20
-3.50055
11
5.54285
21
-3.50075
0
LINE
8
BLACK
6
CONTINUOUS
10
5.54285
20
-3.50075
11
5.54288
21
-3.50095
0
LINE
8
BLACK
6
CONTINUOUS
10
5.54288
20
-3.50095
11
5.54288
21
-3.50104
0
LINE
8
BLACK
6
CONTINUOUS
10
5.54288
20
-3.50104
11
5.54289
21
-3.50112
0
LINE
8
BLACK
6
CONTINUOUS
10
5.54289
20
-3.50112
11
5.54289
21
-3.52175
0
LINE
8
BLACK
6
CONTINUOUS
10
5.54289
20
-3.52175
11
5.54288
21
-3.52179
0
LINE
8
BLACK
6
CONTINUOUS
10
5.54288
20
-3.52179
11
5.54282
21
-3.52236
0
LINE
8
BLACK
6
CONTINUOUS
10
5.54282
20
-3.52236
11
5.54265
21
-3.52291
0
LINE
8
BLACK
6
CONTINUOUS
10
5.54265
20
-3.52291
11
5.54237
21
-3.52342
0
LINE
8
BLACK
6
CONTINUOUS
10
5.54237
20
-3.52342
11
5.542
21
-3.52386
0
LINE
8
BLACK
6
CONTINUOUS
10
5.542
20
-3.52386
11
5.54155
21
-3.52422
0
LINE
8
BLACK
6
CONTINUOUS
10
5.54155
20
-3.52422
11
5.54104
21
-3.52448
0
LINE
8
BLACK
6
CONTINUOUS
10
5.54104
20
-3.52448
11
5.54049
21
-3.52465
0
LINE
8
BLACK
6
CONTINUOUS
10
5.54049
20
-3.52465
11
5.53991
21
-3.5247
0
LINE
8
BLACK
6
CONTINUOUS
10
5.53991
20
-3.5247
11
5.53934
21
-3.52464
0
LINE
8
BLACK
6
CONTINUOUS
10
5.53934
20
-3.52464
11
5.53879
21
-3.52447
0
LINE
8
BLACK
6
CONTINUOUS
10
5.53879
20
-3.52447
11
5.53828
21
-3.5242
0
LINE
8
BLACK
6
CONTINUOUS
10
5.53828
20
-3.5242
11
5.53784
21
-3.52383
0
LINE
8
BLACK
6
CONTINUOUS
10
5.53784
20
-3.52383
11
5.53747
21
-3.52338
0
LINE
8
BLACK
6
CONTINUOUS
10
5.53747
20
-3.52338
11
5.5372
21
-3.52287
0
LINE
8
BLACK
6
CONTINUOUS
10
5.5372
20
-3.52287
11
5.53704
21
-3.52232
0
LINE
8
BLACK
6
CONTINUOUS
10
5.53704
20
-3.52232
11
5.53698
21
-3.52175
0
LINE
8
BLACK
6
CONTINUOUS
10
5.53698
20
-3.52175
11
5.53698
21
-3.50182
0
LINE
8
BLACK
6
CONTINUOUS
10
5.53698
20
-3.50182
11
5.53586
21
-3.49958
0
LINE
8
BLACK
6
CONTINUOUS
10
5.53586
20
-3.49958
11
5.53361
21
-3.49845
0
LINE
8
BLACK
6
CONTINUOUS
10
5.53361
20
-3.49845
11
5.52938
21
-3.49845
0
LINE
8
BLACK
6
CONTINUOUS
10
5.52938
20
-3.49845
11
5.52714
21
-3.49958
0
LINE
8
BLACK
6
CONTINUOUS
10
5.52714
20
-3.49958
11
5.52601
21
-3.50182
0
LINE
8
BLACK
6
CONTINUOUS
10
5.52601
20
-3.50182
11
5.52601
21
-3.52175
0
LINE
8
BLACK
6
CONTINUOUS
10
5.52601
20
-3.52175
11
5.52601
21
-3.52179
0
LINE
8
BLACK
6
CONTINUOUS
10
5.52601
20
-3.52179
11
5.52595
21
-3.52236
0
LINE
8
BLACK
6
CONTINUOUS
10
5.52595
20
-3.52236
11
5.52577
21
-3.52291
0
LINE
8
BLACK
6
CONTINUOUS
10
5.52577
20
-3.52291
11
5.5255
21
-3.52342
0
LINE
8
BLACK
6
CONTINUOUS
10
5.5255
20
-3.52342
11
5.52513
21
-3.52386
0
LINE
8
BLACK
6
CONTINUOUS
10
5.52513
20
-3.52386
11
5.52468
21
-3.52422
0
LINE
8
BLACK
6
CONTINUOUS
10
5.52468
20
-3.52422
11
5.52417
21
-3.52448
0
LINE
8
BLACK
6
CONTINUOUS
10
5.52417
20
-3.52448
11
5.52361
21
-3.52465
0
LINE
8
BLACK
6
CONTINUOUS
10
5.52361
20
-3.52465
11
5.52304
21
-3.5247
0
LINE
8
BLACK
6
CONTINUOUS
10
5.52304
20
-3.5247
11
5.52247
21
-3.52464
0
LINE
8
BLACK
6
CONTINUOUS
10
5.52247
20
-3.52464
11
5.52192
21
-3.52447
0
LINE
8
BLACK
6
CONTINUOUS
10
5.52192
20
-3.52447
11
5.52141
21
-3.5242
0
LINE
8
BLACK
6
CONTINUOUS
10
5.52141
20
-3.5242
11
5.52096
21
-3.52383
0
LINE
8
BLACK
6
CONTINUOUS
10
5.52096
20
-3.52383
11
5.5206
21
-3.52338
0
LINE
8
BLACK
6
CONTINUOUS
10
5.5206
20
-3.52338
11
5.52033
21
-3.52287
0
LINE
8
BLACK
6
CONTINUOUS
10
5.52033
20
-3.52287
11
5.52016
21
-3.52232
0
LINE
8
BLACK
6
CONTINUOUS
10
5.52016
20
-3.52232
11
5.52011
21
-3.52175
0
LINE
8
BLACK
6
CONTINUOUS
10
5.52011
20
-3.52175
11
5.52011
21
-3.50182
0
LINE
8
BLACK
6
CONTINUOUS
10
5.52011
20
-3.50182
11
5.51898
21
-3.49958
0
LINE
8
BLACK
6
CONTINUOUS
10
5.51898
20
-3.49958
11
5.51674
21
-3.49845
0
LINE
8
BLACK
6
CONTINUOUS
10
5.51674
20
-3.49845
11
5.51251
21
-3.49845
0
LINE
8
BLACK
6
CONTINUOUS
10
5.51251
20
-3.49845
11
5.50981
21
-3.4998
0
LINE
8
BLACK
6
CONTINUOUS
10
5.50981
20
-3.4998
11
5.50914
21
-3.50047
0
LINE
8
BLACK
6
CONTINUOUS
10
5.50914
20
-3.50047
11
5.50914
21
-3.52175
0
LINE
8
BLACK
6
CONTINUOUS
10
5.50914
20
-3.52175
11
5.50914
21
-3.52179
0
LINE
8
BLACK
6
CONTINUOUS
10
5.50914
20
-3.52179
11
5.50907
21
-3.52236
0
LINE
8
BLACK
6
CONTINUOUS
10
5.50907
20
-3.52236
11
5.5089
21
-3.52291
0
LINE
8
BLACK
6
CONTINUOUS
10
5.5089
20
-3.52291
11
5.50862
21
-3.52342
0
LINE
8
BLACK
6
CONTINUOUS
10
5.50862
20
-3.52342
11
5.50825
21
-3.52386
0
LINE
8
BLACK
6
CONTINUOUS
10
5.50825
20
-3.52386
11
5.5078
21
-3.52422
0
LINE
8
BLACK
6
CONTINUOUS
10
5.5078
20
-3.52422
11
5.50729
21
-3.52448
0
LINE
8
BLACK
6
CONTINUOUS
10
5.50729
20
-3.52448
11
5.50674
21
-3.52465
0
LINE
8
BLACK
6
CONTINUOUS
10
5.50674
20
-3.52465
11
5.50617
21
-3.5247
0
LINE
8
BLACK
6
CONTINUOUS
10
5.50617
20
-3.5247
11
5.50559
21
-3.52464
0
LINE
8
BLACK
6
CONTINUOUS
10
5.50559
20
-3.52464
11
5.50504
21
-3.52447
0
LINE
8
BLACK
6
CONTINUOUS
10
5.50504
20
-3.52447
11
5.50454
21
-3.5242
0
LINE
8
BLACK
6
CONTINUOUS
10
5.50454
20
-3.5242
11
5.50409
21
-3.52383
0
LINE
8
BLACK
6
CONTINUOUS
10
5.50409
20
-3.52383
11
5.50373
21
-3.52338
0
LINE
8
BLACK
6
CONTINUOUS
10
5.50373
20
-3.52338
11
5.50346
21
-3.52287
0
LINE
8
BLACK
6
CONTINUOUS
10
5.50346
20
-3.52287
11
5.50329
21
-3.52232
0
LINE
8
BLACK
6
CONTINUOUS
10
5.50329
20
-3.52232
11
5.50323
21
-3.52175
0
LINE
8
BLACK
6
CONTINUOUS
10
5.50323
20
-3.52175
11
5.50323
21
-3.4955
0
LINE
8
BLACK
6
CONTINUOUS
10
5.50323
20
-3.4955
11
5.50323
21
-3.49546
0
LINE
8
BLACK
6
CONTINUOUS
10
5.50323
20
-3.49546
11
5.5033
21
-3.49489
0
LINE
8
BLACK
6
CONTINUOUS
10
5.5033
20
-3.49489
11
5.50347
21
-3.49434
0
LINE
8
BLACK
6
CONTINUOUS
10
5.50347
20
-3.49434
11
5.50375
21
-3.49383
0
LINE
8
BLACK
6
CONTINUOUS
10
5.50375
20
-3.49383
11
5.50412
21
-3.49339
0
LINE
8
BLACK
6
CONTINUOUS
10
5.50412
20
-3.49339
11
5.50457
21
-3.49303
0
LINE
8
BLACK
6
CONTINUOUS
10
5.50457
20
-3.49303
11
5.50508
21
-3.49276
0
LINE
8
BLACK
6
CONTINUOUS
10
5.50508
20
-3.49276
11
5.50563
21
-3.4926
0
LINE
8
BLACK
6
CONTINUOUS
10
5.50563
20
-3.4926
11
5.50621
21
-3.49255
0
LINE
8
BLACK
6
CONTINUOUS
10
5.50621
20
-3.49255
11
5.50678
21
-3.49261
0
LINE
8
BLACK
6
CONTINUOUS
10
5.50678
20
-3.49261
11
5.50733
21
-3.49278
0
LINE
8
BLACK
6
CONTINUOUS
10
5.50733
20
-3.49278
11
5.50784
21
-3.49305
0
LINE
8
BLACK
6
CONTINUOUS
10
5.50784
20
-3.49305
11
5.50828
21
-3.49342
0
LINE
8
BLACK
6
CONTINUOUS
10
5.50828
20
-3.49342
11
5.5086
21
-3.49381
0
LINE
8
BLACK
6
CONTINUOUS
10
5.5086
20
-3.49381
11
5.51049
21
-3.49286
0
LINE
8
BLACK
6
CONTINUOUS
10
5.51049
20
-3.49286
11
5.51053
21
-3.49284
0
LINE
8
BLACK
6
CONTINUOUS
10
5.51053
20
-3.49284
11
5.51061
21
-3.49281
0
LINE
8
BLACK
6
CONTINUOUS
10
5.51061
20
-3.49281
11
5.51069
21
-3.49277
0
LINE
8
BLACK
6
CONTINUOUS
10
5.51069
20
-3.49277
11
5.51088
21
-3.49271
0
LINE
8
BLACK
6
CONTINUOUS
10
5.51088
20
-3.49271
11
5.51107
21
-3.49264
0
LINE
8
BLACK
6
CONTINUOUS
10
5.51107
20
-3.49264
11
5.51115
21
-3.49263
0
LINE
8
BLACK
6
CONTINUOUS
10
5.51115
20
-3.49263
11
5.51124
21
-3.4926
0
LINE
8
BLACK
6
CONTINUOUS
10
5.51124
20
-3.4926
11
5.51144
21
-3.49258
0
LINE
8
BLACK
6
CONTINUOUS
10
5.51144
20
-3.49258
11
5.51164
21
-3.49255
0
LINE
8
BLACK
6
CONTINUOUS
10
5.51164
20
-3.49255
11
5.51172
21
-3.49256
0
LINE
8
BLACK
6
CONTINUOUS
10
5.51172
20
-3.49256
11
5.51181
21
-3.49255
0
LINE
8
BLACK
6
CONTINUOUS
10
5.51181
20
-3.49255
11
5.51744
21
-3.49255
0
LINE
8
BLACK
6
CONTINUOUS
10
5.51744
20
-3.49255
11
5.51748
21
-3.49255
0
LINE
8
BLACK
6
CONTINUOUS
10
5.67026
20
-3.30224
11
5.67118
21
-3.30252
0
LINE
8
BLACK
6
CONTINUOUS
10
5.67118
20
-3.30252
11
5.67204
21
-3.30297
0
LINE
8
BLACK
6
CONTINUOUS
10
5.67204
20
-3.30297
11
5.67279
21
-3.30359
0
LINE
8
BLACK
6
CONTINUOUS
10
5.67279
20
-3.30359
11
5.6734
21
-3.30434
0
LINE
8
BLACK
6
CONTINUOUS
10
5.6734
20
-3.30434
11
5.67386
21
-3.30519
0
LINE
8
BLACK
6
CONTINUOUS
10
5.67386
20
-3.30519
11
5.67414
21
-3.30612
0
LINE
8
BLACK
6
CONTINUOUS
10
5.67414
20
-3.30612
11
5.67421
21
-3.30685
0
LINE
8
BLACK
6
CONTINUOUS
10
5.67421
20
-3.30685
11
5.67421
21
-3.34154
0
LINE
8
BLACK
6
CONTINUOUS
10
5.67421
20
-3.34154
11
5.7089
21
-3.34154
0
LINE
8
BLACK
6
CONTINUOUS
10
5.7089
20
-3.34154
11
5.70963
21
-3.34161
0
LINE
8
BLACK
6
CONTINUOUS
10
5.70963
20
-3.34161
11
5.71055
21
-3.34189
0
LINE
8
BLACK
6
CONTINUOUS
10
5.71055
20
-3.34189
11
5.71141
21
-3.34235
0
LINE
8
BLACK
6
CONTINUOUS
10
5.71141
20
-3.34235
11
5.71216
21
-3.34296
0
LINE
8
BLACK
6
CONTINUOUS
10
5.71216
20
-3.34296
11
5.71277
21
-3.34371
0
LINE
8
BLACK
6
CONTINUOUS
10
5.71277
20
-3.34371
11
5.71323
21
-3.34456
0
LINE
8
BLACK
6
CONTINUOUS
10
5.71323
20
-3.34456
11
5.71351
21
-3.34549
0
LINE
8
BLACK
6
CONTINUOUS
10
5.71351
20
-3.34549
11
5.71361
21
-3.34646
0
LINE
8
BLACK
6
CONTINUOUS
10
5.71361
20
-3.34646
11
5.71351
21
-3.34742
0
LINE
8
BLACK
6
CONTINUOUS
10
5.71351
20
-3.34742
11
5.71323
21
-3.34835
0
LINE
8
BLACK
6
CONTINUOUS
10
5.71323
20
-3.34835
11
5.71277
21
-3.3492
0
LINE
8
BLACK
6
CONTINUOUS
10
5.71277
20
-3.3492
11
5.71216
21
-3.34995
0
LINE
8
BLACK
6
CONTINUOUS
10
5.71216
20
-3.34995
11
5.71141
21
-3.35057
0
LINE
8
BLACK
6
CONTINUOUS
10
5.71141
20
-3.35057
11
5.71055
21
-3.35103
0
LINE
8
BLACK
6
CONTINUOUS
10
5.71055
20
-3.35103
11
5.70963
21
-3.35131
0
LINE
8
BLACK
6
CONTINUOUS
10
5.70963
20
-3.35131
11
5.7089
21
-3.35138
0
LINE
8
BLACK
6
CONTINUOUS
10
5.7089
20
-3.35138
11
5.67421
21
-3.35138
0
LINE
8
BLACK
6
CONTINUOUS
10
5.67421
20
-3.35138
11
5.67421
21
-3.38607
0
LINE
8
BLACK
6
CONTINUOUS
10
5.67421
20
-3.38607
11
5.67414
21
-3.38679
0
LINE
8
BLACK
6
CONTINUOUS
10
5.67414
20
-3.38679
11
5.67386
21
-3.38772
0
LINE
8
BLACK
6
CONTINUOUS
10
5.67386
20
-3.38772
11
5.6734
21
-3.38857
0
LINE
8
BLACK
6
CONTINUOUS
10
5.6734
20
-3.38857
11
5.67279
21
-3.38932
0
LINE
8
BLACK
6
CONTINUOUS
10
5.67279
20
-3.38932
11
5.67204
21
-3.38994
0
LINE
8
BLACK
6
CONTINUOUS
10
5.67204
20
-3.38994
11
5.67118
21
-3.3904
0
LINE
8
BLACK
6
CONTINUOUS
10
5.67118
20
-3.3904
11
5.67026
21
-3.39068
0
LINE
8
BLACK
6
CONTINUOUS
10
5.67026
20
-3.39068
11
5.66929
21
-3.39077
0
LINE
8
BLACK
6
CONTINUOUS
10
5.66929
20
-3.39077
11
5.66833
21
-3.39068
0
LINE
8
BLACK
6
CONTINUOUS
10
5.66833
20
-3.39068
11
5.6674
21
-3.3904
0
LINE
8
BLACK
6
CONTINUOUS
10
5.6674
20
-3.3904
11
5.66654
21
-3.38994
0
LINE
8
BLACK
6
CONTINUOUS
10
5.66654
20
-3.38994
11
5.66579
21
-3.38932
0
LINE
8
BLACK
6
CONTINUOUS
10
5.66579
20
-3.38932
11
5.66518
21
-3.38857
0
LINE
8
BLACK
6
CONTINUOUS
10
5.66518
20
-3.38857
11
5.66472
21
-3.38772
0
LINE
8
BLACK
6
CONTINUOUS
10
5.66472
20
-3.38772
11
5.66444
21
-3.38679
0
LINE
8
BLACK
6
CONTINUOUS
10
5.66444
20
-3.38679
11
5.66437
21
-3.38607
0
LINE
8
BLACK
6
CONTINUOUS
10
5.66437
20
-3.38607
11
5.66437
21
-3.35138
0
LINE
8
BLACK
6
CONTINUOUS
10
5.66437
20
-3.35138
11
5.62968
21
-3.35138
0
LINE
8
BLACK
6
CONTINUOUS
10
5.62968
20
-3.35138
11
5.62896
21
-3.35131
0
LINE
8
BLACK
6
CONTINUOUS
10
5.62896
20
-3.35131
11
5.62803
21
-3.35103
0
LINE
8
BLACK
6
CONTINUOUS
10
5.62803
20
-3.35103
11
5.62717
21
-3.35057
0
LINE
8
BLACK
6
CONTINUOUS
10
5.62717
20
-3.35057
11
5.62642
21
-3.34995
0
LINE
8
BLACK
6
CONTINUOUS
10
5.62642
20
-3.34995
11
5.62581
21
-3.3492
0
LINE
8
BLACK
6
CONTINUOUS
10
5.62581
20
-3.3492
11
5.62535
21
-3.34835
0
LINE
8
BLACK
6
CONTINUOUS
10
5.62535
20
-3.34835
11
5.62507
21
-3.34742
0
LINE
8
BLACK
6
CONTINUOUS
10
5.62507
20
-3.34742
11
5.62498
21
-3.34646
0
LINE
8
BLACK
6
CONTINUOUS
10
5.62498
20
-3.34646
11
5.62507
21
-3.34549
0
LINE
8
BLACK
6
CONTINUOUS
10
5.62507
20
-3.34549
11
5.62535
21
-3.34456
0
LINE
8
BLACK
6
CONTINUOUS
10
5.62535
20
-3.34456
11
5.62581
21
-3.34371
0
LINE
8
BLACK
6
CONTINUOUS
10
5.62581
20
-3.34371
11
5.62642
21
-3.34296
0
LINE
8
BLACK
6
CONTINUOUS
10
5.62642
20
-3.34296
11
5.62717
21
-3.34235
0
LINE
8
BLACK
6
CONTINUOUS
10
5.62717
20
-3.34235
11
5.62803
21
-3.34189
0
LINE
8
BLACK
6
CONTINUOUS
10
5.62803
20
-3.34189
11
5.62896
21
-3.34161
0
LINE
8
BLACK
6
CONTINUOUS
10
5.62896
20
-3.34161
11
5.62968
21
-3.34154
0
LINE
8
BLACK
6
CONTINUOUS
10
5.62968
20
-3.34154
11
5.66437
21
-3.34154
0
LINE
8
BLACK
6
CONTINUOUS
10
5.66437
20
-3.34154
11
5.66437
21
-3.30685
0
LINE
8
BLACK
6
CONTINUOUS
10
5.66437
20
-3.30685
11
5.66444
21
-3.30612
0
LINE
8
BLACK
6
CONTINUOUS
10
5.66444
20
-3.30612
11
5.66472
21
-3.30519
0
LINE
8
BLACK
6
CONTINUOUS
10
5.66472
20
-3.30519
11
5.66518
21
-3.30434
0
LINE
8
BLACK
6
CONTINUOUS
10
5.66518
20
-3.30434
11
5.66579
21
-3.30359
0
LINE
8
BLACK
6
CONTINUOUS
10
5.66579
20
-3.30359
11
5.66654
21
-3.30297
0
LINE
8
BLACK
6
CONTINUOUS
10
5.66654
20
-3.30297
11
5.6674
21
-3.30252
0
LINE
8
BLACK
6
CONTINUOUS
10
5.6674
20
-3.30252
11
5.66833
21
-3.30224
0
LINE
8
BLACK
6
CONTINUOUS
10
5.66833
20
-3.30224
11
5.66929
21
-3.30214
0
LINE
8
BLACK
6
CONTINUOUS
10
5.66929
20
-3.30214
11
5.67026
21
-3.30224
0
LINE
8
BLACK
6
CONTINUOUS
10
7.14477
20
-3.20383
11
7.14496
21
-3.20385
0
LINE
8
BLACK
6
CONTINUOUS
10
7.14496
20
-3.20385
11
7.14514
21
-3.20386
0
LINE
8
BLACK
6
CONTINUOUS
10
7.14514
20
-3.20386
11
7.14524
21
-3.20389
0
LINE
8
BLACK
6
CONTINUOUS
10
7.14524
20
-3.20389
11
7.14535
21
-3.2039
0
LINE
8
BLACK
6
CONTINUOUS
10
7.14535
20
-3.2039
11
7.14552
21
-3.20395
0
LINE
8
BLACK
6
CONTINUOUS
10
7.14552
20
-3.20395
11
7.1457
21
-3.204
0
LINE
8
BLACK
6
CONTINUOUS
10
7.1457
20
-3.204
11
7.1458
21
-3.20404
0
LINE
8
BLACK
6
CONTINUOUS
10
7.1458
20
-3.20404
11
7.1459
21
-3.20407
0
LINE
8
BLACK
6
CONTINUOUS
10
7.1459
20
-3.20407
11
7.14606
21
-3.20416
0
LINE
8
BLACK
6
CONTINUOUS
10
7.14606
20
-3.20416
11
7.14623
21
-3.20424
0
LINE
8
BLACK
6
CONTINUOUS
10
7.14623
20
-3.20424
11
7.14631
21
-3.2043
0
LINE
8
BLACK
6
CONTINUOUS
10
7.14631
20
-3.2043
11
7.1464
21
-3.20435
0
LINE
8
BLACK
6
CONTINUOUS
10
7.1464
20
-3.20435
11
7.14654
21
-3.20447
0
LINE
8
BLACK
6
CONTINUOUS
10
7.14654
20
-3.20447
11
7.14669
21
-3.20458
0
LINE
8
BLACK
6
CONTINUOUS
10
7.14669
20
-3.20458
11
7.14676
21
-3.20465
0
LINE
8
BLACK
6
CONTINUOUS
10
7.14676
20
-3.20465
11
7.14684
21
-3.20472
0
LINE
8
BLACK
6
CONTINUOUS
10
7.14684
20
-3.20472
11
7.14696
21
-3.20486
0
LINE
8
BLACK
6
CONTINUOUS
10
7.14696
20
-3.20486
11
7.14708
21
-3.205
0
LINE
8
BLACK
6
CONTINUOUS
10
7.14708
20
-3.205
11
7.14714
21
-3.20509
0
LINE
8
BLACK
6
CONTINUOUS
10
7.14714
20
-3.20509
11
7.1472
21
-3.20517
0
LINE
8
BLACK
6
CONTINUOUS
10
7.1472
20
-3.20517
11
7.14729
21
-3.20533
0
LINE
8
BLACK
6
CONTINUOUS
10
7.14729
20
-3.20533
11
7.14739
21
-3.20549
0
LINE
8
BLACK
6
CONTINUOUS
10
7.14739
20
-3.20549
11
7.14742
21
-3.20559
0
LINE
8
BLACK
6
CONTINUOUS
10
7.14742
20
-3.20559
11
7.14747
21
-3.20568
0
LINE
8
BLACK
6
CONTINUOUS
10
7.14747
20
-3.20568
11
7.14752
21
-3.20586
0
LINE
8
BLACK
6
CONTINUOUS
10
7.14752
20
-3.20586
11
7.14759
21
-3.20603
0
LINE
8
BLACK
6
CONTINUOUS
10
7.14759
20
-3.20603
11
7.1476
21
-3.20613
0
LINE
8
BLACK
6
CONTINUOUS
10
7.1476
20
-3.20613
11
7.14763
21
-3.20623
0
LINE
8
BLACK
6
CONTINUOUS
10
7.14763
20
-3.20623
11
7.14765
21
-3.20642
0
LINE
8
BLACK
6
CONTINUOUS
10
7.14765
20
-3.20642
11
7.14768
21
-3.2066
0
LINE
8
BLACK
6
CONTINUOUS
10
7.14768
20
-3.2066
11
7.14768
21
-3.2067
0
LINE
8
BLACK
6
CONTINUOUS
10
7.14768
20
-3.2067
11
7.14768
21
-3.20681
0
LINE
8
BLACK
6
CONTINUOUS
10
7.14768
20
-3.20681
11
7.14767
21
-3.20699
0
LINE
8
BLACK
6
CONTINUOUS
10
7.14767
20
-3.20699
11
7.14766
21
-3.20718
0
LINE
8
BLACK
6
CONTINUOUS
10
7.14766
20
-3.20718
11
7.14764
21
-3.20728
0
LINE
8
BLACK
6
CONTINUOUS
10
7.14764
20
-3.20728
11
7.14762
21
-3.20738
0
LINE
8
BLACK
6
CONTINUOUS
10
7.14762
20
-3.20738
11
7.14757
21
-3.20756
0
LINE
8
BLACK
6
CONTINUOUS
10
7.14757
20
-3.20756
11
7.14753
21
-3.20774
0
LINE
8
BLACK
6
CONTINUOUS
10
7.14753
20
-3.20774
11
7.14748
21
-3.20783
0
LINE
8
BLACK
6
CONTINUOUS
10
7.14748
20
-3.20783
11
7.14745
21
-3.20793
0
LINE
8
BLACK
6
CONTINUOUS
10
7.14745
20
-3.20793
11
7.14737
21
-3.20809
0
LINE
8
BLACK
6
CONTINUOUS
10
7.14737
20
-3.20809
11
7.14729
21
-3.20826
0
LINE
8
BLACK
6
CONTINUOUS
10
7.14729
20
-3.20826
11
7.14723
21
-3.20835
0
LINE
8
BLACK
6
CONTINUOUS
10
7.14723
20
-3.20835
11
7.14718
21
-3.20844
0
LINE
8
BLACK
6
CONTINUOUS
10
7.14718
20
-3.20844
11
7.14706
21
-3.20858
0
LINE
8
BLACK
6
CONTINUOUS
10
7.14706
20
-3.20858
11
7.14695
21
-3.20873
0
LINE
8
BLACK
6
CONTINUOUS
10
7.14695
20
-3.20873
11
7.13802
21
-3.21894
0
LINE
8
BLACK
6
CONTINUOUS
10
7.13802
20
-3.21894
11
7.1382
21
-3.21901
0
LINE
8
BLACK
6
CONTINUOUS
10
7.1382
20
-3.21901
11
7.1384
21
-3.21907
0
LINE
8
BLACK
6
CONTINUOUS
10
7.1384
20
-3.21907
11
7.13847
21
-3.21911
0
LINE
8
BLACK
6
CONTINUOUS
10
7.13847
20
-3.21911
11
7.13855
21
-3.21914
0
LINE
8
BLACK
6
CONTINUOUS
10
7.13855
20
-3.21914
11
7.1423
21
-3.22102
0
LINE
8
BLACK
6
CONTINUOUS
10
7.1423
20
-3.22102
11
7.14234
21
-3.22104
0
LINE
8
BLACK
6
CONTINUOUS
10
7.14234
20
-3.22104
11
7.14248
21
-3.22113
0
LINE
8
BLACK
6
CONTINUOUS
10
7.14248
20
-3.22113
11
7.14262
21
-3.22121
0
LINE
8
BLACK
6
CONTINUOUS
10
7.14262
20
-3.22121
11
7.14272
21
-3.22128
0
LINE
8
BLACK
6
CONTINUOUS
10
7.14272
20
-3.22128
11
7.14282
21
-3.22135
0
LINE
8
BLACK
6
CONTINUOUS
10
7.14282
20
-3.22135
11
7.14294
21
-3.22147
0
LINE
8
BLACK
6
CONTINUOUS
10
7.14294
20
-3.22147
11
7.14307
21
-3.22157
0
LINE
8
BLACK
6
CONTINUOUS
10
7.14307
20
-3.22157
11
7.14495
21
-3.22345
0
LINE
8
BLACK
6
CONTINUOUS
10
7.14495
20
-3.22345
11
7.14497
21
-3.22348
0
LINE
8
BLACK
6
CONTINUOUS
10
7.14497
20
-3.22348
11
7.14508
21
-3.22361
0
LINE
8
BLACK
6
CONTINUOUS
10
7.14508
20
-3.22361
11
7.14519
21
-3.22373
0
LINE
8
BLACK
6
CONTINUOUS
10
7.14519
20
-3.22373
11
7.14526
21
-3.22383
0
LINE
8
BLACK
6
CONTINUOUS
10
7.14526
20
-3.22383
11
7.14533
21
-3.22393
0
LINE
8
BLACK
6
CONTINUOUS
10
7.14533
20
-3.22393
11
7.14541
21
-3.22407
0
LINE
8
BLACK
6
CONTINUOUS
10
7.14541
20
-3.22407
11
7.1455
21
-3.22421
0
LINE
8
BLACK
6
CONTINUOUS
10
7.1455
20
-3.22421
11
7.14737
21
-3.22796
0
LINE
8
BLACK
6
CONTINUOUS
10
7.14737
20
-3.22796
11
7.14739
21
-3.228
0
LINE
8
BLACK
6
CONTINUOUS
10
7.14739
20
-3.228
11
7.14742
21
-3.22808
0
LINE
8
BLACK
6
CONTINUOUS
10
7.14742
20
-3.22808
11
7.14746
21
-3.22816
0
LINE
8
BLACK
6
CONTINUOUS
10
7.14746
20
-3.22816
11
7.14752
21
-3.22835
0
LINE
8
BLACK
6
CONTINUOUS
10
7.14752
20
-3.22835
11
7.14759
21
-3.22854
0
LINE
8
BLACK
6
CONTINUOUS
10
7.14759
20
-3.22854
11
7.1476
21
-3.22863
0
LINE
8
BLACK
6
CONTINUOUS
10
7.1476
20
-3.22863
11
7.14763
21
-3.22871
0
LINE
8
BLACK
6
CONTINUOUS
10
7.14763
20
-3.22871
11
7.14765
21
-3.22891
0
LINE
8
BLACK
6
CONTINUOUS
10
7.14765
20
-3.22891
11
7.14768
21
-3.22911
0
LINE
8
BLACK
6
CONTINUOUS
10
7.14768
20
-3.22911
11
7.14768
21
-3.2292
0
LINE
8
BLACK
6
CONTINUOUS
10
7.14768
20
-3.2292
11
7.14768
21
-3.22928
0
LINE
8
BLACK
6
CONTINUOUS
10
7.14768
20
-3.22928
11
7.14768
21
-3.23866
0
LINE
8
BLACK
6
CONTINUOUS
10
7.14768
20
-3.23866
11
7.14768
21
-3.2387
0
LINE
8
BLACK
6
CONTINUOUS
10
7.14768
20
-3.2387
11
7.14767
21
-3.23879
0
LINE
8
BLACK
6
CONTINUOUS
10
7.14767
20
-3.23879
11
7.14768
21
-3.23887
0
LINE
8
BLACK
6
CONTINUOUS
10
7.14768
20
-3.23887
11
7.14764
21
-3.23907
0
LINE
8
BLACK
6
CONTINUOUS
10
7.14764
20
-3.23907
11
7.14762
21
-3.23927
0
LINE
8
BLACK
6
CONTINUOUS
10
7.14762
20
-3.23927
11
7.14759
21
-3.23935
0
LINE
8
BLACK
6
CONTINUOUS
10
7.14759
20
-3.23935
11
7.14758
21
-3.23944
0
LINE
8
BLACK
6
CONTINUOUS
10
7.14758
20
-3.23944
11
7.14751
21
-3.23963
0
LINE
8
BLACK
6
CONTINUOUS
10
7.14751
20
-3.23963
11
7.14745
21
-3.23982
0
LINE
8
BLACK
6
CONTINUOUS
10
7.14745
20
-3.23982
11
7.1474
21
-3.2399
0
LINE
8
BLACK
6
CONTINUOUS
10
7.1474
20
-3.2399
11
7.14737
21
-3.23998
0
LINE
8
BLACK
6
CONTINUOUS
10
7.14737
20
-3.23998
11
7.1455
21
-3.24373
0
LINE
8
BLACK
6
CONTINUOUS
10
7.1455
20
-3.24373
11
7.14548
21
-3.24376
0
LINE
8
BLACK
6
CONTINUOUS
10
7.14548
20
-3.24376
11
7.14539
21
-3.2439
0
LINE
8
BLACK
6
CONTINUOUS
10
7.14539
20
-3.2439
11
7.14531
21
-3.24405
0
LINE
8
BLACK
6
CONTINUOUS
10
7.14531
20
-3.24405
11
7.14523
21
-3.24414
0
LINE
8
BLACK
6
CONTINUOUS
10
7.14523
20
-3.24414
11
7.14517
21
-3.24425
0
LINE
8
BLACK
6
CONTINUOUS
10
7.14517
20
-3.24425
11
7.14505
21
-3.24437
0
LINE
8
BLACK
6
CONTINUOUS
10
7.14505
20
-3.24437
11
7.14495
21
-3.2445
0
LINE
8
BLACK
6
CONTINUOUS
10
7.14495
20
-3.2445
11
7.14307
21
-3.24637
0
LINE
8
BLACK
6
CONTINUOUS
10
7.14307
20
-3.24637
11
7.14304
21
-3.2464
0
LINE
8
BLACK
6
CONTINUOUS
10
7.14304
20
-3.2464
11
7.14291
21
-3.2465
0
LINE
8
BLACK
6
CONTINUOUS
10
7.14291
20
-3.2465
11
7.14279
21
-3.24662
0
LINE
8
BLACK
6
CONTINUOUS
10
7.14279
20
-3.24662
11
7.14269
21
-3.24668
0
LINE
8
BLACK
6
CONTINUOUS
10
7.14269
20
-3.24668
11
7.14259
21
-3.24676
0
LINE
8
BLACK
6
CONTINUOUS
10
7.14259
20
-3.24676
11
7.14244
21
-3.24683
0
LINE
8
BLACK
6
CONTINUOUS
10
7.14244
20
-3.24683
11
7.1423
21
-3.24692
0
LINE
8
BLACK
6
CONTINUOUS
10
7.1423
20
-3.24692
11
7.13855
21
-3.2488
0
LINE
8
BLACK
6
CONTINUOUS
10
7.13855
20
-3.2488
11
7.13852
21
-3.24882
0
LINE
8
BLACK
6
CONTINUOUS
10
7.13852
20
-3.24882
11
7.13843
21
-3.24885
0
LINE
8
BLACK
6
CONTINUOUS
10
7.13843
20
-3.24885
11
7.13836
21
-3.24889
0
LINE
8
BLACK
6
CONTINUOUS
10
7.13836
20
-3.24889
11
7.13816
21
-3.24895
0
LINE
8
BLACK
6
CONTINUOUS
10
7.13816
20
-3.24895
11
7.13798
21
-3.24901
0
LINE
8
BLACK
6
CONTINUOUS
10
7.13798
20
-3.24901
11
7.13789
21
-3.24903
0
LINE
8
BLACK
6
CONTINUOUS
10
7.13789
20
-3.24903
11
7.13781
21
-3.24905
0
LINE
8
BLACK
6
CONTINUOUS
10
7.13781
20
-3.24905
11
7.13761
21
-3.24907
0
LINE
8
BLACK
6
CONTINUOUS
10
7.13761
20
-3.24907
11
7.13741
21
-3.2491
0
LINE
8
BLACK
6
CONTINUOUS
10
7.13741
20
-3.2491
11
7.13732
21
-3.2491
0
LINE
8
BLACK
6
CONTINUOUS
10
7.13732
20
-3.2491
11
7.13723
21
-3.24911
0
LINE
8
BLACK
6
CONTINUOUS
10
7.13723
20
-3.24911
11
7.12598
21
-3.24911
0
LINE
8
BLACK
6
CONTINUOUS
10
7.12598
20
-3.24911
11
7.12594
21
-3.24911
0
LINE
8
BLACK
6
CONTINUOUS
10
7.12594
20
-3.24911
11
7.12586
21
-3.2491
0
LINE
8
BLACK
6
CONTINUOUS
10
7.12586
20
-3.2491
11
7.12577
21
-3.2491
0
LINE
8
BLACK
6
CONTINUOUS
10
7.12577
20
-3.2491
11
7.12557
21
-3.24907
0
LINE
8
BLACK
6
CONTINUOUS
10
7.12557
20
-3.24907
11
7.12537
21
-3.24904
0
LINE
8
BLACK
6
CONTINUOUS
10
7.12537
20
-3.24904
11
7.12529
21
-3.24902
0
LINE
8
BLACK
6
CONTINUOUS
10
7.12529
20
-3.24902
11
7.1252
21
-3.249
0
LINE
8
BLACK
6
CONTINUOUS
10
7.1252
20
-3.249
11
7.12501
21
-3.24893
0
LINE
8
BLACK
6
CONTINUOUS
10
7.12501
20
-3.24893
11
7.12482
21
-3.24887
0
LINE
8
BLACK
6
CONTINUOUS
10
7.12482
20
-3.24887
11
7.12474
21
-3.24883
0
LINE
8
BLACK
6
CONTINUOUS
10
7.12474
20
-3.24883
11
7.12466
21
-3.2488
0
LINE
8
BLACK
6
CONTINUOUS
10
7.12466
20
-3.2488
11
7.12091
21
-3.24692
0
LINE
8
BLACK
6
CONTINUOUS
10
7.12091
20
-3.24692
11
7.12088
21
-3.2469
0
LINE
8
BLACK
6
CONTINUOUS
10
7.12088
20
-3.2469
11
7.12074
21
-3.24681
0
LINE
8
BLACK
6
CONTINUOUS
10
7.12074
20
-3.24681
11
7.12059
21
-3.24674
0
LINE
8
BLACK
6
CONTINUOUS
10
7.12059
20
-3.24674
11
7.1205
21
-3.24666
0
LINE
8
BLACK
6
CONTINUOUS
10
7.1205
20
-3.24666
11
7.12039
21
-3.24659
0
LINE
8
BLACK
6
CONTINUOUS
10
7.12039
20
-3.24659
11
7.12027
21
-3.24648
0
LINE
8
BLACK
6
CONTINUOUS
10
7.12027
20
-3.24648
11
7.12015
21
-3.24637
0
LINE
8
BLACK
6
CONTINUOUS
10
7.12015
20
-3.24637
11
7.11827
21
-3.2445
0
LINE
8
BLACK
6
CONTINUOUS
10
7.11827
20
-3.2445
11
7.11824
21
-3.24447
0
LINE
8
BLACK
6
CONTINUOUS
10
7.11824
20
-3.24447
11
7.11788
21
-3.24402
0
LINE
8
BLACK
6
CONTINUOUS
10
7.11788
20
-3.24402
11
7.11762
21
-3.2435
0
LINE
8
BLACK
6
CONTINUOUS
10
7.11762
20
-3.2435
11
7.11746
21
-3.24295
0
LINE
8
BLACK
6
CONTINUOUS
10
7.11746
20
-3.24295
11
7.11741
21
-3.24238
0
LINE
8
BLACK
6
CONTINUOUS
10
7.11741
20
-3.24238
11
7.11747
21
-3.2418
0
LINE
8
BLACK
6
CONTINUOUS
10
7.11747
20
-3.2418
11
7.11764
21
-3.24125
0
LINE
8
BLACK
6
CONTINUOUS
10
7.11764
20
-3.24125
11
7.11792
21
-3.24075
0
LINE
8
BLACK
6
CONTINUOUS
10
7.11792
20
-3.24075
11
7.11829
21
-3.2403
0
LINE
8
BLACK
6
CONTINUOUS
10
7.11829
20
-3.2403
11
7.11873
21
-3.23994
0
LINE
8
BLACK
6
CONTINUOUS
10
7.11873
20
-3.23994
11
7.11924
21
-3.23967
0
LINE
8
BLACK
6
CONTINUOUS
10
7.11924
20
-3.23967
11
7.1198
21
-3.23951
0
LINE
8
BLACK
6
CONTINUOUS
10
7.1198
20
-3.23951
11
7.12037
21
-3.23945
0
LINE
8
BLACK
6
CONTINUOUS
10
7.12037
20
-3.23945
11
7.12094
21
-3.23951
0
LINE
8
BLACK
6
CONTINUOUS
10
7.12094
20
-3.23951
11
7.12149
21
-3.23968
0
LINE
8
BLACK
6
CONTINUOUS
10
7.12149
20
-3.23968
11
7.122
21
-3.23995
0
LINE
8
BLACK
6
CONTINUOUS
10
7.122
20
-3.23995
11
7.12245
21
-3.24032
0
LINE
8
BLACK
6
CONTINUOUS
10
7.12245
20
-3.24032
11
7.12398
21
-3.24186
0
LINE
8
BLACK
6
CONTINUOUS
10
7.12398
20
-3.24186
11
7.12668
21
-3.2432
0
LINE
8
BLACK
6
CONTINUOUS
10
7.12668
20
-3.2432
11
7.13654
21
-3.2432
0
LINE
8
BLACK
6
CONTINUOUS
10
7.13654
20
-3.2432
11
7.13923
21
-3.24186
0
LINE
8
BLACK
6
CONTINUOUS
10
7.13923
20
-3.24186
11
7.14043
21
-3.24066
0
LINE
8
BLACK
6
CONTINUOUS
10
7.14043
20
-3.24066
11
7.14178
21
-3.23796
0
LINE
8
BLACK
6
CONTINUOUS
10
7.14178
20
-3.23796
11
7.14178
21
-3.22998
0
LINE
8
BLACK
6
CONTINUOUS
10
7.14178
20
-3.22998
11
7.14043
21
-3.22728
0
LINE
8
BLACK
6
CONTINUOUS
10
7.14043
20
-3.22728
11
7.13923
21
-3.22609
0
LINE
8
BLACK
6
CONTINUOUS
10
7.13923
20
-3.22609
11
7.13654
21
-3.22474
0
LINE
8
BLACK
6
CONTINUOUS
10
7.13654
20
-3.22474
11
7.13161
21
-3.22474
0
LINE
8
BLACK
6
CONTINUOUS
10
7.13161
20
-3.22474
11
7.13157
21
-3.22474
0
LINE
8
BLACK
6
CONTINUOUS
10
7.13157
20
-3.22474
11
7.13138
21
-3.22472
0
LINE
8
BLACK
6
CONTINUOUS
10
7.13138
20
-3.22472
11
7.1312
21
-3.22471
0
LINE
8
BLACK
6
CONTINUOUS
10
7.1312
20
-3.22471
11
7.1311
21
-3.22468
0
LINE
8
BLACK
6
CONTINUOUS
10
7.1311
20
-3.22468
11
7.13099
21
-3.22467
0
LINE
8
BLACK
6
CONTINUOUS
10
7.13099
20
-3.22467
11
7.13082
21
-3.22462
0
LINE
8
BLACK
6
CONTINUOUS
10
7.13082
20
-3.22462
11
7.13064
21
-3.22457
0
LINE
8
BLACK
6
CONTINUOUS
10
7.13064
20
-3.22457
11
7.13054
21
-3.22453
0
LINE
8
BLACK
6
CONTINUOUS
10
7.13054
20
-3.22453
11
7.13045
21
-3.2245
0
LINE
8
BLACK
6
CONTINUOUS
10
7.13045
20
-3.2245
11
7.13028
21
-3.22441
0
LINE
8
BLACK
6
CONTINUOUS
10
7.13028
20
-3.22441
11
7.13011
21
-3.22433
0
LINE
8
BLACK
6
CONTINUOUS
10
7.13011
20
-3.22433
11
7.13003
21
-3.22427
0
LINE
8
BLACK
6
CONTINUOUS
10
7.13003
20
-3.22427
11
7.12994
21
-3.22422
0
LINE
8
BLACK
6
CONTINUOUS
10
7.12994
20
-3.22422
11
7.1298
21
-3.2241
0
LINE
8
BLACK
6
CONTINUOUS
10
7.1298
20
-3.2241
11
7.12965
21
-3.22399
0
LINE
8
BLACK
6
CONTINUOUS
10
7.12965
20
-3.22399
11
7.12958
21
-3.22392
0
LINE
8
BLACK
6
CONTINUOUS
10
7.12958
20
-3.22392
11
7.1295
21
-3.22385
0
LINE
8
BLACK
6
CONTINUOUS
10
7.1295
20
-3.22385
11
7.12938
21
-3.22371
0
LINE
8
BLACK
6
CONTINUOUS
10
7.12938
20
-3.22371
11
7.12926
21
-3.22357
0
LINE
8
BLACK
6
CONTINUOUS
10
7.12926
20
-3.22357
11
7.1292
21
-3.22348
0
LINE
8
BLACK
6
CONTINUOUS
10
7.1292
20
-3.22348
11
7.12914
21
-3.2234
0
LINE
8
BLACK
6
CONTINUOUS
10
7.12914
20
-3.2234
11
7.12905
21
-3.22324
0
LINE
8
BLACK
6
CONTINUOUS
10
7.12905
20
-3.22324
11
7.12895
21
-3.22308
0
LINE
8
BLACK
6
CONTINUOUS
10
7.12895
20
-3.22308
11
7.12892
21
-3.22298
0
LINE
8
BLACK
6
CONTINUOUS
10
7.12892
20
-3.22298
11
7.12887
21
-3.22289
0
LINE
8
BLACK
6
CONTINUOUS
10
7.12887
20
-3.22289
11
7.12882
21
-3.22271
0
LINE
8
BLACK
6
CONTINUOUS
10
7.12882
20
-3.22271
11
7.12875
21
-3.22254
0
LINE
8
BLACK
6
CONTINUOUS
10
7.12875
20
-3.22254
11
7.12874
21
-3.22244
0
LINE
8
BLACK
6
CONTINUOUS
10
7.12874
20
-3.22244
11
7.12871
21
-3.22234
0
LINE
8
BLACK
6
CONTINUOUS
10
7.12871
20
-3.22234
11
7.12869
21
-3.22215
0
LINE
8
BLACK
6
CONTINUOUS
10
7.12869
20
-3.22215
11
7.12866
21
-3.22197
0
LINE
8
BLACK
6
CONTINUOUS
10
7.12866
20
-3.22197
11
7.12867
21
-3.22187
0
LINE
8
BLACK
6
CONTINUOUS
10
7.12867
20
-3.22187
11
7.12866
21
-3.22176
0
LINE
8
BLACK
6
CONTINUOUS
10
7.12866
20
-3.22176
11
7.12868
21
-3.22158
0
LINE
8
BLACK
6
CONTINUOUS
10
7.12868
20
-3.22158
11
7.12868
21
-3.22139
0
LINE
8
BLACK
6
CONTINUOUS
10
7.12868
20
-3.22139
11
7.12871
21
-3.22129
0
LINE
8
BLACK
6
CONTINUOUS
10
7.12871
20
-3.22129
11
7.12872
21
-3.22119
0
LINE
8
BLACK
6
CONTINUOUS
10
7.12872
20
-3.22119
11
7.12877
21
-3.22101
0
LINE
8
BLACK
6
CONTINUOUS
10
7.12877
20
-3.22101
11
7.12881
21
-3.22083
0
LINE
8
BLACK
6
CONTINUOUS
10
7.12881
20
-3.22083
11
7.12886
21
-3.22074
0
LINE
8
BLACK
6
CONTINUOUS
10
7.12886
20
-3.22074
11
7.12889
21
-3.22064
0
LINE
8
BLACK
6
CONTINUOUS
10
7.12889
20
-3.22064
11
7.12897
21
-3.22048
0
LINE
8
BLACK
6
CONTINUOUS
10
7.12897
20
-3.22048
11
7.12905
21
-3.22031
0
LINE
8
BLACK
6
CONTINUOUS
10
7.12905
20
-3.22031
11
7.12911
21
-3.22022
0
LINE
8
BLACK
6
CONTINUOUS
10
7.12911
20
-3.22022
11
7.12916
21
-3.22013
0
LINE
8
BLACK
6
CONTINUOUS
10
7.12916
20
-3.22013
11
7.12928
21
-3.21999
0
LINE
8
BLACK
6
CONTINUOUS
10
7.12928
20
-3.21999
11
7.12939
21
-3.21984
0
LINE
8
BLACK
6
CONTINUOUS
10
7.12939
20
-3.21984
11
7.13822
21
-3.20974
0
LINE
8
BLACK
6
CONTINUOUS
10
7.13822
20
-3.20974
11
7.12036
21
-3.20974
0
LINE
8
BLACK
6
CONTINUOUS
10
7.12036
20
-3.20974
11
7.12032
21
-3.20974
0
LINE
8
BLACK
6
CONTINUOUS
10
7.12032
20
-3.20974
11
7.11975
21
-3.20967
0
LINE
8
BLACK
6
CONTINUOUS
10
7.11975
20
-3.20967
11
7.1192
21
-3.2095
0
LINE
8
BLACK
6
CONTINUOUS
10
7.1192
20
-3.2095
11
7.11869
21
-3.20922
0
LINE
8
BLACK
6
CONTINUOUS
10
7.11869
20
-3.20922
11
7.11825
21
-3.20885
0
LINE
8
BLACK
6
CONTINUOUS
10
7.11825
20
-3.20885
11
7.11789
21
-3.2084
0
LINE
8
BLACK
6
CONTINUOUS
10
7.11789
20
-3.2084
11
7.11762
21
-3.20789
0
LINE
8
BLACK
6
CONTINUOUS
10
7.11762
20
-3.20789
11
7.11746
21
-3.20734
0
LINE
8
BLACK
6
CONTINUOUS
10
7.11746
20
-3.20734
11
7.11741
21
-3.20677
0
LINE
8
BLACK
6
CONTINUOUS
10
7.11741
20
-3.20677
11
7.11747
21
-3.20619
0
LINE
8
BLACK
6
CONTINUOUS
10
7.11747
20
-3.20619
11
7.11764
21
-3.20564
0
LINE
8
BLACK
6
CONTINUOUS
10
7.11764
20
-3.20564
11
7.11791
21
-3.20514
0
LINE
8
BLACK
6
CONTINUOUS
10
7.11791
20
-3.20514
11
7.11828
21
-3.20469
0
LINE
8
BLACK
6
CONTINUOUS
10
7.11828
20
-3.20469
11
7.11873
21
-3.20433
0
LINE
8
BLACK
6
CONTINUOUS
10
7.11873
20
-3.20433
11
7.11923
21
-3.20406
0
LINE
8
BLACK
6
CONTINUOUS
10
7.11923
20
-3.20406
11
7.11979
21
-3.20389
0
LINE
8
BLACK
6
CONTINUOUS
10
7.11979
20
-3.20389
11
7.12036
21
-3.20383
0
LINE
8
BLACK
6
CONTINUOUS
10
7.12036
20
-3.20383
11
7.14473
21
-3.20383
0
LINE
8
BLACK
6
CONTINUOUS
10
7.14473
20
-3.20383
11
7.14477
21
-3.20383
0
LINE
8
BLACK
6
CONTINUOUS
10
7.18227
20
-3.20383
11
7.18245
21
-3.20385
0
LINE
8
BLACK
6
CONTINUOUS
10
7.18245
20
-3.20385
11
7.18264
21
-3.20386
0
LINE
8
BLACK
6
CONTINUOUS
10
7.18264
20
-3.20386
11
7.18274
21
-3.20389
0
LINE
8
BLACK
6
CONTINUOUS
10
7.18274
20
-3.20389
11
7.18284
21
-3.2039
0
LINE
8
BLACK
6
CONTINUOUS
10
7.18284
20
-3.2039
11
7.18302
21
-3.20395
0
LINE
8
BLACK
6
CONTINUOUS
10
7.18302
20
-3.20395
11
7.1832
21
-3.204
0
LINE
8
BLACK
6
CONTINUOUS
10
7.1832
20
-3.204
11
7.18329
21
-3.20404
0
LINE
8
BLACK
6
CONTINUOUS
10
7.18329
20
-3.20404
11
7.18339
21
-3.20407
0
LINE
8
BLACK
6
CONTINUOUS
10
7.18339
20
-3.20407
11
7.18355
21
-3.20416
0
LINE
8
BLACK
6
CONTINUOUS
10
7.18355
20
-3.20416
11
7.18372
21
-3.20424
0
LINE
8
BLACK
6
CONTINUOUS
10
7.18372
20
-3.20424
11
7.1838
21
-3.2043
0
LINE
8
BLACK
6
CONTINUOUS
10
7.1838
20
-3.2043
11
7.1839
21
-3.20435
0
LINE
8
BLACK
6
CONTINUOUS
10
7.1839
20
-3.20435
11
7.18404
21
-3.20447
0
LINE
8
BLACK
6
CONTINUOUS
10
7.18404
20
-3.20447
11
7.18419
21
-3.20458
0
LINE
8
BLACK
6
CONTINUOUS
10
7.18419
20
-3.20458
11
7.18426
21
-3.20465
0
LINE
8
BLACK
6
CONTINUOUS
10
7.18426
20
-3.20465
11
7.18434
21
-3.20472
0
LINE
8
BLACK
6
CONTINUOUS
10
7.18434
20
-3.20472
11
7.18445
21
-3.20486
0
LINE
8
BLACK
6
CONTINUOUS
10
7.18445
20
-3.20486
11
7.18458
21
-3.205
0
LINE
8
BLACK
6
CONTINUOUS
10
7.18458
20
-3.205
11
7.18463
21
-3.20509
0
LINE
8
BLACK
6
CONTINUOUS
10
7.18463
20
-3.20509
11
7.1847
21
-3.20517
0
LINE
8
BLACK
6
CONTINUOUS
10
7.1847
20
-3.20517
11
7.18478
21
-3.20533
0
LINE
8
BLACK
6
CONTINUOUS
10
7.18478
20
-3.20533
11
7.18488
21
-3.20549
0
LINE
8
BLACK
6
CONTINUOUS
10
7.18488
20
-3.20549
11
7.18492
21
-3.20559
0
LINE
8
BLACK
6
CONTINUOUS
10
7.18492
20
-3.20559
11
7.18496
21
-3.20568
0
LINE
8
BLACK
6
CONTINUOUS
10
7.18496
20
-3.20568
11
7.18502
21
-3.20586
0
LINE
8
BLACK
6
CONTINUOUS
10
7.18502
20
-3.20586
11
7.18508
21
-3.20603
0
LINE
8
BLACK
6
CONTINUOUS
10
7.18508
20
-3.20603
11
7.1851
21
-3.20613
0
LINE
8
BLACK
6
CONTINUOUS
10
7.1851
20
-3.20613
11
7.18513
21
-3.20623
0
LINE
8
BLACK
6
CONTINUOUS
10
7.18513
20
-3.20623
11
7.18514
21
-3.20642
0
LINE
8
BLACK
6
CONTINUOUS
10
7.18514
20
-3.20642
11
7.18517
21
-3.2066
0
LINE
8
BLACK
6
CONTINUOUS
10
7.18517
20
-3.2066
11
7.18517
21
-3.2067
0
LINE
8
BLACK
6
CONTINUOUS
10
7.18517
20
-3.2067
11
7.18518
21
-3.20681
0
LINE
8
BLACK
6
CONTINUOUS
10
7.18518
20
-3.20681
11
7.18516
21
-3.20699
0
LINE
8
BLACK
6
CONTINUOUS
10
7.18516
20
-3.20699
11
7.18515
21
-3.20718
0
LINE
8
BLACK
6
CONTINUOUS
10
7.18515
20
-3.20718
11
7.18513
21
-3.20728
0
LINE
8
BLACK
6
CONTINUOUS
10
7.18513
20
-3.20728
11
7.18512
21
-3.20738
0
LINE
8
BLACK
6
CONTINUOUS
10
7.18512
20
-3.20738
11
7.18506
21
-3.20756
0
LINE
8
BLACK
6
CONTINUOUS
10
7.18506
20
-3.20756
11
7.18502
21
-3.20774
0
LINE
8
BLACK
6
CONTINUOUS
10
7.18502
20
-3.20774
11
7.18498
21
-3.20783
0
LINE
8
BLACK
6
CONTINUOUS
10
7.18498
20
-3.20783
11
7.18495
21
-3.20793
0
LINE
8
BLACK
6
CONTINUOUS
10
7.18495
20
-3.20793
11
7.18486
21
-3.20809
0
LINE
8
BLACK
6
CONTINUOUS
10
7.18486
20
-3.20809
11
7.18478
21
-3.20826
0
LINE
8
BLACK
6
CONTINUOUS
10
7.18478
20
-3.20826
11
7.18472
21
-3.20835
0
LINE
8
BLACK
6
CONTINUOUS
10
7.18472
20
-3.20835
11
7.18468
21
-3.20844
0
LINE
8
BLACK
6
CONTINUOUS
10
7.18468
20
-3.20844
11
7.18456
21
-3.20858
0
LINE
8
BLACK
6
CONTINUOUS
10
7.18456
20
-3.20858
11
7.18445
21
-3.20873
0
LINE
8
BLACK
6
CONTINUOUS
10
7.18445
20
-3.20873
11
7.17552
21
-3.21894
0
LINE
8
BLACK
6
CONTINUOUS
10
7.17552
20
-3.21894
11
7.1757
21
-3.21901
0
LINE
8
BLACK
6
CONTINUOUS
10
7.1757
20
-3.21901
11
7.17589
21
-3.21907
0
LINE
8
BLACK
6
CONTINUOUS
10
7.17589
20
-3.21907
11
7.17597
21
-3.21911
0
LINE
8
BLACK
6
CONTINUOUS
10
7.17597
20
-3.21911
11
7.17605
21
-3.21914
0
LINE
8
BLACK
6
CONTINUOUS
10
7.17605
20
-3.21914
11
7.1798
21
-3.22102
0
LINE
8
BLACK
6
CONTINUOUS
10
7.1798
20
-3.22102
11
7.17983
21
-3.22104
0
LINE
8
BLACK
6
CONTINUOUS
10
7.17983
20
-3.22104
11
7.17997
21
-3.22113
0
LINE
8
BLACK
6
CONTINUOUS
10
7.17997
20
-3.22113
11
7.18012
21
-3.22121
0
LINE
8
BLACK
6
CONTINUOUS
10
7.18012
20
-3.22121
11
7.18022
21
-3.22128
0
LINE
8
BLACK
6
CONTINUOUS
10
7.18022
20
-3.22128
11
7.18032
21
-3.22135
0
LINE
8
BLACK
6
CONTINUOUS
10
7.18032
20
-3.22135
11
7.18044
21
-3.22147
0
LINE
8
BLACK
6
CONTINUOUS
10
7.18044
20
-3.22147
11
7.18057
21
-3.22157
0
LINE
8
BLACK
6
CONTINUOUS
10
7.18057
20
-3.22157
11
7.18244
21
-3.22345
0
LINE
8
BLACK
6
CONTINUOUS
10
7.18244
20
-3.22345
11
7.18247
21
-3.22348
0
LINE
8
BLACK
6
CONTINUOUS
10
7.18247
20
-3.22348
11
7.18257
21
-3.22361
0
LINE
8
BLACK
6
CONTINUOUS
10
7.18257
20
-3.22361
11
7.18269
21
-3.22373
0
LINE
8
BLACK
6
CONTINUOUS
10
7.18269
20
-3.22373
11
7.18275
21
-3.22383
0
LINE
8
BLACK
6
CONTINUOUS
10
7.18275
20
-3.22383
11
7.18283
21
-3.22393
0
LINE
8
BLACK
6
CONTINUOUS
10
7.18283
20
-3.22393
11
7.18291
21
-3.22407
0
LINE
8
BLACK
6
CONTINUOUS
10
7.18291
20
-3.22407
11
7.18299
21
-3.22421
0
LINE
8
BLACK
6
CONTINUOUS
10
7.18299
20
-3.22421
11
7.18487
21
-3.22796
0
LINE
8
BLACK
6
CONTINUOUS
10
7.18487
20
-3.22796
11
7.18489
21
-3.228
0
LINE
8
BLACK
6
CONTINUOUS
10
7.18489
20
-3.228
11
7.18492
21
-3.22808
0
LINE
8
BLACK
6
CONTINUOUS
10
7.18492
20
-3.22808
11
7.18496
21
-3.22816
0
LINE
8
BLACK
6
CONTINUOUS
10
7.18496
20
-3.22816
11
7.18502
21
-3.22835
0
LINE
8
BLACK
6
CONTINUOUS
10
7.18502
20
-3.22835
11
7.18509
21
-3.22854
0
LINE
8
BLACK
6
CONTINUOUS
10
7.18509
20
-3.22854
11
7.1851
21
-3.22863
0
LINE
8
BLACK
6
CONTINUOUS
10
7.1851
20
-3.22863
11
7.18512
21
-3.22871
0
LINE
8
BLACK
6
CONTINUOUS
10
7.18512
20
-3.22871
11
7.18514
21
-3.22891
0
LINE
8
BLACK
6
CONTINUOUS
10
7.18514
20
-3.22891
11
7.18517
21
-3.22911
0
LINE
8
BLACK
6
CONTINUOUS
10
7.18517
20
-3.22911
11
7.18517
21
-3.2292
0
LINE
8
BLACK
6
CONTINUOUS
10
7.18517
20
-3.2292
11
7.18518
21
-3.22928
0
LINE
8
BLACK
6
CONTINUOUS
10
7.18518
20
-3.22928
11
7.18518
21
-3.23866
0
LINE
8
BLACK
6
CONTINUOUS
10
7.18518
20
-3.23866
11
7.18518
21
-3.2387
0
LINE
8
BLACK
6
CONTINUOUS
10
7.18518
20
-3.2387
11
7.18517
21
-3.23879
0
LINE
8
BLACK
6
CONTINUOUS
10
7.18517
20
-3.23879
11
7.18517
21
-3.23887
0
LINE
8
BLACK
6
CONTINUOUS
10
7.18517
20
-3.23887
11
7.18514
21
-3.23907
0
LINE
8
BLACK
6
CONTINUOUS
10
7.18514
20
-3.23907
11
7.18512
21
-3.23927
0
LINE
8
BLACK
6
CONTINUOUS
10
7.18512
20
-3.23927
11
7.18509
21
-3.23935
0
LINE
8
BLACK
6
CONTINUOUS
10
7.18509
20
-3.23935
11
7.18507
21
-3.23944
0
LINE
8
BLACK
6
CONTINUOUS
10
7.18507
20
-3.23944
11
7.185
21
-3.23963
0
LINE
8
BLACK
6
CONTINUOUS
10
7.185
20
-3.23963
11
7.18494
21
-3.23982
0
LINE
8
BLACK
6
CONTINUOUS
10
7.18494
20
-3.23982
11
7.1849
21
-3.2399
0
LINE
8
BLACK
6
CONTINUOUS
10
7.1849
20
-3.2399
11
7.18487
21
-3.23998
0
LINE
8
BLACK
6
CONTINUOUS
10
7.18487
20
-3.23998
11
7.18299
21
-3.24373
0
LINE
8
BLACK
6
CONTINUOUS
10
7.18299
20
-3.24373
11
7.18297
21
-3.24376
0
LINE
8
BLACK
6
CONTINUOUS
10
7.18297
20
-3.24376
11
7.18288
21
-3.2439
0
LINE
8
BLACK
6
CONTINUOUS
10
7.18288
20
-3.2439
11
7.18281
21
-3.24405
0
LINE
8
BLACK
6
CONTINUOUS
10
7.18281
20
-3.24405
11
7.18273
21
-3.24414
0
LINE
8
BLACK
6
CONTINUOUS
10
7.18273
20
-3.24414
11
7.18266
21
-3.24425
0
LINE
8
BLACK
6
CONTINUOUS
10
7.18266
20
-3.24425
11
7.18255
21
-3.24437
0
LINE
8
BLACK
6
CONTINUOUS
10
7.18255
20
-3.24437
11
7.18244
21
-3.2445
0
LINE
8
BLACK
6
CONTINUOUS
10
7.18244
20
-3.2445
11
7.18057
21
-3.24637
0
LINE
8
BLACK
6
CONTINUOUS
10
7.18057
20
-3.24637
11
7.18054
21
-3.2464
0
LINE
8
BLACK
6
CONTINUOUS
10
7.18054
20
-3.2464
11
7.18041
21
-3.2465
0
LINE
8
BLACK
6
CONTINUOUS
10
7.18041
20
-3.2465
11
7.18029
21
-3.24662
0
LINE
8
BLACK
6
CONTINUOUS
10
7.18029
20
-3.24662
11
7.18018
21
-3.24668
0
LINE
8
BLACK
6
CONTINUOUS
10
7.18018
20
-3.24668
11
7.18009
21
-3.24676
0
LINE
8
BLACK
6
CONTINUOUS
10
7.18009
20
-3.24676
11
7.17994
21
-3.24683
0
LINE
8
BLACK
6
CONTINUOUS
10
7.17994
20
-3.24683
11
7.1798
21
-3.24692
0
LINE
8
BLACK
6
CONTINUOUS
10
7.1798
20
-3.24692
11
7.17605
21
-3.2488
0
LINE
8
BLACK
6
CONTINUOUS
10
7.17605
20
-3.2488
11
7.17601
21
-3.24882
0
LINE
8
BLACK
6
CONTINUOUS
10
7.17601
20
-3.24882
11
7.17593
21
-3.24885
0
LINE
8
BLACK
6
CONTINUOUS
10
7.17593
20
-3.24885
11
7.17585
21
-3.24889
0
LINE
8
BLACK
6
CONTINUOUS
10
7.17585
20
-3.24889
11
7.17566
21
-3.24895
0
LINE
8
BLACK
6
CONTINUOUS
10
7.17566
20
-3.24895
11
7.17547
21
-3.24901
0
LINE
8
BLACK
6
CONTINUOUS
10
7.17547
20
-3.24901
11
7.17539
21
-3.24903
0
LINE
8
BLACK
6
CONTINUOUS
10
7.17539
20
-3.24903
11
7.1753
21
-3.24905
0
LINE
8
BLACK
6
CONTINUOUS
10
7.1753
20
-3.24905
11
7.1751
21
-3.24907
0
LINE
8
BLACK
6
CONTINUOUS
10
7.1751
20
-3.24907
11
7.1749
21
-3.2491
0
LINE
8
BLACK
6
CONTINUOUS
10
7.1749
20
-3.2491
11
7.17481
21
-3.2491
0
LINE
8
BLACK
6
CONTINUOUS
10
7.17481
20
-3.2491
11
7.17473
21
-3.24911
0
LINE
8
BLACK
6
CONTINUOUS
10
7.17473
20
-3.24911
11
7.16348
21
-3.24911
0
LINE
8
BLACK
6
CONTINUOUS
10
7.16348
20
-3.24911
11
7.16344
21
-3.24911
0
LINE
8
BLACK
6
CONTINUOUS
10
7.16344
20
-3.24911
11
7.16335
21
-3.2491
0
LINE
8
BLACK
6
CONTINUOUS
10
7.16335
20
-3.2491
11
7.16327
21
-3.2491
0
LINE
8
BLACK
6
CONTINUOUS
10
7.16327
20
-3.2491
11
7.16307
21
-3.24907
0
LINE
8
BLACK
6
CONTINUOUS
10
7.16307
20
-3.24907
11
7.16287
21
-3.24904
0
LINE
8
BLACK
6
CONTINUOUS
10
7.16287
20
-3.24904
11
7.16278
21
-3.24902
0
LINE
8
BLACK
6
CONTINUOUS
10
7.16278
20
-3.24902
11
7.1627
21
-3.249
0
LINE
8
BLACK
6
CONTINUOUS
10
7.1627
20
-3.249
11
7.16251
21
-3.24893
0
LINE
8
BLACK
6
CONTINUOUS
10
7.16251
20
-3.24893
11
7.16232
21
-3.24887
0
LINE
8
BLACK
6
CONTINUOUS
10
7.16232
20
-3.24887
11
7.16224
21
-3.24883
0
LINE
8
BLACK
6
CONTINUOUS
10
7.16224
20
-3.24883
11
7.16216
21
-3.2488
0
LINE
8
BLACK
6
CONTINUOUS
10
7.16216
20
-3.2488
11
7.15841
21
-3.24692
0
LINE
8
BLACK
6
CONTINUOUS
10
7.15841
20
-3.24692
11
7.15837
21
-3.2469
0
LINE
8
BLACK
6
CONTINUOUS
10
7.15837
20
-3.2469
11
7.15823
21
-3.24681
0
LINE
8
BLACK
6
CONTINUOUS
10
7.15823
20
-3.24681
11
7.15809
21
-3.24674
0
LINE
8
BLACK
6
CONTINUOUS
10
7.15809
20
-3.24674
11
7.15799
21
-3.24666
0
LINE
8
BLACK
6
CONTINUOUS
10
7.15799
20
-3.24666
11
7.15789
21
-3.24659
0
LINE
8
BLACK
6
CONTINUOUS
10
7.15789
20
-3.24659
11
7.15777
21
-3.24648
0
LINE
8
BLACK
6
CONTINUOUS
10
7.15777
20
-3.24648
11
7.15764
21
-3.24637
0
LINE
8
BLACK
6
CONTINUOUS
10
7.15764
20
-3.24637
11
7.15577
21
-3.2445
0
LINE
8
BLACK
6
CONTINUOUS
10
7.15577
20
-3.2445
11
7.15574
21
-3.24447
0
LINE
8
BLACK
6
CONTINUOUS
10
7.15574
20
-3.24447
11
7.15538
21
-3.24402
0
LINE
8
BLACK
6
CONTINUOUS
10
7.15538
20
-3.24402
11
7.15511
21
-3.2435
0
LINE
8
BLACK
6
CONTINUOUS
10
7.15511
20
-3.2435
11
7.15495
21
-3.24295
0
LINE
8
BLACK
6
CONTINUOUS
10
7.15495
20
-3.24295
11
7.1549
21
-3.24238
0
LINE
8
BLACK
6
CONTINUOUS
10
7.1549
20
-3.24238
11
7.15496
21
-3.2418
0
LINE
8
BLACK
6
CONTINUOUS
10
7.15496
20
-3.2418
11
7.15514
21
-3.24125
0
LINE
8
BLACK
6
CONTINUOUS
10
7.15514
20
-3.24125
11
7.15541
21
-3.24075
0
LINE
8
BLACK
6
CONTINUOUS
10
7.15541
20
-3.24075
11
7.15578
21
-3.2403
0
LINE
8
BLACK
6
CONTINUOUS
10
7.15578
20
-3.2403
11
7.15623
21
-3.23994
0
LINE
8
BLACK
6
CONTINUOUS
10
7.15623
20
-3.23994
11
7.15674
21
-3.23967
0
LINE
8
BLACK
6
CONTINUOUS
10
7.15674
20
-3.23967
11
7.15729
21
-3.23951
0
LINE
8
BLACK
6
CONTINUOUS
10
7.15729
20
-3.23951
11
7.15787
21
-3.23945
0
LINE
8
BLACK
6
CONTINUOUS
10
7.15787
20
-3.23945
11
7.15844
21
-3.23951
0
LINE
8
BLACK
6
CONTINUOUS
10
7.15844
20
-3.23951
11
7.15899
21
-3.23968
0
LINE
8
BLACK
6
CONTINUOUS
10
7.15899
20
-3.23968
11
7.1595
21
-3.23995
0
LINE
8
BLACK
6
CONTINUOUS
10
7.1595
20
-3.23995
11
7.15994
21
-3.24032
0
LINE
8
BLACK
6
CONTINUOUS
10
7.15994
20
-3.24032
11
7.16148
21
-3.24186
0
LINE
8
BLACK
6
CONTINUOUS
10
7.16148
20
-3.24186
11
7.16418
21
-3.2432
0
LINE
8
BLACK
6
CONTINUOUS
10
7.16418
20
-3.2432
11
7.17403
21
-3.2432
0
LINE
8
BLACK
6
CONTINUOUS
10
7.17403
20
-3.2432
11
7.17673
21
-3.24186
0
LINE
8
BLACK
6
CONTINUOUS
10
7.17673
20
-3.24186
11
7.17793
21
-3.24066
0
LINE
8
BLACK
6
CONTINUOUS
10
7.17793
20
-3.24066
11
7.17927
21
-3.23796
0
LINE
8
BLACK
6
CONTINUOUS
10
7.17927
20
-3.23796
11
7.17927
21
-3.22998
0
LINE
8
BLACK
6
CONTINUOUS
10
7.17927
20
-3.22998
11
7.17793
21
-3.22728
0
LINE
8
BLACK
6
CONTINUOUS
10
7.17793
20
-3.22728
11
7.17673
21
-3.22609
0
LINE
8
BLACK
6
CONTINUOUS
10
7.17673
20
-3.22609
11
7.17403
21
-3.22474
0
LINE
8
BLACK
6
CONTINUOUS
10
7.17403
20
-3.22474
11
7.1691
21
-3.22474
0
LINE
8
BLACK
6
CONTINUOUS
10
7.1691
20
-3.22474
11
7.16906
21
-3.22474
0
LINE
8
BLACK
6
CONTINUOUS
10
7.16906
20
-3.22474
11
7.16888
21
-3.22472
0
LINE
8
BLACK
6
CONTINUOUS
10
7.16888
20
-3.22472
11
7.16869
21
-3.22471
0
LINE
8
BLACK
6
CONTINUOUS
10
7.16869
20
-3.22471
11
7.16859
21
-3.22468
0
LINE
8
BLACK
6
CONTINUOUS
10
7.16859
20
-3.22468
11
7.16849
21
-3.22467
0
LINE
8
BLACK
6
CONTINUOUS
10
7.16849
20
-3.22467
11
7.16831
21
-3.22462
0
LINE
8
BLACK
6
CONTINUOUS
10
7.16831
20
-3.22462
11
7.16813
21
-3.22457
0
LINE
8
BLACK
6
CONTINUOUS
10
7.16813
20
-3.22457
11
7.16804
21
-3.22453
0
LINE
8
BLACK
6
CONTINUOUS
10
7.16804
20
-3.22453
11
7.16794
21
-3.2245
0
LINE
8
BLACK
6
CONTINUOUS
10
7.16794
20
-3.2245
11
7.16778
21
-3.22441
0
LINE
8
BLACK
6
CONTINUOUS
10
7.16778
20
-3.22441
11
7.16761
21
-3.22433
0
LINE
8
BLACK
6
CONTINUOUS
10
7.16761
20
-3.22433
11
7.16753
21
-3.22427
0
LINE
8
BLACK
6
CONTINUOUS
10
7.16753
20
-3.22427
11
7.16744
21
-3.22422
0
LINE
8
BLACK
6
CONTINUOUS
10
7.16744
20
-3.22422
11
7.16729
21
-3.2241
0
LINE
8
BLACK
6
CONTINUOUS
10
7.16729
20
-3.2241
11
7.16714
21
-3.22399
0
LINE
8
BLACK
6
CONTINUOUS
10
7.16714
20
-3.22399
11
7.16707
21
-3.22392
0
LINE
8
BLACK
6
CONTINUOUS
10
7.16707
20
-3.22392
11
7.16699
21
-3.22385
0
LINE
8
BLACK
6
CONTINUOUS
10
7.16699
20
-3.22385
11
7.16688
21
-3.22371
0
LINE
8
BLACK
6
CONTINUOUS
10
7.16688
20
-3.22371
11
7.16675
21
-3.22357
0
LINE
8
BLACK
6
CONTINUOUS
10
7.16675
20
-3.22357
11
7.1667
21
-3.22348
0
LINE
8
BLACK
6
CONTINUOUS
10
7.1667
20
-3.22348
11
7.16663
21
-3.2234
0
LINE
8
BLACK
6
CONTINUOUS
10
7.16663
20
-3.2234
11
7.16655
21
-3.22324
0
LINE
8
BLACK
6
CONTINUOUS
10
7.16655
20
-3.22324
11
7.16645
21
-3.22308
0
LINE
8
BLACK
6
CONTINUOUS
10
7.16645
20
-3.22308
11
7.16641
21
-3.22298
0
LINE
8
BLACK
6
CONTINUOUS
10
7.16641
20
-3.22298
11
7.16637
21
-3.22289
0
LINE
8
BLACK
6
CONTINUOUS
10
7.16637
20
-3.22289
11
7.16631
21
-3.22271
0
LINE
8
BLACK
6
CONTINUOUS
10
7.16631
20
-3.22271
11
7.16625
21
-3.22254
0
LINE
8
BLACK
6
CONTINUOUS
10
7.16625
20
-3.22254
11
7.16623
21
-3.22244
0
LINE
8
BLACK
6
CONTINUOUS
10
7.16623
20
-3.22244
11
7.1662
21
-3.22234
0
LINE
8
BLACK
6
CONTINUOUS
10
7.1662
20
-3.22234
11
7.16619
21
-3.22215
0
LINE
8
BLACK
6
CONTINUOUS
10
7.16619
20
-3.22215
11
7.16616
21
-3.22197
0
LINE
8
BLACK
6
CONTINUOUS
10
7.16616
20
-3.22197
11
7.16616
21
-3.22187
0
LINE
8
BLACK
6
CONTINUOUS
10
7.16616
20
-3.22187
11
7.16615
21
-3.22176
0
LINE
8
BLACK
6
CONTINUOUS
10
7.16615
20
-3.22176
11
7.16617
21
-3.22158
0
LINE
8
BLACK
6
CONTINUOUS
10
7.16617
20
-3.22158
11
7.16618
21
-3.22139
0
LINE
8
BLACK
6
CONTINUOUS
10
7.16618
20
-3.22139
11
7.1662
21
-3.22129
0
LINE
8
BLACK
6
CONTINUOUS
10
7.1662
20
-3.22129
11
7.16621
21
-3.22119
0
LINE
8
BLACK
6
CONTINUOUS
10
7.16621
20
-3.22119
11
7.16627
21
-3.22101
0
LINE
8
BLACK
6
CONTINUOUS
10
7.16627
20
-3.22101
11
7.16631
21
-3.22083
0
LINE
8
BLACK
6
CONTINUOUS
10
7.16631
20
-3.22083
11
7.16635
21
-3.22074
0
LINE
8
BLACK
6
CONTINUOUS
10
7.16635
20
-3.22074
11
7.16638
21
-3.22064
0
LINE
8
BLACK
6
CONTINUOUS
10
7.16638
20
-3.22064
11
7.16647
21
-3.22048
0
LINE
8
BLACK
6
CONTINUOUS
10
7.16647
20
-3.22048
11
7.16655
21
-3.22031
0
LINE
8
BLACK
6
CONTINUOUS
10
7.16655
20
-3.22031
11
7.16661
21
-3.22022
0
LINE
8
BLACK
6
CONTINUOUS
10
7.16661
20
-3.22022
11
7.16666
21
-3.22013
0
LINE
8
BLACK
6
CONTINUOUS
10
7.16666
20
-3.22013
11
7.16677
21
-3.21999
0
LINE
8
BLACK
6
CONTINUOUS
10
7.16677
20
-3.21999
11
7.16688
21
-3.21984
0
LINE
8
BLACK
6
CONTINUOUS
10
7.16688
20
-3.21984
11
7.17572
21
-3.20974
0
LINE
8
BLACK
6
CONTINUOUS
10
7.17572
20
-3.20974
11
7.15786
21
-3.20974
0
LINE
8
BLACK
6
CONTINUOUS
10
7.15786
20
-3.20974
11
7.15781
21
-3.20974
0
LINE
8
BLACK
6
CONTINUOUS
10
7.15781
20
-3.20974
11
7.15724
21
-3.20967
0
LINE
8
BLACK
6
CONTINUOUS
10
7.15724
20
-3.20967
11
7.15669
21
-3.2095
0
LINE
8
BLACK
6
CONTINUOUS
10
7.15669
20
-3.2095
11
7.15619
21
-3.20922
0
LINE
8
BLACK
6
CONTINUOUS
10
7.15619
20
-3.20922
11
7.15575
21
-3.20885
0
LINE
8
BLACK
6
CONTINUOUS
10
7.15575
20
-3.20885
11
7.15538
21
-3.2084
0
LINE
8
BLACK
6
CONTINUOUS
10
7.15538
20
-3.2084
11
7.15512
21
-3.20789
0
LINE
8
BLACK
6
CONTINUOUS
10
7.15512
20
-3.20789
11
7.15495
21
-3.20734
0
LINE
8
BLACK
6
CONTINUOUS
10
7.15495
20
-3.20734
11
7.1549
21
-3.20677
0
LINE
8
BLACK
6
CONTINUOUS
10
7.1549
20
-3.20677
11
7.15496
21
-3.20619
0
LINE
8
BLACK
6
CONTINUOUS
10
7.15496
20
-3.20619
11
7.15513
21
-3.20564
0
LINE
8
BLACK
6
CONTINUOUS
10
7.15513
20
-3.20564
11
7.15541
21
-3.20514
0
LINE
8
BLACK
6
CONTINUOUS
10
7.15541
20
-3.20514
11
7.15577
21
-3.20469
0
LINE
8
BLACK
6
CONTINUOUS
10
7.15577
20
-3.20469
11
7.15622
21
-3.20433
0
LINE
8
BLACK
6
CONTINUOUS
10
7.15622
20
-3.20433
11
7.15673
21
-3.20406
0
LINE
8
BLACK
6
CONTINUOUS
10
7.15673
20
-3.20406
11
7.15728
21
-3.20389
0
LINE
8
BLACK
6
CONTINUOUS
10
7.15728
20
-3.20389
11
7.15786
21
-3.20383
0
LINE
8
BLACK
6
CONTINUOUS
10
7.15786
20
-3.20383
11
7.18223
21
-3.20383
0
LINE
8
BLACK
6
CONTINUOUS
10
7.18223
20
-3.20383
11
7.18227
21
-3.20383
0
LINE
8
BLACK
6
CONTINUOUS
10
7.26288
20
-3.21696
11
7.26297
21
-3.21697
0
LINE
8
BLACK
6
CONTINUOUS
10
7.26297
20
-3.21697
11
7.26306
21
-3.21697
0
LINE
8
BLACK
6
CONTINUOUS
10
7.26306
20
-3.21697
11
7.26326
21
-3.217
0
LINE
8
BLACK
6
CONTINUOUS
10
7.26326
20
-3.217
11
7.26346
21
-3.21702
0
LINE
8
BLACK
6
CONTINUOUS
10
7.26346
20
-3.21702
11
7.26354
21
-3.21705
0
LINE
8
BLACK
6
CONTINUOUS
10
7.26354
20
-3.21705
11
7.26362
21
-3.21706
0
LINE
8
BLACK
6
CONTINUOUS
10
7.26362
20
-3.21706
11
7.26381
21
-3.21714
0
LINE
8
BLACK
6
CONTINUOUS
10
7.26381
20
-3.21714
11
7.26401
21
-3.2172
0
LINE
8
BLACK
6
CONTINUOUS
10
7.26401
20
-3.2172
11
7.26408
21
-3.21724
0
LINE
8
BLACK
6
CONTINUOUS
10
7.26408
20
-3.21724
11
7.26416
21
-3.21727
0
LINE
8
BLACK
6
CONTINUOUS
10
7.26416
20
-3.21727
11
7.26791
21
-3.21914
0
LINE
8
BLACK
6
CONTINUOUS
10
7.26791
20
-3.21914
11
7.26795
21
-3.21916
0
LINE
8
BLACK
6
CONTINUOUS
10
7.26795
20
-3.21916
11
7.268
21
-3.2192
0
LINE
8
BLACK
6
CONTINUOUS
10
7.268
20
-3.2192
11
7.26806
21
-3.21922
0
LINE
8
BLACK
6
CONTINUOUS
10
7.26806
20
-3.21922
11
7.26824
21
-3.21935
0
LINE
8
BLACK
6
CONTINUOUS
10
7.26824
20
-3.21935
11
7.26843
21
-3.21948
0
LINE
8
BLACK
6
CONTINUOUS
10
7.26843
20
-3.21948
11
7.26847
21
-3.21951
0
LINE
8
BLACK
6
CONTINUOUS
10
7.26847
20
-3.21951
11
7.26849
21
-3.21949
0
LINE
8
BLACK
6
CONTINUOUS
10
7.26849
20
-3.21949
11
7.26853
21
-3.21945
0
LINE
8
BLACK
6
CONTINUOUS
10
7.26853
20
-3.21945
11
7.26872
21
-3.21933
0
LINE
8
BLACK
6
CONTINUOUS
10
7.26872
20
-3.21933
11
7.26891
21
-3.2192
0
LINE
8
BLACK
6
CONTINUOUS
10
7.26891
20
-3.2192
11
7.26897
21
-3.21918
0
LINE
8
BLACK
6
CONTINUOUS
10
7.26897
20
-3.21918
11
7.26902
21
-3.21914
0
LINE
8
BLACK
6
CONTINUOUS
10
7.26902
20
-3.21914
11
7.27277
21
-3.21727
0
LINE
8
BLACK
6
CONTINUOUS
10
7.27277
20
-3.21727
11
7.27281
21
-3.21725
0
LINE
8
BLACK
6
CONTINUOUS
10
7.27281
20
-3.21725
11
7.27289
21
-3.21722
0
LINE
8
BLACK
6
CONTINUOUS
10
7.27289
20
-3.21722
11
7.27297
21
-3.21718
0
LINE
8
BLACK
6
CONTINUOUS
10
7.27297
20
-3.21718
11
7.27316
21
-3.21712
0
LINE
8
BLACK
6
CONTINUOUS
10
7.27316
20
-3.21712
11
7.27335
21
-3.21705
0
LINE
8
BLACK
6
CONTINUOUS
10
7.27335
20
-3.21705
11
7.27343
21
-3.21704
0
LINE
8
BLACK
6
CONTINUOUS
10
7.27343
20
-3.21704
11
7.27352
21
-3.21701
0
LINE
8
BLACK
6
CONTINUOUS
10
7.27352
20
-3.21701
11
7.27372
21
-3.21699
0
LINE
8
BLACK
6
CONTINUOUS
10
7.27372
20
-3.21699
11
7.27392
21
-3.21696
0
LINE
8
BLACK
6
CONTINUOUS
10
7.27392
20
-3.21696
11
7.274
21
-3.21697
0
LINE
8
BLACK
6
CONTINUOUS
10
7.274
20
-3.21697
11
7.27409
21
-3.21696
0
LINE
8
BLACK
6
CONTINUOUS
10
7.27409
20
-3.21696
11
7.27971
21
-3.21696
0
LINE
8
BLACK
6
CONTINUOUS
10
7.27971
20
-3.21696
11
7.27976
21
-3.21696
0
LINE
8
BLACK
6
CONTINUOUS
10
7.27976
20
-3.21696
11
7.27984
21
-3.21697
0
LINE
8
BLACK
6
CONTINUOUS
10
7.27984
20
-3.21697
11
7.27993
21
-3.21697
0
LINE
8
BLACK
6
CONTINUOUS
10
7.27993
20
-3.21697
11
7.28013
21
-3.217
0
LINE
8
BLACK
6
CONTINUOUS
10
7.28013
20
-3.217
11
7.28033
21
-3.21702
0
LINE
8
BLACK
6
CONTINUOUS
10
7.28033
20
-3.21702
11
7.28041
21
-3.21705
0
LINE
8
BLACK
6
CONTINUOUS
10
7.28041
20
-3.21705
11
7.2805
21
-3.21706
0
LINE
8
BLACK
6
CONTINUOUS
10
7.2805
20
-3.21706
11
7.28069
21
-3.21714
0
LINE
8
BLACK
6
CONTINUOUS
10
7.28069
20
-3.21714
11
7.28088
21
-3.2172
0
LINE
8
BLACK
6
CONTINUOUS
10
7.28088
20
-3.2172
11
7.28095
21
-3.21724
0
LINE
8
BLACK
6
CONTINUOUS
10
7.28095
20
-3.21724
11
7.28104
21
-3.21727
0
LINE
8
BLACK
6
CONTINUOUS
10
7.28104
20
-3.21727
11
7.28479
21
-3.21914
0
LINE
8
BLACK
6
CONTINUOUS
10
7.28479
20
-3.21914
11
7.28482
21
-3.21916
0
LINE
8
BLACK
6
CONTINUOUS
10
7.28482
20
-3.21916
11
7.28488
21
-3.2192
0
LINE
8
BLACK
6
CONTINUOUS
10
7.28488
20
-3.2192
11
7.28493
21
-3.21922
0
LINE
8
BLACK
6
CONTINUOUS
10
7.28493
20
-3.21922
11
7.28512
21
-3.21935
0
LINE
8
BLACK
6
CONTINUOUS
10
7.28512
20
-3.21935
11
7.28531
21
-3.21948
0
LINE
8
BLACK
6
CONTINUOUS
10
7.28531
20
-3.21948
11
7.28535
21
-3.21952
0
LINE
8
BLACK
6
CONTINUOUS
10
7.28535
20
-3.21952
11
7.2854
21
-3.21956
0
LINE
8
BLACK
6
CONTINUOUS
10
7.2854
20
-3.21956
11
7.28556
21
-3.21972
0
LINE
8
BLACK
6
CONTINUOUS
10
7.28556
20
-3.21972
11
7.28572
21
-3.21988
0
LINE
8
BLACK
6
CONTINUOUS
10
7.28572
20
-3.21988
11
7.28575
21
-3.21993
0
LINE
8
BLACK
6
CONTINUOUS
10
7.28575
20
-3.21993
11
7.2858
21
-3.21998
0
LINE
8
BLACK
6
CONTINUOUS
10
7.2858
20
-3.21998
11
7.28592
21
-3.22017
0
LINE
8
BLACK
6
CONTINUOUS
10
7.28592
20
-3.22017
11
7.28605
21
-3.22035
0
LINE
8
BLACK
6
CONTINUOUS
10
7.28605
20
-3.22035
11
7.28607
21
-3.22041
0
LINE
8
BLACK
6
CONTINUOUS
10
7.28607
20
-3.22041
11
7.28611
21
-3.22046
0
LINE
8
BLACK
6
CONTINUOUS
10
7.28611
20
-3.22046
11
7.28798
21
-3.22421
0
LINE
8
BLACK
6
CONTINUOUS
10
7.28798
20
-3.22421
11
7.288
21
-3.22425
0
LINE
8
BLACK
6
CONTINUOUS
10
7.288
20
-3.22425
11
7.28803
21
-3.22433
0
LINE
8
BLACK
6
CONTINUOUS
10
7.28803
20
-3.22433
11
7.28807
21
-3.22441
0
LINE
8
BLACK
6
CONTINUOUS
10
7.28807
20
-3.22441
11
7.28813
21
-3.2246
0
LINE
8
BLACK
6
CONTINUOUS
10
7.28813
20
-3.2246
11
7.2882
21
-3.22479
0
LINE
8
BLACK
6
CONTINUOUS
10
7.2882
20
-3.22479
11
7.28821
21
-3.22488
0
LINE
8
BLACK
6
CONTINUOUS
10
7.28821
20
-3.22488
11
7.28824
21
-3.22496
0
LINE
8
BLACK
6
CONTINUOUS
10
7.28824
20
-3.22496
11
7.28826
21
-3.22516
0
LINE
8
BLACK
6
CONTINUOUS
10
7.28826
20
-3.22516
11
7.28829
21
-3.22536
0
LINE
8
BLACK
6
CONTINUOUS
10
7.28829
20
-3.22536
11
7.28828
21
-3.22545
0
LINE
8
BLACK
6
CONTINUOUS
10
7.28828
20
-3.22545
11
7.28829
21
-3.22553
0
LINE
8
BLACK
6
CONTINUOUS
10
7.28829
20
-3.22553
11
7.28829
21
-3.24616
0
LINE
8
BLACK
6
CONTINUOUS
10
7.28829
20
-3.24616
11
7.28829
21
-3.2462
0
LINE
8
BLACK
6
CONTINUOUS
10
7.28829
20
-3.2462
11
7.28823
21
-3.24677
0
LINE
8
BLACK
6
CONTINUOUS
10
7.28823
20
-3.24677
11
7.28805
21
-3.24732
0
LINE
8
BLACK
6
CONTINUOUS
10
7.28805
20
-3.24732
11
7.28778
21
-3.24782
0
LINE
8
BLACK
6
CONTINUOUS
10
7.28778
20
-3.24782
11
7.28741
21
-3.24827
0
LINE
8
BLACK
6
CONTINUOUS
10
7.28741
20
-3.24827
11
7.28696
21
-3.24863
0
LINE
8
BLACK
6
CONTINUOUS
10
7.28696
20
-3.24863
11
7.28645
21
-3.24889
0
LINE
8
BLACK
6
CONTINUOUS
10
7.28645
20
-3.24889
11
7.28589
21
-3.24906
0
LINE
8
BLACK
6
CONTINUOUS
10
7.28589
20
-3.24906
11
7.28532
21
-3.24911
0
LINE
8
BLACK
6
CONTINUOUS
10
7.28532
20
-3.24911
11
7.28475
21
-3.24905
0
LINE
8
BLACK
6
CONTINUOUS
10
7.28475
20
-3.24905
11
7.2842
21
-3.24888
0
LINE
8
BLACK
6
CONTINUOUS
10
7.2842
20
-3.24888
11
7.28369
21
-3.2486
0
LINE
8
BLACK
6
CONTINUOUS
10
7.28369
20
-3.2486
11
7.28324
21
-3.24824
0
LINE
8
BLACK
6
CONTINUOUS
10
7.28324
20
-3.24824
11
7.28288
21
-3.24779
0
LINE
8
BLACK
6
CONTINUOUS
10
7.28288
20
-3.24779
11
7.28261
21
-3.24728
0
LINE
8
BLACK
6
CONTINUOUS
10
7.28261
20
-3.24728
11
7.28244
21
-3.24673
0
LINE
8
BLACK
6
CONTINUOUS
10
7.28244
20
-3.24673
11
7.28239
21
-3.24616
0
LINE
8
BLACK
6
CONTINUOUS
10
7.28239
20
-3.24616
11
7.28239
21
-3.22623
0
LINE
8
BLACK
6
CONTINUOUS
10
7.28239
20
-3.22623
11
7.28126
21
-3.22399
0
LINE
8
BLACK
6
CONTINUOUS
10
7.28126
20
-3.22399
11
7.27902
21
-3.22286
0
LINE
8
BLACK
6
CONTINUOUS
10
7.27902
20
-3.22286
11
7.27479
21
-3.22286
0
LINE
8
BLACK
6
CONTINUOUS
10
7.27479
20
-3.22286
11
7.27254
21
-3.22399
0
LINE
8
BLACK
6
CONTINUOUS
10
7.27254
20
-3.22399
11
7.27142
21
-3.22623
0
LINE
8
BLACK
6
CONTINUOUS
10
7.27142
20
-3.22623
11
7.27142
21
-3.24616
0
LINE
8
BLACK
6
CONTINUOUS
10
7.27142
20
-3.24616
11
7.27142
21
-3.2462
0
LINE
8
BLACK
6
CONTINUOUS
10
7.27142
20
-3.2462
11
7.27135
21
-3.24677
0
LINE
8
BLACK
6
CONTINUOUS
10
7.27135
20
-3.24677
11
7.27118
21
-3.24732
0
LINE
8
BLACK
6
CONTINUOUS
10
7.27118
20
-3.24732
11
7.2709
21
-3.24782
0
LINE
8
BLACK
6
CONTINUOUS
10
7.2709
20
-3.24782
11
7.27053
21
-3.24827
0
LINE
8
BLACK
6
CONTINUOUS
10
7.27053
20
-3.24827
11
7.27008
21
-3.24863
0
LINE
8
BLACK
6
CONTINUOUS
10
7.27008
20
-3.24863
11
7.26957
21
-3.24889
0
LINE
8
BLACK
6
CONTINUOUS
10
7.26957
20
-3.24889
11
7.26902
21
-3.24906
0
LINE
8
BLACK
6
CONTINUOUS
10
7.26902
20
-3.24906
11
7.26845
21
-3.24911
0
LINE
8
BLACK
6
CONTINUOUS
10
7.26845
20
-3.24911
11
7.26787
21
-3.24905
0
LINE
8
BLACK
6
CONTINUOUS
10
7.26787
20
-3.24905
11
7.26732
21
-3.24888
0
LINE
8
BLACK
6
CONTINUOUS
10
7.26732
20
-3.24888
11
7.26682
21
-3.2486
0
LINE
8
BLACK
6
CONTINUOUS
10
7.26682
20
-3.2486
11
7.26637
21
-3.24824
0
LINE
8
BLACK
6
CONTINUOUS
10
7.26637
20
-3.24824
11
7.26601
21
-3.24779
0
LINE
8
BLACK
6
CONTINUOUS
10
7.26601
20
-3.24779
11
7.26574
21
-3.24728
0
LINE
8
BLACK
6
CONTINUOUS
10
7.26574
20
-3.24728
11
7.26557
21
-3.24673
0
LINE
8
BLACK
6
CONTINUOUS
10
7.26557
20
-3.24673
11
7.26551
21
-3.24616
0
LINE
8
BLACK
6
CONTINUOUS
10
7.26551
20
-3.24616
11
7.26551
21
-3.22623
0
LINE
8
BLACK
6
CONTINUOUS
10
7.26551
20
-3.22623
11
7.26439
21
-3.22399
0
LINE
8
BLACK
6
CONTINUOUS
10
7.26439
20
-3.22399
11
7.26215
21
-3.22286
0
LINE
8
BLACK
6
CONTINUOUS
10
7.26215
20
-3.22286
11
7.25791
21
-3.22286
0
LINE
8
BLACK
6
CONTINUOUS
10
7.25791
20
-3.22286
11
7.25522
21
-3.22421
0
LINE
8
BLACK
6
CONTINUOUS
10
7.25522
20
-3.22421
11
7.25455
21
-3.22488
0
LINE
8
BLACK
6
CONTINUOUS
10
7.25455
20
-3.22488
11
7.25455
21
-3.24616
0
LINE
8
BLACK
6
CONTINUOUS
10
7.25455
20
-3.24616
11
7.25455
21
-3.2462
0
LINE
8
BLACK
6
CONTINUOUS
10
7.25455
20
-3.2462
11
7.25448
21
-3.24677
0
LINE
8
BLACK
6
CONTINUOUS
10
7.25448
20
-3.24677
11
7.25431
21
-3.24732
0
LINE
8
BLACK
6
CONTINUOUS
10
7.25431
20
-3.24732
11
7.25403
21
-3.24782
0
LINE
8
BLACK
6
CONTINUOUS
10
7.25403
20
-3.24782
11
7.25366
21
-3.24827
0
LINE
8
BLACK
6
CONTINUOUS
10
7.25366
20
-3.24827
11
7.25321
21
-3.24863
0
LINE
8
BLACK
6
CONTINUOUS
10
7.25321
20
-3.24863
11
7.2527
21
-3.24889
0
LINE
8
BLACK
6
CONTINUOUS
10
7.2527
20
-3.24889
11
7.25215
21
-3.24906
0
LINE
8
BLACK
6
CONTINUOUS
10
7.25215
20
-3.24906
11
7.25157
21
-3.24911
0
LINE
8
BLACK
6
CONTINUOUS
10
7.25157
20
-3.24911
11
7.251
21
-3.24905
0
LINE
8
BLACK
6
CONTINUOUS
10
7.251
20
-3.24905
11
7.25045
21
-3.24888
0
LINE
8
BLACK
6
CONTINUOUS
10
7.25045
20
-3.24888
11
7.24994
21
-3.2486
0
LINE
8
BLACK
6
CONTINUOUS
10
7.24994
20
-3.2486
11
7.2495
21
-3.24824
0
LINE
8
BLACK
6
CONTINUOUS
10
7.2495
20
-3.24824
11
7.24913
21
-3.24779
0
LINE
8
BLACK
6
CONTINUOUS
10
7.24913
20
-3.24779
11
7.24886
21
-3.24728
0
LINE
8
BLACK
6
CONTINUOUS
10
7.24886
20
-3.24728
11
7.2487
21
-3.24673
0
LINE
8
BLACK
6
CONTINUOUS
10
7.2487
20
-3.24673
11
7.24864
21
-3.24616
0
LINE
8
BLACK
6
CONTINUOUS
10
7.24864
20
-3.24616
11
7.24864
21
-3.21991
0
LINE
8
BLACK
6
CONTINUOUS
10
7.24864
20
-3.21991
11
7.24864
21
-3.21987
0
LINE
8
BLACK
6
CONTINUOUS
10
7.24864
20
-3.21987
11
7.24871
21
-3.2193
0
LINE
8
BLACK
6
CONTINUOUS
10
7.24871
20
-3.2193
11
7.24888
21
-3.21875
0
LINE
8
BLACK
6
CONTINUOUS
10
7.24888
20
-3.21875
11
7.24916
21
-3.21824
0
LINE
8
BLACK
6
CONTINUOUS
10
7.24916
20
-3.21824
11
7.24953
21
-3.2178
0
LINE
8
BLACK
6
CONTINUOUS
10
7.24953
20
-3.2178
11
7.24998
21
-3.21744
0
LINE
8
BLACK
6
CONTINUOUS
10
7.24998
20
-3.21744
11
7.25049
21
-3.21717
0
LINE
8
BLACK
6
CONTINUOUS
10
7.25049
20
-3.21717
11
7.25104
21
-3.21701
0
LINE
8
BLACK
6
CONTINUOUS
10
7.25104
20
-3.21701
11
7.25161
21
-3.21696
0
LINE
8
BLACK
6
CONTINUOUS
10
7.25161
20
-3.21696
11
7.25219
21
-3.21702
0
LINE
8
BLACK
6
CONTINUOUS
10
7.25219
20
-3.21702
11
7.25274
21
-3.21719
0
LINE
8
BLACK
6
CONTINUOUS
10
7.25274
20
-3.21719
11
7.25324
21
-3.21746
0
LINE
8
BLACK
6
CONTINUOUS
10
7.25324
20
-3.21746
11
7.25369
21
-3.21783
0
LINE
8
BLACK
6
CONTINUOUS
10
7.25369
20
-3.21783
11
7.254
21
-3.21822
0
LINE
8
BLACK
6
CONTINUOUS
10
7.254
20
-3.21822
11
7.2559
21
-3.21727
0
LINE
8
BLACK
6
CONTINUOUS
10
7.2559
20
-3.21727
11
7.25593
21
-3.21725
0
LINE
8
BLACK
6
CONTINUOUS
10
7.25593
20
-3.21725
11
7.25602
21
-3.21722
0
LINE
8
BLACK
6
CONTINUOUS
10
7.25602
20
-3.21722
11
7.25609
21
-3.21718
0
LINE
8
BLACK
6
CONTINUOUS
10
7.25609
20
-3.21718
11
7.25629
21
-3.21712
0
LINE
8
BLACK
6
CONTINUOUS
10
7.25629
20
-3.21712
11
7.25648
21
-3.21705
0
LINE
8
BLACK
6
CONTINUOUS
10
7.25648
20
-3.21705
11
7.25656
21
-3.21704
0
LINE
8
BLACK
6
CONTINUOUS
10
7.25656
20
-3.21704
11
7.25664
21
-3.21701
0
LINE
8
BLACK
6
CONTINUOUS
10
7.25664
20
-3.21701
11
7.25685
21
-3.21699
0
LINE
8
BLACK
6
CONTINUOUS
10
7.25685
20
-3.21699
11
7.25704
21
-3.21696
0
LINE
8
BLACK
6
CONTINUOUS
10
7.25704
20
-3.21696
11
7.25713
21
-3.21697
0
LINE
8
BLACK
6
CONTINUOUS
10
7.25713
20
-3.21697
11
7.25722
21
-3.21696
0
LINE
8
BLACK
6
CONTINUOUS
10
7.25722
20
-3.21696
11
7.26284
21
-3.21696
0
LINE
8
BLACK
6
CONTINUOUS
10
7.26284
20
-3.21696
11
7.26288
21
-3.21696
0
LINE
8
BLACK
6
CONTINUOUS
10
7.21039
20
-3.21696
11
7.21048
21
-3.21697
0
LINE
8
BLACK
6
CONTINUOUS
10
7.21048
20
-3.21697
11
7.21056
21
-3.21697
0
LINE
8
BLACK
6
CONTINUOUS
10
7.21056
20
-3.21697
11
7.21076
21
-3.217
0
LINE
8
BLACK
6
CONTINUOUS
10
7.21076
20
-3.217
11
7.21096
21
-3.21702
0
LINE
8
BLACK
6
CONTINUOUS
10
7.21096
20
-3.21702
11
7.21105
21
-3.21705
0
LINE
8
BLACK
6
CONTINUOUS
10
7.21105
20
-3.21705
11
7.21113
21
-3.21706
0
LINE
8
BLACK
6
CONTINUOUS
10
7.21113
20
-3.21706
11
7.21132
21
-3.21714
0
LINE
8
BLACK
6
CONTINUOUS
10
7.21132
20
-3.21714
11
7.21151
21
-3.2172
0
LINE
8
BLACK
6
CONTINUOUS
10
7.21151
20
-3.2172
11
7.21159
21
-3.21724
0
LINE
8
BLACK
6
CONTINUOUS
10
7.21159
20
-3.21724
11
7.21167
21
-3.21727
0
LINE
8
BLACK
6
CONTINUOUS
10
7.21167
20
-3.21727
11
7.21542
21
-3.21914
0
LINE
8
BLACK
6
CONTINUOUS
10
7.21542
20
-3.21914
11
7.21546
21
-3.21916
0
LINE
8
BLACK
6
CONTINUOUS
10
7.21546
20
-3.21916
11
7.21551
21
-3.2192
0
LINE
8
BLACK
6
CONTINUOUS
10
7.21551
20
-3.2192
11
7.21557
21
-3.21922
0
LINE
8
BLACK
6
CONTINUOUS
10
7.21557
20
-3.21922
11
7.21575
21
-3.21935
0
LINE
8
BLACK
6
CONTINUOUS
10
7.21575
20
-3.21935
11
7.21594
21
-3.21948
0
LINE
8
BLACK
6
CONTINUOUS
10
7.21594
20
-3.21948
11
7.21597
21
-3.21951
0
LINE
8
BLACK
6
CONTINUOUS
10
7.21597
20
-3.21951
11
7.21599
21
-3.21949
0
LINE
8
BLACK
6
CONTINUOUS
10
7.21599
20
-3.21949
11
7.21604
21
-3.21945
0
LINE
8
BLACK
6
CONTINUOUS
10
7.21604
20
-3.21945
11
7.21623
21
-3.21933
0
LINE
8
BLACK
6
CONTINUOUS
10
7.21623
20
-3.21933
11
7.21641
21
-3.2192
0
LINE
8
BLACK
6
CONTINUOUS
10
7.21641
20
-3.2192
11
7.21647
21
-3.21918
0
LINE
8
BLACK
6
CONTINUOUS
10
7.21647
20
-3.21918
11
7.21653
21
-3.21914
0
LINE
8
BLACK
6
CONTINUOUS
10
7.21653
20
-3.21914
11
7.22028
21
-3.21727
0
LINE
8
BLACK
6
CONTINUOUS
10
7.22028
20
-3.21727
11
7.22031
21
-3.21725
0
LINE
8
BLACK
6
CONTINUOUS
10
7.22031
20
-3.21725
11
7.2204
21
-3.21722
0
LINE
8
BLACK
6
CONTINUOUS
10
7.2204
20
-3.21722
11
7.22047
21
-3.21718
0
LINE
8
BLACK
6
CONTINUOUS
10
7.22047
20
-3.21718
11
7.22067
21
-3.21712
0
LINE
8
BLACK
6
CONTINUOUS
10
7.22067
20
-3.21712
11
7.22085
21
-3.21705
0
LINE
8
BLACK
6
CONTINUOUS
10
7.22085
20
-3.21705
11
7.22094
21
-3.21704
0
LINE
8
BLACK
6
CONTINUOUS
10
7.22094
20
-3.21704
11
7.22102
21
-3.21701
0
LINE
8
BLACK
6
CONTINUOUS
10
7.22102
20
-3.21701
11
7.22122
21
-3.21699
0
LINE
8
BLACK
6
CONTINUOUS
10
7.22122
20
-3.21699
11
7.22142
21
-3.21696
0
LINE
8
BLACK
6
CONTINUOUS
10
7.22142
20
-3.21696
11
7.22151
21
-3.21697
0
LINE
8
BLACK
6
CONTINUOUS
10
7.22151
20
-3.21697
11
7.2216
21
-3.21696
0
LINE
8
BLACK
6
CONTINUOUS
10
7.2216
20
-3.21696
11
7.22722
21
-3.21696
0
LINE
8
BLACK
6
CONTINUOUS
10
7.22722
20
-3.21696
11
7.22726
21
-3.21696
0
LINE
8
BLACK
6
CONTINUOUS
10
7.22726
20
-3.21696
11
7.22735
21
-3.21697
0
LINE
8
BLACK
6
CONTINUOUS
10
7.22735
20
-3.21697
11
7.22744
21
-3.21697
0
LINE
8
BLACK
6
CONTINUOUS
10
7.22744
20
-3.21697
11
7.22764
21
-3.217
0
LINE
8
BLACK
6
CONTINUOUS
10
7.22764
20
-3.217
11
7.22784
21
-3.21702
0
LINE
8
BLACK
6
CONTINUOUS
10
7.22784
20
-3.21702
11
7.22792
21
-3.21705
0
LINE
8
BLACK
6
CONTINUOUS
10
7.22792
20
-3.21705
11
7.228
21
-3.21706
0
LINE
8
BLACK
6
CONTINUOUS
10
7.228
20
-3.21706
11
7.22819
21
-3.21714
0
LINE
8
BLACK
6
CONTINUOUS
10
7.22819
20
-3.21714
11
7.22838
21
-3.2172
0
LINE
8
BLACK
6
CONTINUOUS
10
7.22838
20
-3.2172
11
7.22846
21
-3.21724
0
LINE
8
BLACK
6
CONTINUOUS
10
7.22846
20
-3.21724
11
7.22854
21
-3.21727
0
LINE
8
BLACK
6
CONTINUOUS
10
7.22854
20
-3.21727
11
7.23229
21
-3.21914
0
LINE
8
BLACK
6
CONTINUOUS
10
7.23229
20
-3.21914
11
7.23233
21
-3.21916
0
LINE
8
BLACK
6
CONTINUOUS
10
7.23233
20
-3.21916
11
7.23238
21
-3.2192
0
LINE
8
BLACK
6
CONTINUOUS
10
7.23238
20
-3.2192
11
7.23244
21
-3.21922
0
LINE
8
BLACK
6
CONTINUOUS
10
7.23244
20
-3.21922
11
7.23262
21
-3.21935
0
LINE
8
BLACK
6
CONTINUOUS
10
7.23262
20
-3.21935
11
7.23281
21
-3.21948
0
LINE
8
BLACK
6
CONTINUOUS
10
7.23281
20
-3.21948
11
7.23286
21
-3.21952
0
LINE
8
BLACK
6
CONTINUOUS
10
7.23286
20
-3.21952
11
7.23291
21
-3.21956
0
LINE
8
BLACK
6
CONTINUOUS
10
7.23291
20
-3.21956
11
7.23306
21
-3.21972
0
LINE
8
BLACK
6
CONTINUOUS
10
7.23306
20
-3.21972
11
7.23323
21
-3.21988
0
LINE
8
BLACK
6
CONTINUOUS
10
7.23323
20
-3.21988
11
7.23326
21
-3.21993
0
LINE
8
BLACK
6
CONTINUOUS
10
7.23326
20
-3.21993
11
7.23331
21
-3.21998
0
LINE
8
BLACK
6
CONTINUOUS
10
7.23331
20
-3.21998
11
7.23342
21
-3.22017
0
LINE
8
BLACK
6
CONTINUOUS
10
7.23342
20
-3.22017
11
7.23355
21
-3.22035
0
LINE
8
BLACK
6
CONTINUOUS
10
7.23355
20
-3.22035
11
7.23358
21
-3.22041
0
LINE
8
BLACK
6
CONTINUOUS
10
7.23358
20
-3.22041
11
7.23361
21
-3.22046
0
LINE
8
BLACK
6
CONTINUOUS
10
7.23361
20
-3.22046
11
7.23549
21
-3.22421
0
LINE
8
BLACK
6
CONTINUOUS
10
7.23549
20
-3.22421
11
7.23551
21
-3.22425
0
LINE
8
BLACK
6
CONTINUOUS
10
7.23551
20
-3.22425
11
7.23554
21
-3.22433
0
LINE
8
BLACK
6
CONTINUOUS
10
7.23554
20
-3.22433
11
7.23558
21
-3.22441
0
LINE
8
BLACK
6
CONTINUOUS
10
7.23558
20
-3.22441
11
7.23563
21
-3.2246
0
LINE
8
BLACK
6
CONTINUOUS
10
7.23563
20
-3.2246
11
7.2357
21
-3.22479
0
LINE
8
BLACK
6
CONTINUOUS
10
7.2357
20
-3.22479
11
7.23572
21
-3.22488
0
LINE
8
BLACK
6
CONTINUOUS
10
7.23572
20
-3.22488
11
7.23574
21
-3.22496
0
LINE
8
BLACK
6
CONTINUOUS
10
7.23574
20
-3.22496
11
7.23576
21
-3.22516
0
LINE
8
BLACK
6
CONTINUOUS
10
7.23576
20
-3.22516
11
7.23579
21
-3.22536
0
LINE
8
BLACK
6
CONTINUOUS
10
7.23579
20
-3.22536
11
7.23579
21
-3.22545
0
LINE
8
BLACK
6
CONTINUOUS
10
7.23579
20
-3.22545
11
7.2358
21
-3.22553
0
LINE
8
BLACK
6
CONTINUOUS
10
7.2358
20
-3.22553
11
7.2358
21
-3.24616
0
LINE
8
BLACK
6
CONTINUOUS
10
7.2358
20
-3.24616
11
7.2358
21
-3.2462
0
LINE
8
BLACK
6
CONTINUOUS
10
7.2358
20
-3.2462
11
7.23573
21
-3.24677
0
LINE
8
BLACK
6
CONTINUOUS
10
7.23573
20
-3.24677
11
7.23556
21
-3.24732
0
LINE
8
BLACK
6
CONTINUOUS
10
7.23556
20
-3.24732
11
7.23528
21
-3.24782
0
LINE
8
BLACK
6
CONTINUOUS
10
7.23528
20
-3.24782
11
7.23491
21
-3.24827
0
LINE
8
BLACK
6
CONTINUOUS
10
7.23491
20
-3.24827
11
7.23446
21
-3.24863
0
LINE
8
BLACK
6
CONTINUOUS
10
7.23446
20
-3.24863
11
7.23395
21
-3.24889
0
LINE
8
BLACK
6
CONTINUOUS
10
7.23395
20
-3.24889
11
7.2334
21
-3.24906
0
LINE
8
BLACK
6
CONTINUOUS
10
7.2334
20
-3.24906
11
7.23283
21
-3.24911
0
LINE
8
BLACK
6
CONTINUOUS
10
7.23283
20
-3.24911
11
7.23225
21
-3.24905
0
LINE
8
BLACK
6
CONTINUOUS
10
7.23225
20
-3.24905
11
7.2317
21
-3.24888
0
LINE
8
BLACK
6
CONTINUOUS
10
7.2317
20
-3.24888
11
7.23119
21
-3.2486
0
LINE
8
BLACK
6
CONTINUOUS
10
7.23119
20
-3.2486
11
7.23075
21
-3.24824
0
LINE
8
BLACK
6
CONTINUOUS
10
7.23075
20
-3.24824
11
7.23039
21
-3.24779
0
LINE
8
BLACK
6
CONTINUOUS
10
7.23039
20
-3.24779
11
7.23012
21
-3.24728
0
LINE
8
BLACK
6
CONTINUOUS
10
7.23012
20
-3.24728
11
7.22995
21
-3.24673
0
LINE
8
BLACK
6
CONTINUOUS
10
7.22995
20
-3.24673
11
7.22989
21
-3.24616
0
LINE
8
BLACK
6
CONTINUOUS
10
7.22989
20
-3.24616
11
7.22989
21
-3.22623
0
LINE
8
BLACK
6
CONTINUOUS
10
7.22989
20
-3.22623
11
7.22877
21
-3.22399
0
LINE
8
BLACK
6
CONTINUOUS
10
7.22877
20
-3.22399
11
7.22652
21
-3.22286
0
LINE
8
BLACK
6
CONTINUOUS
10
7.22652
20
-3.22286
11
7.22229
21
-3.22286
0
LINE
8
BLACK
6
CONTINUOUS
10
7.22229
20
-3.22286
11
7.22005
21
-3.22399
0
LINE
8
BLACK
6
CONTINUOUS
10
7.22005
20
-3.22399
11
7.21893
21
-3.22623
0
LINE
8
BLACK
6
CONTINUOUS
10
7.21893
20
-3.22623
11
7.21893
21
-3.24616
0
LINE
8
BLACK
6
CONTINUOUS
10
7.21893
20
-3.24616
11
7.21893
21
-3.2462
0
LINE
8
BLACK
6
CONTINUOUS
10
7.21893
20
-3.2462
11
7.21886
21
-3.24677
0
LINE
8
BLACK
6
CONTINUOUS
10
7.21886
20
-3.24677
11
7.21869
21
-3.24732
0
LINE
8
BLACK
6
CONTINUOUS
10
7.21869
20
-3.24732
11
7.21841
21
-3.24782
0
LINE
8
BLACK
6
CONTINUOUS
10
7.21841
20
-3.24782
11
7.21804
21
-3.24827
0
LINE
8
BLACK
6
CONTINUOUS
10
7.21804
20
-3.24827
11
7.21759
21
-3.24863
0
LINE
8
BLACK
6
CONTINUOUS
10
7.21759
20
-3.24863
11
7.21708
21
-3.24889
0
LINE
8
BLACK
6
CONTINUOUS
10
7.21708
20
-3.24889
11
7.21653
21
-3.24906
0
LINE
8
BLACK
6
CONTINUOUS
10
7.21653
20
-3.24906
11
7.21595
21
-3.24911
0
LINE
8
BLACK
6
CONTINUOUS
10
7.21595
20
-3.24911
11
7.21538
21
-3.24905
0
LINE
8
BLACK
6
CONTINUOUS
10
7.21538
20
-3.24905
11
7.21483
21
-3.24888
0
LINE
8
BLACK
6
CONTINUOUS
10
7.21483
20
-3.24888
11
7.21432
21
-3.2486
0
LINE
8
BLACK
6
CONTINUOUS
10
7.21432
20
-3.2486
11
7.21388
21
-3.24824
0
LINE
8
BLACK
6
CONTINUOUS
10
7.21388
20
-3.24824
11
7.21351
21
-3.24779
0
LINE
8
BLACK
6
CONTINUOUS
10
7.21351
20
-3.24779
11
7.21324
21
-3.24728
0
LINE
8
BLACK
6
CONTINUOUS
10
7.21324
20
-3.24728
11
7.21308
21
-3.24673
0
LINE
8
BLACK
6
CONTINUOUS
10
7.21308
20
-3.24673
11
7.21302
21
-3.24616
0
LINE
8
BLACK
6
CONTINUOUS
10
7.21302
20
-3.24616
11
7.21302
21
-3.22623
0
LINE
8
BLACK
6
CONTINUOUS
10
7.21302
20
-3.22623
11
7.2119
21
-3.22399
0
LINE
8
BLACK
6
CONTINUOUS
10
7.2119
20
-3.22399
11
7.20965
21
-3.22286
0
LINE
8
BLACK
6
CONTINUOUS
10
7.20965
20
-3.22286
11
7.20542
21
-3.22286
0
LINE
8
BLACK
6
CONTINUOUS
10
7.20542
20
-3.22286
11
7.20272
21
-3.22421
0
LINE
8
BLACK
6
CONTINUOUS
10
7.20272
20
-3.22421
11
7.20205
21
-3.22488
0
LINE
8
BLACK
6
CONTINUOUS
10
7.20205
20
-3.22488
11
7.20205
21
-3.24616
0
LINE
8
BLACK
6
CONTINUOUS
10
7.20205
20
-3.24616
11
7.20205
21
-3.2462
0
LINE
8
BLACK
6
CONTINUOUS
10
7.20205
20
-3.2462
11
7.20199
21
-3.24677
0
LINE
8
BLACK
6
CONTINUOUS
10
7.20199
20
-3.24677
11
7.20181
21
-3.24732
0
LINE
8
BLACK
6
CONTINUOUS
10
7.20181
20
-3.24732
11
7.20154
21
-3.24782
0
LINE
8
BLACK
6
CONTINUOUS
10
7.20154
20
-3.24782
11
7.20117
21
-3.24827
0
LINE
8
BLACK
6
CONTINUOUS
10
7.20117
20
-3.24827
11
7.20072
21
-3.24863
0
LINE
8
BLACK
6
CONTINUOUS
10
7.20072
20
-3.24863
11
7.20021
21
-3.24889
0
LINE
8
BLACK
6
CONTINUOUS
10
7.20021
20
-3.24889
11
7.19965
21
-3.24906
0
LINE
8
BLACK
6
CONTINUOUS
10
7.19965
20
-3.24906
11
7.19908
21
-3.24911
0
LINE
8
BLACK
6
CONTINUOUS
10
7.19908
20
-3.24911
11
7.19851
21
-3.24905
0
LINE
8
BLACK
6
CONTINUOUS
10
7.19851
20
-3.24905
11
7.19796
21
-3.24888
0
LINE
8
BLACK
6
CONTINUOUS
10
7.19796
20
-3.24888
11
7.19745
21
-3.2486
0
LINE
8
BLACK
6
CONTINUOUS
10
7.19745
20
-3.2486
11
7.197
21
-3.24824
0
LINE
8
BLACK
6
CONTINUOUS
10
7.197
20
-3.24824
11
7.19664
21
-3.24779
0
LINE
8
BLACK
6
CONTINUOUS
10
7.19664
20
-3.24779
11
7.19637
21
-3.24728
0
LINE
8
BLACK
6
CONTINUOUS
10
7.19637
20
-3.24728
11
7.1962
21
-3.24673
0
LINE
8
BLACK
6
CONTINUOUS
10
7.1962
20
-3.24673
11
7.19615
21
-3.24616
0
LINE
8
BLACK
6
CONTINUOUS
10
7.19615
20
-3.24616
11
7.19615
21
-3.21991
0
LINE
8
BLACK
6
CONTINUOUS
10
7.19615
20
-3.21991
11
7.19615
21
-3.21987
0
LINE
8
BLACK
6
CONTINUOUS
10
7.19615
20
-3.21987
11
7.19621
21
-3.2193
0
LINE
8
BLACK
6
CONTINUOUS
10
7.19621
20
-3.2193
11
7.19639
21
-3.21875
0
LINE
8
BLACK
6
CONTINUOUS
10
7.19639
20
-3.21875
11
7.19666
21
-3.21824
0
LINE
8
BLACK
6
CONTINUOUS
10
7.19666
20
-3.21824
11
7.19703
21
-3.2178
0
LINE
8
BLACK
6
CONTINUOUS
10
7.19703
20
-3.2178
11
7.19748
21
-3.21744
0
LINE
8
BLACK
6
CONTINUOUS
10
7.19748
20
-3.21744
11
7.19799
21
-3.21717
0
LINE
8
BLACK
6
CONTINUOUS
10
7.19799
20
-3.21717
11
7.19855
21
-3.21701
0
LINE
8
BLACK
6
CONTINUOUS
10
7.19855
20
-3.21701
11
7.19912
21
-3.21696
0
LINE
8
BLACK
6
CONTINUOUS
10
7.19912
20
-3.21696
11
7.19969
21
-3.21702
0
LINE
8
BLACK
6
CONTINUOUS
10
7.19969
20
-3.21702
11
7.20024
21
-3.21719
0
LINE
8
BLACK
6
CONTINUOUS
10
7.20024
20
-3.21719
11
7.20075
21
-3.21746
0
LINE
8
BLACK
6
CONTINUOUS
10
7.20075
20
-3.21746
11
7.2012
21
-3.21783
0
LINE
8
BLACK
6
CONTINUOUS
10
7.2012
20
-3.21783
11
7.20151
21
-3.21822
0
LINE
8
BLACK
6
CONTINUOUS
10
7.20151
20
-3.21822
11
7.2034
21
-3.21727
0
LINE
8
BLACK
6
CONTINUOUS
10
7.2034
20
-3.21727
11
7.20344
21
-3.21725
0
LINE
8
BLACK
6
CONTINUOUS
10
7.20344
20
-3.21725
11
7.20352
21
-3.21722
0
LINE
8
BLACK
6
CONTINUOUS
10
7.20352
20
-3.21722
11
7.2036
21
-3.21718
0
LINE
8
BLACK
6
CONTINUOUS
10
7.2036
20
-3.21718
11
7.20379
21
-3.21712
0
LINE
8
BLACK
6
CONTINUOUS
10
7.20379
20
-3.21712
11
7.20398
21
-3.21705
0
LINE
8
BLACK
6
CONTINUOUS
10
7.20398
20
-3.21705
11
7.20407
21
-3.21704
0
LINE
8
BLACK
6
CONTINUOUS
10
7.20407
20
-3.21704
11
7.20415
21
-3.21701
0
LINE
8
BLACK
6
CONTINUOUS
10
7.20415
20
-3.21701
11
7.20435
21
-3.21699
0
LINE
8
BLACK
6
CONTINUOUS
10
7.20435
20
-3.21699
11
7.20455
21
-3.21696
0
LINE
8
BLACK
6
CONTINUOUS
10
7.20455
20
-3.21696
11
7.20464
21
-3.21697
0
LINE
8
BLACK
6
CONTINUOUS
10
7.20464
20
-3.21697
11
7.20472
21
-3.21696
0
LINE
8
BLACK
6
CONTINUOUS
10
7.20472
20
-3.21696
11
7.21035
21
-3.21696
0
LINE
8
BLACK
6
CONTINUOUS
10
7.21035
20
-3.21696
11
7.21039
21
-3.21696
0
LINE
8
BLACK
6
CONTINUOUS
10
7.02787
20
-3.36801
11
7.03248
21
-3.35689
0
LINE
8
BLACK
6
CONTINUOUS
10
7.03248
20
-3.35689
11
7.03916
21
-3.34688
0
LINE
8
BLACK
6
CONTINUOUS
10
7.03916
20
-3.34688
11
7.04767
21
-3.33837
0
LINE
8
BLACK
6
CONTINUOUS
10
7.04767
20
-3.33837
11
7.05768
21
-3.33169
0
LINE
8
BLACK
6
CONTINUOUS
10
7.05768
20
-3.33169
11
7.06879
21
-3.32708
0
LINE
8
BLACK
6
CONTINUOUS
10
7.06879
20
-3.32708
11
7.0806
21
-3.32474
0
LINE
8
BLACK
6
CONTINUOUS
10
7.0806
20
-3.32474
11
7.09263
21
-3.32474
0
LINE
8
BLACK
6
CONTINUOUS
10
7.09263
20
-3.32474
11
7.10443
21
-3.32708
0
LINE
8
BLACK
6
CONTINUOUS
10
7.10443
20
-3.32708
11
7.11555
21
-3.33169
0
LINE
8
BLACK
6
CONTINUOUS
10
7.11555
20
-3.33169
11
7.12556
21
-3.33837
0
LINE
8
BLACK
6
CONTINUOUS
10
7.12556
20
-3.33837
11
7.13407
21
-3.34688
0
LINE
8
BLACK
6
CONTINUOUS
10
7.13407
20
-3.34688
11
7.14075
21
-3.35689
0
LINE
8
BLACK
6
CONTINUOUS
10
7.14075
20
-3.35689
11
7.14536
21
-3.36801
0
LINE
8
BLACK
6
CONTINUOUS
10
7.14536
20
-3.36801
11
7.1477
21
-3.37981
0
LINE
8
BLACK
6
CONTINUOUS
10
7.1477
20
-3.37981
11
7.1477
21
-3.39184
0
LINE
8
BLACK
6
CONTINUOUS
10
7.1477
20
-3.39184
11
7.14536
21
-3.40365
0
LINE
8
BLACK
6
CONTINUOUS
10
7.14536
20
-3.40365
11
7.14075
21
-3.41476
0
LINE
8
BLACK
6
CONTINUOUS
10
7.14075
20
-3.41476
11
7.13407
21
-3.42477
0
LINE
8
BLACK
6
CONTINUOUS
10
7.13407
20
-3.42477
11
7.12556
21
-3.43328
0
LINE
8
BLACK
6
CONTINUOUS
10
7.12556
20
-3.43328
11
7.11555
21
-3.43996
0
LINE
8
BLACK
6
CONTINUOUS
10
7.11555
20
-3.43996
11
7.10443
21
-3.44457
0
LINE
8
BLACK
6
CONTINUOUS
10
7.10443
20
-3.44457
11
7.09263
21
-3.44692
0
LINE
8
BLACK
6
CONTINUOUS
10
7.09263
20
-3.44692
11
7.0806
21
-3.44692
0
LINE
8
BLACK
6
CONTINUOUS
10
7.0806
20
-3.44692
11
7.06879
21
-3.44457
0
LINE
8
BLACK
6
CONTINUOUS
10
7.06879
20
-3.44457
11
7.05768
21
-3.43996
0
LINE
8
BLACK
6
CONTINUOUS
10
7.05768
20
-3.43996
11
7.04767
21
-3.43328
0
LINE
8
BLACK
6
CONTINUOUS
10
7.04767
20
-3.43328
11
7.03916
21
-3.42477
0
LINE
8
BLACK
6
CONTINUOUS
10
7.03916
20
-3.42477
11
7.03248
21
-3.41476
0
LINE
8
BLACK
6
CONTINUOUS
10
7.03248
20
-3.41476
11
7.02787
21
-3.40365
0
LINE
8
BLACK
6
CONTINUOUS
10
7.02787
20
-3.40365
11
7.02552
21
-3.39184
0
LINE
8
BLACK
6
CONTINUOUS
10
7.02552
20
-3.39184
11
7.02552
21
-3.37981
0
LINE
8
BLACK
6
CONTINUOUS
10
7.02552
20
-3.37981
11
7.02787
21
-3.36801
0
LINE
8
BLACK
6
CONTINUOUS
10
7.03804
20
-3.40056
11
7.04185
21
-3.40975
0
LINE
8
BLACK
6
CONTINUOUS
10
7.04185
20
-3.40975
11
7.04738
21
-3.41803
0
LINE
8
BLACK
6
CONTINUOUS
10
7.04738
20
-3.41803
11
7.05441
21
-3.42506
0
LINE
8
BLACK
6
CONTINUOUS
10
7.05441
20
-3.42506
11
7.06269
21
-3.43059
0
LINE
8
BLACK
6
CONTINUOUS
10
7.06269
20
-3.43059
11
7.07188
21
-3.4344
0
LINE
8
BLACK
6
CONTINUOUS
10
7.07188
20
-3.4344
11
7.08164
21
-3.43634
0
LINE
8
BLACK
6
CONTINUOUS
10
7.08164
20
-3.43634
11
7.09159
21
-3.43634
0
LINE
8
BLACK
6
CONTINUOUS
10
7.09159
20
-3.43634
11
7.10135
21
-3.4344
0
LINE
8
BLACK
6
CONTINUOUS
10
7.10135
20
-3.4344
11
7.11054
21
-3.43059
0
LINE
8
BLACK
6
CONTINUOUS
10
7.11054
20
-3.43059
11
7.11881
21
-3.42506
0
LINE
8
BLACK
6
CONTINUOUS
10
7.11881
20
-3.42506
11
7.12585
21
-3.41803
0
LINE
8
BLACK
6
CONTINUOUS
10
7.12585
20
-3.41803
11
7.13138
21
-3.40975
0
LINE
8
BLACK
6
CONTINUOUS
10
7.13138
20
-3.40975
11
7.13519
21
-3.40056
0
LINE
8
BLACK
6
CONTINUOUS
10
7.13519
20
-3.40056
11
7.13713
21
-3.3908
0
LINE
8
BLACK
6
CONTINUOUS
10
7.13713
20
-3.3908
11
7.13713
21
-3.38085
0
LINE
8
BLACK
6
CONTINUOUS
10
7.13713
20
-3.38085
11
7.13519
21
-3.37109
0
LINE
8
BLACK
6
CONTINUOUS
10
7.13519
20
-3.37109
11
7.13138
21
-3.3619
0
LINE
8
BLACK
6
CONTINUOUS
10
7.13138
20
-3.3619
11
7.12585
21
-3.35363
0
LINE
8
BLACK
6
CONTINUOUS
10
7.12585
20
-3.35363
11
7.11881
21
-3.34659
0
LINE
8
BLACK
6
CONTINUOUS
10
7.11881
20
-3.34659
11
7.11054
21
-3.34106
0
LINE
8
BLACK
6
CONTINUOUS
10
7.11054
20
-3.34106
11
7.10135
21
-3.33726
0
LINE
8
BLACK
6
CONTINUOUS
10
7.10135
20
-3.33726
11
7.09159
21
-3.33531
0
LINE
8
BLACK
6
CONTINUOUS
10
7.09159
20
-3.33531
11
7.08164
21
-3.33531
0
LINE
8
BLACK
6
CONTINUOUS
10
7.08164
20
-3.33531
11
7.07188
21
-3.33726
0
LINE
8
BLACK
6
CONTINUOUS
10
7.07188
20
-3.33726
11
7.06269
21
-3.34106
0
LINE
8
BLACK
6
CONTINUOUS
10
7.06269
20
-3.34106
11
7.05441
21
-3.34659
0
LINE
8
BLACK
6
CONTINUOUS
10
7.05441
20
-3.34659
11
7.04738
21
-3.35363
0
LINE
8
BLACK
6
CONTINUOUS
10
7.04738
20
-3.35363
11
7.04185
21
-3.3619
0
LINE
8
BLACK
6
CONTINUOUS
10
7.04185
20
-3.3619
11
7.03804
21
-3.37109
0
LINE
8
BLACK
6
CONTINUOUS
10
7.03804
20
-3.37109
11
7.0361
21
-3.38085
0
LINE
8
BLACK
6
CONTINUOUS
10
7.0361
20
-3.38085
11
7.0361
21
-3.3908
0
LINE
8
BLACK
6
CONTINUOUS
10
7.0361
20
-3.3908
11
7.03804
21
-3.40056
0
LINE
8
BLACK
6
CONTINUOUS
10
5.29559
20
-3.36801
11
5.30019
21
-3.35689
0
LINE
8
BLACK
6
CONTINUOUS
10
5.30019
20
-3.35689
11
5.30688
21
-3.34688
0
LINE
8
BLACK
6
CONTINUOUS
10
5.30688
20
-3.34688
11
5.31539
21
-3.33837
0
LINE
8
BLACK
6
CONTINUOUS
10
5.31539
20
-3.33837
11
5.32539
21
-3.33169
0
LINE
8
BLACK
6
CONTINUOUS
10
5.32539
20
-3.33169
11
5.33651
21
-3.32708
0
LINE
8
BLACK
6
CONTINUOUS
10
5.33651
20
-3.32708
11
5.34831
21
-3.32474
0
LINE
8
BLACK
6
CONTINUOUS
10
5.34831
20
-3.32474
11
5.36035
21
-3.32474
0
LINE
8
BLACK
6
CONTINUOUS
10
5.36035
20
-3.32474
11
5.37215
21
-3.32708
0
LINE
8
BLACK
6
CONTINUOUS
10
5.37215
20
-3.32708
11
5.38327
21
-3.33169
0
LINE
8
BLACK
6
CONTINUOUS
10
5.38327
20
-3.33169
11
5.39327
21
-3.33837
0
LINE
8
BLACK
6
CONTINUOUS
10
5.39327
20
-3.33837
11
5.40178
21
-3.34688
0
LINE
8
BLACK
6
CONTINUOUS
10
5.40178
20
-3.34688
11
5.40847
21
-3.35689
0
LINE
8
BLACK
6
CONTINUOUS
10
5.40847
20
-3.35689
11
5.41307
21
-3.36801
0
LINE
8
BLACK
6
CONTINUOUS
10
5.41307
20
-3.36801
11
5.41542
21
-3.37981
0
LINE
8
BLACK
6
CONTINUOUS
10
5.41542
20
-3.37981
11
5.41542
21
-3.39184
0
LINE
8
BLACK
6
CONTINUOUS
10
5.41542
20
-3.39184
11
5.41307
21
-3.40365
0
LINE
8
BLACK
6
CONTINUOUS
10
5.41307
20
-3.40365
11
5.40847
21
-3.41476
0
LINE
8
BLACK
6
CONTINUOUS
10
5.40847
20
-3.41476
11
5.40178
21
-3.42477
0
LINE
8
BLACK
6
CONTINUOUS
10
5.40178
20
-3.42477
11
5.39327
21
-3.43328
0
LINE
8
BLACK
6
CONTINUOUS
10
5.39327
20
-3.43328
11
5.38327
21
-3.43996
0
LINE
8
BLACK
6
CONTINUOUS
10
5.38327
20
-3.43996
11
5.37215
21
-3.44457
0
LINE
8
BLACK
6
CONTINUOUS
10
5.37215
20
-3.44457
11
5.36035
21
-3.44692
0
LINE
8
BLACK
6
CONTINUOUS
10
5.36035
20
-3.44692
11
5.34831
21
-3.44692
0
LINE
8
BLACK
6
CONTINUOUS
10
5.34831
20
-3.44692
11
5.33651
21
-3.44457
0
LINE
8
BLACK
6
CONTINUOUS
10
5.33651
20
-3.44457
11
5.32539
21
-3.43996
0
LINE
8
BLACK
6
CONTINUOUS
10
5.32539
20
-3.43996
11
5.31539
21
-3.43328
0
LINE
8
BLACK
6
CONTINUOUS
10
5.31539
20
-3.43328
11
5.30688
21
-3.42477
0
LINE
8
BLACK
6
CONTINUOUS
10
5.30688
20
-3.42477
11
5.30019
21
-3.41476
0
LINE
8
BLACK
6
CONTINUOUS
10
5.30019
20
-3.41476
11
5.29559
21
-3.40365
0
LINE
8
BLACK
6
CONTINUOUS
10
5.29559
20
-3.40365
11
5.29324
21
-3.39184
0
LINE
8
BLACK
6
CONTINUOUS
10
5.29324
20
-3.39184
11
5.29324
21
-3.37981
0
LINE
8
BLACK
6
CONTINUOUS
10
5.29324
20
-3.37981
11
5.29559
21
-3.36801
0
LINE
8
BLACK
6
CONTINUOUS
10
5.30576
20
-3.40056
11
5.30957
21
-3.40975
0
LINE
8
BLACK
6
CONTINUOUS
10
5.30957
20
-3.40975
11
5.3151
21
-3.41803
0
LINE
8
BLACK
6
CONTINUOUS
10
5.3151
20
-3.41803
11
5.32213
21
-3.42506
0
LINE
8
BLACK
6
CONTINUOUS
10
5.32213
20
-3.42506
11
5.3304
21
-3.43059
0
LINE
8
BLACK
6
CONTINUOUS
10
5.3304
20
-3.43059
11
5.3396
21
-3.4344
0
LINE
8
BLACK
6
CONTINUOUS
10
5.3396
20
-3.4344
11
5.34936
21
-3.43634
0
LINE
8
BLACK
6
CONTINUOUS
10
5.34936
20
-3.43634
11
5.35931
21
-3.43634
0
LINE
8
BLACK
6
CONTINUOUS
10
5.35931
20
-3.43634
11
5.36906
21
-3.4344
0
LINE
8
BLACK
6
CONTINUOUS
10
5.36906
20
-3.4344
11
5.37826
21
-3.43059
0
LINE
8
BLACK
6
CONTINUOUS
10
5.37826
20
-3.43059
11
5.38653
21
-3.42506
0
LINE
8
BLACK
6
CONTINUOUS
10
5.38653
20
-3.42506
11
5.39357
21
-3.41803
0
LINE
8
BLACK
6
CONTINUOUS
10
5.39357
20
-3.41803
11
5.39909
21
-3.40975
0
LINE
8
BLACK
6
CONTINUOUS
10
5.39909
20
-3.40975
11
5.4029
21
-3.40056
0
LINE
8
BLACK
6
CONTINUOUS
10
5.4029
20
-3.40056
11
5.40484
21
-3.3908
0
LINE
8
BLACK
6
CONTINUOUS
10
5.40484
20
-3.3908
11
5.40484
21
-3.38085
0
LINE
8
BLACK
6
CONTINUOUS
10
5.40484
20
-3.38085
11
5.4029
21
-3.37109
0
LINE
8
BLACK
6
CONTINUOUS
10
5.4029
20
-3.37109
11
5.39909
21
-3.3619
0
LINE
8
BLACK
6
CONTINUOUS
10
5.39909
20
-3.3619
11
5.39357
21
-3.35363
0
LINE
8
BLACK
6
CONTINUOUS
10
5.39357
20
-3.35363
11
5.38653
21
-3.34659
0
LINE
8
BLACK
6
CONTINUOUS
10
5.38653
20
-3.34659
11
5.37826
21
-3.34106
0
LINE
8
BLACK
6
CONTINUOUS
10
5.37826
20
-3.34106
11
5.36906
21
-3.33726
0
LINE
8
BLACK
6
CONTINUOUS
10
5.36906
20
-3.33726
11
5.35931
21
-3.33531
0
LINE
8
BLACK
6
CONTINUOUS
10
5.35931
20
-3.33531
11
5.34936
21
-3.33531
0
LINE
8
BLACK
6
CONTINUOUS
10
5.34936
20
-3.33531
11
5.3396
21
-3.33726
0
LINE
8
BLACK
6
CONTINUOUS
10
5.3396
20
-3.33726
11
5.3304
21
-3.34106
0
LINE
8
BLACK
6
CONTINUOUS
10
5.3304
20
-3.34106
11
5.32213
21
-3.34659
0
LINE
8
BLACK
6
CONTINUOUS
10
5.32213
20
-3.34659
11
5.3151
21
-3.35363
0
LINE
8
BLACK
6
CONTINUOUS
10
5.3151
20
-3.35363
11
5.30957
21
-3.3619
0
LINE
8
BLACK
6
CONTINUOUS
10
5.30957
20
-3.3619
11
5.30576
21
-3.37109
0
LINE
8
BLACK
6
CONTINUOUS
10
5.30576
20
-3.37109
11
5.30382
21
-3.38085
0
LINE
8
BLACK
6
CONTINUOUS
10
5.30382
20
-3.38085
11
5.30382
21
-3.3908
0
LINE
8
BLACK
6
CONTINUOUS
10
5.30382
20
-3.3908
11
5.30576
21
-3.40056
0
LINE
8
BLACK
6
CONTINUOUS
10
7.02787
20
-2.61998
11
7.03248
21
-2.60886
0
LINE
8
BLACK
6
CONTINUOUS
10
7.03248
20
-2.60886
11
7.03916
21
-2.59885
0
LINE
8
BLACK
6
CONTINUOUS
10
7.03916
20
-2.59885
11
7.04767
21
-2.59034
0
LINE
8
BLACK
6
CONTINUOUS
10
7.04767
20
-2.59034
11
7.05768
21
-2.58366
0
LINE
8
BLACK
6
CONTINUOUS
10
7.05768
20
-2.58366
11
7.06879
21
-2.57905
0
LINE
8
BLACK
6
CONTINUOUS
10
7.06879
20
-2.57905
11
7.0806
21
-2.5767
0
LINE
8
BLACK
6
CONTINUOUS
10
7.0806
20
-2.5767
11
7.09263
21
-2.5767
0
LINE
8
BLACK
6
CONTINUOUS
10
7.09263
20
-2.5767
11
7.10443
21
-2.57905
0
LINE
8
BLACK
6
CONTINUOUS
10
7.10443
20
-2.57905
11
7.11555
21
-2.58366
0
LINE
8
BLACK
6
CONTINUOUS
10
7.11555
20
-2.58366
11
7.12556
21
-2.59034
0
LINE
8
BLACK
6
CONTINUOUS
10
7.12556
20
-2.59034
11
7.13407
21
-2.59885
0
LINE
8
BLACK
6
CONTINUOUS
10
7.13407
20
-2.59885
11
7.14075
21
-2.60886
0
LINE
8
BLACK
6
CONTINUOUS
10
7.14075
20
-2.60886
11
7.14536
21
-2.61998
0
LINE
8
BLACK
6
CONTINUOUS
10
7.14536
20
-2.61998
11
7.1477
21
-2.63178
0
LINE
8
BLACK
6
CONTINUOUS
10
7.1477
20
-2.63178
11
7.1477
21
-2.64381
0
LINE
8
BLACK
6
CONTINUOUS
10
7.1477
20
-2.64381
11
7.14536
21
-2.65561
0
LINE
8
BLACK
6
CONTINUOUS
10
7.14536
20
-2.65561
11
7.14075
21
-2.66673
0
LINE
8
BLACK
6
CONTINUOUS
10
7.14075
20
-2.66673
11
7.13407
21
-2.67674
0
LINE
8
BLACK
6
CONTINUOUS
10
7.13407
20
-2.67674
11
7.12556
21
-2.68525
0
LINE
8
BLACK
6
CONTINUOUS
10
7.12556
20
-2.68525
11
7.11555
21
-2.69193
0
LINE
8
BLACK
6
CONTINUOUS
10
7.11555
20
-2.69193
11
7.10443
21
-2.69654
0
LINE
8
BLACK
6
CONTINUOUS
10
7.10443
20
-2.69654
11
7.09263
21
-2.69889
0
LINE
8
BLACK
6
CONTINUOUS
10
7.09263
20
-2.69889
11
7.0806
21
-2.69889
0
LINE
8
BLACK
6
CONTINUOUS
10
7.0806
20
-2.69889
11
7.06879
21
-2.69654
0
LINE
8
BLACK
6
CONTINUOUS
10
7.06879
20
-2.69654
11
7.05768
21
-2.69193
0
LINE
8
BLACK
6
CONTINUOUS
10
7.05768
20
-2.69193
11
7.04767
21
-2.68525
0
LINE
8
BLACK
6
CONTINUOUS
10
7.04767
20
-2.68525
11
7.03916
21
-2.67674
0
LINE
8
BLACK
6
CONTINUOUS
10
7.03916
20
-2.67674
11
7.03248
21
-2.66673
0
LINE
8
BLACK
6
CONTINUOUS
10
7.03248
20
-2.66673
11
7.02787
21
-2.65561
0
LINE
8
BLACK
6
CONTINUOUS
10
7.02787
20
-2.65561
11
7.02552
21
-2.64381
0
LINE
8
BLACK
6
CONTINUOUS
10
7.02552
20
-2.64381
11
7.02552
21
-2.63178
0
LINE
8
BLACK
6
CONTINUOUS
10
7.02552
20
-2.63178
11
7.02787
21
-2.61998
0
LINE
8
BLACK
6
CONTINUOUS
10
7.03804
20
-2.65253
11
7.04185
21
-2.66172
0
LINE
8
BLACK
6
CONTINUOUS
10
7.04185
20
-2.66172
11
7.04738
21
-2.66999
0
LINE
8
BLACK
6
CONTINUOUS
10
7.04738
20
-2.66999
11
7.05441
21
-2.67703
0
LINE
8
BLACK
6
CONTINUOUS
10
7.05441
20
-2.67703
11
7.06269
21
-2.68256
0
LINE
8
BLACK
6
CONTINUOUS
10
7.06269
20
-2.68256
11
7.07188
21
-2.68637
0
LINE
8
BLACK
6
CONTINUOUS
10
7.07188
20
-2.68637
11
7.08164
21
-2.68831
0
LINE
8
BLACK
6
CONTINUOUS
10
7.08164
20
-2.68831
11
7.09159
21
-2.68831
0
LINE
8
BLACK
6
CONTINUOUS
10
7.09159
20
-2.68831
11
7.10135
21
-2.68637
0
LINE
8
BLACK
6
CONTINUOUS
10
7.10135
20
-2.68637
11
7.11054
21
-2.68256
0
LINE
8
BLACK
6
CONTINUOUS
10
7.11054
20
-2.68256
11
7.11881
21
-2.67703
0
LINE
8
BLACK
6
CONTINUOUS
10
7.11881
20
-2.67703
11
7.12585
21
-2.66999
0
LINE
8
BLACK
6
CONTINUOUS
10
7.12585
20
-2.66999
11
7.13138
21
-2.66172
0
LINE
8
BLACK
6
CONTINUOUS
10
7.13138
20
-2.66172
11
7.13519
21
-2.65253
0
LINE
8
BLACK
6
CONTINUOUS
10
7.13519
20
-2.65253
11
7.13713
21
-2.64277
0
LINE
8
BLACK
6
CONTINUOUS
10
7.13713
20
-2.64277
11
7.13713
21
-2.63282
0
LINE
8
BLACK
6
CONTINUOUS
10
7.13713
20
-2.63282
11
7.13519
21
-2.62306
0
LINE
8
BLACK
6
CONTINUOUS
10
7.13519
20
-2.62306
11
7.13138
21
-2.61387
0
LINE
8
BLACK
6
CONTINUOUS
10
7.13138
20
-2.61387
11
7.12585
21
-2.6056
0
LINE
8
BLACK
6
CONTINUOUS
10
7.12585
20
-2.6056
11
7.11881
21
-2.59856
0
LINE
8
BLACK
6
CONTINUOUS
10
7.11881
20
-2.59856
11
7.11054
21
-2.59303
0
LINE
8
BLACK
6
CONTINUOUS
10
7.11054
20
-2.59303
11
7.10135
21
-2.58922
0
LINE
8
BLACK
6
CONTINUOUS
10
7.10135
20
-2.58922
11
7.09159
21
-2.58728
0
LINE
8
BLACK
6
CONTINUOUS
10
7.09159
20
-2.58728
11
7.08164
21
-2.58728
0
LINE
8
BLACK
6
CONTINUOUS
10
7.08164
20
-2.58728
11
7.07188
21
-2.58922
0
LINE
8
BLACK
6
CONTINUOUS
10
7.07188
20
-2.58922
11
7.06269
21
-2.59303
0
LINE
8
BLACK
6
CONTINUOUS
10
7.06269
20
-2.59303
11
7.05441
21
-2.59856
0
LINE
8
BLACK
6
CONTINUOUS
10
7.05441
20
-2.59856
11
7.04738
21
-2.6056
0
LINE
8
BLACK
6
CONTINUOUS
10
7.04738
20
-2.6056
11
7.04185
21
-2.61387
0
LINE
8
BLACK
6
CONTINUOUS
10
7.04185
20
-2.61387
11
7.03804
21
-2.62306
0
LINE
8
BLACK
6
CONTINUOUS
10
7.03804
20
-2.62306
11
7.0361
21
-2.63282
0
LINE
8
BLACK
6
CONTINUOUS
10
7.0361
20
-2.63282
11
7.0361
21
-2.64277
0
LINE
8
BLACK
6
CONTINUOUS
10
7.0361
20
-2.64277
11
7.03804
21
-2.65253
0
LINE
8
BLACK
6
CONTINUOUS
10
5.29559
20
-2.61998
11
5.30019
21
-2.60886
0
LINE
8
BLACK
6
CONTINUOUS
10
5.30019
20
-2.60886
11
5.30688
21
-2.59885
0
LINE
8
BLACK
6
CONTINUOUS
10
5.30688
20
-2.59885
11
5.31539
21
-2.59034
0
LINE
8
BLACK
6
CONTINUOUS
10
5.31539
20
-2.59034
11
5.32539
21
-2.58366
0
LINE
8
BLACK
6
CONTINUOUS
10
5.32539
20
-2.58366
11
5.33651
21
-2.57905
0
LINE
8
BLACK
6
CONTINUOUS
10
5.33651
20
-2.57905
11
5.34831
21
-2.5767
0
LINE
8
BLACK
6
CONTINUOUS
10
5.34831
20
-2.5767
11
5.36035
21
-2.5767
0
LINE
8
BLACK
6
CONTINUOUS
10
5.36035
20
-2.5767
11
5.37215
21
-2.57905
0
LINE
8
BLACK
6
CONTINUOUS
10
5.37215
20
-2.57905
11
5.38327
21
-2.58366
0
LINE
8
BLACK
6
CONTINUOUS
10
5.38327
20
-2.58366
11
5.39327
21
-2.59034
0
LINE
8
BLACK
6
CONTINUOUS
10
5.39327
20
-2.59034
11
5.40178
21
-2.59885
0
LINE
8
BLACK
6
CONTINUOUS
10
5.40178
20
-2.59885
11
5.40847
21
-2.60886
0
LINE
8
BLACK
6
CONTINUOUS
10
5.40847
20
-2.60886
11
5.41307
21
-2.61998
0
LINE
8
BLACK
6
CONTINUOUS
10
5.41307
20
-2.61998
11
5.41542
21
-2.63178
0
LINE
8
BLACK
6
CONTINUOUS
10
5.41542
20
-2.63178
11
5.41542
21
-2.64381
0
LINE
8
BLACK
6
CONTINUOUS
10
5.41542
20
-2.64381
11
5.41307
21
-2.65561
0
LINE
8
BLACK
6
CONTINUOUS
10
5.41307
20
-2.65561
11
5.40847
21
-2.66673
0
LINE
8
BLACK
6
CONTINUOUS
10
5.40847
20
-2.66673
11
5.40178
21
-2.67674
0
LINE
8
BLACK
6
CONTINUOUS
10
5.40178
20
-2.67674
11
5.39327
21
-2.68525
0
LINE
8
BLACK
6
CONTINUOUS
10
5.39327
20
-2.68525
11
5.38327
21
-2.69193
0
LINE
8
BLACK
6
CONTINUOUS
10
5.38327
20
-2.69193
11
5.37215
21
-2.69654
0
LINE
8
BLACK
6
CONTINUOUS
10
5.37215
20
-2.69654
11
5.36035
21
-2.69889
0
LINE
8
BLACK
6
CONTINUOUS
10
5.36035
20
-2.69889
11
5.34831
21
-2.69889
0
LINE
8
BLACK
6
CONTINUOUS
10
5.34831
20
-2.69889
11
5.33651
21
-2.69654
0
LINE
8
BLACK
6
CONTINUOUS
10
5.33651
20
-2.69654
11
5.32539
21
-2.69193
0
LINE
8
BLACK
6
CONTINUOUS
10
5.32539
20
-2.69193
11
5.31539
21
-2.68525
0
LINE
8
BLACK
6
CONTINUOUS
10
5.31539
20
-2.68525
11
5.30688
21
-2.67674
0
LINE
8
BLACK
6
CONTINUOUS
10
5.30688
20
-2.67674
11
5.30019
21
-2.66673
0
LINE
8
BLACK
6
CONTINUOUS
10
5.30019
20
-2.66673
11
5.29559
21
-2.65561
0
LINE
8
BLACK
6
CONTINUOUS
10
5.29559
20
-2.65561
11
5.29324
21
-2.64381
0
LINE
8
BLACK
6
CONTINUOUS
10
5.29324
20
-2.64381
11
5.29324
21
-2.63178
0
LINE
8
BLACK
6
CONTINUOUS
10
5.29324
20
-2.63178
11
5.29559
21
-2.61998
0
LINE
8
BLACK
6
CONTINUOUS
10
5.30576
20
-2.65253
11
5.30957
21
-2.66172
0
LINE
8
BLACK
6
CONTINUOUS
10
5.30957
20
-2.66172
11
5.3151
21
-2.66999
0
LINE
8
BLACK
6
CONTINUOUS
10
5.3151
20
-2.66999
11
5.32213
21
-2.67703
0
LINE
8
BLACK
6
CONTINUOUS
10
5.32213
20
-2.67703
11
5.3304
21
-2.68256
0
LINE
8
BLACK
6
CONTINUOUS
10
5.3304
20
-2.68256
11
5.3396
21
-2.68637
0
LINE
8
BLACK
6
CONTINUOUS
10
5.3396
20
-2.68637
11
5.34936
21
-2.68831
0
LINE
8
BLACK
6
CONTINUOUS
10
5.34936
20
-2.68831
11
5.35931
21
-2.68831
0
LINE
8
BLACK
6
CONTINUOUS
10
5.35931
20
-2.68831
11
5.36906
21
-2.68637
0
LINE
8
BLACK
6
CONTINUOUS
10
5.36906
20
-2.68637
11
5.37826
21
-2.68256
0
LINE
8
BLACK
6
CONTINUOUS
10
5.37826
20
-2.68256
11
5.38653
21
-2.67703
0
LINE
8
BLACK
6
CONTINUOUS
10
5.38653
20
-2.67703
11
5.39357
21
-2.66999
0
LINE
8
BLACK
6
CONTINUOUS
10
5.39357
20
-2.66999
11
5.39909
21
-2.66172
0
LINE
8
BLACK
6
CONTINUOUS
10
5.39909
20
-2.66172
11
5.4029
21
-2.65253
0
LINE
8
BLACK
6
CONTINUOUS
10
5.4029
20
-2.65253
11
5.40484
21
-2.64277
0
LINE
8
BLACK
6
CONTINUOUS
10
5.40484
20
-2.64277
11
5.40484
21
-2.63282
0
LINE
8
BLACK
6
CONTINUOUS
10
5.40484
20
-2.63282
11
5.4029
21
-2.62306
0
LINE
8
BLACK
6
CONTINUOUS
10
5.4029
20
-2.62306
11
5.39909
21
-2.61387
0
LINE
8
BLACK
6
CONTINUOUS
10
5.39909
20
-2.61387
11
5.39357
21
-2.6056
0
LINE
8
BLACK
6
CONTINUOUS
10
5.39357
20
-2.6056
11
5.38653
21
-2.59856
0
LINE
8
BLACK
6
CONTINUOUS
10
5.38653
20
-2.59856
11
5.37826
21
-2.59303
0
LINE
8
BLACK
6
CONTINUOUS
10
5.37826
20
-2.59303
11
5.36906
21
-2.58922
0
LINE
8
BLACK
6
CONTINUOUS
10
5.36906
20
-2.58922
11
5.35931
21
-2.58728
0
LINE
8
BLACK
6
CONTINUOUS
10
5.35931
20
-2.58728
11
5.34936
21
-2.58728
0
LINE
8
BLACK
6
CONTINUOUS
10
5.34936
20
-2.58728
11
5.3396
21
-2.58922
0
LINE
8
BLACK
6
CONTINUOUS
10
5.3396
20
-2.58922
11
5.3304
21
-2.59303
0
LINE
8
BLACK
6
CONTINUOUS
10
5.3304
20
-2.59303
11
5.32213
21
-2.59856
0
LINE
8
BLACK
6
CONTINUOUS
10
5.32213
20
-2.59856
11
5.3151
21
-2.6056
0
LINE
8
BLACK
6
CONTINUOUS
10
5.3151
20
-2.6056
11
5.30957
21
-2.61387
0
LINE
8
BLACK
6
CONTINUOUS
10
5.30957
20
-2.61387
11
5.30576
21
-2.62306
0
LINE
8
BLACK
6
CONTINUOUS
10
5.30576
20
-2.62306
11
5.30382
21
-2.63282
0
LINE
8
BLACK
6
CONTINUOUS
10
5.30382
20
-2.63282
11
5.30382
21
-2.64277
0
LINE
8
BLACK
6
CONTINUOUS
10
5.30382
20
-2.64277
11
5.30576
21
-2.65253
  0
ENDSEC
  0
EOF
