%TF.GenerationSoftware,KiCad,Pcbnew,5.1.8*%
%TF.CreationDate,2020-11-30T00:03:30+01:00*%
%TF.ProjectId,controller,636f6e74-726f-46c6-9c65-722e6b696361,rev?*%
%TF.SameCoordinates,Original*%
%TF.FileFunction,Copper,L2,Bot*%
%TF.FilePolarity,Positive*%
%FSLAX46Y46*%
G04 Gerber Fmt 4.6, Leading zero omitted, Abs format (unit mm)*
G04 Created by KiCad (PCBNEW 5.1.8) date 2020-11-30 00:03:30*
%MOMM*%
%LPD*%
G01*
G04 APERTURE LIST*
%TA.AperFunction,ComponentPad*%
%ADD10C,2.400000*%
%TD*%
%TA.AperFunction,ComponentPad*%
%ADD11R,2.400000X2.400000*%
%TD*%
%TA.AperFunction,ComponentPad*%
%ADD12C,1.600000*%
%TD*%
%TA.AperFunction,ComponentPad*%
%ADD13C,2.000000*%
%TD*%
%TA.AperFunction,ComponentPad*%
%ADD14R,2.000000X2.000000*%
%TD*%
%TA.AperFunction,ComponentPad*%
%ADD15O,1.700000X1.700000*%
%TD*%
%TA.AperFunction,ComponentPad*%
%ADD16R,1.700000X1.700000*%
%TD*%
%TA.AperFunction,ComponentPad*%
%ADD17O,1.600000X1.600000*%
%TD*%
%TA.AperFunction,ComponentPad*%
%ADD18R,1.600000X1.600000*%
%TD*%
%TA.AperFunction,ComponentPad*%
%ADD19R,1.800000X1.800000*%
%TD*%
%TA.AperFunction,ComponentPad*%
%ADD20C,1.800000*%
%TD*%
%TA.AperFunction,ComponentPad*%
%ADD21C,2.600000*%
%TD*%
%TA.AperFunction,ComponentPad*%
%ADD22O,1.800000X1.800000*%
%TD*%
%TA.AperFunction,ViaPad*%
%ADD23C,0.800000*%
%TD*%
%TA.AperFunction,Conductor*%
%ADD24C,0.250000*%
%TD*%
%TA.AperFunction,Conductor*%
%ADD25C,1.500000*%
%TD*%
%TA.AperFunction,Conductor*%
%ADD26C,2.000000*%
%TD*%
%TA.AperFunction,Conductor*%
%ADD27C,2.500000*%
%TD*%
%TA.AperFunction,Conductor*%
%ADD28C,1.000000*%
%TD*%
G04 APERTURE END LIST*
D10*
%TO.P,C5,2*%
%TO.N,Earth*%
X129000000Y-107000000D03*
D11*
%TO.P,C5,1*%
%TO.N,/+12V*%
X134000000Y-107000000D03*
%TD*%
D12*
%TO.P,C4,2*%
%TO.N,Earth*%
X133000000Y-94000000D03*
%TO.P,C4,1*%
%TO.N,/+12V*%
X138000000Y-94000000D03*
%TD*%
%TO.P,C3,2*%
%TO.N,Earth*%
X148000000Y-47000000D03*
%TO.P,C3,1*%
%TO.N,/5V+*%
X148000000Y-52000000D03*
%TD*%
D13*
%TO.P,C1,2*%
%TO.N,Earth*%
X123000000Y-54000000D03*
D14*
%TO.P,C1,1*%
%TO.N,/5V+*%
X128000000Y-54000000D03*
%TD*%
D12*
%TO.P,C2,2*%
%TO.N,Earth*%
X144000000Y-47000000D03*
%TO.P,C2,1*%
%TO.N,/5V+*%
X144000000Y-52000000D03*
%TD*%
D15*
%TO.P,J2,10*%
%TO.N,/+12V*%
X182540000Y-112160000D03*
%TO.P,J2,9*%
X180000000Y-112160000D03*
%TO.P,J2,8*%
X182540000Y-109620000D03*
%TO.P,J2,7*%
%TO.N,/SEG_G*%
X180000000Y-109620000D03*
%TO.P,J2,6*%
%TO.N,/SEG_A*%
X182540000Y-107080000D03*
%TO.P,J2,5*%
%TO.N,/SEG_F*%
X180000000Y-107080000D03*
%TO.P,J2,4*%
%TO.N,/SEG_B*%
X182540000Y-104540000D03*
%TO.P,J2,3*%
%TO.N,/SEG_E*%
X180000000Y-104540000D03*
%TO.P,J2,2*%
%TO.N,/SEG_C*%
X182540000Y-102000000D03*
D16*
%TO.P,J2,1*%
%TO.N,/SEG_D*%
X180000000Y-102000000D03*
%TD*%
D17*
%TO.P,R14,2*%
%TO.N,Net-(R0-Pad1)*%
X165000000Y-37840000D03*
D12*
%TO.P,R14,1*%
%TO.N,Net-(D7-Pad2)*%
X165000000Y-48000000D03*
%TD*%
%TO.P,R15,2*%
%TO.N,Net-(R1-Pad1)*%
%TA.AperFunction,ComponentPad*%
G36*
G01*
X147197275Y-71802725D02*
X147197275Y-71802725D01*
G75*
G02*
X147197275Y-72934095I-565685J-565685D01*
G01*
X147197275Y-72934095D01*
G75*
G02*
X146065905Y-72934095I-565685J565685D01*
G01*
X146065905Y-72934095D01*
G75*
G02*
X146065905Y-71802725I565685J565685D01*
G01*
X146065905Y-71802725D01*
G75*
G02*
X147197275Y-71802725I565685J-565685D01*
G01*
G37*
%TD.AperFunction*%
%TO.P,R15,1*%
%TO.N,Net-(D8-Pad2)*%
X161000000Y-58000000D03*
%TD*%
D18*
%TO.P,U1,1*%
%TO.N,Net-(R8-Pad1)*%
X133000000Y-52000000D03*
D17*
%TO.P,U1,11*%
%TO.N,Net-(U1-Pad11)*%
X140620000Y-74860000D03*
%TO.P,U1,2*%
%TO.N,Net-(U1-Pad2)*%
X133000000Y-54540000D03*
%TO.P,U1,12*%
%TO.N,Net-(U1-Pad12)*%
X140620000Y-72320000D03*
%TO.P,U1,3*%
%TO.N,Net-(U1-Pad3)*%
X133000000Y-57080000D03*
%TO.P,U1,13*%
%TO.N,Net-(R0-Pad1)*%
X140620000Y-69780000D03*
%TO.P,U1,4*%
%TO.N,Net-(U1-Pad4)*%
X133000000Y-59620000D03*
%TO.P,U1,14*%
%TO.N,Net-(R1-Pad1)*%
X140620000Y-67240000D03*
%TO.P,U1,5*%
%TO.N,Net-(U1-Pad5)*%
X133000000Y-62160000D03*
%TO.P,U1,15*%
%TO.N,Net-(R16-Pad2)*%
X140620000Y-64700000D03*
%TO.P,U1,6*%
%TO.N,/BIT_D*%
X133000000Y-64700000D03*
%TO.P,U1,16*%
%TO.N,Net-(R17-Pad2)*%
X140620000Y-62160000D03*
%TO.P,U1,7*%
%TO.N,/BIT_C*%
X133000000Y-67240000D03*
%TO.P,U1,17*%
%TO.N,Net-(R18-Pad2)*%
X140620000Y-59620000D03*
%TO.P,U1,8*%
%TO.N,/BIT_B*%
X133000000Y-69780000D03*
%TO.P,U1,18*%
%TO.N,Net-(R19-Pad2)*%
X140620000Y-57080000D03*
%TO.P,U1,9*%
%TO.N,/BIT_A*%
X133000000Y-72320000D03*
%TO.P,U1,19*%
%TO.N,Net-(R20-Pad2)*%
X140620000Y-54540000D03*
%TO.P,U1,10*%
%TO.N,Earth*%
X133000000Y-74860000D03*
%TO.P,U1,20*%
%TO.N,/5V+*%
X140620000Y-52000000D03*
%TD*%
D19*
%TO.P,D1,1*%
%TO.N,Earth*%
X115460000Y-59000000D03*
D20*
%TO.P,D1,2*%
%TO.N,Net-(D1-Pad2)*%
X118000000Y-59000000D03*
%TD*%
D19*
%TO.P,D2,1*%
%TO.N,Earth*%
X106000000Y-97540000D03*
D20*
%TO.P,D2,2*%
%TO.N,Net-(D2-Pad2)*%
X106000000Y-95000000D03*
%TD*%
D19*
%TO.P,D3,1*%
%TO.N,Earth*%
X113000000Y-97540000D03*
D20*
%TO.P,D3,2*%
%TO.N,Net-(D3-Pad2)*%
X113000000Y-95000000D03*
%TD*%
D19*
%TO.P,D4,1*%
%TO.N,Earth*%
X120000000Y-97540000D03*
D20*
%TO.P,D4,2*%
%TO.N,Net-(D4-Pad2)*%
X120000000Y-95000000D03*
%TD*%
%TO.P,D5,2*%
%TO.N,Net-(D5-Pad2)*%
X127000000Y-95000000D03*
D19*
%TO.P,D5,1*%
%TO.N,Earth*%
X127000000Y-97540000D03*
%TD*%
%TO.P,D6,1*%
%TO.N,Earth*%
X115460000Y-49000000D03*
D20*
%TO.P,D6,2*%
%TO.N,Net-(D6-Pad2)*%
X118000000Y-49000000D03*
%TD*%
%TO.P,D7,2*%
%TO.N,Net-(D7-Pad2)*%
X171000000Y-50540000D03*
D19*
%TO.P,D7,1*%
%TO.N,Earth*%
X171000000Y-48000000D03*
%TD*%
D20*
%TO.P,D8,2*%
%TO.N,Net-(D8-Pad2)*%
X178000000Y-58540000D03*
D19*
%TO.P,D8,1*%
%TO.N,Earth*%
X178000000Y-56000000D03*
%TD*%
D20*
%TO.P,D9,2*%
%TO.N,Net-(D9-Pad2)*%
X178000000Y-43540000D03*
D19*
%TO.P,D9,1*%
%TO.N,Earth*%
X178000000Y-41000000D03*
%TD*%
D20*
%TO.P,D10,2*%
%TO.N,Net-(D10-Pad2)*%
X185000000Y-50540000D03*
D19*
%TO.P,D10,1*%
%TO.N,Earth*%
X185000000Y-48000000D03*
%TD*%
%TO.P,D11,1*%
%TO.N,Earth*%
X192000000Y-56000000D03*
D20*
%TO.P,D11,2*%
%TO.N,Net-(D11-Pad2)*%
X192000000Y-58540000D03*
%TD*%
%TO.P,D12,2*%
%TO.N,Net-(D12-Pad2)*%
X192000000Y-43540000D03*
D19*
%TO.P,D12,1*%
%TO.N,Earth*%
X192000000Y-41000000D03*
%TD*%
%TO.P,D13,1*%
%TO.N,Earth*%
X199000000Y-51000000D03*
D20*
%TO.P,D13,2*%
%TO.N,Net-(D13-Pad2)*%
X199000000Y-48460000D03*
%TD*%
D21*
%TO.P,J0,1*%
%TO.N,/+12V*%
X107020000Y-46380000D03*
%TO.P,J0,2*%
%TO.N,Earth*%
X107020000Y-51460000D03*
%TO.P,J0,3*%
X107020000Y-56540000D03*
%TO.P,J0,4*%
%TO.N,/5V+*%
X107020000Y-61620000D03*
%TD*%
D16*
%TO.P,J3,1*%
%TO.N,/BIT_D*%
X103000000Y-76000000D03*
D15*
%TO.P,J3,2*%
%TO.N,Net-(J3-Pad2)*%
X100460000Y-76000000D03*
%TO.P,J3,3*%
%TO.N,/BIT_C*%
X103000000Y-73460000D03*
%TO.P,J3,4*%
X100460000Y-73460000D03*
%TO.P,J3,5*%
%TO.N,/BIT_B*%
X103000000Y-70920000D03*
%TO.P,J3,6*%
%TO.N,/BIT_A*%
X100460000Y-70920000D03*
%TD*%
D22*
%TO.P,Q0,3*%
%TO.N,Net-(Q0-Pad3)*%
X141000000Y-90080000D03*
%TO.P,Q0,2*%
%TO.N,/SEG_G*%
X141000000Y-87540000D03*
D19*
%TO.P,Q0,1*%
%TO.N,Earth*%
X141000000Y-85000000D03*
%TD*%
%TO.P,Q1,1*%
%TO.N,Earth*%
X151000000Y-84920000D03*
D22*
%TO.P,Q1,2*%
%TO.N,/SEG_F*%
X151000000Y-87460000D03*
%TO.P,Q1,3*%
%TO.N,Net-(Q1-Pad3)*%
X151000000Y-90000000D03*
%TD*%
%TO.P,Q2,3*%
%TO.N,Net-(Q2-Pad3)*%
X161000000Y-90000000D03*
%TO.P,Q2,2*%
%TO.N,/SEG_E*%
X161000000Y-87460000D03*
D19*
%TO.P,Q2,1*%
%TO.N,Earth*%
X161000000Y-84920000D03*
%TD*%
%TO.P,Q3,1*%
%TO.N,Earth*%
X171000000Y-84920000D03*
D22*
%TO.P,Q3,2*%
%TO.N,/SEG_D*%
X171000000Y-87460000D03*
%TO.P,Q3,3*%
%TO.N,Net-(Q3-Pad3)*%
X171000000Y-90000000D03*
%TD*%
D19*
%TO.P,Q4,1*%
%TO.N,Earth*%
X181000000Y-84920000D03*
D22*
%TO.P,Q4,2*%
%TO.N,/SEG_C*%
X181000000Y-87460000D03*
%TO.P,Q4,3*%
%TO.N,Net-(Q4-Pad3)*%
X181000000Y-90000000D03*
%TD*%
%TO.P,Q5,3*%
%TO.N,Net-(Q5-Pad3)*%
X192000000Y-90080000D03*
%TO.P,Q5,2*%
%TO.N,/SEG_B*%
X192000000Y-87540000D03*
D19*
%TO.P,Q5,1*%
%TO.N,Earth*%
X192000000Y-85000000D03*
%TD*%
%TO.P,Q6,1*%
%TO.N,Earth*%
X203000000Y-85000000D03*
D22*
%TO.P,Q6,2*%
%TO.N,/SEG_A*%
X203000000Y-87540000D03*
%TO.P,Q6,3*%
%TO.N,Net-(Q6-Pad3)*%
X203000000Y-90080000D03*
%TD*%
D12*
%TO.P,R0,1*%
%TO.N,Net-(R0-Pad1)*%
X137000000Y-80000000D03*
D17*
%TO.P,R0,2*%
%TO.N,Net-(Q0-Pad3)*%
X137000000Y-90160000D03*
%TD*%
%TO.P,R1,2*%
%TO.N,Net-(Q1-Pad3)*%
X147000000Y-90000000D03*
D12*
%TO.P,R1,1*%
%TO.N,Net-(R1-Pad1)*%
X147000000Y-79840000D03*
%TD*%
D17*
%TO.P,R2,2*%
%TO.N,Net-(Q2-Pad3)*%
X157000000Y-90160000D03*
D12*
%TO.P,R2,1*%
%TO.N,Net-(R16-Pad2)*%
X157000000Y-80000000D03*
%TD*%
%TO.P,R3,1*%
%TO.N,Net-(R17-Pad2)*%
X167000000Y-80000000D03*
D17*
%TO.P,R3,2*%
%TO.N,Net-(Q3-Pad3)*%
X167000000Y-90160000D03*
%TD*%
%TO.P,R4,2*%
%TO.N,Net-(Q4-Pad3)*%
X177000000Y-90000000D03*
D12*
%TO.P,R4,1*%
%TO.N,Net-(R18-Pad2)*%
X177000000Y-79840000D03*
%TD*%
%TO.P,R5,1*%
%TO.N,Net-(R19-Pad2)*%
X187000000Y-79840000D03*
D17*
%TO.P,R5,2*%
%TO.N,Net-(Q5-Pad3)*%
X187000000Y-90000000D03*
%TD*%
D12*
%TO.P,R6,1*%
%TO.N,Net-(R20-Pad2)*%
X198000000Y-79840000D03*
D17*
%TO.P,R6,2*%
%TO.N,Net-(Q6-Pad3)*%
X198000000Y-90000000D03*
%TD*%
D12*
%TO.P,R7,1*%
%TO.N,/5V+*%
X110840000Y-65000000D03*
D17*
%TO.P,R7,2*%
%TO.N,Net-(D1-Pad2)*%
X121000000Y-65000000D03*
%TD*%
%TO.P,R8,2*%
%TO.N,/5V+*%
X125840000Y-46000000D03*
D12*
%TO.P,R8,1*%
%TO.N,Net-(R8-Pad1)*%
X136000000Y-46000000D03*
%TD*%
%TO.P,R9,1*%
%TO.N,Net-(D2-Pad2)*%
X108000000Y-86160000D03*
D17*
%TO.P,R9,2*%
%TO.N,/BIT_D*%
X108000000Y-76000000D03*
%TD*%
%TO.P,R10,2*%
%TO.N,/BIT_C*%
X113000000Y-76000000D03*
D12*
%TO.P,R10,1*%
%TO.N,Net-(D3-Pad2)*%
X113000000Y-86160000D03*
%TD*%
D17*
%TO.P,R11,2*%
%TO.N,/BIT_B*%
X104840000Y-90000000D03*
D12*
%TO.P,R11,1*%
%TO.N,Net-(D4-Pad2)*%
X115000000Y-90000000D03*
%TD*%
%TO.P,R12,1*%
%TO.N,Net-(D5-Pad2)*%
X128000000Y-81000000D03*
D17*
%TO.P,R12,2*%
%TO.N,/BIT_A*%
X117840000Y-81000000D03*
%TD*%
D12*
%TO.P,R13,1*%
%TO.N,Net-(D6-Pad2)*%
X120160000Y-40000000D03*
D17*
%TO.P,R13,2*%
%TO.N,/+12V*%
X110000000Y-40000000D03*
%TD*%
%TO.P,R18,2*%
%TO.N,Net-(R18-Pad2)*%
X172000000Y-77000000D03*
D12*
%TO.P,R18,1*%
%TO.N,Net-(D11-Pad2)*%
X172000000Y-66840000D03*
%TD*%
%TO.P,R19,1*%
%TO.N,Net-(D12-Pad2)*%
X183000000Y-69840000D03*
D17*
%TO.P,R19,2*%
%TO.N,Net-(R19-Pad2)*%
X183000000Y-80000000D03*
%TD*%
%TO.P,R20,2*%
%TO.N,Net-(R20-Pad2)*%
X205000000Y-58160000D03*
D12*
%TO.P,R20,1*%
%TO.N,Net-(D13-Pad2)*%
X205000000Y-48000000D03*
%TD*%
%TO.P,R16,1*%
%TO.N,Net-(D9-Pad2)*%
X155000000Y-54000000D03*
%TO.P,R16,2*%
%TO.N,Net-(R16-Pad2)*%
%TA.AperFunction,ComponentPad*%
G36*
G01*
X144789378Y-64210622D02*
X144789378Y-64210622D01*
G75*
G02*
X144789378Y-65341992I-565685J-565685D01*
G01*
X144789378Y-65341992D01*
G75*
G02*
X143658008Y-65341992I-565685J565685D01*
G01*
X143658008Y-65341992D01*
G75*
G02*
X143658008Y-64210622I565685J565685D01*
G01*
X143658008Y-64210622D01*
G75*
G02*
X144789378Y-64210622I565685J-565685D01*
G01*
G37*
%TD.AperFunction*%
%TD*%
%TO.P,R17,2*%
%TO.N,Net-(R17-Pad2)*%
%TA.AperFunction,ComponentPad*%
G36*
G01*
X157789378Y-73210622D02*
X157789378Y-73210622D01*
G75*
G02*
X157789378Y-74341992I-565685J-565685D01*
G01*
X157789378Y-74341992D01*
G75*
G02*
X156658008Y-74341992I-565685J565685D01*
G01*
X156658008Y-74341992D01*
G75*
G02*
X156658008Y-73210622I565685J565685D01*
G01*
X156658008Y-73210622D01*
G75*
G02*
X157789378Y-73210622I565685J-565685D01*
G01*
G37*
%TD.AperFunction*%
%TO.P,R17,1*%
%TO.N,Net-(D10-Pad2)*%
X168000000Y-63000000D03*
%TD*%
D23*
%TO.N,*%
X89000000Y-40000000D03*
X89000000Y-111000000D03*
X206000000Y-40000000D03*
X206000000Y-111000000D03*
%TO.N,/BIT_B*%
X130220000Y-69780000D03*
X130000000Y-75000000D03*
%TD*%
D24*
%TO.N,*%
X202000000Y-103000000D02*
X202000000Y-105000000D01*
X203000000Y-104000000D02*
X201000000Y-104000000D01*
D25*
%TO.N,Earth*%
X113000000Y-51460000D02*
X115460000Y-49000000D01*
D26*
X120000000Y-97540000D02*
X113000000Y-97540000D01*
X113000000Y-97540000D02*
X106000000Y-97540000D01*
X103100000Y-97540000D02*
X91000000Y-85440000D01*
X106000000Y-97540000D02*
X103100000Y-97540000D01*
X91000000Y-85440000D02*
X91000000Y-57000000D01*
X94020000Y-53980000D02*
X107020000Y-53980000D01*
X91000000Y-57000000D02*
X94020000Y-53980000D01*
D27*
X107020000Y-53980000D02*
X107020000Y-56540000D01*
X107020000Y-51460000D02*
X107020000Y-53980000D01*
D26*
X129900000Y-97540000D02*
X133000000Y-94440000D01*
X127000000Y-97540000D02*
X129900000Y-97540000D01*
D25*
X133000000Y-74860000D02*
X133000000Y-78000000D01*
D26*
X133000000Y-94440000D02*
X133000000Y-88000000D01*
X133000000Y-85000000D02*
X133000000Y-78000000D01*
X133000000Y-88000000D02*
X133000000Y-85000000D01*
D25*
X133000000Y-74860000D02*
X133860000Y-74860000D01*
D26*
X115460000Y-49000000D02*
X114000000Y-49000000D01*
X114000000Y-49000000D02*
X112000000Y-51000000D01*
X108460000Y-51460000D02*
X108460000Y-55460000D01*
D25*
X107020000Y-51460000D02*
X108460000Y-51460000D01*
D26*
X108460000Y-55460000D02*
X108920000Y-55000000D01*
X108920000Y-55000000D02*
X112000000Y-55000000D01*
X112000000Y-55000000D02*
X112000000Y-53000000D01*
X112000000Y-53000000D02*
X110000000Y-53000000D01*
X108920000Y-54080000D02*
X111540000Y-51460000D01*
X108920000Y-55000000D02*
X108920000Y-54080000D01*
D25*
X111540000Y-51460000D02*
X113000000Y-51460000D01*
X108460000Y-51460000D02*
X111540000Y-51460000D01*
D26*
X107020000Y-51460000D02*
X111540000Y-51460000D01*
X115460000Y-59000000D02*
X113000000Y-56540000D01*
X114000000Y-59000000D02*
X111540000Y-56540000D01*
X115460000Y-59000000D02*
X114000000Y-59000000D01*
X111540000Y-56540000D02*
X113000000Y-56540000D01*
X107020000Y-56540000D02*
X111540000Y-56540000D01*
X141000000Y-85000000D02*
X139000000Y-85000000D01*
D25*
X139000000Y-85000000D02*
X133000000Y-85000000D01*
D26*
X141000000Y-85000000D02*
X143000000Y-85000000D01*
X150080000Y-84920000D02*
X150000000Y-85000000D01*
X151000000Y-84920000D02*
X150080000Y-84920000D01*
D25*
X143000000Y-85000000D02*
X150000000Y-85000000D01*
D26*
X151000000Y-84920000D02*
X152080000Y-84920000D01*
X161000000Y-84920000D02*
X159920000Y-84920000D01*
D25*
X152080000Y-84920000D02*
X159920000Y-84920000D01*
D26*
X161000000Y-84920000D02*
X162080000Y-84920000D01*
X171000000Y-84920000D02*
X169920000Y-84920000D01*
D25*
X162080000Y-84920000D02*
X169920000Y-84920000D01*
D26*
X171000000Y-84920000D02*
X172080000Y-84920000D01*
X181000000Y-84920000D02*
X180080000Y-84920000D01*
D25*
X180080000Y-84920000D02*
X172080000Y-84920000D01*
D26*
X181000000Y-84920000D02*
X182080000Y-84920000D01*
X191160000Y-85000000D02*
X191080000Y-84920000D01*
X192000000Y-85000000D02*
X191160000Y-85000000D01*
D25*
X182080000Y-84920000D02*
X191080000Y-84920000D01*
D26*
X192000000Y-85000000D02*
X193000000Y-85000000D01*
X203000000Y-85000000D02*
X202000000Y-85000000D01*
D25*
X193000000Y-85000000D02*
X202000000Y-85000000D01*
D26*
X203000000Y-85000000D02*
X204000000Y-85000000D01*
X113000000Y-54000000D02*
X113000000Y-51460000D01*
X113000000Y-56540000D02*
X113000000Y-54000000D01*
D25*
X171000000Y-48000000D02*
X178000000Y-48000000D01*
X185000000Y-41000000D02*
X192000000Y-41000000D01*
X178000000Y-41000000D02*
X185000000Y-41000000D01*
X181500000Y-44500000D02*
X185000000Y-48000000D01*
X178000000Y-48000000D02*
X181500000Y-44500000D01*
X181500000Y-44500000D02*
X185000000Y-41000000D01*
X178000000Y-56000000D02*
X184000000Y-56000000D01*
X184000000Y-56000000D02*
X188000000Y-52000000D01*
X187400000Y-48000000D02*
X185000000Y-48000000D01*
X188000000Y-48600000D02*
X187400000Y-48000000D01*
X188000000Y-52000000D02*
X188000000Y-48600000D01*
X195000000Y-53000000D02*
X195000000Y-41000000D01*
X192000000Y-56000000D02*
X195000000Y-53000000D01*
X192000000Y-41000000D02*
X195000000Y-41000000D01*
X197000000Y-51000000D02*
X195000000Y-53000000D01*
X199000000Y-51000000D02*
X197000000Y-51000000D01*
D27*
X123000000Y-54000000D02*
X113000000Y-54000000D01*
D26*
X126000000Y-40000000D02*
X139000000Y-40000000D01*
X123000000Y-43000000D02*
X126000000Y-40000000D01*
X123000000Y-54000000D02*
X123000000Y-43000000D01*
X144000000Y-47000000D02*
X144000000Y-45000000D01*
D27*
X148000000Y-47000000D02*
X144000000Y-47000000D01*
D26*
X139000000Y-40000000D02*
X140000000Y-41000000D01*
X148000000Y-47000000D02*
X148000000Y-41000000D01*
D25*
X148000000Y-41000000D02*
X178000000Y-41000000D01*
D26*
X148000000Y-41000000D02*
X163000000Y-41000000D01*
X144000000Y-45000000D02*
X144000000Y-41000000D01*
X144000000Y-41000000D02*
X140000000Y-41000000D01*
X148000000Y-41000000D02*
X144000000Y-41000000D01*
X129000000Y-107000000D02*
X125000000Y-103000000D01*
X125000000Y-99080000D02*
X123460000Y-97540000D01*
X125000000Y-103000000D02*
X125000000Y-99080000D01*
X123460000Y-97540000D02*
X120000000Y-97540000D01*
X127000000Y-97540000D02*
X123460000Y-97540000D01*
X133000000Y-85000000D02*
X204000000Y-85000000D01*
D25*
%TO.N,Net-(D1-Pad2)*%
X120000000Y-59000000D02*
X121000000Y-60000000D01*
D26*
X121000000Y-65000000D02*
X120000000Y-65000000D01*
D25*
X121000000Y-60000000D02*
X121000000Y-65000000D01*
D26*
X118000000Y-59000000D02*
X119000000Y-59000000D01*
D25*
X119000000Y-59000000D02*
X120000000Y-59000000D01*
D26*
X118000000Y-59000000D02*
X118000000Y-58000000D01*
X118000000Y-58000000D02*
X118000000Y-60000000D01*
D25*
%TO.N,Net-(D2-Pad2)*%
X108000000Y-86160000D02*
X108000000Y-93000000D01*
D26*
X108000000Y-86160000D02*
X107160000Y-86160000D01*
X108000000Y-86160000D02*
X108840000Y-86160000D01*
X106000000Y-95000000D02*
X108000000Y-93000000D01*
X106000000Y-95000000D02*
X105000000Y-95000000D01*
X105000000Y-95000000D02*
X107000000Y-95000000D01*
D25*
%TO.N,Net-(D3-Pad2)*%
X112000000Y-87160000D02*
X112000000Y-94000000D01*
D26*
X113000000Y-86160000D02*
X113840000Y-86160000D01*
X113000000Y-86160000D02*
X112160000Y-86160000D01*
X112000000Y-86320000D02*
X112000000Y-87160000D01*
X112160000Y-86160000D02*
X112000000Y-86320000D01*
X113000000Y-95000000D02*
X112000000Y-94000000D01*
X113000000Y-95000000D02*
X112000000Y-95000000D01*
X112000000Y-95000000D02*
X114000000Y-95000000D01*
D25*
%TO.N,Net-(D4-Pad2)*%
X115000000Y-90000000D02*
X117000000Y-90000000D01*
X117000000Y-90000000D02*
X120000000Y-93000000D01*
D26*
X115000000Y-90000000D02*
X115000000Y-89000000D01*
X115000000Y-90000000D02*
X115000000Y-91000000D01*
X120000000Y-95000000D02*
X120000000Y-93000000D01*
X120000000Y-95000000D02*
X119000000Y-95000000D01*
X119000000Y-95000000D02*
X121000000Y-95000000D01*
%TO.N,Net-(D5-Pad2)*%
X127000000Y-82000000D02*
X128000000Y-81000000D01*
X127000000Y-95000000D02*
X127000000Y-82000000D01*
X128000000Y-81000000D02*
X128000000Y-83000000D01*
X128000000Y-81000000D02*
X128000000Y-80000000D01*
X129000000Y-81000000D02*
X128000000Y-80000000D01*
X128000000Y-80000000D02*
X127000000Y-81000000D01*
X127000000Y-81000000D02*
X127000000Y-82000000D01*
X129000000Y-82000000D02*
X128000000Y-83000000D01*
X129000000Y-81000000D02*
X129000000Y-82000000D01*
X127000000Y-95000000D02*
X126000000Y-95000000D01*
X126000000Y-95000000D02*
X128000000Y-95000000D01*
D25*
%TO.N,Net-(D6-Pad2)*%
X120160000Y-40000000D02*
X120160000Y-43840000D01*
X118000000Y-46000000D02*
X118000000Y-49000000D01*
X120160000Y-43840000D02*
X118000000Y-46000000D01*
D26*
X120160000Y-40000000D02*
X119000000Y-40000000D01*
X119000000Y-40000000D02*
X119000000Y-39000000D01*
X119000000Y-39000000D02*
X121000000Y-39000000D01*
X121000000Y-39000000D02*
X121000000Y-40000000D01*
X118000000Y-49000000D02*
X119000000Y-49000000D01*
X119000000Y-49000000D02*
X119000000Y-46000000D01*
D25*
%TO.N,Net-(D7-Pad2)*%
X165540000Y-50540000D02*
X171000000Y-50540000D01*
X165000000Y-50000000D02*
X165540000Y-50540000D01*
D26*
X165000000Y-48000000D02*
X165000000Y-50000000D01*
D27*
%TO.N,/5V+*%
X107460000Y-61620000D02*
X110840000Y-65000000D01*
X107020000Y-61620000D02*
X107460000Y-61620000D01*
D25*
X110840000Y-65000000D02*
X110840000Y-66840000D01*
X110840000Y-66840000D02*
X112000000Y-68000000D01*
X112000000Y-68000000D02*
X122000000Y-68000000D01*
X122000000Y-68000000D02*
X124000000Y-66000000D01*
X140620000Y-52000000D02*
X140000000Y-52000000D01*
X124000000Y-66000000D02*
X124000000Y-65000000D01*
X124000000Y-65000000D02*
X128000000Y-61000000D01*
X139000000Y-52000000D02*
X140620000Y-52000000D01*
X139000000Y-44000000D02*
X139000000Y-52000000D01*
D26*
X128000000Y-54000000D02*
X128000000Y-61000000D01*
X128000000Y-48160000D02*
X125840000Y-46000000D01*
X128000000Y-54000000D02*
X128000000Y-48160000D01*
X125840000Y-46000000D02*
X131000000Y-46000000D01*
D25*
X138000000Y-43000000D02*
X139000000Y-44000000D01*
X134000000Y-43000000D02*
X138000000Y-43000000D01*
X131000000Y-46000000D02*
X134000000Y-43000000D01*
X148000000Y-52000000D02*
X143000000Y-52000000D01*
X143000000Y-52000000D02*
X144000000Y-52000000D01*
X140620000Y-52000000D02*
X143000000Y-52000000D01*
%TO.N,Net-(D8-Pad2)*%
X174000000Y-58000000D02*
X174540000Y-58540000D01*
X162000000Y-58000000D02*
X174000000Y-58000000D01*
D26*
X162000000Y-58000000D02*
X161000000Y-58000000D01*
X178000000Y-58540000D02*
X174540000Y-58540000D01*
D25*
%TO.N,Net-(D9-Pad2)*%
X165460000Y-43540000D02*
X178000000Y-43540000D01*
D26*
X155000000Y-54000000D02*
X156000000Y-53000000D01*
D25*
X156000000Y-53000000D02*
X165460000Y-43540000D01*
%TO.N,Net-(D10-Pad2)*%
X162000000Y-63000000D02*
X161000000Y-62000000D01*
D28*
X161000000Y-62000000D02*
X157000000Y-58000000D01*
D25*
X157000000Y-58000000D02*
X156000000Y-57000000D01*
X156000000Y-57000000D02*
X159000000Y-54000000D01*
X159000000Y-54000000D02*
X174000000Y-54000000D01*
X177460000Y-50540000D02*
X185000000Y-50540000D01*
X174000000Y-54000000D02*
X177460000Y-50540000D01*
D26*
X169000000Y-63000000D02*
X168000000Y-63000000D01*
X168000000Y-63000000D02*
X167000000Y-63000000D01*
D25*
X167000000Y-63000000D02*
X162000000Y-63000000D01*
%TO.N,Net-(D11-Pad2)*%
X176840000Y-66840000D02*
X180000000Y-70000000D01*
X192000000Y-65000000D02*
X184000000Y-73000000D01*
D28*
X180000000Y-70000000D02*
X183000000Y-73000000D01*
X183000000Y-73000000D02*
X184000000Y-73000000D01*
D26*
X172000000Y-66840000D02*
X171160000Y-66840000D01*
X171160000Y-66840000D02*
X173160000Y-66840000D01*
D25*
X173160000Y-66840000D02*
X176840000Y-66840000D01*
D26*
X192000000Y-58540000D02*
X192000000Y-60000000D01*
D25*
X192000000Y-60000000D02*
X192000000Y-65000000D01*
%TO.N,Net-(D12-Pad2)*%
X186000000Y-66840000D02*
X186000000Y-58000000D01*
X192000000Y-43540000D02*
X192000000Y-51000000D01*
D28*
X186000000Y-57000000D02*
X192000000Y-51000000D01*
X186000000Y-58000000D02*
X186000000Y-57000000D01*
D26*
X183000000Y-69840000D02*
X183920000Y-68920000D01*
D25*
X183920000Y-68920000D02*
X186000000Y-66840000D01*
D26*
%TO.N,Net-(D13-Pad2)*%
X199460000Y-48000000D02*
X199000000Y-48460000D01*
X205000000Y-48000000D02*
X199460000Y-48000000D01*
D27*
%TO.N,/+12V*%
X110000000Y-43400000D02*
X110000000Y-40000000D01*
X107020000Y-46380000D02*
X110000000Y-43400000D01*
D26*
X182540000Y-109620000D02*
X182540000Y-112460000D01*
D27*
X87000000Y-50000000D02*
X87000000Y-88000000D01*
X97000000Y-40000000D02*
X87000000Y-50000000D01*
X106600000Y-40000000D02*
X97000000Y-40000000D01*
X87000000Y-88000000D02*
X112000000Y-113000000D01*
D26*
X180000000Y-112160000D02*
X179840000Y-112160000D01*
X179840000Y-112160000D02*
X179000000Y-113000000D01*
D27*
X179000000Y-113000000D02*
X182000000Y-113000000D01*
D26*
X182540000Y-112460000D02*
X182000000Y-113000000D01*
X182540000Y-112160000D02*
X182540000Y-112460000D01*
X182540000Y-109620000D02*
X182540000Y-112160000D01*
X110000000Y-40000000D02*
X106600000Y-40000000D01*
X110000000Y-40000000D02*
X112000000Y-40000000D01*
X112000000Y-40000000D02*
X112000000Y-43000000D01*
X109600000Y-43000000D02*
X108300000Y-41700000D01*
X112000000Y-43000000D02*
X109600000Y-43000000D01*
D27*
X108300000Y-41700000D02*
X106600000Y-40000000D01*
X110000000Y-43400000D02*
X108300000Y-41700000D01*
D26*
X107020000Y-46380000D02*
X106620000Y-46380000D01*
X106620000Y-46380000D02*
X107240000Y-47000000D01*
X108000000Y-47000000D02*
X112000000Y-43000000D01*
X107240000Y-47000000D02*
X108000000Y-47000000D01*
X182540000Y-112160000D02*
X180000000Y-112160000D01*
X184000000Y-113000000D02*
X182000000Y-113000000D01*
X184000000Y-110000000D02*
X184000000Y-113000000D01*
X183620000Y-109620000D02*
X184000000Y-110000000D01*
X182540000Y-109620000D02*
X183620000Y-109620000D01*
X138000000Y-103000000D02*
X128000000Y-113000000D01*
X138000000Y-94000000D02*
X138000000Y-103000000D01*
D27*
X128000000Y-113000000D02*
X179000000Y-113000000D01*
X112000000Y-113000000D02*
X128000000Y-113000000D01*
D25*
%TO.N,/SEG_G*%
X144000000Y-106000000D02*
X147620000Y-109620000D01*
X144000000Y-88000000D02*
X144000000Y-106000000D01*
X143540000Y-87540000D02*
X144000000Y-88000000D01*
D26*
X141000000Y-87540000D02*
X143540000Y-87540000D01*
X180000000Y-109620000D02*
X178620000Y-109620000D01*
D25*
X147620000Y-109620000D02*
X178620000Y-109620000D01*
%TO.N,/SEG_F*%
X153460000Y-87460000D02*
X154000000Y-88000000D01*
X154000000Y-88000000D02*
X154000000Y-105000000D01*
X154000000Y-105000000D02*
X156080000Y-107080000D01*
D26*
X151000000Y-87460000D02*
X153460000Y-87460000D01*
X180000000Y-107080000D02*
X178080000Y-107080000D01*
D25*
X156080000Y-107080000D02*
X178080000Y-107080000D01*
%TO.N,/SEG_E*%
X164000000Y-88000000D02*
X164000000Y-102000000D01*
X164000000Y-102000000D02*
X166540000Y-104540000D01*
X163460000Y-87460000D02*
X164000000Y-88000000D01*
D26*
X161000000Y-87460000D02*
X163460000Y-87460000D01*
X180000000Y-104540000D02*
X177540000Y-104540000D01*
D25*
X166540000Y-104540000D02*
X177540000Y-104540000D01*
%TO.N,/SEG_D*%
X174000000Y-88000000D02*
X174000000Y-100000000D01*
X174000000Y-100000000D02*
X176000000Y-102000000D01*
X173460000Y-87460000D02*
X174000000Y-88000000D01*
D26*
X171000000Y-87460000D02*
X173460000Y-87460000D01*
X180000000Y-102000000D02*
X177000000Y-102000000D01*
D25*
X176000000Y-102000000D02*
X177000000Y-102000000D01*
%TO.N,/SEG_C*%
X183460000Y-87460000D02*
X184000000Y-88000000D01*
X184000000Y-88000000D02*
X184000000Y-100540000D01*
D26*
X181000000Y-87460000D02*
X183460000Y-87460000D01*
X182540000Y-102000000D02*
X183270000Y-101270000D01*
D25*
X184000000Y-100540000D02*
X183270000Y-101270000D01*
%TO.N,/SEG_B*%
X195000000Y-93282081D02*
X183742081Y-104540000D01*
X195000000Y-88000000D02*
X195000000Y-93282081D01*
X194540000Y-87540000D02*
X195000000Y-88000000D01*
D26*
X192000000Y-87540000D02*
X194540000Y-87540000D01*
X182540000Y-104540000D02*
X183742081Y-104540000D01*
D25*
%TO.N,/SEG_A*%
X205540000Y-87540000D02*
X206000000Y-88000000D01*
X206000000Y-88000000D02*
X206000000Y-92000000D01*
X206000000Y-92000000D02*
X202000000Y-96000000D01*
X202000000Y-96000000D02*
X198000000Y-96000000D01*
X198000000Y-96000000D02*
X186920000Y-107080000D01*
D26*
X203000000Y-87540000D02*
X205540000Y-87540000D01*
X182540000Y-107080000D02*
X184080000Y-107080000D01*
D25*
X186920000Y-107080000D02*
X184080000Y-107080000D01*
D26*
%TO.N,Net-(Q0-Pad3)*%
X137080000Y-90080000D02*
X137000000Y-90160000D01*
X141000000Y-90080000D02*
X137080000Y-90080000D01*
%TO.N,Net-(Q1-Pad3)*%
X147000000Y-90000000D02*
X151000000Y-90000000D01*
%TO.N,Net-(Q2-Pad3)*%
X157160000Y-90000000D02*
X157000000Y-90160000D01*
X161000000Y-90000000D02*
X157160000Y-90000000D01*
%TO.N,Net-(Q3-Pad3)*%
X170840000Y-90160000D02*
X171000000Y-90000000D01*
X167000000Y-90160000D02*
X170840000Y-90160000D01*
%TO.N,Net-(Q4-Pad3)*%
X177000000Y-90000000D02*
X181000000Y-90000000D01*
%TO.N,Net-(Q5-Pad3)*%
X191920000Y-90000000D02*
X192000000Y-90080000D01*
X187000000Y-90000000D02*
X191920000Y-90000000D01*
%TO.N,Net-(Q6-Pad3)*%
X202920000Y-90000000D02*
X203000000Y-90080000D01*
X198000000Y-90000000D02*
X202920000Y-90000000D01*
D25*
%TO.N,Net-(R0-Pad1)*%
X140620000Y-69780000D02*
X137220000Y-69780000D01*
X137220000Y-69780000D02*
X137000000Y-70000000D01*
X137000000Y-70000000D02*
X137000000Y-77000000D01*
D28*
X137000000Y-77000000D02*
X138000000Y-77000000D01*
X143000000Y-82000000D02*
X201000000Y-82000000D01*
D25*
X201000000Y-82000000D02*
X200000000Y-82000000D01*
X196840000Y-37840000D02*
X198000000Y-39000000D01*
X198000000Y-39000000D02*
X198000000Y-44000000D01*
X198000000Y-44000000D02*
X199000000Y-45000000D01*
X199000000Y-45000000D02*
X207000000Y-45000000D01*
X207000000Y-45000000D02*
X208000000Y-46000000D01*
X208000000Y-46000000D02*
X208000000Y-60000000D01*
X201000000Y-67000000D02*
X201000000Y-82000000D01*
X208000000Y-60000000D02*
X201000000Y-67000000D01*
D28*
X138000000Y-77000000D02*
X143000000Y-82000000D01*
D26*
X137000000Y-81000000D02*
X137000000Y-80000000D01*
X141000000Y-81000000D02*
X137000000Y-81000000D01*
X138000000Y-78000000D02*
X141000000Y-81000000D01*
X138000000Y-80000000D02*
X138000000Y-78000000D01*
X137000000Y-80000000D02*
X138000000Y-80000000D01*
X137000000Y-80000000D02*
X136000000Y-80000000D01*
X136000000Y-79000000D02*
X137000000Y-78000000D01*
X136000000Y-80000000D02*
X136000000Y-79000000D01*
D25*
X137000000Y-77000000D02*
X137000000Y-78000000D01*
D26*
X136000000Y-80000000D02*
X137000000Y-81000000D01*
X164160000Y-37840000D02*
X165000000Y-37840000D01*
X165000000Y-37840000D02*
X167160000Y-37840000D01*
D25*
X167160000Y-37840000D02*
X196840000Y-37840000D01*
%TO.N,Net-(R1-Pad1)*%
X140620000Y-67240000D02*
X142240000Y-67240000D01*
X147000000Y-72000000D02*
X147000000Y-79840000D01*
X142240000Y-67240000D02*
X147000000Y-72000000D01*
X140620000Y-67240000D02*
X139240000Y-67240000D01*
D26*
X147000000Y-79840000D02*
X146160000Y-79840000D01*
X147000000Y-79840000D02*
X147840000Y-79840000D01*
X146631590Y-72368410D02*
X146368410Y-72368410D01*
D25*
%TO.N,Net-(R16-Pad2)*%
X140620000Y-64700000D02*
X143700000Y-64700000D01*
X157000000Y-78000000D02*
X157000000Y-80000000D01*
X143700000Y-64700000D02*
X157000000Y-78000000D01*
X140620000Y-64700000D02*
X139300000Y-64700000D01*
D26*
X157000000Y-80000000D02*
X156000000Y-80000000D01*
X156000000Y-80000000D02*
X158000000Y-80000000D01*
D25*
%TO.N,Net-(R17-Pad2)*%
X140620000Y-62160000D02*
X145160000Y-62160000D01*
X145160000Y-62160000D02*
X163000000Y-80000000D01*
X140620000Y-62160000D02*
X139160000Y-62160000D01*
D26*
X167000000Y-80000000D02*
X166000000Y-80000000D01*
D25*
X163000000Y-80000000D02*
X166000000Y-80000000D01*
D26*
X167000000Y-80000000D02*
X168000000Y-80000000D01*
D25*
%TO.N,Net-(R18-Pad2)*%
X140620000Y-59620000D02*
X146620000Y-59620000D01*
X146620000Y-59620000D02*
X164000000Y-77000000D01*
X140620000Y-59620000D02*
X139380000Y-59620000D01*
D26*
X174840000Y-79840000D02*
X172000000Y-77000000D01*
X177000000Y-79840000D02*
X174840000Y-79840000D01*
D25*
X170000000Y-77000000D02*
X174160000Y-77000000D01*
D26*
X172000000Y-77000000D02*
X170000000Y-77000000D01*
D25*
X164000000Y-77000000D02*
X170000000Y-77000000D01*
D26*
X172000000Y-77000000D02*
X174160000Y-77000000D01*
X174160000Y-77000000D02*
X177000000Y-79840000D01*
D25*
%TO.N,Net-(R19-Pad2)*%
X140620000Y-57080000D02*
X148080000Y-57080000D01*
X148080000Y-57080000D02*
X165000000Y-74000000D01*
X165000000Y-74000000D02*
X176000000Y-74000000D01*
X181840000Y-79840000D02*
X187000000Y-79840000D01*
X176000000Y-74000000D02*
X181840000Y-79840000D01*
X140620000Y-57080000D02*
X139080000Y-57080000D01*
D26*
X183160000Y-79840000D02*
X183000000Y-80000000D01*
X187000000Y-79840000D02*
X183160000Y-79840000D01*
D25*
%TO.N,Net-(R20-Pad2)*%
X140620000Y-54540000D02*
X149540000Y-54540000D01*
X149540000Y-54540000D02*
X166000000Y-71000000D01*
X166000000Y-71000000D02*
X177000000Y-71000000D01*
X177000000Y-71000000D02*
X183000000Y-77000000D01*
X189000000Y-77000000D02*
X191840000Y-79840000D01*
X202840000Y-58160000D02*
X184000000Y-77000000D01*
X184000000Y-77000000D02*
X189000000Y-77000000D01*
X183000000Y-77000000D02*
X184000000Y-77000000D01*
X140620000Y-54540000D02*
X139540000Y-54540000D01*
D26*
X198000000Y-79840000D02*
X193840000Y-79840000D01*
D25*
X191840000Y-79840000D02*
X193840000Y-79840000D01*
D26*
X205000000Y-58160000D02*
X202840000Y-58160000D01*
D25*
%TO.N,Net-(R8-Pad1)*%
X133000000Y-52000000D02*
X134000000Y-52000000D01*
X136000000Y-50000000D02*
X134000000Y-52000000D01*
X136000000Y-46000000D02*
X136000000Y-50000000D01*
%TO.N,Net-(U1-Pad11)*%
X140620000Y-74860000D02*
X141860000Y-74860000D01*
%TO.N,Net-(U1-Pad2)*%
X133000000Y-54540000D02*
X134540000Y-54540000D01*
X133000000Y-54540000D02*
X132460000Y-54540000D01*
%TO.N,Net-(U1-Pad12)*%
X140620000Y-72320000D02*
X141680000Y-72320000D01*
%TO.N,Net-(U1-Pad3)*%
X133000000Y-57080000D02*
X134920000Y-57080000D01*
X133000000Y-57080000D02*
X132080000Y-57080000D01*
%TO.N,Net-(U1-Pad4)*%
X133000000Y-59620000D02*
X134620000Y-59620000D01*
X133000000Y-59620000D02*
X132380000Y-59620000D01*
%TO.N,Net-(U1-Pad5)*%
X133000000Y-62160000D02*
X134160000Y-62160000D01*
X133000000Y-62160000D02*
X134840000Y-62160000D01*
X133000000Y-62160000D02*
X132160000Y-62160000D01*
D28*
%TO.N,/BIT_C*%
X113000000Y-72000000D02*
X124000000Y-72000000D01*
X124000000Y-72000000D02*
X128760000Y-67240000D01*
D25*
X133000000Y-67240000D02*
X128760000Y-67240000D01*
X99000000Y-79000000D02*
X110000000Y-79000000D01*
X99257919Y-73460000D02*
X98000000Y-74717919D01*
X98000000Y-78000000D02*
X99000000Y-79000000D01*
X98000000Y-74717919D02*
X98000000Y-78000000D01*
X133000000Y-67240000D02*
X134760000Y-67240000D01*
D26*
X100460000Y-73460000D02*
X99257919Y-73460000D01*
X100460000Y-73460000D02*
X103000000Y-73460000D01*
X113000000Y-76000000D02*
X113000000Y-74000000D01*
D28*
X113000000Y-74000000D02*
X113000000Y-72000000D01*
D26*
X113000000Y-76000000D02*
X112000000Y-77000000D01*
D25*
X110000000Y-79000000D02*
X112000000Y-77000000D01*
D28*
%TO.N,/BIT_A*%
X117840000Y-74160000D02*
X124840000Y-74160000D01*
X124840000Y-74160000D02*
X126680000Y-72320000D01*
X117840000Y-80160000D02*
X117840000Y-74160000D01*
D25*
X133000000Y-72320000D02*
X126680000Y-72320000D01*
D28*
X97080000Y-70920000D02*
X96000000Y-72000000D01*
X96000000Y-72000000D02*
X96000000Y-80000000D01*
X96000000Y-80000000D02*
X97000000Y-81000000D01*
X97000000Y-81000000D02*
X102000000Y-81000000D01*
X117000000Y-81000000D02*
X102000000Y-81000000D01*
D25*
X133000000Y-72320000D02*
X133680000Y-72320000D01*
D26*
X100460000Y-70920000D02*
X97080000Y-70920000D01*
X117840000Y-81000000D02*
X117840000Y-80160000D01*
X117840000Y-81000000D02*
X117000000Y-81000000D01*
D28*
%TO.N,/BIT_D*%
X123000000Y-70000000D02*
X128300000Y-64700000D01*
X110000000Y-70000000D02*
X123000000Y-70000000D01*
X108000000Y-72000000D02*
X110000000Y-70000000D01*
D25*
X133000000Y-64700000D02*
X128300000Y-64700000D01*
X133000000Y-64700000D02*
X134700000Y-64700000D01*
D26*
X103000000Y-76000000D02*
X108000000Y-76000000D01*
X108000000Y-76000000D02*
X108000000Y-72000000D01*
D25*
%TO.N,/BIT_B*%
X102000000Y-90000000D02*
X104840000Y-90000000D01*
X98500000Y-86500000D02*
X102000000Y-90000000D01*
D28*
X98500000Y-86500000D02*
X99500000Y-86500000D01*
X99500000Y-86500000D02*
X102000000Y-84000000D01*
X102000000Y-84000000D02*
X105000000Y-84000000D01*
X105000000Y-84000000D02*
X106000000Y-83000000D01*
X106000000Y-83000000D02*
X115000000Y-83000000D01*
X115000000Y-83000000D02*
X116000000Y-84000000D01*
X116000000Y-84000000D02*
X119000000Y-84000000D01*
X119000000Y-84000000D02*
X128000000Y-75000000D01*
D26*
X128000000Y-75000000D02*
X127000000Y-76000000D01*
D25*
X133000000Y-69780000D02*
X130220000Y-69780000D01*
D26*
X128000000Y-75000000D02*
X130000000Y-75000000D01*
D25*
X130220000Y-69780000D02*
X130220000Y-69780000D01*
D26*
X130000000Y-75000000D02*
X130000000Y-75000000D01*
D25*
X94000000Y-69000000D02*
X94000000Y-82000000D01*
X95000000Y-68000000D02*
X94000000Y-69000000D01*
X94000000Y-82000000D02*
X98500000Y-86500000D01*
X103000000Y-68000000D02*
X95000000Y-68000000D01*
X133000000Y-69780000D02*
X133780000Y-69780000D01*
D26*
X103000000Y-70920000D02*
X103000000Y-68000000D01*
X104840000Y-90000000D02*
X104840000Y-89160000D01*
X104840000Y-90000000D02*
X104840000Y-90840000D01*
%TD*%
M02*
