%TF.GenerationSoftware,KiCad,Pcbnew,5.1.8*%
%TF.CreationDate,2020-11-30T00:03:30+01:00*%
%TF.ProjectId,controller,636f6e74-726f-46c6-9c65-722e6b696361,rev?*%
%TF.SameCoordinates,Original*%
%TF.FileFunction,Soldermask,Bot*%
%TF.FilePolarity,Negative*%
%FSLAX46Y46*%
G04 Gerber Fmt 4.6, Leading zero omitted, Abs format (unit mm)*
G04 Created by KiCad (PCBNEW 5.1.8) date 2020-11-30 00:03:30*
%MOMM*%
%LPD*%
G01*
G04 APERTURE LIST*
%ADD10C,2.400000*%
%ADD11R,2.400000X2.400000*%
%ADD12C,1.600000*%
%ADD13C,2.000000*%
%ADD14R,2.000000X2.000000*%
%ADD15O,1.700000X1.700000*%
%ADD16R,1.700000X1.700000*%
%ADD17O,1.600000X1.600000*%
%ADD18R,1.600000X1.600000*%
%ADD19R,1.800000X1.800000*%
%ADD20C,1.800000*%
%ADD21C,4.000000*%
%ADD22C,2.600000*%
%ADD23C,2.540000*%
%ADD24O,1.800000X1.800000*%
G04 APERTURE END LIST*
D10*
%TO.C,C5*%
X129000000Y-107000000D03*
D11*
X134000000Y-107000000D03*
%TD*%
D12*
%TO.C,C4*%
X133000000Y-94000000D03*
X138000000Y-94000000D03*
%TD*%
%TO.C,C3*%
X148000000Y-47000000D03*
X148000000Y-52000000D03*
%TD*%
D13*
%TO.C,C1*%
X123000000Y-54000000D03*
D14*
X128000000Y-54000000D03*
%TD*%
D12*
%TO.C,C2*%
X144000000Y-47000000D03*
X144000000Y-52000000D03*
%TD*%
D15*
%TO.C,J2*%
X182540000Y-112160000D03*
X180000000Y-112160000D03*
X182540000Y-109620000D03*
X180000000Y-109620000D03*
X182540000Y-107080000D03*
X180000000Y-107080000D03*
X182540000Y-104540000D03*
X180000000Y-104540000D03*
X182540000Y-102000000D03*
D16*
X180000000Y-102000000D03*
%TD*%
D17*
%TO.C,R14*%
X165000000Y-37840000D03*
D12*
X165000000Y-48000000D03*
%TD*%
%TO.C,R15*%
G36*
G01*
X147197275Y-71802725D02*
X147197275Y-71802725D01*
G75*
G02*
X147197275Y-72934095I-565685J-565685D01*
G01*
X147197275Y-72934095D01*
G75*
G02*
X146065905Y-72934095I-565685J565685D01*
G01*
X146065905Y-72934095D01*
G75*
G02*
X146065905Y-71802725I565685J565685D01*
G01*
X146065905Y-71802725D01*
G75*
G02*
X147197275Y-71802725I565685J-565685D01*
G01*
G37*
X161000000Y-58000000D03*
%TD*%
D18*
%TO.C,U1*%
X133000000Y-52000000D03*
D17*
X140620000Y-74860000D03*
X133000000Y-54540000D03*
X140620000Y-72320000D03*
X133000000Y-57080000D03*
X140620000Y-69780000D03*
X133000000Y-59620000D03*
X140620000Y-67240000D03*
X133000000Y-62160000D03*
X140620000Y-64700000D03*
X133000000Y-64700000D03*
X140620000Y-62160000D03*
X133000000Y-67240000D03*
X140620000Y-59620000D03*
X133000000Y-69780000D03*
X140620000Y-57080000D03*
X133000000Y-72320000D03*
X140620000Y-54540000D03*
X133000000Y-74860000D03*
X140620000Y-52000000D03*
%TD*%
D19*
%TO.C,D1*%
X115460000Y-59000000D03*
D20*
X118000000Y-59000000D03*
%TD*%
D19*
%TO.C,D2*%
X106000000Y-97540000D03*
D20*
X106000000Y-95000000D03*
%TD*%
D19*
%TO.C,D3*%
X113000000Y-97540000D03*
D20*
X113000000Y-95000000D03*
%TD*%
D19*
%TO.C,D4*%
X120000000Y-97540000D03*
D20*
X120000000Y-95000000D03*
%TD*%
%TO.C,D5*%
X127000000Y-95000000D03*
D19*
X127000000Y-97540000D03*
%TD*%
%TO.C,D6*%
X115460000Y-49000000D03*
D20*
X118000000Y-49000000D03*
%TD*%
%TO.C,D7*%
X171000000Y-50540000D03*
D19*
X171000000Y-48000000D03*
%TD*%
D20*
%TO.C,D8*%
X178000000Y-58540000D03*
D19*
X178000000Y-56000000D03*
%TD*%
D20*
%TO.C,D9*%
X178000000Y-43540000D03*
D19*
X178000000Y-41000000D03*
%TD*%
D20*
%TO.C,D10*%
X185000000Y-50540000D03*
D19*
X185000000Y-48000000D03*
%TD*%
%TO.C,D11*%
X192000000Y-56000000D03*
D20*
X192000000Y-58540000D03*
%TD*%
%TO.C,D12*%
X192000000Y-43540000D03*
D19*
X192000000Y-41000000D03*
%TD*%
%TO.C,D13*%
X199000000Y-51000000D03*
D20*
X199000000Y-48460000D03*
%TD*%
D21*
%TO.C,J0*%
X96860000Y-59080000D03*
D22*
X107020000Y-46380000D03*
X107020000Y-51460000D03*
X107020000Y-56540000D03*
X107020000Y-61620000D03*
D23*
X104480000Y-64160000D03*
D21*
X96860000Y-48920000D03*
D23*
X104480000Y-43840000D03*
%TD*%
D16*
%TO.C,J3*%
X103000000Y-76000000D03*
D15*
X100460000Y-76000000D03*
X103000000Y-73460000D03*
X100460000Y-73460000D03*
X103000000Y-70920000D03*
X100460000Y-70920000D03*
%TD*%
D24*
%TO.C,Q0*%
X141000000Y-90080000D03*
X141000000Y-87540000D03*
D19*
X141000000Y-85000000D03*
%TD*%
%TO.C,Q1*%
X151000000Y-84920000D03*
D24*
X151000000Y-87460000D03*
X151000000Y-90000000D03*
%TD*%
%TO.C,Q2*%
X161000000Y-90000000D03*
X161000000Y-87460000D03*
D19*
X161000000Y-84920000D03*
%TD*%
%TO.C,Q3*%
X171000000Y-84920000D03*
D24*
X171000000Y-87460000D03*
X171000000Y-90000000D03*
%TD*%
D19*
%TO.C,Q4*%
X181000000Y-84920000D03*
D24*
X181000000Y-87460000D03*
X181000000Y-90000000D03*
%TD*%
%TO.C,Q5*%
X192000000Y-90080000D03*
X192000000Y-87540000D03*
D19*
X192000000Y-85000000D03*
%TD*%
%TO.C,Q6*%
X203000000Y-85000000D03*
D24*
X203000000Y-87540000D03*
X203000000Y-90080000D03*
%TD*%
D12*
%TO.C,R0*%
X137000000Y-80000000D03*
D17*
X137000000Y-90160000D03*
%TD*%
%TO.C,R1*%
X147000000Y-90000000D03*
D12*
X147000000Y-79840000D03*
%TD*%
D17*
%TO.C,R2*%
X157000000Y-90160000D03*
D12*
X157000000Y-80000000D03*
%TD*%
%TO.C,R3*%
X167000000Y-80000000D03*
D17*
X167000000Y-90160000D03*
%TD*%
%TO.C,R4*%
X177000000Y-90000000D03*
D12*
X177000000Y-79840000D03*
%TD*%
%TO.C,R5*%
X187000000Y-79840000D03*
D17*
X187000000Y-90000000D03*
%TD*%
D12*
%TO.C,R6*%
X198000000Y-79840000D03*
D17*
X198000000Y-90000000D03*
%TD*%
D12*
%TO.C,R7*%
X110840000Y-65000000D03*
D17*
X121000000Y-65000000D03*
%TD*%
%TO.C,R8*%
X125840000Y-46000000D03*
D12*
X136000000Y-46000000D03*
%TD*%
%TO.C,R9*%
X108000000Y-86160000D03*
D17*
X108000000Y-76000000D03*
%TD*%
%TO.C,R10*%
X113000000Y-76000000D03*
D12*
X113000000Y-86160000D03*
%TD*%
D17*
%TO.C,R11*%
X104840000Y-90000000D03*
D12*
X115000000Y-90000000D03*
%TD*%
%TO.C,R12*%
X128000000Y-81000000D03*
D17*
X117840000Y-81000000D03*
%TD*%
D12*
%TO.C,R13*%
X120160000Y-40000000D03*
D17*
X110000000Y-40000000D03*
%TD*%
%TO.C,R18*%
X172000000Y-77000000D03*
D12*
X172000000Y-66840000D03*
%TD*%
%TO.C,R19*%
X183000000Y-69840000D03*
D17*
X183000000Y-80000000D03*
%TD*%
%TO.C,R20*%
X205000000Y-58160000D03*
D12*
X205000000Y-48000000D03*
%TD*%
%TO.C,R16*%
X155000000Y-54000000D03*
G36*
G01*
X144789378Y-64210622D02*
X144789378Y-64210622D01*
G75*
G02*
X144789378Y-65341992I-565685J-565685D01*
G01*
X144789378Y-65341992D01*
G75*
G02*
X143658008Y-65341992I-565685J565685D01*
G01*
X143658008Y-65341992D01*
G75*
G02*
X143658008Y-64210622I565685J565685D01*
G01*
X143658008Y-64210622D01*
G75*
G02*
X144789378Y-64210622I565685J-565685D01*
G01*
G37*
%TD*%
%TO.C,R17*%
G36*
G01*
X157789378Y-73210622D02*
X157789378Y-73210622D01*
G75*
G02*
X157789378Y-74341992I-565685J-565685D01*
G01*
X157789378Y-74341992D01*
G75*
G02*
X156658008Y-74341992I-565685J565685D01*
G01*
X156658008Y-74341992D01*
G75*
G02*
X156658008Y-73210622I565685J565685D01*
G01*
X156658008Y-73210622D01*
G75*
G02*
X157789378Y-73210622I565685J-565685D01*
G01*
G37*
X168000000Y-63000000D03*
%TD*%
M02*
