%TF.GenerationSoftware,KiCad,Pcbnew,5.1.8*%
%TF.CreationDate,2021-03-03T19:18:21+01:00*%
%TF.ProjectId,controller,636f6e74-726f-46c6-9c65-722e6b696361,rev?*%
%TF.SameCoordinates,Original*%
%TF.FileFunction,Other,ECO2*%
%FSLAX46Y46*%
G04 Gerber Fmt 4.6, Leading zero omitted, Abs format (unit mm)*
G04 Created by KiCad (PCBNEW 5.1.8) date 2021-03-03 19:18:21*
%MOMM*%
%LPD*%
G01*
G04 APERTURE LIST*
%ADD10C,0.250000*%
%ADD11C,0.150000*%
G04 APERTURE END LIST*
D10*
X202000000Y-105000000D02*
X202000000Y-103000000D01*
X201000000Y-104000000D02*
X203000000Y-104000000D01*
D11*
X207414214Y-111000000D02*
G75*
G03*
X207414214Y-111000000I-1414214J0D01*
G01*
X113023809Y-101928571D02*
X113166666Y-101976190D01*
X113214285Y-102023809D01*
X113261904Y-102119047D01*
X113261904Y-102261904D01*
X113214285Y-102357142D01*
X113166666Y-102404761D01*
X113071428Y-102452380D01*
X112690476Y-102452380D01*
X112690476Y-101452380D01*
X113023809Y-101452380D01*
X113119047Y-101500000D01*
X113166666Y-101547619D01*
X113214285Y-101642857D01*
X113214285Y-101738095D01*
X113166666Y-101833333D01*
X113119047Y-101880952D01*
X113023809Y-101928571D01*
X112690476Y-101928571D01*
X113690476Y-102452380D02*
X113690476Y-101452380D01*
X114023809Y-101452380D02*
X114595238Y-101452380D01*
X114309523Y-102452380D02*
X114309523Y-101452380D01*
X115880952Y-101452380D02*
X115976190Y-101452380D01*
X116071428Y-101500000D01*
X116119047Y-101547619D01*
X116166666Y-101642857D01*
X116214285Y-101833333D01*
X116214285Y-102071428D01*
X116166666Y-102261904D01*
X116119047Y-102357142D01*
X116071428Y-102404761D01*
X115976190Y-102452380D01*
X115880952Y-102452380D01*
X115785714Y-102404761D01*
X115738095Y-102357142D01*
X115690476Y-102261904D01*
X115642857Y-102071428D01*
X115642857Y-101833333D01*
X115690476Y-101642857D01*
X115738095Y-101547619D01*
X115785714Y-101500000D01*
X115880952Y-101452380D01*
X117928571Y-102452380D02*
X117357142Y-102452380D01*
X117642857Y-102452380D02*
X117642857Y-101452380D01*
X117547619Y-101595238D01*
X117452380Y-101690476D01*
X117357142Y-101738095D01*
X119071428Y-101547619D02*
X119119047Y-101500000D01*
X119214285Y-101452380D01*
X119452380Y-101452380D01*
X119547619Y-101500000D01*
X119595238Y-101547619D01*
X119642857Y-101642857D01*
X119642857Y-101738095D01*
X119595238Y-101880952D01*
X119023809Y-102452380D01*
X119642857Y-102452380D01*
X120738095Y-101452380D02*
X121357142Y-101452380D01*
X121023809Y-101833333D01*
X121166666Y-101833333D01*
X121261904Y-101880952D01*
X121309523Y-101928571D01*
X121357142Y-102023809D01*
X121357142Y-102261904D01*
X121309523Y-102357142D01*
X121261904Y-102404761D01*
X121166666Y-102452380D01*
X120880952Y-102452380D01*
X120785714Y-102404761D01*
X120738095Y-102357142D01*
X188833333Y-111404761D02*
X188976190Y-111452380D01*
X189214285Y-111452380D01*
X189309523Y-111404761D01*
X189357142Y-111357142D01*
X189404761Y-111261904D01*
X189404761Y-111166666D01*
X189357142Y-111071428D01*
X189309523Y-111023809D01*
X189214285Y-110976190D01*
X189023809Y-110928571D01*
X188928571Y-110880952D01*
X188880952Y-110833333D01*
X188833333Y-110738095D01*
X188833333Y-110642857D01*
X188880952Y-110547619D01*
X188928571Y-110500000D01*
X189023809Y-110452380D01*
X189261904Y-110452380D01*
X189404761Y-110500000D01*
X189833333Y-110928571D02*
X190166666Y-110928571D01*
X190309523Y-111452380D02*
X189833333Y-111452380D01*
X189833333Y-110452380D01*
X190309523Y-110452380D01*
X191261904Y-110500000D02*
X191166666Y-110452380D01*
X191023809Y-110452380D01*
X190880952Y-110500000D01*
X190785714Y-110595238D01*
X190738095Y-110690476D01*
X190690476Y-110880952D01*
X190690476Y-111023809D01*
X190738095Y-111214285D01*
X190785714Y-111309523D01*
X190880952Y-111404761D01*
X191023809Y-111452380D01*
X191119047Y-111452380D01*
X191261904Y-111404761D01*
X191309523Y-111357142D01*
X191309523Y-111023809D01*
X191119047Y-111023809D01*
X191738095Y-111452380D02*
X191738095Y-110452380D01*
X192071428Y-111166666D01*
X192404761Y-110452380D01*
X192404761Y-111452380D01*
X192880952Y-110928571D02*
X193214285Y-110928571D01*
X193357142Y-111452380D02*
X192880952Y-111452380D01*
X192880952Y-110452380D01*
X193357142Y-110452380D01*
X193785714Y-111452380D02*
X193785714Y-110452380D01*
X194357142Y-111452380D01*
X194357142Y-110452380D01*
X194690476Y-110452380D02*
X195261904Y-110452380D01*
X194976190Y-111452380D02*
X194976190Y-110452380D01*
X90414214Y-40000000D02*
G75*
G03*
X90414214Y-40000000I-1414214J0D01*
G01*
X90414214Y-111000000D02*
G75*
G03*
X90414214Y-111000000I-1414214J0D01*
G01*
X207414214Y-40000000D02*
G75*
G03*
X207414214Y-40000000I-1414214J0D01*
G01*
X206809523Y-73880952D02*
X206714285Y-73833333D01*
X206666666Y-73785714D01*
X206619047Y-73690476D01*
X206619047Y-73642857D01*
X206666666Y-73547619D01*
X206714285Y-73500000D01*
X206809523Y-73452380D01*
X207000000Y-73452380D01*
X207095238Y-73500000D01*
X207142857Y-73547619D01*
X207190476Y-73642857D01*
X207190476Y-73690476D01*
X207142857Y-73785714D01*
X207095238Y-73833333D01*
X207000000Y-73880952D01*
X206809523Y-73880952D01*
X206714285Y-73928571D01*
X206666666Y-73976190D01*
X206619047Y-74071428D01*
X206619047Y-74261904D01*
X206666666Y-74357142D01*
X206714285Y-74404761D01*
X206809523Y-74452380D01*
X207000000Y-74452380D01*
X207095238Y-74404761D01*
X207142857Y-74357142D01*
X207190476Y-74261904D01*
X207190476Y-74071428D01*
X207142857Y-73976190D01*
X207095238Y-73928571D01*
X207000000Y-73880952D01*
X208047619Y-74404761D02*
X207952380Y-74452380D01*
X207761904Y-74452380D01*
X207666666Y-74404761D01*
X207619047Y-74357142D01*
X207571428Y-74261904D01*
X207571428Y-73976190D01*
X207619047Y-73880952D01*
X207666666Y-73833333D01*
X207761904Y-73785714D01*
X207952380Y-73785714D01*
X208047619Y-73833333D01*
X208476190Y-74452380D02*
X208476190Y-73785714D01*
X208476190Y-73880952D02*
X208523809Y-73833333D01*
X208619047Y-73785714D01*
X208761904Y-73785714D01*
X208857142Y-73833333D01*
X208904761Y-73928571D01*
X208904761Y-74452380D01*
X208904761Y-73928571D02*
X208952380Y-73833333D01*
X209047619Y-73785714D01*
X209190476Y-73785714D01*
X209285714Y-73833333D01*
X209333333Y-73928571D01*
X209333333Y-74452380D01*
X134000000Y-37452380D02*
X133428571Y-37452380D01*
X133714285Y-37452380D02*
X133714285Y-36452380D01*
X133619047Y-36595238D01*
X133523809Y-36690476D01*
X133428571Y-36738095D01*
X134380952Y-36547619D02*
X134428571Y-36500000D01*
X134523809Y-36452380D01*
X134761904Y-36452380D01*
X134857142Y-36500000D01*
X134904761Y-36547619D01*
X134952380Y-36642857D01*
X134952380Y-36738095D01*
X134904761Y-36880952D01*
X134333333Y-37452380D01*
X134952380Y-37452380D01*
X135380952Y-37357142D02*
X135428571Y-37404761D01*
X135380952Y-37452380D01*
X135333333Y-37404761D01*
X135380952Y-37357142D01*
X135380952Y-37452380D01*
X136333333Y-36452380D02*
X135857142Y-36452380D01*
X135809523Y-36928571D01*
X135857142Y-36880952D01*
X135952380Y-36833333D01*
X136190476Y-36833333D01*
X136285714Y-36880952D01*
X136333333Y-36928571D01*
X136380952Y-37023809D01*
X136380952Y-37261904D01*
X136333333Y-37357142D01*
X136285714Y-37404761D01*
X136190476Y-37452380D01*
X135952380Y-37452380D01*
X135857142Y-37404761D01*
X135809523Y-37357142D01*
X137238095Y-37404761D02*
X137142857Y-37452380D01*
X136952380Y-37452380D01*
X136857142Y-37404761D01*
X136809523Y-37357142D01*
X136761904Y-37261904D01*
X136761904Y-36976190D01*
X136809523Y-36880952D01*
X136857142Y-36833333D01*
X136952380Y-36785714D01*
X137142857Y-36785714D01*
X137238095Y-36833333D01*
X137666666Y-37452380D02*
X137666666Y-36785714D01*
X137666666Y-36880952D02*
X137714285Y-36833333D01*
X137809523Y-36785714D01*
X137952380Y-36785714D01*
X138047619Y-36833333D01*
X138095238Y-36928571D01*
X138095238Y-37452380D01*
X138095238Y-36928571D02*
X138142857Y-36833333D01*
X138238095Y-36785714D01*
X138380952Y-36785714D01*
X138476190Y-36833333D01*
X138523809Y-36928571D01*
X138523809Y-37452380D01*
X210000000Y-36000000D02*
X112000000Y-36000000D01*
X210000000Y-115000000D02*
X210000000Y-36000000D01*
X208000000Y-115000000D02*
X210000000Y-115000000D01*
X85000000Y-115000000D02*
X85000000Y-36000000D01*
X86000000Y-115000000D02*
X85000000Y-115000000D01*
X208000000Y-115000000D02*
X86000000Y-115000000D01*
X88000000Y-36000000D02*
X85000000Y-36000000D01*
X112000000Y-36000000D02*
X88000000Y-36000000D01*
M02*
