M48
; DRILL file {KiCad 5.1.9} date Sun Apr 25 23:10:38 2021
; FORMAT={-:-/ absolute / metric / decimal}
; #@! TF.CreationDate,2021-04-25T23:10:38+02:00
; #@! TF.GenerationSoftware,Kicad,Pcbnew,5.1.9
; #@! TF.FileFunction,Plated,1,2,PTH
FMAT,2
METRIC
T1C0.400
T2C0.800
T3C0.900
T4C1.000
T5C1.200
T6C1.520
%
G90
G05
T1
X89.0Y-40.0
X89.0Y-111.0
X130.0Y-75.0
X130.22Y-69.78
X206.0Y-40.0
X206.0Y-111.0
T2
X104.84Y-90.0
X108.0Y-76.0
X108.0Y-86.16
X110.0Y-40.0
X110.84Y-63.0
X113.0Y-76.0
X113.0Y-86.16
X115.0Y-90.0
X117.84Y-81.0
X120.16Y-40.0
X121.0Y-63.0
X125.0Y-54.84
X125.0Y-65.0
X127.0Y-51.0
X128.0Y-81.0
X129.0Y-51.0
X131.0Y-38.0
X131.0Y-43.0
X133.0Y-52.0
X133.0Y-54.54
X133.0Y-57.08
X133.0Y-59.62
X133.0Y-62.16
X133.0Y-64.7
X133.0Y-67.24
X133.0Y-69.78
X133.0Y-72.32
X133.0Y-74.86
X133.0Y-94.0
X135.0Y-46.0
X137.0Y-80.0
X137.0Y-90.16
X138.0Y-38.0
X138.0Y-43.0
X138.0Y-94.0
X140.62Y-52.0
X140.62Y-54.54
X140.62Y-57.08
X140.62Y-59.62
X140.62Y-62.16
X140.62Y-64.7
X140.62Y-67.24
X140.62Y-69.78
X140.62Y-72.32
X140.62Y-74.86
X144.224Y-64.776
X145.0Y-38.0
X145.0Y-43.0
X145.16Y-46.0
X146.632Y-72.368
X147.0Y-79.84
X147.0Y-90.0
X155.0Y-54.0
X157.0Y-80.0
X157.0Y-90.16
X157.224Y-73.776
X161.0Y-58.0
X165.0Y-37.84
X165.0Y-48.0
X167.0Y-80.0
X167.0Y-90.16
X168.0Y-63.0
X172.0Y-66.84
X172.0Y-77.0
X177.0Y-79.84
X177.0Y-90.0
X183.0Y-69.84
X183.0Y-80.0
X187.0Y-79.84
X187.0Y-90.0
X198.0Y-79.84
X198.0Y-90.0
X205.0Y-48.0
X205.0Y-58.16
T3
X106.0Y-95.0
X106.0Y-97.54
X113.0Y-95.0
X113.0Y-97.54
X115.46Y-49.0
X115.46Y-57.0
X118.0Y-49.0
X118.0Y-57.0
X120.0Y-95.0
X120.0Y-97.54
X127.0Y-95.0
X127.0Y-97.54
X171.0Y-48.0
X171.0Y-50.54
X178.0Y-41.0
X178.0Y-43.54
X178.0Y-56.0
X178.0Y-58.54
X185.0Y-48.0
X185.0Y-50.54
X192.0Y-41.0
X192.0Y-43.54
X192.0Y-56.0
X192.0Y-58.54
X199.0Y-48.46
X199.0Y-51.0
T4
X100.46Y-70.92
X100.46Y-73.46
X100.46Y-76.0
X103.0Y-70.92
X103.0Y-73.46
X103.0Y-76.0
X141.0Y-85.0
X141.0Y-87.54
X141.0Y-90.08
X151.0Y-84.92
X151.0Y-87.46
X151.0Y-90.0
X161.0Y-84.92
X161.0Y-87.46
X161.0Y-90.0
X171.0Y-84.92
X171.0Y-87.46
X171.0Y-90.0
X180.0Y-102.0
X180.0Y-104.54
X180.0Y-107.08
X180.0Y-109.62
X180.0Y-112.16
X181.0Y-84.92
X181.0Y-87.46
X181.0Y-90.0
X182.54Y-102.0
X182.54Y-104.54
X182.54Y-107.08
X182.54Y-109.62
X182.54Y-112.16
X192.0Y-85.0
X192.0Y-87.54
X192.0Y-90.08
X203.0Y-85.0
X203.0Y-87.54
X203.0Y-90.08
T5
X133.0Y-107.0
X138.0Y-107.0
T6
X107.02Y-46.38
X107.02Y-51.46
X107.02Y-56.54
X107.02Y-61.62
T0
M30
