M48
; DRILL file {KiCad 5.1.9} date Thu Jun 10 12:39:25 2021
; FORMAT={-:-/ absolute / metric / decimal}
; #@! TF.CreationDate,2021-06-10T12:39:25+02:00
; #@! TF.GenerationSoftware,Kicad,Pcbnew,5.1.9
; #@! TF.FileFunction,Plated,1,2,PTH
FMAT,2
METRIC
T1C0.800
T2C0.900
T3C1.000
T4C1.200
T5C1.800
T6C2.690
%
G90
G05
T1
X94.0Y-48.0
X94.0Y-58.16
X99.0Y-47.84
X99.0Y-58.0
X106.0Y-80.0
X106.0Y-90.16
X112.84Y-39.0
X113.0Y-80.84
X113.0Y-91.0
X120.0Y-80.84
X120.0Y-91.0
X123.0Y-39.0
X127.0Y-51.0
X127.0Y-80.84
X127.0Y-91.0
X129.0Y-51.0
X131.0Y-38.0
X131.0Y-43.0
X133.0Y-52.0
X133.0Y-54.54
X133.0Y-57.08
X133.0Y-59.62
X133.0Y-62.16
X133.0Y-64.7
X133.0Y-67.24
X133.0Y-69.78
X133.0Y-72.32
X133.0Y-74.86
X133.0Y-94.0
X135.0Y-46.0
X137.0Y-80.0
X137.0Y-90.16
X138.0Y-38.0
X138.0Y-43.0
X138.0Y-94.0
X140.62Y-52.0
X140.62Y-54.54
X140.62Y-57.08
X140.62Y-59.62
X140.62Y-62.16
X140.62Y-64.7
X140.62Y-67.24
X140.62Y-69.78
X140.62Y-72.32
X140.62Y-74.86
X144.224Y-64.776
X145.0Y-38.0
X145.0Y-43.0
X145.16Y-46.0
X146.632Y-72.368
X147.0Y-79.84
X147.0Y-90.0
X155.0Y-54.0
X157.0Y-80.0
X157.0Y-90.16
X157.224Y-73.776
X161.0Y-58.0
X165.0Y-37.84
X165.0Y-48.0
X167.0Y-80.0
X167.0Y-90.16
X168.0Y-63.0
X172.0Y-66.84
X172.0Y-77.0
X177.0Y-79.84
X177.0Y-90.0
X183.0Y-69.84
X183.0Y-80.0
X187.0Y-79.84
X187.0Y-90.0
X198.0Y-79.84
X198.0Y-90.0
X205.0Y-48.0
X205.0Y-58.16
T2
X106.0Y-95.0
X106.0Y-97.54
X109.54Y-51.0
X109.54Y-53.54
X113.0Y-95.0
X113.0Y-97.54
X115.46Y-49.0
X118.0Y-49.0
X120.0Y-95.0
X120.0Y-97.54
X127.0Y-95.0
X127.0Y-97.54
X171.0Y-48.0
X171.0Y-50.54
X178.0Y-41.0
X178.0Y-43.54
X178.0Y-56.0
X178.0Y-58.54
X185.0Y-48.0
X185.0Y-50.54
X192.0Y-41.0
X192.0Y-43.54
X192.0Y-56.0
X192.0Y-58.54
X199.0Y-48.46
X199.0Y-51.0
T3
X95.46Y-76.84
X95.46Y-79.38
X95.46Y-81.92
X95.46Y-84.46
X95.46Y-87.0
X98.0Y-76.84
X98.0Y-79.38
X98.0Y-81.92
X98.0Y-84.46
X98.0Y-87.0
X141.0Y-85.0
X141.0Y-87.54
X141.0Y-90.08
X151.0Y-84.92
X151.0Y-87.46
X151.0Y-90.0
X161.0Y-84.92
X161.0Y-87.46
X161.0Y-90.0
X162.84Y-103.98
X162.84Y-106.52
X165.38Y-103.98
X165.38Y-106.52
X167.92Y-103.98
X167.92Y-106.52
X170.46Y-103.98
X170.46Y-106.52
X171.0Y-84.92
X171.0Y-87.46
X171.0Y-90.0
X173.0Y-103.98
X173.0Y-106.52
X181.0Y-84.92
X181.0Y-87.46
X181.0Y-90.0
X192.0Y-85.0
X192.0Y-87.54
X192.0Y-90.08
X203.0Y-85.0
X203.0Y-87.54
X203.0Y-90.08
T4
X133.0Y-107.0
X138.0Y-107.0
T5
X91.38Y-43.0
X96.46Y-43.0
X101.54Y-43.0
X106.62Y-43.0
T6
X96.98Y-67.9
X96.98Y-95.94
X153.9Y-105.0
X181.94Y-105.0
T0
M30
