M48
; DRILL file {KiCad 5.1.9} date Thu Jun 10 12:35:48 2021
; FORMAT={-:-/ absolute / metric / decimal}
; #@! TF.CreationDate,2021-06-10T12:35:48+02:00
; #@! TF.GenerationSoftware,Kicad,Pcbnew,5.1.9
; #@! TF.FileFunction,Plated,1,2,PTH
FMAT,2
METRIC
T1C0.800
T2C0.900
T3C0.920
T4C1.000
T5C1.300
T6C1.800
T7C2.300
T8C2.690
%
G90
G05
T1
X97.0Y-183.0
X97.0Y-188.0
X101.0Y-147.84
X101.0Y-158.0
X101.0Y-176.84
X101.0Y-187.0
X109.0Y-162.0
X109.0Y-172.16
T2
X78.0Y-158.84
X78.0Y-169.0
X107.0Y-179.46
X107.0Y-182.0
X109.0Y-155.0
X109.0Y-157.54
T3
X83.0Y-180.0
X85.5Y-180.0
X87.5Y-180.0
X90.0Y-180.0
T4
X53.46Y-74.74
X53.46Y-77.28
X53.46Y-79.82
X53.46Y-82.36
X53.46Y-84.9
X53.46Y-87.44
X53.46Y-89.98
X53.46Y-92.52
X53.46Y-95.06
X53.46Y-97.6
X53.46Y-100.14
X53.46Y-102.68
X53.46Y-105.22
X53.46Y-107.76
X53.46Y-110.3
X53.46Y-112.84
X53.46Y-115.38
X53.46Y-117.92
X53.46Y-120.46
X53.46Y-123.0
X56.0Y-74.74
X56.0Y-77.28
X56.0Y-79.82
X56.0Y-82.36
X56.0Y-84.9
X56.0Y-87.44
X56.0Y-89.98
X56.0Y-92.52
X56.0Y-95.06
X56.0Y-97.6
X56.0Y-100.14
X56.0Y-102.68
X56.0Y-105.22
X56.0Y-107.76
X56.0Y-110.3
X56.0Y-112.84
X56.0Y-115.38
X56.0Y-117.92
X56.0Y-120.46
X56.0Y-123.0
X97.0Y-157.92
X97.0Y-160.46
X97.0Y-163.0
X100.0Y-168.0
X100.0Y-173.0
X121.98Y-38.9
X121.98Y-41.44
X121.98Y-43.98
X121.98Y-46.52
X121.98Y-49.06
X121.98Y-80.9
X121.98Y-83.44
X121.98Y-85.98
X121.98Y-88.52
X121.98Y-91.06
X122.0Y-122.9
X122.0Y-125.44
X122.0Y-127.98
X122.0Y-130.52
X122.0Y-133.06
X124.52Y-38.9
X124.52Y-41.44
X124.52Y-43.98
X124.52Y-46.52
X124.52Y-49.06
X124.52Y-80.9
X124.52Y-83.44
X124.52Y-85.98
X124.52Y-88.52
X124.52Y-91.06
X124.54Y-122.9
X124.54Y-125.44
X124.54Y-127.98
X124.54Y-130.52
X124.54Y-133.06
T5
X58.0Y-143.5
X58.0Y-151.0
X58.0Y-176.5
X58.0Y-184.0
X58.8Y-158.0
X58.8Y-170.0
X71.0Y-158.0
X71.0Y-170.0
X73.0Y-164.0
T6
X121.0Y-172.38
X121.0Y-177.46
X121.0Y-182.54
X121.0Y-187.62
T7
X79.93Y-182.71
X93.07Y-182.71
T8
X123.0Y-29.96
X123.0Y-58.0
X123.0Y-71.96
X123.0Y-100.0
X123.02Y-113.96
X123.02Y-142.0
T0
M30
