%TF.GenerationSoftware,KiCad,Pcbnew,5.1.8*%
%TF.CreationDate,2021-03-03T19:24:37+01:00*%
%TF.ProjectId,splitter,73706c69-7474-4657-922e-6b696361645f,rev?*%
%TF.SameCoordinates,Original*%
%TF.FileFunction,Soldermask,Bot*%
%TF.FilePolarity,Negative*%
%FSLAX46Y46*%
G04 Gerber Fmt 4.6, Leading zero omitted, Abs format (unit mm)*
G04 Created by KiCad (PCBNEW 5.1.8) date 2021-03-03 19:24:37*
%MOMM*%
%LPD*%
G01*
G04 APERTURE LIST*
%ADD10C,2.000000*%
%ADD11R,2.000000X2.000000*%
%ADD12C,1.600000*%
%ADD13C,1.700000*%
%ADD14C,3.000000*%
%ADD15R,1.800000X1.800000*%
%ADD16C,1.800000*%
%ADD17O,1.800000X1.800000*%
%ADD18R,1.700000X1.700000*%
%ADD19O,1.700000X1.700000*%
%ADD20C,4.000000*%
%ADD21C,2.600000*%
%ADD22C,2.540000*%
%ADD23R,3.000000X3.000000*%
%ADD24R,1.600000X1.600000*%
%ADD25O,1.600000X1.600000*%
%ADD26R,2.400000X2.400000*%
%ADD27C,2.400000*%
G04 APERTURE END LIST*
D10*
%TO.C,C3*%
X146000000Y-62000000D03*
D11*
X146000000Y-57000000D03*
%TD*%
D12*
%TO.C,C2*%
X137000000Y-42000000D03*
X137000000Y-47000000D03*
%TD*%
%TO.C,C0*%
X160000000Y-46000000D03*
X160000000Y-51000000D03*
%TD*%
D13*
%TO.C,J0*%
X122000000Y-84000000D03*
X122000000Y-86540000D03*
X122000000Y-89080000D03*
X122000000Y-91620000D03*
X122000000Y-94160000D03*
X122000000Y-96700000D03*
X122000000Y-99240000D03*
X122000000Y-101780000D03*
X122000000Y-104320000D03*
X122000000Y-106860000D03*
X122000000Y-109400000D03*
X122000000Y-111940000D03*
X122000000Y-114480000D03*
X122000000Y-117020000D03*
X122000000Y-119560000D03*
X122000000Y-122100000D03*
X122000000Y-124640000D03*
X122000000Y-127180000D03*
X122000000Y-129720000D03*
X122000000Y-132260000D03*
X124540000Y-84000000D03*
X124540000Y-86540000D03*
X124540000Y-89080000D03*
X124540000Y-91620000D03*
X124540000Y-94160000D03*
X124540000Y-96700000D03*
X124540000Y-99240000D03*
X124540000Y-101780000D03*
X124540000Y-104320000D03*
X124540000Y-106860000D03*
X124540000Y-109400000D03*
X124540000Y-111940000D03*
X124540000Y-114480000D03*
X124540000Y-117020000D03*
X124540000Y-119560000D03*
X124540000Y-122100000D03*
X124540000Y-124640000D03*
X124540000Y-127180000D03*
X124540000Y-129720000D03*
G36*
G01*
X125390000Y-131660000D02*
X125390000Y-132860000D01*
G75*
G02*
X125140000Y-133110000I-250000J0D01*
G01*
X123940000Y-133110000D01*
G75*
G02*
X123690000Y-132860000I0J250000D01*
G01*
X123690000Y-131660000D01*
G75*
G02*
X123940000Y-131410000I250000J0D01*
G01*
X125140000Y-131410000D01*
G75*
G02*
X125390000Y-131660000I0J-250000D01*
G01*
G37*
%TD*%
D14*
%TO.C,K0*%
X162000000Y-72000000D03*
X174200000Y-72000000D03*
X174200000Y-60000000D03*
X162000000Y-60000000D03*
X160000000Y-66000000D03*
%TD*%
D15*
%TO.C,D0*%
X149000000Y-45540000D03*
D16*
X149000000Y-43000000D03*
%TD*%
D15*
%TO.C,D1*%
X155000000Y-59840000D03*
D17*
X155000000Y-70000000D03*
%TD*%
D16*
%TO.C,D2*%
X162460000Y-78000000D03*
D15*
X165000000Y-78000000D03*
%TD*%
%TO.C,D3*%
X148000000Y-51000000D03*
D16*
X150540000Y-51000000D03*
%TD*%
D18*
%TO.C,J1*%
X165000000Y-126000000D03*
D19*
X167540000Y-126000000D03*
X165000000Y-128540000D03*
X167540000Y-128540000D03*
X165000000Y-131080000D03*
X167540000Y-131080000D03*
%TD*%
%TO.C,J2*%
X167540000Y-116080000D03*
X165000000Y-116080000D03*
X167540000Y-113540000D03*
X165000000Y-113540000D03*
X167540000Y-111000000D03*
D18*
X165000000Y-111000000D03*
%TD*%
%TO.C,J3*%
X165000000Y-95000000D03*
D19*
X167540000Y-95000000D03*
X165000000Y-97540000D03*
X167540000Y-97540000D03*
X165000000Y-100080000D03*
X167540000Y-100080000D03*
%TD*%
D20*
%TO.C,J4*%
X121860000Y-55080000D03*
D21*
X132020000Y-42380000D03*
X132020000Y-47460000D03*
X132020000Y-52540000D03*
X132020000Y-57620000D03*
D22*
X129480000Y-60160000D03*
D20*
X121860000Y-44920000D03*
D22*
X129480000Y-39840000D03*
%TD*%
D23*
%TO.C,J5*%
X174000000Y-83000000D03*
D14*
X174000000Y-77920000D03*
%TD*%
%TO.C,J6*%
X166710000Y-40930000D03*
X166710000Y-54070000D03*
D24*
X164000000Y-51000000D03*
D12*
X164000000Y-48500000D03*
X164000000Y-46500000D03*
X164000000Y-44000000D03*
%TD*%
D15*
%TO.C,Q1*%
X149000000Y-67000000D03*
D17*
X149000000Y-69540000D03*
X149000000Y-72080000D03*
%TD*%
D12*
%TO.C,R0*%
X156000000Y-41840000D03*
D25*
X156000000Y-52000000D03*
%TD*%
D12*
%TO.C,R2*%
X145000000Y-72000000D03*
D25*
X145000000Y-82160000D03*
%TD*%
%TO.C,R3*%
X158000000Y-77000000D03*
D12*
X147840000Y-77000000D03*
%TD*%
%TO.C,R4*%
X142000000Y-52000000D03*
D25*
X142000000Y-41840000D03*
%TD*%
D26*
%TO.C,C1*%
X130500000Y-71000000D03*
D27*
X138000000Y-71000000D03*
%TD*%
M02*
