M48
; DRILL file {KiCad 5.1.8} date Thu Feb 18 11:21:07 2021
; FORMAT={-:-/ absolute / metric / decimal}
; #@! TF.CreationDate,2021-02-18T11:21:07+01:00
; #@! TF.GenerationSoftware,Kicad,Pcbnew,5.1.8
; #@! TF.FileFunction,Plated,1,2,PTH
FMAT,2
METRIC
T1C0.400
T2C0.800
T3C0.900
T4C0.920
T5C1.000
T6C1.300
T7C1.520
T8C2.300
%
G90
G05
T1
X122.0Y-70.0
X132.0Y-135.0
X137.0Y-52.0
X160.0Y-41.0
X175.0Y-90.0
X175.0Y-106.0
X175.0Y-121.0
X175.0Y-135.0
T2
X156.0Y-41.84
X156.0Y-52.0
X145.0Y-72.0
X145.0Y-82.16
X142.0Y-41.84
X142.0Y-52.0
X130.5Y-71.0
X134.0Y-71.0
X160.0Y-46.0
X160.0Y-51.0
X137.0Y-42.0
X137.0Y-47.0
X147.84Y-77.0
X158.0Y-77.0
T3
X162.46Y-78.0
X165.0Y-78.0
X148.0Y-51.0
X150.54Y-51.0
X149.0Y-43.0
X149.0Y-45.54
X155.0Y-59.84
X155.0Y-70.0
T4
X164.0Y-44.0
X164.0Y-46.5
X164.0Y-48.5
X164.0Y-51.0
T5
X165.0Y-95.0
X165.0Y-97.54
X165.0Y-100.08
X167.54Y-95.0
X167.54Y-97.54
X167.54Y-100.08
X165.0Y-126.0
X165.0Y-128.54
X165.0Y-131.08
X167.54Y-126.0
X167.54Y-128.54
X167.54Y-131.08
X149.0Y-67.0
X149.0Y-69.54
X149.0Y-72.08
X122.0Y-84.0
X122.0Y-86.54
X122.0Y-89.08
X122.0Y-91.62
X122.0Y-94.16
X122.0Y-96.7
X122.0Y-99.24
X122.0Y-101.78
X122.0Y-104.32
X122.0Y-106.86
X122.0Y-109.4
X122.0Y-111.94
X122.0Y-114.48
X122.0Y-117.02
X122.0Y-119.56
X122.0Y-122.1
X122.0Y-124.64
X122.0Y-127.18
X122.0Y-129.72
X122.0Y-132.26
X124.54Y-84.0
X124.54Y-86.54
X124.54Y-89.08
X124.54Y-91.62
X124.54Y-94.16
X124.54Y-96.7
X124.54Y-99.24
X124.54Y-101.78
X124.54Y-104.32
X124.54Y-106.86
X124.54Y-109.4
X124.54Y-111.94
X124.54Y-114.48
X124.54Y-117.02
X124.54Y-119.56
X124.54Y-122.1
X124.54Y-124.64
X124.54Y-127.18
X124.54Y-129.72
X124.54Y-132.26
X165.0Y-111.0
X165.0Y-113.54
X165.0Y-116.08
X167.54Y-111.0
X167.54Y-113.54
X167.54Y-116.08
X146.0Y-57.0
X146.0Y-62.0
T6
X160.0Y-66.0
X162.0Y-60.0
X162.0Y-72.0
X174.2Y-60.0
X174.2Y-72.0
T7
X132.02Y-42.38
X132.02Y-47.46
X132.02Y-52.54
X132.02Y-57.62
X174.0Y-77.92
X174.0Y-83.0
T8
X166.71Y-40.93
X166.71Y-54.07
T0
M30
