%TF.GenerationSoftware,KiCad,Pcbnew,5.1.9*%
%TF.CreationDate,2021-04-25T21:33:00+02:00*%
%TF.ProjectId,splitter,73706c69-7474-4657-922e-6b696361645f,rev?*%
%TF.SameCoordinates,Original*%
%TF.FileFunction,Other,ECO2*%
%FSLAX46Y46*%
G04 Gerber Fmt 4.6, Leading zero omitted, Abs format (unit mm)*
G04 Created by KiCad (PCBNEW 5.1.9) date 2021-04-25 21:33:00*
%MOMM*%
%LPD*%
G01*
G04 APERTURE LIST*
%ADD10C,0.150000*%
%ADD11C,0.250000*%
G04 APERTURE END LIST*
D10*
X159414214Y-80000000D02*
G75*
G03*
X159414214Y-80000000I-1414214J0D01*
G01*
D11*
X141000000Y-132000000D02*
X139000000Y-132000000D01*
X140000000Y-131000000D02*
X140000000Y-133000000D01*
D10*
X159571428Y-42452380D02*
X159238095Y-41976190D01*
X159000000Y-42452380D02*
X159000000Y-41452380D01*
X159380952Y-41452380D01*
X159476190Y-41500000D01*
X159523809Y-41547619D01*
X159571428Y-41642857D01*
X159571428Y-41785714D01*
X159523809Y-41880952D01*
X159476190Y-41928571D01*
X159380952Y-41976190D01*
X159000000Y-41976190D01*
X160000000Y-42452380D02*
X160000000Y-41452380D01*
X160380952Y-41452380D01*
X160476190Y-41500000D01*
X160523809Y-41547619D01*
X160571428Y-41642857D01*
X160571428Y-41785714D01*
X160523809Y-41880952D01*
X160476190Y-41928571D01*
X160380952Y-41976190D01*
X160000000Y-41976190D01*
X161000000Y-42452380D02*
X161000000Y-41452380D01*
X165000000Y-87404761D02*
X165142857Y-87452380D01*
X165380952Y-87452380D01*
X165476190Y-87404761D01*
X165523809Y-87357142D01*
X165571428Y-87261904D01*
X165571428Y-87166666D01*
X165523809Y-87071428D01*
X165476190Y-87023809D01*
X165380952Y-86976190D01*
X165190476Y-86928571D01*
X165095238Y-86880952D01*
X165047619Y-86833333D01*
X165000000Y-86738095D01*
X165000000Y-86642857D01*
X165047619Y-86547619D01*
X165095238Y-86500000D01*
X165190476Y-86452380D01*
X165428571Y-86452380D01*
X165571428Y-86500000D01*
X166000000Y-87452380D02*
X166000000Y-86452380D01*
X167047619Y-87452380D02*
X166714285Y-86976190D01*
X166476190Y-87452380D02*
X166476190Y-86452380D01*
X166857142Y-86452380D01*
X166952380Y-86500000D01*
X167000000Y-86547619D01*
X167047619Y-86642857D01*
X167047619Y-86785714D01*
X167000000Y-86880952D01*
X166952380Y-86928571D01*
X166857142Y-86976190D01*
X166476190Y-86976190D01*
X167476190Y-86928571D02*
X167809523Y-86928571D01*
X167952380Y-87452380D02*
X167476190Y-87452380D01*
X167476190Y-86452380D01*
X167952380Y-86452380D01*
X168380952Y-87452380D02*
X168380952Y-86452380D01*
X168952380Y-87452380D01*
X168952380Y-86452380D01*
X171285714Y-98404761D02*
X171428571Y-98452380D01*
X171666666Y-98452380D01*
X171761904Y-98404761D01*
X171809523Y-98357142D01*
X171857142Y-98261904D01*
X171857142Y-98166666D01*
X171809523Y-98071428D01*
X171761904Y-98023809D01*
X171666666Y-97976190D01*
X171476190Y-97928571D01*
X171380952Y-97880952D01*
X171333333Y-97833333D01*
X171285714Y-97738095D01*
X171285714Y-97642857D01*
X171333333Y-97547619D01*
X171380952Y-97500000D01*
X171476190Y-97452380D01*
X171714285Y-97452380D01*
X171857142Y-97500000D01*
X172285714Y-97928571D02*
X172619047Y-97928571D01*
X172761904Y-98452380D02*
X172285714Y-98452380D01*
X172285714Y-97452380D01*
X172761904Y-97452380D01*
X173714285Y-97500000D02*
X173619047Y-97452380D01*
X173476190Y-97452380D01*
X173333333Y-97500000D01*
X173238095Y-97595238D01*
X173190476Y-97690476D01*
X173142857Y-97880952D01*
X173142857Y-98023809D01*
X173190476Y-98214285D01*
X173238095Y-98309523D01*
X173333333Y-98404761D01*
X173476190Y-98452380D01*
X173571428Y-98452380D01*
X173714285Y-98404761D01*
X173761904Y-98357142D01*
X173761904Y-98023809D01*
X173571428Y-98023809D01*
X174095238Y-97452380D02*
X174714285Y-97452380D01*
X174380952Y-97833333D01*
X174523809Y-97833333D01*
X174619047Y-97880952D01*
X174666666Y-97928571D01*
X174714285Y-98023809D01*
X174714285Y-98261904D01*
X174666666Y-98357142D01*
X174619047Y-98404761D01*
X174523809Y-98452380D01*
X174238095Y-98452380D01*
X174142857Y-98404761D01*
X174095238Y-98357142D01*
X171285714Y-114404761D02*
X171428571Y-114452380D01*
X171666666Y-114452380D01*
X171761904Y-114404761D01*
X171809523Y-114357142D01*
X171857142Y-114261904D01*
X171857142Y-114166666D01*
X171809523Y-114071428D01*
X171761904Y-114023809D01*
X171666666Y-113976190D01*
X171476190Y-113928571D01*
X171380952Y-113880952D01*
X171333333Y-113833333D01*
X171285714Y-113738095D01*
X171285714Y-113642857D01*
X171333333Y-113547619D01*
X171380952Y-113500000D01*
X171476190Y-113452380D01*
X171714285Y-113452380D01*
X171857142Y-113500000D01*
X172285714Y-113928571D02*
X172619047Y-113928571D01*
X172761904Y-114452380D02*
X172285714Y-114452380D01*
X172285714Y-113452380D01*
X172761904Y-113452380D01*
X173714285Y-113500000D02*
X173619047Y-113452380D01*
X173476190Y-113452380D01*
X173333333Y-113500000D01*
X173238095Y-113595238D01*
X173190476Y-113690476D01*
X173142857Y-113880952D01*
X173142857Y-114023809D01*
X173190476Y-114214285D01*
X173238095Y-114309523D01*
X173333333Y-114404761D01*
X173476190Y-114452380D01*
X173571428Y-114452380D01*
X173714285Y-114404761D01*
X173761904Y-114357142D01*
X173761904Y-114023809D01*
X173571428Y-114023809D01*
X174142857Y-113547619D02*
X174190476Y-113500000D01*
X174285714Y-113452380D01*
X174523809Y-113452380D01*
X174619047Y-113500000D01*
X174666666Y-113547619D01*
X174714285Y-113642857D01*
X174714285Y-113738095D01*
X174666666Y-113880952D01*
X174095238Y-114452380D01*
X174714285Y-114452380D01*
X171285714Y-129404761D02*
X171428571Y-129452380D01*
X171666666Y-129452380D01*
X171761904Y-129404761D01*
X171809523Y-129357142D01*
X171857142Y-129261904D01*
X171857142Y-129166666D01*
X171809523Y-129071428D01*
X171761904Y-129023809D01*
X171666666Y-128976190D01*
X171476190Y-128928571D01*
X171380952Y-128880952D01*
X171333333Y-128833333D01*
X171285714Y-128738095D01*
X171285714Y-128642857D01*
X171333333Y-128547619D01*
X171380952Y-128500000D01*
X171476190Y-128452380D01*
X171714285Y-128452380D01*
X171857142Y-128500000D01*
X172285714Y-128928571D02*
X172619047Y-128928571D01*
X172761904Y-129452380D02*
X172285714Y-129452380D01*
X172285714Y-128452380D01*
X172761904Y-128452380D01*
X173714285Y-128500000D02*
X173619047Y-128452380D01*
X173476190Y-128452380D01*
X173333333Y-128500000D01*
X173238095Y-128595238D01*
X173190476Y-128690476D01*
X173142857Y-128880952D01*
X173142857Y-129023809D01*
X173190476Y-129214285D01*
X173238095Y-129309523D01*
X173333333Y-129404761D01*
X173476190Y-129452380D01*
X173571428Y-129452380D01*
X173714285Y-129404761D01*
X173761904Y-129357142D01*
X173761904Y-129023809D01*
X173571428Y-129023809D01*
X174714285Y-129452380D02*
X174142857Y-129452380D01*
X174428571Y-129452380D02*
X174428571Y-128452380D01*
X174333333Y-128595238D01*
X174238095Y-128690476D01*
X174142857Y-128738095D01*
X133414214Y-135000000D02*
G75*
G03*
X133414214Y-135000000I-1414214J0D01*
G01*
X123414214Y-70000000D02*
G75*
G03*
X123414214Y-70000000I-1414214J0D01*
G01*
X185000000Y-138000000D02*
X118000000Y-138000000D01*
X119000000Y-73452380D02*
X118428571Y-73452380D01*
X118714285Y-73452380D02*
X118714285Y-72452380D01*
X118619047Y-72595238D01*
X118523809Y-72690476D01*
X118428571Y-72738095D01*
X119619047Y-72452380D02*
X119714285Y-72452380D01*
X119809523Y-72500000D01*
X119857142Y-72547619D01*
X119904761Y-72642857D01*
X119952380Y-72833333D01*
X119952380Y-73071428D01*
X119904761Y-73261904D01*
X119857142Y-73357142D01*
X119809523Y-73404761D01*
X119714285Y-73452380D01*
X119619047Y-73452380D01*
X119523809Y-73404761D01*
X119476190Y-73357142D01*
X119428571Y-73261904D01*
X119380952Y-73071428D01*
X119380952Y-72833333D01*
X119428571Y-72642857D01*
X119476190Y-72547619D01*
X119523809Y-72500000D01*
X119619047Y-72452380D01*
X120571428Y-72452380D02*
X120666666Y-72452380D01*
X120761904Y-72500000D01*
X120809523Y-72547619D01*
X120857142Y-72642857D01*
X120904761Y-72833333D01*
X120904761Y-73071428D01*
X120857142Y-73261904D01*
X120809523Y-73357142D01*
X120761904Y-73404761D01*
X120666666Y-73452380D01*
X120571428Y-73452380D01*
X120476190Y-73404761D01*
X120428571Y-73357142D01*
X120380952Y-73261904D01*
X120333333Y-73071428D01*
X120333333Y-72833333D01*
X120380952Y-72642857D01*
X120428571Y-72547619D01*
X120476190Y-72500000D01*
X120571428Y-72452380D01*
X121333333Y-73452380D02*
X121333333Y-72785714D01*
X121333333Y-72880952D02*
X121380952Y-72833333D01*
X121476190Y-72785714D01*
X121619047Y-72785714D01*
X121714285Y-72833333D01*
X121761904Y-72928571D01*
X121761904Y-73452380D01*
X121761904Y-72928571D02*
X121809523Y-72833333D01*
X121904761Y-72785714D01*
X122047619Y-72785714D01*
X122142857Y-72833333D01*
X122190476Y-72928571D01*
X122190476Y-73452380D01*
X122666666Y-73452380D02*
X122666666Y-72785714D01*
X122666666Y-72880952D02*
X122714285Y-72833333D01*
X122809523Y-72785714D01*
X122952380Y-72785714D01*
X123047619Y-72833333D01*
X123095238Y-72928571D01*
X123095238Y-73452380D01*
X123095238Y-72928571D02*
X123142857Y-72833333D01*
X123238095Y-72785714D01*
X123380952Y-72785714D01*
X123476190Y-72833333D01*
X123523809Y-72928571D01*
X123523809Y-73452380D01*
X176380952Y-38452380D02*
X176190476Y-38452380D01*
X176095238Y-38500000D01*
X176047619Y-38547619D01*
X175952380Y-38690476D01*
X175904761Y-38880952D01*
X175904761Y-39261904D01*
X175952380Y-39357142D01*
X176000000Y-39404761D01*
X176095238Y-39452380D01*
X176285714Y-39452380D01*
X176380952Y-39404761D01*
X176428571Y-39357142D01*
X176476190Y-39261904D01*
X176476190Y-39023809D01*
X176428571Y-38928571D01*
X176380952Y-38880952D01*
X176285714Y-38833333D01*
X176095238Y-38833333D01*
X176000000Y-38880952D01*
X175952380Y-38928571D01*
X175904761Y-39023809D01*
X176809523Y-38452380D02*
X177476190Y-38452380D01*
X177047619Y-39452380D01*
X177857142Y-39452380D02*
X177857142Y-38785714D01*
X177857142Y-38880952D02*
X177904761Y-38833333D01*
X178000000Y-38785714D01*
X178142857Y-38785714D01*
X178238095Y-38833333D01*
X178285714Y-38928571D01*
X178285714Y-39452380D01*
X178285714Y-38928571D02*
X178333333Y-38833333D01*
X178428571Y-38785714D01*
X178571428Y-38785714D01*
X178666666Y-38833333D01*
X178714285Y-38928571D01*
X178714285Y-39452380D01*
X179190476Y-39452380D02*
X179190476Y-38785714D01*
X179190476Y-38880952D02*
X179238095Y-38833333D01*
X179333333Y-38785714D01*
X179476190Y-38785714D01*
X179571428Y-38833333D01*
X179619047Y-38928571D01*
X179619047Y-39452380D01*
X179619047Y-38928571D02*
X179666666Y-38833333D01*
X179761904Y-38785714D01*
X179904761Y-38785714D01*
X180000000Y-38833333D01*
X180047619Y-38928571D01*
X180047619Y-39452380D01*
X118000000Y-138000000D02*
X118000000Y-38000000D01*
X185000000Y-38000000D02*
X118000000Y-38000000D01*
X185000000Y-138000000D02*
X185000000Y-38000000D01*
M02*
