M48
; DRILL file {KiCad 5.1.8} date Fri Feb 12 19:11:55 2021
; FORMAT={-:-/ absolute / metric / decimal}
; #@! TF.CreationDate,2021-02-12T19:11:55+01:00
; #@! TF.GenerationSoftware,Kicad,Pcbnew,5.1.8
; #@! TF.FileFunction,Plated,1,2,PTH
FMAT,2
METRIC
T1C0.400
T2C1.000
%
G90
G05
T1
X136.0Y-67.0
X136.0Y-86.0
X180.0Y-67.0
X180.0Y-86.0
T2
X133.46Y-62.0
X136.0Y-62.0
X180.46Y-62.0
X183.0Y-62.0
X173.46Y-62.0
X176.0Y-62.0
X154.84Y-76.0
X154.84Y-78.54
X157.38Y-76.0
X157.38Y-78.54
X159.92Y-76.0
X159.92Y-78.54
X162.46Y-76.0
X162.46Y-78.54
X165.0Y-76.0
X165.0Y-78.54
X149.46Y-62.0
X152.0Y-62.0
X157.46Y-62.0
X160.0Y-62.0
X165.46Y-62.0
X168.0Y-62.0
X141.46Y-62.0
X144.0Y-62.0
T0
M30
