%TF.GenerationSoftware,KiCad,Pcbnew,5.1.9*%
%TF.CreationDate,2021-06-10T11:58:43+02:00*%
%TF.ProjectId,burner,6275726e-6572-42e6-9b69-6361645f7063,rev?*%
%TF.SameCoordinates,Original*%
%TF.FileFunction,Other,ECO2*%
%FSLAX46Y46*%
G04 Gerber Fmt 4.6, Leading zero omitted, Abs format (unit mm)*
G04 Created by KiCad (PCBNEW 5.1.9) date 2021-06-10 11:58:43*
%MOMM*%
%LPD*%
G01*
G04 APERTURE LIST*
%ADD10C,0.150000*%
G04 APERTURE END LIST*
D10*
X125523809Y-119547619D02*
X125571428Y-119500000D01*
X125666666Y-119452380D01*
X125904761Y-119452380D01*
X126000000Y-119500000D01*
X126047619Y-119547619D01*
X126095238Y-119642857D01*
X126095238Y-119738095D01*
X126047619Y-119880952D01*
X125476190Y-120452380D01*
X126095238Y-120452380D01*
X126428571Y-119452380D02*
X127047619Y-119452380D01*
X126714285Y-119833333D01*
X126857142Y-119833333D01*
X126952380Y-119880952D01*
X127000000Y-119928571D01*
X127047619Y-120023809D01*
X127047619Y-120261904D01*
X127000000Y-120357142D01*
X126952380Y-120404761D01*
X126857142Y-120452380D01*
X126571428Y-120452380D01*
X126476190Y-120404761D01*
X126428571Y-120357142D01*
X128238095Y-120452380D02*
X128238095Y-119785714D01*
X128238095Y-119880952D02*
X128285714Y-119833333D01*
X128380952Y-119785714D01*
X128523809Y-119785714D01*
X128619047Y-119833333D01*
X128666666Y-119928571D01*
X128666666Y-120452380D01*
X128666666Y-119928571D02*
X128714285Y-119833333D01*
X128809523Y-119785714D01*
X128952380Y-119785714D01*
X129047619Y-119833333D01*
X129095238Y-119928571D01*
X129095238Y-120452380D01*
X129571428Y-120452380D02*
X129571428Y-119785714D01*
X129571428Y-119880952D02*
X129619047Y-119833333D01*
X129714285Y-119785714D01*
X129857142Y-119785714D01*
X129952380Y-119833333D01*
X130000000Y-119928571D01*
X130000000Y-120452380D01*
X130000000Y-119928571D02*
X130047619Y-119833333D01*
X130142857Y-119785714D01*
X130285714Y-119785714D01*
X130380952Y-119833333D01*
X130428571Y-119928571D01*
X130428571Y-120452380D01*
X125785714Y-117000000D02*
X126452380Y-117000000D01*
X125404761Y-117238095D02*
X126119047Y-117476190D01*
X126119047Y-116857142D01*
X126452380Y-115952380D02*
X126452380Y-116523809D01*
X126452380Y-116238095D02*
X125452380Y-116238095D01*
X125595238Y-116333333D01*
X125690476Y-116428571D01*
X125738095Y-116523809D01*
X126452380Y-114761904D02*
X125785714Y-114761904D01*
X125880952Y-114761904D02*
X125833333Y-114714285D01*
X125785714Y-114619047D01*
X125785714Y-114476190D01*
X125833333Y-114380952D01*
X125928571Y-114333333D01*
X126452380Y-114333333D01*
X125928571Y-114333333D02*
X125833333Y-114285714D01*
X125785714Y-114190476D01*
X125785714Y-114047619D01*
X125833333Y-113952380D01*
X125928571Y-113904761D01*
X126452380Y-113904761D01*
X126452380Y-113428571D02*
X125785714Y-113428571D01*
X125880952Y-113428571D02*
X125833333Y-113380952D01*
X125785714Y-113285714D01*
X125785714Y-113142857D01*
X125833333Y-113047619D01*
X125928571Y-113000000D01*
X126452380Y-113000000D01*
X125928571Y-113000000D02*
X125833333Y-112952380D01*
X125785714Y-112857142D01*
X125785714Y-112714285D01*
X125833333Y-112619047D01*
X125928571Y-112571428D01*
X126452380Y-112571428D01*
X148000000Y-80000000D02*
X148000000Y-121000000D01*
X125000000Y-80000000D02*
X148000000Y-80000000D01*
X125000000Y-121000000D02*
X125000000Y-80000000D01*
X126000000Y-121000000D02*
X125000000Y-121000000D01*
X127000000Y-121000000D02*
X126000000Y-121000000D01*
X128000000Y-121000000D02*
X127000000Y-121000000D01*
X130000000Y-121000000D02*
X128000000Y-121000000D01*
X148000000Y-121000000D02*
X130000000Y-121000000D01*
M02*
