%TF.GenerationSoftware,KiCad,Pcbnew,5.1.9*%
%TF.CreationDate,2021-06-11T19:37:39+02:00*%
%TF.ProjectId,controller,636f6e74-726f-46c6-9c65-722e6b696361,rev?*%
%TF.SameCoordinates,Original*%
%TF.FileFunction,Other,ECO2*%
%FSLAX46Y46*%
G04 Gerber Fmt 4.6, Leading zero omitted, Abs format (unit mm)*
G04 Created by KiCad (PCBNEW 5.1.9) date 2021-06-11 19:37:39*
%MOMM*%
%LPD*%
G01*
G04 APERTURE LIST*
%ADD10C,0.150000*%
G04 APERTURE END LIST*
D10*
X113023809Y-101928571D02*
X113166666Y-101976190D01*
X113214285Y-102023809D01*
X113261904Y-102119047D01*
X113261904Y-102261904D01*
X113214285Y-102357142D01*
X113166666Y-102404761D01*
X113071428Y-102452380D01*
X112690476Y-102452380D01*
X112690476Y-101452380D01*
X113023809Y-101452380D01*
X113119047Y-101500000D01*
X113166666Y-101547619D01*
X113214285Y-101642857D01*
X113214285Y-101738095D01*
X113166666Y-101833333D01*
X113119047Y-101880952D01*
X113023809Y-101928571D01*
X112690476Y-101928571D01*
X113690476Y-102452380D02*
X113690476Y-101452380D01*
X114023809Y-101452380D02*
X114595238Y-101452380D01*
X114309523Y-102452380D02*
X114309523Y-101452380D01*
X115880952Y-101452380D02*
X115976190Y-101452380D01*
X116071428Y-101500000D01*
X116119047Y-101547619D01*
X116166666Y-101642857D01*
X116214285Y-101833333D01*
X116214285Y-102071428D01*
X116166666Y-102261904D01*
X116119047Y-102357142D01*
X116071428Y-102404761D01*
X115976190Y-102452380D01*
X115880952Y-102452380D01*
X115785714Y-102404761D01*
X115738095Y-102357142D01*
X115690476Y-102261904D01*
X115642857Y-102071428D01*
X115642857Y-101833333D01*
X115690476Y-101642857D01*
X115738095Y-101547619D01*
X115785714Y-101500000D01*
X115880952Y-101452380D01*
X117928571Y-102452380D02*
X117357142Y-102452380D01*
X117642857Y-102452380D02*
X117642857Y-101452380D01*
X117547619Y-101595238D01*
X117452380Y-101690476D01*
X117357142Y-101738095D01*
X119071428Y-101547619D02*
X119119047Y-101500000D01*
X119214285Y-101452380D01*
X119452380Y-101452380D01*
X119547619Y-101500000D01*
X119595238Y-101547619D01*
X119642857Y-101642857D01*
X119642857Y-101738095D01*
X119595238Y-101880952D01*
X119023809Y-102452380D01*
X119642857Y-102452380D01*
X120738095Y-101452380D02*
X121357142Y-101452380D01*
X121023809Y-101833333D01*
X121166666Y-101833333D01*
X121261904Y-101880952D01*
X121309523Y-101928571D01*
X121357142Y-102023809D01*
X121357142Y-102261904D01*
X121309523Y-102357142D01*
X121261904Y-102404761D01*
X121166666Y-102452380D01*
X120880952Y-102452380D01*
X120785714Y-102404761D01*
X120738095Y-102357142D01*
X169833333Y-109404761D02*
X169976190Y-109452380D01*
X170214285Y-109452380D01*
X170309523Y-109404761D01*
X170357142Y-109357142D01*
X170404761Y-109261904D01*
X170404761Y-109166666D01*
X170357142Y-109071428D01*
X170309523Y-109023809D01*
X170214285Y-108976190D01*
X170023809Y-108928571D01*
X169928571Y-108880952D01*
X169880952Y-108833333D01*
X169833333Y-108738095D01*
X169833333Y-108642857D01*
X169880952Y-108547619D01*
X169928571Y-108500000D01*
X170023809Y-108452380D01*
X170261904Y-108452380D01*
X170404761Y-108500000D01*
X170833333Y-108928571D02*
X171166666Y-108928571D01*
X171309523Y-109452380D02*
X170833333Y-109452380D01*
X170833333Y-108452380D01*
X171309523Y-108452380D01*
X172261904Y-108500000D02*
X172166666Y-108452380D01*
X172023809Y-108452380D01*
X171880952Y-108500000D01*
X171785714Y-108595238D01*
X171738095Y-108690476D01*
X171690476Y-108880952D01*
X171690476Y-109023809D01*
X171738095Y-109214285D01*
X171785714Y-109309523D01*
X171880952Y-109404761D01*
X172023809Y-109452380D01*
X172119047Y-109452380D01*
X172261904Y-109404761D01*
X172309523Y-109357142D01*
X172309523Y-109023809D01*
X172119047Y-109023809D01*
X172738095Y-109452380D02*
X172738095Y-108452380D01*
X173071428Y-109166666D01*
X173404761Y-108452380D01*
X173404761Y-109452380D01*
X173880952Y-108928571D02*
X174214285Y-108928571D01*
X174357142Y-109452380D02*
X173880952Y-109452380D01*
X173880952Y-108452380D01*
X174357142Y-108452380D01*
X174785714Y-109452380D02*
X174785714Y-108452380D01*
X175357142Y-109452380D01*
X175357142Y-108452380D01*
X175690476Y-108452380D02*
X176261904Y-108452380D01*
X175976190Y-109452380D02*
X175976190Y-108452380D01*
X204714285Y-73880952D02*
X204619047Y-73833333D01*
X204571428Y-73785714D01*
X204523809Y-73690476D01*
X204523809Y-73642857D01*
X204571428Y-73547619D01*
X204619047Y-73500000D01*
X204714285Y-73452380D01*
X204904761Y-73452380D01*
X205000000Y-73500000D01*
X205047619Y-73547619D01*
X205095238Y-73642857D01*
X205095238Y-73690476D01*
X205047619Y-73785714D01*
X205000000Y-73833333D01*
X204904761Y-73880952D01*
X204714285Y-73880952D01*
X204619047Y-73928571D01*
X204571428Y-73976190D01*
X204523809Y-74071428D01*
X204523809Y-74261904D01*
X204571428Y-74357142D01*
X204619047Y-74404761D01*
X204714285Y-74452380D01*
X204904761Y-74452380D01*
X205000000Y-74404761D01*
X205047619Y-74357142D01*
X205095238Y-74261904D01*
X205095238Y-74071428D01*
X205047619Y-73976190D01*
X205000000Y-73928571D01*
X204904761Y-73880952D01*
X205428571Y-73452380D02*
X206047619Y-73452380D01*
X205714285Y-73833333D01*
X205857142Y-73833333D01*
X205952380Y-73880952D01*
X206000000Y-73928571D01*
X206047619Y-74023809D01*
X206047619Y-74261904D01*
X206000000Y-74357142D01*
X205952380Y-74404761D01*
X205857142Y-74452380D01*
X205571428Y-74452380D01*
X205476190Y-74404761D01*
X205428571Y-74357142D01*
X207238095Y-74452380D02*
X207238095Y-73785714D01*
X207238095Y-73880952D02*
X207285714Y-73833333D01*
X207380952Y-73785714D01*
X207523809Y-73785714D01*
X207619047Y-73833333D01*
X207666666Y-73928571D01*
X207666666Y-74452380D01*
X207666666Y-73928571D02*
X207714285Y-73833333D01*
X207809523Y-73785714D01*
X207952380Y-73785714D01*
X208047619Y-73833333D01*
X208095238Y-73928571D01*
X208095238Y-74452380D01*
X208571428Y-74452380D02*
X208571428Y-73785714D01*
X208571428Y-73880952D02*
X208619047Y-73833333D01*
X208714285Y-73785714D01*
X208857142Y-73785714D01*
X208952380Y-73833333D01*
X209000000Y-73928571D01*
X209000000Y-74452380D01*
X209000000Y-73928571D02*
X209047619Y-73833333D01*
X209142857Y-73785714D01*
X209285714Y-73785714D01*
X209380952Y-73833333D01*
X209428571Y-73928571D01*
X209428571Y-74452380D01*
X199619047Y-37452380D02*
X199047619Y-37452380D01*
X199333333Y-37452380D02*
X199333333Y-36452380D01*
X199238095Y-36595238D01*
X199142857Y-36690476D01*
X199047619Y-36738095D01*
X200000000Y-36547619D02*
X200047619Y-36500000D01*
X200142857Y-36452380D01*
X200380952Y-36452380D01*
X200476190Y-36500000D01*
X200523809Y-36547619D01*
X200571428Y-36642857D01*
X200571428Y-36738095D01*
X200523809Y-36880952D01*
X199952380Y-37452380D01*
X200571428Y-37452380D01*
X201476190Y-36452380D02*
X201000000Y-36452380D01*
X200952380Y-36928571D01*
X201000000Y-36880952D01*
X201095238Y-36833333D01*
X201333333Y-36833333D01*
X201428571Y-36880952D01*
X201476190Y-36928571D01*
X201523809Y-37023809D01*
X201523809Y-37261904D01*
X201476190Y-37357142D01*
X201428571Y-37404761D01*
X201333333Y-37452380D01*
X201095238Y-37452380D01*
X201000000Y-37404761D01*
X200952380Y-37357142D01*
X202714285Y-37452380D02*
X202714285Y-36785714D01*
X202714285Y-36880952D02*
X202761904Y-36833333D01*
X202857142Y-36785714D01*
X203000000Y-36785714D01*
X203095238Y-36833333D01*
X203142857Y-36928571D01*
X203142857Y-37452380D01*
X203142857Y-36928571D02*
X203190476Y-36833333D01*
X203285714Y-36785714D01*
X203428571Y-36785714D01*
X203523809Y-36833333D01*
X203571428Y-36928571D01*
X203571428Y-37452380D01*
X204047619Y-37452380D02*
X204047619Y-36785714D01*
X204047619Y-36880952D02*
X204095238Y-36833333D01*
X204190476Y-36785714D01*
X204333333Y-36785714D01*
X204428571Y-36833333D01*
X204476190Y-36928571D01*
X204476190Y-37452380D01*
X204476190Y-36928571D02*
X204523809Y-36833333D01*
X204619047Y-36785714D01*
X204761904Y-36785714D01*
X204857142Y-36833333D01*
X204904761Y-36928571D01*
X204904761Y-37452380D01*
X210000000Y-36000000D02*
X112000000Y-36000000D01*
X210000000Y-119000000D02*
X210000000Y-36000000D01*
X208000000Y-119000000D02*
X210000000Y-119000000D01*
X85000000Y-119000000D02*
X85000000Y-36000000D01*
X86000000Y-119000000D02*
X85000000Y-119000000D01*
X208000000Y-119000000D02*
X86000000Y-119000000D01*
X88000000Y-36000000D02*
X85000000Y-36000000D01*
X112000000Y-36000000D02*
X88000000Y-36000000D01*
M02*
