%TF.GenerationSoftware,KiCad,Pcbnew,5.1.9*%
%TF.CreationDate,2021-06-11T19:37:39+02:00*%
%TF.ProjectId,controller,636f6e74-726f-46c6-9c65-722e6b696361,rev?*%
%TF.SameCoordinates,Original*%
%TF.FileFunction,Copper,L2,Bot*%
%TF.FilePolarity,Positive*%
%FSLAX46Y46*%
G04 Gerber Fmt 4.6, Leading zero omitted, Abs format (unit mm)*
G04 Created by KiCad (PCBNEW 5.1.9) date 2021-06-11 19:37:39*
%MOMM*%
%LPD*%
G01*
G04 APERTURE LIST*
%TA.AperFunction,ComponentPad*%
%ADD10C,8.000000*%
%TD*%
%TA.AperFunction,ComponentPad*%
%ADD11C,1.700000*%
%TD*%
%TA.AperFunction,ComponentPad*%
%ADD12C,2.900000*%
%TD*%
%TA.AperFunction,ComponentPad*%
%ADD13O,1.600000X1.600000*%
%TD*%
%TA.AperFunction,ComponentPad*%
%ADD14C,1.600000*%
%TD*%
%TA.AperFunction,ComponentPad*%
%ADD15R,1.600000X1.600000*%
%TD*%
%TA.AperFunction,ComponentPad*%
%ADD16R,1.800000X1.800000*%
%TD*%
%TA.AperFunction,ComponentPad*%
%ADD17C,1.800000*%
%TD*%
%TA.AperFunction,ComponentPad*%
%ADD18O,1.800000X1.800000*%
%TD*%
%TA.AperFunction,ComponentPad*%
%ADD19R,2.400000X2.400000*%
%TD*%
%TA.AperFunction,ComponentPad*%
%ADD20C,2.400000*%
%TD*%
%TA.AperFunction,ViaPad*%
%ADD21C,0.800000*%
%TD*%
%TA.AperFunction,Conductor*%
%ADD22C,0.250000*%
%TD*%
%TA.AperFunction,Conductor*%
%ADD23C,2.000000*%
%TD*%
%TA.AperFunction,Conductor*%
%ADD24C,1.500000*%
%TD*%
%TA.AperFunction,Conductor*%
%ADD25C,2.500000*%
%TD*%
%TA.AperFunction,Conductor*%
%ADD26C,3.000000*%
%TD*%
%TA.AperFunction,Conductor*%
%ADD27C,4.000000*%
%TD*%
%TA.AperFunction,Conductor*%
%ADD28C,1.000000*%
%TD*%
G04 APERTURE END LIST*
D10*
%TO.P,J3,MP*%
%TO.N,N/C*%
X96980000Y-67900000D03*
X96980000Y-95940000D03*
D11*
%TO.P,J3,10*%
%TO.N,Earth*%
X95460000Y-76840000D03*
%TO.P,J3,8*%
X95460000Y-79380000D03*
%TO.P,J3,6*%
X95460000Y-81920000D03*
%TO.P,J3,4*%
X95460000Y-84460000D03*
%TO.P,J3,2*%
X95460000Y-87000000D03*
%TO.P,J3,9*%
X98000000Y-76840000D03*
%TO.P,J3,7*%
%TO.N,/BIT_D*%
X98000000Y-79380000D03*
%TO.P,J3,5*%
%TO.N,/BIT_C*%
X98000000Y-81920000D03*
%TO.P,J3,3*%
%TO.N,/BIT_B*%
X98000000Y-84460000D03*
%TO.P,J3,1*%
%TO.N,/BIT_A*%
%TA.AperFunction,ComponentPad*%
G36*
G01*
X98850000Y-86400000D02*
X98850000Y-87600000D01*
G75*
G02*
X98600000Y-87850000I-250000J0D01*
G01*
X97400000Y-87850000D01*
G75*
G02*
X97150000Y-87600000I0J250000D01*
G01*
X97150000Y-86400000D01*
G75*
G02*
X97400000Y-86150000I250000J0D01*
G01*
X98600000Y-86150000D01*
G75*
G02*
X98850000Y-86400000I0J-250000D01*
G01*
G37*
%TD.AperFunction*%
%TD*%
%TO.P,J2,1*%
%TO.N,/SEG_D*%
%TA.AperFunction,ComponentPad*%
G36*
G01*
X172400000Y-103130000D02*
X173600000Y-103130000D01*
G75*
G02*
X173850000Y-103380000I0J-250000D01*
G01*
X173850000Y-104580000D01*
G75*
G02*
X173600000Y-104830000I-250000J0D01*
G01*
X172400000Y-104830000D01*
G75*
G02*
X172150000Y-104580000I0J250000D01*
G01*
X172150000Y-103380000D01*
G75*
G02*
X172400000Y-103130000I250000J0D01*
G01*
G37*
%TD.AperFunction*%
%TO.P,J2,3*%
%TO.N,/SEG_E*%
X170460000Y-103980000D03*
%TO.P,J2,5*%
%TO.N,/SEG_F*%
X167920000Y-103980000D03*
%TO.P,J2,7*%
%TO.N,/SEG_G*%
X165380000Y-103980000D03*
%TO.P,J2,9*%
%TO.N,/+12V*%
X162840000Y-103980000D03*
%TO.P,J2,2*%
%TO.N,/SEG_C*%
X173000000Y-106520000D03*
%TO.P,J2,4*%
%TO.N,/SEG_B*%
X170460000Y-106520000D03*
%TO.P,J2,6*%
%TO.N,/SEG_A*%
X167920000Y-106520000D03*
%TO.P,J2,8*%
%TO.N,/+12V*%
X165380000Y-106520000D03*
%TO.P,J2,10*%
X162840000Y-106520000D03*
D10*
%TO.P,J2,MP*%
%TO.N,N/C*%
X181940000Y-105000000D03*
X153900000Y-105000000D03*
%TD*%
D12*
%TO.P,J0,4*%
%TO.N,/5V+*%
X91380000Y-43000000D03*
%TO.P,J0,3*%
%TO.N,Earth*%
X96460000Y-43000000D03*
%TO.P,J0,2*%
X101540000Y-43000000D03*
%TO.P,J0,1*%
%TO.N,/+12V*%
X106620000Y-43000000D03*
%TD*%
D13*
%TO.P,L0,2*%
%TO.N,Net-(C1-Pad1)*%
X94000000Y-58160000D03*
D14*
%TO.P,L0,1*%
%TO.N,/5V+*%
X94000000Y-48000000D03*
%TD*%
%TO.P,C6,2*%
%TO.N,Earth*%
X145000000Y-38000000D03*
%TO.P,C6,1*%
%TO.N,Net-(C1-Pad1)*%
X145000000Y-43000000D03*
%TD*%
%TO.P,C1,2*%
%TO.N,Earth*%
X127000000Y-51000000D03*
D15*
%TO.P,C1,1*%
%TO.N,Net-(C1-Pad1)*%
X129000000Y-51000000D03*
%TD*%
D14*
%TO.P,C4,2*%
%TO.N,Earth*%
X133000000Y-94000000D03*
%TO.P,C4,1*%
%TO.N,/+12V*%
X138000000Y-94000000D03*
%TD*%
%TO.P,C3,2*%
%TO.N,Earth*%
X131000000Y-38000000D03*
%TO.P,C3,1*%
%TO.N,Net-(C1-Pad1)*%
X131000000Y-43000000D03*
%TD*%
%TO.P,C2,2*%
%TO.N,Earth*%
X138000000Y-38000000D03*
%TO.P,C2,1*%
%TO.N,Net-(C1-Pad1)*%
X138000000Y-43000000D03*
%TD*%
D13*
%TO.P,R14,2*%
%TO.N,Net-(R0-Pad1)*%
X165000000Y-37840000D03*
D14*
%TO.P,R14,1*%
%TO.N,Net-(D7-Pad2)*%
X165000000Y-48000000D03*
%TD*%
%TO.P,R15,2*%
%TO.N,Net-(R1-Pad1)*%
%TA.AperFunction,ComponentPad*%
G36*
G01*
X147197275Y-71802725D02*
X147197275Y-71802725D01*
G75*
G02*
X147197275Y-72934095I-565685J-565685D01*
G01*
X147197275Y-72934095D01*
G75*
G02*
X146065905Y-72934095I-565685J565685D01*
G01*
X146065905Y-72934095D01*
G75*
G02*
X146065905Y-71802725I565685J565685D01*
G01*
X146065905Y-71802725D01*
G75*
G02*
X147197275Y-71802725I565685J-565685D01*
G01*
G37*
%TD.AperFunction*%
%TO.P,R15,1*%
%TO.N,Net-(D8-Pad2)*%
X161000000Y-58000000D03*
%TD*%
D15*
%TO.P,U1,1*%
%TO.N,Net-(R8-Pad1)*%
X133000000Y-52000000D03*
D13*
%TO.P,U1,11*%
%TO.N,Net-(U1-Pad11)*%
X140620000Y-74860000D03*
%TO.P,U1,2*%
%TO.N,Net-(U1-Pad2)*%
X133000000Y-54540000D03*
%TO.P,U1,12*%
%TO.N,Net-(U1-Pad12)*%
X140620000Y-72320000D03*
%TO.P,U1,3*%
%TO.N,Net-(U1-Pad3)*%
X133000000Y-57080000D03*
%TO.P,U1,13*%
%TO.N,Net-(R0-Pad1)*%
X140620000Y-69780000D03*
%TO.P,U1,4*%
%TO.N,Net-(U1-Pad4)*%
X133000000Y-59620000D03*
%TO.P,U1,14*%
%TO.N,Net-(R1-Pad1)*%
X140620000Y-67240000D03*
%TO.P,U1,5*%
%TO.N,Net-(U1-Pad5)*%
X133000000Y-62160000D03*
%TO.P,U1,15*%
%TO.N,Net-(R16-Pad2)*%
X140620000Y-64700000D03*
%TO.P,U1,6*%
%TO.N,/BIT_D*%
X133000000Y-64700000D03*
%TO.P,U1,16*%
%TO.N,Net-(R17-Pad2)*%
X140620000Y-62160000D03*
%TO.P,U1,7*%
%TO.N,/BIT_C*%
X133000000Y-67240000D03*
%TO.P,U1,17*%
%TO.N,Net-(R18-Pad2)*%
X140620000Y-59620000D03*
%TO.P,U1,8*%
%TO.N,/BIT_B*%
X133000000Y-69780000D03*
%TO.P,U1,18*%
%TO.N,Net-(R19-Pad2)*%
X140620000Y-57080000D03*
%TO.P,U1,9*%
%TO.N,/BIT_A*%
X133000000Y-72320000D03*
%TO.P,U1,19*%
%TO.N,Net-(R20-Pad2)*%
X140620000Y-54540000D03*
%TO.P,U1,10*%
%TO.N,Earth*%
X133000000Y-74860000D03*
%TO.P,U1,20*%
%TO.N,Net-(C1-Pad1)*%
X140620000Y-52000000D03*
%TD*%
D16*
%TO.P,D1,1*%
%TO.N,Earth*%
X109540000Y-51000000D03*
D17*
%TO.P,D1,2*%
%TO.N,Net-(D1-Pad2)*%
X109540000Y-53540000D03*
%TD*%
D16*
%TO.P,D2,1*%
%TO.N,Earth*%
X106000000Y-97540000D03*
D17*
%TO.P,D2,2*%
%TO.N,Net-(D2-Pad2)*%
X106000000Y-95000000D03*
%TD*%
D16*
%TO.P,D3,1*%
%TO.N,Earth*%
X113000000Y-97540000D03*
D17*
%TO.P,D3,2*%
%TO.N,Net-(D3-Pad2)*%
X113000000Y-95000000D03*
%TD*%
D16*
%TO.P,D4,1*%
%TO.N,Earth*%
X120000000Y-97540000D03*
D17*
%TO.P,D4,2*%
%TO.N,Net-(D4-Pad2)*%
X120000000Y-95000000D03*
%TD*%
%TO.P,D5,2*%
%TO.N,Net-(D5-Pad2)*%
X127000000Y-95000000D03*
D16*
%TO.P,D5,1*%
%TO.N,Earth*%
X127000000Y-97540000D03*
%TD*%
%TO.P,D6,1*%
%TO.N,Earth*%
X115460000Y-49000000D03*
D17*
%TO.P,D6,2*%
%TO.N,Net-(D6-Pad2)*%
X118000000Y-49000000D03*
%TD*%
%TO.P,D7,2*%
%TO.N,Net-(D7-Pad2)*%
X171000000Y-50540000D03*
D16*
%TO.P,D7,1*%
%TO.N,Earth*%
X171000000Y-48000000D03*
%TD*%
D17*
%TO.P,D8,2*%
%TO.N,Net-(D8-Pad2)*%
X178000000Y-58540000D03*
D16*
%TO.P,D8,1*%
%TO.N,Earth*%
X178000000Y-56000000D03*
%TD*%
D17*
%TO.P,D9,2*%
%TO.N,Net-(D9-Pad2)*%
X178000000Y-43540000D03*
D16*
%TO.P,D9,1*%
%TO.N,Earth*%
X178000000Y-41000000D03*
%TD*%
D17*
%TO.P,D10,2*%
%TO.N,Net-(D10-Pad2)*%
X185000000Y-50540000D03*
D16*
%TO.P,D10,1*%
%TO.N,Earth*%
X185000000Y-48000000D03*
%TD*%
%TO.P,D11,1*%
%TO.N,Earth*%
X192000000Y-56000000D03*
D17*
%TO.P,D11,2*%
%TO.N,Net-(D11-Pad2)*%
X192000000Y-58540000D03*
%TD*%
%TO.P,D12,2*%
%TO.N,Net-(D12-Pad2)*%
X192000000Y-43540000D03*
D16*
%TO.P,D12,1*%
%TO.N,Earth*%
X192000000Y-41000000D03*
%TD*%
%TO.P,D13,1*%
%TO.N,Earth*%
X199000000Y-51000000D03*
D17*
%TO.P,D13,2*%
%TO.N,Net-(D13-Pad2)*%
X199000000Y-48460000D03*
%TD*%
D18*
%TO.P,Q0,3*%
%TO.N,Net-(Q0-Pad3)*%
X141000000Y-90080000D03*
%TO.P,Q0,2*%
%TO.N,/SEG_G*%
X141000000Y-87540000D03*
D16*
%TO.P,Q0,1*%
%TO.N,Earth*%
X141000000Y-85000000D03*
%TD*%
%TO.P,Q1,1*%
%TO.N,Earth*%
X151000000Y-84920000D03*
D18*
%TO.P,Q1,2*%
%TO.N,/SEG_F*%
X151000000Y-87460000D03*
%TO.P,Q1,3*%
%TO.N,Net-(Q1-Pad3)*%
X151000000Y-90000000D03*
%TD*%
%TO.P,Q2,3*%
%TO.N,Net-(Q2-Pad3)*%
X161000000Y-90000000D03*
%TO.P,Q2,2*%
%TO.N,/SEG_E*%
X161000000Y-87460000D03*
D16*
%TO.P,Q2,1*%
%TO.N,Earth*%
X161000000Y-84920000D03*
%TD*%
%TO.P,Q3,1*%
%TO.N,Earth*%
X171000000Y-84920000D03*
D18*
%TO.P,Q3,2*%
%TO.N,/SEG_D*%
X171000000Y-87460000D03*
%TO.P,Q3,3*%
%TO.N,Net-(Q3-Pad3)*%
X171000000Y-90000000D03*
%TD*%
D16*
%TO.P,Q4,1*%
%TO.N,Earth*%
X181000000Y-84920000D03*
D18*
%TO.P,Q4,2*%
%TO.N,/SEG_C*%
X181000000Y-87460000D03*
%TO.P,Q4,3*%
%TO.N,Net-(Q4-Pad3)*%
X181000000Y-90000000D03*
%TD*%
%TO.P,Q5,3*%
%TO.N,Net-(Q5-Pad3)*%
X192000000Y-90080000D03*
%TO.P,Q5,2*%
%TO.N,/SEG_B*%
X192000000Y-87540000D03*
D16*
%TO.P,Q5,1*%
%TO.N,Earth*%
X192000000Y-85000000D03*
%TD*%
%TO.P,Q6,1*%
%TO.N,Earth*%
X203000000Y-85000000D03*
D18*
%TO.P,Q6,2*%
%TO.N,/SEG_A*%
X203000000Y-87540000D03*
%TO.P,Q6,3*%
%TO.N,Net-(Q6-Pad3)*%
X203000000Y-90080000D03*
%TD*%
D14*
%TO.P,R0,1*%
%TO.N,Net-(R0-Pad1)*%
X137000000Y-80000000D03*
D13*
%TO.P,R0,2*%
%TO.N,Net-(Q0-Pad3)*%
X137000000Y-90160000D03*
%TD*%
%TO.P,R1,2*%
%TO.N,Net-(Q1-Pad3)*%
X147000000Y-90000000D03*
D14*
%TO.P,R1,1*%
%TO.N,Net-(R1-Pad1)*%
X147000000Y-79840000D03*
%TD*%
D13*
%TO.P,R2,2*%
%TO.N,Net-(Q2-Pad3)*%
X157000000Y-90160000D03*
D14*
%TO.P,R2,1*%
%TO.N,Net-(R16-Pad2)*%
X157000000Y-80000000D03*
%TD*%
%TO.P,R3,1*%
%TO.N,Net-(R17-Pad2)*%
X167000000Y-80000000D03*
D13*
%TO.P,R3,2*%
%TO.N,Net-(Q3-Pad3)*%
X167000000Y-90160000D03*
%TD*%
%TO.P,R4,2*%
%TO.N,Net-(Q4-Pad3)*%
X177000000Y-90000000D03*
D14*
%TO.P,R4,1*%
%TO.N,Net-(R18-Pad2)*%
X177000000Y-79840000D03*
%TD*%
%TO.P,R5,1*%
%TO.N,Net-(R19-Pad2)*%
X187000000Y-79840000D03*
D13*
%TO.P,R5,2*%
%TO.N,Net-(Q5-Pad3)*%
X187000000Y-90000000D03*
%TD*%
D14*
%TO.P,R6,1*%
%TO.N,Net-(R20-Pad2)*%
X198000000Y-79840000D03*
D13*
%TO.P,R6,2*%
%TO.N,Net-(Q6-Pad3)*%
X198000000Y-90000000D03*
%TD*%
D14*
%TO.P,R7,1*%
%TO.N,Net-(D1-Pad2)*%
X99000000Y-58000000D03*
D13*
%TO.P,R7,2*%
%TO.N,/5V+*%
X99000000Y-47840000D03*
%TD*%
%TO.P,R8,2*%
%TO.N,Net-(C1-Pad1)*%
X145160000Y-46000000D03*
D14*
%TO.P,R8,1*%
%TO.N,Net-(R8-Pad1)*%
X135000000Y-46000000D03*
%TD*%
%TO.P,R9,1*%
%TO.N,Net-(D2-Pad2)*%
X106000000Y-90160000D03*
D13*
%TO.P,R9,2*%
%TO.N,/BIT_D*%
X106000000Y-80000000D03*
%TD*%
%TO.P,R10,2*%
%TO.N,/BIT_C*%
X113000000Y-80840000D03*
D14*
%TO.P,R10,1*%
%TO.N,Net-(D3-Pad2)*%
X113000000Y-91000000D03*
%TD*%
D13*
%TO.P,R11,2*%
%TO.N,/BIT_B*%
X120000000Y-80840000D03*
D14*
%TO.P,R11,1*%
%TO.N,Net-(D4-Pad2)*%
X120000000Y-91000000D03*
%TD*%
%TO.P,R12,1*%
%TO.N,Net-(D5-Pad2)*%
X127000000Y-91000000D03*
D13*
%TO.P,R12,2*%
%TO.N,/BIT_A*%
X127000000Y-80840000D03*
%TD*%
D14*
%TO.P,R13,1*%
%TO.N,Net-(D6-Pad2)*%
X123000000Y-39000000D03*
D13*
%TO.P,R13,2*%
%TO.N,/+12V*%
X112840000Y-39000000D03*
%TD*%
%TO.P,R18,2*%
%TO.N,Net-(R18-Pad2)*%
X172000000Y-77000000D03*
D14*
%TO.P,R18,1*%
%TO.N,Net-(D11-Pad2)*%
X172000000Y-66840000D03*
%TD*%
%TO.P,R19,1*%
%TO.N,Net-(D12-Pad2)*%
X183000000Y-69840000D03*
D13*
%TO.P,R19,2*%
%TO.N,Net-(R19-Pad2)*%
X183000000Y-80000000D03*
%TD*%
%TO.P,R20,2*%
%TO.N,Net-(R20-Pad2)*%
X205000000Y-58160000D03*
D14*
%TO.P,R20,1*%
%TO.N,Net-(D13-Pad2)*%
X205000000Y-48000000D03*
%TD*%
%TO.P,R16,1*%
%TO.N,Net-(D9-Pad2)*%
X155000000Y-54000000D03*
%TO.P,R16,2*%
%TO.N,Net-(R16-Pad2)*%
%TA.AperFunction,ComponentPad*%
G36*
G01*
X144789378Y-64210622D02*
X144789378Y-64210622D01*
G75*
G02*
X144789378Y-65341992I-565685J-565685D01*
G01*
X144789378Y-65341992D01*
G75*
G02*
X143658008Y-65341992I-565685J565685D01*
G01*
X143658008Y-65341992D01*
G75*
G02*
X143658008Y-64210622I565685J565685D01*
G01*
X143658008Y-64210622D01*
G75*
G02*
X144789378Y-64210622I565685J-565685D01*
G01*
G37*
%TD.AperFunction*%
%TD*%
%TO.P,R17,2*%
%TO.N,Net-(R17-Pad2)*%
%TA.AperFunction,ComponentPad*%
G36*
G01*
X157789378Y-73210622D02*
X157789378Y-73210622D01*
G75*
G02*
X157789378Y-74341992I-565685J-565685D01*
G01*
X157789378Y-74341992D01*
G75*
G02*
X156658008Y-74341992I-565685J565685D01*
G01*
X156658008Y-74341992D01*
G75*
G02*
X156658008Y-73210622I565685J565685D01*
G01*
X156658008Y-73210622D01*
G75*
G02*
X157789378Y-73210622I565685J-565685D01*
G01*
G37*
%TD.AperFunction*%
%TO.P,R17,1*%
%TO.N,Net-(D10-Pad2)*%
X168000000Y-63000000D03*
%TD*%
D19*
%TO.P,C5,1*%
%TO.N,/+12V*%
X138000000Y-107000000D03*
D20*
%TO.P,C5,2*%
%TO.N,Earth*%
X133000000Y-107000000D03*
%TD*%
D21*
%TO.N,*%
X108000000Y-68000000D03*
X109000000Y-106000000D03*
X192000000Y-104000000D03*
X204000000Y-41000000D03*
%TD*%
D22*
%TO.N,*%
X108000000Y-66000000D02*
X106000000Y-68000000D01*
X106000000Y-68000000D02*
X108000000Y-70000000D01*
X108000000Y-70000000D02*
X110000000Y-68000000D01*
X110000000Y-68000000D02*
X108000000Y-66000000D01*
X109000000Y-108000000D02*
X111000000Y-106000000D01*
X111000000Y-106000000D02*
X109000000Y-104000000D01*
X109000000Y-104000000D02*
X107000000Y-106000000D01*
X107000000Y-106000000D02*
X109000000Y-108000000D01*
X192000000Y-102000000D02*
X190000000Y-104000000D01*
X190000000Y-104000000D02*
X192000000Y-106000000D01*
X192000000Y-106000000D02*
X194000000Y-104000000D01*
X194000000Y-104000000D02*
X192000000Y-102000000D01*
X204000000Y-39000000D02*
X202000000Y-41000000D01*
X202000000Y-41000000D02*
X204000000Y-43000000D01*
X204000000Y-43000000D02*
X206000000Y-41000000D01*
X206000000Y-41000000D02*
X204000000Y-39000000D01*
D23*
%TO.N,Earth*%
X120000000Y-97540000D02*
X113000000Y-97540000D01*
X113000000Y-97540000D02*
X106000000Y-97540000D01*
X127000000Y-97540000D02*
X129900000Y-97540000D01*
D24*
X133000000Y-74860000D02*
X133000000Y-78000000D01*
D23*
X133000000Y-85000000D02*
X133000000Y-78000000D01*
X133000000Y-88000000D02*
X133000000Y-85000000D01*
D24*
X133000000Y-74860000D02*
X133860000Y-74860000D01*
D23*
X141000000Y-85000000D02*
X139000000Y-85000000D01*
D24*
X139000000Y-85000000D02*
X133000000Y-85000000D01*
D23*
X141000000Y-85000000D02*
X143000000Y-85000000D01*
X150080000Y-84920000D02*
X150000000Y-85000000D01*
X151000000Y-84920000D02*
X150080000Y-84920000D01*
D24*
X143000000Y-85000000D02*
X150000000Y-85000000D01*
D23*
X151000000Y-84920000D02*
X152080000Y-84920000D01*
X161000000Y-84920000D02*
X159920000Y-84920000D01*
D24*
X152080000Y-84920000D02*
X159920000Y-84920000D01*
D23*
X161000000Y-84920000D02*
X162080000Y-84920000D01*
X171000000Y-84920000D02*
X169920000Y-84920000D01*
D24*
X162080000Y-84920000D02*
X169920000Y-84920000D01*
D23*
X171000000Y-84920000D02*
X172080000Y-84920000D01*
X181000000Y-84920000D02*
X180080000Y-84920000D01*
D24*
X180080000Y-84920000D02*
X172080000Y-84920000D01*
D23*
X181000000Y-84920000D02*
X182080000Y-84920000D01*
X191160000Y-85000000D02*
X191080000Y-84920000D01*
X192000000Y-85000000D02*
X191160000Y-85000000D01*
D24*
X182080000Y-84920000D02*
X191080000Y-84920000D01*
D23*
X192000000Y-85000000D02*
X193000000Y-85000000D01*
X203000000Y-85000000D02*
X202000000Y-85000000D01*
D24*
X193000000Y-85000000D02*
X202000000Y-85000000D01*
D23*
X203000000Y-85000000D02*
X204000000Y-85000000D01*
D24*
X171000000Y-48000000D02*
X178000000Y-48000000D01*
X185000000Y-41000000D02*
X192000000Y-41000000D01*
X178000000Y-41000000D02*
X185000000Y-41000000D01*
X181500000Y-44500000D02*
X185000000Y-48000000D01*
X178000000Y-48000000D02*
X181500000Y-44500000D01*
X181500000Y-44500000D02*
X185000000Y-41000000D01*
X178000000Y-56000000D02*
X184000000Y-56000000D01*
X184000000Y-56000000D02*
X188000000Y-52000000D01*
X187400000Y-48000000D02*
X185000000Y-48000000D01*
X188000000Y-48600000D02*
X187400000Y-48000000D01*
X188000000Y-52000000D02*
X188000000Y-48600000D01*
X195000000Y-53000000D02*
X195000000Y-41000000D01*
X192000000Y-56000000D02*
X195000000Y-53000000D01*
X192000000Y-41000000D02*
X195000000Y-41000000D01*
X197000000Y-51000000D02*
X195000000Y-53000000D01*
X199000000Y-51000000D02*
X197000000Y-51000000D01*
D23*
X123460000Y-97540000D02*
X120000000Y-97540000D01*
X127000000Y-97540000D02*
X123460000Y-97540000D01*
X133000000Y-85000000D02*
X204000000Y-85000000D01*
D25*
X133000000Y-92000000D02*
X133000000Y-94440000D01*
D23*
X133000000Y-92000000D02*
X133000000Y-88000000D01*
D25*
X133000000Y-94440000D02*
X132220000Y-95220000D01*
X133000000Y-94000000D02*
X133000000Y-94440000D01*
D23*
X129900000Y-97540000D02*
X132220000Y-95220000D01*
X130000000Y-108000000D02*
X129000000Y-107000000D01*
X134000000Y-107000000D02*
X130000000Y-107000000D01*
X129000000Y-107000000D02*
X134000000Y-107000000D01*
X135000000Y-108000000D02*
X130000000Y-108000000D01*
X135000000Y-106000000D02*
X135000000Y-108000000D01*
X128000000Y-106000000D02*
X135000000Y-106000000D01*
X125000000Y-103000000D02*
X128000000Y-106000000D01*
X125000000Y-99080000D02*
X125000000Y-103000000D01*
X123460000Y-97540000D02*
X125000000Y-99080000D01*
D24*
X127000000Y-51000000D02*
X127000000Y-50000000D01*
X127000000Y-50000000D02*
X125000000Y-50000000D01*
X125000000Y-50000000D02*
X124000000Y-49000000D01*
X124000000Y-49000000D02*
X123000000Y-48000000D01*
X127000000Y-51000000D02*
X127000000Y-52000000D01*
X126000000Y-52000000D02*
X125000000Y-51000000D01*
X127000000Y-52000000D02*
X126000000Y-52000000D01*
X127000000Y-51000000D02*
X126000000Y-51000000D01*
D23*
X161000000Y-41000000D02*
X163000000Y-41000000D01*
D24*
X163000000Y-41000000D02*
X178000000Y-41000000D01*
D23*
X156000000Y-39000000D02*
X155000000Y-39000000D01*
X158000000Y-41000000D02*
X156000000Y-39000000D01*
X161000000Y-41000000D02*
X158000000Y-41000000D01*
X159000000Y-39000000D02*
X159500000Y-39500000D01*
X155000000Y-39000000D02*
X159000000Y-39000000D01*
X159500000Y-39500000D02*
X161000000Y-41000000D01*
X91000000Y-57000000D02*
X94020000Y-53980000D01*
D25*
X101020000Y-53980000D02*
X99020000Y-53980000D01*
X102980000Y-53980000D02*
X101020000Y-53980000D01*
X97020000Y-53980000D02*
X94020000Y-53980000D01*
X99020000Y-53980000D02*
X97020000Y-53980000D01*
X103000000Y-53960000D02*
X102980000Y-53980000D01*
D26*
X103000000Y-44460000D02*
X103000000Y-46000000D01*
X101540000Y-43000000D02*
X103000000Y-44460000D01*
D25*
X103000000Y-53000000D02*
X103000000Y-53960000D01*
X109540000Y-51000000D02*
X105000000Y-51000000D01*
X109540000Y-51000000D02*
X115000000Y-51000000D01*
X103000000Y-49000000D02*
X105000000Y-51000000D01*
D26*
X103000000Y-46000000D02*
X103000000Y-48000000D01*
D25*
X103000000Y-48000000D02*
X103000000Y-49000000D01*
D26*
X103000000Y-48000000D02*
X103000000Y-53000000D01*
D25*
X103000000Y-53000000D02*
X105000000Y-51000000D01*
X123000000Y-53000000D02*
X125000000Y-51000000D01*
X117000000Y-53000000D02*
X123000000Y-53000000D01*
X115000000Y-51000000D02*
X117000000Y-53000000D01*
D23*
X91000000Y-66000000D02*
X91000000Y-57000000D01*
X91000000Y-74000000D02*
X91000000Y-66000000D01*
D27*
X101540000Y-43000000D02*
X96460000Y-43000000D01*
D25*
X123000000Y-48000000D02*
X123000000Y-45000000D01*
D23*
X129000000Y-39000000D02*
X155000000Y-39000000D01*
D25*
X123000000Y-45000000D02*
X129000000Y-39000000D01*
D23*
X158000000Y-38000000D02*
X159500000Y-39500000D01*
X129000000Y-38000000D02*
X158000000Y-38000000D01*
D25*
X123000000Y-48000000D02*
X123000000Y-49000000D01*
X123000000Y-49000000D02*
X125000000Y-51000000D01*
D23*
X104540000Y-99460000D02*
X104540000Y-97540000D01*
X101000000Y-103000000D02*
X104540000Y-99460000D01*
X94000000Y-103000000D02*
X101000000Y-103000000D01*
X91000000Y-100000000D02*
X94000000Y-103000000D01*
X106000000Y-97540000D02*
X104540000Y-97540000D01*
X95460000Y-76840000D02*
X95460000Y-79380000D01*
X95460000Y-79380000D02*
X95460000Y-81920000D01*
X95460000Y-81920000D02*
X95460000Y-84460000D01*
X95460000Y-84460000D02*
X95460000Y-87000000D01*
X95460000Y-87000000D02*
X95460000Y-88540000D01*
X92460000Y-88540000D02*
X91000000Y-90000000D01*
X91000000Y-90000000D02*
X91000000Y-100000000D01*
X91000000Y-74000000D02*
X91000000Y-75000000D01*
X93460000Y-77540000D02*
X94160000Y-76840000D01*
X93460000Y-88540000D02*
X93460000Y-77540000D01*
X94160000Y-76840000D02*
X92840000Y-76840000D01*
X95460000Y-76840000D02*
X94160000Y-76840000D01*
X95460000Y-88540000D02*
X93460000Y-88540000D01*
X93460000Y-88540000D02*
X92460000Y-88540000D01*
X91000000Y-76000000D02*
X91000000Y-90000000D01*
X91000000Y-77000000D02*
X91000000Y-76000000D01*
X92460000Y-78460000D02*
X91000000Y-77000000D01*
X92460000Y-88540000D02*
X92460000Y-78460000D01*
X95460000Y-76840000D02*
X98000000Y-76840000D01*
X98000000Y-76840000D02*
X98840000Y-76840000D01*
X91000000Y-76000000D02*
X91000000Y-75000000D01*
X98840000Y-76840000D02*
X98840000Y-76160000D01*
X98680000Y-76000000D02*
X92000000Y-76000000D01*
X98840000Y-76160000D02*
X98680000Y-76000000D01*
X92000000Y-76000000D02*
X91000000Y-75000000D01*
X92840000Y-76840000D02*
X92000000Y-76000000D01*
X115460000Y-50540000D02*
X115000000Y-51000000D01*
X115460000Y-49000000D02*
X115460000Y-50540000D01*
X115460000Y-49000000D02*
X115460000Y-47460000D01*
D24*
X133000000Y-74860000D02*
X132140000Y-74860000D01*
D25*
%TO.N,Net-(D1-Pad2)*%
X99000000Y-58000000D02*
X105240010Y-58000000D01*
D23*
X105240010Y-57839990D02*
X105240010Y-58000000D01*
X109540000Y-53540000D02*
X105240010Y-57839990D01*
X109540000Y-53540000D02*
X110540000Y-53540000D01*
X109540000Y-53540000D02*
X108460000Y-53540000D01*
%TO.N,Net-(D2-Pad2)*%
X106000000Y-95000000D02*
X105000000Y-95000000D01*
X105000000Y-95000000D02*
X107000000Y-95000000D01*
D25*
X106000000Y-90160000D02*
X106000000Y-92000000D01*
D23*
X106000000Y-95000000D02*
X106000000Y-90160000D01*
%TO.N,Net-(D3-Pad2)*%
X113000000Y-95000000D02*
X112000000Y-95000000D01*
X112000000Y-95000000D02*
X114000000Y-95000000D01*
D25*
X113000000Y-91000000D02*
X113000000Y-92000000D01*
D23*
X113000000Y-91000000D02*
X113000000Y-95000000D01*
%TO.N,Net-(D4-Pad2)*%
X120000000Y-95000000D02*
X119000000Y-95000000D01*
X119000000Y-95000000D02*
X121000000Y-95000000D01*
D25*
X120000000Y-91000000D02*
X120000000Y-92000000D01*
D23*
X120000000Y-91000000D02*
X120000000Y-95000000D01*
%TO.N,Net-(D5-Pad2)*%
X127000000Y-95000000D02*
X126000000Y-95000000D01*
X126000000Y-95000000D02*
X128000000Y-95000000D01*
D25*
X127000000Y-91000000D02*
X127000000Y-92000000D01*
D23*
X127000000Y-91000000D02*
X127000000Y-95000000D01*
%TO.N,Net-(D6-Pad2)*%
X124000000Y-38000000D02*
X123000000Y-39000000D01*
X119000000Y-43000000D02*
X124000000Y-38000000D01*
X119000000Y-49000000D02*
X119000000Y-43000000D01*
X118000000Y-49000000D02*
X119000000Y-49000000D01*
X124000000Y-38000000D02*
X122000000Y-38000000D01*
X119000000Y-41000000D02*
X121000000Y-39000000D01*
X119000000Y-43000000D02*
X119000000Y-41000000D01*
X121000000Y-39000000D02*
X120000000Y-40000000D01*
X122000000Y-38000000D02*
X121000000Y-39000000D01*
D24*
%TO.N,Net-(D7-Pad2)*%
X165540000Y-50540000D02*
X171000000Y-50540000D01*
X165000000Y-50000000D02*
X165540000Y-50540000D01*
D23*
X165000000Y-48000000D02*
X165000000Y-50000000D01*
D26*
%TO.N,/5V+*%
X94680000Y-48000000D02*
X94840000Y-47840000D01*
X94000000Y-48000000D02*
X94680000Y-48000000D01*
X94840000Y-47840000D02*
X92840000Y-47840000D01*
X99000000Y-47840000D02*
X94840000Y-47840000D01*
X93000000Y-48000000D02*
X92840000Y-47840000D01*
X94000000Y-48000000D02*
X93000000Y-48000000D01*
X98840000Y-48000000D02*
X99000000Y-47840000D01*
X94000000Y-48000000D02*
X98840000Y-48000000D01*
D25*
X91380000Y-43000000D02*
X91380000Y-41620000D01*
D26*
X92840000Y-47840000D02*
X91380000Y-46380000D01*
D27*
X91380000Y-43000000D02*
X91380000Y-44620000D01*
D26*
X91380000Y-46380000D02*
X91380000Y-44620000D01*
D24*
%TO.N,Net-(D8-Pad2)*%
X174000000Y-58000000D02*
X174540000Y-58540000D01*
X162000000Y-58000000D02*
X174000000Y-58000000D01*
D23*
X162000000Y-58000000D02*
X161000000Y-58000000D01*
X178000000Y-58540000D02*
X174540000Y-58540000D01*
D24*
%TO.N,Net-(D9-Pad2)*%
X165460000Y-43540000D02*
X178000000Y-43540000D01*
D23*
X155000000Y-54000000D02*
X156000000Y-53000000D01*
D24*
X156000000Y-53000000D02*
X165460000Y-43540000D01*
%TO.N,Net-(D10-Pad2)*%
X162000000Y-63000000D02*
X161000000Y-62000000D01*
D28*
X161000000Y-62000000D02*
X157000000Y-58000000D01*
D24*
X157000000Y-58000000D02*
X156000000Y-57000000D01*
X156000000Y-57000000D02*
X159000000Y-54000000D01*
X159000000Y-54000000D02*
X174000000Y-54000000D01*
X177460000Y-50540000D02*
X185000000Y-50540000D01*
X174000000Y-54000000D02*
X177460000Y-50540000D01*
D23*
X169000000Y-63000000D02*
X168000000Y-63000000D01*
X168000000Y-63000000D02*
X167000000Y-63000000D01*
D24*
X167000000Y-63000000D02*
X162000000Y-63000000D01*
%TO.N,Net-(D11-Pad2)*%
X176840000Y-66840000D02*
X180000000Y-70000000D01*
X192000000Y-65000000D02*
X184000000Y-73000000D01*
D28*
X180000000Y-70000000D02*
X183000000Y-73000000D01*
X183000000Y-73000000D02*
X184000000Y-73000000D01*
D23*
X172000000Y-66840000D02*
X171160000Y-66840000D01*
X171160000Y-66840000D02*
X173160000Y-66840000D01*
D24*
X173160000Y-66840000D02*
X176840000Y-66840000D01*
D23*
X192000000Y-58540000D02*
X192000000Y-60000000D01*
D24*
X192000000Y-60000000D02*
X192000000Y-65000000D01*
%TO.N,Net-(D12-Pad2)*%
X186000000Y-66840000D02*
X186000000Y-58000000D01*
X192000000Y-43540000D02*
X192000000Y-51000000D01*
D28*
X186000000Y-57000000D02*
X192000000Y-51000000D01*
X186000000Y-58000000D02*
X186000000Y-57000000D01*
D23*
X183000000Y-69840000D02*
X183920000Y-68920000D01*
D24*
X183920000Y-68920000D02*
X186000000Y-66840000D01*
D23*
%TO.N,Net-(D13-Pad2)*%
X199460000Y-48000000D02*
X199000000Y-48460000D01*
X205000000Y-48000000D02*
X199460000Y-48000000D01*
%TO.N,/+12V*%
X138000000Y-112000000D02*
X137000000Y-113000000D01*
X139000000Y-107000000D02*
X138000000Y-107000000D01*
X138000000Y-106000000D02*
X139000000Y-107000000D01*
X139000000Y-107000000D02*
X138000000Y-108000000D01*
X138000000Y-108000000D02*
X138000000Y-112000000D01*
X138000000Y-107000000D02*
X138000000Y-108000000D01*
D25*
X138000000Y-94000000D02*
X138000000Y-95000000D01*
X138000000Y-94000000D02*
X138000000Y-96000000D01*
D23*
X138000000Y-96000000D02*
X138000000Y-106000000D01*
X138000000Y-95000000D02*
X138000000Y-96000000D01*
D25*
X111840000Y-38000000D02*
X112840000Y-39000000D01*
X112840000Y-39000000D02*
X113840000Y-40000000D01*
D26*
X113840000Y-40000000D02*
X111840000Y-38000000D01*
X111620000Y-38000000D02*
X111840000Y-38000000D01*
X106620000Y-43000000D02*
X111620000Y-38000000D01*
X106620000Y-43000000D02*
X106620000Y-38380000D01*
X107000000Y-38000000D02*
X106620000Y-38380000D01*
X111840000Y-38000000D02*
X107000000Y-38000000D01*
X106620000Y-43000000D02*
X106620000Y-43620000D01*
X106620000Y-43620000D02*
X108000000Y-45000000D01*
X108840000Y-45000000D02*
X113840000Y-40000000D01*
X108000000Y-45000000D02*
X108840000Y-45000000D01*
D25*
X90000000Y-38000000D02*
X107000000Y-38000000D01*
X87000000Y-41000000D02*
X90000000Y-38000000D01*
X87000000Y-102000000D02*
X87000000Y-41000000D01*
X98000000Y-113000000D02*
X87000000Y-102000000D01*
D24*
X161000000Y-113000000D02*
X137000000Y-113000000D01*
D23*
X162840000Y-103980000D02*
X162840000Y-106520000D01*
X165380000Y-106520000D02*
X162840000Y-106520000D01*
X162840000Y-106520000D02*
X162840000Y-111160000D01*
D25*
X135000000Y-113000000D02*
X98000000Y-113000000D01*
X137000000Y-113000000D02*
X135000000Y-113000000D01*
X161000000Y-113000000D02*
X162840000Y-111160000D01*
X136000000Y-113000000D02*
X161000000Y-113000000D01*
D23*
X136000000Y-113000000D02*
X135000000Y-113000000D01*
%TO.N,/SEG_G*%
X141000000Y-87540000D02*
X143540000Y-87540000D01*
D24*
X144000000Y-98000000D02*
X144000000Y-88000000D01*
X145000000Y-99000000D02*
X144000000Y-98000000D01*
X144000000Y-88000000D02*
X143540000Y-87540000D01*
X161602081Y-99000000D02*
X145000000Y-99000000D01*
D23*
X165380000Y-102777919D02*
X161602081Y-99000000D01*
X165380000Y-103980000D02*
X165380000Y-102777919D01*
%TO.N,/SEG_F*%
X151000000Y-87460000D02*
X153460000Y-87460000D01*
D24*
X163000000Y-96000000D02*
X167920000Y-100920000D01*
X155000000Y-96000000D02*
X163000000Y-96000000D01*
X154000000Y-95000000D02*
X155000000Y-96000000D01*
X154000000Y-88000000D02*
X154000000Y-95000000D01*
X153460000Y-87460000D02*
X154000000Y-88000000D01*
D23*
X167920000Y-103980000D02*
X167920000Y-100920000D01*
%TO.N,/SEG_E*%
X161000000Y-87460000D02*
X163460000Y-87460000D01*
D24*
X164000000Y-93000000D02*
X170460000Y-99460000D01*
X164000000Y-88000000D02*
X164000000Y-93000000D01*
X163460000Y-87460000D02*
X164000000Y-88000000D01*
D23*
X170460000Y-103980000D02*
X170460000Y-99460000D01*
%TO.N,/SEG_D*%
X171000000Y-87460000D02*
X173460000Y-87460000D01*
D24*
X174000000Y-88000000D02*
X174000000Y-101000000D01*
X173460000Y-87460000D02*
X174000000Y-88000000D01*
D23*
X173000000Y-102000000D02*
X174000000Y-101000000D01*
X173000000Y-103980000D02*
X173000000Y-102000000D01*
%TO.N,/SEG_C*%
X181000000Y-87460000D02*
X183460000Y-87460000D01*
D24*
X183460000Y-87460000D02*
X184000000Y-88000000D01*
X184000000Y-88000000D02*
X184000000Y-93000000D01*
X184000000Y-93000000D02*
X186000000Y-95000000D01*
X186000000Y-95000000D02*
X193000000Y-95000000D01*
X193000000Y-95000000D02*
X201000000Y-103000000D01*
X201000000Y-103000000D02*
X201000000Y-110000000D01*
X201000000Y-110000000D02*
X174000000Y-110000000D01*
X174000000Y-110000000D02*
X173000000Y-109000000D01*
D23*
X173000000Y-106520000D02*
X173000000Y-109000000D01*
%TO.N,/SEG_B*%
X192000000Y-87540000D02*
X194540000Y-87540000D01*
D24*
X194540000Y-87540000D02*
X195000000Y-88000000D01*
X195000000Y-88000000D02*
X195000000Y-93282081D01*
X195000000Y-93282081D02*
X195282081Y-93282081D01*
X195282081Y-93282081D02*
X204000000Y-102000000D01*
X204000000Y-102000000D02*
X204000000Y-113000000D01*
X204000000Y-113000000D02*
X172000000Y-113000000D01*
X172000000Y-113000000D02*
X170460000Y-111460000D01*
D23*
X170460000Y-106520000D02*
X170460000Y-109540000D01*
D24*
X170460000Y-111460000D02*
X170460000Y-109540000D01*
D23*
%TO.N,/SEG_A*%
X203000000Y-87540000D02*
X205540000Y-87540000D01*
D24*
X205540000Y-87540000D02*
X206000000Y-88000000D01*
X170000000Y-116000000D02*
X167920000Y-113920000D01*
X207000000Y-116000000D02*
X170000000Y-116000000D01*
X207000000Y-89000000D02*
X207000000Y-116000000D01*
X205540000Y-87540000D02*
X207000000Y-89000000D01*
D23*
X167920000Y-106520000D02*
X167920000Y-109080000D01*
D24*
X167920000Y-113920000D02*
X167920000Y-109080000D01*
D25*
%TO.N,Net-(Q0-Pad3)*%
X138000000Y-90160000D02*
X138080000Y-90080000D01*
X137000000Y-90160000D02*
X138000000Y-90160000D01*
D23*
X141000000Y-90080000D02*
X138080000Y-90080000D01*
D25*
X137080000Y-90080000D02*
X137000000Y-90160000D01*
X138080000Y-90080000D02*
X137080000Y-90080000D01*
%TO.N,Net-(Q1-Pad3)*%
X148000000Y-90000000D02*
X147000000Y-90000000D01*
D23*
X148000000Y-90000000D02*
X151000000Y-90000000D01*
%TO.N,Net-(Q2-Pad3)*%
X157160000Y-90000000D02*
X157000000Y-90160000D01*
X161000000Y-90000000D02*
X157160000Y-90000000D01*
%TO.N,Net-(Q3-Pad3)*%
X170840000Y-90160000D02*
X171000000Y-90000000D01*
D25*
X168160000Y-90160000D02*
X167000000Y-90160000D01*
D23*
X168160000Y-90160000D02*
X170840000Y-90160000D01*
D25*
%TO.N,Net-(Q4-Pad3)*%
X178000000Y-90000000D02*
X177000000Y-90000000D01*
D23*
X178000000Y-90000000D02*
X181000000Y-90000000D01*
%TO.N,Net-(Q5-Pad3)*%
X191920000Y-90000000D02*
X192000000Y-90080000D01*
X187000000Y-90000000D02*
X191920000Y-90000000D01*
%TO.N,Net-(Q6-Pad3)*%
X202920000Y-90000000D02*
X203000000Y-90080000D01*
D25*
X199000000Y-90000000D02*
X198000000Y-90000000D01*
D23*
X199000000Y-90000000D02*
X202920000Y-90000000D01*
D24*
%TO.N,Net-(R0-Pad1)*%
X140620000Y-69780000D02*
X137220000Y-69780000D01*
X137220000Y-69780000D02*
X137000000Y-70000000D01*
X137000000Y-70000000D02*
X137000000Y-77000000D01*
D28*
X137000000Y-77000000D02*
X138000000Y-77000000D01*
X143000000Y-82000000D02*
X201000000Y-82000000D01*
D24*
X201000000Y-82000000D02*
X200000000Y-82000000D01*
X196840000Y-37840000D02*
X198000000Y-39000000D01*
X198000000Y-39000000D02*
X198000000Y-44000000D01*
X198000000Y-44000000D02*
X199000000Y-45000000D01*
X199000000Y-45000000D02*
X207000000Y-45000000D01*
X207000000Y-45000000D02*
X208000000Y-46000000D01*
X208000000Y-46000000D02*
X208000000Y-60000000D01*
X201000000Y-67000000D02*
X201000000Y-82000000D01*
X208000000Y-60000000D02*
X201000000Y-67000000D01*
D28*
X138000000Y-77000000D02*
X143000000Y-82000000D01*
D23*
X137000000Y-81000000D02*
X137000000Y-80000000D01*
X141000000Y-81000000D02*
X137000000Y-81000000D01*
X138000000Y-78000000D02*
X141000000Y-81000000D01*
X138000000Y-80000000D02*
X138000000Y-78000000D01*
X137000000Y-80000000D02*
X138000000Y-80000000D01*
X137000000Y-80000000D02*
X136000000Y-80000000D01*
X136000000Y-79000000D02*
X137000000Y-78000000D01*
X136000000Y-80000000D02*
X136000000Y-79000000D01*
D24*
X137000000Y-77000000D02*
X137000000Y-78000000D01*
D23*
X136000000Y-80000000D02*
X137000000Y-81000000D01*
X164160000Y-37840000D02*
X165000000Y-37840000D01*
X165000000Y-37840000D02*
X167160000Y-37840000D01*
D24*
X167160000Y-37840000D02*
X196840000Y-37840000D01*
%TO.N,Net-(R1-Pad1)*%
X140620000Y-67240000D02*
X142240000Y-67240000D01*
X147000000Y-72000000D02*
X147000000Y-79840000D01*
X142240000Y-67240000D02*
X147000000Y-72000000D01*
X140620000Y-67240000D02*
X139240000Y-67240000D01*
D23*
X147000000Y-79840000D02*
X146160000Y-79840000D01*
X147000000Y-79840000D02*
X147840000Y-79840000D01*
X146631590Y-72368410D02*
X146368410Y-72368410D01*
D24*
%TO.N,Net-(R16-Pad2)*%
X140620000Y-64700000D02*
X143700000Y-64700000D01*
X157000000Y-78000000D02*
X157000000Y-80000000D01*
X143700000Y-64700000D02*
X157000000Y-78000000D01*
X140620000Y-64700000D02*
X139300000Y-64700000D01*
D23*
X157000000Y-80000000D02*
X156000000Y-80000000D01*
X156000000Y-80000000D02*
X158000000Y-80000000D01*
D24*
%TO.N,Net-(R17-Pad2)*%
X140620000Y-62160000D02*
X145160000Y-62160000D01*
X145160000Y-62160000D02*
X163000000Y-80000000D01*
X140620000Y-62160000D02*
X139160000Y-62160000D01*
D23*
X167000000Y-80000000D02*
X166000000Y-80000000D01*
D24*
X163000000Y-80000000D02*
X166000000Y-80000000D01*
D23*
X167000000Y-80000000D02*
X168000000Y-80000000D01*
D24*
%TO.N,Net-(R18-Pad2)*%
X140620000Y-59620000D02*
X146620000Y-59620000D01*
X146620000Y-59620000D02*
X164000000Y-77000000D01*
X140620000Y-59620000D02*
X139380000Y-59620000D01*
D23*
X174840000Y-79840000D02*
X172000000Y-77000000D01*
X177000000Y-79840000D02*
X174840000Y-79840000D01*
D24*
X170000000Y-77000000D02*
X174160000Y-77000000D01*
D23*
X172000000Y-77000000D02*
X170000000Y-77000000D01*
D24*
X164000000Y-77000000D02*
X170000000Y-77000000D01*
D23*
X172000000Y-77000000D02*
X174160000Y-77000000D01*
X174160000Y-77000000D02*
X177000000Y-79840000D01*
D24*
%TO.N,Net-(R19-Pad2)*%
X140620000Y-57080000D02*
X148080000Y-57080000D01*
X148080000Y-57080000D02*
X165000000Y-74000000D01*
X165000000Y-74000000D02*
X176000000Y-74000000D01*
X181840000Y-79840000D02*
X187000000Y-79840000D01*
X176000000Y-74000000D02*
X181840000Y-79840000D01*
X140620000Y-57080000D02*
X139080000Y-57080000D01*
D23*
X183160000Y-79840000D02*
X183000000Y-80000000D01*
X187000000Y-79840000D02*
X183160000Y-79840000D01*
D24*
%TO.N,Net-(R20-Pad2)*%
X140620000Y-54540000D02*
X149540000Y-54540000D01*
X149540000Y-54540000D02*
X166000000Y-71000000D01*
X166000000Y-71000000D02*
X177000000Y-71000000D01*
X177000000Y-71000000D02*
X183000000Y-77000000D01*
X189000000Y-77000000D02*
X191840000Y-79840000D01*
X202840000Y-58160000D02*
X184000000Y-77000000D01*
X184000000Y-77000000D02*
X189000000Y-77000000D01*
X183000000Y-77000000D02*
X184000000Y-77000000D01*
X140620000Y-54540000D02*
X139540000Y-54540000D01*
D23*
X198000000Y-79840000D02*
X193840000Y-79840000D01*
D24*
X191840000Y-79840000D02*
X193840000Y-79840000D01*
D23*
X205000000Y-58160000D02*
X202840000Y-58160000D01*
D24*
%TO.N,Net-(R8-Pad1)*%
X133000000Y-52000000D02*
X134000000Y-52000000D01*
D25*
X135000000Y-46000000D02*
X135000000Y-48000000D01*
D24*
X133000000Y-52000000D02*
X132000000Y-52000000D01*
X133000000Y-52000000D02*
X133000000Y-51000000D01*
X135000000Y-52000000D02*
X133000000Y-52000000D01*
X133000000Y-51000000D02*
X132000000Y-52000000D01*
X135000000Y-51000000D02*
X133000000Y-51000000D01*
X135000000Y-48000000D02*
X135000000Y-51000000D01*
X135000000Y-51000000D02*
X135000000Y-52000000D01*
%TO.N,Net-(U1-Pad11)*%
X140620000Y-74860000D02*
X141860000Y-74860000D01*
%TO.N,Net-(U1-Pad2)*%
X133000000Y-54540000D02*
X134540000Y-54540000D01*
X133000000Y-54540000D02*
X132460000Y-54540000D01*
%TO.N,Net-(U1-Pad12)*%
X140620000Y-72320000D02*
X141680000Y-72320000D01*
%TO.N,Net-(U1-Pad3)*%
X133000000Y-57080000D02*
X134920000Y-57080000D01*
X133000000Y-57080000D02*
X132080000Y-57080000D01*
%TO.N,Net-(U1-Pad4)*%
X133000000Y-59620000D02*
X134620000Y-59620000D01*
X133000000Y-59620000D02*
X132380000Y-59620000D01*
%TO.N,Net-(U1-Pad5)*%
X133000000Y-62160000D02*
X134160000Y-62160000D01*
X133000000Y-62160000D02*
X134840000Y-62160000D01*
X133000000Y-62160000D02*
X132160000Y-62160000D01*
%TO.N,/BIT_C*%
X133000000Y-67240000D02*
X134760000Y-67240000D01*
D25*
X113000000Y-80840000D02*
X112420000Y-81420000D01*
D24*
X111920000Y-81920000D02*
X112420000Y-81420000D01*
D25*
X113000000Y-80840000D02*
X113840000Y-80000000D01*
D24*
X126600000Y-67240000D02*
X113000000Y-80840000D01*
X133000000Y-67240000D02*
X126600000Y-67240000D01*
X98000000Y-81920000D02*
X99080000Y-81920000D01*
D28*
X102080000Y-81920000D02*
X99080000Y-81920000D01*
D24*
X98000000Y-81920000D02*
X102080000Y-81920000D01*
D28*
X111920000Y-81920000D02*
X102080000Y-81920000D01*
D24*
X111920000Y-81920000D02*
X110080000Y-81920000D01*
%TO.N,/BIT_A*%
X133000000Y-72320000D02*
X133680000Y-72320000D01*
X98000000Y-87000000D02*
X120840000Y-87000000D01*
D25*
X127000000Y-80840000D02*
X126420000Y-81420000D01*
D24*
X120840000Y-87000000D02*
X126420000Y-81420000D01*
D25*
X127000000Y-80840000D02*
X127840000Y-80000000D01*
D24*
X127840000Y-77480000D02*
X127840000Y-80000000D01*
X133000000Y-72320000D02*
X131680000Y-72320000D01*
X127840000Y-76160000D02*
X127840000Y-77480000D01*
X131680000Y-72320000D02*
X127840000Y-76160000D01*
%TO.N,/BIT_D*%
X133000000Y-64700000D02*
X134700000Y-64700000D01*
X105380000Y-79380000D02*
X106000000Y-80000000D01*
X98000000Y-79380000D02*
X105380000Y-79380000D01*
X133000000Y-64700000D02*
X121300000Y-64700000D01*
X106620000Y-79380000D02*
X107000000Y-79000000D01*
X105380000Y-79380000D02*
X106620000Y-79380000D01*
X107000000Y-79000000D02*
X106000000Y-80000000D01*
X121300000Y-64700000D02*
X107000000Y-79000000D01*
%TO.N,/BIT_B*%
X133000000Y-69780000D02*
X133780000Y-69780000D01*
X98000000Y-84460000D02*
X116380000Y-84460000D01*
D25*
X120000000Y-80840000D02*
X119420000Y-81420000D01*
D24*
X116380000Y-84460000D02*
X119420000Y-81420000D01*
D25*
X120000000Y-80840000D02*
X120840000Y-80000000D01*
D24*
X131060000Y-69780000D02*
X120840000Y-80000000D01*
X133000000Y-69780000D02*
X131060000Y-69780000D01*
D23*
%TO.N,Net-(C1-Pad1)*%
X141000000Y-43000000D02*
X146000000Y-43000000D01*
D25*
X138000000Y-43000000D02*
X146000000Y-43000000D01*
X145000000Y-43000000D02*
X146000000Y-43000000D01*
X146000000Y-43000000D02*
X147000000Y-44000000D01*
X141000000Y-50000000D02*
X140620000Y-50380000D01*
X147000000Y-44000000D02*
X141000000Y-50000000D01*
X131000000Y-43000000D02*
X129000000Y-45000000D01*
X131000000Y-43000000D02*
X132000000Y-43000000D01*
D23*
X132000000Y-43000000D02*
X141000000Y-43000000D01*
D24*
X129000000Y-51000000D02*
X130000000Y-51000000D01*
X130000000Y-51000000D02*
X129000000Y-50000000D01*
X130000000Y-51000000D02*
X129000000Y-52000000D01*
X129000000Y-51000000D02*
X129000000Y-52000000D01*
X140620000Y-52000000D02*
X140000000Y-52000000D01*
X140620000Y-52000000D02*
X140620000Y-50380000D01*
X141000000Y-50000000D02*
X140000000Y-50000000D01*
X140000000Y-50000000D02*
X139000000Y-51000000D01*
X139000000Y-51000000D02*
X140000000Y-52000000D01*
X140620000Y-52000000D02*
X145620000Y-47000000D01*
X145620000Y-46460000D02*
X145160000Y-46000000D01*
X145620000Y-47000000D02*
X145620000Y-46460000D01*
D25*
X94000000Y-58160000D02*
X94000000Y-60000000D01*
D23*
X94000000Y-60000000D02*
X95000000Y-61000000D01*
X95000000Y-61000000D02*
X110000000Y-61000000D01*
X110000000Y-61000000D02*
X115000000Y-56000000D01*
X115000000Y-56000000D02*
X128000000Y-56000000D01*
D24*
X129000000Y-50000000D02*
X129000000Y-45000000D01*
X128000000Y-56000000D02*
X129000000Y-55000000D01*
X129000000Y-55000000D02*
X129000000Y-51000000D01*
%TD*%
M02*
