%FSLAX45Y45*%
G04 Gerber Fmt 4.5, Leading zero omitted, Abs format (unit mm)*
G04 Created by KiCad (PCBNEW 5.1.8) date 2021-02-12 19:11:22*
%MOMM*%
%LPD*%
G01*
G04 APERTURE LIST*
%ADD10C,0.200000*%
%ADD11C,0.300000*%
G04 APERTURE END LIST*
D10*
X12180000Y-6980000D02*
X12220000Y-7020000D01*
X12220000Y-6980000D02*
X12180000Y-7020000D01*
X13180000Y-13480000D02*
X13220000Y-13520000D01*
X13220000Y-13480000D02*
X13180000Y-13520000D01*
X13680000Y-5180000D02*
X13720000Y-5220000D01*
X13720000Y-5180000D02*
X13680000Y-5220000D01*
X15980000Y-4080000D02*
X16020000Y-4120000D01*
X16020000Y-4080000D02*
X15980000Y-4120000D01*
X17480000Y-8980000D02*
X17520000Y-9020000D01*
X17520000Y-8980000D02*
X17480000Y-9020000D01*
X17480000Y-10580000D02*
X17520000Y-10620000D01*
X17520000Y-10580000D02*
X17480000Y-10620000D01*
X17480000Y-12080000D02*
X17520000Y-12120000D01*
X17520000Y-12080000D02*
X17480000Y-12120000D01*
X17480000Y-13480000D02*
X17520000Y-13520000D01*
X17520000Y-13480000D02*
X17480000Y-13520000D01*
X14824000Y-7700000D02*
G75*
G03*
X14824000Y-7700000I-40000J0D01*
G01*
X15840000Y-7700000D02*
G75*
G03*
X15840000Y-7700000I-40000J0D01*
G01*
X13740000Y-4200000D02*
G75*
G03*
X13740000Y-4200000I-40000J0D01*
G01*
X13740000Y-4700000D02*
G75*
G03*
X13740000Y-4700000I-40000J0D01*
G01*
X14240000Y-4184000D02*
G75*
G03*
X14240000Y-4184000I-40000J0D01*
G01*
X14240000Y-5200000D02*
G75*
G03*
X14240000Y-5200000I-40000J0D01*
G01*
X15640000Y-4184000D02*
G75*
G03*
X15640000Y-4184000I-40000J0D01*
G01*
X15640000Y-5200000D02*
G75*
G03*
X15640000Y-5200000I-40000J0D01*
G01*
X14540000Y-7200000D02*
G75*
G03*
X14540000Y-7200000I-40000J0D01*
G01*
X14540000Y-8216000D02*
G75*
G03*
X14540000Y-8216000I-40000J0D01*
G01*
X16040000Y-4600000D02*
G75*
G03*
X16040000Y-4600000I-40000J0D01*
G01*
X16040000Y-5100000D02*
G75*
G03*
X16040000Y-5100000I-40000J0D01*
G01*
X15500000Y-5939000D02*
X15500000Y-6029000D01*
X15455000Y-5984000D02*
X15545000Y-5984000D01*
X15500000Y-6955000D02*
X15500000Y-7045000D01*
X15455000Y-7000000D02*
X15545000Y-7000000D01*
X14800000Y-5055000D02*
X14800000Y-5145000D01*
X14755000Y-5100000D02*
X14845000Y-5100000D01*
X15054000Y-5055000D02*
X15054000Y-5145000D01*
X15009000Y-5100000D02*
X15099000Y-5100000D01*
X14900000Y-4255000D02*
X14900000Y-4345000D01*
X14855000Y-4300000D02*
X14945000Y-4300000D01*
X14900000Y-4509000D02*
X14900000Y-4599000D01*
X14855000Y-4554000D02*
X14945000Y-4554000D01*
X16246000Y-7755000D02*
X16246000Y-7845000D01*
X16201000Y-7800000D02*
X16291000Y-7800000D01*
X16500000Y-7755000D02*
X16500000Y-7845000D01*
X16455000Y-7800000D02*
X16545000Y-7800000D01*
X16432527Y-4432527D02*
X16432527Y-4367473D01*
X16367473Y-4367473D01*
X16367473Y-4432527D01*
X16432527Y-4432527D01*
X16432527Y-4682527D02*
X16432527Y-4617473D01*
X16367473Y-4617473D01*
X16367473Y-4682527D01*
X16432527Y-4682527D01*
X16432527Y-4882527D02*
X16432527Y-4817473D01*
X16367473Y-4817473D01*
X16367473Y-4882527D01*
X16432527Y-4882527D01*
X16432527Y-5132527D02*
X16432527Y-5067473D01*
X16367473Y-5067473D01*
X16367473Y-5132527D01*
X16432527Y-5132527D01*
X16500000Y-12650000D02*
X16550000Y-12600000D01*
X16500000Y-12550000D01*
X16450000Y-12600000D01*
X16500000Y-12650000D01*
X16500000Y-12904000D02*
X16550000Y-12854000D01*
X16500000Y-12804000D01*
X16450000Y-12854000D01*
X16500000Y-12904000D01*
X16500000Y-13158000D02*
X16550000Y-13108000D01*
X16500000Y-13058000D01*
X16450000Y-13108000D01*
X16500000Y-13158000D01*
X16754000Y-12650000D02*
X16804000Y-12600000D01*
X16754000Y-12550000D01*
X16704000Y-12600000D01*
X16754000Y-12650000D01*
X16754000Y-12904000D02*
X16804000Y-12854000D01*
X16754000Y-12804000D01*
X16704000Y-12854000D01*
X16754000Y-12904000D01*
X16754000Y-13158000D02*
X16804000Y-13108000D01*
X16754000Y-13058000D01*
X16704000Y-13108000D01*
X16754000Y-13158000D01*
X12200000Y-8450000D02*
X12250000Y-8400000D01*
X12200000Y-8350000D01*
X12150000Y-8400000D01*
X12200000Y-8450000D01*
X12200000Y-8704000D02*
X12250000Y-8654000D01*
X12200000Y-8604000D01*
X12150000Y-8654000D01*
X12200000Y-8704000D01*
X12200000Y-8958000D02*
X12250000Y-8908000D01*
X12200000Y-8858000D01*
X12150000Y-8908000D01*
X12200000Y-8958000D01*
X12200000Y-9212000D02*
X12250000Y-9162000D01*
X12200000Y-9112000D01*
X12150000Y-9162000D01*
X12200000Y-9212000D01*
X12200000Y-9466000D02*
X12250000Y-9416000D01*
X12200000Y-9366000D01*
X12150000Y-9416000D01*
X12200000Y-9466000D01*
X12200000Y-9720000D02*
X12250000Y-9670000D01*
X12200000Y-9620000D01*
X12150000Y-9670000D01*
X12200000Y-9720000D01*
X12200000Y-9974000D02*
X12250000Y-9924000D01*
X12200000Y-9874000D01*
X12150000Y-9924000D01*
X12200000Y-9974000D01*
X12200000Y-10228000D02*
X12250000Y-10178000D01*
X12200000Y-10128000D01*
X12150000Y-10178000D01*
X12200000Y-10228000D01*
X12200000Y-10482000D02*
X12250000Y-10432000D01*
X12200000Y-10382000D01*
X12150000Y-10432000D01*
X12200000Y-10482000D01*
X12200000Y-10736000D02*
X12250000Y-10686000D01*
X12200000Y-10636000D01*
X12150000Y-10686000D01*
X12200000Y-10736000D01*
X12200000Y-10990000D02*
X12250000Y-10940000D01*
X12200000Y-10890000D01*
X12150000Y-10940000D01*
X12200000Y-10990000D01*
X12200000Y-11244000D02*
X12250000Y-11194000D01*
X12200000Y-11144000D01*
X12150000Y-11194000D01*
X12200000Y-11244000D01*
X12200000Y-11498000D02*
X12250000Y-11448000D01*
X12200000Y-11398000D01*
X12150000Y-11448000D01*
X12200000Y-11498000D01*
X12200000Y-11752000D02*
X12250000Y-11702000D01*
X12200000Y-11652000D01*
X12150000Y-11702000D01*
X12200000Y-11752000D01*
X12200000Y-12006000D02*
X12250000Y-11956000D01*
X12200000Y-11906000D01*
X12150000Y-11956000D01*
X12200000Y-12006000D01*
X12200000Y-12260000D02*
X12250000Y-12210000D01*
X12200000Y-12160000D01*
X12150000Y-12210000D01*
X12200000Y-12260000D01*
X12200000Y-12514000D02*
X12250000Y-12464000D01*
X12200000Y-12414000D01*
X12150000Y-12464000D01*
X12200000Y-12514000D01*
X12200000Y-12768000D02*
X12250000Y-12718000D01*
X12200000Y-12668000D01*
X12150000Y-12718000D01*
X12200000Y-12768000D01*
X12200000Y-13022000D02*
X12250000Y-12972000D01*
X12200000Y-12922000D01*
X12150000Y-12972000D01*
X12200000Y-13022000D01*
X12200000Y-13276000D02*
X12250000Y-13226000D01*
X12200000Y-13176000D01*
X12150000Y-13226000D01*
X12200000Y-13276000D01*
X12454000Y-8450000D02*
X12504000Y-8400000D01*
X12454000Y-8350000D01*
X12404000Y-8400000D01*
X12454000Y-8450000D01*
X12454000Y-8704000D02*
X12504000Y-8654000D01*
X12454000Y-8604000D01*
X12404000Y-8654000D01*
X12454000Y-8704000D01*
X12454000Y-8958000D02*
X12504000Y-8908000D01*
X12454000Y-8858000D01*
X12404000Y-8908000D01*
X12454000Y-8958000D01*
X12454000Y-9212000D02*
X12504000Y-9162000D01*
X12454000Y-9112000D01*
X12404000Y-9162000D01*
X12454000Y-9212000D01*
X12454000Y-9466000D02*
X12504000Y-9416000D01*
X12454000Y-9366000D01*
X12404000Y-9416000D01*
X12454000Y-9466000D01*
X12454000Y-9720000D02*
X12504000Y-9670000D01*
X12454000Y-9620000D01*
X12404000Y-9670000D01*
X12454000Y-9720000D01*
X12454000Y-9974000D02*
X12504000Y-9924000D01*
X12454000Y-9874000D01*
X12404000Y-9924000D01*
X12454000Y-9974000D01*
X12454000Y-10228000D02*
X12504000Y-10178000D01*
X12454000Y-10128000D01*
X12404000Y-10178000D01*
X12454000Y-10228000D01*
X12454000Y-10482000D02*
X12504000Y-10432000D01*
X12454000Y-10382000D01*
X12404000Y-10432000D01*
X12454000Y-10482000D01*
X12454000Y-10736000D02*
X12504000Y-10686000D01*
X12454000Y-10636000D01*
X12404000Y-10686000D01*
X12454000Y-10736000D01*
X12454000Y-10990000D02*
X12504000Y-10940000D01*
X12454000Y-10890000D01*
X12404000Y-10940000D01*
X12454000Y-10990000D01*
X12454000Y-11244000D02*
X12504000Y-11194000D01*
X12454000Y-11144000D01*
X12404000Y-11194000D01*
X12454000Y-11244000D01*
X12454000Y-11498000D02*
X12504000Y-11448000D01*
X12454000Y-11398000D01*
X12404000Y-11448000D01*
X12454000Y-11498000D01*
X12454000Y-11752000D02*
X12504000Y-11702000D01*
X12454000Y-11652000D01*
X12404000Y-11702000D01*
X12454000Y-11752000D01*
X12454000Y-12006000D02*
X12504000Y-11956000D01*
X12454000Y-11906000D01*
X12404000Y-11956000D01*
X12454000Y-12006000D01*
X12454000Y-12260000D02*
X12504000Y-12210000D01*
X12454000Y-12160000D01*
X12404000Y-12210000D01*
X12454000Y-12260000D01*
X12454000Y-12514000D02*
X12504000Y-12464000D01*
X12454000Y-12414000D01*
X12404000Y-12464000D01*
X12454000Y-12514000D01*
X12454000Y-12768000D02*
X12504000Y-12718000D01*
X12454000Y-12668000D01*
X12404000Y-12718000D01*
X12454000Y-12768000D01*
X12454000Y-13022000D02*
X12504000Y-12972000D01*
X12454000Y-12922000D01*
X12404000Y-12972000D01*
X12454000Y-13022000D01*
X12454000Y-13276000D02*
X12504000Y-13226000D01*
X12454000Y-13176000D01*
X12404000Y-13226000D01*
X12454000Y-13276000D01*
X14900000Y-6750000D02*
X14950000Y-6700000D01*
X14900000Y-6650000D01*
X14850000Y-6700000D01*
X14900000Y-6750000D01*
X14900000Y-7004000D02*
X14950000Y-6954000D01*
X14900000Y-6904000D01*
X14850000Y-6954000D01*
X14900000Y-7004000D01*
X14900000Y-7258000D02*
X14950000Y-7208000D01*
X14900000Y-7158000D01*
X14850000Y-7208000D01*
X14900000Y-7258000D01*
X16500000Y-11150000D02*
X16550000Y-11100000D01*
X16500000Y-11050000D01*
X16450000Y-11100000D01*
X16500000Y-11150000D01*
X16500000Y-11404000D02*
X16550000Y-11354000D01*
X16500000Y-11304000D01*
X16450000Y-11354000D01*
X16500000Y-11404000D01*
X16500000Y-11658000D02*
X16550000Y-11608000D01*
X16500000Y-11558000D01*
X16450000Y-11608000D01*
X16500000Y-11658000D01*
X16754000Y-11150000D02*
X16804000Y-11100000D01*
X16754000Y-11050000D01*
X16704000Y-11100000D01*
X16754000Y-11150000D01*
X16754000Y-11404000D02*
X16804000Y-11354000D01*
X16754000Y-11304000D01*
X16704000Y-11354000D01*
X16754000Y-11404000D01*
X16754000Y-11658000D02*
X16804000Y-11608000D01*
X16754000Y-11558000D01*
X16704000Y-11608000D01*
X16754000Y-11658000D01*
X16500000Y-9550000D02*
X16550000Y-9500000D01*
X16500000Y-9450000D01*
X16450000Y-9500000D01*
X16500000Y-9550000D01*
X16500000Y-9804000D02*
X16550000Y-9754000D01*
X16500000Y-9704000D01*
X16450000Y-9754000D01*
X16500000Y-9804000D01*
X16500000Y-10058000D02*
X16550000Y-10008000D01*
X16500000Y-9958000D01*
X16450000Y-10008000D01*
X16500000Y-10058000D01*
X16754000Y-9550000D02*
X16804000Y-9500000D01*
X16754000Y-9450000D01*
X16704000Y-9500000D01*
X16754000Y-9550000D01*
X16754000Y-9804000D02*
X16804000Y-9754000D01*
X16754000Y-9704000D01*
X16704000Y-9754000D01*
X16754000Y-9804000D01*
X16754000Y-10058000D02*
X16804000Y-10008000D01*
X16754000Y-9958000D01*
X16704000Y-10008000D01*
X16754000Y-10058000D01*
X14600000Y-5750000D02*
X14650000Y-5700000D01*
X14600000Y-5650000D01*
X14550000Y-5700000D01*
X14600000Y-5750000D01*
X14600000Y-6250000D02*
X14650000Y-6200000D01*
X14600000Y-6150000D01*
X14550000Y-6200000D01*
X14600000Y-6250000D01*
X12990000Y-7040000D02*
X13110000Y-7160000D01*
X13110000Y-7040000D02*
X12990000Y-7160000D01*
X13110000Y-7100000D02*
G75*
G03*
X13110000Y-7100000I-60000J0D01*
G01*
X13740000Y-7040000D02*
X13860000Y-7160000D01*
X13860000Y-7040000D02*
X13740000Y-7160000D01*
X13860000Y-7100000D02*
G75*
G03*
X13860000Y-7100000I-60000J0D01*
G01*
X15935000Y-6535000D02*
X16065000Y-6665000D01*
X16065000Y-6535000D02*
X15935000Y-6665000D01*
X16000000Y-6535000D02*
X16000000Y-6665000D01*
X15935000Y-6600000D02*
X16065000Y-6600000D01*
X16135000Y-5935000D02*
X16265000Y-6065000D01*
X16265000Y-5935000D02*
X16135000Y-6065000D01*
X16200000Y-5935000D02*
X16200000Y-6065000D01*
X16135000Y-6000000D02*
X16265000Y-6000000D01*
X16135000Y-7135000D02*
X16265000Y-7265000D01*
X16265000Y-7135000D02*
X16135000Y-7265000D01*
X16200000Y-7135000D02*
X16200000Y-7265000D01*
X16135000Y-7200000D02*
X16265000Y-7200000D01*
X17355000Y-5935000D02*
X17485000Y-6065000D01*
X17485000Y-5935000D02*
X17355000Y-6065000D01*
X17420000Y-5935000D02*
X17420000Y-6065000D01*
X17355000Y-6000000D02*
X17485000Y-6000000D01*
X17355000Y-7135000D02*
X17485000Y-7265000D01*
X17485000Y-7135000D02*
X17355000Y-7265000D01*
X17420000Y-7135000D02*
X17420000Y-7265000D01*
X17355000Y-7200000D02*
X17485000Y-7200000D01*
X13126000Y-4162000D02*
X13278000Y-4314000D01*
X13278000Y-4162000D02*
X13126000Y-4314000D01*
X13255741Y-4291741D02*
X13255741Y-4184259D01*
X13148259Y-4184259D01*
X13148259Y-4291741D01*
X13255741Y-4291741D01*
X13126000Y-4670000D02*
X13278000Y-4822000D01*
X13278000Y-4670000D02*
X13126000Y-4822000D01*
X13255741Y-4799741D02*
X13255741Y-4692259D01*
X13148259Y-4692259D01*
X13148259Y-4799741D01*
X13255741Y-4799741D01*
X13126000Y-5178000D02*
X13278000Y-5330000D01*
X13278000Y-5178000D02*
X13126000Y-5330000D01*
X13255741Y-5307741D02*
X13255741Y-5200259D01*
X13148259Y-5200259D01*
X13148259Y-5307741D01*
X13255741Y-5307741D01*
X13126000Y-5686000D02*
X13278000Y-5838000D01*
X13278000Y-5686000D02*
X13126000Y-5838000D01*
X13255741Y-5815741D02*
X13255741Y-5708259D01*
X13148259Y-5708259D01*
X13148259Y-5815741D01*
X13255741Y-5815741D01*
X17324000Y-7716000D02*
X17476000Y-7868000D01*
X17476000Y-7716000D02*
X17324000Y-7868000D01*
X17453741Y-7845741D02*
X17453741Y-7738259D01*
X17346259Y-7738259D01*
X17346259Y-7845741D01*
X17453741Y-7845741D01*
X17324000Y-8224000D02*
X17476000Y-8376000D01*
X17476000Y-8224000D02*
X17324000Y-8376000D01*
X17453741Y-8353741D02*
X17453741Y-8246259D01*
X17346259Y-8246259D01*
X17346259Y-8353741D01*
X17453741Y-8353741D01*
X16556000Y-3978000D02*
X16786000Y-4208000D01*
X16786000Y-3978000D02*
X16556000Y-4208000D01*
X16671000Y-4208000D02*
X16786000Y-4093000D01*
X16671000Y-3978000D01*
X16556000Y-4093000D01*
X16671000Y-4208000D01*
X16556000Y-5292000D02*
X16786000Y-5522000D01*
X16786000Y-5292000D02*
X16556000Y-5522000D01*
X16671000Y-5522000D02*
X16786000Y-5407000D01*
X16671000Y-5292000D01*
X16556000Y-5407000D01*
X16671000Y-5522000D01*
D11*
X286429Y-465714D02*
X286429Y-165714D01*
X357857Y-165714D01*
X400714Y-180000D01*
X429286Y-208571D01*
X443571Y-237143D01*
X457857Y-294286D01*
X457857Y-337143D01*
X443571Y-394286D01*
X429286Y-422857D01*
X400714Y-451428D01*
X357857Y-465714D01*
X286429Y-465714D01*
X586429Y-465714D02*
X586429Y-265714D01*
X586429Y-322857D02*
X600714Y-294286D01*
X615000Y-280000D01*
X643571Y-265714D01*
X672143Y-265714D01*
X772143Y-465714D02*
X772143Y-265714D01*
X772143Y-165714D02*
X757857Y-180000D01*
X772143Y-194286D01*
X786428Y-180000D01*
X772143Y-165714D01*
X772143Y-194286D01*
X957857Y-465714D02*
X929286Y-451428D01*
X915000Y-422857D01*
X915000Y-165714D01*
X1115000Y-465714D02*
X1086429Y-451428D01*
X1072143Y-422857D01*
X1072143Y-165714D01*
X1457857Y-465714D02*
X1457857Y-165714D01*
X1557857Y-380000D01*
X1657857Y-165714D01*
X1657857Y-465714D01*
X1929286Y-465714D02*
X1929286Y-308571D01*
X1915000Y-280000D01*
X1886428Y-265714D01*
X1829286Y-265714D01*
X1800714Y-280000D01*
X1929286Y-451428D02*
X1900714Y-465714D01*
X1829286Y-465714D01*
X1800714Y-451428D01*
X1786428Y-422857D01*
X1786428Y-394286D01*
X1800714Y-365714D01*
X1829286Y-351428D01*
X1900714Y-351428D01*
X1929286Y-337143D01*
X2072143Y-265714D02*
X2072143Y-565714D01*
X2072143Y-280000D02*
X2100714Y-265714D01*
X2157857Y-265714D01*
X2186429Y-280000D01*
X2200714Y-294286D01*
X2215000Y-322857D01*
X2215000Y-408571D01*
X2200714Y-437143D01*
X2186429Y-451428D01*
X2157857Y-465714D01*
X2100714Y-465714D01*
X2072143Y-451428D01*
X2343571Y-437143D02*
X2357857Y-451428D01*
X2343571Y-465714D01*
X2329286Y-451428D01*
X2343571Y-437143D01*
X2343571Y-465714D01*
X2343571Y-280000D02*
X2357857Y-294286D01*
X2343571Y-308571D01*
X2329286Y-294286D01*
X2343571Y-280000D01*
X2343571Y-308571D01*
X-40000Y-940000D02*
X0Y-980000D01*
X0Y-940000D02*
X-40000Y-980000D01*
X343571Y-795714D02*
X372143Y-795714D01*
X400714Y-810000D01*
X415000Y-824286D01*
X429286Y-852857D01*
X443571Y-910000D01*
X443571Y-981428D01*
X429286Y-1038571D01*
X415000Y-1067143D01*
X400714Y-1081429D01*
X372143Y-1095714D01*
X343571Y-1095714D01*
X315000Y-1081429D01*
X300714Y-1067143D01*
X286429Y-1038571D01*
X272143Y-981428D01*
X272143Y-910000D01*
X286429Y-852857D01*
X300714Y-824286D01*
X315000Y-810000D01*
X343571Y-795714D01*
X572143Y-1067143D02*
X586429Y-1081429D01*
X572143Y-1095714D01*
X557857Y-1081429D01*
X572143Y-1067143D01*
X572143Y-1095714D01*
X843571Y-895714D02*
X843571Y-1095714D01*
X772143Y-781428D02*
X700714Y-995714D01*
X886428Y-995714D01*
X1057857Y-795714D02*
X1086429Y-795714D01*
X1115000Y-810000D01*
X1129286Y-824286D01*
X1143571Y-852857D01*
X1157857Y-910000D01*
X1157857Y-981428D01*
X1143571Y-1038571D01*
X1129286Y-1067143D01*
X1115000Y-1081429D01*
X1086429Y-1095714D01*
X1057857Y-1095714D01*
X1029286Y-1081429D01*
X1015000Y-1067143D01*
X1000714Y-1038571D01*
X986428Y-981428D01*
X986428Y-910000D01*
X1000714Y-852857D01*
X1015000Y-824286D01*
X1029286Y-810000D01*
X1057857Y-795714D01*
X1286429Y-1095714D02*
X1286429Y-895714D01*
X1286429Y-924286D02*
X1300714Y-910000D01*
X1329286Y-895714D01*
X1372143Y-895714D01*
X1400714Y-910000D01*
X1415000Y-938571D01*
X1415000Y-1095714D01*
X1415000Y-938571D02*
X1429286Y-910000D01*
X1457857Y-895714D01*
X1500714Y-895714D01*
X1529286Y-910000D01*
X1543571Y-938571D01*
X1543571Y-1095714D01*
X1686428Y-1095714D02*
X1686428Y-895714D01*
X1686428Y-924286D02*
X1700714Y-910000D01*
X1729286Y-895714D01*
X1772143Y-895714D01*
X1800714Y-910000D01*
X1815000Y-938571D01*
X1815000Y-1095714D01*
X1815000Y-938571D02*
X1829286Y-910000D01*
X1857857Y-895714D01*
X1900714Y-895714D01*
X1929286Y-910000D01*
X1943571Y-938571D01*
X1943571Y-1095714D01*
X2529286Y-781428D02*
X2272143Y-1167143D01*
X2915000Y-795714D02*
X2943571Y-795714D01*
X2972143Y-810000D01*
X2986428Y-824286D01*
X3000714Y-852857D01*
X3015000Y-910000D01*
X3015000Y-981428D01*
X3000714Y-1038571D01*
X2986428Y-1067143D01*
X2972143Y-1081429D01*
X2943571Y-1095714D01*
X2915000Y-1095714D01*
X2886428Y-1081429D01*
X2872143Y-1067143D01*
X2857857Y-1038571D01*
X2843571Y-981428D01*
X2843571Y-910000D01*
X2857857Y-852857D01*
X2872143Y-824286D01*
X2886428Y-810000D01*
X2915000Y-795714D01*
X3143571Y-1067143D02*
X3157857Y-1081429D01*
X3143571Y-1095714D01*
X3129286Y-1081429D01*
X3143571Y-1067143D01*
X3143571Y-1095714D01*
X3343571Y-795714D02*
X3372143Y-795714D01*
X3400714Y-810000D01*
X3415000Y-824286D01*
X3429286Y-852857D01*
X3443571Y-910000D01*
X3443571Y-981428D01*
X3429286Y-1038571D01*
X3415000Y-1067143D01*
X3400714Y-1081429D01*
X3372143Y-1095714D01*
X3343571Y-1095714D01*
X3315000Y-1081429D01*
X3300714Y-1067143D01*
X3286428Y-1038571D01*
X3272143Y-981428D01*
X3272143Y-910000D01*
X3286428Y-852857D01*
X3300714Y-824286D01*
X3315000Y-810000D01*
X3343571Y-795714D01*
X3729286Y-1095714D02*
X3557857Y-1095714D01*
X3643571Y-1095714D02*
X3643571Y-795714D01*
X3615000Y-838571D01*
X3586428Y-867143D01*
X3557857Y-881428D01*
X3986428Y-795714D02*
X3929286Y-795714D01*
X3900714Y-810000D01*
X3886428Y-824286D01*
X3857857Y-867143D01*
X3843571Y-924286D01*
X3843571Y-1038571D01*
X3857857Y-1067143D01*
X3872143Y-1081429D01*
X3900714Y-1095714D01*
X3957857Y-1095714D01*
X3986428Y-1081429D01*
X4000714Y-1067143D01*
X4015000Y-1038571D01*
X4015000Y-967143D01*
X4000714Y-938571D01*
X3986428Y-924286D01*
X3957857Y-910000D01*
X3900714Y-910000D01*
X3872143Y-924286D01*
X3857857Y-938571D01*
X3843571Y-967143D01*
X4129286Y-795714D02*
X4129286Y-852857D01*
X4243571Y-795714D02*
X4243571Y-852857D01*
X4686429Y-1210000D02*
X4672143Y-1195714D01*
X4643571Y-1152857D01*
X4629286Y-1124286D01*
X4615000Y-1081429D01*
X4600714Y-1010000D01*
X4600714Y-952857D01*
X4615000Y-881428D01*
X4629286Y-838571D01*
X4643571Y-810000D01*
X4672143Y-767143D01*
X4686429Y-752857D01*
X4843571Y-924286D02*
X4815000Y-910000D01*
X4800714Y-895714D01*
X4786429Y-867143D01*
X4786429Y-852857D01*
X4800714Y-824286D01*
X4815000Y-810000D01*
X4843571Y-795714D01*
X4900714Y-795714D01*
X4929286Y-810000D01*
X4943571Y-824286D01*
X4957857Y-852857D01*
X4957857Y-867143D01*
X4943571Y-895714D01*
X4929286Y-910000D01*
X4900714Y-924286D01*
X4843571Y-924286D01*
X4815000Y-938571D01*
X4800714Y-952857D01*
X4786429Y-981428D01*
X4786429Y-1038571D01*
X4800714Y-1067143D01*
X4815000Y-1081429D01*
X4843571Y-1095714D01*
X4900714Y-1095714D01*
X4929286Y-1081429D01*
X4943571Y-1067143D01*
X4957857Y-1038571D01*
X4957857Y-981428D01*
X4943571Y-952857D01*
X4929286Y-938571D01*
X4900714Y-924286D01*
X5315000Y-1095714D02*
X5315000Y-795714D01*
X5443571Y-1095714D02*
X5443571Y-938571D01*
X5429286Y-910000D01*
X5400714Y-895714D01*
X5357857Y-895714D01*
X5329286Y-910000D01*
X5315000Y-924286D01*
X5629286Y-1095714D02*
X5600714Y-1081429D01*
X5586429Y-1067143D01*
X5572143Y-1038571D01*
X5572143Y-952857D01*
X5586429Y-924286D01*
X5600714Y-910000D01*
X5629286Y-895714D01*
X5672143Y-895714D01*
X5700714Y-910000D01*
X5715000Y-924286D01*
X5729286Y-952857D01*
X5729286Y-1038571D01*
X5715000Y-1067143D01*
X5700714Y-1081429D01*
X5672143Y-1095714D01*
X5629286Y-1095714D01*
X5900714Y-1095714D02*
X5872143Y-1081429D01*
X5857857Y-1052857D01*
X5857857Y-795714D01*
X6129286Y-1081429D02*
X6100714Y-1095714D01*
X6043571Y-1095714D01*
X6015000Y-1081429D01*
X6000714Y-1052857D01*
X6000714Y-938571D01*
X6015000Y-910000D01*
X6043571Y-895714D01*
X6100714Y-895714D01*
X6129286Y-910000D01*
X6143571Y-938571D01*
X6143571Y-967143D01*
X6000714Y-995714D01*
X6257857Y-1081429D02*
X6286428Y-1095714D01*
X6343571Y-1095714D01*
X6372143Y-1081429D01*
X6386428Y-1052857D01*
X6386428Y-1038571D01*
X6372143Y-1010000D01*
X6343571Y-995714D01*
X6300714Y-995714D01*
X6272143Y-981428D01*
X6257857Y-952857D01*
X6257857Y-938571D01*
X6272143Y-910000D01*
X6300714Y-895714D01*
X6343571Y-895714D01*
X6372143Y-910000D01*
X6486428Y-1210000D02*
X6500714Y-1195714D01*
X6529286Y-1152857D01*
X6543571Y-1124286D01*
X6557857Y-1081429D01*
X6572143Y-1010000D01*
X6572143Y-952857D01*
X6557857Y-881428D01*
X6543571Y-838571D01*
X6529286Y-810000D01*
X6500714Y-767143D01*
X6486428Y-752857D01*
X0Y-1356000D02*
G75*
G03*
X0Y-1356000I-40000J0D01*
G01*
X343571Y-1191714D02*
X372143Y-1191714D01*
X400714Y-1206000D01*
X415000Y-1220286D01*
X429286Y-1248857D01*
X443571Y-1306000D01*
X443571Y-1377429D01*
X429286Y-1434571D01*
X415000Y-1463143D01*
X400714Y-1477428D01*
X372143Y-1491714D01*
X343571Y-1491714D01*
X315000Y-1477428D01*
X300714Y-1463143D01*
X286429Y-1434571D01*
X272143Y-1377429D01*
X272143Y-1306000D01*
X286429Y-1248857D01*
X300714Y-1220286D01*
X315000Y-1206000D01*
X343571Y-1191714D01*
X572143Y-1463143D02*
X586429Y-1477428D01*
X572143Y-1491714D01*
X557857Y-1477428D01*
X572143Y-1463143D01*
X572143Y-1491714D01*
X757857Y-1320286D02*
X729286Y-1306000D01*
X715000Y-1291714D01*
X700714Y-1263143D01*
X700714Y-1248857D01*
X715000Y-1220286D01*
X729286Y-1206000D01*
X757857Y-1191714D01*
X815000Y-1191714D01*
X843571Y-1206000D01*
X857857Y-1220286D01*
X872143Y-1248857D01*
X872143Y-1263143D01*
X857857Y-1291714D01*
X843571Y-1306000D01*
X815000Y-1320286D01*
X757857Y-1320286D01*
X729286Y-1334571D01*
X715000Y-1348857D01*
X700714Y-1377429D01*
X700714Y-1434571D01*
X715000Y-1463143D01*
X729286Y-1477428D01*
X757857Y-1491714D01*
X815000Y-1491714D01*
X843571Y-1477428D01*
X857857Y-1463143D01*
X872143Y-1434571D01*
X872143Y-1377429D01*
X857857Y-1348857D01*
X843571Y-1334571D01*
X815000Y-1320286D01*
X1057857Y-1191714D02*
X1086429Y-1191714D01*
X1115000Y-1206000D01*
X1129286Y-1220286D01*
X1143571Y-1248857D01*
X1157857Y-1306000D01*
X1157857Y-1377429D01*
X1143571Y-1434571D01*
X1129286Y-1463143D01*
X1115000Y-1477428D01*
X1086429Y-1491714D01*
X1057857Y-1491714D01*
X1029286Y-1477428D01*
X1015000Y-1463143D01*
X1000714Y-1434571D01*
X986428Y-1377429D01*
X986428Y-1306000D01*
X1000714Y-1248857D01*
X1015000Y-1220286D01*
X1029286Y-1206000D01*
X1057857Y-1191714D01*
X1286429Y-1491714D02*
X1286429Y-1291714D01*
X1286429Y-1320286D02*
X1300714Y-1306000D01*
X1329286Y-1291714D01*
X1372143Y-1291714D01*
X1400714Y-1306000D01*
X1415000Y-1334571D01*
X1415000Y-1491714D01*
X1415000Y-1334571D02*
X1429286Y-1306000D01*
X1457857Y-1291714D01*
X1500714Y-1291714D01*
X1529286Y-1306000D01*
X1543571Y-1334571D01*
X1543571Y-1491714D01*
X1686428Y-1491714D02*
X1686428Y-1291714D01*
X1686428Y-1320286D02*
X1700714Y-1306000D01*
X1729286Y-1291714D01*
X1772143Y-1291714D01*
X1800714Y-1306000D01*
X1815000Y-1334571D01*
X1815000Y-1491714D01*
X1815000Y-1334571D02*
X1829286Y-1306000D01*
X1857857Y-1291714D01*
X1900714Y-1291714D01*
X1929286Y-1306000D01*
X1943571Y-1334571D01*
X1943571Y-1491714D01*
X2529286Y-1177429D02*
X2272143Y-1563143D01*
X2915000Y-1191714D02*
X2943571Y-1191714D01*
X2972143Y-1206000D01*
X2986428Y-1220286D01*
X3000714Y-1248857D01*
X3015000Y-1306000D01*
X3015000Y-1377429D01*
X3000714Y-1434571D01*
X2986428Y-1463143D01*
X2972143Y-1477428D01*
X2943571Y-1491714D01*
X2915000Y-1491714D01*
X2886428Y-1477428D01*
X2872143Y-1463143D01*
X2857857Y-1434571D01*
X2843571Y-1377429D01*
X2843571Y-1306000D01*
X2857857Y-1248857D01*
X2872143Y-1220286D01*
X2886428Y-1206000D01*
X2915000Y-1191714D01*
X3143571Y-1463143D02*
X3157857Y-1477428D01*
X3143571Y-1491714D01*
X3129286Y-1477428D01*
X3143571Y-1463143D01*
X3143571Y-1491714D01*
X3343571Y-1191714D02*
X3372143Y-1191714D01*
X3400714Y-1206000D01*
X3415000Y-1220286D01*
X3429286Y-1248857D01*
X3443571Y-1306000D01*
X3443571Y-1377429D01*
X3429286Y-1434571D01*
X3415000Y-1463143D01*
X3400714Y-1477428D01*
X3372143Y-1491714D01*
X3343571Y-1491714D01*
X3315000Y-1477428D01*
X3300714Y-1463143D01*
X3286428Y-1434571D01*
X3272143Y-1377429D01*
X3272143Y-1306000D01*
X3286428Y-1248857D01*
X3300714Y-1220286D01*
X3315000Y-1206000D01*
X3343571Y-1191714D01*
X3543571Y-1191714D02*
X3729286Y-1191714D01*
X3629286Y-1306000D01*
X3672143Y-1306000D01*
X3700714Y-1320286D01*
X3715000Y-1334571D01*
X3729286Y-1363143D01*
X3729286Y-1434571D01*
X3715000Y-1463143D01*
X3700714Y-1477428D01*
X3672143Y-1491714D01*
X3586428Y-1491714D01*
X3557857Y-1477428D01*
X3543571Y-1463143D01*
X4015000Y-1491714D02*
X3843571Y-1491714D01*
X3929286Y-1491714D02*
X3929286Y-1191714D01*
X3900714Y-1234571D01*
X3872143Y-1263143D01*
X3843571Y-1277429D01*
X4129286Y-1191714D02*
X4129286Y-1248857D01*
X4243571Y-1191714D02*
X4243571Y-1248857D01*
X4686429Y-1606000D02*
X4672143Y-1591714D01*
X4643571Y-1548857D01*
X4629286Y-1520286D01*
X4615000Y-1477428D01*
X4600714Y-1406000D01*
X4600714Y-1348857D01*
X4615000Y-1277429D01*
X4629286Y-1234571D01*
X4643571Y-1206000D01*
X4672143Y-1163143D01*
X4686429Y-1148857D01*
X4957857Y-1491714D02*
X4786429Y-1491714D01*
X4872143Y-1491714D02*
X4872143Y-1191714D01*
X4843571Y-1234571D01*
X4815000Y-1263143D01*
X4786429Y-1277429D01*
X5072143Y-1220286D02*
X5086429Y-1206000D01*
X5115000Y-1191714D01*
X5186429Y-1191714D01*
X5215000Y-1206000D01*
X5229286Y-1220286D01*
X5243571Y-1248857D01*
X5243571Y-1277429D01*
X5229286Y-1320286D01*
X5057857Y-1491714D01*
X5243571Y-1491714D01*
X5600714Y-1491714D02*
X5600714Y-1191714D01*
X5729286Y-1491714D02*
X5729286Y-1334571D01*
X5715000Y-1306000D01*
X5686428Y-1291714D01*
X5643571Y-1291714D01*
X5615000Y-1306000D01*
X5600714Y-1320286D01*
X5915000Y-1491714D02*
X5886428Y-1477428D01*
X5872143Y-1463143D01*
X5857857Y-1434571D01*
X5857857Y-1348857D01*
X5872143Y-1320286D01*
X5886428Y-1306000D01*
X5915000Y-1291714D01*
X5957857Y-1291714D01*
X5986428Y-1306000D01*
X6000714Y-1320286D01*
X6015000Y-1348857D01*
X6015000Y-1434571D01*
X6000714Y-1463143D01*
X5986428Y-1477428D01*
X5957857Y-1491714D01*
X5915000Y-1491714D01*
X6186428Y-1491714D02*
X6157857Y-1477428D01*
X6143571Y-1448857D01*
X6143571Y-1191714D01*
X6415000Y-1477428D02*
X6386428Y-1491714D01*
X6329286Y-1491714D01*
X6300714Y-1477428D01*
X6286428Y-1448857D01*
X6286428Y-1334571D01*
X6300714Y-1306000D01*
X6329286Y-1291714D01*
X6386428Y-1291714D01*
X6415000Y-1306000D01*
X6429286Y-1334571D01*
X6429286Y-1363143D01*
X6286428Y-1391714D01*
X6543571Y-1477428D02*
X6572143Y-1491714D01*
X6629286Y-1491714D01*
X6657857Y-1477428D01*
X6672143Y-1448857D01*
X6672143Y-1434571D01*
X6657857Y-1406000D01*
X6629286Y-1391714D01*
X6586428Y-1391714D01*
X6557857Y-1377429D01*
X6543571Y-1348857D01*
X6543571Y-1334571D01*
X6557857Y-1306000D01*
X6586428Y-1291714D01*
X6629286Y-1291714D01*
X6657857Y-1306000D01*
X6772143Y-1606000D02*
X6786428Y-1591714D01*
X6815000Y-1548857D01*
X6829286Y-1520286D01*
X6843571Y-1477428D01*
X6857857Y-1406000D01*
X6857857Y-1348857D01*
X6843571Y-1277429D01*
X6829286Y-1234571D01*
X6815000Y-1206000D01*
X6786428Y-1163143D01*
X6772143Y-1148857D01*
X-45000Y-1707000D02*
X-45000Y-1797000D01*
X-90000Y-1752000D02*
X0Y-1752000D01*
X343571Y-1587714D02*
X372143Y-1587714D01*
X400714Y-1602000D01*
X415000Y-1616286D01*
X429286Y-1644857D01*
X443571Y-1702000D01*
X443571Y-1773428D01*
X429286Y-1830571D01*
X415000Y-1859143D01*
X400714Y-1873428D01*
X372143Y-1887714D01*
X343571Y-1887714D01*
X315000Y-1873428D01*
X300714Y-1859143D01*
X286429Y-1830571D01*
X272143Y-1773428D01*
X272143Y-1702000D01*
X286429Y-1644857D01*
X300714Y-1616286D01*
X315000Y-1602000D01*
X343571Y-1587714D01*
X572143Y-1859143D02*
X586429Y-1873428D01*
X572143Y-1887714D01*
X557857Y-1873428D01*
X572143Y-1859143D01*
X572143Y-1887714D01*
X729286Y-1887714D02*
X786428Y-1887714D01*
X815000Y-1873428D01*
X829286Y-1859143D01*
X857857Y-1816286D01*
X872143Y-1759143D01*
X872143Y-1644857D01*
X857857Y-1616286D01*
X843571Y-1602000D01*
X815000Y-1587714D01*
X757857Y-1587714D01*
X729286Y-1602000D01*
X715000Y-1616286D01*
X700714Y-1644857D01*
X700714Y-1716286D01*
X715000Y-1744857D01*
X729286Y-1759143D01*
X757857Y-1773428D01*
X815000Y-1773428D01*
X843571Y-1759143D01*
X857857Y-1744857D01*
X872143Y-1716286D01*
X1057857Y-1587714D02*
X1086429Y-1587714D01*
X1115000Y-1602000D01*
X1129286Y-1616286D01*
X1143571Y-1644857D01*
X1157857Y-1702000D01*
X1157857Y-1773428D01*
X1143571Y-1830571D01*
X1129286Y-1859143D01*
X1115000Y-1873428D01*
X1086429Y-1887714D01*
X1057857Y-1887714D01*
X1029286Y-1873428D01*
X1015000Y-1859143D01*
X1000714Y-1830571D01*
X986428Y-1773428D01*
X986428Y-1702000D01*
X1000714Y-1644857D01*
X1015000Y-1616286D01*
X1029286Y-1602000D01*
X1057857Y-1587714D01*
X1286429Y-1887714D02*
X1286429Y-1687714D01*
X1286429Y-1716286D02*
X1300714Y-1702000D01*
X1329286Y-1687714D01*
X1372143Y-1687714D01*
X1400714Y-1702000D01*
X1415000Y-1730571D01*
X1415000Y-1887714D01*
X1415000Y-1730571D02*
X1429286Y-1702000D01*
X1457857Y-1687714D01*
X1500714Y-1687714D01*
X1529286Y-1702000D01*
X1543571Y-1730571D01*
X1543571Y-1887714D01*
X1686428Y-1887714D02*
X1686428Y-1687714D01*
X1686428Y-1716286D02*
X1700714Y-1702000D01*
X1729286Y-1687714D01*
X1772143Y-1687714D01*
X1800714Y-1702000D01*
X1815000Y-1730571D01*
X1815000Y-1887714D01*
X1815000Y-1730571D02*
X1829286Y-1702000D01*
X1857857Y-1687714D01*
X1900714Y-1687714D01*
X1929286Y-1702000D01*
X1943571Y-1730571D01*
X1943571Y-1887714D01*
X2529286Y-1573428D02*
X2272143Y-1959143D01*
X2915000Y-1587714D02*
X2943571Y-1587714D01*
X2972143Y-1602000D01*
X2986428Y-1616286D01*
X3000714Y-1644857D01*
X3015000Y-1702000D01*
X3015000Y-1773428D01*
X3000714Y-1830571D01*
X2986428Y-1859143D01*
X2972143Y-1873428D01*
X2943571Y-1887714D01*
X2915000Y-1887714D01*
X2886428Y-1873428D01*
X2872143Y-1859143D01*
X2857857Y-1830571D01*
X2843571Y-1773428D01*
X2843571Y-1702000D01*
X2857857Y-1644857D01*
X2872143Y-1616286D01*
X2886428Y-1602000D01*
X2915000Y-1587714D01*
X3143571Y-1859143D02*
X3157857Y-1873428D01*
X3143571Y-1887714D01*
X3129286Y-1873428D01*
X3143571Y-1859143D01*
X3143571Y-1887714D01*
X3343571Y-1587714D02*
X3372143Y-1587714D01*
X3400714Y-1602000D01*
X3415000Y-1616286D01*
X3429286Y-1644857D01*
X3443571Y-1702000D01*
X3443571Y-1773428D01*
X3429286Y-1830571D01*
X3415000Y-1859143D01*
X3400714Y-1873428D01*
X3372143Y-1887714D01*
X3343571Y-1887714D01*
X3315000Y-1873428D01*
X3300714Y-1859143D01*
X3286428Y-1830571D01*
X3272143Y-1773428D01*
X3272143Y-1702000D01*
X3286428Y-1644857D01*
X3300714Y-1616286D01*
X3315000Y-1602000D01*
X3343571Y-1587714D01*
X3543571Y-1587714D02*
X3729286Y-1587714D01*
X3629286Y-1702000D01*
X3672143Y-1702000D01*
X3700714Y-1716286D01*
X3715000Y-1730571D01*
X3729286Y-1759143D01*
X3729286Y-1830571D01*
X3715000Y-1859143D01*
X3700714Y-1873428D01*
X3672143Y-1887714D01*
X3586428Y-1887714D01*
X3557857Y-1873428D01*
X3543571Y-1859143D01*
X4000714Y-1587714D02*
X3857857Y-1587714D01*
X3843571Y-1730571D01*
X3857857Y-1716286D01*
X3886428Y-1702000D01*
X3957857Y-1702000D01*
X3986428Y-1716286D01*
X4000714Y-1730571D01*
X4015000Y-1759143D01*
X4015000Y-1830571D01*
X4000714Y-1859143D01*
X3986428Y-1873428D01*
X3957857Y-1887714D01*
X3886428Y-1887714D01*
X3857857Y-1873428D01*
X3843571Y-1859143D01*
X4129286Y-1587714D02*
X4129286Y-1644857D01*
X4243571Y-1587714D02*
X4243571Y-1644857D01*
X4686429Y-2002000D02*
X4672143Y-1987714D01*
X4643571Y-1944857D01*
X4629286Y-1916286D01*
X4615000Y-1873428D01*
X4600714Y-1802000D01*
X4600714Y-1744857D01*
X4615000Y-1673428D01*
X4629286Y-1630571D01*
X4643571Y-1602000D01*
X4672143Y-1559143D01*
X4686429Y-1544857D01*
X4843571Y-1716286D02*
X4815000Y-1702000D01*
X4800714Y-1687714D01*
X4786429Y-1659143D01*
X4786429Y-1644857D01*
X4800714Y-1616286D01*
X4815000Y-1602000D01*
X4843571Y-1587714D01*
X4900714Y-1587714D01*
X4929286Y-1602000D01*
X4943571Y-1616286D01*
X4957857Y-1644857D01*
X4957857Y-1659143D01*
X4943571Y-1687714D01*
X4929286Y-1702000D01*
X4900714Y-1716286D01*
X4843571Y-1716286D01*
X4815000Y-1730571D01*
X4800714Y-1744857D01*
X4786429Y-1773428D01*
X4786429Y-1830571D01*
X4800714Y-1859143D01*
X4815000Y-1873428D01*
X4843571Y-1887714D01*
X4900714Y-1887714D01*
X4929286Y-1873428D01*
X4943571Y-1859143D01*
X4957857Y-1830571D01*
X4957857Y-1773428D01*
X4943571Y-1744857D01*
X4929286Y-1730571D01*
X4900714Y-1716286D01*
X5315000Y-1887714D02*
X5315000Y-1587714D01*
X5443571Y-1887714D02*
X5443571Y-1730571D01*
X5429286Y-1702000D01*
X5400714Y-1687714D01*
X5357857Y-1687714D01*
X5329286Y-1702000D01*
X5315000Y-1716286D01*
X5629286Y-1887714D02*
X5600714Y-1873428D01*
X5586429Y-1859143D01*
X5572143Y-1830571D01*
X5572143Y-1744857D01*
X5586429Y-1716286D01*
X5600714Y-1702000D01*
X5629286Y-1687714D01*
X5672143Y-1687714D01*
X5700714Y-1702000D01*
X5715000Y-1716286D01*
X5729286Y-1744857D01*
X5729286Y-1830571D01*
X5715000Y-1859143D01*
X5700714Y-1873428D01*
X5672143Y-1887714D01*
X5629286Y-1887714D01*
X5900714Y-1887714D02*
X5872143Y-1873428D01*
X5857857Y-1844857D01*
X5857857Y-1587714D01*
X6129286Y-1873428D02*
X6100714Y-1887714D01*
X6043571Y-1887714D01*
X6015000Y-1873428D01*
X6000714Y-1844857D01*
X6000714Y-1730571D01*
X6015000Y-1702000D01*
X6043571Y-1687714D01*
X6100714Y-1687714D01*
X6129286Y-1702000D01*
X6143571Y-1730571D01*
X6143571Y-1759143D01*
X6000714Y-1787714D01*
X6257857Y-1873428D02*
X6286428Y-1887714D01*
X6343571Y-1887714D01*
X6372143Y-1873428D01*
X6386428Y-1844857D01*
X6386428Y-1830571D01*
X6372143Y-1802000D01*
X6343571Y-1787714D01*
X6300714Y-1787714D01*
X6272143Y-1773428D01*
X6257857Y-1744857D01*
X6257857Y-1730571D01*
X6272143Y-1702000D01*
X6300714Y-1687714D01*
X6343571Y-1687714D01*
X6372143Y-1702000D01*
X6486428Y-2002000D02*
X6500714Y-1987714D01*
X6529286Y-1944857D01*
X6543571Y-1916286D01*
X6557857Y-1873428D01*
X6572143Y-1802000D01*
X6572143Y-1744857D01*
X6557857Y-1673428D01*
X6543571Y-1630571D01*
X6529286Y-1602000D01*
X6500714Y-1559143D01*
X6486428Y-1544857D01*
X-13473Y-2180527D02*
X-13473Y-2115473D01*
X-78527Y-2115473D01*
X-78527Y-2180527D01*
X-13473Y-2180527D01*
X343571Y-1983714D02*
X372143Y-1983714D01*
X400714Y-1998000D01*
X415000Y-2012286D01*
X429286Y-2040857D01*
X443571Y-2098000D01*
X443571Y-2169429D01*
X429286Y-2226571D01*
X415000Y-2255143D01*
X400714Y-2269429D01*
X372143Y-2283714D01*
X343571Y-2283714D01*
X315000Y-2269429D01*
X300714Y-2255143D01*
X286429Y-2226571D01*
X272143Y-2169429D01*
X272143Y-2098000D01*
X286429Y-2040857D01*
X300714Y-2012286D01*
X315000Y-1998000D01*
X343571Y-1983714D01*
X572143Y-2255143D02*
X586429Y-2269429D01*
X572143Y-2283714D01*
X557857Y-2269429D01*
X572143Y-2255143D01*
X572143Y-2283714D01*
X729286Y-2283714D02*
X786428Y-2283714D01*
X815000Y-2269429D01*
X829286Y-2255143D01*
X857857Y-2212286D01*
X872143Y-2155143D01*
X872143Y-2040857D01*
X857857Y-2012286D01*
X843571Y-1998000D01*
X815000Y-1983714D01*
X757857Y-1983714D01*
X729286Y-1998000D01*
X715000Y-2012286D01*
X700714Y-2040857D01*
X700714Y-2112286D01*
X715000Y-2140857D01*
X729286Y-2155143D01*
X757857Y-2169429D01*
X815000Y-2169429D01*
X843571Y-2155143D01*
X857857Y-2140857D01*
X872143Y-2112286D01*
X986428Y-2012286D02*
X1000714Y-1998000D01*
X1029286Y-1983714D01*
X1100714Y-1983714D01*
X1129286Y-1998000D01*
X1143571Y-2012286D01*
X1157857Y-2040857D01*
X1157857Y-2069428D01*
X1143571Y-2112286D01*
X972143Y-2283714D01*
X1157857Y-2283714D01*
X1286429Y-2283714D02*
X1286429Y-2083714D01*
X1286429Y-2112286D02*
X1300714Y-2098000D01*
X1329286Y-2083714D01*
X1372143Y-2083714D01*
X1400714Y-2098000D01*
X1415000Y-2126571D01*
X1415000Y-2283714D01*
X1415000Y-2126571D02*
X1429286Y-2098000D01*
X1457857Y-2083714D01*
X1500714Y-2083714D01*
X1529286Y-2098000D01*
X1543571Y-2126571D01*
X1543571Y-2283714D01*
X1686428Y-2283714D02*
X1686428Y-2083714D01*
X1686428Y-2112286D02*
X1700714Y-2098000D01*
X1729286Y-2083714D01*
X1772143Y-2083714D01*
X1800714Y-2098000D01*
X1815000Y-2126571D01*
X1815000Y-2283714D01*
X1815000Y-2126571D02*
X1829286Y-2098000D01*
X1857857Y-2083714D01*
X1900714Y-2083714D01*
X1929286Y-2098000D01*
X1943571Y-2126571D01*
X1943571Y-2283714D01*
X2529286Y-1969428D02*
X2272143Y-2355143D01*
X2915000Y-1983714D02*
X2943571Y-1983714D01*
X2972143Y-1998000D01*
X2986428Y-2012286D01*
X3000714Y-2040857D01*
X3015000Y-2098000D01*
X3015000Y-2169429D01*
X3000714Y-2226571D01*
X2986428Y-2255143D01*
X2972143Y-2269429D01*
X2943571Y-2283714D01*
X2915000Y-2283714D01*
X2886428Y-2269429D01*
X2872143Y-2255143D01*
X2857857Y-2226571D01*
X2843571Y-2169429D01*
X2843571Y-2098000D01*
X2857857Y-2040857D01*
X2872143Y-2012286D01*
X2886428Y-1998000D01*
X2915000Y-1983714D01*
X3143571Y-2255143D02*
X3157857Y-2269429D01*
X3143571Y-2283714D01*
X3129286Y-2269429D01*
X3143571Y-2255143D01*
X3143571Y-2283714D01*
X3343571Y-1983714D02*
X3372143Y-1983714D01*
X3400714Y-1998000D01*
X3415000Y-2012286D01*
X3429286Y-2040857D01*
X3443571Y-2098000D01*
X3443571Y-2169429D01*
X3429286Y-2226571D01*
X3415000Y-2255143D01*
X3400714Y-2269429D01*
X3372143Y-2283714D01*
X3343571Y-2283714D01*
X3315000Y-2269429D01*
X3300714Y-2255143D01*
X3286428Y-2226571D01*
X3272143Y-2169429D01*
X3272143Y-2098000D01*
X3286428Y-2040857D01*
X3300714Y-2012286D01*
X3315000Y-1998000D01*
X3343571Y-1983714D01*
X3543571Y-1983714D02*
X3729286Y-1983714D01*
X3629286Y-2098000D01*
X3672143Y-2098000D01*
X3700714Y-2112286D01*
X3715000Y-2126571D01*
X3729286Y-2155143D01*
X3729286Y-2226571D01*
X3715000Y-2255143D01*
X3700714Y-2269429D01*
X3672143Y-2283714D01*
X3586428Y-2283714D01*
X3557857Y-2269429D01*
X3543571Y-2255143D01*
X3986428Y-1983714D02*
X3929286Y-1983714D01*
X3900714Y-1998000D01*
X3886428Y-2012286D01*
X3857857Y-2055143D01*
X3843571Y-2112286D01*
X3843571Y-2226571D01*
X3857857Y-2255143D01*
X3872143Y-2269429D01*
X3900714Y-2283714D01*
X3957857Y-2283714D01*
X3986428Y-2269429D01*
X4000714Y-2255143D01*
X4015000Y-2226571D01*
X4015000Y-2155143D01*
X4000714Y-2126571D01*
X3986428Y-2112286D01*
X3957857Y-2098000D01*
X3900714Y-2098000D01*
X3872143Y-2112286D01*
X3857857Y-2126571D01*
X3843571Y-2155143D01*
X4129286Y-1983714D02*
X4129286Y-2040857D01*
X4243571Y-1983714D02*
X4243571Y-2040857D01*
X4686429Y-2398000D02*
X4672143Y-2383714D01*
X4643571Y-2340857D01*
X4629286Y-2312286D01*
X4615000Y-2269429D01*
X4600714Y-2198000D01*
X4600714Y-2140857D01*
X4615000Y-2069428D01*
X4629286Y-2026571D01*
X4643571Y-1998000D01*
X4672143Y-1955143D01*
X4686429Y-1940857D01*
X4929286Y-2083714D02*
X4929286Y-2283714D01*
X4857857Y-1969428D02*
X4786429Y-2183714D01*
X4972143Y-2183714D01*
X5315000Y-2283714D02*
X5315000Y-1983714D01*
X5443571Y-2283714D02*
X5443571Y-2126571D01*
X5429286Y-2098000D01*
X5400714Y-2083714D01*
X5357857Y-2083714D01*
X5329286Y-2098000D01*
X5315000Y-2112286D01*
X5629286Y-2283714D02*
X5600714Y-2269429D01*
X5586429Y-2255143D01*
X5572143Y-2226571D01*
X5572143Y-2140857D01*
X5586429Y-2112286D01*
X5600714Y-2098000D01*
X5629286Y-2083714D01*
X5672143Y-2083714D01*
X5700714Y-2098000D01*
X5715000Y-2112286D01*
X5729286Y-2140857D01*
X5729286Y-2226571D01*
X5715000Y-2255143D01*
X5700714Y-2269429D01*
X5672143Y-2283714D01*
X5629286Y-2283714D01*
X5900714Y-2283714D02*
X5872143Y-2269429D01*
X5857857Y-2240857D01*
X5857857Y-1983714D01*
X6129286Y-2269429D02*
X6100714Y-2283714D01*
X6043571Y-2283714D01*
X6015000Y-2269429D01*
X6000714Y-2240857D01*
X6000714Y-2126571D01*
X6015000Y-2098000D01*
X6043571Y-2083714D01*
X6100714Y-2083714D01*
X6129286Y-2098000D01*
X6143571Y-2126571D01*
X6143571Y-2155143D01*
X6000714Y-2183714D01*
X6257857Y-2269429D02*
X6286428Y-2283714D01*
X6343571Y-2283714D01*
X6372143Y-2269429D01*
X6386428Y-2240857D01*
X6386428Y-2226571D01*
X6372143Y-2198000D01*
X6343571Y-2183714D01*
X6300714Y-2183714D01*
X6272143Y-2169429D01*
X6257857Y-2140857D01*
X6257857Y-2126571D01*
X6272143Y-2098000D01*
X6300714Y-2083714D01*
X6343571Y-2083714D01*
X6372143Y-2098000D01*
X6486428Y-2398000D02*
X6500714Y-2383714D01*
X6529286Y-2340857D01*
X6543571Y-2312286D01*
X6557857Y-2269429D01*
X6572143Y-2198000D01*
X6572143Y-2140857D01*
X6557857Y-2069428D01*
X6543571Y-2026571D01*
X6529286Y-1998000D01*
X6500714Y-1955143D01*
X6486428Y-1940857D01*
X-50000Y-2594000D02*
X0Y-2544000D01*
X-50000Y-2494000D01*
X-100000Y-2544000D01*
X-50000Y-2594000D01*
X443571Y-2679714D02*
X272143Y-2679714D01*
X357857Y-2679714D02*
X357857Y-2379714D01*
X329286Y-2422571D01*
X300714Y-2451143D01*
X272143Y-2465429D01*
X572143Y-2651143D02*
X586429Y-2665429D01*
X572143Y-2679714D01*
X557857Y-2665429D01*
X572143Y-2651143D01*
X572143Y-2679714D01*
X772143Y-2379714D02*
X800714Y-2379714D01*
X829286Y-2394000D01*
X843571Y-2408286D01*
X857857Y-2436857D01*
X872143Y-2494000D01*
X872143Y-2565429D01*
X857857Y-2622571D01*
X843571Y-2651143D01*
X829286Y-2665429D01*
X800714Y-2679714D01*
X772143Y-2679714D01*
X743571Y-2665429D01*
X729286Y-2651143D01*
X715000Y-2622571D01*
X700714Y-2565429D01*
X700714Y-2494000D01*
X715000Y-2436857D01*
X729286Y-2408286D01*
X743571Y-2394000D01*
X772143Y-2379714D01*
X1057857Y-2379714D02*
X1086429Y-2379714D01*
X1115000Y-2394000D01*
X1129286Y-2408286D01*
X1143571Y-2436857D01*
X1157857Y-2494000D01*
X1157857Y-2565429D01*
X1143571Y-2622571D01*
X1129286Y-2651143D01*
X1115000Y-2665429D01*
X1086429Y-2679714D01*
X1057857Y-2679714D01*
X1029286Y-2665429D01*
X1015000Y-2651143D01*
X1000714Y-2622571D01*
X986428Y-2565429D01*
X986428Y-2494000D01*
X1000714Y-2436857D01*
X1015000Y-2408286D01*
X1029286Y-2394000D01*
X1057857Y-2379714D01*
X1286429Y-2679714D02*
X1286429Y-2479714D01*
X1286429Y-2508286D02*
X1300714Y-2494000D01*
X1329286Y-2479714D01*
X1372143Y-2479714D01*
X1400714Y-2494000D01*
X1415000Y-2522571D01*
X1415000Y-2679714D01*
X1415000Y-2522571D02*
X1429286Y-2494000D01*
X1457857Y-2479714D01*
X1500714Y-2479714D01*
X1529286Y-2494000D01*
X1543571Y-2522571D01*
X1543571Y-2679714D01*
X1686428Y-2679714D02*
X1686428Y-2479714D01*
X1686428Y-2508286D02*
X1700714Y-2494000D01*
X1729286Y-2479714D01*
X1772143Y-2479714D01*
X1800714Y-2494000D01*
X1815000Y-2522571D01*
X1815000Y-2679714D01*
X1815000Y-2522571D02*
X1829286Y-2494000D01*
X1857857Y-2479714D01*
X1900714Y-2479714D01*
X1929286Y-2494000D01*
X1943571Y-2522571D01*
X1943571Y-2679714D01*
X2529286Y-2365429D02*
X2272143Y-2751143D01*
X2915000Y-2379714D02*
X2943571Y-2379714D01*
X2972143Y-2394000D01*
X2986428Y-2408286D01*
X3000714Y-2436857D01*
X3015000Y-2494000D01*
X3015000Y-2565429D01*
X3000714Y-2622571D01*
X2986428Y-2651143D01*
X2972143Y-2665429D01*
X2943571Y-2679714D01*
X2915000Y-2679714D01*
X2886428Y-2665429D01*
X2872143Y-2651143D01*
X2857857Y-2622571D01*
X2843571Y-2565429D01*
X2843571Y-2494000D01*
X2857857Y-2436857D01*
X2872143Y-2408286D01*
X2886428Y-2394000D01*
X2915000Y-2379714D01*
X3143571Y-2651143D02*
X3157857Y-2665429D01*
X3143571Y-2679714D01*
X3129286Y-2665429D01*
X3143571Y-2651143D01*
X3143571Y-2679714D01*
X3343571Y-2379714D02*
X3372143Y-2379714D01*
X3400714Y-2394000D01*
X3415000Y-2408286D01*
X3429286Y-2436857D01*
X3443571Y-2494000D01*
X3443571Y-2565429D01*
X3429286Y-2622571D01*
X3415000Y-2651143D01*
X3400714Y-2665429D01*
X3372143Y-2679714D01*
X3343571Y-2679714D01*
X3315000Y-2665429D01*
X3300714Y-2651143D01*
X3286428Y-2622571D01*
X3272143Y-2565429D01*
X3272143Y-2494000D01*
X3286428Y-2436857D01*
X3300714Y-2408286D01*
X3315000Y-2394000D01*
X3343571Y-2379714D01*
X3543571Y-2379714D02*
X3729286Y-2379714D01*
X3629286Y-2494000D01*
X3672143Y-2494000D01*
X3700714Y-2508286D01*
X3715000Y-2522571D01*
X3729286Y-2551143D01*
X3729286Y-2622571D01*
X3715000Y-2651143D01*
X3700714Y-2665429D01*
X3672143Y-2679714D01*
X3586428Y-2679714D01*
X3557857Y-2665429D01*
X3543571Y-2651143D01*
X3872143Y-2679714D02*
X3929286Y-2679714D01*
X3957857Y-2665429D01*
X3972143Y-2651143D01*
X4000714Y-2608286D01*
X4015000Y-2551143D01*
X4015000Y-2436857D01*
X4000714Y-2408286D01*
X3986428Y-2394000D01*
X3957857Y-2379714D01*
X3900714Y-2379714D01*
X3872143Y-2394000D01*
X3857857Y-2408286D01*
X3843571Y-2436857D01*
X3843571Y-2508286D01*
X3857857Y-2536857D01*
X3872143Y-2551143D01*
X3900714Y-2565429D01*
X3957857Y-2565429D01*
X3986428Y-2551143D01*
X4000714Y-2536857D01*
X4015000Y-2508286D01*
X4129286Y-2379714D02*
X4129286Y-2436857D01*
X4243571Y-2379714D02*
X4243571Y-2436857D01*
X4686429Y-2794000D02*
X4672143Y-2779714D01*
X4643571Y-2736857D01*
X4629286Y-2708286D01*
X4615000Y-2665429D01*
X4600714Y-2594000D01*
X4600714Y-2536857D01*
X4615000Y-2465429D01*
X4629286Y-2422571D01*
X4643571Y-2394000D01*
X4672143Y-2351143D01*
X4686429Y-2336857D01*
X4929286Y-2379714D02*
X4872143Y-2379714D01*
X4843571Y-2394000D01*
X4829286Y-2408286D01*
X4800714Y-2451143D01*
X4786429Y-2508286D01*
X4786429Y-2622571D01*
X4800714Y-2651143D01*
X4815000Y-2665429D01*
X4843571Y-2679714D01*
X4900714Y-2679714D01*
X4929286Y-2665429D01*
X4943571Y-2651143D01*
X4957857Y-2622571D01*
X4957857Y-2551143D01*
X4943571Y-2522571D01*
X4929286Y-2508286D01*
X4900714Y-2494000D01*
X4843571Y-2494000D01*
X4815000Y-2508286D01*
X4800714Y-2522571D01*
X4786429Y-2551143D01*
X5057857Y-2379714D02*
X5243571Y-2379714D01*
X5143571Y-2494000D01*
X5186429Y-2494000D01*
X5215000Y-2508286D01*
X5229286Y-2522571D01*
X5243571Y-2551143D01*
X5243571Y-2622571D01*
X5229286Y-2651143D01*
X5215000Y-2665429D01*
X5186429Y-2679714D01*
X5100714Y-2679714D01*
X5072143Y-2665429D01*
X5057857Y-2651143D01*
X5600714Y-2679714D02*
X5600714Y-2379714D01*
X5729286Y-2679714D02*
X5729286Y-2522571D01*
X5715000Y-2494000D01*
X5686428Y-2479714D01*
X5643571Y-2479714D01*
X5615000Y-2494000D01*
X5600714Y-2508286D01*
X5915000Y-2679714D02*
X5886428Y-2665429D01*
X5872143Y-2651143D01*
X5857857Y-2622571D01*
X5857857Y-2536857D01*
X5872143Y-2508286D01*
X5886428Y-2494000D01*
X5915000Y-2479714D01*
X5957857Y-2479714D01*
X5986428Y-2494000D01*
X6000714Y-2508286D01*
X6015000Y-2536857D01*
X6015000Y-2622571D01*
X6000714Y-2651143D01*
X5986428Y-2665429D01*
X5957857Y-2679714D01*
X5915000Y-2679714D01*
X6186428Y-2679714D02*
X6157857Y-2665429D01*
X6143571Y-2636857D01*
X6143571Y-2379714D01*
X6415000Y-2665429D02*
X6386428Y-2679714D01*
X6329286Y-2679714D01*
X6300714Y-2665429D01*
X6286428Y-2636857D01*
X6286428Y-2522571D01*
X6300714Y-2494000D01*
X6329286Y-2479714D01*
X6386428Y-2479714D01*
X6415000Y-2494000D01*
X6429286Y-2522571D01*
X6429286Y-2551143D01*
X6286428Y-2579714D01*
X6543571Y-2665429D02*
X6572143Y-2679714D01*
X6629286Y-2679714D01*
X6657857Y-2665429D01*
X6672143Y-2636857D01*
X6672143Y-2622571D01*
X6657857Y-2594000D01*
X6629286Y-2579714D01*
X6586428Y-2579714D01*
X6557857Y-2565429D01*
X6543571Y-2536857D01*
X6543571Y-2522571D01*
X6557857Y-2494000D01*
X6586428Y-2479714D01*
X6629286Y-2479714D01*
X6657857Y-2494000D01*
X6772143Y-2794000D02*
X6786428Y-2779714D01*
X6815000Y-2736857D01*
X6829286Y-2708286D01*
X6843571Y-2665429D01*
X6857857Y-2594000D01*
X6857857Y-2536857D01*
X6843571Y-2465429D01*
X6829286Y-2422571D01*
X6815000Y-2394000D01*
X6786428Y-2351143D01*
X6772143Y-2336857D01*
X-120000Y-2880000D02*
X0Y-3000000D01*
X0Y-2880000D02*
X-120000Y-3000000D01*
X0Y-2940000D02*
G75*
G03*
X0Y-2940000I-60000J0D01*
G01*
X443571Y-3075714D02*
X272143Y-3075714D01*
X357857Y-3075714D02*
X357857Y-2775714D01*
X329286Y-2818571D01*
X300714Y-2847143D01*
X272143Y-2861428D01*
X572143Y-3047143D02*
X586429Y-3061428D01*
X572143Y-3075714D01*
X557857Y-3061428D01*
X572143Y-3047143D01*
X572143Y-3075714D01*
X700714Y-2804286D02*
X715000Y-2790000D01*
X743571Y-2775714D01*
X815000Y-2775714D01*
X843571Y-2790000D01*
X857857Y-2804286D01*
X872143Y-2832857D01*
X872143Y-2861428D01*
X857857Y-2904286D01*
X686429Y-3075714D01*
X872143Y-3075714D01*
X1057857Y-2775714D02*
X1086429Y-2775714D01*
X1115000Y-2790000D01*
X1129286Y-2804286D01*
X1143571Y-2832857D01*
X1157857Y-2890000D01*
X1157857Y-2961428D01*
X1143571Y-3018571D01*
X1129286Y-3047143D01*
X1115000Y-3061428D01*
X1086429Y-3075714D01*
X1057857Y-3075714D01*
X1029286Y-3061428D01*
X1015000Y-3047143D01*
X1000714Y-3018571D01*
X986428Y-2961428D01*
X986428Y-2890000D01*
X1000714Y-2832857D01*
X1015000Y-2804286D01*
X1029286Y-2790000D01*
X1057857Y-2775714D01*
X1286429Y-3075714D02*
X1286429Y-2875714D01*
X1286429Y-2904286D02*
X1300714Y-2890000D01*
X1329286Y-2875714D01*
X1372143Y-2875714D01*
X1400714Y-2890000D01*
X1415000Y-2918571D01*
X1415000Y-3075714D01*
X1415000Y-2918571D02*
X1429286Y-2890000D01*
X1457857Y-2875714D01*
X1500714Y-2875714D01*
X1529286Y-2890000D01*
X1543571Y-2918571D01*
X1543571Y-3075714D01*
X1686428Y-3075714D02*
X1686428Y-2875714D01*
X1686428Y-2904286D02*
X1700714Y-2890000D01*
X1729286Y-2875714D01*
X1772143Y-2875714D01*
X1800714Y-2890000D01*
X1815000Y-2918571D01*
X1815000Y-3075714D01*
X1815000Y-2918571D02*
X1829286Y-2890000D01*
X1857857Y-2875714D01*
X1900714Y-2875714D01*
X1929286Y-2890000D01*
X1943571Y-2918571D01*
X1943571Y-3075714D01*
X2529286Y-2761429D02*
X2272143Y-3147143D01*
X2915000Y-2775714D02*
X2943571Y-2775714D01*
X2972143Y-2790000D01*
X2986428Y-2804286D01*
X3000714Y-2832857D01*
X3015000Y-2890000D01*
X3015000Y-2961428D01*
X3000714Y-3018571D01*
X2986428Y-3047143D01*
X2972143Y-3061428D01*
X2943571Y-3075714D01*
X2915000Y-3075714D01*
X2886428Y-3061428D01*
X2872143Y-3047143D01*
X2857857Y-3018571D01*
X2843571Y-2961428D01*
X2843571Y-2890000D01*
X2857857Y-2832857D01*
X2872143Y-2804286D01*
X2886428Y-2790000D01*
X2915000Y-2775714D01*
X3143571Y-3047143D02*
X3157857Y-3061428D01*
X3143571Y-3075714D01*
X3129286Y-3061428D01*
X3143571Y-3047143D01*
X3143571Y-3075714D01*
X3343571Y-2775714D02*
X3372143Y-2775714D01*
X3400714Y-2790000D01*
X3415000Y-2804286D01*
X3429286Y-2832857D01*
X3443571Y-2890000D01*
X3443571Y-2961428D01*
X3429286Y-3018571D01*
X3415000Y-3047143D01*
X3400714Y-3061428D01*
X3372143Y-3075714D01*
X3343571Y-3075714D01*
X3315000Y-3061428D01*
X3300714Y-3047143D01*
X3286428Y-3018571D01*
X3272143Y-2961428D01*
X3272143Y-2890000D01*
X3286428Y-2832857D01*
X3300714Y-2804286D01*
X3315000Y-2790000D01*
X3343571Y-2775714D01*
X3700714Y-2875714D02*
X3700714Y-3075714D01*
X3629286Y-2761429D02*
X3557857Y-2975714D01*
X3743571Y-2975714D01*
X3829286Y-2775714D02*
X4029286Y-2775714D01*
X3900714Y-3075714D01*
X4129286Y-2775714D02*
X4129286Y-2832857D01*
X4243571Y-2775714D02*
X4243571Y-2832857D01*
X4686429Y-3190000D02*
X4672143Y-3175714D01*
X4643571Y-3132857D01*
X4629286Y-3104286D01*
X4615000Y-3061428D01*
X4600714Y-2990000D01*
X4600714Y-2932857D01*
X4615000Y-2861428D01*
X4629286Y-2818571D01*
X4643571Y-2790000D01*
X4672143Y-2747143D01*
X4686429Y-2732857D01*
X4786429Y-2804286D02*
X4800714Y-2790000D01*
X4829286Y-2775714D01*
X4900714Y-2775714D01*
X4929286Y-2790000D01*
X4943571Y-2804286D01*
X4957857Y-2832857D01*
X4957857Y-2861428D01*
X4943571Y-2904286D01*
X4772143Y-3075714D01*
X4957857Y-3075714D01*
X5315000Y-3075714D02*
X5315000Y-2775714D01*
X5443571Y-3075714D02*
X5443571Y-2918571D01*
X5429286Y-2890000D01*
X5400714Y-2875714D01*
X5357857Y-2875714D01*
X5329286Y-2890000D01*
X5315000Y-2904286D01*
X5629286Y-3075714D02*
X5600714Y-3061428D01*
X5586429Y-3047143D01*
X5572143Y-3018571D01*
X5572143Y-2932857D01*
X5586429Y-2904286D01*
X5600714Y-2890000D01*
X5629286Y-2875714D01*
X5672143Y-2875714D01*
X5700714Y-2890000D01*
X5715000Y-2904286D01*
X5729286Y-2932857D01*
X5729286Y-3018571D01*
X5715000Y-3047143D01*
X5700714Y-3061428D01*
X5672143Y-3075714D01*
X5629286Y-3075714D01*
X5900714Y-3075714D02*
X5872143Y-3061428D01*
X5857857Y-3032857D01*
X5857857Y-2775714D01*
X6129286Y-3061428D02*
X6100714Y-3075714D01*
X6043571Y-3075714D01*
X6015000Y-3061428D01*
X6000714Y-3032857D01*
X6000714Y-2918571D01*
X6015000Y-2890000D01*
X6043571Y-2875714D01*
X6100714Y-2875714D01*
X6129286Y-2890000D01*
X6143571Y-2918571D01*
X6143571Y-2947143D01*
X6000714Y-2975714D01*
X6257857Y-3061428D02*
X6286428Y-3075714D01*
X6343571Y-3075714D01*
X6372143Y-3061428D01*
X6386428Y-3032857D01*
X6386428Y-3018571D01*
X6372143Y-2990000D01*
X6343571Y-2975714D01*
X6300714Y-2975714D01*
X6272143Y-2961428D01*
X6257857Y-2932857D01*
X6257857Y-2918571D01*
X6272143Y-2890000D01*
X6300714Y-2875714D01*
X6343571Y-2875714D01*
X6372143Y-2890000D01*
X6486428Y-3190000D02*
X6500714Y-3175714D01*
X6529286Y-3132857D01*
X6543571Y-3104286D01*
X6557857Y-3061428D01*
X6572143Y-2990000D01*
X6572143Y-2932857D01*
X6557857Y-2861428D01*
X6543571Y-2818571D01*
X6529286Y-2790000D01*
X6500714Y-2747143D01*
X6486428Y-2732857D01*
X-130000Y-3271000D02*
X0Y-3401000D01*
X0Y-3271000D02*
X-130000Y-3401000D01*
X-65000Y-3271000D02*
X-65000Y-3401000D01*
X-130000Y-3336000D02*
X0Y-3336000D01*
X443571Y-3471714D02*
X272143Y-3471714D01*
X357857Y-3471714D02*
X357857Y-3171714D01*
X329286Y-3214571D01*
X300714Y-3243143D01*
X272143Y-3257428D01*
X572143Y-3443143D02*
X586429Y-3457428D01*
X572143Y-3471714D01*
X557857Y-3457428D01*
X572143Y-3443143D01*
X572143Y-3471714D01*
X686429Y-3171714D02*
X872143Y-3171714D01*
X772143Y-3286000D01*
X815000Y-3286000D01*
X843571Y-3300286D01*
X857857Y-3314571D01*
X872143Y-3343143D01*
X872143Y-3414571D01*
X857857Y-3443143D01*
X843571Y-3457428D01*
X815000Y-3471714D01*
X729286Y-3471714D01*
X700714Y-3457428D01*
X686429Y-3443143D01*
X1057857Y-3171714D02*
X1086429Y-3171714D01*
X1115000Y-3186000D01*
X1129286Y-3200286D01*
X1143571Y-3228857D01*
X1157857Y-3286000D01*
X1157857Y-3357428D01*
X1143571Y-3414571D01*
X1129286Y-3443143D01*
X1115000Y-3457428D01*
X1086429Y-3471714D01*
X1057857Y-3471714D01*
X1029286Y-3457428D01*
X1015000Y-3443143D01*
X1000714Y-3414571D01*
X986428Y-3357428D01*
X986428Y-3286000D01*
X1000714Y-3228857D01*
X1015000Y-3200286D01*
X1029286Y-3186000D01*
X1057857Y-3171714D01*
X1286429Y-3471714D02*
X1286429Y-3271714D01*
X1286429Y-3300286D02*
X1300714Y-3286000D01*
X1329286Y-3271714D01*
X1372143Y-3271714D01*
X1400714Y-3286000D01*
X1415000Y-3314571D01*
X1415000Y-3471714D01*
X1415000Y-3314571D02*
X1429286Y-3286000D01*
X1457857Y-3271714D01*
X1500714Y-3271714D01*
X1529286Y-3286000D01*
X1543571Y-3314571D01*
X1543571Y-3471714D01*
X1686428Y-3471714D02*
X1686428Y-3271714D01*
X1686428Y-3300286D02*
X1700714Y-3286000D01*
X1729286Y-3271714D01*
X1772143Y-3271714D01*
X1800714Y-3286000D01*
X1815000Y-3314571D01*
X1815000Y-3471714D01*
X1815000Y-3314571D02*
X1829286Y-3286000D01*
X1857857Y-3271714D01*
X1900714Y-3271714D01*
X1929286Y-3286000D01*
X1943571Y-3314571D01*
X1943571Y-3471714D01*
X2529286Y-3157428D02*
X2272143Y-3543143D01*
X2915000Y-3171714D02*
X2943571Y-3171714D01*
X2972143Y-3186000D01*
X2986428Y-3200286D01*
X3000714Y-3228857D01*
X3015000Y-3286000D01*
X3015000Y-3357428D01*
X3000714Y-3414571D01*
X2986428Y-3443143D01*
X2972143Y-3457428D01*
X2943571Y-3471714D01*
X2915000Y-3471714D01*
X2886428Y-3457428D01*
X2872143Y-3443143D01*
X2857857Y-3414571D01*
X2843571Y-3357428D01*
X2843571Y-3286000D01*
X2857857Y-3228857D01*
X2872143Y-3200286D01*
X2886428Y-3186000D01*
X2915000Y-3171714D01*
X3143571Y-3443143D02*
X3157857Y-3457428D01*
X3143571Y-3471714D01*
X3129286Y-3457428D01*
X3143571Y-3443143D01*
X3143571Y-3471714D01*
X3343571Y-3171714D02*
X3372143Y-3171714D01*
X3400714Y-3186000D01*
X3415000Y-3200286D01*
X3429286Y-3228857D01*
X3443571Y-3286000D01*
X3443571Y-3357428D01*
X3429286Y-3414571D01*
X3415000Y-3443143D01*
X3400714Y-3457428D01*
X3372143Y-3471714D01*
X3343571Y-3471714D01*
X3315000Y-3457428D01*
X3300714Y-3443143D01*
X3286428Y-3414571D01*
X3272143Y-3357428D01*
X3272143Y-3286000D01*
X3286428Y-3228857D01*
X3300714Y-3200286D01*
X3315000Y-3186000D01*
X3343571Y-3171714D01*
X3715000Y-3171714D02*
X3572143Y-3171714D01*
X3557857Y-3314571D01*
X3572143Y-3300286D01*
X3600714Y-3286000D01*
X3672143Y-3286000D01*
X3700714Y-3300286D01*
X3715000Y-3314571D01*
X3729286Y-3343143D01*
X3729286Y-3414571D01*
X3715000Y-3443143D01*
X3700714Y-3457428D01*
X3672143Y-3471714D01*
X3600714Y-3471714D01*
X3572143Y-3457428D01*
X3557857Y-3443143D01*
X4015000Y-3471714D02*
X3843571Y-3471714D01*
X3929286Y-3471714D02*
X3929286Y-3171714D01*
X3900714Y-3214571D01*
X3872143Y-3243143D01*
X3843571Y-3257428D01*
X4129286Y-3171714D02*
X4129286Y-3228857D01*
X4243571Y-3171714D02*
X4243571Y-3228857D01*
X4686429Y-3586000D02*
X4672143Y-3571714D01*
X4643571Y-3528857D01*
X4629286Y-3500286D01*
X4615000Y-3457428D01*
X4600714Y-3386000D01*
X4600714Y-3328857D01*
X4615000Y-3257428D01*
X4629286Y-3214571D01*
X4643571Y-3186000D01*
X4672143Y-3143143D01*
X4686429Y-3128857D01*
X4943571Y-3171714D02*
X4800714Y-3171714D01*
X4786429Y-3314571D01*
X4800714Y-3300286D01*
X4829286Y-3286000D01*
X4900714Y-3286000D01*
X4929286Y-3300286D01*
X4943571Y-3314571D01*
X4957857Y-3343143D01*
X4957857Y-3414571D01*
X4943571Y-3443143D01*
X4929286Y-3457428D01*
X4900714Y-3471714D01*
X4829286Y-3471714D01*
X4800714Y-3457428D01*
X4786429Y-3443143D01*
X5315000Y-3471714D02*
X5315000Y-3171714D01*
X5443571Y-3471714D02*
X5443571Y-3314571D01*
X5429286Y-3286000D01*
X5400714Y-3271714D01*
X5357857Y-3271714D01*
X5329286Y-3286000D01*
X5315000Y-3300286D01*
X5629286Y-3471714D02*
X5600714Y-3457428D01*
X5586429Y-3443143D01*
X5572143Y-3414571D01*
X5572143Y-3328857D01*
X5586429Y-3300286D01*
X5600714Y-3286000D01*
X5629286Y-3271714D01*
X5672143Y-3271714D01*
X5700714Y-3286000D01*
X5715000Y-3300286D01*
X5729286Y-3328857D01*
X5729286Y-3414571D01*
X5715000Y-3443143D01*
X5700714Y-3457428D01*
X5672143Y-3471714D01*
X5629286Y-3471714D01*
X5900714Y-3471714D02*
X5872143Y-3457428D01*
X5857857Y-3428857D01*
X5857857Y-3171714D01*
X6129286Y-3457428D02*
X6100714Y-3471714D01*
X6043571Y-3471714D01*
X6015000Y-3457428D01*
X6000714Y-3428857D01*
X6000714Y-3314571D01*
X6015000Y-3286000D01*
X6043571Y-3271714D01*
X6100714Y-3271714D01*
X6129286Y-3286000D01*
X6143571Y-3314571D01*
X6143571Y-3343143D01*
X6000714Y-3371714D01*
X6257857Y-3457428D02*
X6286428Y-3471714D01*
X6343571Y-3471714D01*
X6372143Y-3457428D01*
X6386428Y-3428857D01*
X6386428Y-3414571D01*
X6372143Y-3386000D01*
X6343571Y-3371714D01*
X6300714Y-3371714D01*
X6272143Y-3357428D01*
X6257857Y-3328857D01*
X6257857Y-3314571D01*
X6272143Y-3286000D01*
X6300714Y-3271714D01*
X6343571Y-3271714D01*
X6372143Y-3286000D01*
X6486428Y-3586000D02*
X6500714Y-3571714D01*
X6529286Y-3528857D01*
X6543571Y-3500286D01*
X6557857Y-3457428D01*
X6572143Y-3386000D01*
X6572143Y-3328857D01*
X6557857Y-3257428D01*
X6543571Y-3214571D01*
X6529286Y-3186000D01*
X6500714Y-3143143D01*
X6486428Y-3128857D01*
X-152000Y-3656000D02*
X0Y-3808000D01*
X0Y-3656000D02*
X-152000Y-3808000D01*
X-22259Y-3785741D02*
X-22259Y-3678259D01*
X-129741Y-3678259D01*
X-129741Y-3785741D01*
X-22259Y-3785741D01*
X443571Y-3867714D02*
X272143Y-3867714D01*
X357857Y-3867714D02*
X357857Y-3567714D01*
X329286Y-3610571D01*
X300714Y-3639143D01*
X272143Y-3653428D01*
X572143Y-3839143D02*
X586429Y-3853428D01*
X572143Y-3867714D01*
X557857Y-3853428D01*
X572143Y-3839143D01*
X572143Y-3867714D01*
X857857Y-3567714D02*
X715000Y-3567714D01*
X700714Y-3710571D01*
X715000Y-3696286D01*
X743571Y-3682000D01*
X815000Y-3682000D01*
X843571Y-3696286D01*
X857857Y-3710571D01*
X872143Y-3739143D01*
X872143Y-3810571D01*
X857857Y-3839143D01*
X843571Y-3853428D01*
X815000Y-3867714D01*
X743571Y-3867714D01*
X715000Y-3853428D01*
X700714Y-3839143D01*
X986428Y-3596286D02*
X1000714Y-3582000D01*
X1029286Y-3567714D01*
X1100714Y-3567714D01*
X1129286Y-3582000D01*
X1143571Y-3596286D01*
X1157857Y-3624857D01*
X1157857Y-3653428D01*
X1143571Y-3696286D01*
X972143Y-3867714D01*
X1157857Y-3867714D01*
X1286429Y-3867714D02*
X1286429Y-3667714D01*
X1286429Y-3696286D02*
X1300714Y-3682000D01*
X1329286Y-3667714D01*
X1372143Y-3667714D01*
X1400714Y-3682000D01*
X1415000Y-3710571D01*
X1415000Y-3867714D01*
X1415000Y-3710571D02*
X1429286Y-3682000D01*
X1457857Y-3667714D01*
X1500714Y-3667714D01*
X1529286Y-3682000D01*
X1543571Y-3710571D01*
X1543571Y-3867714D01*
X1686428Y-3867714D02*
X1686428Y-3667714D01*
X1686428Y-3696286D02*
X1700714Y-3682000D01*
X1729286Y-3667714D01*
X1772143Y-3667714D01*
X1800714Y-3682000D01*
X1815000Y-3710571D01*
X1815000Y-3867714D01*
X1815000Y-3710571D02*
X1829286Y-3682000D01*
X1857857Y-3667714D01*
X1900714Y-3667714D01*
X1929286Y-3682000D01*
X1943571Y-3710571D01*
X1943571Y-3867714D01*
X2529286Y-3553428D02*
X2272143Y-3939143D01*
X2915000Y-3567714D02*
X2943571Y-3567714D01*
X2972143Y-3582000D01*
X2986428Y-3596286D01*
X3000714Y-3624857D01*
X3015000Y-3682000D01*
X3015000Y-3753428D01*
X3000714Y-3810571D01*
X2986428Y-3839143D01*
X2972143Y-3853428D01*
X2943571Y-3867714D01*
X2915000Y-3867714D01*
X2886428Y-3853428D01*
X2872143Y-3839143D01*
X2857857Y-3810571D01*
X2843571Y-3753428D01*
X2843571Y-3682000D01*
X2857857Y-3624857D01*
X2872143Y-3596286D01*
X2886428Y-3582000D01*
X2915000Y-3567714D01*
X3143571Y-3839143D02*
X3157857Y-3853428D01*
X3143571Y-3867714D01*
X3129286Y-3853428D01*
X3143571Y-3839143D01*
X3143571Y-3867714D01*
X3343571Y-3567714D02*
X3372143Y-3567714D01*
X3400714Y-3582000D01*
X3415000Y-3596286D01*
X3429286Y-3624857D01*
X3443571Y-3682000D01*
X3443571Y-3753428D01*
X3429286Y-3810571D01*
X3415000Y-3839143D01*
X3400714Y-3853428D01*
X3372143Y-3867714D01*
X3343571Y-3867714D01*
X3315000Y-3853428D01*
X3300714Y-3839143D01*
X3286428Y-3810571D01*
X3272143Y-3753428D01*
X3272143Y-3682000D01*
X3286428Y-3624857D01*
X3300714Y-3596286D01*
X3315000Y-3582000D01*
X3343571Y-3567714D01*
X3700714Y-3567714D02*
X3643571Y-3567714D01*
X3615000Y-3582000D01*
X3600714Y-3596286D01*
X3572143Y-3639143D01*
X3557857Y-3696286D01*
X3557857Y-3810571D01*
X3572143Y-3839143D01*
X3586428Y-3853428D01*
X3615000Y-3867714D01*
X3672143Y-3867714D01*
X3700714Y-3853428D01*
X3715000Y-3839143D01*
X3729286Y-3810571D01*
X3729286Y-3739143D01*
X3715000Y-3710571D01*
X3700714Y-3696286D01*
X3672143Y-3682000D01*
X3615000Y-3682000D01*
X3586428Y-3696286D01*
X3572143Y-3710571D01*
X3557857Y-3739143D01*
X3915000Y-3567714D02*
X3943571Y-3567714D01*
X3972143Y-3582000D01*
X3986428Y-3596286D01*
X4000714Y-3624857D01*
X4015000Y-3682000D01*
X4015000Y-3753428D01*
X4000714Y-3810571D01*
X3986428Y-3839143D01*
X3972143Y-3853428D01*
X3943571Y-3867714D01*
X3915000Y-3867714D01*
X3886428Y-3853428D01*
X3872143Y-3839143D01*
X3857857Y-3810571D01*
X3843571Y-3753428D01*
X3843571Y-3682000D01*
X3857857Y-3624857D01*
X3872143Y-3596286D01*
X3886428Y-3582000D01*
X3915000Y-3567714D01*
X4129286Y-3567714D02*
X4129286Y-3624857D01*
X4243571Y-3567714D02*
X4243571Y-3624857D01*
X4686429Y-3982000D02*
X4672143Y-3967714D01*
X4643571Y-3924857D01*
X4629286Y-3896286D01*
X4615000Y-3853428D01*
X4600714Y-3782000D01*
X4600714Y-3724857D01*
X4615000Y-3653428D01*
X4629286Y-3610571D01*
X4643571Y-3582000D01*
X4672143Y-3539143D01*
X4686429Y-3524857D01*
X4929286Y-3567714D02*
X4872143Y-3567714D01*
X4843571Y-3582000D01*
X4829286Y-3596286D01*
X4800714Y-3639143D01*
X4786429Y-3696286D01*
X4786429Y-3810571D01*
X4800714Y-3839143D01*
X4815000Y-3853428D01*
X4843571Y-3867714D01*
X4900714Y-3867714D01*
X4929286Y-3853428D01*
X4943571Y-3839143D01*
X4957857Y-3810571D01*
X4957857Y-3739143D01*
X4943571Y-3710571D01*
X4929286Y-3696286D01*
X4900714Y-3682000D01*
X4843571Y-3682000D01*
X4815000Y-3696286D01*
X4800714Y-3710571D01*
X4786429Y-3739143D01*
X5315000Y-3867714D02*
X5315000Y-3567714D01*
X5443571Y-3867714D02*
X5443571Y-3710571D01*
X5429286Y-3682000D01*
X5400714Y-3667714D01*
X5357857Y-3667714D01*
X5329286Y-3682000D01*
X5315000Y-3696286D01*
X5629286Y-3867714D02*
X5600714Y-3853428D01*
X5586429Y-3839143D01*
X5572143Y-3810571D01*
X5572143Y-3724857D01*
X5586429Y-3696286D01*
X5600714Y-3682000D01*
X5629286Y-3667714D01*
X5672143Y-3667714D01*
X5700714Y-3682000D01*
X5715000Y-3696286D01*
X5729286Y-3724857D01*
X5729286Y-3810571D01*
X5715000Y-3839143D01*
X5700714Y-3853428D01*
X5672143Y-3867714D01*
X5629286Y-3867714D01*
X5900714Y-3867714D02*
X5872143Y-3853428D01*
X5857857Y-3824857D01*
X5857857Y-3567714D01*
X6129286Y-3853428D02*
X6100714Y-3867714D01*
X6043571Y-3867714D01*
X6015000Y-3853428D01*
X6000714Y-3824857D01*
X6000714Y-3710571D01*
X6015000Y-3682000D01*
X6043571Y-3667714D01*
X6100714Y-3667714D01*
X6129286Y-3682000D01*
X6143571Y-3710571D01*
X6143571Y-3739143D01*
X6000714Y-3767714D01*
X6257857Y-3853428D02*
X6286428Y-3867714D01*
X6343571Y-3867714D01*
X6372143Y-3853428D01*
X6386428Y-3824857D01*
X6386428Y-3810571D01*
X6372143Y-3782000D01*
X6343571Y-3767714D01*
X6300714Y-3767714D01*
X6272143Y-3753428D01*
X6257857Y-3724857D01*
X6257857Y-3710571D01*
X6272143Y-3682000D01*
X6300714Y-3667714D01*
X6343571Y-3667714D01*
X6372143Y-3682000D01*
X6486428Y-3982000D02*
X6500714Y-3967714D01*
X6529286Y-3924857D01*
X6543571Y-3896286D01*
X6557857Y-3853428D01*
X6572143Y-3782000D01*
X6572143Y-3724857D01*
X6557857Y-3653428D01*
X6543571Y-3610571D01*
X6529286Y-3582000D01*
X6500714Y-3539143D01*
X6486428Y-3524857D01*
X-230000Y-4013000D02*
X0Y-4243000D01*
X0Y-4013000D02*
X-230000Y-4243000D01*
X-115000Y-4243000D02*
X0Y-4128000D01*
X-115000Y-4013000D01*
X-230000Y-4128000D01*
X-115000Y-4243000D01*
X272143Y-3992286D02*
X286429Y-3978000D01*
X315000Y-3963714D01*
X386428Y-3963714D01*
X415000Y-3978000D01*
X429286Y-3992286D01*
X443571Y-4020857D01*
X443571Y-4049428D01*
X429286Y-4092286D01*
X257857Y-4263714D01*
X443571Y-4263714D01*
X572143Y-4235143D02*
X586429Y-4249429D01*
X572143Y-4263714D01*
X557857Y-4249429D01*
X572143Y-4235143D01*
X572143Y-4263714D01*
X686429Y-3963714D02*
X872143Y-3963714D01*
X772143Y-4078000D01*
X815000Y-4078000D01*
X843571Y-4092286D01*
X857857Y-4106571D01*
X872143Y-4135143D01*
X872143Y-4206571D01*
X857857Y-4235143D01*
X843571Y-4249429D01*
X815000Y-4263714D01*
X729286Y-4263714D01*
X700714Y-4249429D01*
X686429Y-4235143D01*
X1057857Y-3963714D02*
X1086429Y-3963714D01*
X1115000Y-3978000D01*
X1129286Y-3992286D01*
X1143571Y-4020857D01*
X1157857Y-4078000D01*
X1157857Y-4149428D01*
X1143571Y-4206571D01*
X1129286Y-4235143D01*
X1115000Y-4249429D01*
X1086429Y-4263714D01*
X1057857Y-4263714D01*
X1029286Y-4249429D01*
X1015000Y-4235143D01*
X1000714Y-4206571D01*
X986428Y-4149428D01*
X986428Y-4078000D01*
X1000714Y-4020857D01*
X1015000Y-3992286D01*
X1029286Y-3978000D01*
X1057857Y-3963714D01*
X1286429Y-4263714D02*
X1286429Y-4063714D01*
X1286429Y-4092286D02*
X1300714Y-4078000D01*
X1329286Y-4063714D01*
X1372143Y-4063714D01*
X1400714Y-4078000D01*
X1415000Y-4106571D01*
X1415000Y-4263714D01*
X1415000Y-4106571D02*
X1429286Y-4078000D01*
X1457857Y-4063714D01*
X1500714Y-4063714D01*
X1529286Y-4078000D01*
X1543571Y-4106571D01*
X1543571Y-4263714D01*
X1686428Y-4263714D02*
X1686428Y-4063714D01*
X1686428Y-4092286D02*
X1700714Y-4078000D01*
X1729286Y-4063714D01*
X1772143Y-4063714D01*
X1800714Y-4078000D01*
X1815000Y-4106571D01*
X1815000Y-4263714D01*
X1815000Y-4106571D02*
X1829286Y-4078000D01*
X1857857Y-4063714D01*
X1900714Y-4063714D01*
X1929286Y-4078000D01*
X1943571Y-4106571D01*
X1943571Y-4263714D01*
X2529286Y-3949428D02*
X2272143Y-4335143D01*
X2915000Y-3963714D02*
X2943571Y-3963714D01*
X2972143Y-3978000D01*
X2986428Y-3992286D01*
X3000714Y-4020857D01*
X3015000Y-4078000D01*
X3015000Y-4149428D01*
X3000714Y-4206571D01*
X2986428Y-4235143D01*
X2972143Y-4249429D01*
X2943571Y-4263714D01*
X2915000Y-4263714D01*
X2886428Y-4249429D01*
X2872143Y-4235143D01*
X2857857Y-4206571D01*
X2843571Y-4149428D01*
X2843571Y-4078000D01*
X2857857Y-4020857D01*
X2872143Y-3992286D01*
X2886428Y-3978000D01*
X2915000Y-3963714D01*
X3143571Y-4235143D02*
X3157857Y-4249429D01*
X3143571Y-4263714D01*
X3129286Y-4249429D01*
X3143571Y-4235143D01*
X3143571Y-4263714D01*
X3343571Y-3963714D02*
X3372143Y-3963714D01*
X3400714Y-3978000D01*
X3415000Y-3992286D01*
X3429286Y-4020857D01*
X3443571Y-4078000D01*
X3443571Y-4149428D01*
X3429286Y-4206571D01*
X3415000Y-4235143D01*
X3400714Y-4249429D01*
X3372143Y-4263714D01*
X3343571Y-4263714D01*
X3315000Y-4249429D01*
X3300714Y-4235143D01*
X3286428Y-4206571D01*
X3272143Y-4149428D01*
X3272143Y-4078000D01*
X3286428Y-4020857D01*
X3300714Y-3992286D01*
X3315000Y-3978000D01*
X3343571Y-3963714D01*
X3586428Y-4263714D02*
X3643571Y-4263714D01*
X3672143Y-4249429D01*
X3686428Y-4235143D01*
X3715000Y-4192286D01*
X3729286Y-4135143D01*
X3729286Y-4020857D01*
X3715000Y-3992286D01*
X3700714Y-3978000D01*
X3672143Y-3963714D01*
X3615000Y-3963714D01*
X3586428Y-3978000D01*
X3572143Y-3992286D01*
X3557857Y-4020857D01*
X3557857Y-4092286D01*
X3572143Y-4120857D01*
X3586428Y-4135143D01*
X3615000Y-4149428D01*
X3672143Y-4149428D01*
X3700714Y-4135143D01*
X3715000Y-4120857D01*
X3729286Y-4092286D01*
X4015000Y-4263714D02*
X3843571Y-4263714D01*
X3929286Y-4263714D02*
X3929286Y-3963714D01*
X3900714Y-4006571D01*
X3872143Y-4035143D01*
X3843571Y-4049428D01*
X4129286Y-3963714D02*
X4129286Y-4020857D01*
X4243571Y-3963714D02*
X4243571Y-4020857D01*
X4686429Y-4378000D02*
X4672143Y-4363714D01*
X4643571Y-4320857D01*
X4629286Y-4292286D01*
X4615000Y-4249429D01*
X4600714Y-4178000D01*
X4600714Y-4120857D01*
X4615000Y-4049428D01*
X4629286Y-4006571D01*
X4643571Y-3978000D01*
X4672143Y-3935143D01*
X4686429Y-3920857D01*
X4786429Y-3992286D02*
X4800714Y-3978000D01*
X4829286Y-3963714D01*
X4900714Y-3963714D01*
X4929286Y-3978000D01*
X4943571Y-3992286D01*
X4957857Y-4020857D01*
X4957857Y-4049428D01*
X4943571Y-4092286D01*
X4772143Y-4263714D01*
X4957857Y-4263714D01*
X5315000Y-4263714D02*
X5315000Y-3963714D01*
X5443571Y-4263714D02*
X5443571Y-4106571D01*
X5429286Y-4078000D01*
X5400714Y-4063714D01*
X5357857Y-4063714D01*
X5329286Y-4078000D01*
X5315000Y-4092286D01*
X5629286Y-4263714D02*
X5600714Y-4249429D01*
X5586429Y-4235143D01*
X5572143Y-4206571D01*
X5572143Y-4120857D01*
X5586429Y-4092286D01*
X5600714Y-4078000D01*
X5629286Y-4063714D01*
X5672143Y-4063714D01*
X5700714Y-4078000D01*
X5715000Y-4092286D01*
X5729286Y-4120857D01*
X5729286Y-4206571D01*
X5715000Y-4235143D01*
X5700714Y-4249429D01*
X5672143Y-4263714D01*
X5629286Y-4263714D01*
X5900714Y-4263714D02*
X5872143Y-4249429D01*
X5857857Y-4220857D01*
X5857857Y-3963714D01*
X6129286Y-4249429D02*
X6100714Y-4263714D01*
X6043571Y-4263714D01*
X6015000Y-4249429D01*
X6000714Y-4220857D01*
X6000714Y-4106571D01*
X6015000Y-4078000D01*
X6043571Y-4063714D01*
X6100714Y-4063714D01*
X6129286Y-4078000D01*
X6143571Y-4106571D01*
X6143571Y-4135143D01*
X6000714Y-4163714D01*
X6257857Y-4249429D02*
X6286428Y-4263714D01*
X6343571Y-4263714D01*
X6372143Y-4249429D01*
X6386428Y-4220857D01*
X6386428Y-4206571D01*
X6372143Y-4178000D01*
X6343571Y-4163714D01*
X6300714Y-4163714D01*
X6272143Y-4149428D01*
X6257857Y-4120857D01*
X6257857Y-4106571D01*
X6272143Y-4078000D01*
X6300714Y-4063714D01*
X6343571Y-4063714D01*
X6372143Y-4078000D01*
X6486428Y-4378000D02*
X6500714Y-4363714D01*
X6529286Y-4320857D01*
X6543571Y-4292286D01*
X6557857Y-4249429D01*
X6572143Y-4178000D01*
X6572143Y-4120857D01*
X6557857Y-4049428D01*
X6543571Y-4006571D01*
X6529286Y-3978000D01*
X6500714Y-3935143D01*
X6486428Y-3920857D01*
M02*
