%TF.GenerationSoftware,KiCad,Pcbnew,5.1.9*%
%TF.CreationDate,2021-04-25T21:33:00+02:00*%
%TF.ProjectId,splitter,73706c69-7474-4657-922e-6b696361645f,rev?*%
%TF.SameCoordinates,Original*%
%TF.FileFunction,Copper,L2,Bot*%
%TF.FilePolarity,Positive*%
%FSLAX46Y46*%
G04 Gerber Fmt 4.6, Leading zero omitted, Abs format (unit mm)*
G04 Created by KiCad (PCBNEW 5.1.9) date 2021-04-25 21:33:00*
%MOMM*%
%LPD*%
G01*
G04 APERTURE LIST*
%TA.AperFunction,ComponentPad*%
%ADD10C,2.500000*%
%TD*%
%TA.AperFunction,ComponentPad*%
%ADD11R,2.500000X2.500000*%
%TD*%
%TA.AperFunction,ComponentPad*%
%ADD12C,3.000000*%
%TD*%
%TA.AperFunction,ComponentPad*%
%ADD13C,1.800000*%
%TD*%
%TA.AperFunction,ComponentPad*%
%ADD14R,1.800000X1.800000*%
%TD*%
%TA.AperFunction,ComponentPad*%
%ADD15O,1.600000X1.600000*%
%TD*%
%TA.AperFunction,ComponentPad*%
%ADD16C,1.600000*%
%TD*%
%TA.AperFunction,ComponentPad*%
%ADD17C,2.000000*%
%TD*%
%TA.AperFunction,ComponentPad*%
%ADD18R,2.000000X2.000000*%
%TD*%
%TA.AperFunction,ComponentPad*%
%ADD19C,1.700000*%
%TD*%
%TA.AperFunction,ComponentPad*%
%ADD20O,1.800000X1.800000*%
%TD*%
%TA.AperFunction,ComponentPad*%
%ADD21R,1.700000X1.700000*%
%TD*%
%TA.AperFunction,ComponentPad*%
%ADD22O,1.700000X1.700000*%
%TD*%
%TA.AperFunction,ComponentPad*%
%ADD23C,2.600000*%
%TD*%
%TA.AperFunction,ComponentPad*%
%ADD24R,1.600000X1.600000*%
%TD*%
%TA.AperFunction,ViaPad*%
%ADD25C,0.800000*%
%TD*%
%TA.AperFunction,Conductor*%
%ADD26C,0.250000*%
%TD*%
%TA.AperFunction,Conductor*%
%ADD27C,2.000000*%
%TD*%
%TA.AperFunction,Conductor*%
%ADD28C,2.500000*%
%TD*%
%TA.AperFunction,Conductor*%
%ADD29C,1.500000*%
%TD*%
%TA.AperFunction,Conductor*%
%ADD30C,4.000000*%
%TD*%
%TA.AperFunction,Conductor*%
%ADD31C,3.000000*%
%TD*%
G04 APERTURE END LIST*
D10*
%TO.P,J7,2*%
%TO.N,/230V-N*%
X176000000Y-53500000D03*
D11*
%TO.P,J7,1*%
%TO.N,Net-(J7-Pad1)*%
X176000000Y-46000000D03*
%TD*%
D10*
%TO.P,J6,2*%
%TO.N,/230V-N*%
X176000000Y-86500000D03*
D11*
%TO.P,J6,1*%
%TO.N,/230V-L*%
X176000000Y-79000000D03*
%TD*%
D12*
%TO.P,K0,A2*%
%TO.N,Net-(D1-Pad2)*%
X163000000Y-72000000D03*
%TO.P,K0,14*%
%TO.N,/230V-L*%
X175200000Y-72000000D03*
%TO.P,K0,12*%
%TO.N,Net-(K0-Pad12)*%
X175200000Y-60000000D03*
%TO.P,K0,A1*%
%TO.N,/5V+*%
X163000000Y-60000000D03*
%TO.P,K0,11*%
%TO.N,Net-(J7-Pad1)*%
X161000000Y-66000000D03*
%TD*%
D13*
%TO.P,D2,2*%
%TO.N,Net-(D2-Pad2)*%
X137000000Y-72460000D03*
D14*
%TO.P,D2,1*%
%TO.N,Net-(D1-Pad2)*%
X137000000Y-75000000D03*
%TD*%
D15*
%TO.P,R1,2*%
%TO.N,/5V+*%
X137000000Y-57840000D03*
D16*
%TO.P,R1,1*%
%TO.N,Net-(D2-Pad2)*%
X137000000Y-68000000D03*
%TD*%
D17*
%TO.P,C3,2*%
%TO.N,Earth*%
X146000000Y-62000000D03*
D18*
%TO.P,C3,1*%
%TO.N,/5V+*%
X146000000Y-57000000D03*
%TD*%
D16*
%TO.P,C0,2*%
%TO.N,Earth*%
X149000000Y-42000000D03*
%TO.P,C0,1*%
%TO.N,/5V+*%
X149000000Y-47000000D03*
%TD*%
D19*
%TO.P,J0,40*%
%TO.N,/SIREN_gpio:21*%
X122000000Y-84000000D03*
%TO.P,J0,38*%
%TO.N,Net-(J0-Pad38)*%
X122000000Y-86540000D03*
%TO.P,J0,36*%
%TO.N,Net-(J0-Pad36)*%
X122000000Y-89080000D03*
%TO.P,J0,34*%
%TO.N,Net-(J0-Pad34)*%
X122000000Y-91620000D03*
%TO.P,J0,32*%
%TO.N,Net-(J0-Pad32)*%
X122000000Y-94160000D03*
%TO.P,J0,30*%
%TO.N,Net-(J0-Pad30)*%
X122000000Y-96700000D03*
%TO.P,J0,28*%
%TO.N,Net-(J0-Pad28)*%
X122000000Y-99240000D03*
%TO.P,J0,26*%
%TO.N,Net-(J0-Pad26)*%
X122000000Y-101780000D03*
%TO.P,J0,24*%
%TO.N,Net-(J0-Pad24)*%
X122000000Y-104320000D03*
%TO.P,J0,22*%
%TO.N,Net-(J0-Pad22)*%
X122000000Y-106860000D03*
%TO.P,J0,20*%
%TO.N,Net-(J0-Pad20)*%
X122000000Y-109400000D03*
%TO.P,J0,18*%
%TO.N,Net-(J0-Pad18)*%
X122000000Y-111940000D03*
%TO.P,J0,16*%
%TO.N,Net-(J0-Pad16)*%
X122000000Y-114480000D03*
%TO.P,J0,14*%
%TO.N,Net-(J0-Pad14)*%
X122000000Y-117020000D03*
%TO.P,J0,12*%
%TO.N,Net-(J0-Pad12)*%
X122000000Y-119560000D03*
%TO.P,J0,10*%
%TO.N,Net-(J0-Pad10)*%
X122000000Y-122100000D03*
%TO.P,J0,8*%
%TO.N,Net-(J0-Pad8)*%
X122000000Y-124640000D03*
%TO.P,J0,6*%
%TO.N,Net-(J0-Pad6)*%
X122000000Y-127180000D03*
%TO.P,J0,4*%
%TO.N,Net-(J0-Pad4)*%
X122000000Y-129720000D03*
%TO.P,J0,2*%
%TO.N,Net-(J0-Pad2)*%
X122000000Y-132260000D03*
%TO.P,J0,39*%
%TO.N,Net-(J0-Pad39)*%
X124540000Y-84000000D03*
%TO.P,J0,37*%
%TO.N,/seg:3_bit:d_gpio:26*%
X124540000Y-86540000D03*
%TO.P,J0,35*%
%TO.N,/seg:3_bit:c_gpio:19*%
X124540000Y-89080000D03*
%TO.P,J0,33*%
%TO.N,/seg:3_bit:b_gpio:13*%
X124540000Y-91620000D03*
%TO.P,J0,31*%
%TO.N,/seg:3_bit:a_gpio:06*%
X124540000Y-94160000D03*
%TO.P,J0,29*%
%TO.N,/seg:2_bit:d_gpio:05*%
X124540000Y-96700000D03*
%TO.P,J0,27*%
%TO.N,Net-(J0-Pad27)*%
X124540000Y-99240000D03*
%TO.P,J0,25*%
%TO.N,Net-(J0-Pad25)*%
X124540000Y-101780000D03*
%TO.P,J0,23*%
%TO.N,/seg:2_bit:c_gpio:11*%
X124540000Y-104320000D03*
%TO.P,J0,21*%
%TO.N,/seg:2_bit:b_gpio:09*%
X124540000Y-106860000D03*
%TO.P,J0,19*%
%TO.N,/seg:2_bit:a_gpio:10*%
X124540000Y-109400000D03*
%TO.P,J0,17*%
%TO.N,Net-(J0-Pad17)*%
X124540000Y-111940000D03*
%TO.P,J0,15*%
%TO.N,/seg:1_bit:d_gpio:22*%
X124540000Y-114480000D03*
%TO.P,J0,13*%
%TO.N,/seg:1_bit:c_gpio:27*%
X124540000Y-117020000D03*
%TO.P,J0,11*%
%TO.N,/seg:1_bit:b_gpio:17*%
X124540000Y-119560000D03*
%TO.P,J0,9*%
%TO.N,Net-(J0-Pad9)*%
X124540000Y-122100000D03*
%TO.P,J0,7*%
%TO.N,/seg:1_bit:a_gpio:04*%
X124540000Y-124640000D03*
%TO.P,J0,5*%
%TO.N,Net-(J0-Pad5)*%
X124540000Y-127180000D03*
%TO.P,J0,3*%
%TO.N,Net-(J0-Pad3)*%
X124540000Y-129720000D03*
%TO.P,J0,1*%
%TO.N,Net-(J0-Pad1)*%
%TA.AperFunction,ComponentPad*%
G36*
G01*
X125390000Y-131660000D02*
X125390000Y-132860000D01*
G75*
G02*
X125140000Y-133110000I-250000J0D01*
G01*
X123940000Y-133110000D01*
G75*
G02*
X123690000Y-132860000I0J250000D01*
G01*
X123690000Y-131660000D01*
G75*
G02*
X123940000Y-131410000I250000J0D01*
G01*
X125140000Y-131410000D01*
G75*
G02*
X125390000Y-131660000I0J-250000D01*
G01*
G37*
%TD.AperFunction*%
%TD*%
D14*
%TO.P,D0,1*%
%TO.N,Earth*%
X139000000Y-50540000D03*
D13*
%TO.P,D0,2*%
%TO.N,Net-(D0-Pad2)*%
X139000000Y-48000000D03*
%TD*%
D14*
%TO.P,D1,1*%
%TO.N,/5V+*%
X155000000Y-59840000D03*
D20*
%TO.P,D1,2*%
%TO.N,Net-(D1-Pad2)*%
X155000000Y-70000000D03*
%TD*%
D21*
%TO.P,J1,1*%
%TO.N,/seg:1_bit:d_gpio:22*%
X172000000Y-126000000D03*
D22*
%TO.P,J1,2*%
%TO.N,Net-(J1-Pad2)*%
X174540000Y-126000000D03*
%TO.P,J1,3*%
%TO.N,/seg:1_bit:c_gpio:27*%
X172000000Y-128540000D03*
%TO.P,J1,4*%
%TO.N,Net-(J1-Pad4)*%
X174540000Y-128540000D03*
%TO.P,J1,5*%
%TO.N,/seg:1_bit:b_gpio:17*%
X172000000Y-131080000D03*
%TO.P,J1,6*%
%TO.N,/seg:1_bit:a_gpio:04*%
X174540000Y-131080000D03*
%TD*%
%TO.P,J2,6*%
%TO.N,/seg:2_bit:a_gpio:10*%
X174540000Y-116080000D03*
%TO.P,J2,5*%
%TO.N,/seg:2_bit:b_gpio:09*%
X172000000Y-116080000D03*
%TO.P,J2,4*%
%TO.N,Net-(J2-Pad4)*%
X174540000Y-113540000D03*
%TO.P,J2,3*%
%TO.N,/seg:2_bit:c_gpio:11*%
X172000000Y-113540000D03*
%TO.P,J2,2*%
%TO.N,Net-(J2-Pad2)*%
X174540000Y-111000000D03*
D21*
%TO.P,J2,1*%
%TO.N,/seg:2_bit:d_gpio:05*%
X172000000Y-111000000D03*
%TD*%
%TO.P,J3,1*%
%TO.N,/seg:3_bit:d_gpio:26*%
X172000000Y-95000000D03*
D22*
%TO.P,J3,2*%
%TO.N,Net-(J3-Pad2)*%
X174540000Y-95000000D03*
%TO.P,J3,3*%
%TO.N,/seg:3_bit:c_gpio:19*%
X172000000Y-97540000D03*
%TO.P,J3,4*%
%TO.N,Net-(J3-Pad4)*%
X174540000Y-97540000D03*
%TO.P,J3,5*%
%TO.N,/seg:3_bit:b_gpio:13*%
X172000000Y-100080000D03*
%TO.P,J3,6*%
%TO.N,/seg:3_bit:a_gpio:06*%
X174540000Y-100080000D03*
%TD*%
D23*
%TO.P,J4,1*%
%TO.N,/12V+*%
X132020000Y-42380000D03*
%TO.P,J4,2*%
%TO.N,Earth*%
X132020000Y-47460000D03*
%TO.P,J4,3*%
X132020000Y-52540000D03*
%TO.P,J4,4*%
%TO.N,/5V+*%
X132020000Y-57620000D03*
%TD*%
D12*
%TO.P,J5,5*%
%TO.N,Earth*%
X152930000Y-47290000D03*
X166070000Y-47290000D03*
D24*
%TO.P,J5,1*%
%TO.N,/5V+*%
X163000000Y-50000000D03*
D16*
%TO.P,J5,2*%
%TO.N,Net-(J5-Pad2)*%
X160500000Y-50000000D03*
%TO.P,J5,3*%
%TO.N,Net-(J5-Pad3)*%
X158500000Y-50000000D03*
%TO.P,J5,4*%
%TO.N,Earth*%
X156000000Y-50000000D03*
%TD*%
D14*
%TO.P,Q1,1*%
%TO.N,Earth*%
X149000000Y-67000000D03*
D20*
%TO.P,Q1,2*%
%TO.N,Net-(D1-Pad2)*%
X149000000Y-69540000D03*
%TO.P,Q1,3*%
%TO.N,Net-(Q1-Pad3)*%
X149000000Y-72080000D03*
%TD*%
D16*
%TO.P,R0,1*%
%TO.N,Net-(D0-Pad2)*%
X145000000Y-43000000D03*
D15*
%TO.P,R0,2*%
%TO.N,/5V+*%
X145000000Y-53160000D03*
%TD*%
D16*
%TO.P,R2,1*%
%TO.N,Net-(Q1-Pad3)*%
X145000000Y-72000000D03*
D15*
%TO.P,R2,2*%
%TO.N,/SIREN_gpio:21*%
X145000000Y-82160000D03*
%TD*%
D25*
%TO.N,*%
X132000000Y-135000000D03*
X122000000Y-70000000D03*
X158000000Y-80000000D03*
%TD*%
D26*
%TO.N,*%
X140000000Y-131000000D02*
X140000000Y-133000000D01*
X141000000Y-132000000D02*
X139000000Y-132000000D01*
D27*
%TO.N,Earth*%
X149000000Y-67000000D02*
X148000000Y-67000000D01*
D28*
X132020000Y-47460000D02*
X132020000Y-52540000D01*
D29*
X149000000Y-67000000D02*
X149000000Y-66000000D01*
X149000000Y-66000000D02*
X148000000Y-65000000D01*
X148000000Y-65000000D02*
X148000000Y-67000000D01*
X148000000Y-65000000D02*
X146000000Y-65000000D01*
X148000000Y-67000000D02*
X146000000Y-65000000D01*
D28*
X146000000Y-62000000D02*
X145000000Y-63000000D01*
X146000000Y-63000000D02*
X147000000Y-63000000D01*
X147000000Y-63000000D02*
X148000000Y-64000000D01*
X146000000Y-62000000D02*
X147000000Y-63000000D01*
X146000000Y-63000000D02*
X146000000Y-62000000D01*
X148000000Y-64000000D02*
X146000000Y-62000000D01*
X132020000Y-47460000D02*
X133540000Y-47460000D01*
X145000000Y-63000000D02*
X144000000Y-64000000D01*
X144000000Y-64000000D02*
X134000000Y-64000000D01*
X145000000Y-64000000D02*
X146000000Y-65000000D01*
X134000000Y-64000000D02*
X133000000Y-64000000D01*
X133000000Y-64000000D02*
X132000000Y-65000000D01*
X132000000Y-65000000D02*
X126000000Y-65000000D01*
X126000000Y-65000000D02*
X125000000Y-64000000D01*
X125000000Y-64000000D02*
X125000000Y-58000000D01*
X130460000Y-52540000D02*
X132020000Y-52540000D01*
X146000000Y-67000000D02*
X143000000Y-64000000D01*
X149000000Y-67000000D02*
X146000000Y-67000000D01*
X143000000Y-64000000D02*
X145000000Y-64000000D01*
X134000000Y-64000000D02*
X143000000Y-64000000D01*
X146000000Y-62000000D02*
X150000000Y-66000000D01*
X150000000Y-66000000D02*
X149000000Y-67000000D01*
X132020000Y-47460000D02*
X129540000Y-47460000D01*
X129500000Y-47500000D02*
X129500000Y-53500000D01*
X129540000Y-47460000D02*
X129500000Y-47500000D01*
X129500000Y-53500000D02*
X130460000Y-52540000D01*
X125000000Y-58000000D02*
X129500000Y-53500000D01*
X132020000Y-52540000D02*
X133540000Y-52540000D01*
X133540000Y-52540000D02*
X133540000Y-47460000D01*
X149000000Y-42000000D02*
X149000000Y-41000000D01*
X149000000Y-42000000D02*
X149000000Y-43000000D01*
D27*
X139000000Y-50540000D02*
X137460000Y-50540000D01*
X135460000Y-52540000D02*
X132020000Y-52540000D01*
X137460000Y-50540000D02*
X135460000Y-52540000D01*
D28*
X133858477Y-47460000D02*
X141000000Y-40318477D01*
X132020000Y-47460000D02*
X133858477Y-47460000D01*
X148318477Y-40318477D02*
X149000000Y-41000000D01*
X141000000Y-40318477D02*
X148318477Y-40318477D01*
D30*
X149000000Y-42000000D02*
X153000000Y-42000000D01*
X153000000Y-47220000D02*
X152930000Y-47290000D01*
D28*
X155640000Y-50000000D02*
X152930000Y-47290000D01*
X156000000Y-50000000D02*
X155640000Y-50000000D01*
X156000000Y-50000000D02*
X156000000Y-47000000D01*
X153220000Y-47000000D02*
X153000000Y-47220000D01*
X156000000Y-47000000D02*
X153220000Y-47000000D01*
X165780000Y-47000000D02*
X166070000Y-47290000D01*
X156000000Y-47000000D02*
X165780000Y-47000000D01*
X166070000Y-47290000D02*
X166070000Y-46070000D01*
X166000000Y-46000000D02*
X153000000Y-46000000D01*
X166070000Y-46070000D02*
X166000000Y-46000000D01*
D30*
X153000000Y-46000000D02*
X153000000Y-47220000D01*
D28*
X166070000Y-47290000D02*
X166070000Y-44070000D01*
X165140000Y-45000000D02*
X153000000Y-45000000D01*
X166070000Y-44070000D02*
X165140000Y-45000000D01*
D30*
X153000000Y-45000000D02*
X153000000Y-46000000D01*
X153000000Y-42000000D02*
X153000000Y-45000000D01*
D28*
X164000000Y-42000000D02*
X166070000Y-44070000D01*
X153000000Y-42000000D02*
X164000000Y-42000000D01*
X166070000Y-44070000D02*
X155070000Y-44070000D01*
D27*
%TO.N,Net-(D0-Pad2)*%
X139000000Y-48000000D02*
X138000000Y-48000000D01*
X138000000Y-48000000D02*
X140000000Y-48000000D01*
X145000000Y-43000000D02*
X140000000Y-48000000D01*
D28*
%TO.N,/12V+*%
X132020000Y-42380000D02*
X132020000Y-41020000D01*
X132020000Y-41020000D02*
X132040000Y-41000000D01*
X132040000Y-41000000D02*
X134000000Y-41000000D01*
X134000000Y-41000000D02*
X134000000Y-43000000D01*
X134000000Y-43000000D02*
X131000000Y-43000000D01*
D27*
%TO.N,Net-(D1-Pad2)*%
X155000000Y-72000000D02*
X162000000Y-72000000D01*
X154540000Y-69540000D02*
X155000000Y-70000000D01*
X149000000Y-69540000D02*
X154540000Y-69540000D01*
X137000000Y-75000000D02*
X135000000Y-75000000D01*
X135000000Y-75000000D02*
X136000000Y-76000000D01*
X136000000Y-76000000D02*
X139000000Y-76000000D01*
X139000000Y-75000000D02*
X137000000Y-75000000D01*
X142000000Y-74000000D02*
X140000000Y-76000000D01*
X140000000Y-76000000D02*
X139000000Y-75000000D01*
X142000000Y-71000000D02*
X142000000Y-74000000D01*
X143460000Y-69540000D02*
X142000000Y-71000000D01*
X149000000Y-69540000D02*
X143460000Y-69540000D01*
X140000000Y-76000000D02*
X136000000Y-76000000D01*
D28*
X155000000Y-70000000D02*
X155000000Y-69000000D01*
X155000000Y-70000000D02*
X155000000Y-72000000D01*
D31*
X155000000Y-72000000D02*
X155000000Y-69000000D01*
X163000000Y-72000000D02*
X165000000Y-72000000D01*
X163000000Y-72000000D02*
X163000000Y-74000000D01*
X163000000Y-74000000D02*
X165000000Y-72000000D01*
X163000000Y-74000000D02*
X161000000Y-72000000D01*
X161000000Y-72000000D02*
X155000000Y-72000000D01*
X163000000Y-72000000D02*
X161000000Y-72000000D01*
D27*
%TO.N,Net-(D2-Pad2)*%
X137000000Y-71000000D02*
X137000000Y-72460000D01*
D28*
X137000000Y-68000000D02*
X137000000Y-70000000D01*
D27*
X137000000Y-71000000D02*
X137000000Y-70000000D01*
D28*
X137000000Y-68000000D02*
X136000000Y-68000000D01*
X136000000Y-68000000D02*
X138000000Y-68000000D01*
D27*
X137000000Y-72460000D02*
X136460000Y-72460000D01*
X137000000Y-72460000D02*
X137540000Y-72460000D01*
%TO.N,Net-(J0-Pad1)*%
X124540000Y-132260000D02*
X125260000Y-132260000D01*
X124540000Y-132260000D02*
X126740000Y-132260000D01*
%TO.N,Net-(J0-Pad2)*%
X122000000Y-132260000D02*
X121260000Y-132260000D01*
X122000000Y-132260000D02*
X120740000Y-132260000D01*
X122000000Y-132260000D02*
X120260000Y-132260000D01*
%TO.N,Net-(J0-Pad3)*%
X124540000Y-129720000D02*
X125720000Y-129720000D01*
X124540000Y-129720000D02*
X126720000Y-129720000D01*
%TO.N,Net-(J0-Pad4)*%
X122000000Y-129720000D02*
X121280000Y-129720000D01*
X122000000Y-129720000D02*
X120280000Y-129720000D01*
%TO.N,Net-(J0-Pad5)*%
X124540000Y-127180000D02*
X125820000Y-127180000D01*
X124540000Y-127180000D02*
X126660010Y-127180000D01*
%TO.N,Net-(J0-Pad6)*%
X122000000Y-127180000D02*
X121180000Y-127180000D01*
X122000000Y-127180000D02*
X120339990Y-127180000D01*
D29*
%TO.N,/seg:1_bit:a_gpio:04*%
X172822081Y-134000000D02*
X174540000Y-132282081D01*
X149000000Y-134000000D02*
X172822081Y-134000000D01*
X139640000Y-124640000D02*
X149000000Y-134000000D01*
X174540000Y-132282081D02*
X174540000Y-131080000D01*
X124540000Y-124640000D02*
X139640000Y-124640000D01*
D27*
X174540000Y-131080000D02*
X175920000Y-131080000D01*
%TO.N,Net-(J0-Pad8)*%
X122000000Y-124640000D02*
X120360000Y-124640000D01*
%TO.N,Net-(J0-Pad9)*%
X124540000Y-122100000D02*
X125900000Y-122100000D01*
X124540000Y-122100000D02*
X126900000Y-122100000D01*
%TO.N,Net-(J0-Pad10)*%
X122000000Y-122100000D02*
X121100000Y-122100000D01*
X122000000Y-122100000D02*
X120100000Y-122100000D01*
D29*
%TO.N,/seg:1_bit:b_gpio:17*%
X151080000Y-131080000D02*
X165000000Y-131080000D01*
X139560000Y-119560000D02*
X151080000Y-131080000D01*
X124540000Y-119560000D02*
X139560000Y-119560000D01*
X165000000Y-131080000D02*
X172000000Y-131080000D01*
D27*
%TO.N,Net-(J0-Pad12)*%
X122000000Y-119560000D02*
X120440000Y-119560000D01*
D29*
%TO.N,/seg:1_bit:c_gpio:27*%
X124540000Y-117020000D02*
X142020000Y-117020000D01*
X153540000Y-128540000D02*
X165000000Y-128540000D01*
X142020000Y-117020000D02*
X153540000Y-128540000D01*
X165000000Y-128540000D02*
X172000000Y-128540000D01*
D27*
%TO.N,Net-(J0-Pad14)*%
X122000000Y-117020000D02*
X121020000Y-117020000D01*
X122000000Y-117020000D02*
X120020000Y-117020000D01*
D29*
%TO.N,/seg:1_bit:d_gpio:22*%
X124540000Y-114480000D02*
X144480000Y-114480000D01*
X156000000Y-126000000D02*
X165000000Y-126000000D01*
X144480000Y-114480000D02*
X156000000Y-126000000D01*
X165000000Y-126000000D02*
X172000000Y-126000000D01*
D27*
%TO.N,Net-(J0-Pad16)*%
X122000000Y-114480000D02*
X120480000Y-114480000D01*
%TO.N,Net-(J0-Pad17)*%
X124540000Y-111940000D02*
X125940000Y-111940000D01*
X124540000Y-111940000D02*
X126940000Y-111940000D01*
%TO.N,Net-(J0-Pad18)*%
X122000000Y-111940000D02*
X121060000Y-111940000D01*
X122000000Y-111940000D02*
X120060000Y-111940000D01*
%TO.N,/seg:2_bit:a_gpio:10*%
X174540000Y-116080000D02*
X176920000Y-116080000D01*
D29*
X174540000Y-117282081D02*
X174540000Y-116080000D01*
X172822081Y-119000000D02*
X174540000Y-117282081D01*
X144400000Y-109400000D02*
X154000000Y-119000000D01*
X154000000Y-119000000D02*
X172822081Y-119000000D01*
X124540000Y-109400000D02*
X144400000Y-109400000D01*
D27*
%TO.N,Net-(J0-Pad20)*%
X122000000Y-109400000D02*
X120400000Y-109400000D01*
D29*
%TO.N,/seg:2_bit:b_gpio:09*%
X124540000Y-106860000D02*
X146860000Y-106860000D01*
X156080000Y-116080000D02*
X165000000Y-116080000D01*
X146860000Y-106860000D02*
X156080000Y-116080000D01*
X165000000Y-116080000D02*
X172000000Y-116080000D01*
D27*
%TO.N,Net-(J0-Pad22)*%
X122000000Y-106860000D02*
X121140000Y-106860000D01*
X122000000Y-106860000D02*
X120140000Y-106860000D01*
D29*
%TO.N,/seg:2_bit:c_gpio:11*%
X124540000Y-104320000D02*
X149320000Y-104320000D01*
X158540000Y-113540000D02*
X165000000Y-113540000D01*
X149320000Y-104320000D02*
X158540000Y-113540000D01*
X165000000Y-113540000D02*
X172000000Y-113540000D01*
D27*
%TO.N,Net-(J0-Pad24)*%
X122000000Y-104320000D02*
X120320000Y-104320000D01*
%TO.N,Net-(J0-Pad25)*%
X124540000Y-101780000D02*
X125780000Y-101780000D01*
X124540000Y-101780000D02*
X126780000Y-101780000D01*
%TO.N,Net-(J0-Pad26)*%
X122000000Y-101780000D02*
X120220000Y-101780000D01*
%TO.N,Net-(J0-Pad27)*%
X124540000Y-99240000D02*
X126760000Y-99240000D01*
%TO.N,Net-(J0-Pad28)*%
X122000000Y-99240000D02*
X120240000Y-99240000D01*
D29*
%TO.N,/seg:2_bit:d_gpio:05*%
X124540000Y-96700000D02*
X146700000Y-96700000D01*
X161000000Y-111000000D02*
X165000000Y-111000000D01*
X146700000Y-96700000D02*
X161000000Y-111000000D01*
X165000000Y-111000000D02*
X172000000Y-111000000D01*
D27*
%TO.N,Net-(J0-Pad30)*%
X122000000Y-96700000D02*
X120300000Y-96700000D01*
D29*
%TO.N,/seg:3_bit:a_gpio:06*%
X174540000Y-101282081D02*
X174540000Y-100080000D01*
X172822081Y-103000000D02*
X174540000Y-101282081D01*
X161000000Y-103000000D02*
X172822081Y-103000000D01*
X152160000Y-94160000D02*
X161000000Y-103000000D01*
X124540000Y-94160000D02*
X152160000Y-94160000D01*
D27*
X174540000Y-100080000D02*
X175920000Y-100080000D01*
%TO.N,Net-(J0-Pad32)*%
X122000000Y-94160000D02*
X120160000Y-94160000D01*
D29*
%TO.N,/seg:3_bit:b_gpio:13*%
X124540000Y-91620000D02*
X153620000Y-91620000D01*
X162080000Y-100080000D02*
X165000000Y-100080000D01*
X153620000Y-91620000D02*
X162080000Y-100080000D01*
X165000000Y-100080000D02*
X172000000Y-100080000D01*
D27*
%TO.N,Net-(J0-Pad34)*%
X122000000Y-91620000D02*
X119380000Y-91620000D01*
D29*
%TO.N,/seg:3_bit:c_gpio:19*%
X124540000Y-89080000D02*
X155080000Y-89080000D01*
X163540000Y-97540000D02*
X165000000Y-97540000D01*
X155080000Y-89080000D02*
X163540000Y-97540000D01*
X165000000Y-97540000D02*
X172000000Y-97540000D01*
D27*
%TO.N,Net-(J0-Pad36)*%
X122000000Y-89080000D02*
X120080000Y-89080000D01*
D29*
%TO.N,/seg:3_bit:d_gpio:26*%
X165000000Y-95000000D02*
X172000000Y-95000000D01*
X156540000Y-86540000D02*
X165000000Y-95000000D01*
X124540000Y-86540000D02*
X156540000Y-86540000D01*
D27*
%TO.N,Net-(J0-Pad38)*%
X122000000Y-86540000D02*
X119460000Y-86540000D01*
%TO.N,Net-(J0-Pad39)*%
X124540000Y-84000000D02*
X126000000Y-84000000D01*
D29*
%TO.N,/SIREN_gpio:21*%
X128160000Y-82160000D02*
X127000000Y-81000000D01*
X127000000Y-81000000D02*
X123000000Y-81000000D01*
X122000000Y-82000000D02*
X122000000Y-84000000D01*
X123000000Y-81000000D02*
X122000000Y-82000000D01*
X142840000Y-82160000D02*
X128160000Y-82160000D01*
D27*
X122000000Y-84000000D02*
X121000000Y-84000000D01*
D28*
X145000000Y-82160000D02*
X142840000Y-82160000D01*
X145000000Y-82160000D02*
X146840000Y-82160000D01*
%TO.N,/5V+*%
X152160000Y-57000000D02*
X155000000Y-59840000D01*
X151000000Y-57000000D02*
X152160000Y-57000000D01*
X150380000Y-57620000D02*
X151000000Y-57000000D01*
X146000000Y-57000000D02*
X145380000Y-57620000D01*
X146760000Y-57000000D02*
X147380000Y-57620000D01*
X146000000Y-57000000D02*
X146760000Y-57000000D01*
X147380000Y-57620000D02*
X150380000Y-57620000D01*
X145380000Y-57620000D02*
X147380000Y-57620000D01*
X145000000Y-57000000D02*
X144380000Y-57620000D01*
X146000000Y-57000000D02*
X145000000Y-57000000D01*
X144380000Y-57620000D02*
X145380000Y-57620000D01*
X132020000Y-57620000D02*
X144380000Y-57620000D01*
X132240000Y-57840000D02*
X132020000Y-57620000D01*
X137000000Y-57840000D02*
X132240000Y-57840000D01*
X151320000Y-57840000D02*
X152160000Y-57000000D01*
X137000000Y-57840000D02*
X151320000Y-57840000D01*
X153000000Y-57840000D02*
X155000000Y-59840000D01*
X151320000Y-57840000D02*
X153000000Y-57840000D01*
X132020000Y-57620000D02*
X132020000Y-56020000D01*
X149000000Y-47000000D02*
X146000000Y-47000000D01*
X146000000Y-47000000D02*
X145000000Y-48000000D01*
X145000000Y-48000000D02*
X145000000Y-52160000D01*
X145000000Y-56000000D02*
X146000000Y-57000000D01*
X145000000Y-52160000D02*
X145000000Y-56000000D01*
X145000000Y-54040000D02*
X146980000Y-56020000D01*
X145000000Y-54040000D02*
X143020000Y-56020000D01*
X145000000Y-52160000D02*
X145000000Y-54040000D01*
X143020000Y-56020000D02*
X146980000Y-56020000D01*
X132020000Y-56020000D02*
X143020000Y-56020000D01*
X145000000Y-52160000D02*
X146160000Y-52160000D01*
X146980000Y-52980000D02*
X146980000Y-56020000D01*
X146160000Y-52160000D02*
X146980000Y-52980000D01*
X145000000Y-52160000D02*
X143840000Y-52160000D01*
X143840000Y-52160000D02*
X143000000Y-53000000D01*
X143000000Y-56000000D02*
X143020000Y-56020000D01*
X143000000Y-53000000D02*
X143000000Y-56000000D01*
X152160000Y-57000000D02*
X153000000Y-57840000D01*
X146000000Y-57000000D02*
X152160000Y-57000000D01*
X163000000Y-52000000D02*
X163000000Y-58000000D01*
X155160000Y-60000000D02*
X155000000Y-59840000D01*
X163000000Y-58000000D02*
X161000000Y-60000000D01*
X161000000Y-60000000D02*
X159000000Y-60000000D01*
X159000000Y-60000000D02*
X155160000Y-60000000D01*
X162840000Y-57840000D02*
X163000000Y-58000000D01*
X153000000Y-57840000D02*
X162840000Y-57840000D01*
X162000000Y-57000000D02*
X162840000Y-57840000D01*
X151000000Y-57000000D02*
X162000000Y-57000000D01*
X146980000Y-52980000D02*
X146980000Y-54220000D01*
X155000000Y-59840000D02*
X155000000Y-61000000D01*
X149000000Y-56000000D02*
X148880000Y-56120000D01*
X149000000Y-47000000D02*
X149000000Y-56000000D01*
X148880000Y-56120000D02*
X150380000Y-57620000D01*
X146980000Y-54220000D02*
X148880000Y-56120000D01*
X146980000Y-50020000D02*
X146980000Y-52980000D01*
X146000000Y-51000000D02*
X146980000Y-50020000D01*
X147000000Y-49000000D02*
X146000000Y-49000000D01*
X149000000Y-47000000D02*
X147000000Y-49000000D01*
X146000000Y-49000000D02*
X146000000Y-51000000D01*
X146000000Y-47000000D02*
X146000000Y-49000000D01*
X163000000Y-50000000D02*
X163000000Y-52000000D01*
X163000000Y-58000000D02*
X163000000Y-59000000D01*
D31*
%TO.N,Net-(K0-Pad12)*%
X175200000Y-60000000D02*
X175200000Y-61800000D01*
D27*
%TO.N,Net-(Q1-Pad3)*%
X147080000Y-74000000D02*
X145000000Y-74000000D01*
X145000000Y-74000000D02*
X145000000Y-72000000D01*
X149000000Y-72080000D02*
X149920000Y-72080000D01*
X149920000Y-72080000D02*
X149000000Y-73000000D01*
X149000000Y-73000000D02*
X149000000Y-74000000D01*
X149000000Y-74000000D02*
X148000000Y-74000000D01*
X149000000Y-72080000D02*
X146080000Y-72080000D01*
X147080000Y-73080000D02*
X147080000Y-74000000D01*
X146080000Y-72080000D02*
X147080000Y-73080000D01*
X149000000Y-74000000D02*
X147080000Y-74000000D01*
X149840000Y-72000000D02*
X149920000Y-72080000D01*
X145000000Y-72000000D02*
X149840000Y-72000000D01*
X149840000Y-72000000D02*
X149840000Y-73160000D01*
X149000000Y-74000000D02*
X149840000Y-73160000D01*
%TO.N,Net-(J1-Pad4)*%
X174540000Y-128540000D02*
X176460000Y-128540000D01*
%TO.N,Net-(J2-Pad4)*%
X174540000Y-113540000D02*
X176540000Y-113540000D01*
%TO.N,Net-(J3-Pad4)*%
X174540000Y-97540000D02*
X176460000Y-97540000D01*
%TO.N,Net-(J1-Pad2)*%
X174540000Y-126000000D02*
X176000000Y-126000000D01*
%TO.N,Net-(J2-Pad2)*%
X174540000Y-111000000D02*
X176000000Y-111000000D01*
X174540000Y-111000000D02*
X177000000Y-111000000D01*
%TO.N,Net-(J3-Pad2)*%
X174540000Y-95000000D02*
X176000000Y-95000000D01*
D30*
%TO.N,/230V-N*%
X176000000Y-53500000D02*
X179500000Y-53500000D01*
X179500000Y-53500000D02*
X182000000Y-56000000D01*
X182000000Y-56000000D02*
X182000000Y-84000000D01*
X179500000Y-86500000D02*
X176000000Y-86500000D01*
X182000000Y-84000000D02*
X179500000Y-86500000D01*
D31*
%TO.N,/230V-L*%
X176000000Y-79000000D02*
X174000000Y-79000000D01*
X174000000Y-79000000D02*
X174000000Y-72000000D01*
X174000000Y-72000000D02*
X175200000Y-72000000D01*
X175000000Y-71800000D02*
X175200000Y-72000000D01*
X175000000Y-70000000D02*
X175000000Y-71800000D01*
X176000000Y-71000000D02*
X175000000Y-70000000D01*
X176000000Y-79000000D02*
X176000000Y-71000000D01*
X174000000Y-71000000D02*
X175000000Y-70000000D01*
X174000000Y-72000000D02*
X174000000Y-71000000D01*
D30*
%TO.N,Net-(J7-Pad1)*%
X176000000Y-46000000D02*
X175000000Y-46000000D01*
X169000000Y-52000000D02*
X169000000Y-64000000D01*
X169000000Y-64000000D02*
X167000000Y-66000000D01*
X167000000Y-66000000D02*
X161000000Y-66000000D01*
X176000000Y-46000000D02*
X178000000Y-46000000D01*
X178000000Y-46000000D02*
X178000000Y-45000000D01*
X176000000Y-46000000D02*
X176000000Y-43000000D01*
X176000000Y-43000000D02*
X178000000Y-45000000D01*
X176000000Y-43000000D02*
X175000000Y-43000000D01*
X174000000Y-44000000D02*
X174000000Y-47000000D01*
X175000000Y-43000000D02*
X174000000Y-44000000D01*
X174000000Y-47000000D02*
X169000000Y-52000000D01*
X175000000Y-46000000D02*
X174000000Y-47000000D01*
%TD*%
M02*
