<?xml version="1.0" standalone="no"?>
 <!DOCTYPE svg PUBLIC "-//W3C//DTD SVG 1.1//EN" 
 "http://www.w3.org/Graphics/SVG/1.1/DTD/svg11.dtd"> 
<svg
  xmlns:svg="http://www.w3.org/2000/svg"
  xmlns="http://www.w3.org/2000/svg"
  xmlns:xlink="http://www.w3.org/1999/xlink"
  version="1.1"
  width="29.700220cm" height="21.000720cm" viewBox="0 0 116930 82680">
<title>SVG Picture created as burner-Eco2_User.svg date 2021/06/10 11:56:22 </title>
  <desc>Picture generated by PCBNEW </desc>
<g style="fill:#000000; fill-opacity:1;stroke:#000000; stroke-opacity:1;
stroke-linecap:round; stroke-linejoin:round;"
 transform="translate(0 0) scale(1 1)">
</g>
<g style="fill:#000000; fill-opacity:0.0; 
stroke:#000000; stroke-width:-0.000393701; stroke-opacity:1; 
stroke-linecap:round; stroke-linejoin:round;">
</g>
<g style="fill:#000000; fill-opacity:0.0; 
stroke:#000000; stroke-width:59.0551; stroke-opacity:1; 
stroke-linecap:round; stroke-linejoin:round;">
<text x="66536.3" y="47440.9"
textLength="2176.51" font-size="524.934" lengthAdjust="spacingAndGlyphs"
text-anchor="middle" opacity="0">23 mm</text>
<path d="M67511 47065
L67492 47047
L67454 47028
L67361 47028
L67323 47047
L67304 47065
L67286 47103
L67286 47140
L67304 47197
L67529 47422
L67286 47422
" />
<path d="M67154 47028
L66911 47028
L67042 47178
L66986 47178
L66948 47197
L66930 47215
L66911 47253
L66911 47347
L66930 47384
L66948 47403
L66986 47422
L67098 47422
L67136 47403
L67154 47384
" />
<path d="M66442 47422
L66442 47159
" />
<path d="M66442 47197
L66423 47178
L66386 47159
L66330 47159
L66292 47178
L66273 47215
L66273 47422
" />
<path d="M66273 47215
L66255 47178
L66217 47159
L66161 47159
L66123 47178
L66105 47215
L66105 47422
" />
<path d="M65917 47422
L65917 47159
" />
<path d="M65917 47197
L65898 47178
L65861 47159
L65805 47159
L65767 47178
L65748 47215
L65748 47422
" />
<path d="M65748 47215
L65730 47178
L65692 47159
L65636 47159
L65598 47178
L65580 47215
L65580 47422
" />
<g transform="rotate(-90 67323.7 45275.6)">
<text x="67323.7" y="45472.4"
textLength="2176.51" font-size="524.934" lengthAdjust="spacingAndGlyphs"
text-anchor="middle" opacity="0">41 mm</text>
</g>
<path d="M67408 46062
L67145 46062
" />
<path d="M67558 46156
L67276 46250
L67276 46006
" />
<path d="M67145 45650
L67145 45875
" />
<path d="M67145 45763
L67539 45763
L67483 45800
L67445 45838
L67426 45875
" />
<path d="M67145 45181
L67408 45181
" />
<path d="M67370 45181
L67389 45163
L67408 45125
L67408 45069
L67389 45031
L67351 45013
L67145 45013
" />
<path d="M67351 45013
L67389 44994
L67408 44956
L67408 44900
L67389 44863
L67351 44844
L67145 44844
" />
<path d="M67145 44656
L67408 44656
" />
<path d="M67370 44656
L67389 44638
L67408 44600
L67408 44544
L67389 44506
L67351 44488
L67145 44488
" />
<path d="M67351 44488
L67389 44469
L67408 44431
L67408 44375
L67389 44338
L67351 44319
L67145 44319
" />
<path d="M58662 31496
L58662 47637
" />
<path d="M67717 31496
L58662 31496
" />
<path d="M67717 47637
L67717 31496
" />
<path d="M67323 47637
L67717 47637
" />
<path d="M66930 47637
L67323 47637
" />
<path d="M66536 47637
L66930 47637
" />
<path d="M65748 47637
L66536 47637
" />
<path d="M58662 47637
L65748 47637
" />
<g >
</g>
<g >
</g>
<g >
</g>
</g> 
</svg>
