<?xml version="1.0" standalone="no"?>
 <!DOCTYPE svg PUBLIC "-//W3C//DTD SVG 1.1//EN" 
 "http://www.w3.org/Graphics/SVG/1.1/DTD/svg11.dtd"> 
<svg
  xmlns:svg="http://www.w3.org/2000/svg"
  xmlns="http://www.w3.org/2000/svg"
  xmlns:xlink="http://www.w3.org/1999/xlink"
  version="1.1"
  width="29.700220cm" height="21.000720cm" viewBox="0 0 116930 82680">
<title>SVG Picture created as burner-B_Mask.svg date 2021/06/10 11:56:22 </title>
  <desc>Picture generated by PCBNEW </desc>
<g style="fill:#000000; fill-opacity:1;stroke:#000000; stroke-opacity:1;
stroke-linecap:round; stroke-linejoin:round;"
 transform="translate(0 0) scale(1 1)">
</g>
<g style="fill:#000000; fill-opacity:0.0; 
stroke:#000000; stroke-width:-0.000393701; stroke-opacity:1; 
stroke-linecap:round; stroke-linejoin:round;">
<g >
</g>
<g style="fill:#000000; fill-opacity:1.0; 
stroke:#000000; stroke-width:0; stroke-opacity:1; 
stroke-linecap:round; stroke-linejoin:round;">
<circle cx="64418.2" cy="45275.6" r="314.961" /> 
<circle cx="61418.2" cy="36275.6" r="314.961" /> 
<circle cx="64418.2" cy="44275.6" r="314.961" /> 
<circle cx="61418.2" cy="37275.6" r="314.961" /> 
<circle cx="64418.2" cy="43275.6" r="314.961" /> 
<circle cx="61418.2" cy="38275.6" r="314.961" /> 
<circle cx="64418.2" cy="42275.6" r="314.961" /> 
<circle cx="61418.2" cy="39275.6" r="314.961" /> 
<circle cx="64418.2" cy="41275.6" r="314.961" /> 
<circle cx="61418.2" cy="40275.6" r="314.961" /> 
<circle cx="64418.2" cy="40275.6" r="314.961" /> 
<circle cx="61418.2" cy="41275.6" r="314.961" /> 
<circle cx="64418.2" cy="39275.6" r="314.961" /> 
<circle cx="61418.2" cy="42275.6" r="314.961" /> 
<circle cx="64418.2" cy="38275.6" r="314.961" /> 
<circle cx="61418.2" cy="43275.6" r="314.961" /> 
<circle cx="64418.2" cy="37275.6" r="314.961" /> 
<circle cx="61418.2" cy="44275.6" r="314.961" /> 
<circle cx="64418.2" cy="36275.6" r="314.961" /> 
<path style="fill:#000000; fill-opacity:1.0; 
stroke:#000000; stroke-width:0; stroke-opacity:1; 
stroke-linecap:round; stroke-linejoin:round;fill-rule:evenodd;"
d="M 61103.2,44960.6
61103.2,45590.6
61733.1,45590.6
61733.1,44960.6
Z" /> 
</g>
<g >
</g>
<g style="fill:#000000; fill-opacity:1.0; 
stroke:#000000; stroke-width:0; stroke-opacity:1; 
stroke-linecap:round; stroke-linejoin:round;">
<circle cx="60780.4" cy="34070.9" r="334.646" /> 
<circle cx="60780.4" cy="33070.9" r="334.646" /> 
<circle cx="61780.4" cy="34070.9" r="334.646" /> 
<circle cx="61780.4" cy="33070.9" r="334.646" /> 
<circle cx="62780.4" cy="34070.9" r="334.646" /> 
<circle cx="62780.4" cy="33070.9" r="334.646" /> 
<circle cx="63780.4" cy="34070.9" r="334.646" /> 
<circle cx="63780.4" cy="33070.9" r="334.646" /> 
<circle cx="64780.4" cy="34070.9" r="334.646" /> 
<path style="fill:#000000; fill-opacity:1.0; 
stroke:#000000; stroke-width:0; stroke-opacity:1; 
stroke-linecap:round; stroke-linejoin:round;fill-rule:evenodd;"
d="M 64445.7,33405.5
65115,33405.5
65115,32736.2
64445.7,32736.2
Z" /> 
</g>
<g >
</g>
<g >
</g>
<g >
</g>
</g> 
</svg>
