  0
SECTION
  2
HEADER
  9
$ANGBASE
  50
0.0
  9
$ANGDIR
  70
1
  9
$MEASUREMENT
  70
1
  0
ENDSEC
  0
SECTION
  2
TABLES
  0
TABLE
  2
LTYPE
  70
4
  0
LTYPE
  5
40F
  2
CONTINUOUS
  70
0
  3
Solid line
  72
65
  73
0
  40
0.0
  0
LTYPE
  5
410
  2
DASHDOT
 70
0
  3
Dash Dot ____ _ ____ _
 72
65
 73
4
 40
2.0
 49
1.25
 49
-0.25
 49
0.25
 49
-0.25
  0
LTYPE
  5
411
  2
DASHED
 70
0
  3
Dashed __ __ __ __ __
 72
65
 73
2
 40
0.75
 49
0.5
 49
-0.25
  0
LTYPE
  5
43B
  2
DOTTED
 70
0
  3
Dotted .  .  .  .
 72
65
 73
2
 40
0.2
 49
0.0
 49
-0.2
  0
ENDTAB
  0
TABLE
  2
STYLE
  70
4
  0
STYLE
  2
KICAD
  70
0
  40
0
  41
1
  42
1
  50
0
  71
0
  3
isocp.shx
  0
STYLE
  2
KICADB
  70
0
  40
0
  41
1
  42
1
  50
0
  71
0
  3
isocp.shx
  0
STYLE
  2
KICADI
  70
0
  40
0
  41
1
  42
1
  50
15
  71
0
  3
isocp.shx
  0
STYLE
  2
KICADBI
  70
0
  40
0
  41
1
  42
1
  50
15
  71
0
  3
isocp.shx
  0
ENDTAB
  0
TABLE
  2
LAYER
  70
1
  0
LAYER
  2
BLACK
  70
0
  62
7
  6
CONTINUOUS
  0
ENDTAB
  0
ENDSEC
  0
SECTION
  2
ENTITIES
0
LINE
8
BLACK
6
CONTINUOUS
10
144.025
20
-80.5
11
144.098
21
-80.5072
0
LINE
8
BLACK
6
CONTINUOUS
10
144.098
20
-80.5072
11
144.192
21
-80.5358
0
LINE
8
BLACK
6
CONTINUOUS
10
144.192
20
-80.5358
11
144.279
21
-80.5823
0
LINE
8
BLACK
6
CONTINUOUS
10
144.279
20
-80.5823
11
144.355
21
-80.6447
0
LINE
8
BLACK
6
CONTINUOUS
10
144.355
20
-80.6447
11
144.371
21
-80.6638
0
LINE
8
BLACK
6
CONTINUOUS
10
144.371
20
-80.6638
11
147.336
21
-83.6291
0
LINE
8
BLACK
6
CONTINUOUS
10
147.336
20
-83.6291
11
147.355
21
-83.6447
0
LINE
8
BLACK
6
CONTINUOUS
10
147.355
20
-83.6447
11
147.418
21
-83.7209
0
LINE
8
BLACK
6
CONTINUOUS
10
147.418
20
-83.7209
11
147.464
21
-83.8077
0
LINE
8
BLACK
6
CONTINUOUS
10
147.464
20
-83.8077
11
147.491
21
-83.8953
0
LINE
8
BLACK
6
CONTINUOUS
10
147.491
20
-83.8953
11
147.493
21
-83.902
0
LINE
8
BLACK
6
CONTINUOUS
10
147.493
20
-83.902
11
147.502
21
-84
0
LINE
8
BLACK
6
CONTINUOUS
10
147.502
20
-84
11
147.5
21
-84.0246
0
LINE
8
BLACK
6
CONTINUOUS
10
147.5
20
-84.0246
11
147.5
21
-119.975
0
LINE
8
BLACK
6
CONTINUOUS
10
147.5
20
-119.975
11
147.502
21
-120
0
LINE
8
BLACK
6
CONTINUOUS
10
147.502
20
-120
11
147.493
21
-120.098
0
LINE
8
BLACK
6
CONTINUOUS
10
147.493
20
-120.098
11
147.464
21
-120.192
0
LINE
8
BLACK
6
CONTINUOUS
10
147.464
20
-120.192
11
147.418
21
-120.279
0
LINE
8
BLACK
6
CONTINUOUS
10
147.418
20
-120.279
11
147.355
21
-120.355
0
LINE
8
BLACK
6
CONTINUOUS
10
147.355
20
-120.355
11
147.279
21
-120.418
0
LINE
8
BLACK
6
CONTINUOUS
10
147.279
20
-120.418
11
147.192
21
-120.464
0
LINE
8
BLACK
6
CONTINUOUS
10
147.192
20
-120.464
11
147.098
21
-120.493
0
LINE
8
BLACK
6
CONTINUOUS
10
147.098
20
-120.493
11
147.025
21
-120.5
0
LINE
8
BLACK
6
CONTINUOUS
10
147.025
20
-120.5
11
147
21
-120.502
0
LINE
8
BLACK
6
CONTINUOUS
10
147
20
-120.502
11
146.975
21
-120.5
0
LINE
8
BLACK
6
CONTINUOUS
10
146.975
20
-120.5
11
135.025
21
-120.5
0
LINE
8
BLACK
6
CONTINUOUS
10
135.025
20
-120.5
11
135
21
-120.502
0
LINE
8
BLACK
6
CONTINUOUS
10
135
20
-120.502
11
134.975
21
-120.5
0
LINE
8
BLACK
6
CONTINUOUS
10
134.975
20
-120.5
11
134.902
21
-120.493
0
LINE
8
BLACK
6
CONTINUOUS
10
134.902
20
-120.493
11
134.808
21
-120.464
0
LINE
8
BLACK
6
CONTINUOUS
10
134.808
20
-120.464
11
134.721
21
-120.418
0
LINE
8
BLACK
6
CONTINUOUS
10
134.721
20
-120.418
11
134.645
21
-120.355
0
LINE
8
BLACK
6
CONTINUOUS
10
134.645
20
-120.355
11
134.582
21
-120.279
0
LINE
8
BLACK
6
CONTINUOUS
10
134.582
20
-120.279
11
134.536
21
-120.192
0
LINE
8
BLACK
6
CONTINUOUS
10
134.536
20
-120.192
11
134.507
21
-120.098
0
LINE
8
BLACK
6
CONTINUOUS
10
134.507
20
-120.098
11
134.498
21
-120
0
LINE
8
BLACK
6
CONTINUOUS
10
134.498
20
-120
11
134.5
21
-119.975
0
LINE
8
BLACK
6
CONTINUOUS
10
134.5
20
-119.975
11
134.5
21
-113.46
0
LINE
8
BLACK
6
CONTINUOUS
10
134.5
20
-113.46
11
133.331
21
-113.46
0
LINE
8
BLACK
6
CONTINUOUS
10
133.331
20
-113.46
11
133.184
21
-113.446
0
LINE
8
BLACK
6
CONTINUOUS
10
133.184
20
-113.446
11
132.995
21
-113.388
0
LINE
8
BLACK
6
CONTINUOUS
10
132.995
20
-113.388
11
132.822
21
-113.295
0
LINE
8
BLACK
6
CONTINUOUS
10
132.822
20
-113.295
11
132.669
21
-113.171
0
LINE
8
BLACK
6
CONTINUOUS
10
132.669
20
-113.171
11
132.545
21
-113.018
0
LINE
8
BLACK
6
CONTINUOUS
10
132.545
20
-113.018
11
132.452
21
-112.845
0
LINE
8
BLACK
6
CONTINUOUS
10
132.452
20
-112.845
11
132.394
21
-112.656
0
LINE
8
BLACK
6
CONTINUOUS
10
132.394
20
-112.656
11
132.375
21
-112.46
0
LINE
8
BLACK
6
CONTINUOUS
10
132.375
20
-112.46
11
132.394
21
-112.264
0
LINE
8
BLACK
6
CONTINUOUS
10
132.394
20
-112.264
11
132.452
21
-112.075
0
LINE
8
BLACK
6
CONTINUOUS
10
132.452
20
-112.075
11
132.545
21
-111.902
0
LINE
8
BLACK
6
CONTINUOUS
10
132.545
20
-111.902
11
132.669
21
-111.749
0
LINE
8
BLACK
6
CONTINUOUS
10
132.669
20
-111.749
11
132.822
21
-111.625
0
LINE
8
BLACK
6
CONTINUOUS
10
132.822
20
-111.625
11
132.995
21
-111.532
0
LINE
8
BLACK
6
CONTINUOUS
10
132.995
20
-111.532
11
133.184
21
-111.474
0
LINE
8
BLACK
6
CONTINUOUS
10
133.184
20
-111.474
11
133.331
21
-111.46
0
LINE
8
BLACK
6
CONTINUOUS
10
133.331
20
-111.46
11
134.509
21
-111.46
0
LINE
8
BLACK
6
CONTINUOUS
10
134.509
20
-111.46
11
134.656
21
-111.474
0
LINE
8
BLACK
6
CONTINUOUS
10
134.656
20
-111.474
11
134.845
21
-111.532
0
LINE
8
BLACK
6
CONTINUOUS
10
134.845
20
-111.532
11
135.018
21
-111.625
0
LINE
8
BLACK
6
CONTINUOUS
10
135.018
20
-111.625
11
135.171
21
-111.749
0
LINE
8
BLACK
6
CONTINUOUS
10
135.171
20
-111.749
11
135.295
21
-111.902
0
LINE
8
BLACK
6
CONTINUOUS
10
135.295
20
-111.902
11
135.388
21
-112.075
0
LINE
8
BLACK
6
CONTINUOUS
10
135.388
20
-112.075
11
135.446
21
-112.264
0
LINE
8
BLACK
6
CONTINUOUS
10
135.446
20
-112.264
11
135.465
21
-112.46
0
LINE
8
BLACK
6
CONTINUOUS
10
135.465
20
-112.46
11
135.446
21
-112.656
0
LINE
8
BLACK
6
CONTINUOUS
10
135.446
20
-112.656
11
135.423
21
-112.731
0
LINE
8
BLACK
6
CONTINUOUS
10
135.423
20
-112.731
11
135.464
21
-112.808
0
LINE
8
BLACK
6
CONTINUOUS
10
135.464
20
-112.808
11
135.493
21
-112.902
0
LINE
8
BLACK
6
CONTINUOUS
10
135.493
20
-112.902
11
135.5
21
-112.975
0
LINE
8
BLACK
6
CONTINUOUS
10
135.5
20
-112.975
11
135.5
21
-112.975
0
LINE
8
BLACK
6
CONTINUOUS
10
135.5
20
-112.975
11
135.502
21
-113
0
LINE
8
BLACK
6
CONTINUOUS
10
135.502
20
-113
11
135.5
21
-113.025
0
LINE
8
BLACK
6
CONTINUOUS
10
135.5
20
-113.025
11
135.5
21
-119.5
0
LINE
8
BLACK
6
CONTINUOUS
10
135.5
20
-119.5
11
146.5
21
-119.5
0
LINE
8
BLACK
6
CONTINUOUS
10
146.5
20
-119.5
11
146.5
21
-84.2071
0
LINE
8
BLACK
6
CONTINUOUS
10
146.5
20
-84.2071
11
143.793
21
-81.5
0
LINE
8
BLACK
6
CONTINUOUS
10
143.793
20
-81.5
11
141.207
21
-81.5
0
LINE
8
BLACK
6
CONTINUOUS
10
141.207
20
-81.5
11
141.046
21
-81.6608
0
LINE
8
BLACK
6
CONTINUOUS
10
141.046
20
-81.6608
11
141.066
21
-81.724
0
LINE
8
BLACK
6
CONTINUOUS
10
141.066
20
-81.724
11
141.08
21
-81.8709
0
LINE
8
BLACK
6
CONTINUOUS
10
141.08
20
-81.8709
11
141.08
21
-84.0491
0
LINE
8
BLACK
6
CONTINUOUS
10
141.08
20
-84.0491
11
141.066
21
-84.196
0
LINE
8
BLACK
6
CONTINUOUS
10
141.066
20
-84.196
11
141.008
21
-84.3845
0
LINE
8
BLACK
6
CONTINUOUS
10
141.008
20
-84.3845
11
140.915
21
-84.5583
0
LINE
8
BLACK
6
CONTINUOUS
10
140.915
20
-84.5583
11
140.791
21
-84.7105
0
LINE
8
BLACK
6
CONTINUOUS
10
140.791
20
-84.7105
11
140.638
21
-84.8355
0
LINE
8
BLACK
6
CONTINUOUS
10
140.638
20
-84.8355
11
140.465
21
-84.9283
0
LINE
8
BLACK
6
CONTINUOUS
10
140.465
20
-84.9283
11
140.276
21
-84.9855
0
LINE
8
BLACK
6
CONTINUOUS
10
140.276
20
-84.9855
11
140.08
21
-85.0048
0
LINE
8
BLACK
6
CONTINUOUS
10
140.08
20
-85.0048
11
139.884
21
-84.9855
0
LINE
8
BLACK
6
CONTINUOUS
10
139.884
20
-84.9855
11
139.695
21
-84.9283
0
LINE
8
BLACK
6
CONTINUOUS
10
139.695
20
-84.9283
11
139.522
21
-84.8355
0
LINE
8
BLACK
6
CONTINUOUS
10
139.522
20
-84.8355
11
139.369
21
-84.7105
0
LINE
8
BLACK
6
CONTINUOUS
10
139.369
20
-84.7105
11
139.245
21
-84.5583
0
LINE
8
BLACK
6
CONTINUOUS
10
139.245
20
-84.5583
11
139.152
21
-84.3845
0
LINE
8
BLACK
6
CONTINUOUS
10
139.152
20
-84.3845
11
139.094
21
-84.196
0
LINE
8
BLACK
6
CONTINUOUS
10
139.094
20
-84.196
11
139.08
21
-84.0491
0
LINE
8
BLACK
6
CONTINUOUS
10
139.08
20
-84.0491
11
139.08
21
-81.8709
0
LINE
8
BLACK
6
CONTINUOUS
10
139.08
20
-81.8709
11
139.094
21
-81.724
0
LINE
8
BLACK
6
CONTINUOUS
10
139.094
20
-81.724
11
139.152
21
-81.5355
0
LINE
8
BLACK
6
CONTINUOUS
10
139.152
20
-81.5355
11
139.245
21
-81.3617
0
LINE
8
BLACK
6
CONTINUOUS
10
139.245
20
-81.3617
11
139.369
21
-81.2095
0
LINE
8
BLACK
6
CONTINUOUS
10
139.369
20
-81.2095
11
139.522
21
-81.0845
0
LINE
8
BLACK
6
CONTINUOUS
10
139.522
20
-81.0845
11
139.695
21
-80.9917
0
LINE
8
BLACK
6
CONTINUOUS
10
139.695
20
-80.9917
11
139.884
21
-80.9345
0
LINE
8
BLACK
6
CONTINUOUS
10
139.884
20
-80.9345
11
140.08
21
-80.9152
0
LINE
8
BLACK
6
CONTINUOUS
10
140.08
20
-80.9152
11
140.276
21
-80.9345
0
LINE
8
BLACK
6
CONTINUOUS
10
140.276
20
-80.9345
11
140.339
21
-80.9536
0
LINE
8
BLACK
6
CONTINUOUS
10
140.339
20
-80.9536
11
140.629
21
-80.6638
0
LINE
8
BLACK
6
CONTINUOUS
10
140.629
20
-80.6638
11
140.645
21
-80.6447
0
LINE
8
BLACK
6
CONTINUOUS
10
140.645
20
-80.6447
11
140.721
21
-80.5823
0
LINE
8
BLACK
6
CONTINUOUS
10
140.721
20
-80.5823
11
140.808
21
-80.5358
0
LINE
8
BLACK
6
CONTINUOUS
10
140.808
20
-80.5358
11
140.902
21
-80.5072
0
LINE
8
BLACK
6
CONTINUOUS
10
140.902
20
-80.5072
11
140.975
21
-80.5
0
LINE
8
BLACK
6
CONTINUOUS
10
140.975
20
-80.5
11
140.975
21
-80.5
0
LINE
8
BLACK
6
CONTINUOUS
10
140.975
20
-80.5
11
141
21
-80.4976
0
LINE
8
BLACK
6
CONTINUOUS
10
141
20
-80.4976
11
141.025
21
-80.5
0
LINE
8
BLACK
6
CONTINUOUS
10
141.025
20
-80.5
11
143.975
21
-80.5
0
LINE
8
BLACK
6
CONTINUOUS
10
143.975
20
-80.5
11
144
21
-80.4976
0
LINE
8
BLACK
6
CONTINUOUS
10
144
20
-80.4976
11
144.025
21
-80.5
0
LINE
8
BLACK
6
CONTINUOUS
10
144.196
20
-83.0145
11
144.385
21
-83.0717
0
LINE
8
BLACK
6
CONTINUOUS
10
144.385
20
-83.0717
11
144.558
21
-83.1645
0
LINE
8
BLACK
6
CONTINUOUS
10
144.558
20
-83.1645
11
144.711
21
-83.2895
0
LINE
8
BLACK
6
CONTINUOUS
10
144.711
20
-83.2895
11
144.835
21
-83.4417
0
LINE
8
BLACK
6
CONTINUOUS
10
144.835
20
-83.4417
11
144.928
21
-83.6155
0
LINE
8
BLACK
6
CONTINUOUS
10
144.928
20
-83.6155
11
144.986
21
-83.804
0
LINE
8
BLACK
6
CONTINUOUS
10
144.986
20
-83.804
11
145.005
21
-84
0
LINE
8
BLACK
6
CONTINUOUS
10
145.005
20
-84
11
144.986
21
-84.196
0
LINE
8
BLACK
6
CONTINUOUS
10
144.986
20
-84.196
11
144.966
21
-84.2592
0
LINE
8
BLACK
6
CONTINUOUS
10
144.966
20
-84.2592
11
145.336
21
-84.6291
0
LINE
8
BLACK
6
CONTINUOUS
10
145.336
20
-84.6291
11
145.355
21
-84.6447
0
LINE
8
BLACK
6
CONTINUOUS
10
145.355
20
-84.6447
11
145.418
21
-84.7209
0
LINE
8
BLACK
6
CONTINUOUS
10
145.418
20
-84.7209
11
145.464
21
-84.8077
0
LINE
8
BLACK
6
CONTINUOUS
10
145.464
20
-84.8077
11
145.473
21
-84.8355
0
LINE
8
BLACK
6
CONTINUOUS
10
145.473
20
-84.8355
11
145.493
21
-84.902
0
LINE
8
BLACK
6
CONTINUOUS
10
145.493
20
-84.902
11
145.502
21
-85
0
LINE
8
BLACK
6
CONTINUOUS
10
145.502
20
-85
11
145.5
21
-85.0246
0
LINE
8
BLACK
6
CONTINUOUS
10
145.5
20
-85.0246
11
145.5
21
-117.975
0
LINE
8
BLACK
6
CONTINUOUS
10
145.5
20
-117.975
11
145.502
21
-118
0
LINE
8
BLACK
6
CONTINUOUS
10
145.502
20
-118
11
145.493
21
-118.098
0
LINE
8
BLACK
6
CONTINUOUS
10
145.493
20
-118.098
11
145.464
21
-118.192
0
LINE
8
BLACK
6
CONTINUOUS
10
145.464
20
-118.192
11
145.418
21
-118.279
0
LINE
8
BLACK
6
CONTINUOUS
10
145.418
20
-118.279
11
145.355
21
-118.355
0
LINE
8
BLACK
6
CONTINUOUS
10
145.355
20
-118.355
11
145.279
21
-118.418
0
LINE
8
BLACK
6
CONTINUOUS
10
145.279
20
-118.418
11
145.192
21
-118.464
0
LINE
8
BLACK
6
CONTINUOUS
10
145.192
20
-118.464
11
145.098
21
-118.493
0
LINE
8
BLACK
6
CONTINUOUS
10
145.098
20
-118.493
11
145.025
21
-118.5
0
LINE
8
BLACK
6
CONTINUOUS
10
145.025
20
-118.5
11
145
21
-118.502
0
LINE
8
BLACK
6
CONTINUOUS
10
145
20
-118.502
11
144.975
21
-118.5
0
LINE
8
BLACK
6
CONTINUOUS
10
144.975
20
-118.5
11
137.025
21
-118.5
0
LINE
8
BLACK
6
CONTINUOUS
10
137.025
20
-118.5
11
137
21
-118.502
0
LINE
8
BLACK
6
CONTINUOUS
10
137
20
-118.502
11
136.902
21
-118.493
0
LINE
8
BLACK
6
CONTINUOUS
10
136.902
20
-118.493
11
136.808
21
-118.464
0
LINE
8
BLACK
6
CONTINUOUS
10
136.808
20
-118.464
11
136.721
21
-118.418
0
LINE
8
BLACK
6
CONTINUOUS
10
136.721
20
-118.418
11
136.645
21
-118.355
0
LINE
8
BLACK
6
CONTINUOUS
10
136.645
20
-118.355
11
136.582
21
-118.279
0
LINE
8
BLACK
6
CONTINUOUS
10
136.582
20
-118.279
11
136.536
21
-118.192
0
LINE
8
BLACK
6
CONTINUOUS
10
136.536
20
-118.192
11
136.507
21
-118.098
0
LINE
8
BLACK
6
CONTINUOUS
10
136.507
20
-118.098
11
136.498
21
-118
0
LINE
8
BLACK
6
CONTINUOUS
10
136.498
20
-118
11
136.5
21
-117.975
0
LINE
8
BLACK
6
CONTINUOUS
10
136.5
20
-117.975
11
136.5
21
-112.207
0
LINE
8
BLACK
6
CONTINUOUS
10
136.5
20
-112.207
11
134.85
21
-110.558
0
LINE
8
BLACK
6
CONTINUOUS
10
134.85
20
-110.558
11
134.791
21
-110.631
0
LINE
8
BLACK
6
CONTINUOUS
10
134.791
20
-110.631
11
134.638
21
-110.755
0
LINE
8
BLACK
6
CONTINUOUS
10
134.638
20
-110.755
11
134.465
21
-110.848
0
LINE
8
BLACK
6
CONTINUOUS
10
134.465
20
-110.848
11
134.276
21
-110.906
0
LINE
8
BLACK
6
CONTINUOUS
10
134.276
20
-110.906
11
134.129
21
-110.92
0
LINE
8
BLACK
6
CONTINUOUS
10
134.129
20
-110.92
11
133.331
21
-110.92
0
LINE
8
BLACK
6
CONTINUOUS
10
133.331
20
-110.92
11
133.184
21
-110.906
0
LINE
8
BLACK
6
CONTINUOUS
10
133.184
20
-110.906
11
132.995
21
-110.848
0
LINE
8
BLACK
6
CONTINUOUS
10
132.995
20
-110.848
11
132.822
21
-110.755
0
LINE
8
BLACK
6
CONTINUOUS
10
132.822
20
-110.755
11
132.669
21
-110.631
0
LINE
8
BLACK
6
CONTINUOUS
10
132.669
20
-110.631
11
132.545
21
-110.478
0
LINE
8
BLACK
6
CONTINUOUS
10
132.545
20
-110.478
11
132.452
21
-110.305
0
LINE
8
BLACK
6
CONTINUOUS
10
132.452
20
-110.305
11
132.394
21
-110.116
0
LINE
8
BLACK
6
CONTINUOUS
10
132.394
20
-110.116
11
132.375
21
-109.92
0
LINE
8
BLACK
6
CONTINUOUS
10
132.375
20
-109.92
11
132.394
21
-109.724
0
LINE
8
BLACK
6
CONTINUOUS
10
132.394
20
-109.724
11
132.452
21
-109.535
0
LINE
8
BLACK
6
CONTINUOUS
10
132.452
20
-109.535
11
132.545
21
-109.362
0
LINE
8
BLACK
6
CONTINUOUS
10
132.545
20
-109.362
11
132.669
21
-109.209
0
LINE
8
BLACK
6
CONTINUOUS
10
132.669
20
-109.209
11
132.822
21
-109.085
0
LINE
8
BLACK
6
CONTINUOUS
10
132.822
20
-109.085
11
132.995
21
-108.992
0
LINE
8
BLACK
6
CONTINUOUS
10
132.995
20
-108.992
11
133.184
21
-108.934
0
LINE
8
BLACK
6
CONTINUOUS
10
133.184
20
-108.934
11
133.331
21
-108.92
0
LINE
8
BLACK
6
CONTINUOUS
10
133.331
20
-108.92
11
134.129
21
-108.92
0
LINE
8
BLACK
6
CONTINUOUS
10
134.129
20
-108.92
11
134.276
21
-108.934
0
LINE
8
BLACK
6
CONTINUOUS
10
134.276
20
-108.934
11
134.465
21
-108.992
0
LINE
8
BLACK
6
CONTINUOUS
10
134.465
20
-108.992
11
134.638
21
-109.085
0
LINE
8
BLACK
6
CONTINUOUS
10
134.638
20
-109.085
11
134.791
21
-109.209
0
LINE
8
BLACK
6
CONTINUOUS
10
134.791
20
-109.209
11
134.915
21
-109.362
0
LINE
8
BLACK
6
CONTINUOUS
10
134.915
20
-109.362
11
134.947
21
-109.42
0
LINE
8
BLACK
6
CONTINUOUS
10
134.947
20
-109.42
11
135.018
21
-109.427
0
LINE
8
BLACK
6
CONTINUOUS
10
135.018
20
-109.427
11
135.112
21
-109.456
0
LINE
8
BLACK
6
CONTINUOUS
10
135.112
20
-109.456
11
135.199
21
-109.502
0
LINE
8
BLACK
6
CONTINUOUS
10
135.199
20
-109.502
11
135.275
21
-109.565
0
LINE
8
BLACK
6
CONTINUOUS
10
135.275
20
-109.565
11
135.291
21
-109.584
0
LINE
8
BLACK
6
CONTINUOUS
10
135.291
20
-109.584
11
137.336
21
-111.629
0
LINE
8
BLACK
6
CONTINUOUS
10
137.336
20
-111.629
11
137.355
21
-111.645
0
LINE
8
BLACK
6
CONTINUOUS
10
137.355
20
-111.645
11
137.418
21
-111.721
0
LINE
8
BLACK
6
CONTINUOUS
10
137.418
20
-111.721
11
137.464
21
-111.808
0
LINE
8
BLACK
6
CONTINUOUS
10
137.464
20
-111.808
11
137.493
21
-111.902
0
LINE
8
BLACK
6
CONTINUOUS
10
137.493
20
-111.902
11
137.497
21
-111.95
0
LINE
8
BLACK
6
CONTINUOUS
10
137.497
20
-111.95
11
137.502
21
-112
0
LINE
8
BLACK
6
CONTINUOUS
10
137.502
20
-112
11
137.5
21
-112.025
0
LINE
8
BLACK
6
CONTINUOUS
10
137.5
20
-112.025
11
137.5
21
-117.5
0
LINE
8
BLACK
6
CONTINUOUS
10
137.5
20
-117.5
11
144.5
21
-117.5
0
LINE
8
BLACK
6
CONTINUOUS
10
144.5
20
-117.5
11
144.5
21
-85.2071
0
LINE
8
BLACK
6
CONTINUOUS
10
144.5
20
-85.2071
11
144.259
21
-84.9664
0
LINE
8
BLACK
6
CONTINUOUS
10
144.259
20
-84.9664
11
144.196
21
-84.9855
0
LINE
8
BLACK
6
CONTINUOUS
10
144.196
20
-84.9855
11
144.049
21
-85
0
LINE
8
BLACK
6
CONTINUOUS
10
144.049
20
-85
11
142.571
21
-85
0
LINE
8
BLACK
6
CONTINUOUS
10
142.571
20
-85
11
142.424
21
-84.9855
0
LINE
8
BLACK
6
CONTINUOUS
10
142.424
20
-84.9855
11
142.235
21
-84.9283
0
LINE
8
BLACK
6
CONTINUOUS
10
142.235
20
-84.9283
11
142.062
21
-84.8355
0
LINE
8
BLACK
6
CONTINUOUS
10
142.062
20
-84.8355
11
141.909
21
-84.7105
0
LINE
8
BLACK
6
CONTINUOUS
10
141.909
20
-84.7105
11
141.785
21
-84.5583
0
LINE
8
BLACK
6
CONTINUOUS
10
141.785
20
-84.5583
11
141.692
21
-84.3845
0
LINE
8
BLACK
6
CONTINUOUS
10
141.692
20
-84.3845
11
141.634
21
-84.196
0
LINE
8
BLACK
6
CONTINUOUS
10
141.634
20
-84.196
11
141.615
21
-84
0
LINE
8
BLACK
6
CONTINUOUS
10
141.615
20
-84
11
141.634
21
-83.804
0
LINE
8
BLACK
6
CONTINUOUS
10
141.634
20
-83.804
11
141.692
21
-83.6155
0
LINE
8
BLACK
6
CONTINUOUS
10
141.692
20
-83.6155
11
141.785
21
-83.4417
0
LINE
8
BLACK
6
CONTINUOUS
10
141.785
20
-83.4417
11
141.909
21
-83.2895
0
LINE
8
BLACK
6
CONTINUOUS
10
141.909
20
-83.2895
11
142.062
21
-83.1645
0
LINE
8
BLACK
6
CONTINUOUS
10
142.062
20
-83.1645
11
142.235
21
-83.0717
0
LINE
8
BLACK
6
CONTINUOUS
10
142.235
20
-83.0717
11
142.424
21
-83.0145
0
LINE
8
BLACK
6
CONTINUOUS
10
142.424
20
-83.0145
11
142.571
21
-83
0
LINE
8
BLACK
6
CONTINUOUS
10
142.571
20
-83
11
144.049
21
-83
0
LINE
8
BLACK
6
CONTINUOUS
10
144.049
20
-83
11
144.196
21
-83.0145
0
LINE
8
BLACK
6
CONTINUOUS
10
143.501
20
-115.352
11
143.501
21
-115.352
0
LINE
8
BLACK
6
CONTINUOUS
10
143.501
20
-115.352
11
143.51
21
-115.353
0
LINE
8
BLACK
6
CONTINUOUS
10
143.51
20
-115.353
11
143.52
21
-115.354
0
LINE
8
BLACK
6
CONTINUOUS
10
143.52
20
-115.354
11
143.52
21
-115.354
0
LINE
8
BLACK
6
CONTINUOUS
10
143.52
20
-115.354
11
143.52
21
-115.354
0
LINE
8
BLACK
6
CONTINUOUS
10
143.52
20
-115.354
11
143.529
21
-115.357
0
LINE
8
BLACK
6
CONTINUOUS
10
143.529
20
-115.357
11
143.539
21
-115.36
0
LINE
8
BLACK
6
CONTINUOUS
10
143.539
20
-115.36
11
143.539
21
-115.36
0
LINE
8
BLACK
6
CONTINUOUS
10
143.539
20
-115.36
11
143.539
21
-115.36
0
LINE
8
BLACK
6
CONTINUOUS
10
143.539
20
-115.36
11
143.547
21
-115.365
0
LINE
8
BLACK
6
CONTINUOUS
10
143.547
20
-115.365
11
143.556
21
-115.369
0
LINE
8
BLACK
6
CONTINUOUS
10
143.556
20
-115.369
11
143.556
21
-115.369
0
LINE
8
BLACK
6
CONTINUOUS
10
143.556
20
-115.369
11
143.556
21
-115.369
0
LINE
8
BLACK
6
CONTINUOUS
10
143.556
20
-115.369
11
143.563
21
-115.375
0
LINE
8
BLACK
6
CONTINUOUS
10
143.563
20
-115.375
11
143.571
21
-115.382
0
LINE
8
BLACK
6
CONTINUOUS
10
143.571
20
-115.382
11
143.571
21
-115.382
0
LINE
8
BLACK
6
CONTINUOUS
10
143.571
20
-115.382
11
143.571
21
-115.382
0
LINE
8
BLACK
6
CONTINUOUS
10
143.571
20
-115.382
11
143.577
21
-115.389
0
LINE
8
BLACK
6
CONTINUOUS
10
143.577
20
-115.389
11
143.583
21
-115.397
0
LINE
8
BLACK
6
CONTINUOUS
10
143.583
20
-115.397
11
143.673
21
-115.532
0
LINE
8
BLACK
6
CONTINUOUS
10
143.673
20
-115.532
11
143.75
21
-115.608
0
LINE
8
BLACK
6
CONTINUOUS
10
143.75
20
-115.608
11
143.83
21
-115.649
0
LINE
8
BLACK
6
CONTINUOUS
10
143.83
20
-115.649
11
143.832
21
-115.649
0
LINE
8
BLACK
6
CONTINUOUS
10
143.832
20
-115.649
11
143.848
21
-115.66
0
LINE
8
BLACK
6
CONTINUOUS
10
143.848
20
-115.66
11
143.862
21
-115.674
0
LINE
8
BLACK
6
CONTINUOUS
10
143.862
20
-115.674
11
143.873
21
-115.69
0
LINE
8
BLACK
6
CONTINUOUS
10
143.873
20
-115.69
11
143.881
21
-115.707
0
LINE
8
BLACK
6
CONTINUOUS
10
143.881
20
-115.707
11
143.885
21
-115.727
0
LINE
8
BLACK
6
CONTINUOUS
10
143.885
20
-115.727
11
143.885
21
-115.746
0
LINE
8
BLACK
6
CONTINUOUS
10
143.885
20
-115.746
11
143.882
21
-115.765
0
LINE
8
BLACK
6
CONTINUOUS
10
143.882
20
-115.765
11
143.875
21
-115.783
0
LINE
8
BLACK
6
CONTINUOUS
10
143.875
20
-115.783
11
143.864
21
-115.8
0
LINE
8
BLACK
6
CONTINUOUS
10
143.864
20
-115.8
11
143.851
21
-115.814
0
LINE
8
BLACK
6
CONTINUOUS
10
143.851
20
-115.814
11
143.835
21
-115.825
0
LINE
8
BLACK
6
CONTINUOUS
10
143.835
20
-115.825
11
143.817
21
-115.833
0
LINE
8
BLACK
6
CONTINUOUS
10
143.817
20
-115.833
11
143.798
21
-115.837
0
LINE
8
BLACK
6
CONTINUOUS
10
143.798
20
-115.837
11
143.778
21
-115.838
0
LINE
8
BLACK
6
CONTINUOUS
10
143.778
20
-115.838
11
143.759
21
-115.835
0
LINE
8
BLACK
6
CONTINUOUS
10
143.759
20
-115.835
11
143.741
21
-115.828
0
LINE
8
BLACK
6
CONTINUOUS
10
143.741
20
-115.828
11
143.646
21
-115.78
0
LINE
8
BLACK
6
CONTINUOUS
10
143.646
20
-115.78
11
143.645
21
-115.779
0
LINE
8
BLACK
6
CONTINUOUS
10
143.645
20
-115.779
11
143.64
21
-115.776
0
LINE
8
BLACK
6
CONTINUOUS
10
143.64
20
-115.776
11
143.635
21
-115.774
0
LINE
8
BLACK
6
CONTINUOUS
10
143.635
20
-115.774
11
143.632
21
-115.771
0
LINE
8
BLACK
6
CONTINUOUS
10
143.632
20
-115.771
11
143.628
21
-115.769
0
LINE
8
BLACK
6
CONTINUOUS
10
143.628
20
-115.769
11
143.624
21
-115.765
0
LINE
8
BLACK
6
CONTINUOUS
10
143.624
20
-115.765
11
143.62
21
-115.761
0
LINE
8
BLACK
6
CONTINUOUS
10
143.62
20
-115.761
11
143.6
21
-115.741
0
LINE
8
BLACK
6
CONTINUOUS
10
143.6
20
-115.741
11
143.6
21
-116.352
0
LINE
8
BLACK
6
CONTINUOUS
10
143.6
20
-116.352
11
143.786
21
-116.352
0
LINE
8
BLACK
6
CONTINUOUS
10
143.786
20
-116.352
11
143.787
21
-116.352
0
LINE
8
BLACK
6
CONTINUOUS
10
143.787
20
-116.352
11
143.807
21
-116.355
0
LINE
8
BLACK
6
CONTINUOUS
10
143.807
20
-116.355
11
143.825
21
-116.36
0
LINE
8
BLACK
6
CONTINUOUS
10
143.825
20
-116.36
11
143.842
21
-116.37
0
LINE
8
BLACK
6
CONTINUOUS
10
143.842
20
-116.37
11
143.857
21
-116.382
0
LINE
8
BLACK
6
CONTINUOUS
10
143.857
20
-116.382
11
143.869
21
-116.398
0
LINE
8
BLACK
6
CONTINUOUS
10
143.869
20
-116.398
11
143.878
21
-116.415
0
LINE
8
BLACK
6
CONTINUOUS
10
143.878
20
-116.415
11
143.884
21
-116.434
0
LINE
8
BLACK
6
CONTINUOUS
10
143.884
20
-116.434
11
143.886
21
-116.453
0
LINE
8
BLACK
6
CONTINUOUS
10
143.886
20
-116.453
11
143.884
21
-116.472
0
LINE
8
BLACK
6
CONTINUOUS
10
143.884
20
-116.472
11
143.878
21
-116.491
0
LINE
8
BLACK
6
CONTINUOUS
10
143.878
20
-116.491
11
143.869
21
-116.508
0
LINE
8
BLACK
6
CONTINUOUS
10
143.869
20
-116.508
11
143.856
21
-116.523
0
LINE
8
BLACK
6
CONTINUOUS
10
143.856
20
-116.523
11
143.841
21
-116.536
0
LINE
8
BLACK
6
CONTINUOUS
10
143.841
20
-116.536
11
143.824
21
-116.545
0
LINE
8
BLACK
6
CONTINUOUS
10
143.824
20
-116.545
11
143.805
21
-116.55
0
LINE
8
BLACK
6
CONTINUOUS
10
143.805
20
-116.55
11
143.786
21
-116.552
0
LINE
8
BLACK
6
CONTINUOUS
10
143.786
20
-116.552
11
143.214
21
-116.552
0
LINE
8
BLACK
6
CONTINUOUS
10
143.214
20
-116.552
11
143.213
21
-116.552
0
LINE
8
BLACK
6
CONTINUOUS
10
143.213
20
-116.552
11
143.193
21
-116.55
0
LINE
8
BLACK
6
CONTINUOUS
10
143.193
20
-116.55
11
143.175
21
-116.544
0
LINE
8
BLACK
6
CONTINUOUS
10
143.175
20
-116.544
11
143.158
21
-116.535
0
LINE
8
BLACK
6
CONTINUOUS
10
143.158
20
-116.535
11
143.143
21
-116.522
0
LINE
8
BLACK
6
CONTINUOUS
10
143.143
20
-116.522
11
143.131
21
-116.507
0
LINE
8
BLACK
6
CONTINUOUS
10
143.131
20
-116.507
11
143.122
21
-116.49
0
LINE
8
BLACK
6
CONTINUOUS
10
143.122
20
-116.49
11
143.116
21
-116.471
0
LINE
8
BLACK
6
CONTINUOUS
10
143.116
20
-116.471
11
143.114
21
-116.452
0
LINE
8
BLACK
6
CONTINUOUS
10
143.114
20
-116.452
11
143.116
21
-116.432
0
LINE
8
BLACK
6
CONTINUOUS
10
143.116
20
-116.432
11
143.122
21
-116.414
0
LINE
8
BLACK
6
CONTINUOUS
10
143.122
20
-116.414
11
143.131
21
-116.396
0
LINE
8
BLACK
6
CONTINUOUS
10
143.131
20
-116.396
11
143.144
21
-116.381
0
LINE
8
BLACK
6
CONTINUOUS
10
143.144
20
-116.381
11
143.159
21
-116.369
0
LINE
8
BLACK
6
CONTINUOUS
10
143.159
20
-116.369
11
143.176
21
-116.36
0
LINE
8
BLACK
6
CONTINUOUS
10
143.176
20
-116.36
11
143.195
21
-116.354
0
LINE
8
BLACK
6
CONTINUOUS
10
143.195
20
-116.354
11
143.214
21
-116.352
0
LINE
8
BLACK
6
CONTINUOUS
10
143.214
20
-116.352
11
143.4
21
-116.352
0
LINE
8
BLACK
6
CONTINUOUS
10
143.4
20
-116.352
11
143.4
21
-115.452
0
LINE
8
BLACK
6
CONTINUOUS
10
143.4
20
-115.452
11
143.4
21
-115.451
0
LINE
8
BLACK
6
CONTINUOUS
10
143.4
20
-115.451
11
143.4
21
-115.451
0
LINE
8
BLACK
6
CONTINUOUS
10
143.4
20
-115.451
11
143.4
21
-115.451
0
LINE
8
BLACK
6
CONTINUOUS
10
143.4
20
-115.451
11
143.4
21
-115.451
0
LINE
8
BLACK
6
CONTINUOUS
10
143.4
20
-115.451
11
143.401
21
-115.441
0
LINE
8
BLACK
6
CONTINUOUS
10
143.401
20
-115.441
11
143.402
21
-115.432
0
LINE
8
BLACK
6
CONTINUOUS
10
143.402
20
-115.432
11
143.402
21
-115.432
0
LINE
8
BLACK
6
CONTINUOUS
10
143.402
20
-115.432
11
143.402
21
-115.432
0
LINE
8
BLACK
6
CONTINUOUS
10
143.402
20
-115.432
11
143.405
21
-115.422
0
LINE
8
BLACK
6
CONTINUOUS
10
143.405
20
-115.422
11
143.408
21
-115.413
0
LINE
8
BLACK
6
CONTINUOUS
10
143.408
20
-115.413
11
143.408
21
-115.413
0
LINE
8
BLACK
6
CONTINUOUS
10
143.408
20
-115.413
11
143.408
21
-115.413
0
LINE
8
BLACK
6
CONTINUOUS
10
143.408
20
-115.413
11
143.413
21
-115.404
0
LINE
8
BLACK
6
CONTINUOUS
10
143.413
20
-115.404
11
143.417
21
-115.396
0
LINE
8
BLACK
6
CONTINUOUS
10
143.417
20
-115.396
11
143.417
21
-115.396
0
LINE
8
BLACK
6
CONTINUOUS
10
143.417
20
-115.396
11
143.417
21
-115.396
0
LINE
8
BLACK
6
CONTINUOUS
10
143.417
20
-115.396
11
143.424
21
-115.389
0
LINE
8
BLACK
6
CONTINUOUS
10
143.424
20
-115.389
11
143.43
21
-115.381
0
LINE
8
BLACK
6
CONTINUOUS
10
143.43
20
-115.381
11
143.43
21
-115.381
0
LINE
8
BLACK
6
CONTINUOUS
10
143.43
20
-115.381
11
143.43
21
-115.381
0
LINE
8
BLACK
6
CONTINUOUS
10
143.43
20
-115.381
11
143.437
21
-115.375
0
LINE
8
BLACK
6
CONTINUOUS
10
143.437
20
-115.375
11
143.445
21
-115.369
0
LINE
8
BLACK
6
CONTINUOUS
10
143.445
20
-115.369
11
143.445
21
-115.369
0
LINE
8
BLACK
6
CONTINUOUS
10
143.445
20
-115.369
11
143.445
21
-115.369
0
LINE
8
BLACK
6
CONTINUOUS
10
143.445
20
-115.369
11
143.453
21
-115.364
0
LINE
8
BLACK
6
CONTINUOUS
10
143.453
20
-115.364
11
143.462
21
-115.36
0
LINE
8
BLACK
6
CONTINUOUS
10
143.462
20
-115.36
11
143.462
21
-115.36
0
LINE
8
BLACK
6
CONTINUOUS
10
143.462
20
-115.36
11
143.463
21
-115.36
0
LINE
8
BLACK
6
CONTINUOUS
10
143.463
20
-115.36
11
143.472
21
-115.357
0
LINE
8
BLACK
6
CONTINUOUS
10
143.472
20
-115.357
11
143.481
21
-115.354
0
LINE
8
BLACK
6
CONTINUOUS
10
143.481
20
-115.354
11
143.481
21
-115.354
0
LINE
8
BLACK
6
CONTINUOUS
10
143.481
20
-115.354
11
143.481
21
-115.354
0
LINE
8
BLACK
6
CONTINUOUS
10
143.481
20
-115.354
11
143.491
21
-115.353
0
LINE
8
BLACK
6
CONTINUOUS
10
143.491
20
-115.353
11
143.501
21
-115.352
0
LINE
8
BLACK
6
CONTINUOUS
10
143.501
20
-115.352
11
143.501
21
-115.352
0
LINE
8
BLACK
6
CONTINUOUS
10
131.196
20
-109.014
11
131.385
21
-109.072
0
LINE
8
BLACK
6
CONTINUOUS
10
131.385
20
-109.072
11
131.558
21
-109.165
0
LINE
8
BLACK
6
CONTINUOUS
10
131.558
20
-109.165
11
131.711
21
-109.289
0
LINE
8
BLACK
6
CONTINUOUS
10
131.711
20
-109.289
11
131.835
21
-109.442
0
LINE
8
BLACK
6
CONTINUOUS
10
131.835
20
-109.442
11
131.928
21
-109.615
0
LINE
8
BLACK
6
CONTINUOUS
10
131.928
20
-109.615
11
131.986
21
-109.804
0
LINE
8
BLACK
6
CONTINUOUS
10
131.986
20
-109.804
11
132
21
-109.951
0
LINE
8
BLACK
6
CONTINUOUS
10
132
20
-109.951
11
132
21
-111.049
0
LINE
8
BLACK
6
CONTINUOUS
10
132
20
-111.049
11
131.986
21
-111.196
0
LINE
8
BLACK
6
CONTINUOUS
10
131.986
20
-111.196
11
131.928
21
-111.385
0
LINE
8
BLACK
6
CONTINUOUS
10
131.928
20
-111.385
11
131.835
21
-111.558
0
LINE
8
BLACK
6
CONTINUOUS
10
131.835
20
-111.558
11
131.711
21
-111.711
0
LINE
8
BLACK
6
CONTINUOUS
10
131.711
20
-111.711
11
131.558
21
-111.835
0
LINE
8
BLACK
6
CONTINUOUS
10
131.558
20
-111.835
11
131.5
21
-111.867
0
LINE
8
BLACK
6
CONTINUOUS
10
131.5
20
-111.867
11
131.5
21
-113.793
0
LINE
8
BLACK
6
CONTINUOUS
10
131.5
20
-113.793
11
132.207
21
-114.5
0
LINE
8
BLACK
6
CONTINUOUS
10
132.207
20
-114.5
11
132.752
21
-114.5
0
LINE
8
BLACK
6
CONTINUOUS
10
132.752
20
-114.5
11
132.759
21
-114.49
0
LINE
8
BLACK
6
CONTINUOUS
10
132.759
20
-114.49
11
132.87
21
-114.379
0
LINE
8
BLACK
6
CONTINUOUS
10
132.87
20
-114.379
11
133.001
21
-114.291
0
LINE
8
BLACK
6
CONTINUOUS
10
133.001
20
-114.291
11
133.147
21
-114.231
0
LINE
8
BLACK
6
CONTINUOUS
10
133.147
20
-114.231
11
133.301
21
-114.2
0
LINE
8
BLACK
6
CONTINUOUS
10
133.301
20
-114.2
11
133.459
21
-114.2
0
LINE
8
BLACK
6
CONTINUOUS
10
133.459
20
-114.2
11
133.613
21
-114.231
0
LINE
8
BLACK
6
CONTINUOUS
10
133.613
20
-114.231
11
133.759
21
-114.291
0
LINE
8
BLACK
6
CONTINUOUS
10
133.759
20
-114.291
11
133.89
21
-114.379
0
LINE
8
BLACK
6
CONTINUOUS
10
133.89
20
-114.379
11
134.001
21
-114.49
0
LINE
8
BLACK
6
CONTINUOUS
10
134.001
20
-114.49
11
134.089
21
-114.621
0
LINE
8
BLACK
6
CONTINUOUS
10
134.089
20
-114.621
11
134.149
21
-114.767
0
LINE
8
BLACK
6
CONTINUOUS
10
134.149
20
-114.767
11
134.18
21
-114.921
0
LINE
8
BLACK
6
CONTINUOUS
10
134.18
20
-114.921
11
134.18
21
-115.079
0
LINE
8
BLACK
6
CONTINUOUS
10
134.18
20
-115.079
11
134.149
21
-115.233
0
LINE
8
BLACK
6
CONTINUOUS
10
134.149
20
-115.233
11
134.089
21
-115.379
0
LINE
8
BLACK
6
CONTINUOUS
10
134.089
20
-115.379
11
134.001
21
-115.51
0
LINE
8
BLACK
6
CONTINUOUS
10
134.001
20
-115.51
11
133.89
21
-115.621
0
LINE
8
BLACK
6
CONTINUOUS
10
133.89
20
-115.621
11
133.759
21
-115.709
0
LINE
8
BLACK
6
CONTINUOUS
10
133.759
20
-115.709
11
133.756
21
-115.71
0
LINE
8
BLACK
6
CONTINUOUS
10
133.756
20
-115.71
11
133.735
21
-115.735
0
LINE
8
BLACK
6
CONTINUOUS
10
133.735
20
-115.735
11
133.716
21
-115.751
0
LINE
8
BLACK
6
CONTINUOUS
10
133.716
20
-115.751
11
133.371
21
-116.096
0
LINE
8
BLACK
6
CONTINUOUS
10
133.371
20
-116.096
11
133.355
21
-116.115
0
LINE
8
BLACK
6
CONTINUOUS
10
133.355
20
-116.115
11
133.279
21
-116.178
0
LINE
8
BLACK
6
CONTINUOUS
10
133.279
20
-116.178
11
133.192
21
-116.224
0
LINE
8
BLACK
6
CONTINUOUS
10
133.192
20
-116.224
11
133.098
21
-116.253
0
LINE
8
BLACK
6
CONTINUOUS
10
133.098
20
-116.253
11
133.025
21
-116.26
0
LINE
8
BLACK
6
CONTINUOUS
10
133.025
20
-116.26
11
133
21
-116.262
0
LINE
8
BLACK
6
CONTINUOUS
10
133
20
-116.262
11
132.975
21
-116.26
0
LINE
8
BLACK
6
CONTINUOUS
10
132.975
20
-116.26
11
132.785
21
-116.26
0
LINE
8
BLACK
6
CONTINUOUS
10
132.785
20
-116.26
11
132.76
21
-116.262
0
LINE
8
BLACK
6
CONTINUOUS
10
132.76
20
-116.262
11
132.662
21
-116.253
0
LINE
8
BLACK
6
CONTINUOUS
10
132.662
20
-116.253
11
132.568
21
-116.224
0
LINE
8
BLACK
6
CONTINUOUS
10
132.568
20
-116.224
11
132.481
21
-116.178
0
LINE
8
BLACK
6
CONTINUOUS
10
132.481
20
-116.178
11
132.405
21
-116.115
0
LINE
8
BLACK
6
CONTINUOUS
10
132.405
20
-116.115
11
132.389
21
-116.096
0
LINE
8
BLACK
6
CONTINUOUS
10
132.389
20
-116.096
11
131.664
21
-115.371
0
LINE
8
BLACK
6
CONTINUOUS
10
131.664
20
-115.371
11
131.645
21
-115.355
0
LINE
8
BLACK
6
CONTINUOUS
10
131.645
20
-115.355
11
131.629
21
-115.336
0
LINE
8
BLACK
6
CONTINUOUS
10
131.629
20
-115.336
11
130.664
21
-114.371
0
LINE
8
BLACK
6
CONTINUOUS
10
130.664
20
-114.371
11
130.645
21
-114.355
0
LINE
8
BLACK
6
CONTINUOUS
10
130.645
20
-114.355
11
130.582
21
-114.279
0
LINE
8
BLACK
6
CONTINUOUS
10
130.582
20
-114.279
11
130.536
21
-114.192
0
LINE
8
BLACK
6
CONTINUOUS
10
130.536
20
-114.192
11
130.507
21
-114.098
0
LINE
8
BLACK
6
CONTINUOUS
10
130.507
20
-114.098
11
130.5
21
-114.025
0
LINE
8
BLACK
6
CONTINUOUS
10
130.5
20
-114.025
11
130.498
21
-114
0
LINE
8
BLACK
6
CONTINUOUS
10
130.498
20
-114
11
130.5
21
-113.975
0
LINE
8
BLACK
6
CONTINUOUS
10
130.5
20
-113.975
11
130.5
21
-111.867
0
LINE
8
BLACK
6
CONTINUOUS
10
130.5
20
-111.867
11
130.442
21
-111.835
0
LINE
8
BLACK
6
CONTINUOUS
10
130.442
20
-111.835
11
130.289
21
-111.711
0
LINE
8
BLACK
6
CONTINUOUS
10
130.289
20
-111.711
11
130.165
21
-111.558
0
LINE
8
BLACK
6
CONTINUOUS
10
130.165
20
-111.558
11
130.072
21
-111.385
0
LINE
8
BLACK
6
CONTINUOUS
10
130.072
20
-111.385
11
130.014
21
-111.196
0
LINE
8
BLACK
6
CONTINUOUS
10
130.014
20
-111.196
11
130
21
-111.049
0
LINE
8
BLACK
6
CONTINUOUS
10
130
20
-111.049
11
130
21
-109.951
0
LINE
8
BLACK
6
CONTINUOUS
10
130
20
-109.951
11
130.014
21
-109.804
0
LINE
8
BLACK
6
CONTINUOUS
10
130.014
20
-109.804
11
130.072
21
-109.615
0
LINE
8
BLACK
6
CONTINUOUS
10
130.072
20
-109.615
11
130.165
21
-109.442
0
LINE
8
BLACK
6
CONTINUOUS
10
130.165
20
-109.442
11
130.289
21
-109.289
0
LINE
8
BLACK
6
CONTINUOUS
10
130.289
20
-109.289
11
130.442
21
-109.165
0
LINE
8
BLACK
6
CONTINUOUS
10
130.442
20
-109.165
11
130.615
21
-109.072
0
LINE
8
BLACK
6
CONTINUOUS
10
130.615
20
-109.072
11
130.804
21
-109.014
0
LINE
8
BLACK
6
CONTINUOUS
10
130.804
20
-109.014
11
131
21
-108.995
0
LINE
8
BLACK
6
CONTINUOUS
10
131
20
-108.995
11
131.196
21
-109.014
0
LINE
8
BLACK
6
CONTINUOUS
10
142.196
20
-114.014
11
142.385
21
-114.072
0
LINE
8
BLACK
6
CONTINUOUS
10
142.385
20
-114.072
11
142.558
21
-114.165
0
LINE
8
BLACK
6
CONTINUOUS
10
142.558
20
-114.165
11
142.711
21
-114.289
0
LINE
8
BLACK
6
CONTINUOUS
10
142.711
20
-114.289
11
142.835
21
-114.442
0
LINE
8
BLACK
6
CONTINUOUS
10
142.835
20
-114.442
11
142.928
21
-114.615
0
LINE
8
BLACK
6
CONTINUOUS
10
142.928
20
-114.615
11
142.986
21
-114.804
0
LINE
8
BLACK
6
CONTINUOUS
10
142.986
20
-114.804
11
143.005
21
-115
0
LINE
8
BLACK
6
CONTINUOUS
10
143.005
20
-115
11
142.986
21
-115.196
0
LINE
8
BLACK
6
CONTINUOUS
10
142.986
20
-115.196
11
142.928
21
-115.385
0
LINE
8
BLACK
6
CONTINUOUS
10
142.928
20
-115.385
11
142.835
21
-115.558
0
LINE
8
BLACK
6
CONTINUOUS
10
142.835
20
-115.558
11
142.711
21
-115.711
0
LINE
8
BLACK
6
CONTINUOUS
10
142.711
20
-115.711
11
142.558
21
-115.835
0
LINE
8
BLACK
6
CONTINUOUS
10
142.558
20
-115.835
11
142.385
21
-115.928
0
LINE
8
BLACK
6
CONTINUOUS
10
142.385
20
-115.928
11
142.196
21
-115.986
0
LINE
8
BLACK
6
CONTINUOUS
10
142.196
20
-115.986
11
142.049
21
-116
0
LINE
8
BLACK
6
CONTINUOUS
10
142.049
20
-116
11
139.951
21
-116
0
LINE
8
BLACK
6
CONTINUOUS
10
139.951
20
-116
11
139.804
21
-115.986
0
LINE
8
BLACK
6
CONTINUOUS
10
139.804
20
-115.986
11
139.615
21
-115.928
0
LINE
8
BLACK
6
CONTINUOUS
10
139.615
20
-115.928
11
139.442
21
-115.835
0
LINE
8
BLACK
6
CONTINUOUS
10
139.442
20
-115.835
11
139.289
21
-115.711
0
LINE
8
BLACK
6
CONTINUOUS
10
139.289
20
-115.711
11
139.165
21
-115.558
0
LINE
8
BLACK
6
CONTINUOUS
10
139.165
20
-115.558
11
139.133
21
-115.5
0
LINE
8
BLACK
6
CONTINUOUS
10
139.133
20
-115.5
11
139.025
21
-115.5
0
LINE
8
BLACK
6
CONTINUOUS
10
139.025
20
-115.5
11
139
21
-115.502
0
LINE
8
BLACK
6
CONTINUOUS
10
139
20
-115.502
11
138.902
21
-115.493
0
LINE
8
BLACK
6
CONTINUOUS
10
138.902
20
-115.493
11
138.808
21
-115.464
0
LINE
8
BLACK
6
CONTINUOUS
10
138.808
20
-115.464
11
138.721
21
-115.418
0
LINE
8
BLACK
6
CONTINUOUS
10
138.721
20
-115.418
11
138.645
21
-115.355
0
LINE
8
BLACK
6
CONTINUOUS
10
138.645
20
-115.355
11
138.582
21
-115.279
0
LINE
8
BLACK
6
CONTINUOUS
10
138.582
20
-115.279
11
138.536
21
-115.192
0
LINE
8
BLACK
6
CONTINUOUS
10
138.536
20
-115.192
11
138.507
21
-115.098
0
LINE
8
BLACK
6
CONTINUOUS
10
138.507
20
-115.098
11
138.498
21
-115
0
LINE
8
BLACK
6
CONTINUOUS
10
138.498
20
-115
11
138.5
21
-114.975
0
LINE
8
BLACK
6
CONTINUOUS
10
138.5
20
-114.975
11
138.5
21
-111.207
0
LINE
8
BLACK
6
CONTINUOUS
10
138.5
20
-111.207
11
137.664
21
-110.371
0
LINE
8
BLACK
6
CONTINUOUS
10
137.664
20
-110.371
11
137.645
21
-110.355
0
LINE
8
BLACK
6
CONTINUOUS
10
137.645
20
-110.355
11
137.582
21
-110.279
0
LINE
8
BLACK
6
CONTINUOUS
10
137.582
20
-110.279
11
137.536
21
-110.192
0
LINE
8
BLACK
6
CONTINUOUS
10
137.536
20
-110.192
11
137.507
21
-110.098
0
LINE
8
BLACK
6
CONTINUOUS
10
137.507
20
-110.098
11
137.5
21
-110.025
0
LINE
8
BLACK
6
CONTINUOUS
10
137.5
20
-110.025
11
137.498
21
-110
0
LINE
8
BLACK
6
CONTINUOUS
10
137.498
20
-110
11
137.5
21
-109.975
0
LINE
8
BLACK
6
CONTINUOUS
10
137.5
20
-109.975
11
137.5
21
-92.2071
0
LINE
8
BLACK
6
CONTINUOUS
10
137.5
20
-92.2071
11
135.664
21
-90.3709
0
LINE
8
BLACK
6
CONTINUOUS
10
135.664
20
-90.3709
11
135.664
21
-90.3709
0
LINE
8
BLACK
6
CONTINUOUS
10
135.664
20
-90.3709
11
135.259
21
-89.9664
0
LINE
8
BLACK
6
CONTINUOUS
10
135.259
20
-89.9664
11
135.196
21
-89.9855
0
LINE
8
BLACK
6
CONTINUOUS
10
135.196
20
-89.9855
11
135.049
21
-90
0
LINE
8
BLACK
6
CONTINUOUS
10
135.049
20
-90
11
133.951
21
-90
0
LINE
8
BLACK
6
CONTINUOUS
10
133.951
20
-90
11
133.804
21
-89.9855
0
LINE
8
BLACK
6
CONTINUOUS
10
133.804
20
-89.9855
11
133.615
21
-89.9283
0
LINE
8
BLACK
6
CONTINUOUS
10
133.615
20
-89.9283
11
133.442
21
-89.8355
0
LINE
8
BLACK
6
CONTINUOUS
10
133.442
20
-89.8355
11
133.289
21
-89.7105
0
LINE
8
BLACK
6
CONTINUOUS
10
133.289
20
-89.7105
11
133.165
21
-89.5583
0
LINE
8
BLACK
6
CONTINUOUS
10
133.165
20
-89.5583
11
133.072
21
-89.3845
0
LINE
8
BLACK
6
CONTINUOUS
10
133.072
20
-89.3845
11
133.014
21
-89.196
0
LINE
8
BLACK
6
CONTINUOUS
10
133.014
20
-89.196
11
132.995
21
-89
0
LINE
8
BLACK
6
CONTINUOUS
10
132.995
20
-89
11
133.014
21
-88.804
0
LINE
8
BLACK
6
CONTINUOUS
10
133.014
20
-88.804
11
133.072
21
-88.6155
0
LINE
8
BLACK
6
CONTINUOUS
10
133.072
20
-88.6155
11
133.165
21
-88.4417
0
LINE
8
BLACK
6
CONTINUOUS
10
133.165
20
-88.4417
11
133.289
21
-88.2895
0
LINE
8
BLACK
6
CONTINUOUS
10
133.289
20
-88.2895
11
133.442
21
-88.1645
0
LINE
8
BLACK
6
CONTINUOUS
10
133.442
20
-88.1645
11
133.615
21
-88.0717
0
LINE
8
BLACK
6
CONTINUOUS
10
133.615
20
-88.0717
11
133.804
21
-88.0145
0
LINE
8
BLACK
6
CONTINUOUS
10
133.804
20
-88.0145
11
133.951
21
-88
0
LINE
8
BLACK
6
CONTINUOUS
10
133.951
20
-88
11
135.049
21
-88
0
LINE
8
BLACK
6
CONTINUOUS
10
135.049
20
-88
11
135.196
21
-88.0145
0
LINE
8
BLACK
6
CONTINUOUS
10
135.196
20
-88.0145
11
135.385
21
-88.0717
0
LINE
8
BLACK
6
CONTINUOUS
10
135.385
20
-88.0717
11
135.558
21
-88.1645
0
LINE
8
BLACK
6
CONTINUOUS
10
135.558
20
-88.1645
11
135.711
21
-88.2895
0
LINE
8
BLACK
6
CONTINUOUS
10
135.711
20
-88.2895
11
135.835
21
-88.4417
0
LINE
8
BLACK
6
CONTINUOUS
10
135.835
20
-88.4417
11
135.928
21
-88.6155
0
LINE
8
BLACK
6
CONTINUOUS
10
135.928
20
-88.6155
11
135.986
21
-88.804
0
LINE
8
BLACK
6
CONTINUOUS
10
135.986
20
-88.804
11
136.005
21
-89
0
LINE
8
BLACK
6
CONTINUOUS
10
136.005
20
-89
11
135.986
21
-89.196
0
LINE
8
BLACK
6
CONTINUOUS
10
135.986
20
-89.196
11
135.966
21
-89.2592
0
LINE
8
BLACK
6
CONTINUOUS
10
135.966
20
-89.2592
11
136.371
21
-89.6638
0
LINE
8
BLACK
6
CONTINUOUS
10
136.371
20
-89.6638
11
136.371
21
-89.6638
0
LINE
8
BLACK
6
CONTINUOUS
10
136.371
20
-89.6638
11
138.336
21
-91.6291
0
LINE
8
BLACK
6
CONTINUOUS
10
138.336
20
-91.6291
11
138.355
21
-91.6447
0
LINE
8
BLACK
6
CONTINUOUS
10
138.355
20
-91.6447
11
138.418
21
-91.7209
0
LINE
8
BLACK
6
CONTINUOUS
10
138.418
20
-91.7209
11
138.464
21
-91.8077
0
LINE
8
BLACK
6
CONTINUOUS
10
138.464
20
-91.8077
11
138.493
21
-91.902
0
LINE
8
BLACK
6
CONTINUOUS
10
138.493
20
-91.902
11
138.497
21
-91.944
0
LINE
8
BLACK
6
CONTINUOUS
10
138.497
20
-91.944
11
138.502
21
-92
0
LINE
8
BLACK
6
CONTINUOUS
10
138.502
20
-92
11
138.5
21
-92.0246
0
LINE
8
BLACK
6
CONTINUOUS
10
138.5
20
-92.0246
11
138.5
21
-109.793
0
LINE
8
BLACK
6
CONTINUOUS
10
138.5
20
-109.793
11
139.336
21
-110.629
0
LINE
8
BLACK
6
CONTINUOUS
10
139.336
20
-110.629
11
139.355
21
-110.645
0
LINE
8
BLACK
6
CONTINUOUS
10
139.355
20
-110.645
11
139.418
21
-110.721
0
LINE
8
BLACK
6
CONTINUOUS
10
139.418
20
-110.721
11
139.464
21
-110.808
0
LINE
8
BLACK
6
CONTINUOUS
10
139.464
20
-110.808
11
139.493
21
-110.902
0
LINE
8
BLACK
6
CONTINUOUS
10
139.493
20
-110.902
11
139.502
21
-111
0
LINE
8
BLACK
6
CONTINUOUS
10
139.502
20
-111
11
139.5
21
-111.025
0
LINE
8
BLACK
6
CONTINUOUS
10
139.5
20
-111.025
11
139.5
21
-114.133
0
LINE
8
BLACK
6
CONTINUOUS
10
139.5
20
-114.133
11
139.615
21
-114.072
0
LINE
8
BLACK
6
CONTINUOUS
10
139.615
20
-114.072
11
139.804
21
-114.014
0
LINE
8
BLACK
6
CONTINUOUS
10
139.804
20
-114.014
11
139.951
21
-114
0
LINE
8
BLACK
6
CONTINUOUS
10
139.951
20
-114
11
142.049
21
-114
0
LINE
8
BLACK
6
CONTINUOUS
10
142.049
20
-114
11
142.196
21
-114.014
0
LINE
8
BLACK
6
CONTINUOUS
10
141.656
20
-111.474
11
141.845
21
-111.532
0
LINE
8
BLACK
6
CONTINUOUS
10
141.845
20
-111.532
11
142.018
21
-111.625
0
LINE
8
BLACK
6
CONTINUOUS
10
142.018
20
-111.625
11
142.171
21
-111.749
0
LINE
8
BLACK
6
CONTINUOUS
10
142.171
20
-111.749
11
142.295
21
-111.902
0
LINE
8
BLACK
6
CONTINUOUS
10
142.295
20
-111.902
11
142.388
21
-112.075
0
LINE
8
BLACK
6
CONTINUOUS
10
142.388
20
-112.075
11
142.446
21
-112.264
0
LINE
8
BLACK
6
CONTINUOUS
10
142.446
20
-112.264
11
142.465
21
-112.46
0
LINE
8
BLACK
6
CONTINUOUS
10
142.465
20
-112.46
11
142.446
21
-112.656
0
LINE
8
BLACK
6
CONTINUOUS
10
142.446
20
-112.656
11
142.388
21
-112.845
0
LINE
8
BLACK
6
CONTINUOUS
10
142.388
20
-112.845
11
142.295
21
-113.018
0
LINE
8
BLACK
6
CONTINUOUS
10
142.295
20
-113.018
11
142.171
21
-113.171
0
LINE
8
BLACK
6
CONTINUOUS
10
142.171
20
-113.171
11
142.018
21
-113.295
0
LINE
8
BLACK
6
CONTINUOUS
10
142.018
20
-113.295
11
141.845
21
-113.388
0
LINE
8
BLACK
6
CONTINUOUS
10
141.845
20
-113.388
11
141.656
21
-113.446
0
LINE
8
BLACK
6
CONTINUOUS
10
141.656
20
-113.446
11
141.509
21
-113.46
0
LINE
8
BLACK
6
CONTINUOUS
10
141.509
20
-113.46
11
140.951
21
-113.46
0
LINE
8
BLACK
6
CONTINUOUS
10
140.951
20
-113.46
11
140.804
21
-113.446
0
LINE
8
BLACK
6
CONTINUOUS
10
140.804
20
-113.446
11
140.615
21
-113.388
0
LINE
8
BLACK
6
CONTINUOUS
10
140.615
20
-113.388
11
140.442
21
-113.295
0
LINE
8
BLACK
6
CONTINUOUS
10
140.442
20
-113.295
11
140.289
21
-113.171
0
LINE
8
BLACK
6
CONTINUOUS
10
140.289
20
-113.171
11
140.165
21
-113.018
0
LINE
8
BLACK
6
CONTINUOUS
10
140.165
20
-113.018
11
140.072
21
-112.845
0
LINE
8
BLACK
6
CONTINUOUS
10
140.072
20
-112.845
11
140.014
21
-112.656
0
LINE
8
BLACK
6
CONTINUOUS
10
140.014
20
-112.656
11
139.995
21
-112.46
0
LINE
8
BLACK
6
CONTINUOUS
10
139.995
20
-112.46
11
140.014
21
-112.264
0
LINE
8
BLACK
6
CONTINUOUS
10
140.014
20
-112.264
11
140.072
21
-112.075
0
LINE
8
BLACK
6
CONTINUOUS
10
140.072
20
-112.075
11
140.165
21
-111.902
0
LINE
8
BLACK
6
CONTINUOUS
10
140.165
20
-111.902
11
140.289
21
-111.749
0
LINE
8
BLACK
6
CONTINUOUS
10
140.289
20
-111.749
11
140.442
21
-111.625
0
LINE
8
BLACK
6
CONTINUOUS
10
140.442
20
-111.625
11
140.615
21
-111.532
0
LINE
8
BLACK
6
CONTINUOUS
10
140.615
20
-111.532
11
140.804
21
-111.474
0
LINE
8
BLACK
6
CONTINUOUS
10
140.804
20
-111.474
11
140.951
21
-111.46
0
LINE
8
BLACK
6
CONTINUOUS
10
140.951
20
-111.46
11
141.509
21
-111.46
0
LINE
8
BLACK
6
CONTINUOUS
10
141.509
20
-111.46
11
141.656
21
-111.474
0
LINE
8
BLACK
6
CONTINUOUS
10
142.116
20
-108.934
11
142.305
21
-108.992
0
LINE
8
BLACK
6
CONTINUOUS
10
142.305
20
-108.992
11
142.478
21
-109.085
0
LINE
8
BLACK
6
CONTINUOUS
10
142.478
20
-109.085
11
142.631
21
-109.209
0
LINE
8
BLACK
6
CONTINUOUS
10
142.631
20
-109.209
11
142.755
21
-109.362
0
LINE
8
BLACK
6
CONTINUOUS
10
142.755
20
-109.362
11
142.848
21
-109.535
0
LINE
8
BLACK
6
CONTINUOUS
10
142.848
20
-109.535
11
142.906
21
-109.724
0
LINE
8
BLACK
6
CONTINUOUS
10
142.906
20
-109.724
11
142.925
21
-109.92
0
LINE
8
BLACK
6
CONTINUOUS
10
142.925
20
-109.92
11
142.906
21
-110.116
0
LINE
8
BLACK
6
CONTINUOUS
10
142.906
20
-110.116
11
142.848
21
-110.305
0
LINE
8
BLACK
6
CONTINUOUS
10
142.848
20
-110.305
11
142.755
21
-110.478
0
LINE
8
BLACK
6
CONTINUOUS
10
142.755
20
-110.478
11
142.631
21
-110.631
0
LINE
8
BLACK
6
CONTINUOUS
10
142.631
20
-110.631
11
142.478
21
-110.755
0
LINE
8
BLACK
6
CONTINUOUS
10
142.478
20
-110.755
11
142.305
21
-110.848
0
LINE
8
BLACK
6
CONTINUOUS
10
142.305
20
-110.848
11
142.116
21
-110.906
0
LINE
8
BLACK
6
CONTINUOUS
10
142.116
20
-110.906
11
141.969
21
-110.92
0
LINE
8
BLACK
6
CONTINUOUS
10
141.969
20
-110.92
11
140.951
21
-110.92
0
LINE
8
BLACK
6
CONTINUOUS
10
140.951
20
-110.92
11
140.804
21
-110.906
0
LINE
8
BLACK
6
CONTINUOUS
10
140.804
20
-110.906
11
140.615
21
-110.848
0
LINE
8
BLACK
6
CONTINUOUS
10
140.615
20
-110.848
11
140.442
21
-110.755
0
LINE
8
BLACK
6
CONTINUOUS
10
140.442
20
-110.755
11
140.289
21
-110.631
0
LINE
8
BLACK
6
CONTINUOUS
10
140.289
20
-110.631
11
140.165
21
-110.478
0
LINE
8
BLACK
6
CONTINUOUS
10
140.165
20
-110.478
11
140.072
21
-110.305
0
LINE
8
BLACK
6
CONTINUOUS
10
140.072
20
-110.305
11
140.014
21
-110.116
0
LINE
8
BLACK
6
CONTINUOUS
10
140.014
20
-110.116
11
139.995
21
-109.92
0
LINE
8
BLACK
6
CONTINUOUS
10
139.995
20
-109.92
11
140.014
21
-109.724
0
LINE
8
BLACK
6
CONTINUOUS
10
140.014
20
-109.724
11
140.072
21
-109.535
0
LINE
8
BLACK
6
CONTINUOUS
10
140.072
20
-109.535
11
140.165
21
-109.362
0
LINE
8
BLACK
6
CONTINUOUS
10
140.165
20
-109.362
11
140.289
21
-109.209
0
LINE
8
BLACK
6
CONTINUOUS
10
140.289
20
-109.209
11
140.442
21
-109.085
0
LINE
8
BLACK
6
CONTINUOUS
10
140.442
20
-109.085
11
140.615
21
-108.992
0
LINE
8
BLACK
6
CONTINUOUS
10
140.615
20
-108.992
11
140.804
21
-108.934
0
LINE
8
BLACK
6
CONTINUOUS
10
140.804
20
-108.934
11
140.951
21
-108.92
0
LINE
8
BLACK
6
CONTINUOUS
10
140.951
20
-108.92
11
141.969
21
-108.92
0
LINE
8
BLACK
6
CONTINUOUS
10
141.969
20
-108.92
11
142.116
21
-108.934
0
LINE
8
BLACK
6
CONTINUOUS
10
134.847
20
-106.394
11
135.036
21
-106.452
0
LINE
8
BLACK
6
CONTINUOUS
10
135.036
20
-106.452
11
135.21
21
-106.545
0
LINE
8
BLACK
6
CONTINUOUS
10
135.21
20
-106.545
11
135.362
21
-106.669
0
LINE
8
BLACK
6
CONTINUOUS
10
135.362
20
-106.669
11
135.487
21
-106.822
0
LINE
8
BLACK
6
CONTINUOUS
10
135.487
20
-106.822
11
135.58
21
-106.995
0
LINE
8
BLACK
6
CONTINUOUS
10
135.58
20
-106.995
11
135.637
21
-107.184
0
LINE
8
BLACK
6
CONTINUOUS
10
135.637
20
-107.184
11
135.656
21
-107.38
0
LINE
8
BLACK
6
CONTINUOUS
10
135.656
20
-107.38
11
135.637
21
-107.576
0
LINE
8
BLACK
6
CONTINUOUS
10
135.637
20
-107.576
11
135.58
21
-107.765
0
LINE
8
BLACK
6
CONTINUOUS
10
135.58
20
-107.765
11
135.487
21
-107.938
0
LINE
8
BLACK
6
CONTINUOUS
10
135.487
20
-107.938
11
135.362
21
-108.091
0
LINE
8
BLACK
6
CONTINUOUS
10
135.362
20
-108.091
11
135.21
21
-108.215
0
LINE
8
BLACK
6
CONTINUOUS
10
135.21
20
-108.215
11
135.036
21
-108.308
0
LINE
8
BLACK
6
CONTINUOUS
10
135.036
20
-108.308
11
134.847
21
-108.366
0
LINE
8
BLACK
6
CONTINUOUS
10
134.847
20
-108.366
11
134.7
21
-108.38
0
LINE
8
BLACK
6
CONTINUOUS
10
134.7
20
-108.38
11
132.571
21
-108.38
0
LINE
8
BLACK
6
CONTINUOUS
10
132.571
20
-108.38
11
132.424
21
-108.366
0
LINE
8
BLACK
6
CONTINUOUS
10
132.424
20
-108.366
11
132.235
21
-108.308
0
LINE
8
BLACK
6
CONTINUOUS
10
132.235
20
-108.308
11
132.062
21
-108.215
0
LINE
8
BLACK
6
CONTINUOUS
10
132.062
20
-108.215
11
131.909
21
-108.091
0
LINE
8
BLACK
6
CONTINUOUS
10
131.909
20
-108.091
11
131.785
21
-107.938
0
LINE
8
BLACK
6
CONTINUOUS
10
131.785
20
-107.938
11
131.753
21
-107.88
0
LINE
8
BLACK
6
CONTINUOUS
10
131.753
20
-107.88
11
130.405
21
-107.88
0
LINE
8
BLACK
6
CONTINUOUS
10
130.405
20
-107.88
11
130.38
21
-107.882
0
LINE
8
BLACK
6
CONTINUOUS
10
130.38
20
-107.882
11
130.282
21
-107.873
0
LINE
8
BLACK
6
CONTINUOUS
10
130.282
20
-107.873
11
130.188
21
-107.844
0
LINE
8
BLACK
6
CONTINUOUS
10
130.188
20
-107.844
11
130.101
21
-107.798
0
LINE
8
BLACK
6
CONTINUOUS
10
130.101
20
-107.798
11
130.025
21
-107.735
0
LINE
8
BLACK
6
CONTINUOUS
10
130.025
20
-107.735
11
130.009
21
-107.716
0
LINE
8
BLACK
6
CONTINUOUS
10
130.009
20
-107.716
11
128.664
21
-106.371
0
LINE
8
BLACK
6
CONTINUOUS
10
128.664
20
-106.371
11
128.645
21
-106.355
0
LINE
8
BLACK
6
CONTINUOUS
10
128.645
20
-106.355
11
128.582
21
-106.279
0
LINE
8
BLACK
6
CONTINUOUS
10
128.582
20
-106.279
11
128.536
21
-106.192
0
LINE
8
BLACK
6
CONTINUOUS
10
128.536
20
-106.192
11
128.507
21
-106.098
0
LINE
8
BLACK
6
CONTINUOUS
10
128.507
20
-106.098
11
128.498
21
-106
0
LINE
8
BLACK
6
CONTINUOUS
10
128.498
20
-106
11
128.5
21
-105.975
0
LINE
8
BLACK
6
CONTINUOUS
10
128.5
20
-105.975
11
128.5
21
-85.0246
0
LINE
8
BLACK
6
CONTINUOUS
10
128.5
20
-85.0246
11
128.498
21
-85
0
LINE
8
BLACK
6
CONTINUOUS
10
128.498
20
-85
11
128.507
21
-84.902
0
LINE
8
BLACK
6
CONTINUOUS
10
128.507
20
-84.902
11
128.533
21
-84.8173
0
LINE
8
BLACK
6
CONTINUOUS
10
128.533
20
-84.8173
11
128.536
21
-84.8077
0
LINE
8
BLACK
6
CONTINUOUS
10
128.536
20
-84.8077
11
128.582
21
-84.7209
0
LINE
8
BLACK
6
CONTINUOUS
10
128.582
20
-84.7209
11
128.645
21
-84.6447
0
LINE
8
BLACK
6
CONTINUOUS
10
128.645
20
-84.6447
11
128.664
21
-84.6291
0
LINE
8
BLACK
6
CONTINUOUS
10
128.664
20
-84.6291
11
129.629
21
-83.6638
0
LINE
8
BLACK
6
CONTINUOUS
10
129.629
20
-83.6638
11
129.645
21
-83.6447
0
LINE
8
BLACK
6
CONTINUOUS
10
129.645
20
-83.6447
11
129.721
21
-83.5823
0
LINE
8
BLACK
6
CONTINUOUS
10
129.721
20
-83.5823
11
129.808
21
-83.5358
0
LINE
8
BLACK
6
CONTINUOUS
10
129.808
20
-83.5358
11
129.902
21
-83.5072
0
LINE
8
BLACK
6
CONTINUOUS
10
129.902
20
-83.5072
11
129.975
21
-83.5
0
LINE
8
BLACK
6
CONTINUOUS
10
129.975
20
-83.5
11
130
21
-83.4976
0
LINE
8
BLACK
6
CONTINUOUS
10
130
20
-83.4976
11
130.025
21
-83.5
0
LINE
8
BLACK
6
CONTINUOUS
10
130.025
20
-83.5
11
130.133
21
-83.5
0
LINE
8
BLACK
6
CONTINUOUS
10
130.133
20
-83.5
11
130.165
21
-83.4417
0
LINE
8
BLACK
6
CONTINUOUS
10
130.165
20
-83.4417
11
130.289
21
-83.2895
0
LINE
8
BLACK
6
CONTINUOUS
10
130.289
20
-83.2895
11
130.442
21
-83.1645
0
LINE
8
BLACK
6
CONTINUOUS
10
130.442
20
-83.1645
11
130.615
21
-83.0717
0
LINE
8
BLACK
6
CONTINUOUS
10
130.615
20
-83.0717
11
130.804
21
-83.0145
0
LINE
8
BLACK
6
CONTINUOUS
10
130.804
20
-83.0145
11
130.951
21
-83
0
LINE
8
BLACK
6
CONTINUOUS
10
130.951
20
-83
11
132.509
21
-83
0
LINE
8
BLACK
6
CONTINUOUS
10
132.509
20
-83
11
132.656
21
-83.0145
0
LINE
8
BLACK
6
CONTINUOUS
10
132.656
20
-83.0145
11
132.845
21
-83.0717
0
LINE
8
BLACK
6
CONTINUOUS
10
132.845
20
-83.0717
11
132.991
21
-83.15
0
LINE
8
BLACK
6
CONTINUOUS
10
132.991
20
-83.15
11
133.31
21
-83.15
0
LINE
8
BLACK
6
CONTINUOUS
10
133.31
20
-83.15
11
133.31
21
-83.4689
0
LINE
8
BLACK
6
CONTINUOUS
10
133.31
20
-83.4689
11
133.388
21
-83.6155
0
LINE
8
BLACK
6
CONTINUOUS
10
133.388
20
-83.6155
11
133.446
21
-83.804
0
LINE
8
BLACK
6
CONTINUOUS
10
133.446
20
-83.804
11
133.465
21
-84
0
LINE
8
BLACK
6
CONTINUOUS
10
133.465
20
-84
11
133.446
21
-84.196
0
LINE
8
BLACK
6
CONTINUOUS
10
133.446
20
-84.196
11
133.388
21
-84.3845
0
LINE
8
BLACK
6
CONTINUOUS
10
133.388
20
-84.3845
11
133.31
21
-84.5311
0
LINE
8
BLACK
6
CONTINUOUS
10
133.31
20
-84.5311
11
133.31
21
-84.85
0
LINE
8
BLACK
6
CONTINUOUS
10
133.31
20
-84.85
11
132.991
21
-84.85
0
LINE
8
BLACK
6
CONTINUOUS
10
132.991
20
-84.85
11
132.845
21
-84.9283
0
LINE
8
BLACK
6
CONTINUOUS
10
132.845
20
-84.9283
11
132.656
21
-84.9855
0
LINE
8
BLACK
6
CONTINUOUS
10
132.656
20
-84.9855
11
132.509
21
-85
0
LINE
8
BLACK
6
CONTINUOUS
10
132.509
20
-85
11
130.951
21
-85
0
LINE
8
BLACK
6
CONTINUOUS
10
130.951
20
-85
11
130.804
21
-84.9855
0
LINE
8
BLACK
6
CONTINUOUS
10
130.804
20
-84.9855
11
130.615
21
-84.9283
0
LINE
8
BLACK
6
CONTINUOUS
10
130.615
20
-84.9283
11
130.442
21
-84.8355
0
LINE
8
BLACK
6
CONTINUOUS
10
130.442
20
-84.8355
11
130.289
21
-84.7105
0
LINE
8
BLACK
6
CONTINUOUS
10
130.289
20
-84.7105
11
130.165
21
-84.5583
0
LINE
8
BLACK
6
CONTINUOUS
10
130.165
20
-84.5583
11
130.159
21
-84.5481
0
LINE
8
BLACK
6
CONTINUOUS
10
130.159
20
-84.5481
11
129.5
21
-85.2071
0
LINE
8
BLACK
6
CONTINUOUS
10
129.5
20
-85.2071
11
129.5
21
-105.793
0
LINE
8
BLACK
6
CONTINUOUS
10
129.5
20
-105.793
11
130.587
21
-106.88
0
LINE
8
BLACK
6
CONTINUOUS
10
130.587
20
-106.88
11
131.753
21
-106.88
0
LINE
8
BLACK
6
CONTINUOUS
10
131.753
20
-106.88
11
131.785
21
-106.822
0
LINE
8
BLACK
6
CONTINUOUS
10
131.785
20
-106.822
11
131.909
21
-106.669
0
LINE
8
BLACK
6
CONTINUOUS
10
131.909
20
-106.669
11
132.062
21
-106.545
0
LINE
8
BLACK
6
CONTINUOUS
10
132.062
20
-106.545
11
132.235
21
-106.452
0
LINE
8
BLACK
6
CONTINUOUS
10
132.235
20
-106.452
11
132.424
21
-106.394
0
LINE
8
BLACK
6
CONTINUOUS
10
132.424
20
-106.394
11
132.571
21
-106.38
0
LINE
8
BLACK
6
CONTINUOUS
10
132.571
20
-106.38
11
134.7
21
-106.38
0
LINE
8
BLACK
6
CONTINUOUS
10
134.7
20
-106.38
11
134.847
21
-106.394
0
LINE
8
BLACK
6
CONTINUOUS
10
142.816
20
-106.394
11
143.005
21
-106.452
0
LINE
8
BLACK
6
CONTINUOUS
10
143.005
20
-106.452
11
143.178
21
-106.545
0
LINE
8
BLACK
6
CONTINUOUS
10
143.178
20
-106.545
11
143.331
21
-106.669
0
LINE
8
BLACK
6
CONTINUOUS
10
143.331
20
-106.669
11
143.455
21
-106.822
0
LINE
8
BLACK
6
CONTINUOUS
10
143.455
20
-106.822
11
143.548
21
-106.995
0
LINE
8
BLACK
6
CONTINUOUS
10
143.548
20
-106.995
11
143.606
21
-107.184
0
LINE
8
BLACK
6
CONTINUOUS
10
143.606
20
-107.184
11
143.625
21
-107.38
0
LINE
8
BLACK
6
CONTINUOUS
10
143.625
20
-107.38
11
143.606
21
-107.576
0
LINE
8
BLACK
6
CONTINUOUS
10
143.606
20
-107.576
11
143.548
21
-107.765
0
LINE
8
BLACK
6
CONTINUOUS
10
143.548
20
-107.765
11
143.455
21
-107.938
0
LINE
8
BLACK
6
CONTINUOUS
10
143.455
20
-107.938
11
143.331
21
-108.091
0
LINE
8
BLACK
6
CONTINUOUS
10
143.331
20
-108.091
11
143.178
21
-108.215
0
LINE
8
BLACK
6
CONTINUOUS
10
143.178
20
-108.215
11
143.005
21
-108.308
0
LINE
8
BLACK
6
CONTINUOUS
10
143.005
20
-108.308
11
142.816
21
-108.366
0
LINE
8
BLACK
6
CONTINUOUS
10
142.816
20
-108.366
11
142.669
21
-108.38
0
LINE
8
BLACK
6
CONTINUOUS
10
142.669
20
-108.38
11
140.951
21
-108.38
0
LINE
8
BLACK
6
CONTINUOUS
10
140.951
20
-108.38
11
140.804
21
-108.366
0
LINE
8
BLACK
6
CONTINUOUS
10
140.804
20
-108.366
11
140.615
21
-108.308
0
LINE
8
BLACK
6
CONTINUOUS
10
140.615
20
-108.308
11
140.442
21
-108.215
0
LINE
8
BLACK
6
CONTINUOUS
10
140.442
20
-108.215
11
140.289
21
-108.091
0
LINE
8
BLACK
6
CONTINUOUS
10
140.289
20
-108.091
11
140.165
21
-107.938
0
LINE
8
BLACK
6
CONTINUOUS
10
140.165
20
-107.938
11
140.072
21
-107.765
0
LINE
8
BLACK
6
CONTINUOUS
10
140.072
20
-107.765
11
140.014
21
-107.576
0
LINE
8
BLACK
6
CONTINUOUS
10
140.014
20
-107.576
11
139.995
21
-107.38
0
LINE
8
BLACK
6
CONTINUOUS
10
139.995
20
-107.38
11
140.014
21
-107.184
0
LINE
8
BLACK
6
CONTINUOUS
10
140.014
20
-107.184
11
140.072
21
-106.995
0
LINE
8
BLACK
6
CONTINUOUS
10
140.072
20
-106.995
11
140.165
21
-106.822
0
LINE
8
BLACK
6
CONTINUOUS
10
140.165
20
-106.822
11
140.289
21
-106.669
0
LINE
8
BLACK
6
CONTINUOUS
10
140.289
20
-106.669
11
140.442
21
-106.545
0
LINE
8
BLACK
6
CONTINUOUS
10
140.442
20
-106.545
11
140.615
21
-106.452
0
LINE
8
BLACK
6
CONTINUOUS
10
140.615
20
-106.452
11
140.804
21
-106.394
0
LINE
8
BLACK
6
CONTINUOUS
10
140.804
20
-106.394
11
140.951
21
-106.38
0
LINE
8
BLACK
6
CONTINUOUS
10
140.951
20
-106.38
11
142.669
21
-106.38
0
LINE
8
BLACK
6
CONTINUOUS
10
142.669
20
-106.38
11
142.816
21
-106.394
0
LINE
8
BLACK
6
CONTINUOUS
10
132.656
20
-85.5545
11
132.845
21
-85.6117
0
LINE
8
BLACK
6
CONTINUOUS
10
132.845
20
-85.6117
11
133.018
21
-85.7045
0
LINE
8
BLACK
6
CONTINUOUS
10
133.018
20
-85.7045
11
133.171
21
-85.8295
0
LINE
8
BLACK
6
CONTINUOUS
10
133.171
20
-85.8295
11
133.295
21
-85.9817
0
LINE
8
BLACK
6
CONTINUOUS
10
133.295
20
-85.9817
11
133.388
21
-86.1555
0
LINE
8
BLACK
6
CONTINUOUS
10
133.388
20
-86.1555
11
133.446
21
-86.344
0
LINE
8
BLACK
6
CONTINUOUS
10
133.446
20
-86.344
11
133.465
21
-86.54
0
LINE
8
BLACK
6
CONTINUOUS
10
133.465
20
-86.54
11
133.446
21
-86.736
0
LINE
8
BLACK
6
CONTINUOUS
10
133.446
20
-86.736
11
133.388
21
-86.9245
0
LINE
8
BLACK
6
CONTINUOUS
10
133.388
20
-86.9245
11
133.295
21
-87.0983
0
LINE
8
BLACK
6
CONTINUOUS
10
133.295
20
-87.0983
11
133.202
21
-87.2124
0
LINE
8
BLACK
6
CONTINUOUS
10
133.202
20
-87.2124
11
132.172
21
-88.2418
0
LINE
8
BLACK
6
CONTINUOUS
10
132.172
20
-88.2418
11
132.058
21
-88.3355
0
LINE
8
BLACK
6
CONTINUOUS
10
132.058
20
-88.3355
11
131.885
21
-88.4283
0
LINE
8
BLACK
6
CONTINUOUS
10
131.885
20
-88.4283
11
131.696
21
-88.4855
0
LINE
8
BLACK
6
CONTINUOUS
10
131.696
20
-88.4855
11
131.5
21
-88.5048
0
LINE
8
BLACK
6
CONTINUOUS
10
131.5
20
-88.5048
11
131.5
21
-103.133
0
LINE
8
BLACK
6
CONTINUOUS
10
131.5
20
-103.133
11
131.558
21
-103.165
0
LINE
8
BLACK
6
CONTINUOUS
10
131.558
20
-103.165
11
131.711
21
-103.289
0
LINE
8
BLACK
6
CONTINUOUS
10
131.711
20
-103.289
11
131.835
21
-103.442
0
LINE
8
BLACK
6
CONTINUOUS
10
131.835
20
-103.442
11
131.928
21
-103.615
0
LINE
8
BLACK
6
CONTINUOUS
10
131.928
20
-103.615
11
131.986
21
-103.804
0
LINE
8
BLACK
6
CONTINUOUS
10
131.986
20
-103.804
11
132
21
-103.951
0
LINE
8
BLACK
6
CONTINUOUS
10
132
20
-103.951
11
132
21
-105.049
0
LINE
8
BLACK
6
CONTINUOUS
10
132
20
-105.049
11
131.986
21
-105.196
0
LINE
8
BLACK
6
CONTINUOUS
10
131.986
20
-105.196
11
131.928
21
-105.385
0
LINE
8
BLACK
6
CONTINUOUS
10
131.928
20
-105.385
11
131.835
21
-105.558
0
LINE
8
BLACK
6
CONTINUOUS
10
131.835
20
-105.558
11
131.711
21
-105.711
0
LINE
8
BLACK
6
CONTINUOUS
10
131.711
20
-105.711
11
131.558
21
-105.835
0
LINE
8
BLACK
6
CONTINUOUS
10
131.558
20
-105.835
11
131.385
21
-105.928
0
LINE
8
BLACK
6
CONTINUOUS
10
131.385
20
-105.928
11
131.196
21
-105.986
0
LINE
8
BLACK
6
CONTINUOUS
10
131.196
20
-105.986
11
131
21
-106.005
0
LINE
8
BLACK
6
CONTINUOUS
10
131
20
-106.005
11
130.804
21
-105.986
0
LINE
8
BLACK
6
CONTINUOUS
10
130.804
20
-105.986
11
130.615
21
-105.928
0
LINE
8
BLACK
6
CONTINUOUS
10
130.615
20
-105.928
11
130.442
21
-105.835
0
LINE
8
BLACK
6
CONTINUOUS
10
130.442
20
-105.835
11
130.289
21
-105.711
0
LINE
8
BLACK
6
CONTINUOUS
10
130.289
20
-105.711
11
130.165
21
-105.558
0
LINE
8
BLACK
6
CONTINUOUS
10
130.165
20
-105.558
11
130.072
21
-105.385
0
LINE
8
BLACK
6
CONTINUOUS
10
130.072
20
-105.385
11
130.014
21
-105.196
0
LINE
8
BLACK
6
CONTINUOUS
10
130.014
20
-105.196
11
130
21
-105.049
0
LINE
8
BLACK
6
CONTINUOUS
10
130
20
-105.049
11
130
21
-103.951
0
LINE
8
BLACK
6
CONTINUOUS
10
130
20
-103.951
11
130.014
21
-103.804
0
LINE
8
BLACK
6
CONTINUOUS
10
130.014
20
-103.804
11
130.072
21
-103.615
0
LINE
8
BLACK
6
CONTINUOUS
10
130.072
20
-103.615
11
130.165
21
-103.442
0
LINE
8
BLACK
6
CONTINUOUS
10
130.165
20
-103.442
11
130.289
21
-103.289
0
LINE
8
BLACK
6
CONTINUOUS
10
130.289
20
-103.289
11
130.442
21
-103.165
0
LINE
8
BLACK
6
CONTINUOUS
10
130.442
20
-103.165
11
130.5
21
-103.133
0
LINE
8
BLACK
6
CONTINUOUS
10
130.5
20
-103.133
11
130.5
21
-88.0246
0
LINE
8
BLACK
6
CONTINUOUS
10
130.5
20
-88.0246
11
130.498
21
-88
0
LINE
8
BLACK
6
CONTINUOUS
10
130.498
20
-88
11
130.507
21
-87.902
0
LINE
8
BLACK
6
CONTINUOUS
10
130.507
20
-87.902
11
130.527
21
-87.8362
0
LINE
8
BLACK
6
CONTINUOUS
10
130.527
20
-87.8362
11
130.536
21
-87.8077
0
LINE
8
BLACK
6
CONTINUOUS
10
130.536
20
-87.8077
11
130.544
21
-87.7928
0
LINE
8
BLACK
6
CONTINUOUS
10
130.544
20
-87.7928
11
130.514
21
-87.696
0
LINE
8
BLACK
6
CONTINUOUS
10
130.514
20
-87.696
11
130.495
21
-87.5
0
LINE
8
BLACK
6
CONTINUOUS
10
130.495
20
-87.5
11
130.514
21
-87.304
0
LINE
8
BLACK
6
CONTINUOUS
10
130.514
20
-87.304
11
130.572
21
-87.1155
0
LINE
8
BLACK
6
CONTINUOUS
10
130.572
20
-87.1155
11
130.665
21
-86.9417
0
LINE
8
BLACK
6
CONTINUOUS
10
130.665
20
-86.9417
11
130.758
21
-86.8276
0
LINE
8
BLACK
6
CONTINUOUS
10
130.758
20
-86.8276
11
131.788
21
-85.7982
0
LINE
8
BLACK
6
CONTINUOUS
10
131.788
20
-85.7982
11
131.902
21
-85.7045
0
LINE
8
BLACK
6
CONTINUOUS
10
131.902
20
-85.7045
11
132.075
21
-85.6117
0
LINE
8
BLACK
6
CONTINUOUS
10
132.075
20
-85.6117
11
132.264
21
-85.5545
0
LINE
8
BLACK
6
CONTINUOUS
10
132.264
20
-85.5545
11
132.46
21
-85.5352
0
LINE
8
BLACK
6
CONTINUOUS
10
132.46
20
-85.5352
11
132.656
21
-85.5545
0
LINE
8
BLACK
6
CONTINUOUS
10
142.036
20
-103.854
11
142.225
21
-103.912
0
LINE
8
BLACK
6
CONTINUOUS
10
142.225
20
-103.912
11
142.398
21
-104.005
0
LINE
8
BLACK
6
CONTINUOUS
10
142.398
20
-104.005
11
142.551
21
-104.129
0
LINE
8
BLACK
6
CONTINUOUS
10
142.551
20
-104.129
11
142.675
21
-104.282
0
LINE
8
BLACK
6
CONTINUOUS
10
142.675
20
-104.282
11
142.768
21
-104.455
0
LINE
8
BLACK
6
CONTINUOUS
10
142.768
20
-104.455
11
142.826
21
-104.644
0
LINE
8
BLACK
6
CONTINUOUS
10
142.826
20
-104.644
11
142.845
21
-104.84
0
LINE
8
BLACK
6
CONTINUOUS
10
142.845
20
-104.84
11
142.826
21
-105.036
0
LINE
8
BLACK
6
CONTINUOUS
10
142.826
20
-105.036
11
142.768
21
-105.225
0
LINE
8
BLACK
6
CONTINUOUS
10
142.768
20
-105.225
11
142.675
21
-105.398
0
LINE
8
BLACK
6
CONTINUOUS
10
142.675
20
-105.398
11
142.551
21
-105.551
0
LINE
8
BLACK
6
CONTINUOUS
10
142.551
20
-105.551
11
142.398
21
-105.675
0
LINE
8
BLACK
6
CONTINUOUS
10
142.398
20
-105.675
11
142.225
21
-105.768
0
LINE
8
BLACK
6
CONTINUOUS
10
142.225
20
-105.768
11
142.036
21
-105.826
0
LINE
8
BLACK
6
CONTINUOUS
10
142.036
20
-105.826
11
141.889
21
-105.84
0
LINE
8
BLACK
6
CONTINUOUS
10
141.889
20
-105.84
11
140.951
21
-105.84
0
LINE
8
BLACK
6
CONTINUOUS
10
140.951
20
-105.84
11
140.804
21
-105.826
0
LINE
8
BLACK
6
CONTINUOUS
10
140.804
20
-105.826
11
140.615
21
-105.768
0
LINE
8
BLACK
6
CONTINUOUS
10
140.615
20
-105.768
11
140.442
21
-105.675
0
LINE
8
BLACK
6
CONTINUOUS
10
140.442
20
-105.675
11
140.289
21
-105.551
0
LINE
8
BLACK
6
CONTINUOUS
10
140.289
20
-105.551
11
140.165
21
-105.398
0
LINE
8
BLACK
6
CONTINUOUS
10
140.165
20
-105.398
11
140.072
21
-105.225
0
LINE
8
BLACK
6
CONTINUOUS
10
140.072
20
-105.225
11
140.014
21
-105.036
0
LINE
8
BLACK
6
CONTINUOUS
10
140.014
20
-105.036
11
139.995
21
-104.84
0
LINE
8
BLACK
6
CONTINUOUS
10
139.995
20
-104.84
11
140.014
21
-104.644
0
LINE
8
BLACK
6
CONTINUOUS
10
140.014
20
-104.644
11
140.072
21
-104.455
0
LINE
8
BLACK
6
CONTINUOUS
10
140.072
20
-104.455
11
140.165
21
-104.282
0
LINE
8
BLACK
6
CONTINUOUS
10
140.165
20
-104.282
11
140.289
21
-104.129
0
LINE
8
BLACK
6
CONTINUOUS
10
140.289
20
-104.129
11
140.442
21
-104.005
0
LINE
8
BLACK
6
CONTINUOUS
10
140.442
20
-104.005
11
140.615
21
-103.912
0
LINE
8
BLACK
6
CONTINUOUS
10
140.615
20
-103.912
11
140.804
21
-103.854
0
LINE
8
BLACK
6
CONTINUOUS
10
140.804
20
-103.854
11
140.951
21
-103.84
0
LINE
8
BLACK
6
CONTINUOUS
10
140.951
20
-103.84
11
141.889
21
-103.84
0
LINE
8
BLACK
6
CONTINUOUS
10
141.889
20
-103.84
11
142.036
21
-103.854
0
LINE
8
BLACK
6
CONTINUOUS
10
133.184
20
-105.826
11
132.995
21
-105.768
0
LINE
8
BLACK
6
CONTINUOUS
10
132.995
20
-105.768
11
132.822
21
-105.675
0
LINE
8
BLACK
6
CONTINUOUS
10
132.822
20
-105.675
11
132.669
21
-105.551
0
LINE
8
BLACK
6
CONTINUOUS
10
132.669
20
-105.551
11
132.545
21
-105.398
0
LINE
8
BLACK
6
CONTINUOUS
10
132.545
20
-105.398
11
132.452
21
-105.225
0
LINE
8
BLACK
6
CONTINUOUS
10
132.452
20
-105.225
11
132.394
21
-105.036
0
LINE
8
BLACK
6
CONTINUOUS
10
132.394
20
-105.036
11
132.375
21
-104.84
0
LINE
8
BLACK
6
CONTINUOUS
10
132.375
20
-104.84
11
132.394
21
-104.644
0
LINE
8
BLACK
6
CONTINUOUS
10
132.394
20
-104.644
11
132.452
21
-104.455
0
LINE
8
BLACK
6
CONTINUOUS
10
132.452
20
-104.455
11
132.545
21
-104.282
0
LINE
8
BLACK
6
CONTINUOUS
10
132.545
20
-104.282
11
132.669
21
-104.129
0
LINE
8
BLACK
6
CONTINUOUS
10
132.669
20
-104.129
11
132.822
21
-104.005
0
LINE
8
BLACK
6
CONTINUOUS
10
132.822
20
-104.005
11
132.995
21
-103.912
0
LINE
8
BLACK
6
CONTINUOUS
10
132.995
20
-103.912
11
133.184
21
-103.854
0
LINE
8
BLACK
6
CONTINUOUS
10
133.184
20
-103.854
11
133.331
21
-103.84
0
LINE
8
BLACK
6
CONTINUOUS
10
133.331
20
-103.84
11
134.889
21
-103.84
0
LINE
8
BLACK
6
CONTINUOUS
10
134.889
20
-103.84
11
135.036
21
-103.854
0
LINE
8
BLACK
6
CONTINUOUS
10
135.036
20
-103.854
11
135.225
21
-103.912
0
LINE
8
BLACK
6
CONTINUOUS
10
135.225
20
-103.912
11
135.398
21
-104.005
0
LINE
8
BLACK
6
CONTINUOUS
10
135.398
20
-104.005
11
135.551
21
-104.129
0
LINE
8
BLACK
6
CONTINUOUS
10
135.551
20
-104.129
11
135.675
21
-104.282
0
LINE
8
BLACK
6
CONTINUOUS
10
135.675
20
-104.282
11
135.768
21
-104.455
0
LINE
8
BLACK
6
CONTINUOUS
10
135.768
20
-104.455
11
135.826
21
-104.644
0
LINE
8
BLACK
6
CONTINUOUS
10
135.826
20
-104.644
11
135.845
21
-104.84
0
LINE
8
BLACK
6
CONTINUOUS
10
135.845
20
-104.84
11
135.826
21
-105.036
0
LINE
8
BLACK
6
CONTINUOUS
10
135.826
20
-105.036
11
135.768
21
-105.225
0
LINE
8
BLACK
6
CONTINUOUS
10
135.768
20
-105.225
11
135.675
21
-105.398
0
LINE
8
BLACK
6
CONTINUOUS
10
135.675
20
-105.398
11
135.551
21
-105.551
0
LINE
8
BLACK
6
CONTINUOUS
10
135.551
20
-105.551
11
135.398
21
-105.675
0
LINE
8
BLACK
6
CONTINUOUS
10
135.398
20
-105.675
11
135.225
21
-105.768
0
LINE
8
BLACK
6
CONTINUOUS
10
135.225
20
-105.768
11
135.036
21
-105.826
0
LINE
8
BLACK
6
CONTINUOUS
10
135.036
20
-105.826
11
134.889
21
-105.84
0
LINE
8
BLACK
6
CONTINUOUS
10
134.889
20
-105.84
11
133.331
21
-105.84
0
LINE
8
BLACK
6
CONTINUOUS
10
133.331
20
-105.84
11
133.184
21
-105.826
0
LINE
8
BLACK
6
CONTINUOUS
10
133.184
20
-103.286
11
132.995
21
-103.228
0
LINE
8
BLACK
6
CONTINUOUS
10
132.995
20
-103.228
11
132.822
21
-103.135
0
LINE
8
BLACK
6
CONTINUOUS
10
132.822
20
-103.135
11
132.669
21
-103.011
0
LINE
8
BLACK
6
CONTINUOUS
10
132.669
20
-103.011
11
132.545
21
-102.858
0
LINE
8
BLACK
6
CONTINUOUS
10
132.545
20
-102.858
11
132.452
21
-102.685
0
LINE
8
BLACK
6
CONTINUOUS
10
132.452
20
-102.685
11
132.394
21
-102.496
0
LINE
8
BLACK
6
CONTINUOUS
10
132.394
20
-102.496
11
132.375
21
-102.3
0
LINE
8
BLACK
6
CONTINUOUS
10
132.375
20
-102.3
11
132.394
21
-102.104
0
LINE
8
BLACK
6
CONTINUOUS
10
132.394
20
-102.104
11
132.452
21
-101.915
0
LINE
8
BLACK
6
CONTINUOUS
10
132.452
20
-101.915
11
132.545
21
-101.742
0
LINE
8
BLACK
6
CONTINUOUS
10
132.545
20
-101.742
11
132.669
21
-101.589
0
LINE
8
BLACK
6
CONTINUOUS
10
132.669
20
-101.589
11
132.822
21
-101.465
0
LINE
8
BLACK
6
CONTINUOUS
10
132.822
20
-101.465
11
132.995
21
-101.372
0
LINE
8
BLACK
6
CONTINUOUS
10
132.995
20
-101.372
11
133.184
21
-101.314
0
LINE
8
BLACK
6
CONTINUOUS
10
133.184
20
-101.314
11
133.331
21
-101.3
0
LINE
8
BLACK
6
CONTINUOUS
10
133.331
20
-101.3
11
134.749
21
-101.3
0
LINE
8
BLACK
6
CONTINUOUS
10
134.749
20
-101.3
11
134.896
21
-101.314
0
LINE
8
BLACK
6
CONTINUOUS
10
134.896
20
-101.314
11
135.085
21
-101.372
0
LINE
8
BLACK
6
CONTINUOUS
10
135.085
20
-101.372
11
135.258
21
-101.465
0
LINE
8
BLACK
6
CONTINUOUS
10
135.258
20
-101.465
11
135.411
21
-101.589
0
LINE
8
BLACK
6
CONTINUOUS
10
135.411
20
-101.589
11
135.535
21
-101.742
0
LINE
8
BLACK
6
CONTINUOUS
10
135.535
20
-101.742
11
135.628
21
-101.915
0
LINE
8
BLACK
6
CONTINUOUS
10
135.628
20
-101.915
11
135.686
21
-102.104
0
LINE
8
BLACK
6
CONTINUOUS
10
135.686
20
-102.104
11
135.705
21
-102.3
0
LINE
8
BLACK
6
CONTINUOUS
10
135.705
20
-102.3
11
135.686
21
-102.496
0
LINE
8
BLACK
6
CONTINUOUS
10
135.686
20
-102.496
11
135.628
21
-102.685
0
LINE
8
BLACK
6
CONTINUOUS
10
135.628
20
-102.685
11
135.535
21
-102.858
0
LINE
8
BLACK
6
CONTINUOUS
10
135.535
20
-102.858
11
135.411
21
-103.011
0
LINE
8
BLACK
6
CONTINUOUS
10
135.411
20
-103.011
11
135.258
21
-103.135
0
LINE
8
BLACK
6
CONTINUOUS
10
135.258
20
-103.135
11
135.085
21
-103.228
0
LINE
8
BLACK
6
CONTINUOUS
10
135.085
20
-103.228
11
134.896
21
-103.286
0
LINE
8
BLACK
6
CONTINUOUS
10
134.896
20
-103.286
11
134.749
21
-103.3
0
LINE
8
BLACK
6
CONTINUOUS
10
134.749
20
-103.3
11
133.331
21
-103.3
0
LINE
8
BLACK
6
CONTINUOUS
10
133.331
20
-103.3
11
133.184
21
-103.286
0
LINE
8
BLACK
6
CONTINUOUS
10
140.804
20
-103.286
11
140.615
21
-103.228
0
LINE
8
BLACK
6
CONTINUOUS
10
140.615
20
-103.228
11
140.442
21
-103.135
0
LINE
8
BLACK
6
CONTINUOUS
10
140.442
20
-103.135
11
140.289
21
-103.011
0
LINE
8
BLACK
6
CONTINUOUS
10
140.289
20
-103.011
11
140.165
21
-102.858
0
LINE
8
BLACK
6
CONTINUOUS
10
140.165
20
-102.858
11
140.072
21
-102.685
0
LINE
8
BLACK
6
CONTINUOUS
10
140.072
20
-102.685
11
140.014
21
-102.496
0
LINE
8
BLACK
6
CONTINUOUS
10
140.014
20
-102.496
11
139.995
21
-102.3
0
LINE
8
BLACK
6
CONTINUOUS
10
139.995
20
-102.3
11
140.014
21
-102.104
0
LINE
8
BLACK
6
CONTINUOUS
10
140.014
20
-102.104
11
140.072
21
-101.915
0
LINE
8
BLACK
6
CONTINUOUS
10
140.072
20
-101.915
11
140.165
21
-101.742
0
LINE
8
BLACK
6
CONTINUOUS
10
140.165
20
-101.742
11
140.289
21
-101.589
0
LINE
8
BLACK
6
CONTINUOUS
10
140.289
20
-101.589
11
140.442
21
-101.465
0
LINE
8
BLACK
6
CONTINUOUS
10
140.442
20
-101.465
11
140.615
21
-101.372
0
LINE
8
BLACK
6
CONTINUOUS
10
140.615
20
-101.372
11
140.804
21
-101.314
0
LINE
8
BLACK
6
CONTINUOUS
10
140.804
20
-101.314
11
140.951
21
-101.3
0
LINE
8
BLACK
6
CONTINUOUS
10
140.951
20
-101.3
11
141.749
21
-101.3
0
LINE
8
BLACK
6
CONTINUOUS
10
141.749
20
-101.3
11
141.896
21
-101.314
0
LINE
8
BLACK
6
CONTINUOUS
10
141.896
20
-101.314
11
142.085
21
-101.372
0
LINE
8
BLACK
6
CONTINUOUS
10
142.085
20
-101.372
11
142.258
21
-101.465
0
LINE
8
BLACK
6
CONTINUOUS
10
142.258
20
-101.465
11
142.411
21
-101.589
0
LINE
8
BLACK
6
CONTINUOUS
10
142.411
20
-101.589
11
142.535
21
-101.742
0
LINE
8
BLACK
6
CONTINUOUS
10
142.535
20
-101.742
11
142.628
21
-101.915
0
LINE
8
BLACK
6
CONTINUOUS
10
142.628
20
-101.915
11
142.686
21
-102.104
0
LINE
8
BLACK
6
CONTINUOUS
10
142.686
20
-102.104
11
142.705
21
-102.3
0
LINE
8
BLACK
6
CONTINUOUS
10
142.705
20
-102.3
11
142.686
21
-102.496
0
LINE
8
BLACK
6
CONTINUOUS
10
142.686
20
-102.496
11
142.628
21
-102.685
0
LINE
8
BLACK
6
CONTINUOUS
10
142.628
20
-102.685
11
142.535
21
-102.858
0
LINE
8
BLACK
6
CONTINUOUS
10
142.535
20
-102.858
11
142.411
21
-103.011
0
LINE
8
BLACK
6
CONTINUOUS
10
142.411
20
-103.011
11
142.258
21
-103.135
0
LINE
8
BLACK
6
CONTINUOUS
10
142.258
20
-103.135
11
142.085
21
-103.228
0
LINE
8
BLACK
6
CONTINUOUS
10
142.085
20
-103.228
11
141.896
21
-103.286
0
LINE
8
BLACK
6
CONTINUOUS
10
141.896
20
-103.286
11
141.749
21
-103.3
0
LINE
8
BLACK
6
CONTINUOUS
10
141.749
20
-103.3
11
140.951
21
-103.3
0
LINE
8
BLACK
6
CONTINUOUS
10
140.951
20
-103.3
11
140.804
21
-103.286
0
LINE
8
BLACK
6
CONTINUOUS
10
133.184
20
-100.746
11
132.995
21
-100.688
0
LINE
8
BLACK
6
CONTINUOUS
10
132.995
20
-100.688
11
132.822
21
-100.595
0
LINE
8
BLACK
6
CONTINUOUS
10
132.822
20
-100.595
11
132.669
21
-100.471
0
LINE
8
BLACK
6
CONTINUOUS
10
132.669
20
-100.471
11
132.545
21
-100.318
0
LINE
8
BLACK
6
CONTINUOUS
10
132.545
20
-100.318
11
132.452
21
-100.145
0
LINE
8
BLACK
6
CONTINUOUS
10
132.452
20
-100.145
11
132.394
21
-99.956
0
LINE
8
BLACK
6
CONTINUOUS
10
132.394
20
-99.956
11
132.375
21
-99.76
0
LINE
8
BLACK
6
CONTINUOUS
10
132.375
20
-99.76
11
132.394
21
-99.564
0
LINE
8
BLACK
6
CONTINUOUS
10
132.394
20
-99.564
11
132.452
21
-99.3755
0
LINE
8
BLACK
6
CONTINUOUS
10
132.452
20
-99.3755
11
132.545
21
-99.2017
0
LINE
8
BLACK
6
CONTINUOUS
10
132.545
20
-99.2017
11
132.669
21
-99.0495
0
LINE
8
BLACK
6
CONTINUOUS
10
132.669
20
-99.0495
11
132.822
21
-98.9245
0
LINE
8
BLACK
6
CONTINUOUS
10
132.822
20
-98.9245
11
132.995
21
-98.8317
0
LINE
8
BLACK
6
CONTINUOUS
10
132.995
20
-98.8317
11
133.184
21
-98.7745
0
LINE
8
BLACK
6
CONTINUOUS
10
133.184
20
-98.7745
11
133.331
21
-98.76
0
LINE
8
BLACK
6
CONTINUOUS
10
133.331
20
-98.76
11
134.809
21
-98.76
0
LINE
8
BLACK
6
CONTINUOUS
10
134.809
20
-98.76
11
134.956
21
-98.7745
0
LINE
8
BLACK
6
CONTINUOUS
10
134.956
20
-98.7745
11
135.145
21
-98.8317
0
LINE
8
BLACK
6
CONTINUOUS
10
135.145
20
-98.8317
11
135.318
21
-98.9245
0
LINE
8
BLACK
6
CONTINUOUS
10
135.318
20
-98.9245
11
135.471
21
-99.0495
0
LINE
8
BLACK
6
CONTINUOUS
10
135.471
20
-99.0495
11
135.595
21
-99.2017
0
LINE
8
BLACK
6
CONTINUOUS
10
135.595
20
-99.2017
11
135.688
21
-99.3755
0
LINE
8
BLACK
6
CONTINUOUS
10
135.688
20
-99.3755
11
135.746
21
-99.564
0
LINE
8
BLACK
6
CONTINUOUS
10
135.746
20
-99.564
11
135.765
21
-99.76
0
LINE
8
BLACK
6
CONTINUOUS
10
135.765
20
-99.76
11
135.746
21
-99.956
0
LINE
8
BLACK
6
CONTINUOUS
10
135.746
20
-99.956
11
135.688
21
-100.145
0
LINE
8
BLACK
6
CONTINUOUS
10
135.688
20
-100.145
11
135.595
21
-100.318
0
LINE
8
BLACK
6
CONTINUOUS
10
135.595
20
-100.318
11
135.471
21
-100.471
0
LINE
8
BLACK
6
CONTINUOUS
10
135.471
20
-100.471
11
135.318
21
-100.595
0
LINE
8
BLACK
6
CONTINUOUS
10
135.318
20
-100.595
11
135.145
21
-100.688
0
LINE
8
BLACK
6
CONTINUOUS
10
135.145
20
-100.688
11
134.956
21
-100.746
0
LINE
8
BLACK
6
CONTINUOUS
10
134.956
20
-100.746
11
134.809
21
-100.76
0
LINE
8
BLACK
6
CONTINUOUS
10
134.809
20
-100.76
11
133.331
21
-100.76
0
LINE
8
BLACK
6
CONTINUOUS
10
133.331
20
-100.76
11
133.184
21
-100.746
0
LINE
8
BLACK
6
CONTINUOUS
10
141.956
20
-98.7745
11
142.145
21
-98.8317
0
LINE
8
BLACK
6
CONTINUOUS
10
142.145
20
-98.8317
11
142.318
21
-98.9245
0
LINE
8
BLACK
6
CONTINUOUS
10
142.318
20
-98.9245
11
142.471
21
-99.0495
0
LINE
8
BLACK
6
CONTINUOUS
10
142.471
20
-99.0495
11
142.595
21
-99.2017
0
LINE
8
BLACK
6
CONTINUOUS
10
142.595
20
-99.2017
11
142.688
21
-99.3755
0
LINE
8
BLACK
6
CONTINUOUS
10
142.688
20
-99.3755
11
142.746
21
-99.564
0
LINE
8
BLACK
6
CONTINUOUS
10
142.746
20
-99.564
11
142.765
21
-99.76
0
LINE
8
BLACK
6
CONTINUOUS
10
142.765
20
-99.76
11
142.746
21
-99.956
0
LINE
8
BLACK
6
CONTINUOUS
10
142.746
20
-99.956
11
142.688
21
-100.145
0
LINE
8
BLACK
6
CONTINUOUS
10
142.688
20
-100.145
11
142.595
21
-100.318
0
LINE
8
BLACK
6
CONTINUOUS
10
142.595
20
-100.318
11
142.471
21
-100.471
0
LINE
8
BLACK
6
CONTINUOUS
10
142.471
20
-100.471
11
142.318
21
-100.595
0
LINE
8
BLACK
6
CONTINUOUS
10
142.318
20
-100.595
11
142.145
21
-100.688
0
LINE
8
BLACK
6
CONTINUOUS
10
142.145
20
-100.688
11
141.956
21
-100.746
0
LINE
8
BLACK
6
CONTINUOUS
10
141.956
20
-100.746
11
141.809
21
-100.76
0
LINE
8
BLACK
6
CONTINUOUS
10
141.809
20
-100.76
11
140.951
21
-100.76
0
LINE
8
BLACK
6
CONTINUOUS
10
140.951
20
-100.76
11
140.804
21
-100.746
0
LINE
8
BLACK
6
CONTINUOUS
10
140.804
20
-100.746
11
140.615
21
-100.688
0
LINE
8
BLACK
6
CONTINUOUS
10
140.615
20
-100.688
11
140.442
21
-100.595
0
LINE
8
BLACK
6
CONTINUOUS
10
140.442
20
-100.595
11
140.289
21
-100.471
0
LINE
8
BLACK
6
CONTINUOUS
10
140.289
20
-100.471
11
140.165
21
-100.318
0
LINE
8
BLACK
6
CONTINUOUS
10
140.165
20
-100.318
11
140.072
21
-100.145
0
LINE
8
BLACK
6
CONTINUOUS
10
140.072
20
-100.145
11
140.014
21
-99.956
0
LINE
8
BLACK
6
CONTINUOUS
10
140.014
20
-99.956
11
139.995
21
-99.76
0
LINE
8
BLACK
6
CONTINUOUS
10
139.995
20
-99.76
11
140.014
21
-99.564
0
LINE
8
BLACK
6
CONTINUOUS
10
140.014
20
-99.564
11
140.072
21
-99.3755
0
LINE
8
BLACK
6
CONTINUOUS
10
140.072
20
-99.3755
11
140.165
21
-99.2017
0
LINE
8
BLACK
6
CONTINUOUS
10
140.165
20
-99.2017
11
140.289
21
-99.0495
0
LINE
8
BLACK
6
CONTINUOUS
10
140.289
20
-99.0495
11
140.442
21
-98.9245
0
LINE
8
BLACK
6
CONTINUOUS
10
140.442
20
-98.9245
11
140.615
21
-98.8317
0
LINE
8
BLACK
6
CONTINUOUS
10
140.615
20
-98.8317
11
140.804
21
-98.7745
0
LINE
8
BLACK
6
CONTINUOUS
10
140.804
20
-98.7745
11
140.951
21
-98.76
0
LINE
8
BLACK
6
CONTINUOUS
10
140.951
20
-98.76
11
141.809
21
-98.76
0
LINE
8
BLACK
6
CONTINUOUS
10
141.809
20
-98.76
11
141.956
21
-98.7745
0
LINE
8
BLACK
6
CONTINUOUS
10
141.976
20
-96.2345
11
142.165
21
-96.2917
0
LINE
8
BLACK
6
CONTINUOUS
10
142.165
20
-96.2917
11
142.338
21
-96.3845
0
LINE
8
BLACK
6
CONTINUOUS
10
142.338
20
-96.3845
11
142.491
21
-96.5095
0
LINE
8
BLACK
6
CONTINUOUS
10
142.491
20
-96.5095
11
142.615
21
-96.6617
0
LINE
8
BLACK
6
CONTINUOUS
10
142.615
20
-96.6617
11
142.708
21
-96.8355
0
LINE
8
BLACK
6
CONTINUOUS
10
142.708
20
-96.8355
11
142.766
21
-97.024
0
LINE
8
BLACK
6
CONTINUOUS
10
142.766
20
-97.024
11
142.785
21
-97.22
0
LINE
8
BLACK
6
CONTINUOUS
10
142.785
20
-97.22
11
142.766
21
-97.416
0
LINE
8
BLACK
6
CONTINUOUS
10
142.766
20
-97.416
11
142.708
21
-97.6045
0
LINE
8
BLACK
6
CONTINUOUS
10
142.708
20
-97.6045
11
142.615
21
-97.7783
0
LINE
8
BLACK
6
CONTINUOUS
10
142.615
20
-97.7783
11
142.491
21
-97.9305
0
LINE
8
BLACK
6
CONTINUOUS
10
142.491
20
-97.9305
11
142.338
21
-98.0555
0
LINE
8
BLACK
6
CONTINUOUS
10
142.338
20
-98.0555
11
142.165
21
-98.1483
0
LINE
8
BLACK
6
CONTINUOUS
10
142.165
20
-98.1483
11
141.976
21
-98.2055
0
LINE
8
BLACK
6
CONTINUOUS
10
141.976
20
-98.2055
11
141.829
21
-98.22
0
LINE
8
BLACK
6
CONTINUOUS
10
141.829
20
-98.22
11
140.951
21
-98.22
0
LINE
8
BLACK
6
CONTINUOUS
10
140.951
20
-98.22
11
140.804
21
-98.2055
0
LINE
8
BLACK
6
CONTINUOUS
10
140.804
20
-98.2055
11
140.615
21
-98.1483
0
LINE
8
BLACK
6
CONTINUOUS
10
140.615
20
-98.1483
11
140.442
21
-98.0555
0
LINE
8
BLACK
6
CONTINUOUS
10
140.442
20
-98.0555
11
140.289
21
-97.9305
0
LINE
8
BLACK
6
CONTINUOUS
10
140.289
20
-97.9305
11
140.165
21
-97.7783
0
LINE
8
BLACK
6
CONTINUOUS
10
140.165
20
-97.7783
11
140.072
21
-97.6045
0
LINE
8
BLACK
6
CONTINUOUS
10
140.072
20
-97.6045
11
140.014
21
-97.416
0
LINE
8
BLACK
6
CONTINUOUS
10
140.014
20
-97.416
11
139.995
21
-97.22
0
LINE
8
BLACK
6
CONTINUOUS
10
139.995
20
-97.22
11
140.014
21
-97.024
0
LINE
8
BLACK
6
CONTINUOUS
10
140.014
20
-97.024
11
140.072
21
-96.8355
0
LINE
8
BLACK
6
CONTINUOUS
10
140.072
20
-96.8355
11
140.165
21
-96.6617
0
LINE
8
BLACK
6
CONTINUOUS
10
140.165
20
-96.6617
11
140.289
21
-96.5095
0
LINE
8
BLACK
6
CONTINUOUS
10
140.289
20
-96.5095
11
140.442
21
-96.3845
0
LINE
8
BLACK
6
CONTINUOUS
10
140.442
20
-96.3845
11
140.615
21
-96.2917
0
LINE
8
BLACK
6
CONTINUOUS
10
140.615
20
-96.2917
11
140.804
21
-96.2345
0
LINE
8
BLACK
6
CONTINUOUS
10
140.804
20
-96.2345
11
140.951
21
-96.22
0
LINE
8
BLACK
6
CONTINUOUS
10
140.951
20
-96.22
11
141.829
21
-96.22
0
LINE
8
BLACK
6
CONTINUOUS
10
141.829
20
-96.22
11
141.976
21
-96.2345
0
LINE
8
BLACK
6
CONTINUOUS
10
134.976
20
-96.2345
11
135.165
21
-96.2917
0
LINE
8
BLACK
6
CONTINUOUS
10
135.165
20
-96.2917
11
135.338
21
-96.3845
0
LINE
8
BLACK
6
CONTINUOUS
10
135.338
20
-96.3845
11
135.491
21
-96.5095
0
LINE
8
BLACK
6
CONTINUOUS
10
135.491
20
-96.5095
11
135.615
21
-96.6617
0
LINE
8
BLACK
6
CONTINUOUS
10
135.615
20
-96.6617
11
135.708
21
-96.8355
0
LINE
8
BLACK
6
CONTINUOUS
10
135.708
20
-96.8355
11
135.766
21
-97.024
0
LINE
8
BLACK
6
CONTINUOUS
10
135.766
20
-97.024
11
135.785
21
-97.22
0
LINE
8
BLACK
6
CONTINUOUS
10
135.785
20
-97.22
11
135.766
21
-97.416
0
LINE
8
BLACK
6
CONTINUOUS
10
135.766
20
-97.416
11
135.708
21
-97.6045
0
LINE
8
BLACK
6
CONTINUOUS
10
135.708
20
-97.6045
11
135.615
21
-97.7783
0
LINE
8
BLACK
6
CONTINUOUS
10
135.615
20
-97.7783
11
135.491
21
-97.9305
0
LINE
8
BLACK
6
CONTINUOUS
10
135.491
20
-97.9305
11
135.338
21
-98.0555
0
LINE
8
BLACK
6
CONTINUOUS
10
135.338
20
-98.0555
11
135.165
21
-98.1483
0
LINE
8
BLACK
6
CONTINUOUS
10
135.165
20
-98.1483
11
134.976
21
-98.2055
0
LINE
8
BLACK
6
CONTINUOUS
10
134.976
20
-98.2055
11
134.829
21
-98.22
0
LINE
8
BLACK
6
CONTINUOUS
10
134.829
20
-98.22
11
133.331
21
-98.22
0
LINE
8
BLACK
6
CONTINUOUS
10
133.331
20
-98.22
11
133.184
21
-98.2055
0
LINE
8
BLACK
6
CONTINUOUS
10
133.184
20
-98.2055
11
132.995
21
-98.1483
0
LINE
8
BLACK
6
CONTINUOUS
10
132.995
20
-98.1483
11
132.822
21
-98.0555
0
LINE
8
BLACK
6
CONTINUOUS
10
132.822
20
-98.0555
11
132.669
21
-97.9305
0
LINE
8
BLACK
6
CONTINUOUS
10
132.669
20
-97.9305
11
132.545
21
-97.7783
0
LINE
8
BLACK
6
CONTINUOUS
10
132.545
20
-97.7783
11
132.452
21
-97.6045
0
LINE
8
BLACK
6
CONTINUOUS
10
132.452
20
-97.6045
11
132.394
21
-97.416
0
LINE
8
BLACK
6
CONTINUOUS
10
132.394
20
-97.416
11
132.375
21
-97.22
0
LINE
8
BLACK
6
CONTINUOUS
10
132.375
20
-97.22
11
132.394
21
-97.024
0
LINE
8
BLACK
6
CONTINUOUS
10
132.394
20
-97.024
11
132.452
21
-96.8355
0
LINE
8
BLACK
6
CONTINUOUS
10
132.452
20
-96.8355
11
132.545
21
-96.6617
0
LINE
8
BLACK
6
CONTINUOUS
10
132.545
20
-96.6617
11
132.669
21
-96.5095
0
LINE
8
BLACK
6
CONTINUOUS
10
132.669
20
-96.5095
11
132.822
21
-96.3845
0
LINE
8
BLACK
6
CONTINUOUS
10
132.822
20
-96.3845
11
132.995
21
-96.2917
0
LINE
8
BLACK
6
CONTINUOUS
10
132.995
20
-96.2917
11
133.184
21
-96.2345
0
LINE
8
BLACK
6
CONTINUOUS
10
133.184
20
-96.2345
11
133.331
21
-96.22
0
LINE
8
BLACK
6
CONTINUOUS
10
133.331
20
-96.22
11
134.829
21
-96.22
0
LINE
8
BLACK
6
CONTINUOUS
10
134.829
20
-96.22
11
134.976
21
-96.2345
0
LINE
8
BLACK
6
CONTINUOUS
10
134.876
20
-93.6945
11
135.065
21
-93.7517
0
LINE
8
BLACK
6
CONTINUOUS
10
135.065
20
-93.7517
11
135.238
21
-93.8445
0
LINE
8
BLACK
6
CONTINUOUS
10
135.238
20
-93.8445
11
135.391
21
-93.9695
0
LINE
8
BLACK
6
CONTINUOUS
10
135.391
20
-93.9695
11
135.515
21
-94.1217
0
LINE
8
BLACK
6
CONTINUOUS
10
135.515
20
-94.1217
11
135.608
21
-94.2955
0
LINE
8
BLACK
6
CONTINUOUS
10
135.608
20
-94.2955
11
135.666
21
-94.484
0
LINE
8
BLACK
6
CONTINUOUS
10
135.666
20
-94.484
11
135.685
21
-94.68
0
LINE
8
BLACK
6
CONTINUOUS
10
135.685
20
-94.68
11
135.666
21
-94.876
0
LINE
8
BLACK
6
CONTINUOUS
10
135.666
20
-94.876
11
135.608
21
-95.0645
0
LINE
8
BLACK
6
CONTINUOUS
10
135.608
20
-95.0645
11
135.515
21
-95.2383
0
LINE
8
BLACK
6
CONTINUOUS
10
135.515
20
-95.2383
11
135.391
21
-95.3905
0
LINE
8
BLACK
6
CONTINUOUS
10
135.391
20
-95.3905
11
135.238
21
-95.5155
0
LINE
8
BLACK
6
CONTINUOUS
10
135.238
20
-95.5155
11
135.065
21
-95.6083
0
LINE
8
BLACK
6
CONTINUOUS
10
135.065
20
-95.6083
11
134.876
21
-95.6655
0
LINE
8
BLACK
6
CONTINUOUS
10
134.876
20
-95.6655
11
134.729
21
-95.68
0
LINE
8
BLACK
6
CONTINUOUS
10
134.729
20
-95.68
11
133.331
21
-95.68
0
LINE
8
BLACK
6
CONTINUOUS
10
133.331
20
-95.68
11
133.184
21
-95.6655
0
LINE
8
BLACK
6
CONTINUOUS
10
133.184
20
-95.6655
11
132.995
21
-95.6083
0
LINE
8
BLACK
6
CONTINUOUS
10
132.995
20
-95.6083
11
132.822
21
-95.5155
0
LINE
8
BLACK
6
CONTINUOUS
10
132.822
20
-95.5155
11
132.669
21
-95.3905
0
LINE
8
BLACK
6
CONTINUOUS
10
132.669
20
-95.3905
11
132.545
21
-95.2383
0
LINE
8
BLACK
6
CONTINUOUS
10
132.545
20
-95.2383
11
132.452
21
-95.0645
0
LINE
8
BLACK
6
CONTINUOUS
10
132.452
20
-95.0645
11
132.394
21
-94.876
0
LINE
8
BLACK
6
CONTINUOUS
10
132.394
20
-94.876
11
132.375
21
-94.68
0
LINE
8
BLACK
6
CONTINUOUS
10
132.375
20
-94.68
11
132.394
21
-94.484
0
LINE
8
BLACK
6
CONTINUOUS
10
132.394
20
-94.484
11
132.452
21
-94.2955
0
LINE
8
BLACK
6
CONTINUOUS
10
132.452
20
-94.2955
11
132.545
21
-94.1217
0
LINE
8
BLACK
6
CONTINUOUS
10
132.545
20
-94.1217
11
132.669
21
-93.9695
0
LINE
8
BLACK
6
CONTINUOUS
10
132.669
20
-93.9695
11
132.822
21
-93.8445
0
LINE
8
BLACK
6
CONTINUOUS
10
132.822
20
-93.8445
11
132.995
21
-93.7517
0
LINE
8
BLACK
6
CONTINUOUS
10
132.995
20
-93.7517
11
133.184
21
-93.6945
0
LINE
8
BLACK
6
CONTINUOUS
10
133.184
20
-93.6945
11
133.331
21
-93.68
0
LINE
8
BLACK
6
CONTINUOUS
10
133.331
20
-93.68
11
134.729
21
-93.68
0
LINE
8
BLACK
6
CONTINUOUS
10
134.729
20
-93.68
11
134.876
21
-93.6945
0
LINE
8
BLACK
6
CONTINUOUS
10
141.876
20
-93.6945
11
142.065
21
-93.7517
0
LINE
8
BLACK
6
CONTINUOUS
10
142.065
20
-93.7517
11
142.238
21
-93.8445
0
LINE
8
BLACK
6
CONTINUOUS
10
142.238
20
-93.8445
11
142.391
21
-93.9695
0
LINE
8
BLACK
6
CONTINUOUS
10
142.391
20
-93.9695
11
142.515
21
-94.1217
0
LINE
8
BLACK
6
CONTINUOUS
10
142.515
20
-94.1217
11
142.608
21
-94.2955
0
LINE
8
BLACK
6
CONTINUOUS
10
142.608
20
-94.2955
11
142.666
21
-94.484
0
LINE
8
BLACK
6
CONTINUOUS
10
142.666
20
-94.484
11
142.685
21
-94.68
0
LINE
8
BLACK
6
CONTINUOUS
10
142.685
20
-94.68
11
142.666
21
-94.876
0
LINE
8
BLACK
6
CONTINUOUS
10
142.666
20
-94.876
11
142.608
21
-95.0645
0
LINE
8
BLACK
6
CONTINUOUS
10
142.608
20
-95.0645
11
142.515
21
-95.2383
0
LINE
8
BLACK
6
CONTINUOUS
10
142.515
20
-95.2383
11
142.391
21
-95.3905
0
LINE
8
BLACK
6
CONTINUOUS
10
142.391
20
-95.3905
11
142.238
21
-95.5155
0
LINE
8
BLACK
6
CONTINUOUS
10
142.238
20
-95.5155
11
142.065
21
-95.6083
0
LINE
8
BLACK
6
CONTINUOUS
10
142.065
20
-95.6083
11
141.876
21
-95.6655
0
LINE
8
BLACK
6
CONTINUOUS
10
141.876
20
-95.6655
11
141.729
21
-95.68
0
LINE
8
BLACK
6
CONTINUOUS
10
141.729
20
-95.68
11
140.951
21
-95.68
0
LINE
8
BLACK
6
CONTINUOUS
10
140.951
20
-95.68
11
140.804
21
-95.6655
0
LINE
8
BLACK
6
CONTINUOUS
10
140.804
20
-95.6655
11
140.615
21
-95.6083
0
LINE
8
BLACK
6
CONTINUOUS
10
140.615
20
-95.6083
11
140.442
21
-95.5155
0
LINE
8
BLACK
6
CONTINUOUS
10
140.442
20
-95.5155
11
140.289
21
-95.3905
0
LINE
8
BLACK
6
CONTINUOUS
10
140.289
20
-95.3905
11
140.165
21
-95.2383
0
LINE
8
BLACK
6
CONTINUOUS
10
140.165
20
-95.2383
11
140.072
21
-95.0645
0
LINE
8
BLACK
6
CONTINUOUS
10
140.072
20
-95.0645
11
140.014
21
-94.876
0
LINE
8
BLACK
6
CONTINUOUS
10
140.014
20
-94.876
11
139.995
21
-94.68
0
LINE
8
BLACK
6
CONTINUOUS
10
139.995
20
-94.68
11
140.014
21
-94.484
0
LINE
8
BLACK
6
CONTINUOUS
10
140.014
20
-94.484
11
140.072
21
-94.2955
0
LINE
8
BLACK
6
CONTINUOUS
10
140.072
20
-94.2955
11
140.165
21
-94.1217
0
LINE
8
BLACK
6
CONTINUOUS
10
140.165
20
-94.1217
11
140.289
21
-93.9695
0
LINE
8
BLACK
6
CONTINUOUS
10
140.289
20
-93.9695
11
140.442
21
-93.8445
0
LINE
8
BLACK
6
CONTINUOUS
10
140.442
20
-93.8445
11
140.615
21
-93.7517
0
LINE
8
BLACK
6
CONTINUOUS
10
140.615
20
-93.7517
11
140.804
21
-93.6945
0
LINE
8
BLACK
6
CONTINUOUS
10
140.804
20
-93.6945
11
140.951
21
-93.68
0
LINE
8
BLACK
6
CONTINUOUS
10
140.951
20
-93.68
11
141.729
21
-93.68
0
LINE
8
BLACK
6
CONTINUOUS
10
141.729
20
-93.68
11
141.876
21
-93.6945
0
LINE
8
BLACK
6
CONTINUOUS
10
142.816
20
-85.5545
11
143.005
21
-85.6117
0
LINE
8
BLACK
6
CONTINUOUS
10
143.005
20
-85.6117
11
143.178
21
-85.7045
0
LINE
8
BLACK
6
CONTINUOUS
10
143.178
20
-85.7045
11
143.331
21
-85.8295
0
LINE
8
BLACK
6
CONTINUOUS
10
143.331
20
-85.8295
11
143.455
21
-85.9817
0
LINE
8
BLACK
6
CONTINUOUS
10
143.455
20
-85.9817
11
143.548
21
-86.1555
0
LINE
8
BLACK
6
CONTINUOUS
10
143.548
20
-86.1555
11
143.606
21
-86.344
0
LINE
8
BLACK
6
CONTINUOUS
10
143.606
20
-86.344
11
143.625
21
-86.54
0
LINE
8
BLACK
6
CONTINUOUS
10
143.625
20
-86.54
11
143.606
21
-86.736
0
LINE
8
BLACK
6
CONTINUOUS
10
143.606
20
-86.736
11
143.548
21
-86.9245
0
LINE
8
BLACK
6
CONTINUOUS
10
143.548
20
-86.9245
11
143.455
21
-87.0983
0
LINE
8
BLACK
6
CONTINUOUS
10
143.455
20
-87.0983
11
143.331
21
-87.2505
0
LINE
8
BLACK
6
CONTINUOUS
10
143.331
20
-87.2505
11
143.178
21
-87.3755
0
LINE
8
BLACK
6
CONTINUOUS
10
143.178
20
-87.3755
11
143.005
21
-87.4683
0
LINE
8
BLACK
6
CONTINUOUS
10
143.005
20
-87.4683
11
142.816
21
-87.5255
0
LINE
8
BLACK
6
CONTINUOUS
10
142.816
20
-87.5255
11
142.669
21
-87.54
0
LINE
8
BLACK
6
CONTINUOUS
10
142.669
20
-87.54
11
141.08
21
-87.54
0
LINE
8
BLACK
6
CONTINUOUS
10
141.08
20
-87.54
11
141.08
21
-90.8058
0
LINE
8
BLACK
6
CONTINUOUS
10
141.08
20
-90.8058
11
141.742
21
-91.4676
0
LINE
8
BLACK
6
CONTINUOUS
10
141.742
20
-91.4676
11
141.835
21
-91.5817
0
LINE
8
BLACK
6
CONTINUOUS
10
141.835
20
-91.5817
11
141.928
21
-91.7555
0
LINE
8
BLACK
6
CONTINUOUS
10
141.928
20
-91.7555
11
141.986
21
-91.944
0
LINE
8
BLACK
6
CONTINUOUS
10
141.986
20
-91.944
11
142.005
21
-92.14
0
LINE
8
BLACK
6
CONTINUOUS
10
142.005
20
-92.14
11
141.986
21
-92.336
0
LINE
8
BLACK
6
CONTINUOUS
10
141.986
20
-92.336
11
141.928
21
-92.5245
0
LINE
8
BLACK
6
CONTINUOUS
10
141.928
20
-92.5245
11
141.835
21
-92.6983
0
LINE
8
BLACK
6
CONTINUOUS
10
141.835
20
-92.6983
11
141.711
21
-92.8505
0
LINE
8
BLACK
6
CONTINUOUS
10
141.711
20
-92.8505
11
141.558
21
-92.9755
0
LINE
8
BLACK
6
CONTINUOUS
10
141.558
20
-92.9755
11
141.385
21
-93.0683
0
LINE
8
BLACK
6
CONTINUOUS
10
141.385
20
-93.0683
11
141.196
21
-93.1255
0
LINE
8
BLACK
6
CONTINUOUS
10
141.196
20
-93.1255
11
141
21
-93.1448
0
LINE
8
BLACK
6
CONTINUOUS
10
141
20
-93.1448
11
140.804
21
-93.1255
0
LINE
8
BLACK
6
CONTINUOUS
10
140.804
20
-93.1255
11
140.615
21
-93.0683
0
LINE
8
BLACK
6
CONTINUOUS
10
140.615
20
-93.0683
11
140.442
21
-92.9755
0
LINE
8
BLACK
6
CONTINUOUS
10
140.442
20
-92.9755
11
140.328
21
-92.8818
0
LINE
8
BLACK
6
CONTINUOUS
10
140.328
20
-92.8818
11
139.408
21
-91.9618
0
LINE
8
BLACK
6
CONTINUOUS
10
139.408
20
-91.9618
11
139.369
21
-91.9305
0
LINE
8
BLACK
6
CONTINUOUS
10
139.369
20
-91.9305
11
139.245
21
-91.7783
0
LINE
8
BLACK
6
CONTINUOUS
10
139.245
20
-91.7783
11
139.152
21
-91.6045
0
LINE
8
BLACK
6
CONTINUOUS
10
139.152
20
-91.6045
11
139.152
21
-91.6045
0
LINE
8
BLACK
6
CONTINUOUS
10
139.152
20
-91.6045
11
139.094
21
-91.416
0
LINE
8
BLACK
6
CONTINUOUS
10
139.094
20
-91.416
11
139.075
21
-91.22
0
LINE
8
BLACK
6
CONTINUOUS
10
139.075
20
-91.22
11
139.08
21
-91.1709
0
LINE
8
BLACK
6
CONTINUOUS
10
139.08
20
-91.1709
11
139.08
21
-87.54
0
LINE
8
BLACK
6
CONTINUOUS
10
139.08
20
-87.54
11
134.951
21
-87.54
0
LINE
8
BLACK
6
CONTINUOUS
10
134.951
20
-87.54
11
134.804
21
-87.5255
0
LINE
8
BLACK
6
CONTINUOUS
10
134.804
20
-87.5255
11
134.615
21
-87.4683
0
LINE
8
BLACK
6
CONTINUOUS
10
134.615
20
-87.4683
11
134.442
21
-87.3755
0
LINE
8
BLACK
6
CONTINUOUS
10
134.442
20
-87.3755
11
134.289
21
-87.2505
0
LINE
8
BLACK
6
CONTINUOUS
10
134.289
20
-87.2505
11
134.165
21
-87.0983
0
LINE
8
BLACK
6
CONTINUOUS
10
134.165
20
-87.0983
11
134.072
21
-86.9245
0
LINE
8
BLACK
6
CONTINUOUS
10
134.072
20
-86.9245
11
134.014
21
-86.736
0
LINE
8
BLACK
6
CONTINUOUS
10
134.014
20
-86.736
11
133.995
21
-86.54
0
LINE
8
BLACK
6
CONTINUOUS
10
133.995
20
-86.54
11
134.014
21
-86.344
0
LINE
8
BLACK
6
CONTINUOUS
10
134.014
20
-86.344
11
134.072
21
-86.1555
0
LINE
8
BLACK
6
CONTINUOUS
10
134.072
20
-86.1555
11
134.165
21
-85.9817
0
LINE
8
BLACK
6
CONTINUOUS
10
134.165
20
-85.9817
11
134.289
21
-85.8295
0
LINE
8
BLACK
6
CONTINUOUS
10
134.289
20
-85.8295
11
134.442
21
-85.7045
0
LINE
8
BLACK
6
CONTINUOUS
10
134.442
20
-85.7045
11
134.615
21
-85.6117
0
LINE
8
BLACK
6
CONTINUOUS
10
134.615
20
-85.6117
11
134.804
21
-85.5545
0
LINE
8
BLACK
6
CONTINUOUS
10
134.804
20
-85.5545
11
134.951
21
-85.54
0
LINE
8
BLACK
6
CONTINUOUS
10
134.951
20
-85.54
11
140.031
21
-85.54
0
LINE
8
BLACK
6
CONTINUOUS
10
140.031
20
-85.54
11
140.08
21
-85.5352
0
LINE
8
BLACK
6
CONTINUOUS
10
140.08
20
-85.5352
11
140.129
21
-85.54
0
LINE
8
BLACK
6
CONTINUOUS
10
140.129
20
-85.54
11
142.669
21
-85.54
0
LINE
8
BLACK
6
CONTINUOUS
10
142.669
20
-85.54
11
142.816
21
-85.5545
0
LINE
8
BLACK
6
CONTINUOUS
10
135.056
20
-91.1545
11
135.245
21
-91.2117
0
LINE
8
BLACK
6
CONTINUOUS
10
135.245
20
-91.2117
11
135.418
21
-91.3045
0
LINE
8
BLACK
6
CONTINUOUS
10
135.418
20
-91.3045
11
135.571
21
-91.4295
0
LINE
8
BLACK
6
CONTINUOUS
10
135.571
20
-91.4295
11
135.695
21
-91.5817
0
LINE
8
BLACK
6
CONTINUOUS
10
135.695
20
-91.5817
11
135.788
21
-91.7555
0
LINE
8
BLACK
6
CONTINUOUS
10
135.788
20
-91.7555
11
135.846
21
-91.944
0
LINE
8
BLACK
6
CONTINUOUS
10
135.846
20
-91.944
11
135.865
21
-92.14
0
LINE
8
BLACK
6
CONTINUOUS
10
135.865
20
-92.14
11
135.846
21
-92.336
0
LINE
8
BLACK
6
CONTINUOUS
10
135.846
20
-92.336
11
135.788
21
-92.5245
0
LINE
8
BLACK
6
CONTINUOUS
10
135.788
20
-92.5245
11
135.695
21
-92.6983
0
LINE
8
BLACK
6
CONTINUOUS
10
135.695
20
-92.6983
11
135.571
21
-92.8505
0
LINE
8
BLACK
6
CONTINUOUS
10
135.571
20
-92.8505
11
135.418
21
-92.9755
0
LINE
8
BLACK
6
CONTINUOUS
10
135.418
20
-92.9755
11
135.245
21
-93.0683
0
LINE
8
BLACK
6
CONTINUOUS
10
135.245
20
-93.0683
11
135.056
21
-93.1255
0
LINE
8
BLACK
6
CONTINUOUS
10
135.056
20
-93.1255
11
134.909
21
-93.14
0
LINE
8
BLACK
6
CONTINUOUS
10
134.909
20
-93.14
11
133.331
21
-93.14
0
LINE
8
BLACK
6
CONTINUOUS
10
133.331
20
-93.14
11
133.184
21
-93.1255
0
LINE
8
BLACK
6
CONTINUOUS
10
133.184
20
-93.1255
11
132.995
21
-93.0683
0
LINE
8
BLACK
6
CONTINUOUS
10
132.995
20
-93.0683
11
132.822
21
-92.9755
0
LINE
8
BLACK
6
CONTINUOUS
10
132.822
20
-92.9755
11
132.669
21
-92.8505
0
LINE
8
BLACK
6
CONTINUOUS
10
132.669
20
-92.8505
11
132.545
21
-92.6983
0
LINE
8
BLACK
6
CONTINUOUS
10
132.545
20
-92.6983
11
132.452
21
-92.5245
0
LINE
8
BLACK
6
CONTINUOUS
10
132.452
20
-92.5245
11
132.394
21
-92.336
0
LINE
8
BLACK
6
CONTINUOUS
10
132.394
20
-92.336
11
132.375
21
-92.14
0
LINE
8
BLACK
6
CONTINUOUS
10
132.375
20
-92.14
11
132.394
21
-91.944
0
LINE
8
BLACK
6
CONTINUOUS
10
132.394
20
-91.944
11
132.452
21
-91.7555
0
LINE
8
BLACK
6
CONTINUOUS
10
132.452
20
-91.7555
11
132.545
21
-91.5817
0
LINE
8
BLACK
6
CONTINUOUS
10
132.545
20
-91.5817
11
132.669
21
-91.4295
0
LINE
8
BLACK
6
CONTINUOUS
10
132.669
20
-91.4295
11
132.822
21
-91.3045
0
LINE
8
BLACK
6
CONTINUOUS
10
132.822
20
-91.3045
11
132.995
21
-91.2117
0
LINE
8
BLACK
6
CONTINUOUS
10
132.995
20
-91.2117
11
133.184
21
-91.1545
0
LINE
8
BLACK
6
CONTINUOUS
10
133.184
20
-91.1545
11
133.331
21
-91.14
0
LINE
8
BLACK
6
CONTINUOUS
10
133.331
20
-91.14
11
134.909
21
-91.14
0
LINE
8
BLACK
6
CONTINUOUS
10
134.909
20
-91.14
11
135.056
21
-91.1545
0
LINE
8
BLACK
6
CONTINUOUS
10
138.526
20
-84.196
11
138.468
21
-84.3845
0
LINE
8
BLACK
6
CONTINUOUS
10
138.468
20
-84.3845
11
138.375
21
-84.5583
0
LINE
8
BLACK
6
CONTINUOUS
10
138.375
20
-84.5583
11
138.251
21
-84.7105
0
LINE
8
BLACK
6
CONTINUOUS
10
138.251
20
-84.7105
11
138.098
21
-84.8355
0
LINE
8
BLACK
6
CONTINUOUS
10
138.098
20
-84.8355
11
137.925
21
-84.9283
0
LINE
8
BLACK
6
CONTINUOUS
10
137.925
20
-84.9283
11
137.736
21
-84.9855
0
LINE
8
BLACK
6
CONTINUOUS
10
137.736
20
-84.9855
11
137.54
21
-85.0048
0
LINE
8
BLACK
6
CONTINUOUS
10
137.54
20
-85.0048
11
137.344
21
-84.9855
0
LINE
8
BLACK
6
CONTINUOUS
10
137.344
20
-84.9855
11
137.155
21
-84.9283
0
LINE
8
BLACK
6
CONTINUOUS
10
137.155
20
-84.9283
11
136.982
21
-84.8355
0
LINE
8
BLACK
6
CONTINUOUS
10
136.982
20
-84.8355
11
136.829
21
-84.7105
0
LINE
8
BLACK
6
CONTINUOUS
10
136.829
20
-84.7105
11
136.705
21
-84.5583
0
LINE
8
BLACK
6
CONTINUOUS
10
136.705
20
-84.5583
11
136.612
21
-84.3845
0
LINE
8
BLACK
6
CONTINUOUS
10
136.612
20
-84.3845
11
136.554
21
-84.196
0
LINE
8
BLACK
6
CONTINUOUS
10
136.554
20
-84.196
11
136.54
21
-84.0491
0
LINE
8
BLACK
6
CONTINUOUS
10
136.54
20
-84.0491
11
136.54
21
-82.9542
0
LINE
8
BLACK
6
CONTINUOUS
10
136.54
20
-82.9542
11
136.258
21
-82.6724
0
LINE
8
BLACK
6
CONTINUOUS
10
136.258
20
-82.6724
11
136.165
21
-82.5583
0
LINE
8
BLACK
6
CONTINUOUS
10
136.165
20
-82.5583
11
136.072
21
-82.3845
0
LINE
8
BLACK
6
CONTINUOUS
10
136.072
20
-82.3845
11
136.014
21
-82.196
0
LINE
8
BLACK
6
CONTINUOUS
10
136.014
20
-82.196
11
135.995
21
-82
0
LINE
8
BLACK
6
CONTINUOUS
10
135.995
20
-82
11
136.014
21
-81.804
0
LINE
8
BLACK
6
CONTINUOUS
10
136.014
20
-81.804
11
136.034
21
-81.7408
0
LINE
8
BLACK
6
CONTINUOUS
10
136.034
20
-81.7408
11
135.793
21
-81.5
0
LINE
8
BLACK
6
CONTINUOUS
10
135.793
20
-81.5
11
130.207
21
-81.5
0
LINE
8
BLACK
6
CONTINUOUS
10
130.207
20
-81.5
11
127.5
21
-84.2071
0
LINE
8
BLACK
6
CONTINUOUS
10
127.5
20
-84.2071
11
127.5
21
-87.1334
0
LINE
8
BLACK
6
CONTINUOUS
10
127.5
20
-87.1334
11
127.558
21
-87.1645
0
LINE
8
BLACK
6
CONTINUOUS
10
127.558
20
-87.1645
11
127.711
21
-87.2895
0
LINE
8
BLACK
6
CONTINUOUS
10
127.711
20
-87.2895
11
127.835
21
-87.4417
0
LINE
8
BLACK
6
CONTINUOUS
10
127.835
20
-87.4417
11
127.928
21
-87.6155
0
LINE
8
BLACK
6
CONTINUOUS
10
127.928
20
-87.6155
11
127.986
21
-87.804
0
LINE
8
BLACK
6
CONTINUOUS
10
127.986
20
-87.804
11
128
21
-87.9509
0
LINE
8
BLACK
6
CONTINUOUS
10
128
20
-87.9509
11
128
21
-89.0491
0
LINE
8
BLACK
6
CONTINUOUS
10
128
20
-89.0491
11
127.986
21
-89.196
0
LINE
8
BLACK
6
CONTINUOUS
10
127.986
20
-89.196
11
127.928
21
-89.3845
0
LINE
8
BLACK
6
CONTINUOUS
10
127.928
20
-89.3845
11
127.835
21
-89.5583
0
LINE
8
BLACK
6
CONTINUOUS
10
127.835
20
-89.5583
11
127.711
21
-89.7105
0
LINE
8
BLACK
6
CONTINUOUS
10
127.711
20
-89.7105
11
127.558
21
-89.8355
0
LINE
8
BLACK
6
CONTINUOUS
10
127.558
20
-89.8355
11
127.385
21
-89.9283
0
LINE
8
BLACK
6
CONTINUOUS
10
127.385
20
-89.9283
11
127.196
21
-89.9855
0
LINE
8
BLACK
6
CONTINUOUS
10
127.196
20
-89.9855
11
127
21
-90.0048
0
LINE
8
BLACK
6
CONTINUOUS
10
127
20
-90.0048
11
126.804
21
-89.9855
0
LINE
8
BLACK
6
CONTINUOUS
10
126.804
20
-89.9855
11
126.615
21
-89.9283
0
LINE
8
BLACK
6
CONTINUOUS
10
126.615
20
-89.9283
11
126.442
21
-89.8355
0
LINE
8
BLACK
6
CONTINUOUS
10
126.442
20
-89.8355
11
126.289
21
-89.7105
0
LINE
8
BLACK
6
CONTINUOUS
10
126.289
20
-89.7105
11
126.165
21
-89.5583
0
LINE
8
BLACK
6
CONTINUOUS
10
126.165
20
-89.5583
11
126.072
21
-89.3845
0
LINE
8
BLACK
6
CONTINUOUS
10
126.072
20
-89.3845
11
126.014
21
-89.196
0
LINE
8
BLACK
6
CONTINUOUS
10
126.014
20
-89.196
11
126
21
-89.0491
0
LINE
8
BLACK
6
CONTINUOUS
10
126
20
-89.0491
11
126
21
-87.9509
0
LINE
8
BLACK
6
CONTINUOUS
10
126
20
-87.9509
11
126.014
21
-87.804
0
LINE
8
BLACK
6
CONTINUOUS
10
126.014
20
-87.804
11
126.072
21
-87.6155
0
LINE
8
BLACK
6
CONTINUOUS
10
126.072
20
-87.6155
11
126.165
21
-87.4417
0
LINE
8
BLACK
6
CONTINUOUS
10
126.165
20
-87.4417
11
126.289
21
-87.2895
0
LINE
8
BLACK
6
CONTINUOUS
10
126.289
20
-87.2895
11
126.442
21
-87.1645
0
LINE
8
BLACK
6
CONTINUOUS
10
126.442
20
-87.1645
11
126.5
21
-87.1334
0
LINE
8
BLACK
6
CONTINUOUS
10
126.5
20
-87.1334
11
126.5
21
-84.0246
0
LINE
8
BLACK
6
CONTINUOUS
10
126.5
20
-84.0246
11
126.498
21
-84
0
LINE
8
BLACK
6
CONTINUOUS
10
126.498
20
-84
11
126.507
21
-83.902
0
LINE
8
BLACK
6
CONTINUOUS
10
126.507
20
-83.902
11
126.516
21
-83.8734
0
LINE
8
BLACK
6
CONTINUOUS
10
126.516
20
-83.8734
11
126.536
21
-83.8077
0
LINE
8
BLACK
6
CONTINUOUS
10
126.536
20
-83.8077
11
126.582
21
-83.7209
0
LINE
8
BLACK
6
CONTINUOUS
10
126.582
20
-83.7209
11
126.645
21
-83.6447
0
LINE
8
BLACK
6
CONTINUOUS
10
126.645
20
-83.6447
11
126.664
21
-83.6291
0
LINE
8
BLACK
6
CONTINUOUS
10
126.664
20
-83.6291
11
129.629
21
-80.6638
0
LINE
8
BLACK
6
CONTINUOUS
10
129.629
20
-80.6638
11
129.645
21
-80.6447
0
LINE
8
BLACK
6
CONTINUOUS
10
129.645
20
-80.6447
11
129.721
21
-80.5823
0
LINE
8
BLACK
6
CONTINUOUS
10
129.721
20
-80.5823
11
129.808
21
-80.5358
0
LINE
8
BLACK
6
CONTINUOUS
10
129.808
20
-80.5358
11
129.902
21
-80.5072
0
LINE
8
BLACK
6
CONTINUOUS
10
129.902
20
-80.5072
11
129.975
21
-80.5
0
LINE
8
BLACK
6
CONTINUOUS
10
129.975
20
-80.5
11
130
21
-80.4976
0
LINE
8
BLACK
6
CONTINUOUS
10
130
20
-80.4976
11
130.025
21
-80.5
0
LINE
8
BLACK
6
CONTINUOUS
10
130.025
20
-80.5
11
135.975
21
-80.5
0
LINE
8
BLACK
6
CONTINUOUS
10
135.975
20
-80.5
11
136
21
-80.4976
0
LINE
8
BLACK
6
CONTINUOUS
10
136
20
-80.4976
11
136.025
21
-80.5
0
LINE
8
BLACK
6
CONTINUOUS
10
136.025
20
-80.5
11
136.098
21
-80.5072
0
LINE
8
BLACK
6
CONTINUOUS
10
136.098
20
-80.5072
11
136.192
21
-80.5358
0
LINE
8
BLACK
6
CONTINUOUS
10
136.192
20
-80.5358
11
136.279
21
-80.5823
0
LINE
8
BLACK
6
CONTINUOUS
10
136.279
20
-80.5823
11
136.355
21
-80.6447
0
LINE
8
BLACK
6
CONTINUOUS
10
136.355
20
-80.6447
11
136.371
21
-80.6638
0
LINE
8
BLACK
6
CONTINUOUS
10
136.371
20
-80.6638
11
136.741
21
-81.0336
0
LINE
8
BLACK
6
CONTINUOUS
10
136.741
20
-81.0336
11
136.804
21
-81.0145
0
LINE
8
BLACK
6
CONTINUOUS
10
136.804
20
-81.0145
11
137
21
-80.9952
0
LINE
8
BLACK
6
CONTINUOUS
10
137
20
-80.9952
11
137.196
21
-81.0145
0
LINE
8
BLACK
6
CONTINUOUS
10
137.196
20
-81.0145
11
137.385
21
-81.0717
0
LINE
8
BLACK
6
CONTINUOUS
10
137.385
20
-81.0717
11
137.558
21
-81.1645
0
LINE
8
BLACK
6
CONTINUOUS
10
137.558
20
-81.1645
11
137.672
21
-81.2582
0
LINE
8
BLACK
6
CONTINUOUS
10
137.672
20
-81.2582
11
138.212
21
-81.7982
0
LINE
8
BLACK
6
CONTINUOUS
10
138.212
20
-81.7982
11
138.251
21
-81.8295
0
LINE
8
BLACK
6
CONTINUOUS
10
138.251
20
-81.8295
11
138.375
21
-81.9817
0
LINE
8
BLACK
6
CONTINUOUS
10
138.375
20
-81.9817
11
138.468
21
-82.1555
0
LINE
8
BLACK
6
CONTINUOUS
10
138.468
20
-82.1555
11
138.526
21
-82.344
0
LINE
8
BLACK
6
CONTINUOUS
10
138.526
20
-82.344
11
138.54
21
-82.4909
0
LINE
8
BLACK
6
CONTINUOUS
10
138.54
20
-82.4909
11
138.545
21
-82.54
0
LINE
8
BLACK
6
CONTINUOUS
10
138.545
20
-82.54
11
138.54
21
-82.5891
0
LINE
8
BLACK
6
CONTINUOUS
10
138.54
20
-82.5891
11
138.54
21
-84.0491
0
LINE
8
BLACK
6
CONTINUOUS
10
138.54
20
-84.0491
11
138.526
21
-84.196
0
LINE
8
BLACK
6
CONTINUOUS
10
135.248
20
-83.1827
11
135.403
21
-83.2467
0
LINE
8
BLACK
6
CONTINUOUS
10
135.403
20
-83.2467
11
135.542
21
-83.3398
0
LINE
8
BLACK
6
CONTINUOUS
10
135.542
20
-83.3398
11
135.66
21
-83.4582
0
LINE
8
BLACK
6
CONTINUOUS
10
135.66
20
-83.4582
11
135.753
21
-83.5974
0
LINE
8
BLACK
6
CONTINUOUS
10
135.753
20
-83.5974
11
135.817
21
-83.7521
0
LINE
8
BLACK
6
CONTINUOUS
10
135.817
20
-83.7521
11
135.85
21
-83.9163
0
LINE
8
BLACK
6
CONTINUOUS
10
135.85
20
-83.9163
11
135.85
21
-84.0837
0
LINE
8
BLACK
6
CONTINUOUS
10
135.85
20
-84.0837
11
135.817
21
-84.2479
0
LINE
8
BLACK
6
CONTINUOUS
10
135.817
20
-84.2479
11
135.753
21
-84.4026
0
LINE
8
BLACK
6
CONTINUOUS
10
135.753
20
-84.4026
11
135.66
21
-84.5418
0
LINE
8
BLACK
6
CONTINUOUS
10
135.66
20
-84.5418
11
135.542
21
-84.6602
0
LINE
8
BLACK
6
CONTINUOUS
10
135.542
20
-84.6602
11
135.403
21
-84.7533
0
LINE
8
BLACK
6
CONTINUOUS
10
135.403
20
-84.7533
11
135.248
21
-84.8173
0
LINE
8
BLACK
6
CONTINUOUS
10
135.248
20
-84.8173
11
135.084
21
-84.85
0
LINE
8
BLACK
6
CONTINUOUS
10
135.084
20
-84.85
11
134.916
21
-84.85
0
LINE
8
BLACK
6
CONTINUOUS
10
134.916
20
-84.85
11
134.752
21
-84.8173
0
LINE
8
BLACK
6
CONTINUOUS
10
134.752
20
-84.8173
11
134.597
21
-84.7533
0
LINE
8
BLACK
6
CONTINUOUS
10
134.597
20
-84.7533
11
134.458
21
-84.6602
0
LINE
8
BLACK
6
CONTINUOUS
10
134.458
20
-84.6602
11
134.34
21
-84.5418
0
LINE
8
BLACK
6
CONTINUOUS
10
134.34
20
-84.5418
11
134.247
21
-84.4026
0
LINE
8
BLACK
6
CONTINUOUS
10
134.247
20
-84.4026
11
134.183
21
-84.2479
0
LINE
8
BLACK
6
CONTINUOUS
10
134.183
20
-84.2479
11
134.15
21
-84.0837
0
LINE
8
BLACK
6
CONTINUOUS
10
134.15
20
-84.0837
11
134.15
21
-83.9163
0
LINE
8
BLACK
6
CONTINUOUS
10
134.15
20
-83.9163
11
134.183
21
-83.7521
0
LINE
8
BLACK
6
CONTINUOUS
10
134.183
20
-83.7521
11
134.247
21
-83.5974
0
LINE
8
BLACK
6
CONTINUOUS
10
134.247
20
-83.5974
11
134.34
21
-83.4582
0
LINE
8
BLACK
6
CONTINUOUS
10
134.34
20
-83.4582
11
134.458
21
-83.3398
0
LINE
8
BLACK
6
CONTINUOUS
10
134.458
20
-83.3398
11
134.597
21
-83.2467
0
LINE
8
BLACK
6
CONTINUOUS
10
134.597
20
-83.2467
11
134.752
21
-83.1827
0
LINE
8
BLACK
6
CONTINUOUS
10
134.752
20
-83.1827
11
134.916
21
-83.15
0
LINE
8
BLACK
6
CONTINUOUS
10
134.916
20
-83.15
11
135.084
21
-83.15
0
LINE
8
BLACK
6
CONTINUOUS
10
135.084
20
-83.15
11
135.248
21
-83.1827
0
CIRCLE
8
BLACK
10
133.38
20
-115
40
0.175
0
CIRCLE
8
BLACK
10
141
20
-92.14
40
0.175
0
CIRCLE
8
BLACK
10
133.38
20
-112.46
40
0.175
0
CIRCLE
8
BLACK
10
141
20
-94.68
40
0.175
0
CIRCLE
8
BLACK
10
133.38
20
-109.92
40
0.175
0
CIRCLE
8
BLACK
10
141
20
-97.22
40
0.175
0
CIRCLE
8
BLACK
10
133.38
20
-107.38
40
0.175
0
CIRCLE
8
BLACK
10
141
20
-99.76
40
0.175
0
CIRCLE
8
BLACK
10
133.38
20
-104.84
40
0.175
0
CIRCLE
8
BLACK
10
141
20
-102.3
40
0.175
0
CIRCLE
8
BLACK
10
133.38
20
-102.3
40
0.175
0
CIRCLE
8
BLACK
10
141
20
-104.84
40
0.175
0
CIRCLE
8
BLACK
10
133.38
20
-99.76
40
0.175
0
CIRCLE
8
BLACK
10
141
20
-107.38
40
0.175
0
CIRCLE
8
BLACK
10
133.38
20
-97.22
40
0.175
0
CIRCLE
8
BLACK
10
141
20
-109.92
40
0.175
0
CIRCLE
8
BLACK
10
133.38
20
-94.68
40
0.175
0
CIRCLE
8
BLACK
10
141
20
-112.46
40
0.175
0
CIRCLE
8
BLACK
10
133.38
20
-92.14
40
0.175
0
CIRCLE
8
BLACK
10
141
20
-115
40
0.175
0
CIRCLE
8
BLACK
10
142.62
20
-86.54
40
0.175
0
CIRCLE
8
BLACK
10
142.62
20
-84
40
0.175
0
CIRCLE
8
BLACK
10
140.08
20
-86.54
40
0.175
0
CIRCLE
8
BLACK
10
140.08
20
-84
40
0.175
0
CIRCLE
8
BLACK
10
137.54
20
-86.54
40
0.175
0
CIRCLE
8
BLACK
10
137.54
20
-84
40
0.175
0
CIRCLE
8
BLACK
10
135
20
-86.54
40
0.175
0
CIRCLE
8
BLACK
10
135
20
-84
40
0.175
0
CIRCLE
8
BLACK
10
132.46
20
-86.54
40
0.175
0
CIRCLE
8
BLACK
10
132.46
20
-84
40
0.175
0
CIRCLE
8
BLACK
10
134
20
-89
40
0.2
0
CIRCLE
8
BLACK
10
127
20
-89
40
0.2
0
CIRCLE
8
BLACK
10
131
20
-105
40
0.2
0
CIRCLE
8
BLACK
10
131
20
-110
40
0.2
  0
ENDSEC
  0
EOF
