  0
SECTION
  2
HEADER
  9
$ANGBASE
  50
0.0
  9
$ANGDIR
  70
1
  9
$MEASUREMENT
  70
1
  0
ENDSEC
  0
SECTION
  2
TABLES
  0
TABLE
  2
LTYPE
  70
4
  0
LTYPE
  5
40F
  2
CONTINUOUS
  70
0
  3
Solid line
  72
65
  73
0
  40
0.0
  0
LTYPE
  5
410
  2
DASHDOT
 70
0
  3
Dash Dot ____ _ ____ _
 72
65
 73
4
 40
2.0
 49
1.25
 49
-0.25
 49
0.25
 49
-0.25
  0
LTYPE
  5
411
  2
DASHED
 70
0
  3
Dashed __ __ __ __ __
 72
65
 73
2
 40
0.75
 49
0.5
 49
-0.25
  0
LTYPE
  5
43B
  2
DOTTED
 70
0
  3
Dotted .  .  .  .
 72
65
 73
2
 40
0.2
 49
0.0
 49
-0.2
  0
ENDTAB
  0
TABLE
  2
STYLE
  70
4
  0
STYLE
  2
KICAD
  70
0
  40
0
  41
1
  42
1
  50
0
  71
0
  3
isocp.shx
  0
STYLE
  2
KICADB
  70
0
  40
0
  41
1
  42
1
  50
0
  71
0
  3
isocp.shx
  0
STYLE
  2
KICADI
  70
0
  40
0
  41
1
  42
1
  50
15
  71
0
  3
isocp.shx
  0
STYLE
  2
KICADBI
  70
0
  40
0
  41
1
  42
1
  50
15
  71
0
  3
isocp.shx
  0
ENDTAB
  0
TABLE
  2
LAYER
  70
1
  0
LAYER
  2
BLACK
  70
0
  62
7
  6
CONTINUOUS
  0
ENDTAB
  0
ENDSEC
  0
SECTION
  2
ENTITIES
0
LINE
8
BLACK
6
CONTINUOUS
10
133.613
20
-114.231
11
133.759
21
-114.291
0
LINE
8
BLACK
6
CONTINUOUS
10
133.759
20
-114.291
11
133.89
21
-114.379
0
LINE
8
BLACK
6
CONTINUOUS
10
133.89
20
-114.379
11
134.001
21
-114.49
0
LINE
8
BLACK
6
CONTINUOUS
10
134.001
20
-114.49
11
134.089
21
-114.621
0
LINE
8
BLACK
6
CONTINUOUS
10
134.089
20
-114.621
11
134.149
21
-114.767
0
LINE
8
BLACK
6
CONTINUOUS
10
134.149
20
-114.767
11
134.18
21
-114.921
0
LINE
8
BLACK
6
CONTINUOUS
10
134.18
20
-114.921
11
134.18
21
-115.079
0
LINE
8
BLACK
6
CONTINUOUS
10
134.18
20
-115.079
11
134.149
21
-115.233
0
LINE
8
BLACK
6
CONTINUOUS
10
134.149
20
-115.233
11
134.089
21
-115.379
0
LINE
8
BLACK
6
CONTINUOUS
10
134.089
20
-115.379
11
134.001
21
-115.51
0
LINE
8
BLACK
6
CONTINUOUS
10
134.001
20
-115.51
11
133.89
21
-115.621
0
LINE
8
BLACK
6
CONTINUOUS
10
133.89
20
-115.621
11
133.759
21
-115.709
0
LINE
8
BLACK
6
CONTINUOUS
10
133.759
20
-115.709
11
133.613
21
-115.769
0
LINE
8
BLACK
6
CONTINUOUS
10
133.613
20
-115.769
11
133.459
21
-115.8
0
LINE
8
BLACK
6
CONTINUOUS
10
133.459
20
-115.8
11
133.301
21
-115.8
0
LINE
8
BLACK
6
CONTINUOUS
10
133.301
20
-115.8
11
133.147
21
-115.769
0
LINE
8
BLACK
6
CONTINUOUS
10
133.147
20
-115.769
11
133.001
21
-115.709
0
LINE
8
BLACK
6
CONTINUOUS
10
133.001
20
-115.709
11
132.87
21
-115.621
0
LINE
8
BLACK
6
CONTINUOUS
10
132.87
20
-115.621
11
132.759
21
-115.51
0
LINE
8
BLACK
6
CONTINUOUS
10
132.759
20
-115.51
11
132.671
21
-115.379
0
LINE
8
BLACK
6
CONTINUOUS
10
132.671
20
-115.379
11
132.611
21
-115.233
0
LINE
8
BLACK
6
CONTINUOUS
10
132.611
20
-115.233
11
132.58
21
-115.079
0
LINE
8
BLACK
6
CONTINUOUS
10
132.58
20
-115.079
11
132.58
21
-114.921
0
LINE
8
BLACK
6
CONTINUOUS
10
132.58
20
-114.921
11
132.611
21
-114.767
0
LINE
8
BLACK
6
CONTINUOUS
10
132.611
20
-114.767
11
132.671
21
-114.621
0
LINE
8
BLACK
6
CONTINUOUS
10
132.671
20
-114.621
11
132.759
21
-114.49
0
LINE
8
BLACK
6
CONTINUOUS
10
132.759
20
-114.49
11
132.87
21
-114.379
0
LINE
8
BLACK
6
CONTINUOUS
10
132.87
20
-114.379
11
133.001
21
-114.291
0
LINE
8
BLACK
6
CONTINUOUS
10
133.001
20
-114.291
11
133.147
21
-114.231
0
LINE
8
BLACK
6
CONTINUOUS
10
133.147
20
-114.231
11
133.301
21
-114.2
0
LINE
8
BLACK
6
CONTINUOUS
10
133.301
20
-114.2
11
133.459
21
-114.2
0
LINE
8
BLACK
6
CONTINUOUS
10
133.459
20
-114.2
11
133.613
21
-114.231
0
LINE
8
BLACK
6
CONTINUOUS
10
141.8
20
-115.8
11
140.2
21
-115.8
0
LINE
8
BLACK
6
CONTINUOUS
10
140.2
20
-115.8
11
140.2
21
-114.2
0
LINE
8
BLACK
6
CONTINUOUS
10
140.2
20
-114.2
11
141.8
21
-114.2
0
LINE
8
BLACK
6
CONTINUOUS
10
141.8
20
-114.2
11
141.8
21
-115.8
0
LINE
8
BLACK
6
CONTINUOUS
10
133.613
20
-111.691
11
133.759
21
-111.751
0
LINE
8
BLACK
6
CONTINUOUS
10
133.759
20
-111.751
11
133.89
21
-111.839
0
LINE
8
BLACK
6
CONTINUOUS
10
133.89
20
-111.839
11
134.001
21
-111.95
0
LINE
8
BLACK
6
CONTINUOUS
10
134.001
20
-111.95
11
134.089
21
-112.081
0
LINE
8
BLACK
6
CONTINUOUS
10
134.089
20
-112.081
11
134.149
21
-112.227
0
LINE
8
BLACK
6
CONTINUOUS
10
134.149
20
-112.227
11
134.18
21
-112.381
0
LINE
8
BLACK
6
CONTINUOUS
10
134.18
20
-112.381
11
134.18
21
-112.539
0
LINE
8
BLACK
6
CONTINUOUS
10
134.18
20
-112.539
11
134.149
21
-112.693
0
LINE
8
BLACK
6
CONTINUOUS
10
134.149
20
-112.693
11
134.089
21
-112.839
0
LINE
8
BLACK
6
CONTINUOUS
10
134.089
20
-112.839
11
134.001
21
-112.97
0
LINE
8
BLACK
6
CONTINUOUS
10
134.001
20
-112.97
11
133.89
21
-113.081
0
LINE
8
BLACK
6
CONTINUOUS
10
133.89
20
-113.081
11
133.759
21
-113.169
0
LINE
8
BLACK
6
CONTINUOUS
10
133.759
20
-113.169
11
133.613
21
-113.229
0
LINE
8
BLACK
6
CONTINUOUS
10
133.613
20
-113.229
11
133.459
21
-113.26
0
LINE
8
BLACK
6
CONTINUOUS
10
133.459
20
-113.26
11
133.301
21
-113.26
0
LINE
8
BLACK
6
CONTINUOUS
10
133.301
20
-113.26
11
133.147
21
-113.229
0
LINE
8
BLACK
6
CONTINUOUS
10
133.147
20
-113.229
11
133.001
21
-113.169
0
LINE
8
BLACK
6
CONTINUOUS
10
133.001
20
-113.169
11
132.87
21
-113.081
0
LINE
8
BLACK
6
CONTINUOUS
10
132.87
20
-113.081
11
132.759
21
-112.97
0
LINE
8
BLACK
6
CONTINUOUS
10
132.759
20
-112.97
11
132.671
21
-112.839
0
LINE
8
BLACK
6
CONTINUOUS
10
132.671
20
-112.839
11
132.611
21
-112.693
0
LINE
8
BLACK
6
CONTINUOUS
10
132.611
20
-112.693
11
132.58
21
-112.539
0
LINE
8
BLACK
6
CONTINUOUS
10
132.58
20
-112.539
11
132.58
21
-112.381
0
LINE
8
BLACK
6
CONTINUOUS
10
132.58
20
-112.381
11
132.611
21
-112.227
0
LINE
8
BLACK
6
CONTINUOUS
10
132.611
20
-112.227
11
132.671
21
-112.081
0
LINE
8
BLACK
6
CONTINUOUS
10
132.671
20
-112.081
11
132.759
21
-111.95
0
LINE
8
BLACK
6
CONTINUOUS
10
132.759
20
-111.95
11
132.87
21
-111.839
0
LINE
8
BLACK
6
CONTINUOUS
10
132.87
20
-111.839
11
133.001
21
-111.751
0
LINE
8
BLACK
6
CONTINUOUS
10
133.001
20
-111.751
11
133.147
21
-111.691
0
LINE
8
BLACK
6
CONTINUOUS
10
133.147
20
-111.691
11
133.301
21
-111.66
0
LINE
8
BLACK
6
CONTINUOUS
10
133.301
20
-111.66
11
133.459
21
-111.66
0
LINE
8
BLACK
6
CONTINUOUS
10
133.459
20
-111.66
11
133.613
21
-111.691
0
LINE
8
BLACK
6
CONTINUOUS
10
141.233
20
-111.691
11
141.379
21
-111.751
0
LINE
8
BLACK
6
CONTINUOUS
10
141.379
20
-111.751
11
141.51
21
-111.839
0
LINE
8
BLACK
6
CONTINUOUS
10
141.51
20
-111.839
11
141.621
21
-111.95
0
LINE
8
BLACK
6
CONTINUOUS
10
141.621
20
-111.95
11
141.709
21
-112.081
0
LINE
8
BLACK
6
CONTINUOUS
10
141.709
20
-112.081
11
141.769
21
-112.227
0
LINE
8
BLACK
6
CONTINUOUS
10
141.769
20
-112.227
11
141.8
21
-112.381
0
LINE
8
BLACK
6
CONTINUOUS
10
141.8
20
-112.381
11
141.8
21
-112.539
0
LINE
8
BLACK
6
CONTINUOUS
10
141.8
20
-112.539
11
141.769
21
-112.693
0
LINE
8
BLACK
6
CONTINUOUS
10
141.769
20
-112.693
11
141.709
21
-112.839
0
LINE
8
BLACK
6
CONTINUOUS
10
141.709
20
-112.839
11
141.621
21
-112.97
0
LINE
8
BLACK
6
CONTINUOUS
10
141.621
20
-112.97
11
141.51
21
-113.081
0
LINE
8
BLACK
6
CONTINUOUS
10
141.51
20
-113.081
11
141.379
21
-113.169
0
LINE
8
BLACK
6
CONTINUOUS
10
141.379
20
-113.169
11
141.233
21
-113.229
0
LINE
8
BLACK
6
CONTINUOUS
10
141.233
20
-113.229
11
141.079
21
-113.26
0
LINE
8
BLACK
6
CONTINUOUS
10
141.079
20
-113.26
11
140.921
21
-113.26
0
LINE
8
BLACK
6
CONTINUOUS
10
140.921
20
-113.26
11
140.767
21
-113.229
0
LINE
8
BLACK
6
CONTINUOUS
10
140.767
20
-113.229
11
140.621
21
-113.169
0
LINE
8
BLACK
6
CONTINUOUS
10
140.621
20
-113.169
11
140.49
21
-113.081
0
LINE
8
BLACK
6
CONTINUOUS
10
140.49
20
-113.081
11
140.379
21
-112.97
0
LINE
8
BLACK
6
CONTINUOUS
10
140.379
20
-112.97
11
140.291
21
-112.839
0
LINE
8
BLACK
6
CONTINUOUS
10
140.291
20
-112.839
11
140.231
21
-112.693
0
LINE
8
BLACK
6
CONTINUOUS
10
140.231
20
-112.693
11
140.2
21
-112.539
0
LINE
8
BLACK
6
CONTINUOUS
10
140.2
20
-112.539
11
140.2
21
-112.381
0
LINE
8
BLACK
6
CONTINUOUS
10
140.2
20
-112.381
11
140.231
21
-112.227
0
LINE
8
BLACK
6
CONTINUOUS
10
140.231
20
-112.227
11
140.291
21
-112.081
0
LINE
8
BLACK
6
CONTINUOUS
10
140.291
20
-112.081
11
140.379
21
-111.95
0
LINE
8
BLACK
6
CONTINUOUS
10
140.379
20
-111.95
11
140.49
21
-111.839
0
LINE
8
BLACK
6
CONTINUOUS
10
140.49
20
-111.839
11
140.621
21
-111.751
0
LINE
8
BLACK
6
CONTINUOUS
10
140.621
20
-111.751
11
140.767
21
-111.691
0
LINE
8
BLACK
6
CONTINUOUS
10
140.767
20
-111.691
11
140.921
21
-111.66
0
LINE
8
BLACK
6
CONTINUOUS
10
140.921
20
-111.66
11
141.079
21
-111.66
0
LINE
8
BLACK
6
CONTINUOUS
10
141.079
20
-111.66
11
141.233
21
-111.691
0
LINE
8
BLACK
6
CONTINUOUS
10
133.613
20
-109.151
11
133.759
21
-109.211
0
LINE
8
BLACK
6
CONTINUOUS
10
133.759
20
-109.211
11
133.89
21
-109.299
0
LINE
8
BLACK
6
CONTINUOUS
10
133.89
20
-109.299
11
134.001
21
-109.41
0
LINE
8
BLACK
6
CONTINUOUS
10
134.001
20
-109.41
11
134.089
21
-109.541
0
LINE
8
BLACK
6
CONTINUOUS
10
134.089
20
-109.541
11
134.149
21
-109.687
0
LINE
8
BLACK
6
CONTINUOUS
10
134.149
20
-109.687
11
134.18
21
-109.841
0
LINE
8
BLACK
6
CONTINUOUS
10
134.18
20
-109.841
11
134.18
21
-109.999
0
LINE
8
BLACK
6
CONTINUOUS
10
134.18
20
-109.999
11
134.149
21
-110.153
0
LINE
8
BLACK
6
CONTINUOUS
10
134.149
20
-110.153
11
134.089
21
-110.299
0
LINE
8
BLACK
6
CONTINUOUS
10
134.089
20
-110.299
11
134.001
21
-110.43
0
LINE
8
BLACK
6
CONTINUOUS
10
134.001
20
-110.43
11
133.89
21
-110.541
0
LINE
8
BLACK
6
CONTINUOUS
10
133.89
20
-110.541
11
133.759
21
-110.629
0
LINE
8
BLACK
6
CONTINUOUS
10
133.759
20
-110.629
11
133.613
21
-110.689
0
LINE
8
BLACK
6
CONTINUOUS
10
133.613
20
-110.689
11
133.459
21
-110.72
0
LINE
8
BLACK
6
CONTINUOUS
10
133.459
20
-110.72
11
133.301
21
-110.72
0
LINE
8
BLACK
6
CONTINUOUS
10
133.301
20
-110.72
11
133.147
21
-110.689
0
LINE
8
BLACK
6
CONTINUOUS
10
133.147
20
-110.689
11
133.001
21
-110.629
0
LINE
8
BLACK
6
CONTINUOUS
10
133.001
20
-110.629
11
132.87
21
-110.541
0
LINE
8
BLACK
6
CONTINUOUS
10
132.87
20
-110.541
11
132.759
21
-110.43
0
LINE
8
BLACK
6
CONTINUOUS
10
132.759
20
-110.43
11
132.671
21
-110.299
0
LINE
8
BLACK
6
CONTINUOUS
10
132.671
20
-110.299
11
132.611
21
-110.153
0
LINE
8
BLACK
6
CONTINUOUS
10
132.611
20
-110.153
11
132.58
21
-109.999
0
LINE
8
BLACK
6
CONTINUOUS
10
132.58
20
-109.999
11
132.58
21
-109.841
0
LINE
8
BLACK
6
CONTINUOUS
10
132.58
20
-109.841
11
132.611
21
-109.687
0
LINE
8
BLACK
6
CONTINUOUS
10
132.611
20
-109.687
11
132.671
21
-109.541
0
LINE
8
BLACK
6
CONTINUOUS
10
132.671
20
-109.541
11
132.759
21
-109.41
0
LINE
8
BLACK
6
CONTINUOUS
10
132.759
20
-109.41
11
132.87
21
-109.299
0
LINE
8
BLACK
6
CONTINUOUS
10
132.87
20
-109.299
11
133.001
21
-109.211
0
LINE
8
BLACK
6
CONTINUOUS
10
133.001
20
-109.211
11
133.147
21
-109.151
0
LINE
8
BLACK
6
CONTINUOUS
10
133.147
20
-109.151
11
133.301
21
-109.12
0
LINE
8
BLACK
6
CONTINUOUS
10
133.301
20
-109.12
11
133.459
21
-109.12
0
LINE
8
BLACK
6
CONTINUOUS
10
133.459
20
-109.12
11
133.613
21
-109.151
0
LINE
8
BLACK
6
CONTINUOUS
10
141.233
20
-109.151
11
141.379
21
-109.211
0
LINE
8
BLACK
6
CONTINUOUS
10
141.379
20
-109.211
11
141.51
21
-109.299
0
LINE
8
BLACK
6
CONTINUOUS
10
141.51
20
-109.299
11
141.621
21
-109.41
0
LINE
8
BLACK
6
CONTINUOUS
10
141.621
20
-109.41
11
141.709
21
-109.541
0
LINE
8
BLACK
6
CONTINUOUS
10
141.709
20
-109.541
11
141.769
21
-109.687
0
LINE
8
BLACK
6
CONTINUOUS
10
141.769
20
-109.687
11
141.8
21
-109.841
0
LINE
8
BLACK
6
CONTINUOUS
10
141.8
20
-109.841
11
141.8
21
-109.999
0
LINE
8
BLACK
6
CONTINUOUS
10
141.8
20
-109.999
11
141.769
21
-110.153
0
LINE
8
BLACK
6
CONTINUOUS
10
141.769
20
-110.153
11
141.709
21
-110.299
0
LINE
8
BLACK
6
CONTINUOUS
10
141.709
20
-110.299
11
141.621
21
-110.43
0
LINE
8
BLACK
6
CONTINUOUS
10
141.621
20
-110.43
11
141.51
21
-110.541
0
LINE
8
BLACK
6
CONTINUOUS
10
141.51
20
-110.541
11
141.379
21
-110.629
0
LINE
8
BLACK
6
CONTINUOUS
10
141.379
20
-110.629
11
141.233
21
-110.689
0
LINE
8
BLACK
6
CONTINUOUS
10
141.233
20
-110.689
11
141.079
21
-110.72
0
LINE
8
BLACK
6
CONTINUOUS
10
141.079
20
-110.72
11
140.921
21
-110.72
0
LINE
8
BLACK
6
CONTINUOUS
10
140.921
20
-110.72
11
140.767
21
-110.689
0
LINE
8
BLACK
6
CONTINUOUS
10
140.767
20
-110.689
11
140.621
21
-110.629
0
LINE
8
BLACK
6
CONTINUOUS
10
140.621
20
-110.629
11
140.49
21
-110.541
0
LINE
8
BLACK
6
CONTINUOUS
10
140.49
20
-110.541
11
140.379
21
-110.43
0
LINE
8
BLACK
6
CONTINUOUS
10
140.379
20
-110.43
11
140.291
21
-110.299
0
LINE
8
BLACK
6
CONTINUOUS
10
140.291
20
-110.299
11
140.231
21
-110.153
0
LINE
8
BLACK
6
CONTINUOUS
10
140.231
20
-110.153
11
140.2
21
-109.999
0
LINE
8
BLACK
6
CONTINUOUS
10
140.2
20
-109.999
11
140.2
21
-109.841
0
LINE
8
BLACK
6
CONTINUOUS
10
140.2
20
-109.841
11
140.231
21
-109.687
0
LINE
8
BLACK
6
CONTINUOUS
10
140.231
20
-109.687
11
140.291
21
-109.541
0
LINE
8
BLACK
6
CONTINUOUS
10
140.291
20
-109.541
11
140.379
21
-109.41
0
LINE
8
BLACK
6
CONTINUOUS
10
140.379
20
-109.41
11
140.49
21
-109.299
0
LINE
8
BLACK
6
CONTINUOUS
10
140.49
20
-109.299
11
140.621
21
-109.211
0
LINE
8
BLACK
6
CONTINUOUS
10
140.621
20
-109.211
11
140.767
21
-109.151
0
LINE
8
BLACK
6
CONTINUOUS
10
140.767
20
-109.151
11
140.921
21
-109.12
0
LINE
8
BLACK
6
CONTINUOUS
10
140.921
20
-109.12
11
141.079
21
-109.12
0
LINE
8
BLACK
6
CONTINUOUS
10
141.079
20
-109.12
11
141.233
21
-109.151
0
LINE
8
BLACK
6
CONTINUOUS
10
133.613
20
-106.611
11
133.759
21
-106.671
0
LINE
8
BLACK
6
CONTINUOUS
10
133.759
20
-106.671
11
133.89
21
-106.759
0
LINE
8
BLACK
6
CONTINUOUS
10
133.89
20
-106.759
11
134.001
21
-106.87
0
LINE
8
BLACK
6
CONTINUOUS
10
134.001
20
-106.87
11
134.089
21
-107.001
0
LINE
8
BLACK
6
CONTINUOUS
10
134.089
20
-107.001
11
134.149
21
-107.147
0
LINE
8
BLACK
6
CONTINUOUS
10
134.149
20
-107.147
11
134.18
21
-107.301
0
LINE
8
BLACK
6
CONTINUOUS
10
134.18
20
-107.301
11
134.18
21
-107.459
0
LINE
8
BLACK
6
CONTINUOUS
10
134.18
20
-107.459
11
134.149
21
-107.613
0
LINE
8
BLACK
6
CONTINUOUS
10
134.149
20
-107.613
11
134.089
21
-107.759
0
LINE
8
BLACK
6
CONTINUOUS
10
134.089
20
-107.759
11
134.001
21
-107.89
0
LINE
8
BLACK
6
CONTINUOUS
10
134.001
20
-107.89
11
133.89
21
-108.001
0
LINE
8
BLACK
6
CONTINUOUS
10
133.89
20
-108.001
11
133.759
21
-108.089
0
LINE
8
BLACK
6
CONTINUOUS
10
133.759
20
-108.089
11
133.613
21
-108.149
0
LINE
8
BLACK
6
CONTINUOUS
10
133.613
20
-108.149
11
133.459
21
-108.18
0
LINE
8
BLACK
6
CONTINUOUS
10
133.459
20
-108.18
11
133.301
21
-108.18
0
LINE
8
BLACK
6
CONTINUOUS
10
133.301
20
-108.18
11
133.147
21
-108.149
0
LINE
8
BLACK
6
CONTINUOUS
10
133.147
20
-108.149
11
133.001
21
-108.089
0
LINE
8
BLACK
6
CONTINUOUS
10
133.001
20
-108.089
11
132.87
21
-108.001
0
LINE
8
BLACK
6
CONTINUOUS
10
132.87
20
-108.001
11
132.759
21
-107.89
0
LINE
8
BLACK
6
CONTINUOUS
10
132.759
20
-107.89
11
132.671
21
-107.759
0
LINE
8
BLACK
6
CONTINUOUS
10
132.671
20
-107.759
11
132.611
21
-107.613
0
LINE
8
BLACK
6
CONTINUOUS
10
132.611
20
-107.613
11
132.58
21
-107.459
0
LINE
8
BLACK
6
CONTINUOUS
10
132.58
20
-107.459
11
132.58
21
-107.301
0
LINE
8
BLACK
6
CONTINUOUS
10
132.58
20
-107.301
11
132.611
21
-107.147
0
LINE
8
BLACK
6
CONTINUOUS
10
132.611
20
-107.147
11
132.671
21
-107.001
0
LINE
8
BLACK
6
CONTINUOUS
10
132.671
20
-107.001
11
132.759
21
-106.87
0
LINE
8
BLACK
6
CONTINUOUS
10
132.759
20
-106.87
11
132.87
21
-106.759
0
LINE
8
BLACK
6
CONTINUOUS
10
132.87
20
-106.759
11
133.001
21
-106.671
0
LINE
8
BLACK
6
CONTINUOUS
10
133.001
20
-106.671
11
133.147
21
-106.611
0
LINE
8
BLACK
6
CONTINUOUS
10
133.147
20
-106.611
11
133.301
21
-106.58
0
LINE
8
BLACK
6
CONTINUOUS
10
133.301
20
-106.58
11
133.459
21
-106.58
0
LINE
8
BLACK
6
CONTINUOUS
10
133.459
20
-106.58
11
133.613
21
-106.611
0
LINE
8
BLACK
6
CONTINUOUS
10
141.233
20
-106.611
11
141.379
21
-106.671
0
LINE
8
BLACK
6
CONTINUOUS
10
141.379
20
-106.671
11
141.51
21
-106.759
0
LINE
8
BLACK
6
CONTINUOUS
10
141.51
20
-106.759
11
141.621
21
-106.87
0
LINE
8
BLACK
6
CONTINUOUS
10
141.621
20
-106.87
11
141.709
21
-107.001
0
LINE
8
BLACK
6
CONTINUOUS
10
141.709
20
-107.001
11
141.769
21
-107.147
0
LINE
8
BLACK
6
CONTINUOUS
10
141.769
20
-107.147
11
141.8
21
-107.301
0
LINE
8
BLACK
6
CONTINUOUS
10
141.8
20
-107.301
11
141.8
21
-107.459
0
LINE
8
BLACK
6
CONTINUOUS
10
141.8
20
-107.459
11
141.769
21
-107.613
0
LINE
8
BLACK
6
CONTINUOUS
10
141.769
20
-107.613
11
141.709
21
-107.759
0
LINE
8
BLACK
6
CONTINUOUS
10
141.709
20
-107.759
11
141.621
21
-107.89
0
LINE
8
BLACK
6
CONTINUOUS
10
141.621
20
-107.89
11
141.51
21
-108.001
0
LINE
8
BLACK
6
CONTINUOUS
10
141.51
20
-108.001
11
141.379
21
-108.089
0
LINE
8
BLACK
6
CONTINUOUS
10
141.379
20
-108.089
11
141.233
21
-108.149
0
LINE
8
BLACK
6
CONTINUOUS
10
141.233
20
-108.149
11
141.079
21
-108.18
0
LINE
8
BLACK
6
CONTINUOUS
10
141.079
20
-108.18
11
140.921
21
-108.18
0
LINE
8
BLACK
6
CONTINUOUS
10
140.921
20
-108.18
11
140.767
21
-108.149
0
LINE
8
BLACK
6
CONTINUOUS
10
140.767
20
-108.149
11
140.621
21
-108.089
0
LINE
8
BLACK
6
CONTINUOUS
10
140.621
20
-108.089
11
140.49
21
-108.001
0
LINE
8
BLACK
6
CONTINUOUS
10
140.49
20
-108.001
11
140.379
21
-107.89
0
LINE
8
BLACK
6
CONTINUOUS
10
140.379
20
-107.89
11
140.291
21
-107.759
0
LINE
8
BLACK
6
CONTINUOUS
10
140.291
20
-107.759
11
140.231
21
-107.613
0
LINE
8
BLACK
6
CONTINUOUS
10
140.231
20
-107.613
11
140.2
21
-107.459
0
LINE
8
BLACK
6
CONTINUOUS
10
140.2
20
-107.459
11
140.2
21
-107.301
0
LINE
8
BLACK
6
CONTINUOUS
10
140.2
20
-107.301
11
140.231
21
-107.147
0
LINE
8
BLACK
6
CONTINUOUS
10
140.231
20
-107.147
11
140.291
21
-107.001
0
LINE
8
BLACK
6
CONTINUOUS
10
140.291
20
-107.001
11
140.379
21
-106.87
0
LINE
8
BLACK
6
CONTINUOUS
10
140.379
20
-106.87
11
140.49
21
-106.759
0
LINE
8
BLACK
6
CONTINUOUS
10
140.49
20
-106.759
11
140.621
21
-106.671
0
LINE
8
BLACK
6
CONTINUOUS
10
140.621
20
-106.671
11
140.767
21
-106.611
0
LINE
8
BLACK
6
CONTINUOUS
10
140.767
20
-106.611
11
140.921
21
-106.58
0
LINE
8
BLACK
6
CONTINUOUS
10
140.921
20
-106.58
11
141.079
21
-106.58
0
LINE
8
BLACK
6
CONTINUOUS
10
141.079
20
-106.58
11
141.233
21
-106.611
0
LINE
8
BLACK
6
CONTINUOUS
10
133.613
20
-104.071
11
133.759
21
-104.131
0
LINE
8
BLACK
6
CONTINUOUS
10
133.759
20
-104.131
11
133.89
21
-104.219
0
LINE
8
BLACK
6
CONTINUOUS
10
133.89
20
-104.219
11
134.001
21
-104.33
0
LINE
8
BLACK
6
CONTINUOUS
10
134.001
20
-104.33
11
134.089
21
-104.461
0
LINE
8
BLACK
6
CONTINUOUS
10
134.089
20
-104.461
11
134.149
21
-104.607
0
LINE
8
BLACK
6
CONTINUOUS
10
134.149
20
-104.607
11
134.18
21
-104.761
0
LINE
8
BLACK
6
CONTINUOUS
10
134.18
20
-104.761
11
134.18
21
-104.919
0
LINE
8
BLACK
6
CONTINUOUS
10
134.18
20
-104.919
11
134.149
21
-105.073
0
LINE
8
BLACK
6
CONTINUOUS
10
134.149
20
-105.073
11
134.089
21
-105.219
0
LINE
8
BLACK
6
CONTINUOUS
10
134.089
20
-105.219
11
134.001
21
-105.35
0
LINE
8
BLACK
6
CONTINUOUS
10
134.001
20
-105.35
11
133.89
21
-105.461
0
LINE
8
BLACK
6
CONTINUOUS
10
133.89
20
-105.461
11
133.759
21
-105.549
0
LINE
8
BLACK
6
CONTINUOUS
10
133.759
20
-105.549
11
133.613
21
-105.609
0
LINE
8
BLACK
6
CONTINUOUS
10
133.613
20
-105.609
11
133.459
21
-105.64
0
LINE
8
BLACK
6
CONTINUOUS
10
133.459
20
-105.64
11
133.301
21
-105.64
0
LINE
8
BLACK
6
CONTINUOUS
10
133.301
20
-105.64
11
133.147
21
-105.609
0
LINE
8
BLACK
6
CONTINUOUS
10
133.147
20
-105.609
11
133.001
21
-105.549
0
LINE
8
BLACK
6
CONTINUOUS
10
133.001
20
-105.549
11
132.87
21
-105.461
0
LINE
8
BLACK
6
CONTINUOUS
10
132.87
20
-105.461
11
132.759
21
-105.35
0
LINE
8
BLACK
6
CONTINUOUS
10
132.759
20
-105.35
11
132.671
21
-105.219
0
LINE
8
BLACK
6
CONTINUOUS
10
132.671
20
-105.219
11
132.611
21
-105.073
0
LINE
8
BLACK
6
CONTINUOUS
10
132.611
20
-105.073
11
132.58
21
-104.919
0
LINE
8
BLACK
6
CONTINUOUS
10
132.58
20
-104.919
11
132.58
21
-104.761
0
LINE
8
BLACK
6
CONTINUOUS
10
132.58
20
-104.761
11
132.611
21
-104.607
0
LINE
8
BLACK
6
CONTINUOUS
10
132.611
20
-104.607
11
132.671
21
-104.461
0
LINE
8
BLACK
6
CONTINUOUS
10
132.671
20
-104.461
11
132.759
21
-104.33
0
LINE
8
BLACK
6
CONTINUOUS
10
132.759
20
-104.33
11
132.87
21
-104.219
0
LINE
8
BLACK
6
CONTINUOUS
10
132.87
20
-104.219
11
133.001
21
-104.131
0
LINE
8
BLACK
6
CONTINUOUS
10
133.001
20
-104.131
11
133.147
21
-104.071
0
LINE
8
BLACK
6
CONTINUOUS
10
133.147
20
-104.071
11
133.301
21
-104.04
0
LINE
8
BLACK
6
CONTINUOUS
10
133.301
20
-104.04
11
133.459
21
-104.04
0
LINE
8
BLACK
6
CONTINUOUS
10
133.459
20
-104.04
11
133.613
21
-104.071
0
LINE
8
BLACK
6
CONTINUOUS
10
141.233
20
-104.071
11
141.379
21
-104.131
0
LINE
8
BLACK
6
CONTINUOUS
10
141.379
20
-104.131
11
141.51
21
-104.219
0
LINE
8
BLACK
6
CONTINUOUS
10
141.51
20
-104.219
11
141.621
21
-104.33
0
LINE
8
BLACK
6
CONTINUOUS
10
141.621
20
-104.33
11
141.709
21
-104.461
0
LINE
8
BLACK
6
CONTINUOUS
10
141.709
20
-104.461
11
141.769
21
-104.607
0
LINE
8
BLACK
6
CONTINUOUS
10
141.769
20
-104.607
11
141.8
21
-104.761
0
LINE
8
BLACK
6
CONTINUOUS
10
141.8
20
-104.761
11
141.8
21
-104.919
0
LINE
8
BLACK
6
CONTINUOUS
10
141.8
20
-104.919
11
141.769
21
-105.073
0
LINE
8
BLACK
6
CONTINUOUS
10
141.769
20
-105.073
11
141.709
21
-105.219
0
LINE
8
BLACK
6
CONTINUOUS
10
141.709
20
-105.219
11
141.621
21
-105.35
0
LINE
8
BLACK
6
CONTINUOUS
10
141.621
20
-105.35
11
141.51
21
-105.461
0
LINE
8
BLACK
6
CONTINUOUS
10
141.51
20
-105.461
11
141.379
21
-105.549
0
LINE
8
BLACK
6
CONTINUOUS
10
141.379
20
-105.549
11
141.233
21
-105.609
0
LINE
8
BLACK
6
CONTINUOUS
10
141.233
20
-105.609
11
141.079
21
-105.64
0
LINE
8
BLACK
6
CONTINUOUS
10
141.079
20
-105.64
11
140.921
21
-105.64
0
LINE
8
BLACK
6
CONTINUOUS
10
140.921
20
-105.64
11
140.767
21
-105.609
0
LINE
8
BLACK
6
CONTINUOUS
10
140.767
20
-105.609
11
140.621
21
-105.549
0
LINE
8
BLACK
6
CONTINUOUS
10
140.621
20
-105.549
11
140.49
21
-105.461
0
LINE
8
BLACK
6
CONTINUOUS
10
140.49
20
-105.461
11
140.379
21
-105.35
0
LINE
8
BLACK
6
CONTINUOUS
10
140.379
20
-105.35
11
140.291
21
-105.219
0
LINE
8
BLACK
6
CONTINUOUS
10
140.291
20
-105.219
11
140.231
21
-105.073
0
LINE
8
BLACK
6
CONTINUOUS
10
140.231
20
-105.073
11
140.2
21
-104.919
0
LINE
8
BLACK
6
CONTINUOUS
10
140.2
20
-104.919
11
140.2
21
-104.761
0
LINE
8
BLACK
6
CONTINUOUS
10
140.2
20
-104.761
11
140.231
21
-104.607
0
LINE
8
BLACK
6
CONTINUOUS
10
140.231
20
-104.607
11
140.291
21
-104.461
0
LINE
8
BLACK
6
CONTINUOUS
10
140.291
20
-104.461
11
140.379
21
-104.33
0
LINE
8
BLACK
6
CONTINUOUS
10
140.379
20
-104.33
11
140.49
21
-104.219
0
LINE
8
BLACK
6
CONTINUOUS
10
140.49
20
-104.219
11
140.621
21
-104.131
0
LINE
8
BLACK
6
CONTINUOUS
10
140.621
20
-104.131
11
140.767
21
-104.071
0
LINE
8
BLACK
6
CONTINUOUS
10
140.767
20
-104.071
11
140.921
21
-104.04
0
LINE
8
BLACK
6
CONTINUOUS
10
140.921
20
-104.04
11
141.079
21
-104.04
0
LINE
8
BLACK
6
CONTINUOUS
10
141.079
20
-104.04
11
141.233
21
-104.071
0
LINE
8
BLACK
6
CONTINUOUS
10
141.233
20
-101.531
11
141.379
21
-101.591
0
LINE
8
BLACK
6
CONTINUOUS
10
141.379
20
-101.591
11
141.51
21
-101.679
0
LINE
8
BLACK
6
CONTINUOUS
10
141.51
20
-101.679
11
141.621
21
-101.79
0
LINE
8
BLACK
6
CONTINUOUS
10
141.621
20
-101.79
11
141.709
21
-101.921
0
LINE
8
BLACK
6
CONTINUOUS
10
141.709
20
-101.921
11
141.769
21
-102.067
0
LINE
8
BLACK
6
CONTINUOUS
10
141.769
20
-102.067
11
141.8
21
-102.221
0
LINE
8
BLACK
6
CONTINUOUS
10
141.8
20
-102.221
11
141.8
21
-102.379
0
LINE
8
BLACK
6
CONTINUOUS
10
141.8
20
-102.379
11
141.769
21
-102.533
0
LINE
8
BLACK
6
CONTINUOUS
10
141.769
20
-102.533
11
141.709
21
-102.679
0
LINE
8
BLACK
6
CONTINUOUS
10
141.709
20
-102.679
11
141.621
21
-102.81
0
LINE
8
BLACK
6
CONTINUOUS
10
141.621
20
-102.81
11
141.51
21
-102.921
0
LINE
8
BLACK
6
CONTINUOUS
10
141.51
20
-102.921
11
141.379
21
-103.009
0
LINE
8
BLACK
6
CONTINUOUS
10
141.379
20
-103.009
11
141.233
21
-103.069
0
LINE
8
BLACK
6
CONTINUOUS
10
141.233
20
-103.069
11
141.079
21
-103.1
0
LINE
8
BLACK
6
CONTINUOUS
10
141.079
20
-103.1
11
140.921
21
-103.1
0
LINE
8
BLACK
6
CONTINUOUS
10
140.921
20
-103.1
11
140.767
21
-103.069
0
LINE
8
BLACK
6
CONTINUOUS
10
140.767
20
-103.069
11
140.621
21
-103.009
0
LINE
8
BLACK
6
CONTINUOUS
10
140.621
20
-103.009
11
140.49
21
-102.921
0
LINE
8
BLACK
6
CONTINUOUS
10
140.49
20
-102.921
11
140.379
21
-102.81
0
LINE
8
BLACK
6
CONTINUOUS
10
140.379
20
-102.81
11
140.291
21
-102.679
0
LINE
8
BLACK
6
CONTINUOUS
10
140.291
20
-102.679
11
140.231
21
-102.533
0
LINE
8
BLACK
6
CONTINUOUS
10
140.231
20
-102.533
11
140.2
21
-102.379
0
LINE
8
BLACK
6
CONTINUOUS
10
140.2
20
-102.379
11
140.2
21
-102.221
0
LINE
8
BLACK
6
CONTINUOUS
10
140.2
20
-102.221
11
140.231
21
-102.067
0
LINE
8
BLACK
6
CONTINUOUS
10
140.231
20
-102.067
11
140.291
21
-101.921
0
LINE
8
BLACK
6
CONTINUOUS
10
140.291
20
-101.921
11
140.379
21
-101.79
0
LINE
8
BLACK
6
CONTINUOUS
10
140.379
20
-101.79
11
140.49
21
-101.679
0
LINE
8
BLACK
6
CONTINUOUS
10
140.49
20
-101.679
11
140.621
21
-101.591
0
LINE
8
BLACK
6
CONTINUOUS
10
140.621
20
-101.591
11
140.767
21
-101.531
0
LINE
8
BLACK
6
CONTINUOUS
10
140.767
20
-101.531
11
140.921
21
-101.5
0
LINE
8
BLACK
6
CONTINUOUS
10
140.921
20
-101.5
11
141.079
21
-101.5
0
LINE
8
BLACK
6
CONTINUOUS
10
141.079
20
-101.5
11
141.233
21
-101.531
0
LINE
8
BLACK
6
CONTINUOUS
10
133.613
20
-101.531
11
133.759
21
-101.591
0
LINE
8
BLACK
6
CONTINUOUS
10
133.759
20
-101.591
11
133.89
21
-101.679
0
LINE
8
BLACK
6
CONTINUOUS
10
133.89
20
-101.679
11
134.001
21
-101.79
0
LINE
8
BLACK
6
CONTINUOUS
10
134.001
20
-101.79
11
134.089
21
-101.921
0
LINE
8
BLACK
6
CONTINUOUS
10
134.089
20
-101.921
11
134.149
21
-102.067
0
LINE
8
BLACK
6
CONTINUOUS
10
134.149
20
-102.067
11
134.18
21
-102.221
0
LINE
8
BLACK
6
CONTINUOUS
10
134.18
20
-102.221
11
134.18
21
-102.379
0
LINE
8
BLACK
6
CONTINUOUS
10
134.18
20
-102.379
11
134.149
21
-102.533
0
LINE
8
BLACK
6
CONTINUOUS
10
134.149
20
-102.533
11
134.089
21
-102.679
0
LINE
8
BLACK
6
CONTINUOUS
10
134.089
20
-102.679
11
134.001
21
-102.81
0
LINE
8
BLACK
6
CONTINUOUS
10
134.001
20
-102.81
11
133.89
21
-102.921
0
LINE
8
BLACK
6
CONTINUOUS
10
133.89
20
-102.921
11
133.759
21
-103.009
0
LINE
8
BLACK
6
CONTINUOUS
10
133.759
20
-103.009
11
133.613
21
-103.069
0
LINE
8
BLACK
6
CONTINUOUS
10
133.613
20
-103.069
11
133.459
21
-103.1
0
LINE
8
BLACK
6
CONTINUOUS
10
133.459
20
-103.1
11
133.301
21
-103.1
0
LINE
8
BLACK
6
CONTINUOUS
10
133.301
20
-103.1
11
133.147
21
-103.069
0
LINE
8
BLACK
6
CONTINUOUS
10
133.147
20
-103.069
11
133.001
21
-103.009
0
LINE
8
BLACK
6
CONTINUOUS
10
133.001
20
-103.009
11
132.87
21
-102.921
0
LINE
8
BLACK
6
CONTINUOUS
10
132.87
20
-102.921
11
132.759
21
-102.81
0
LINE
8
BLACK
6
CONTINUOUS
10
132.759
20
-102.81
11
132.671
21
-102.679
0
LINE
8
BLACK
6
CONTINUOUS
10
132.671
20
-102.679
11
132.611
21
-102.533
0
LINE
8
BLACK
6
CONTINUOUS
10
132.611
20
-102.533
11
132.58
21
-102.379
0
LINE
8
BLACK
6
CONTINUOUS
10
132.58
20
-102.379
11
132.58
21
-102.221
0
LINE
8
BLACK
6
CONTINUOUS
10
132.58
20
-102.221
11
132.611
21
-102.067
0
LINE
8
BLACK
6
CONTINUOUS
10
132.611
20
-102.067
11
132.671
21
-101.921
0
LINE
8
BLACK
6
CONTINUOUS
10
132.671
20
-101.921
11
132.759
21
-101.79
0
LINE
8
BLACK
6
CONTINUOUS
10
132.759
20
-101.79
11
132.87
21
-101.679
0
LINE
8
BLACK
6
CONTINUOUS
10
132.87
20
-101.679
11
133.001
21
-101.591
0
LINE
8
BLACK
6
CONTINUOUS
10
133.001
20
-101.591
11
133.147
21
-101.531
0
LINE
8
BLACK
6
CONTINUOUS
10
133.147
20
-101.531
11
133.301
21
-101.5
0
LINE
8
BLACK
6
CONTINUOUS
10
133.301
20
-101.5
11
133.459
21
-101.5
0
LINE
8
BLACK
6
CONTINUOUS
10
133.459
20
-101.5
11
133.613
21
-101.531
0
LINE
8
BLACK
6
CONTINUOUS
10
141.233
20
-98.9907
11
141.379
21
-99.051
0
LINE
8
BLACK
6
CONTINUOUS
10
141.379
20
-99.051
11
141.51
21
-99.1386
0
LINE
8
BLACK
6
CONTINUOUS
10
141.51
20
-99.1386
11
141.621
21
-99.25
0
LINE
8
BLACK
6
CONTINUOUS
10
141.621
20
-99.25
11
141.709
21
-99.3811
0
LINE
8
BLACK
6
CONTINUOUS
10
141.709
20
-99.3811
11
141.769
21
-99.5266
0
LINE
8
BLACK
6
CONTINUOUS
10
141.769
20
-99.5266
11
141.8
21
-99.6812
0
LINE
8
BLACK
6
CONTINUOUS
10
141.8
20
-99.6812
11
141.8
21
-99.8388
0
LINE
8
BLACK
6
CONTINUOUS
10
141.8
20
-99.8388
11
141.769
21
-99.9934
0
LINE
8
BLACK
6
CONTINUOUS
10
141.769
20
-99.9934
11
141.709
21
-100.139
0
LINE
8
BLACK
6
CONTINUOUS
10
141.709
20
-100.139
11
141.621
21
-100.27
0
LINE
8
BLACK
6
CONTINUOUS
10
141.621
20
-100.27
11
141.51
21
-100.381
0
LINE
8
BLACK
6
CONTINUOUS
10
141.51
20
-100.381
11
141.379
21
-100.469
0
LINE
8
BLACK
6
CONTINUOUS
10
141.379
20
-100.469
11
141.233
21
-100.529
0
LINE
8
BLACK
6
CONTINUOUS
10
141.233
20
-100.529
11
141.079
21
-100.56
0
LINE
8
BLACK
6
CONTINUOUS
10
141.079
20
-100.56
11
140.921
21
-100.56
0
LINE
8
BLACK
6
CONTINUOUS
10
140.921
20
-100.56
11
140.767
21
-100.529
0
LINE
8
BLACK
6
CONTINUOUS
10
140.767
20
-100.529
11
140.621
21
-100.469
0
LINE
8
BLACK
6
CONTINUOUS
10
140.621
20
-100.469
11
140.49
21
-100.381
0
LINE
8
BLACK
6
CONTINUOUS
10
140.49
20
-100.381
11
140.379
21
-100.27
0
LINE
8
BLACK
6
CONTINUOUS
10
140.379
20
-100.27
11
140.291
21
-100.139
0
LINE
8
BLACK
6
CONTINUOUS
10
140.291
20
-100.139
11
140.231
21
-99.9934
0
LINE
8
BLACK
6
CONTINUOUS
10
140.231
20
-99.9934
11
140.2
21
-99.8388
0
LINE
8
BLACK
6
CONTINUOUS
10
140.2
20
-99.8388
11
140.2
21
-99.6812
0
LINE
8
BLACK
6
CONTINUOUS
10
140.2
20
-99.6812
11
140.231
21
-99.5266
0
LINE
8
BLACK
6
CONTINUOUS
10
140.231
20
-99.5266
11
140.291
21
-99.3811
0
LINE
8
BLACK
6
CONTINUOUS
10
140.291
20
-99.3811
11
140.379
21
-99.25
0
LINE
8
BLACK
6
CONTINUOUS
10
140.379
20
-99.25
11
140.49
21
-99.1386
0
LINE
8
BLACK
6
CONTINUOUS
10
140.49
20
-99.1386
11
140.621
21
-99.051
0
LINE
8
BLACK
6
CONTINUOUS
10
140.621
20
-99.051
11
140.767
21
-98.9907
0
LINE
8
BLACK
6
CONTINUOUS
10
140.767
20
-98.9907
11
140.921
21
-98.96
0
LINE
8
BLACK
6
CONTINUOUS
10
140.921
20
-98.96
11
141.079
21
-98.96
0
LINE
8
BLACK
6
CONTINUOUS
10
141.079
20
-98.96
11
141.233
21
-98.9907
0
LINE
8
BLACK
6
CONTINUOUS
10
133.613
20
-98.9907
11
133.759
21
-99.051
0
LINE
8
BLACK
6
CONTINUOUS
10
133.759
20
-99.051
11
133.89
21
-99.1386
0
LINE
8
BLACK
6
CONTINUOUS
10
133.89
20
-99.1386
11
134.001
21
-99.25
0
LINE
8
BLACK
6
CONTINUOUS
10
134.001
20
-99.25
11
134.089
21
-99.3811
0
LINE
8
BLACK
6
CONTINUOUS
10
134.089
20
-99.3811
11
134.149
21
-99.5266
0
LINE
8
BLACK
6
CONTINUOUS
10
134.149
20
-99.5266
11
134.18
21
-99.6812
0
LINE
8
BLACK
6
CONTINUOUS
10
134.18
20
-99.6812
11
134.18
21
-99.8388
0
LINE
8
BLACK
6
CONTINUOUS
10
134.18
20
-99.8388
11
134.149
21
-99.9934
0
LINE
8
BLACK
6
CONTINUOUS
10
134.149
20
-99.9934
11
134.089
21
-100.139
0
LINE
8
BLACK
6
CONTINUOUS
10
134.089
20
-100.139
11
134.001
21
-100.27
0
LINE
8
BLACK
6
CONTINUOUS
10
134.001
20
-100.27
11
133.89
21
-100.381
0
LINE
8
BLACK
6
CONTINUOUS
10
133.89
20
-100.381
11
133.759
21
-100.469
0
LINE
8
BLACK
6
CONTINUOUS
10
133.759
20
-100.469
11
133.613
21
-100.529
0
LINE
8
BLACK
6
CONTINUOUS
10
133.613
20
-100.529
11
133.459
21
-100.56
0
LINE
8
BLACK
6
CONTINUOUS
10
133.459
20
-100.56
11
133.301
21
-100.56
0
LINE
8
BLACK
6
CONTINUOUS
10
133.301
20
-100.56
11
133.147
21
-100.529
0
LINE
8
BLACK
6
CONTINUOUS
10
133.147
20
-100.529
11
133.001
21
-100.469
0
LINE
8
BLACK
6
CONTINUOUS
10
133.001
20
-100.469
11
132.87
21
-100.381
0
LINE
8
BLACK
6
CONTINUOUS
10
132.87
20
-100.381
11
132.759
21
-100.27
0
LINE
8
BLACK
6
CONTINUOUS
10
132.759
20
-100.27
11
132.671
21
-100.139
0
LINE
8
BLACK
6
CONTINUOUS
10
132.671
20
-100.139
11
132.611
21
-99.9934
0
LINE
8
BLACK
6
CONTINUOUS
10
132.611
20
-99.9934
11
132.58
21
-99.8388
0
LINE
8
BLACK
6
CONTINUOUS
10
132.58
20
-99.8388
11
132.58
21
-99.6812
0
LINE
8
BLACK
6
CONTINUOUS
10
132.58
20
-99.6812
11
132.611
21
-99.5266
0
LINE
8
BLACK
6
CONTINUOUS
10
132.611
20
-99.5266
11
132.671
21
-99.3811
0
LINE
8
BLACK
6
CONTINUOUS
10
132.671
20
-99.3811
11
132.759
21
-99.25
0
LINE
8
BLACK
6
CONTINUOUS
10
132.759
20
-99.25
11
132.87
21
-99.1386
0
LINE
8
BLACK
6
CONTINUOUS
10
132.87
20
-99.1386
11
133.001
21
-99.051
0
LINE
8
BLACK
6
CONTINUOUS
10
133.001
20
-99.051
11
133.147
21
-98.9907
0
LINE
8
BLACK
6
CONTINUOUS
10
133.147
20
-98.9907
11
133.301
21
-98.96
0
LINE
8
BLACK
6
CONTINUOUS
10
133.301
20
-98.96
11
133.459
21
-98.96
0
LINE
8
BLACK
6
CONTINUOUS
10
133.459
20
-98.96
11
133.613
21
-98.9907
0
LINE
8
BLACK
6
CONTINUOUS
10
141.233
20
-96.4507
11
141.379
21
-96.511
0
LINE
8
BLACK
6
CONTINUOUS
10
141.379
20
-96.511
11
141.51
21
-96.5986
0
LINE
8
BLACK
6
CONTINUOUS
10
141.51
20
-96.5986
11
141.621
21
-96.71
0
LINE
8
BLACK
6
CONTINUOUS
10
141.621
20
-96.71
11
141.709
21
-96.8411
0
LINE
8
BLACK
6
CONTINUOUS
10
141.709
20
-96.8411
11
141.769
21
-96.9866
0
LINE
8
BLACK
6
CONTINUOUS
10
141.769
20
-96.9866
11
141.8
21
-97.1412
0
LINE
8
BLACK
6
CONTINUOUS
10
141.8
20
-97.1412
11
141.8
21
-97.2988
0
LINE
8
BLACK
6
CONTINUOUS
10
141.8
20
-97.2988
11
141.769
21
-97.4534
0
LINE
8
BLACK
6
CONTINUOUS
10
141.769
20
-97.4534
11
141.709
21
-97.5989
0
LINE
8
BLACK
6
CONTINUOUS
10
141.709
20
-97.5989
11
141.621
21
-97.73
0
LINE
8
BLACK
6
CONTINUOUS
10
141.621
20
-97.73
11
141.51
21
-97.8414
0
LINE
8
BLACK
6
CONTINUOUS
10
141.51
20
-97.8414
11
141.379
21
-97.929
0
LINE
8
BLACK
6
CONTINUOUS
10
141.379
20
-97.929
11
141.233
21
-97.9893
0
LINE
8
BLACK
6
CONTINUOUS
10
141.233
20
-97.9893
11
141.079
21
-98.02
0
LINE
8
BLACK
6
CONTINUOUS
10
141.079
20
-98.02
11
140.921
21
-98.02
0
LINE
8
BLACK
6
CONTINUOUS
10
140.921
20
-98.02
11
140.767
21
-97.9893
0
LINE
8
BLACK
6
CONTINUOUS
10
140.767
20
-97.9893
11
140.621
21
-97.929
0
LINE
8
BLACK
6
CONTINUOUS
10
140.621
20
-97.929
11
140.49
21
-97.8414
0
LINE
8
BLACK
6
CONTINUOUS
10
140.49
20
-97.8414
11
140.379
21
-97.73
0
LINE
8
BLACK
6
CONTINUOUS
10
140.379
20
-97.73
11
140.291
21
-97.5989
0
LINE
8
BLACK
6
CONTINUOUS
10
140.291
20
-97.5989
11
140.231
21
-97.4534
0
LINE
8
BLACK
6
CONTINUOUS
10
140.231
20
-97.4534
11
140.2
21
-97.2988
0
LINE
8
BLACK
6
CONTINUOUS
10
140.2
20
-97.2988
11
140.2
21
-97.1412
0
LINE
8
BLACK
6
CONTINUOUS
10
140.2
20
-97.1412
11
140.231
21
-96.9866
0
LINE
8
BLACK
6
CONTINUOUS
10
140.231
20
-96.9866
11
140.291
21
-96.8411
0
LINE
8
BLACK
6
CONTINUOUS
10
140.291
20
-96.8411
11
140.379
21
-96.71
0
LINE
8
BLACK
6
CONTINUOUS
10
140.379
20
-96.71
11
140.49
21
-96.5986
0
LINE
8
BLACK
6
CONTINUOUS
10
140.49
20
-96.5986
11
140.621
21
-96.511
0
LINE
8
BLACK
6
CONTINUOUS
10
140.621
20
-96.511
11
140.767
21
-96.4507
0
LINE
8
BLACK
6
CONTINUOUS
10
140.767
20
-96.4507
11
140.921
21
-96.42
0
LINE
8
BLACK
6
CONTINUOUS
10
140.921
20
-96.42
11
141.079
21
-96.42
0
LINE
8
BLACK
6
CONTINUOUS
10
141.079
20
-96.42
11
141.233
21
-96.4507
0
LINE
8
BLACK
6
CONTINUOUS
10
133.613
20
-96.4507
11
133.759
21
-96.511
0
LINE
8
BLACK
6
CONTINUOUS
10
133.759
20
-96.511
11
133.89
21
-96.5986
0
LINE
8
BLACK
6
CONTINUOUS
10
133.89
20
-96.5986
11
134.001
21
-96.71
0
LINE
8
BLACK
6
CONTINUOUS
10
134.001
20
-96.71
11
134.089
21
-96.8411
0
LINE
8
BLACK
6
CONTINUOUS
10
134.089
20
-96.8411
11
134.149
21
-96.9866
0
LINE
8
BLACK
6
CONTINUOUS
10
134.149
20
-96.9866
11
134.18
21
-97.1412
0
LINE
8
BLACK
6
CONTINUOUS
10
134.18
20
-97.1412
11
134.18
21
-97.2988
0
LINE
8
BLACK
6
CONTINUOUS
10
134.18
20
-97.2988
11
134.149
21
-97.4534
0
LINE
8
BLACK
6
CONTINUOUS
10
134.149
20
-97.4534
11
134.089
21
-97.5989
0
LINE
8
BLACK
6
CONTINUOUS
10
134.089
20
-97.5989
11
134.001
21
-97.73
0
LINE
8
BLACK
6
CONTINUOUS
10
134.001
20
-97.73
11
133.89
21
-97.8414
0
LINE
8
BLACK
6
CONTINUOUS
10
133.89
20
-97.8414
11
133.759
21
-97.929
0
LINE
8
BLACK
6
CONTINUOUS
10
133.759
20
-97.929
11
133.613
21
-97.9893
0
LINE
8
BLACK
6
CONTINUOUS
10
133.613
20
-97.9893
11
133.459
21
-98.02
0
LINE
8
BLACK
6
CONTINUOUS
10
133.459
20
-98.02
11
133.301
21
-98.02
0
LINE
8
BLACK
6
CONTINUOUS
10
133.301
20
-98.02
11
133.147
21
-97.9893
0
LINE
8
BLACK
6
CONTINUOUS
10
133.147
20
-97.9893
11
133.001
21
-97.929
0
LINE
8
BLACK
6
CONTINUOUS
10
133.001
20
-97.929
11
132.87
21
-97.8414
0
LINE
8
BLACK
6
CONTINUOUS
10
132.87
20
-97.8414
11
132.759
21
-97.73
0
LINE
8
BLACK
6
CONTINUOUS
10
132.759
20
-97.73
11
132.671
21
-97.5989
0
LINE
8
BLACK
6
CONTINUOUS
10
132.671
20
-97.5989
11
132.611
21
-97.4534
0
LINE
8
BLACK
6
CONTINUOUS
10
132.611
20
-97.4534
11
132.58
21
-97.2988
0
LINE
8
BLACK
6
CONTINUOUS
10
132.58
20
-97.2988
11
132.58
21
-97.1412
0
LINE
8
BLACK
6
CONTINUOUS
10
132.58
20
-97.1412
11
132.611
21
-96.9866
0
LINE
8
BLACK
6
CONTINUOUS
10
132.611
20
-96.9866
11
132.671
21
-96.8411
0
LINE
8
BLACK
6
CONTINUOUS
10
132.671
20
-96.8411
11
132.759
21
-96.71
0
LINE
8
BLACK
6
CONTINUOUS
10
132.759
20
-96.71
11
132.87
21
-96.5986
0
LINE
8
BLACK
6
CONTINUOUS
10
132.87
20
-96.5986
11
133.001
21
-96.511
0
LINE
8
BLACK
6
CONTINUOUS
10
133.001
20
-96.511
11
133.147
21
-96.4507
0
LINE
8
BLACK
6
CONTINUOUS
10
133.147
20
-96.4507
11
133.301
21
-96.42
0
LINE
8
BLACK
6
CONTINUOUS
10
133.301
20
-96.42
11
133.459
21
-96.42
0
LINE
8
BLACK
6
CONTINUOUS
10
133.459
20
-96.42
11
133.613
21
-96.4507
0
LINE
8
BLACK
6
CONTINUOUS
10
141.233
20
-93.9107
11
141.379
21
-93.971
0
LINE
8
BLACK
6
CONTINUOUS
10
141.379
20
-93.971
11
141.51
21
-94.0586
0
LINE
8
BLACK
6
CONTINUOUS
10
141.51
20
-94.0586
11
141.621
21
-94.17
0
LINE
8
BLACK
6
CONTINUOUS
10
141.621
20
-94.17
11
141.709
21
-94.3011
0
LINE
8
BLACK
6
CONTINUOUS
10
141.709
20
-94.3011
11
141.769
21
-94.4466
0
LINE
8
BLACK
6
CONTINUOUS
10
141.769
20
-94.4466
11
141.8
21
-94.6012
0
LINE
8
BLACK
6
CONTINUOUS
10
141.8
20
-94.6012
11
141.8
21
-94.7588
0
LINE
8
BLACK
6
CONTINUOUS
10
141.8
20
-94.7588
11
141.769
21
-94.9134
0
LINE
8
BLACK
6
CONTINUOUS
10
141.769
20
-94.9134
11
141.709
21
-95.0589
0
LINE
8
BLACK
6
CONTINUOUS
10
141.709
20
-95.0589
11
141.621
21
-95.19
0
LINE
8
BLACK
6
CONTINUOUS
10
141.621
20
-95.19
11
141.51
21
-95.3014
0
LINE
8
BLACK
6
CONTINUOUS
10
141.51
20
-95.3014
11
141.379
21
-95.389
0
LINE
8
BLACK
6
CONTINUOUS
10
141.379
20
-95.389
11
141.233
21
-95.4493
0
LINE
8
BLACK
6
CONTINUOUS
10
141.233
20
-95.4493
11
141.079
21
-95.48
0
LINE
8
BLACK
6
CONTINUOUS
10
141.079
20
-95.48
11
140.921
21
-95.48
0
LINE
8
BLACK
6
CONTINUOUS
10
140.921
20
-95.48
11
140.767
21
-95.4493
0
LINE
8
BLACK
6
CONTINUOUS
10
140.767
20
-95.4493
11
140.621
21
-95.389
0
LINE
8
BLACK
6
CONTINUOUS
10
140.621
20
-95.389
11
140.49
21
-95.3014
0
LINE
8
BLACK
6
CONTINUOUS
10
140.49
20
-95.3014
11
140.379
21
-95.19
0
LINE
8
BLACK
6
CONTINUOUS
10
140.379
20
-95.19
11
140.291
21
-95.0589
0
LINE
8
BLACK
6
CONTINUOUS
10
140.291
20
-95.0589
11
140.231
21
-94.9134
0
LINE
8
BLACK
6
CONTINUOUS
10
140.231
20
-94.9134
11
140.2
21
-94.7588
0
LINE
8
BLACK
6
CONTINUOUS
10
140.2
20
-94.7588
11
140.2
21
-94.6012
0
LINE
8
BLACK
6
CONTINUOUS
10
140.2
20
-94.6012
11
140.231
21
-94.4466
0
LINE
8
BLACK
6
CONTINUOUS
10
140.231
20
-94.4466
11
140.291
21
-94.3011
0
LINE
8
BLACK
6
CONTINUOUS
10
140.291
20
-94.3011
11
140.379
21
-94.17
0
LINE
8
BLACK
6
CONTINUOUS
10
140.379
20
-94.17
11
140.49
21
-94.0586
0
LINE
8
BLACK
6
CONTINUOUS
10
140.49
20
-94.0586
11
140.621
21
-93.971
0
LINE
8
BLACK
6
CONTINUOUS
10
140.621
20
-93.971
11
140.767
21
-93.9107
0
LINE
8
BLACK
6
CONTINUOUS
10
140.767
20
-93.9107
11
140.921
21
-93.88
0
LINE
8
BLACK
6
CONTINUOUS
10
140.921
20
-93.88
11
141.079
21
-93.88
0
LINE
8
BLACK
6
CONTINUOUS
10
141.079
20
-93.88
11
141.233
21
-93.9107
0
LINE
8
BLACK
6
CONTINUOUS
10
133.613
20
-93.9107
11
133.759
21
-93.971
0
LINE
8
BLACK
6
CONTINUOUS
10
133.759
20
-93.971
11
133.89
21
-94.0586
0
LINE
8
BLACK
6
CONTINUOUS
10
133.89
20
-94.0586
11
134.001
21
-94.17
0
LINE
8
BLACK
6
CONTINUOUS
10
134.001
20
-94.17
11
134.089
21
-94.3011
0
LINE
8
BLACK
6
CONTINUOUS
10
134.089
20
-94.3011
11
134.149
21
-94.4466
0
LINE
8
BLACK
6
CONTINUOUS
10
134.149
20
-94.4466
11
134.18
21
-94.6012
0
LINE
8
BLACK
6
CONTINUOUS
10
134.18
20
-94.6012
11
134.18
21
-94.7588
0
LINE
8
BLACK
6
CONTINUOUS
10
134.18
20
-94.7588
11
134.149
21
-94.9134
0
LINE
8
BLACK
6
CONTINUOUS
10
134.149
20
-94.9134
11
134.089
21
-95.0589
0
LINE
8
BLACK
6
CONTINUOUS
10
134.089
20
-95.0589
11
134.001
21
-95.19
0
LINE
8
BLACK
6
CONTINUOUS
10
134.001
20
-95.19
11
133.89
21
-95.3014
0
LINE
8
BLACK
6
CONTINUOUS
10
133.89
20
-95.3014
11
133.759
21
-95.389
0
LINE
8
BLACK
6
CONTINUOUS
10
133.759
20
-95.389
11
133.613
21
-95.4493
0
LINE
8
BLACK
6
CONTINUOUS
10
133.613
20
-95.4493
11
133.459
21
-95.48
0
LINE
8
BLACK
6
CONTINUOUS
10
133.459
20
-95.48
11
133.301
21
-95.48
0
LINE
8
BLACK
6
CONTINUOUS
10
133.301
20
-95.48
11
133.147
21
-95.4493
0
LINE
8
BLACK
6
CONTINUOUS
10
133.147
20
-95.4493
11
133.001
21
-95.389
0
LINE
8
BLACK
6
CONTINUOUS
10
133.001
20
-95.389
11
132.87
21
-95.3014
0
LINE
8
BLACK
6
CONTINUOUS
10
132.87
20
-95.3014
11
132.759
21
-95.19
0
LINE
8
BLACK
6
CONTINUOUS
10
132.759
20
-95.19
11
132.671
21
-95.0589
0
LINE
8
BLACK
6
CONTINUOUS
10
132.671
20
-95.0589
11
132.611
21
-94.9134
0
LINE
8
BLACK
6
CONTINUOUS
10
132.611
20
-94.9134
11
132.58
21
-94.7588
0
LINE
8
BLACK
6
CONTINUOUS
10
132.58
20
-94.7588
11
132.58
21
-94.6012
0
LINE
8
BLACK
6
CONTINUOUS
10
132.58
20
-94.6012
11
132.611
21
-94.4466
0
LINE
8
BLACK
6
CONTINUOUS
10
132.611
20
-94.4466
11
132.671
21
-94.3011
0
LINE
8
BLACK
6
CONTINUOUS
10
132.671
20
-94.3011
11
132.759
21
-94.17
0
LINE
8
BLACK
6
CONTINUOUS
10
132.759
20
-94.17
11
132.87
21
-94.0586
0
LINE
8
BLACK
6
CONTINUOUS
10
132.87
20
-94.0586
11
133.001
21
-93.971
0
LINE
8
BLACK
6
CONTINUOUS
10
133.001
20
-93.971
11
133.147
21
-93.9107
0
LINE
8
BLACK
6
CONTINUOUS
10
133.147
20
-93.9107
11
133.301
21
-93.88
0
LINE
8
BLACK
6
CONTINUOUS
10
133.301
20
-93.88
11
133.459
21
-93.88
0
LINE
8
BLACK
6
CONTINUOUS
10
133.459
20
-93.88
11
133.613
21
-93.9107
0
LINE
8
BLACK
6
CONTINUOUS
10
141.233
20
-91.3707
11
141.379
21
-91.431
0
LINE
8
BLACK
6
CONTINUOUS
10
141.379
20
-91.431
11
141.51
21
-91.5186
0
LINE
8
BLACK
6
CONTINUOUS
10
141.51
20
-91.5186
11
141.621
21
-91.63
0
LINE
8
BLACK
6
CONTINUOUS
10
141.621
20
-91.63
11
141.709
21
-91.7611
0
LINE
8
BLACK
6
CONTINUOUS
10
141.709
20
-91.7611
11
141.769
21
-91.9066
0
LINE
8
BLACK
6
CONTINUOUS
10
141.769
20
-91.9066
11
141.8
21
-92.0612
0
LINE
8
BLACK
6
CONTINUOUS
10
141.8
20
-92.0612
11
141.8
21
-92.2188
0
LINE
8
BLACK
6
CONTINUOUS
10
141.8
20
-92.2188
11
141.769
21
-92.3734
0
LINE
8
BLACK
6
CONTINUOUS
10
141.769
20
-92.3734
11
141.709
21
-92.5189
0
LINE
8
BLACK
6
CONTINUOUS
10
141.709
20
-92.5189
11
141.621
21
-92.65
0
LINE
8
BLACK
6
CONTINUOUS
10
141.621
20
-92.65
11
141.51
21
-92.7614
0
LINE
8
BLACK
6
CONTINUOUS
10
141.51
20
-92.7614
11
141.379
21
-92.849
0
LINE
8
BLACK
6
CONTINUOUS
10
141.379
20
-92.849
11
141.233
21
-92.9093
0
LINE
8
BLACK
6
CONTINUOUS
10
141.233
20
-92.9093
11
141.079
21
-92.94
0
LINE
8
BLACK
6
CONTINUOUS
10
141.079
20
-92.94
11
140.921
21
-92.94
0
LINE
8
BLACK
6
CONTINUOUS
10
140.921
20
-92.94
11
140.767
21
-92.9093
0
LINE
8
BLACK
6
CONTINUOUS
10
140.767
20
-92.9093
11
140.621
21
-92.849
0
LINE
8
BLACK
6
CONTINUOUS
10
140.621
20
-92.849
11
140.49
21
-92.7614
0
LINE
8
BLACK
6
CONTINUOUS
10
140.49
20
-92.7614
11
140.379
21
-92.65
0
LINE
8
BLACK
6
CONTINUOUS
10
140.379
20
-92.65
11
140.291
21
-92.5189
0
LINE
8
BLACK
6
CONTINUOUS
10
140.291
20
-92.5189
11
140.231
21
-92.3734
0
LINE
8
BLACK
6
CONTINUOUS
10
140.231
20
-92.3734
11
140.2
21
-92.2188
0
LINE
8
BLACK
6
CONTINUOUS
10
140.2
20
-92.2188
11
140.2
21
-92.0612
0
LINE
8
BLACK
6
CONTINUOUS
10
140.2
20
-92.0612
11
140.231
21
-91.9066
0
LINE
8
BLACK
6
CONTINUOUS
10
140.231
20
-91.9066
11
140.291
21
-91.7611
0
LINE
8
BLACK
6
CONTINUOUS
10
140.291
20
-91.7611
11
140.379
21
-91.63
0
LINE
8
BLACK
6
CONTINUOUS
10
140.379
20
-91.63
11
140.49
21
-91.5186
0
LINE
8
BLACK
6
CONTINUOUS
10
140.49
20
-91.5186
11
140.621
21
-91.431
0
LINE
8
BLACK
6
CONTINUOUS
10
140.621
20
-91.431
11
140.767
21
-91.3707
0
LINE
8
BLACK
6
CONTINUOUS
10
140.767
20
-91.3707
11
140.921
21
-91.34
0
LINE
8
BLACK
6
CONTINUOUS
10
140.921
20
-91.34
11
141.079
21
-91.34
0
LINE
8
BLACK
6
CONTINUOUS
10
141.079
20
-91.34
11
141.233
21
-91.3707
0
LINE
8
BLACK
6
CONTINUOUS
10
133.613
20
-91.3707
11
133.759
21
-91.431
0
LINE
8
BLACK
6
CONTINUOUS
10
133.759
20
-91.431
11
133.89
21
-91.5186
0
LINE
8
BLACK
6
CONTINUOUS
10
133.89
20
-91.5186
11
134.001
21
-91.63
0
LINE
8
BLACK
6
CONTINUOUS
10
134.001
20
-91.63
11
134.089
21
-91.7611
0
LINE
8
BLACK
6
CONTINUOUS
10
134.089
20
-91.7611
11
134.149
21
-91.9066
0
LINE
8
BLACK
6
CONTINUOUS
10
134.149
20
-91.9066
11
134.18
21
-92.0612
0
LINE
8
BLACK
6
CONTINUOUS
10
134.18
20
-92.0612
11
134.18
21
-92.2188
0
LINE
8
BLACK
6
CONTINUOUS
10
134.18
20
-92.2188
11
134.149
21
-92.3734
0
LINE
8
BLACK
6
CONTINUOUS
10
134.149
20
-92.3734
11
134.089
21
-92.5189
0
LINE
8
BLACK
6
CONTINUOUS
10
134.089
20
-92.5189
11
134.001
21
-92.65
0
LINE
8
BLACK
6
CONTINUOUS
10
134.001
20
-92.65
11
133.89
21
-92.7614
0
LINE
8
BLACK
6
CONTINUOUS
10
133.89
20
-92.7614
11
133.759
21
-92.849
0
LINE
8
BLACK
6
CONTINUOUS
10
133.759
20
-92.849
11
133.613
21
-92.9093
0
LINE
8
BLACK
6
CONTINUOUS
10
133.613
20
-92.9093
11
133.459
21
-92.94
0
LINE
8
BLACK
6
CONTINUOUS
10
133.459
20
-92.94
11
133.301
21
-92.94
0
LINE
8
BLACK
6
CONTINUOUS
10
133.301
20
-92.94
11
133.147
21
-92.9093
0
LINE
8
BLACK
6
CONTINUOUS
10
133.147
20
-92.9093
11
133.001
21
-92.849
0
LINE
8
BLACK
6
CONTINUOUS
10
133.001
20
-92.849
11
132.87
21
-92.7614
0
LINE
8
BLACK
6
CONTINUOUS
10
132.87
20
-92.7614
11
132.759
21
-92.65
0
LINE
8
BLACK
6
CONTINUOUS
10
132.759
20
-92.65
11
132.671
21
-92.5189
0
LINE
8
BLACK
6
CONTINUOUS
10
132.671
20
-92.5189
11
132.611
21
-92.3734
0
LINE
8
BLACK
6
CONTINUOUS
10
132.611
20
-92.3734
11
132.58
21
-92.2188
0
LINE
8
BLACK
6
CONTINUOUS
10
132.58
20
-92.2188
11
132.58
21
-92.0612
0
LINE
8
BLACK
6
CONTINUOUS
10
132.58
20
-92.0612
11
132.611
21
-91.9066
0
LINE
8
BLACK
6
CONTINUOUS
10
132.611
20
-91.9066
11
132.671
21
-91.7611
0
LINE
8
BLACK
6
CONTINUOUS
10
132.671
20
-91.7611
11
132.759
21
-91.63
0
LINE
8
BLACK
6
CONTINUOUS
10
132.759
20
-91.63
11
132.87
21
-91.5186
0
LINE
8
BLACK
6
CONTINUOUS
10
132.87
20
-91.5186
11
133.001
21
-91.431
0
LINE
8
BLACK
6
CONTINUOUS
10
133.001
20
-91.431
11
133.147
21
-91.3707
0
LINE
8
BLACK
6
CONTINUOUS
10
133.147
20
-91.3707
11
133.301
21
-91.34
0
LINE
8
BLACK
6
CONTINUOUS
10
133.301
20
-91.34
11
133.459
21
-91.34
0
LINE
8
BLACK
6
CONTINUOUS
10
133.459
20
-91.34
11
133.613
21
-91.3707
0
LINE
8
BLACK
6
CONTINUOUS
10
142.868
20
-85.7227
11
143.023
21
-85.7867
0
LINE
8
BLACK
6
CONTINUOUS
10
143.023
20
-85.7867
11
143.162
21
-85.8798
0
LINE
8
BLACK
6
CONTINUOUS
10
143.162
20
-85.8798
11
143.28
21
-85.9982
0
LINE
8
BLACK
6
CONTINUOUS
10
143.28
20
-85.9982
11
143.373
21
-86.1374
0
LINE
8
BLACK
6
CONTINUOUS
10
143.373
20
-86.1374
11
143.437
21
-86.2921
0
LINE
8
BLACK
6
CONTINUOUS
10
143.437
20
-86.2921
11
143.47
21
-86.4563
0
LINE
8
BLACK
6
CONTINUOUS
10
143.47
20
-86.4563
11
143.47
21
-86.6237
0
LINE
8
BLACK
6
CONTINUOUS
10
143.47
20
-86.6237
11
143.437
21
-86.7879
0
LINE
8
BLACK
6
CONTINUOUS
10
143.437
20
-86.7879
11
143.373
21
-86.9426
0
LINE
8
BLACK
6
CONTINUOUS
10
143.373
20
-86.9426
11
143.28
21
-87.0818
0
LINE
8
BLACK
6
CONTINUOUS
10
143.28
20
-87.0818
11
143.162
21
-87.2002
0
LINE
8
BLACK
6
CONTINUOUS
10
143.162
20
-87.2002
11
143.023
21
-87.2933
0
LINE
8
BLACK
6
CONTINUOUS
10
143.023
20
-87.2933
11
142.868
21
-87.3573
0
LINE
8
BLACK
6
CONTINUOUS
10
142.868
20
-87.3573
11
142.704
21
-87.39
0
LINE
8
BLACK
6
CONTINUOUS
10
142.704
20
-87.39
11
142.536
21
-87.39
0
LINE
8
BLACK
6
CONTINUOUS
10
142.536
20
-87.39
11
142.372
21
-87.3573
0
LINE
8
BLACK
6
CONTINUOUS
10
142.372
20
-87.3573
11
142.217
21
-87.2933
0
LINE
8
BLACK
6
CONTINUOUS
10
142.217
20
-87.2933
11
142.078
21
-87.2002
0
LINE
8
BLACK
6
CONTINUOUS
10
142.078
20
-87.2002
11
141.96
21
-87.0818
0
LINE
8
BLACK
6
CONTINUOUS
10
141.96
20
-87.0818
11
141.867
21
-86.9426
0
LINE
8
BLACK
6
CONTINUOUS
10
141.867
20
-86.9426
11
141.803
21
-86.7879
0
LINE
8
BLACK
6
CONTINUOUS
10
141.803
20
-86.7879
11
141.77
21
-86.6237
0
LINE
8
BLACK
6
CONTINUOUS
10
141.77
20
-86.6237
11
141.77
21
-86.4563
0
LINE
8
BLACK
6
CONTINUOUS
10
141.77
20
-86.4563
11
141.803
21
-86.2921
0
LINE
8
BLACK
6
CONTINUOUS
10
141.803
20
-86.2921
11
141.867
21
-86.1374
0
LINE
8
BLACK
6
CONTINUOUS
10
141.867
20
-86.1374
11
141.96
21
-85.9982
0
LINE
8
BLACK
6
CONTINUOUS
10
141.96
20
-85.9982
11
142.078
21
-85.8798
0
LINE
8
BLACK
6
CONTINUOUS
10
142.078
20
-85.8798
11
142.217
21
-85.7867
0
LINE
8
BLACK
6
CONTINUOUS
10
142.217
20
-85.7867
11
142.372
21
-85.7227
0
LINE
8
BLACK
6
CONTINUOUS
10
142.372
20
-85.7227
11
142.536
21
-85.69
0
LINE
8
BLACK
6
CONTINUOUS
10
142.536
20
-85.69
11
142.704
21
-85.69
0
LINE
8
BLACK
6
CONTINUOUS
10
142.704
20
-85.69
11
142.868
21
-85.7227
0
LINE
8
BLACK
6
CONTINUOUS
10
140.328
20
-85.7227
11
140.483
21
-85.7867
0
LINE
8
BLACK
6
CONTINUOUS
10
140.483
20
-85.7867
11
140.622
21
-85.8798
0
LINE
8
BLACK
6
CONTINUOUS
10
140.622
20
-85.8798
11
140.74
21
-85.9982
0
LINE
8
BLACK
6
CONTINUOUS
10
140.74
20
-85.9982
11
140.833
21
-86.1374
0
LINE
8
BLACK
6
CONTINUOUS
10
140.833
20
-86.1374
11
140.897
21
-86.2921
0
LINE
8
BLACK
6
CONTINUOUS
10
140.897
20
-86.2921
11
140.93
21
-86.4563
0
LINE
8
BLACK
6
CONTINUOUS
10
140.93
20
-86.4563
11
140.93
21
-86.6237
0
LINE
8
BLACK
6
CONTINUOUS
10
140.93
20
-86.6237
11
140.897
21
-86.7879
0
LINE
8
BLACK
6
CONTINUOUS
10
140.897
20
-86.7879
11
140.833
21
-86.9426
0
LINE
8
BLACK
6
CONTINUOUS
10
140.833
20
-86.9426
11
140.74
21
-87.0818
0
LINE
8
BLACK
6
CONTINUOUS
10
140.74
20
-87.0818
11
140.622
21
-87.2002
0
LINE
8
BLACK
6
CONTINUOUS
10
140.622
20
-87.2002
11
140.483
21
-87.2933
0
LINE
8
BLACK
6
CONTINUOUS
10
140.483
20
-87.2933
11
140.328
21
-87.3573
0
LINE
8
BLACK
6
CONTINUOUS
10
140.328
20
-87.3573
11
140.164
21
-87.39
0
LINE
8
BLACK
6
CONTINUOUS
10
140.164
20
-87.39
11
139.996
21
-87.39
0
LINE
8
BLACK
6
CONTINUOUS
10
139.996
20
-87.39
11
139.832
21
-87.3573
0
LINE
8
BLACK
6
CONTINUOUS
10
139.832
20
-87.3573
11
139.677
21
-87.2933
0
LINE
8
BLACK
6
CONTINUOUS
10
139.677
20
-87.2933
11
139.538
21
-87.2002
0
LINE
8
BLACK
6
CONTINUOUS
10
139.538
20
-87.2002
11
139.42
21
-87.0818
0
LINE
8
BLACK
6
CONTINUOUS
10
139.42
20
-87.0818
11
139.327
21
-86.9426
0
LINE
8
BLACK
6
CONTINUOUS
10
139.327
20
-86.9426
11
139.263
21
-86.7879
0
LINE
8
BLACK
6
CONTINUOUS
10
139.263
20
-86.7879
11
139.23
21
-86.6237
0
LINE
8
BLACK
6
CONTINUOUS
10
139.23
20
-86.6237
11
139.23
21
-86.4563
0
LINE
8
BLACK
6
CONTINUOUS
10
139.23
20
-86.4563
11
139.263
21
-86.2921
0
LINE
8
BLACK
6
CONTINUOUS
10
139.263
20
-86.2921
11
139.327
21
-86.1374
0
LINE
8
BLACK
6
CONTINUOUS
10
139.327
20
-86.1374
11
139.42
21
-85.9982
0
LINE
8
BLACK
6
CONTINUOUS
10
139.42
20
-85.9982
11
139.538
21
-85.8798
0
LINE
8
BLACK
6
CONTINUOUS
10
139.538
20
-85.8798
11
139.677
21
-85.7867
0
LINE
8
BLACK
6
CONTINUOUS
10
139.677
20
-85.7867
11
139.832
21
-85.7227
0
LINE
8
BLACK
6
CONTINUOUS
10
139.832
20
-85.7227
11
139.996
21
-85.69
0
LINE
8
BLACK
6
CONTINUOUS
10
139.996
20
-85.69
11
140.164
21
-85.69
0
LINE
8
BLACK
6
CONTINUOUS
10
140.164
20
-85.69
11
140.328
21
-85.7227
0
LINE
8
BLACK
6
CONTINUOUS
10
137.788
20
-85.7227
11
137.943
21
-85.7867
0
LINE
8
BLACK
6
CONTINUOUS
10
137.943
20
-85.7867
11
138.082
21
-85.8798
0
LINE
8
BLACK
6
CONTINUOUS
10
138.082
20
-85.8798
11
138.2
21
-85.9982
0
LINE
8
BLACK
6
CONTINUOUS
10
138.2
20
-85.9982
11
138.293
21
-86.1374
0
LINE
8
BLACK
6
CONTINUOUS
10
138.293
20
-86.1374
11
138.357
21
-86.2921
0
LINE
8
BLACK
6
CONTINUOUS
10
138.357
20
-86.2921
11
138.39
21
-86.4563
0
LINE
8
BLACK
6
CONTINUOUS
10
138.39
20
-86.4563
11
138.39
21
-86.6237
0
LINE
8
BLACK
6
CONTINUOUS
10
138.39
20
-86.6237
11
138.357
21
-86.7879
0
LINE
8
BLACK
6
CONTINUOUS
10
138.357
20
-86.7879
11
138.293
21
-86.9426
0
LINE
8
BLACK
6
CONTINUOUS
10
138.293
20
-86.9426
11
138.2
21
-87.0818
0
LINE
8
BLACK
6
CONTINUOUS
10
138.2
20
-87.0818
11
138.082
21
-87.2002
0
LINE
8
BLACK
6
CONTINUOUS
10
138.082
20
-87.2002
11
137.943
21
-87.2933
0
LINE
8
BLACK
6
CONTINUOUS
10
137.943
20
-87.2933
11
137.788
21
-87.3573
0
LINE
8
BLACK
6
CONTINUOUS
10
137.788
20
-87.3573
11
137.624
21
-87.39
0
LINE
8
BLACK
6
CONTINUOUS
10
137.624
20
-87.39
11
137.456
21
-87.39
0
LINE
8
BLACK
6
CONTINUOUS
10
137.456
20
-87.39
11
137.292
21
-87.3573
0
LINE
8
BLACK
6
CONTINUOUS
10
137.292
20
-87.3573
11
137.137
21
-87.2933
0
LINE
8
BLACK
6
CONTINUOUS
10
137.137
20
-87.2933
11
136.998
21
-87.2002
0
LINE
8
BLACK
6
CONTINUOUS
10
136.998
20
-87.2002
11
136.88
21
-87.0818
0
LINE
8
BLACK
6
CONTINUOUS
10
136.88
20
-87.0818
11
136.787
21
-86.9426
0
LINE
8
BLACK
6
CONTINUOUS
10
136.787
20
-86.9426
11
136.723
21
-86.7879
0
LINE
8
BLACK
6
CONTINUOUS
10
136.723
20
-86.7879
11
136.69
21
-86.6237
0
LINE
8
BLACK
6
CONTINUOUS
10
136.69
20
-86.6237
11
136.69
21
-86.4563
0
LINE
8
BLACK
6
CONTINUOUS
10
136.69
20
-86.4563
11
136.723
21
-86.2921
0
LINE
8
BLACK
6
CONTINUOUS
10
136.723
20
-86.2921
11
136.787
21
-86.1374
0
LINE
8
BLACK
6
CONTINUOUS
10
136.787
20
-86.1374
11
136.88
21
-85.9982
0
LINE
8
BLACK
6
CONTINUOUS
10
136.88
20
-85.9982
11
136.998
21
-85.8798
0
LINE
8
BLACK
6
CONTINUOUS
10
136.998
20
-85.8798
11
137.137
21
-85.7867
0
LINE
8
BLACK
6
CONTINUOUS
10
137.137
20
-85.7867
11
137.292
21
-85.7227
0
LINE
8
BLACK
6
CONTINUOUS
10
137.292
20
-85.7227
11
137.456
21
-85.69
0
LINE
8
BLACK
6
CONTINUOUS
10
137.456
20
-85.69
11
137.624
21
-85.69
0
LINE
8
BLACK
6
CONTINUOUS
10
137.624
20
-85.69
11
137.788
21
-85.7227
0
LINE
8
BLACK
6
CONTINUOUS
10
135.248
20
-85.7227
11
135.403
21
-85.7867
0
LINE
8
BLACK
6
CONTINUOUS
10
135.403
20
-85.7867
11
135.542
21
-85.8798
0
LINE
8
BLACK
6
CONTINUOUS
10
135.542
20
-85.8798
11
135.66
21
-85.9982
0
LINE
8
BLACK
6
CONTINUOUS
10
135.66
20
-85.9982
11
135.753
21
-86.1374
0
LINE
8
BLACK
6
CONTINUOUS
10
135.753
20
-86.1374
11
135.817
21
-86.2921
0
LINE
8
BLACK
6
CONTINUOUS
10
135.817
20
-86.2921
11
135.85
21
-86.4563
0
LINE
8
BLACK
6
CONTINUOUS
10
135.85
20
-86.4563
11
135.85
21
-86.6237
0
LINE
8
BLACK
6
CONTINUOUS
10
135.85
20
-86.6237
11
135.817
21
-86.7879
0
LINE
8
BLACK
6
CONTINUOUS
10
135.817
20
-86.7879
11
135.753
21
-86.9426
0
LINE
8
BLACK
6
CONTINUOUS
10
135.753
20
-86.9426
11
135.66
21
-87.0818
0
LINE
8
BLACK
6
CONTINUOUS
10
135.66
20
-87.0818
11
135.542
21
-87.2002
0
LINE
8
BLACK
6
CONTINUOUS
10
135.542
20
-87.2002
11
135.403
21
-87.2933
0
LINE
8
BLACK
6
CONTINUOUS
10
135.403
20
-87.2933
11
135.248
21
-87.3573
0
LINE
8
BLACK
6
CONTINUOUS
10
135.248
20
-87.3573
11
135.084
21
-87.39
0
LINE
8
BLACK
6
CONTINUOUS
10
135.084
20
-87.39
11
134.916
21
-87.39
0
LINE
8
BLACK
6
CONTINUOUS
10
134.916
20
-87.39
11
134.752
21
-87.3573
0
LINE
8
BLACK
6
CONTINUOUS
10
134.752
20
-87.3573
11
134.597
21
-87.2933
0
LINE
8
BLACK
6
CONTINUOUS
10
134.597
20
-87.2933
11
134.458
21
-87.2002
0
LINE
8
BLACK
6
CONTINUOUS
10
134.458
20
-87.2002
11
134.34
21
-87.0818
0
LINE
8
BLACK
6
CONTINUOUS
10
134.34
20
-87.0818
11
134.247
21
-86.9426
0
LINE
8
BLACK
6
CONTINUOUS
10
134.247
20
-86.9426
11
134.183
21
-86.7879
0
LINE
8
BLACK
6
CONTINUOUS
10
134.183
20
-86.7879
11
134.15
21
-86.6237
0
LINE
8
BLACK
6
CONTINUOUS
10
134.15
20
-86.6237
11
134.15
21
-86.4563
0
LINE
8
BLACK
6
CONTINUOUS
10
134.15
20
-86.4563
11
134.183
21
-86.2921
0
LINE
8
BLACK
6
CONTINUOUS
10
134.183
20
-86.2921
11
134.247
21
-86.1374
0
LINE
8
BLACK
6
CONTINUOUS
10
134.247
20
-86.1374
11
134.34
21
-85.9982
0
LINE
8
BLACK
6
CONTINUOUS
10
134.34
20
-85.9982
11
134.458
21
-85.8798
0
LINE
8
BLACK
6
CONTINUOUS
10
134.458
20
-85.8798
11
134.597
21
-85.7867
0
LINE
8
BLACK
6
CONTINUOUS
10
134.597
20
-85.7867
11
134.752
21
-85.7227
0
LINE
8
BLACK
6
CONTINUOUS
10
134.752
20
-85.7227
11
134.916
21
-85.69
0
LINE
8
BLACK
6
CONTINUOUS
10
134.916
20
-85.69
11
135.084
21
-85.69
0
LINE
8
BLACK
6
CONTINUOUS
10
135.084
20
-85.69
11
135.248
21
-85.7227
0
LINE
8
BLACK
6
CONTINUOUS
10
132.708
20
-85.7227
11
132.863
21
-85.7867
0
LINE
8
BLACK
6
CONTINUOUS
10
132.863
20
-85.7867
11
133.002
21
-85.8798
0
LINE
8
BLACK
6
CONTINUOUS
10
133.002
20
-85.8798
11
133.12
21
-85.9982
0
LINE
8
BLACK
6
CONTINUOUS
10
133.12
20
-85.9982
11
133.213
21
-86.1374
0
LINE
8
BLACK
6
CONTINUOUS
10
133.213
20
-86.1374
11
133.277
21
-86.2921
0
LINE
8
BLACK
6
CONTINUOUS
10
133.277
20
-86.2921
11
133.31
21
-86.4563
0
LINE
8
BLACK
6
CONTINUOUS
10
133.31
20
-86.4563
11
133.31
21
-86.6237
0
LINE
8
BLACK
6
CONTINUOUS
10
133.31
20
-86.6237
11
133.277
21
-86.7879
0
LINE
8
BLACK
6
CONTINUOUS
10
133.277
20
-86.7879
11
133.213
21
-86.9426
0
LINE
8
BLACK
6
CONTINUOUS
10
133.213
20
-86.9426
11
133.12
21
-87.0818
0
LINE
8
BLACK
6
CONTINUOUS
10
133.12
20
-87.0818
11
133.002
21
-87.2002
0
LINE
8
BLACK
6
CONTINUOUS
10
133.002
20
-87.2002
11
132.863
21
-87.2933
0
LINE
8
BLACK
6
CONTINUOUS
10
132.863
20
-87.2933
11
132.708
21
-87.3573
0
LINE
8
BLACK
6
CONTINUOUS
10
132.708
20
-87.3573
11
132.544
21
-87.39
0
LINE
8
BLACK
6
CONTINUOUS
10
132.544
20
-87.39
11
132.376
21
-87.39
0
LINE
8
BLACK
6
CONTINUOUS
10
132.376
20
-87.39
11
132.212
21
-87.3573
0
LINE
8
BLACK
6
CONTINUOUS
10
132.212
20
-87.3573
11
132.057
21
-87.2933
0
LINE
8
BLACK
6
CONTINUOUS
10
132.057
20
-87.2933
11
131.918
21
-87.2002
0
LINE
8
BLACK
6
CONTINUOUS
10
131.918
20
-87.2002
11
131.8
21
-87.0818
0
LINE
8
BLACK
6
CONTINUOUS
10
131.8
20
-87.0818
11
131.707
21
-86.9426
0
LINE
8
BLACK
6
CONTINUOUS
10
131.707
20
-86.9426
11
131.643
21
-86.7879
0
LINE
8
BLACK
6
CONTINUOUS
10
131.643
20
-86.7879
11
131.61
21
-86.6237
0
LINE
8
BLACK
6
CONTINUOUS
10
131.61
20
-86.6237
11
131.61
21
-86.4563
0
LINE
8
BLACK
6
CONTINUOUS
10
131.61
20
-86.4563
11
131.643
21
-86.2921
0
LINE
8
BLACK
6
CONTINUOUS
10
131.643
20
-86.2921
11
131.707
21
-86.1374
0
LINE
8
BLACK
6
CONTINUOUS
10
131.707
20
-86.1374
11
131.8
21
-85.9982
0
LINE
8
BLACK
6
CONTINUOUS
10
131.8
20
-85.9982
11
131.918
21
-85.8798
0
LINE
8
BLACK
6
CONTINUOUS
10
131.918
20
-85.8798
11
132.057
21
-85.7867
0
LINE
8
BLACK
6
CONTINUOUS
10
132.057
20
-85.7867
11
132.212
21
-85.7227
0
LINE
8
BLACK
6
CONTINUOUS
10
132.212
20
-85.7227
11
132.376
21
-85.69
0
LINE
8
BLACK
6
CONTINUOUS
10
132.376
20
-85.69
11
132.544
21
-85.69
0
LINE
8
BLACK
6
CONTINUOUS
10
132.544
20
-85.69
11
132.708
21
-85.7227
0
LINE
8
BLACK
6
CONTINUOUS
10
142.868
20
-83.1827
11
143.023
21
-83.2467
0
LINE
8
BLACK
6
CONTINUOUS
10
143.023
20
-83.2467
11
143.162
21
-83.3398
0
LINE
8
BLACK
6
CONTINUOUS
10
143.162
20
-83.3398
11
143.28
21
-83.4582
0
LINE
8
BLACK
6
CONTINUOUS
10
143.28
20
-83.4582
11
143.373
21
-83.5974
0
LINE
8
BLACK
6
CONTINUOUS
10
143.373
20
-83.5974
11
143.437
21
-83.7521
0
LINE
8
BLACK
6
CONTINUOUS
10
143.437
20
-83.7521
11
143.47
21
-83.9163
0
LINE
8
BLACK
6
CONTINUOUS
10
143.47
20
-83.9163
11
143.47
21
-84.0837
0
LINE
8
BLACK
6
CONTINUOUS
10
143.47
20
-84.0837
11
143.437
21
-84.2479
0
LINE
8
BLACK
6
CONTINUOUS
10
143.437
20
-84.2479
11
143.373
21
-84.4026
0
LINE
8
BLACK
6
CONTINUOUS
10
143.373
20
-84.4026
11
143.28
21
-84.5418
0
LINE
8
BLACK
6
CONTINUOUS
10
143.28
20
-84.5418
11
143.162
21
-84.6602
0
LINE
8
BLACK
6
CONTINUOUS
10
143.162
20
-84.6602
11
143.023
21
-84.7533
0
LINE
8
BLACK
6
CONTINUOUS
10
143.023
20
-84.7533
11
142.868
21
-84.8173
0
LINE
8
BLACK
6
CONTINUOUS
10
142.868
20
-84.8173
11
142.704
21
-84.85
0
LINE
8
BLACK
6
CONTINUOUS
10
142.704
20
-84.85
11
142.536
21
-84.85
0
LINE
8
BLACK
6
CONTINUOUS
10
142.536
20
-84.85
11
142.372
21
-84.8173
0
LINE
8
BLACK
6
CONTINUOUS
10
142.372
20
-84.8173
11
142.217
21
-84.7533
0
LINE
8
BLACK
6
CONTINUOUS
10
142.217
20
-84.7533
11
142.078
21
-84.6602
0
LINE
8
BLACK
6
CONTINUOUS
10
142.078
20
-84.6602
11
141.96
21
-84.5418
0
LINE
8
BLACK
6
CONTINUOUS
10
141.96
20
-84.5418
11
141.867
21
-84.4026
0
LINE
8
BLACK
6
CONTINUOUS
10
141.867
20
-84.4026
11
141.803
21
-84.2479
0
LINE
8
BLACK
6
CONTINUOUS
10
141.803
20
-84.2479
11
141.77
21
-84.0837
0
LINE
8
BLACK
6
CONTINUOUS
10
141.77
20
-84.0837
11
141.77
21
-83.9163
0
LINE
8
BLACK
6
CONTINUOUS
10
141.77
20
-83.9163
11
141.803
21
-83.7521
0
LINE
8
BLACK
6
CONTINUOUS
10
141.803
20
-83.7521
11
141.867
21
-83.5974
0
LINE
8
BLACK
6
CONTINUOUS
10
141.867
20
-83.5974
11
141.96
21
-83.4582
0
LINE
8
BLACK
6
CONTINUOUS
10
141.96
20
-83.4582
11
142.078
21
-83.3398
0
LINE
8
BLACK
6
CONTINUOUS
10
142.078
20
-83.3398
11
142.217
21
-83.2467
0
LINE
8
BLACK
6
CONTINUOUS
10
142.217
20
-83.2467
11
142.372
21
-83.1827
0
LINE
8
BLACK
6
CONTINUOUS
10
142.372
20
-83.1827
11
142.536
21
-83.15
0
LINE
8
BLACK
6
CONTINUOUS
10
142.536
20
-83.15
11
142.704
21
-83.15
0
LINE
8
BLACK
6
CONTINUOUS
10
142.704
20
-83.15
11
142.868
21
-83.1827
0
LINE
8
BLACK
6
CONTINUOUS
10
140.328
20
-83.1827
11
140.483
21
-83.2467
0
LINE
8
BLACK
6
CONTINUOUS
10
140.483
20
-83.2467
11
140.622
21
-83.3398
0
LINE
8
BLACK
6
CONTINUOUS
10
140.622
20
-83.3398
11
140.74
21
-83.4582
0
LINE
8
BLACK
6
CONTINUOUS
10
140.74
20
-83.4582
11
140.833
21
-83.5974
0
LINE
8
BLACK
6
CONTINUOUS
10
140.833
20
-83.5974
11
140.897
21
-83.7521
0
LINE
8
BLACK
6
CONTINUOUS
10
140.897
20
-83.7521
11
140.93
21
-83.9163
0
LINE
8
BLACK
6
CONTINUOUS
10
140.93
20
-83.9163
11
140.93
21
-84.0837
0
LINE
8
BLACK
6
CONTINUOUS
10
140.93
20
-84.0837
11
140.897
21
-84.2479
0
LINE
8
BLACK
6
CONTINUOUS
10
140.897
20
-84.2479
11
140.833
21
-84.4026
0
LINE
8
BLACK
6
CONTINUOUS
10
140.833
20
-84.4026
11
140.74
21
-84.5418
0
LINE
8
BLACK
6
CONTINUOUS
10
140.74
20
-84.5418
11
140.622
21
-84.6602
0
LINE
8
BLACK
6
CONTINUOUS
10
140.622
20
-84.6602
11
140.483
21
-84.7533
0
LINE
8
BLACK
6
CONTINUOUS
10
140.483
20
-84.7533
11
140.328
21
-84.8173
0
LINE
8
BLACK
6
CONTINUOUS
10
140.328
20
-84.8173
11
140.164
21
-84.85
0
LINE
8
BLACK
6
CONTINUOUS
10
140.164
20
-84.85
11
139.996
21
-84.85
0
LINE
8
BLACK
6
CONTINUOUS
10
139.996
20
-84.85
11
139.832
21
-84.8173
0
LINE
8
BLACK
6
CONTINUOUS
10
139.832
20
-84.8173
11
139.677
21
-84.7533
0
LINE
8
BLACK
6
CONTINUOUS
10
139.677
20
-84.7533
11
139.538
21
-84.6602
0
LINE
8
BLACK
6
CONTINUOUS
10
139.538
20
-84.6602
11
139.42
21
-84.5418
0
LINE
8
BLACK
6
CONTINUOUS
10
139.42
20
-84.5418
11
139.327
21
-84.4026
0
LINE
8
BLACK
6
CONTINUOUS
10
139.327
20
-84.4026
11
139.263
21
-84.2479
0
LINE
8
BLACK
6
CONTINUOUS
10
139.263
20
-84.2479
11
139.23
21
-84.0837
0
LINE
8
BLACK
6
CONTINUOUS
10
139.23
20
-84.0837
11
139.23
21
-83.9163
0
LINE
8
BLACK
6
CONTINUOUS
10
139.23
20
-83.9163
11
139.263
21
-83.7521
0
LINE
8
BLACK
6
CONTINUOUS
10
139.263
20
-83.7521
11
139.327
21
-83.5974
0
LINE
8
BLACK
6
CONTINUOUS
10
139.327
20
-83.5974
11
139.42
21
-83.4582
0
LINE
8
BLACK
6
CONTINUOUS
10
139.42
20
-83.4582
11
139.538
21
-83.3398
0
LINE
8
BLACK
6
CONTINUOUS
10
139.538
20
-83.3398
11
139.677
21
-83.2467
0
LINE
8
BLACK
6
CONTINUOUS
10
139.677
20
-83.2467
11
139.832
21
-83.1827
0
LINE
8
BLACK
6
CONTINUOUS
10
139.832
20
-83.1827
11
139.996
21
-83.15
0
LINE
8
BLACK
6
CONTINUOUS
10
139.996
20
-83.15
11
140.164
21
-83.15
0
LINE
8
BLACK
6
CONTINUOUS
10
140.164
20
-83.15
11
140.328
21
-83.1827
0
LINE
8
BLACK
6
CONTINUOUS
10
137.788
20
-83.1827
11
137.943
21
-83.2467
0
LINE
8
BLACK
6
CONTINUOUS
10
137.943
20
-83.2467
11
138.082
21
-83.3398
0
LINE
8
BLACK
6
CONTINUOUS
10
138.082
20
-83.3398
11
138.2
21
-83.4582
0
LINE
8
BLACK
6
CONTINUOUS
10
138.2
20
-83.4582
11
138.293
21
-83.5974
0
LINE
8
BLACK
6
CONTINUOUS
10
138.293
20
-83.5974
11
138.357
21
-83.7521
0
LINE
8
BLACK
6
CONTINUOUS
10
138.357
20
-83.7521
11
138.39
21
-83.9163
0
LINE
8
BLACK
6
CONTINUOUS
10
138.39
20
-83.9163
11
138.39
21
-84.0837
0
LINE
8
BLACK
6
CONTINUOUS
10
138.39
20
-84.0837
11
138.357
21
-84.2479
0
LINE
8
BLACK
6
CONTINUOUS
10
138.357
20
-84.2479
11
138.293
21
-84.4026
0
LINE
8
BLACK
6
CONTINUOUS
10
138.293
20
-84.4026
11
138.2
21
-84.5418
0
LINE
8
BLACK
6
CONTINUOUS
10
138.2
20
-84.5418
11
138.082
21
-84.6602
0
LINE
8
BLACK
6
CONTINUOUS
10
138.082
20
-84.6602
11
137.943
21
-84.7533
0
LINE
8
BLACK
6
CONTINUOUS
10
137.943
20
-84.7533
11
137.788
21
-84.8173
0
LINE
8
BLACK
6
CONTINUOUS
10
137.788
20
-84.8173
11
137.624
21
-84.85
0
LINE
8
BLACK
6
CONTINUOUS
10
137.624
20
-84.85
11
137.456
21
-84.85
0
LINE
8
BLACK
6
CONTINUOUS
10
137.456
20
-84.85
11
137.292
21
-84.8173
0
LINE
8
BLACK
6
CONTINUOUS
10
137.292
20
-84.8173
11
137.137
21
-84.7533
0
LINE
8
BLACK
6
CONTINUOUS
10
137.137
20
-84.7533
11
136.998
21
-84.6602
0
LINE
8
BLACK
6
CONTINUOUS
10
136.998
20
-84.6602
11
136.88
21
-84.5418
0
LINE
8
BLACK
6
CONTINUOUS
10
136.88
20
-84.5418
11
136.787
21
-84.4026
0
LINE
8
BLACK
6
CONTINUOUS
10
136.787
20
-84.4026
11
136.723
21
-84.2479
0
LINE
8
BLACK
6
CONTINUOUS
10
136.723
20
-84.2479
11
136.69
21
-84.0837
0
LINE
8
BLACK
6
CONTINUOUS
10
136.69
20
-84.0837
11
136.69
21
-83.9163
0
LINE
8
BLACK
6
CONTINUOUS
10
136.69
20
-83.9163
11
136.723
21
-83.7521
0
LINE
8
BLACK
6
CONTINUOUS
10
136.723
20
-83.7521
11
136.787
21
-83.5974
0
LINE
8
BLACK
6
CONTINUOUS
10
136.787
20
-83.5974
11
136.88
21
-83.4582
0
LINE
8
BLACK
6
CONTINUOUS
10
136.88
20
-83.4582
11
136.998
21
-83.3398
0
LINE
8
BLACK
6
CONTINUOUS
10
136.998
20
-83.3398
11
137.137
21
-83.2467
0
LINE
8
BLACK
6
CONTINUOUS
10
137.137
20
-83.2467
11
137.292
21
-83.1827
0
LINE
8
BLACK
6
CONTINUOUS
10
137.292
20
-83.1827
11
137.456
21
-83.15
0
LINE
8
BLACK
6
CONTINUOUS
10
137.456
20
-83.15
11
137.624
21
-83.15
0
LINE
8
BLACK
6
CONTINUOUS
10
137.624
20
-83.15
11
137.788
21
-83.1827
0
LINE
8
BLACK
6
CONTINUOUS
10
135.248
20
-83.1827
11
135.403
21
-83.2467
0
LINE
8
BLACK
6
CONTINUOUS
10
135.403
20
-83.2467
11
135.542
21
-83.3398
0
LINE
8
BLACK
6
CONTINUOUS
10
135.542
20
-83.3398
11
135.66
21
-83.4582
0
LINE
8
BLACK
6
CONTINUOUS
10
135.66
20
-83.4582
11
135.753
21
-83.5974
0
LINE
8
BLACK
6
CONTINUOUS
10
135.753
20
-83.5974
11
135.817
21
-83.7521
0
LINE
8
BLACK
6
CONTINUOUS
10
135.817
20
-83.7521
11
135.85
21
-83.9163
0
LINE
8
BLACK
6
CONTINUOUS
10
135.85
20
-83.9163
11
135.85
21
-84.0837
0
LINE
8
BLACK
6
CONTINUOUS
10
135.85
20
-84.0837
11
135.817
21
-84.2479
0
LINE
8
BLACK
6
CONTINUOUS
10
135.817
20
-84.2479
11
135.753
21
-84.4026
0
LINE
8
BLACK
6
CONTINUOUS
10
135.753
20
-84.4026
11
135.66
21
-84.5418
0
LINE
8
BLACK
6
CONTINUOUS
10
135.66
20
-84.5418
11
135.542
21
-84.6602
0
LINE
8
BLACK
6
CONTINUOUS
10
135.542
20
-84.6602
11
135.403
21
-84.7533
0
LINE
8
BLACK
6
CONTINUOUS
10
135.403
20
-84.7533
11
135.248
21
-84.8173
0
LINE
8
BLACK
6
CONTINUOUS
10
135.248
20
-84.8173
11
135.084
21
-84.85
0
LINE
8
BLACK
6
CONTINUOUS
10
135.084
20
-84.85
11
134.916
21
-84.85
0
LINE
8
BLACK
6
CONTINUOUS
10
134.916
20
-84.85
11
134.752
21
-84.8173
0
LINE
8
BLACK
6
CONTINUOUS
10
134.752
20
-84.8173
11
134.597
21
-84.7533
0
LINE
8
BLACK
6
CONTINUOUS
10
134.597
20
-84.7533
11
134.458
21
-84.6602
0
LINE
8
BLACK
6
CONTINUOUS
10
134.458
20
-84.6602
11
134.34
21
-84.5418
0
LINE
8
BLACK
6
CONTINUOUS
10
134.34
20
-84.5418
11
134.247
21
-84.4026
0
LINE
8
BLACK
6
CONTINUOUS
10
134.247
20
-84.4026
11
134.183
21
-84.2479
0
LINE
8
BLACK
6
CONTINUOUS
10
134.183
20
-84.2479
11
134.15
21
-84.0837
0
LINE
8
BLACK
6
CONTINUOUS
10
134.15
20
-84.0837
11
134.15
21
-83.9163
0
LINE
8
BLACK
6
CONTINUOUS
10
134.15
20
-83.9163
11
134.183
21
-83.7521
0
LINE
8
BLACK
6
CONTINUOUS
10
134.183
20
-83.7521
11
134.247
21
-83.5974
0
LINE
8
BLACK
6
CONTINUOUS
10
134.247
20
-83.5974
11
134.34
21
-83.4582
0
LINE
8
BLACK
6
CONTINUOUS
10
134.34
20
-83.4582
11
134.458
21
-83.3398
0
LINE
8
BLACK
6
CONTINUOUS
10
134.458
20
-83.3398
11
134.597
21
-83.2467
0
LINE
8
BLACK
6
CONTINUOUS
10
134.597
20
-83.2467
11
134.752
21
-83.1827
0
LINE
8
BLACK
6
CONTINUOUS
10
134.752
20
-83.1827
11
134.916
21
-83.15
0
LINE
8
BLACK
6
CONTINUOUS
10
134.916
20
-83.15
11
135.084
21
-83.15
0
LINE
8
BLACK
6
CONTINUOUS
10
135.084
20
-83.15
11
135.248
21
-83.1827
0
LINE
8
BLACK
6
CONTINUOUS
10
133.31
20
-84.85
11
131.61
21
-84.85
0
LINE
8
BLACK
6
CONTINUOUS
10
131.61
20
-84.85
11
131.61
21
-83.15
0
LINE
8
BLACK
6
CONTINUOUS
10
131.61
20
-83.15
11
133.31
21
-83.15
0
LINE
8
BLACK
6
CONTINUOUS
10
133.31
20
-83.15
11
133.31
21
-84.85
  0
ENDSEC
  0
EOF
