  0
SECTION
  2
HEADER
  9
$ANGBASE
  50
0.0
  9
$ANGDIR
  70
1
  9
$MEASUREMENT
  70
1
  0
ENDSEC
  0
SECTION
  2
TABLES
  0
TABLE
  2
LTYPE
  70
4
  0
LTYPE
  5
40F
  2
CONTINUOUS
  70
0
  3
Solid line
  72
65
  73
0
  40
0.0
  0
LTYPE
  5
410
  2
DASHDOT
 70
0
  3
Dash Dot ____ _ ____ _
 72
65
 73
4
 40
2.0
 49
1.25
 49
-0.25
 49
0.25
 49
-0.25
  0
LTYPE
  5
411
  2
DASHED
 70
0
  3
Dashed __ __ __ __ __
 72
65
 73
2
 40
0.75
 49
0.5
 49
-0.25
  0
LTYPE
  5
43B
  2
DOTTED
 70
0
  3
Dotted .  .  .  .
 72
65
 73
2
 40
0.2
 49
0.0
 49
-0.2
  0
ENDTAB
  0
TABLE
  2
STYLE
  70
4
  0
STYLE
  2
KICAD
  70
0
  40
0
  41
1
  42
1
  50
0
  71
0
  3
isocp.shx
  0
STYLE
  2
KICADB
  70
0
  40
0
  41
1
  42
1
  50
0
  71
0
  3
isocp.shx
  0
STYLE
  2
KICADI
  70
0
  40
0
  41
1
  42
1
  50
15
  71
0
  3
isocp.shx
  0
STYLE
  2
KICADBI
  70
0
  40
0
  41
1
  42
1
  50
15
  71
0
  3
isocp.shx
  0
ENDTAB
  0
TABLE
  2
LAYER
  70
1
  0
LAYER
  2
BLACK
  70
0
  62
7
  6
CONTINUOUS
  0
ENDTAB
  0
ENDSEC
  0
SECTION
  2
ENTITIES
0
LINE
8
BLACK
6
CONTINUOUS
10
125
20
-121.075
11
124.985
21
-121.074
0
LINE
8
BLACK
6
CONTINUOUS
10
124.985
20
-121.074
11
124.971
21
-121.07
0
LINE
8
BLACK
6
CONTINUOUS
10
124.971
20
-121.07
11
124.958
21
-121.063
0
LINE
8
BLACK
6
CONTINUOUS
10
124.958
20
-121.063
11
124.947
21
-121.053
0
LINE
8
BLACK
6
CONTINUOUS
10
124.947
20
-121.053
11
124.937
21
-121.042
0
LINE
8
BLACK
6
CONTINUOUS
10
124.937
20
-121.042
11
124.93
21
-121.029
0
LINE
8
BLACK
6
CONTINUOUS
10
124.93
20
-121.029
11
124.926
21
-121.015
0
LINE
8
BLACK
6
CONTINUOUS
10
124.926
20
-121.015
11
124.925
21
-121
0
LINE
8
BLACK
6
CONTINUOUS
10
124.925
20
-121
11
124.925
21
-120.996
0
LINE
8
BLACK
6
CONTINUOUS
10
124.925
20
-120.996
11
124.925
21
-80.0037
0
LINE
8
BLACK
6
CONTINUOUS
10
124.925
20
-80.0037
11
124.925
21
-80
0
LINE
8
BLACK
6
CONTINUOUS
10
124.925
20
-80
11
124.926
21
-79.9853
0
LINE
8
BLACK
6
CONTINUOUS
10
124.926
20
-79.9853
11
124.93
21
-79.9712
0
LINE
8
BLACK
6
CONTINUOUS
10
124.93
20
-79.9712
11
124.937
21
-79.9581
0
LINE
8
BLACK
6
CONTINUOUS
10
124.937
20
-79.9581
11
124.947
21
-79.9467
0
LINE
8
BLACK
6
CONTINUOUS
10
124.947
20
-79.9467
11
124.958
21
-79.9373
0
LINE
8
BLACK
6
CONTINUOUS
10
124.958
20
-79.9373
11
124.971
21
-79.9304
0
LINE
8
BLACK
6
CONTINUOUS
10
124.971
20
-79.9304
11
124.985
21
-79.9261
0
LINE
8
BLACK
6
CONTINUOUS
10
124.985
20
-79.9261
11
124.996
21
-79.925
0
LINE
8
BLACK
6
CONTINUOUS
10
124.996
20
-79.925
11
125
21
-79.9246
0
LINE
8
BLACK
6
CONTINUOUS
10
125
20
-79.9246
11
125.004
21
-79.925
0
LINE
8
BLACK
6
CONTINUOUS
10
125.004
20
-79.925
11
147.996
21
-79.925
0
LINE
8
BLACK
6
CONTINUOUS
10
147.996
20
-79.925
11
148
21
-79.9246
0
LINE
8
BLACK
6
CONTINUOUS
10
148
20
-79.9246
11
148.004
21
-79.925
0
LINE
8
BLACK
6
CONTINUOUS
10
148.004
20
-79.925
11
148.015
21
-79.9261
0
LINE
8
BLACK
6
CONTINUOUS
10
148.015
20
-79.9261
11
148.029
21
-79.9304
0
LINE
8
BLACK
6
CONTINUOUS
10
148.029
20
-79.9304
11
148.042
21
-79.9373
0
LINE
8
BLACK
6
CONTINUOUS
10
148.042
20
-79.9373
11
148.053
21
-79.9467
0
LINE
8
BLACK
6
CONTINUOUS
10
148.053
20
-79.9467
11
148.063
21
-79.9581
0
LINE
8
BLACK
6
CONTINUOUS
10
148.063
20
-79.9581
11
148.07
21
-79.9712
0
LINE
8
BLACK
6
CONTINUOUS
10
148.07
20
-79.9712
11
148.074
21
-79.9853
0
LINE
8
BLACK
6
CONTINUOUS
10
148.074
20
-79.9853
11
148.075
21
-80
0
LINE
8
BLACK
6
CONTINUOUS
10
148.075
20
-80
11
148.075
21
-80.0037
0
LINE
8
BLACK
6
CONTINUOUS
10
148.075
20
-80.0037
11
148.075
21
-120.996
0
LINE
8
BLACK
6
CONTINUOUS
10
148.075
20
-120.996
11
148.075
21
-121
0
LINE
8
BLACK
6
CONTINUOUS
10
148.075
20
-121
11
148.074
21
-121.015
0
LINE
8
BLACK
6
CONTINUOUS
10
148.074
20
-121.015
11
148.07
21
-121.029
0
LINE
8
BLACK
6
CONTINUOUS
10
148.07
20
-121.029
11
148.063
21
-121.042
0
LINE
8
BLACK
6
CONTINUOUS
10
148.063
20
-121.042
11
148.053
21
-121.053
0
LINE
8
BLACK
6
CONTINUOUS
10
148.053
20
-121.053
11
148.042
21
-121.063
0
LINE
8
BLACK
6
CONTINUOUS
10
148.042
20
-121.063
11
148.029
21
-121.07
0
LINE
8
BLACK
6
CONTINUOUS
10
148.029
20
-121.07
11
148.015
21
-121.074
0
LINE
8
BLACK
6
CONTINUOUS
10
148.015
20
-121.074
11
148.004
21
-121.075
0
LINE
8
BLACK
6
CONTINUOUS
10
148.004
20
-121.075
11
148
21
-121.075
0
LINE
8
BLACK
6
CONTINUOUS
10
148
20
-121.075
11
147.996
21
-121.075
0
LINE
8
BLACK
6
CONTINUOUS
10
147.996
20
-121.075
11
125.004
21
-121.075
0
LINE
8
BLACK
6
CONTINUOUS
10
125.004
20
-121.075
11
125
21
-121.075
0
LINE
8
BLACK
6
CONTINUOUS
10
147.925
20
-80.075
11
125.075
21
-80.075
0
LINE
8
BLACK
6
CONTINUOUS
10
125.075
20
-80.075
11
125.075
21
-120.925
0
LINE
8
BLACK
6
CONTINUOUS
10
125.075
20
-120.925
11
147.925
21
-120.925
0
LINE
8
BLACK
6
CONTINUOUS
10
147.925
20
-120.925
11
147.925
21
-80.075
0
LINE
8
BLACK
6
CONTINUOUS
10
125.906
20
-119.377
11
125.908
21
-119.378
0
LINE
8
BLACK
6
CONTINUOUS
10
125.908
20
-119.378
11
125.91
21
-119.378
0
LINE
8
BLACK
6
CONTINUOUS
10
125.91
20
-119.378
11
125.915
21
-119.378
0
LINE
8
BLACK
6
CONTINUOUS
10
125.915
20
-119.378
11
125.92
21
-119.379
0
LINE
8
BLACK
6
CONTINUOUS
10
125.92
20
-119.379
11
125.922
21
-119.38
0
LINE
8
BLACK
6
CONTINUOUS
10
125.922
20
-119.38
11
125.925
21
-119.38
0
LINE
8
BLACK
6
CONTINUOUS
10
125.925
20
-119.38
11
125.929
21
-119.382
0
LINE
8
BLACK
6
CONTINUOUS
10
125.929
20
-119.382
11
125.934
21
-119.383
0
LINE
8
BLACK
6
CONTINUOUS
10
125.934
20
-119.383
11
125.936
21
-119.385
0
LINE
8
BLACK
6
CONTINUOUS
10
125.936
20
-119.385
11
125.938
21
-119.385
0
LINE
8
BLACK
6
CONTINUOUS
10
125.938
20
-119.385
11
126.034
21
-119.433
0
LINE
8
BLACK
6
CONTINUOUS
10
126.034
20
-119.433
11
126.034
21
-119.433
0
LINE
8
BLACK
6
CONTINUOUS
10
126.034
20
-119.433
11
126.038
21
-119.436
0
LINE
8
BLACK
6
CONTINUOUS
10
126.038
20
-119.436
11
126.042
21
-119.438
0
LINE
8
BLACK
6
CONTINUOUS
10
126.042
20
-119.438
11
126.044
21
-119.44
0
LINE
8
BLACK
6
CONTINUOUS
10
126.044
20
-119.44
11
126.047
21
-119.441
0
LINE
8
BLACK
6
CONTINUOUS
10
126.047
20
-119.441
11
126.05
21
-119.444
0
LINE
8
BLACK
6
CONTINUOUS
10
126.05
20
-119.444
11
126.053
21
-119.447
0
LINE
8
BLACK
6
CONTINUOUS
10
126.053
20
-119.447
11
126.101
21
-119.495
0
LINE
8
BLACK
6
CONTINUOUS
10
126.101
20
-119.495
11
126.101
21
-119.495
0
LINE
8
BLACK
6
CONTINUOUS
10
126.101
20
-119.495
11
126.104
21
-119.499
0
LINE
8
BLACK
6
CONTINUOUS
10
126.104
20
-119.499
11
126.107
21
-119.502
0
LINE
8
BLACK
6
CONTINUOUS
10
126.107
20
-119.502
11
126.109
21
-119.504
0
LINE
8
BLACK
6
CONTINUOUS
10
126.109
20
-119.504
11
126.111
21
-119.507
0
LINE
8
BLACK
6
CONTINUOUS
10
126.111
20
-119.507
11
126.112
21
-119.511
0
LINE
8
BLACK
6
CONTINUOUS
10
126.112
20
-119.511
11
126.115
21
-119.514
0
LINE
8
BLACK
6
CONTINUOUS
10
126.115
20
-119.514
11
126.162
21
-119.609
0
LINE
8
BLACK
6
CONTINUOUS
10
126.162
20
-119.609
11
126.163
21
-119.61
0
LINE
8
BLACK
6
CONTINUOUS
10
126.163
20
-119.61
11
126.164
21
-119.612
0
LINE
8
BLACK
6
CONTINUOUS
10
126.164
20
-119.612
11
126.165
21
-119.614
0
LINE
8
BLACK
6
CONTINUOUS
10
126.165
20
-119.614
11
126.166
21
-119.619
0
LINE
8
BLACK
6
CONTINUOUS
10
126.166
20
-119.619
11
126.168
21
-119.624
0
LINE
8
BLACK
6
CONTINUOUS
10
126.168
20
-119.624
11
126.168
21
-119.626
0
LINE
8
BLACK
6
CONTINUOUS
10
126.168
20
-119.626
11
126.169
21
-119.628
0
LINE
8
BLACK
6
CONTINUOUS
10
126.169
20
-119.628
11
126.169
21
-119.633
0
LINE
8
BLACK
6
CONTINUOUS
10
126.169
20
-119.633
11
126.17
21
-119.638
0
LINE
8
BLACK
6
CONTINUOUS
10
126.17
20
-119.638
11
126.17
21
-119.641
0
LINE
8
BLACK
6
CONTINUOUS
10
126.17
20
-119.641
11
126.17
21
-119.643
0
LINE
8
BLACK
6
CONTINUOUS
10
126.17
20
-119.643
11
126.17
21
-119.738
0
LINE
8
BLACK
6
CONTINUOUS
10
126.17
20
-119.738
11
126.17
21
-119.739
0
LINE
8
BLACK
6
CONTINUOUS
10
126.17
20
-119.739
11
126.17
21
-119.743
0
LINE
8
BLACK
6
CONTINUOUS
10
126.17
20
-119.743
11
126.17
21
-119.748
0
LINE
8
BLACK
6
CONTINUOUS
10
126.17
20
-119.748
11
126.169
21
-119.751
0
LINE
8
BLACK
6
CONTINUOUS
10
126.169
20
-119.751
11
126.169
21
-119.754
0
LINE
8
BLACK
6
CONTINUOUS
10
126.169
20
-119.754
11
126.167
21
-119.758
0
LINE
8
BLACK
6
CONTINUOUS
10
126.167
20
-119.758
11
126.166
21
-119.762
0
LINE
8
BLACK
6
CONTINUOUS
10
126.166
20
-119.762
11
126.119
21
-119.905
0
LINE
8
BLACK
6
CONTINUOUS
10
126.119
20
-119.905
11
126.118
21
-119.906
0
LINE
8
BLACK
6
CONTINUOUS
10
126.118
20
-119.906
11
126.118
21
-119.908
0
LINE
8
BLACK
6
CONTINUOUS
10
126.118
20
-119.908
11
126.117
21
-119.91
0
LINE
8
BLACK
6
CONTINUOUS
10
126.117
20
-119.91
11
126.114
21
-119.914
0
LINE
8
BLACK
6
CONTINUOUS
10
126.114
20
-119.914
11
126.112
21
-119.919
0
LINE
8
BLACK
6
CONTINUOUS
10
126.112
20
-119.919
11
126.111
21
-119.921
0
LINE
8
BLACK
6
CONTINUOUS
10
126.111
20
-119.921
11
126.11
21
-119.923
0
LINE
8
BLACK
6
CONTINUOUS
10
126.11
20
-119.923
11
126.107
21
-119.927
0
LINE
8
BLACK
6
CONTINUOUS
10
126.107
20
-119.927
11
126.104
21
-119.931
0
LINE
8
BLACK
6
CONTINUOUS
10
126.104
20
-119.931
11
126.102
21
-119.932
0
LINE
8
BLACK
6
CONTINUOUS
10
126.102
20
-119.932
11
126.101
21
-119.934
0
LINE
8
BLACK
6
CONTINUOUS
10
126.101
20
-119.934
11
125.657
21
-120.377
0
LINE
8
BLACK
6
CONTINUOUS
10
125.657
20
-120.377
11
126.095
21
-120.377
0
LINE
8
BLACK
6
CONTINUOUS
10
126.095
20
-120.377
11
126.096
21
-120.377
0
LINE
8
BLACK
6
CONTINUOUS
10
126.096
20
-120.377
11
126.111
21
-120.379
0
LINE
8
BLACK
6
CONTINUOUS
10
126.111
20
-120.379
11
126.125
21
-120.383
0
LINE
8
BLACK
6
CONTINUOUS
10
126.125
20
-120.383
11
126.138
21
-120.39
0
LINE
8
BLACK
6
CONTINUOUS
10
126.138
20
-120.39
11
126.149
21
-120.4
0
LINE
8
BLACK
6
CONTINUOUS
10
126.149
20
-120.4
11
126.158
21
-120.411
0
LINE
8
BLACK
6
CONTINUOUS
10
126.158
20
-120.411
11
126.165
21
-120.424
0
LINE
8
BLACK
6
CONTINUOUS
10
126.165
20
-120.424
11
126.169
21
-120.438
0
LINE
8
BLACK
6
CONTINUOUS
10
126.169
20
-120.438
11
126.17
21
-120.453
0
LINE
8
BLACK
6
CONTINUOUS
10
126.17
20
-120.453
11
126.169
21
-120.467
0
LINE
8
BLACK
6
CONTINUOUS
10
126.169
20
-120.467
11
126.164
21
-120.481
0
LINE
8
BLACK
6
CONTINUOUS
10
126.164
20
-120.481
11
126.157
21
-120.494
0
LINE
8
BLACK
6
CONTINUOUS
10
126.157
20
-120.494
11
126.148
21
-120.506
0
LINE
8
BLACK
6
CONTINUOUS
10
126.148
20
-120.506
11
126.137
21
-120.515
0
LINE
8
BLACK
6
CONTINUOUS
10
126.137
20
-120.515
11
126.124
21
-120.522
0
LINE
8
BLACK
6
CONTINUOUS
10
126.124
20
-120.522
11
126.11
21
-120.526
0
LINE
8
BLACK
6
CONTINUOUS
10
126.11
20
-120.526
11
126.095
21
-120.527
0
LINE
8
BLACK
6
CONTINUOUS
10
126.095
20
-120.527
11
125.476
21
-120.527
0
LINE
8
BLACK
6
CONTINUOUS
10
125.476
20
-120.527
11
125.475
21
-120.527
0
LINE
8
BLACK
6
CONTINUOUS
10
125.475
20
-120.527
11
125.475
21
-120.527
0
LINE
8
BLACK
6
CONTINUOUS
10
125.475
20
-120.527
11
125.475
21
-120.527
0
LINE
8
BLACK
6
CONTINUOUS
10
125.475
20
-120.527
11
125.475
21
-120.527
0
LINE
8
BLACK
6
CONTINUOUS
10
125.475
20
-120.527
11
125.468
21
-120.527
0
LINE
8
BLACK
6
CONTINUOUS
10
125.468
20
-120.527
11
125.461
21
-120.526
0
LINE
8
BLACK
6
CONTINUOUS
10
125.461
20
-120.526
11
125.461
21
-120.526
0
LINE
8
BLACK
6
CONTINUOUS
10
125.461
20
-120.526
11
125.461
21
-120.526
0
LINE
8
BLACK
6
CONTINUOUS
10
125.461
20
-120.526
11
125.454
21
-120.524
0
LINE
8
BLACK
6
CONTINUOUS
10
125.454
20
-120.524
11
125.447
21
-120.521
0
LINE
8
BLACK
6
CONTINUOUS
10
125.447
20
-120.521
11
125.447
21
-120.521
0
LINE
8
BLACK
6
CONTINUOUS
10
125.447
20
-120.521
11
125.447
21
-120.521
0
LINE
8
BLACK
6
CONTINUOUS
10
125.447
20
-120.521
11
125.44
21
-120.518
0
LINE
8
BLACK
6
CONTINUOUS
10
125.44
20
-120.518
11
125.434
21
-120.514
0
LINE
8
BLACK
6
CONTINUOUS
10
125.434
20
-120.514
11
125.434
21
-120.514
0
LINE
8
BLACK
6
CONTINUOUS
10
125.434
20
-120.514
11
125.434
21
-120.514
0
LINE
8
BLACK
6
CONTINUOUS
10
125.434
20
-120.514
11
125.428
21
-120.51
0
LINE
8
BLACK
6
CONTINUOUS
10
125.428
20
-120.51
11
125.423
21
-120.505
0
LINE
8
BLACK
6
CONTINUOUS
10
125.423
20
-120.505
11
125.423
21
-120.505
0
LINE
8
BLACK
6
CONTINUOUS
10
125.423
20
-120.505
11
125.423
21
-120.505
0
LINE
8
BLACK
6
CONTINUOUS
10
125.423
20
-120.505
11
125.418
21
-120.499
0
LINE
8
BLACK
6
CONTINUOUS
10
125.418
20
-120.499
11
125.414
21
-120.494
0
LINE
8
BLACK
6
CONTINUOUS
10
125.414
20
-120.494
11
125.414
21
-120.494
0
LINE
8
BLACK
6
CONTINUOUS
10
125.414
20
-120.494
11
125.413
21
-120.493
0
LINE
8
BLACK
6
CONTINUOUS
10
125.413
20
-120.493
11
125.41
21
-120.487
0
LINE
8
BLACK
6
CONTINUOUS
10
125.41
20
-120.487
11
125.407
21
-120.481
0
LINE
8
BLACK
6
CONTINUOUS
10
125.407
20
-120.481
11
125.407
21
-120.481
0
LINE
8
BLACK
6
CONTINUOUS
10
125.407
20
-120.481
11
125.407
21
-120.48
0
LINE
8
BLACK
6
CONTINUOUS
10
125.407
20
-120.48
11
125.405
21
-120.474
0
LINE
8
BLACK
6
CONTINUOUS
10
125.405
20
-120.474
11
125.403
21
-120.467
0
LINE
8
BLACK
6
CONTINUOUS
10
125.403
20
-120.467
11
125.403
21
-120.467
0
LINE
8
BLACK
6
CONTINUOUS
10
125.403
20
-120.467
11
125.403
21
-120.466
0
LINE
8
BLACK
6
CONTINUOUS
10
125.403
20
-120.466
11
125.402
21
-120.459
0
LINE
8
BLACK
6
CONTINUOUS
10
125.402
20
-120.459
11
125.401
21
-120.452
0
LINE
8
BLACK
6
CONTINUOUS
10
125.401
20
-120.452
11
125.401
21
-120.452
0
LINE
8
BLACK
6
CONTINUOUS
10
125.401
20
-120.452
11
125.401
21
-120.452
0
LINE
8
BLACK
6
CONTINUOUS
10
125.401
20
-120.452
11
125.402
21
-120.445
0
LINE
8
BLACK
6
CONTINUOUS
10
125.402
20
-120.445
11
125.403
21
-120.438
0
LINE
8
BLACK
6
CONTINUOUS
10
125.403
20
-120.438
11
125.403
21
-120.437
0
LINE
8
BLACK
6
CONTINUOUS
10
125.403
20
-120.437
11
125.403
21
-120.437
0
LINE
8
BLACK
6
CONTINUOUS
10
125.403
20
-120.437
11
125.405
21
-120.43
0
LINE
8
BLACK
6
CONTINUOUS
10
125.405
20
-120.43
11
125.407
21
-120.424
0
LINE
8
BLACK
6
CONTINUOUS
10
125.407
20
-120.424
11
125.407
21
-120.423
0
LINE
8
BLACK
6
CONTINUOUS
10
125.407
20
-120.423
11
125.407
21
-120.423
0
LINE
8
BLACK
6
CONTINUOUS
10
125.407
20
-120.423
11
125.41
21
-120.417
0
LINE
8
BLACK
6
CONTINUOUS
10
125.41
20
-120.417
11
125.414
21
-120.411
0
LINE
8
BLACK
6
CONTINUOUS
10
125.414
20
-120.411
11
125.414
21
-120.411
0
LINE
8
BLACK
6
CONTINUOUS
10
125.414
20
-120.411
11
125.414
21
-120.41
0
LINE
8
BLACK
6
CONTINUOUS
10
125.414
20
-120.41
11
125.419
21
-120.405
0
LINE
8
BLACK
6
CONTINUOUS
10
125.419
20
-120.405
11
125.423
21
-120.399
0
LINE
8
BLACK
6
CONTINUOUS
10
125.423
20
-120.399
11
125.982
21
-119.84
0
LINE
8
BLACK
6
CONTINUOUS
10
125.982
20
-119.84
11
126.02
21
-119.726
0
LINE
8
BLACK
6
CONTINUOUS
10
126.02
20
-119.726
11
126.02
21
-119.661
0
LINE
8
BLACK
6
CONTINUOUS
10
126.02
20
-119.661
11
125.986
21
-119.592
0
LINE
8
BLACK
6
CONTINUOUS
10
125.986
20
-119.592
11
125.956
21
-119.562
0
LINE
8
BLACK
6
CONTINUOUS
10
125.956
20
-119.562
11
125.887
21
-119.527
0
LINE
8
BLACK
6
CONTINUOUS
10
125.887
20
-119.527
11
125.684
21
-119.527
0
LINE
8
BLACK
6
CONTINUOUS
10
125.684
20
-119.527
11
125.616
21
-119.562
0
LINE
8
BLACK
6
CONTINUOUS
10
125.616
20
-119.562
11
125.577
21
-119.601
0
LINE
8
BLACK
6
CONTINUOUS
10
125.577
20
-119.601
11
125.576
21
-119.601
0
LINE
8
BLACK
6
CONTINUOUS
10
125.576
20
-119.601
11
125.565
21
-119.611
0
LINE
8
BLACK
6
CONTINUOUS
10
125.565
20
-119.611
11
125.552
21
-119.617
0
LINE
8
BLACK
6
CONTINUOUS
10
125.552
20
-119.617
11
125.538
21
-119.621
0
LINE
8
BLACK
6
CONTINUOUS
10
125.538
20
-119.621
11
125.523
21
-119.623
0
LINE
8
BLACK
6
CONTINUOUS
10
125.523
20
-119.623
11
125.508
21
-119.621
0
LINE
8
BLACK
6
CONTINUOUS
10
125.508
20
-119.621
11
125.495
21
-119.617
0
LINE
8
BLACK
6
CONTINUOUS
10
125.495
20
-119.617
11
125.482
21
-119.61
0
LINE
8
BLACK
6
CONTINUOUS
10
125.482
20
-119.61
11
125.47
21
-119.6
0
LINE
8
BLACK
6
CONTINUOUS
10
125.47
20
-119.6
11
125.461
21
-119.589
0
LINE
8
BLACK
6
CONTINUOUS
10
125.461
20
-119.589
11
125.454
21
-119.576
0
LINE
8
BLACK
6
CONTINUOUS
10
125.454
20
-119.576
11
125.45
21
-119.562
0
LINE
8
BLACK
6
CONTINUOUS
10
125.45
20
-119.562
11
125.449
21
-119.547
0
LINE
8
BLACK
6
CONTINUOUS
10
125.449
20
-119.547
11
125.45
21
-119.533
0
LINE
8
BLACK
6
CONTINUOUS
10
125.45
20
-119.533
11
125.455
21
-119.519
0
LINE
8
BLACK
6
CONTINUOUS
10
125.455
20
-119.519
11
125.461
21
-119.506
0
LINE
8
BLACK
6
CONTINUOUS
10
125.461
20
-119.506
11
125.471
21
-119.495
0
LINE
8
BLACK
6
CONTINUOUS
10
125.471
20
-119.495
11
125.518
21
-119.447
0
LINE
8
BLACK
6
CONTINUOUS
10
125.518
20
-119.447
11
125.519
21
-119.446
0
LINE
8
BLACK
6
CONTINUOUS
10
125.519
20
-119.446
11
125.522
21
-119.444
0
LINE
8
BLACK
6
CONTINUOUS
10
125.522
20
-119.444
11
125.525
21
-119.441
0
LINE
8
BLACK
6
CONTINUOUS
10
125.525
20
-119.441
11
125.528
21
-119.439
0
LINE
8
BLACK
6
CONTINUOUS
10
125.528
20
-119.439
11
125.531
21
-119.437
0
LINE
8
BLACK
6
CONTINUOUS
10
125.531
20
-119.437
11
125.534
21
-119.435
0
LINE
8
BLACK
6
CONTINUOUS
10
125.534
20
-119.435
11
125.538
21
-119.433
0
LINE
8
BLACK
6
CONTINUOUS
10
125.538
20
-119.433
11
125.633
21
-119.385
0
LINE
8
BLACK
6
CONTINUOUS
10
125.633
20
-119.385
11
125.634
21
-119.385
0
LINE
8
BLACK
6
CONTINUOUS
10
125.634
20
-119.385
11
125.636
21
-119.384
0
LINE
8
BLACK
6
CONTINUOUS
10
125.636
20
-119.384
11
125.638
21
-119.383
0
LINE
8
BLACK
6
CONTINUOUS
10
125.638
20
-119.383
11
125.643
21
-119.382
0
LINE
8
BLACK
6
CONTINUOUS
10
125.643
20
-119.382
11
125.648
21
-119.38
0
LINE
8
BLACK
6
CONTINUOUS
10
125.648
20
-119.38
11
125.65
21
-119.379
0
LINE
8
BLACK
6
CONTINUOUS
10
125.65
20
-119.379
11
125.652
21
-119.379
0
LINE
8
BLACK
6
CONTINUOUS
10
125.652
20
-119.379
11
125.657
21
-119.378
0
LINE
8
BLACK
6
CONTINUOUS
10
125.657
20
-119.378
11
125.662
21
-119.378
0
LINE
8
BLACK
6
CONTINUOUS
10
125.662
20
-119.378
11
125.664
21
-119.378
0
LINE
8
BLACK
6
CONTINUOUS
10
125.664
20
-119.378
11
125.667
21
-119.377
0
LINE
8
BLACK
6
CONTINUOUS
10
125.667
20
-119.377
11
125.905
21
-119.377
0
LINE
8
BLACK
6
CONTINUOUS
10
125.905
20
-119.377
11
125.906
21
-119.377
0
LINE
8
BLACK
6
CONTINUOUS
10
127.049
20
-119.377
11
127.053
21
-119.378
0
LINE
8
BLACK
6
CONTINUOUS
10
127.053
20
-119.378
11
127.058
21
-119.378
0
LINE
8
BLACK
6
CONTINUOUS
10
127.058
20
-119.378
11
127.061
21
-119.379
0
LINE
8
BLACK
6
CONTINUOUS
10
127.061
20
-119.379
11
127.063
21
-119.379
0
LINE
8
BLACK
6
CONTINUOUS
10
127.063
20
-119.379
11
127.068
21
-119.38
0
LINE
8
BLACK
6
CONTINUOUS
10
127.068
20
-119.38
11
127.072
21
-119.382
0
LINE
8
BLACK
6
CONTINUOUS
10
127.072
20
-119.382
11
127.075
21
-119.383
0
LINE
8
BLACK
6
CONTINUOUS
10
127.075
20
-119.383
11
127.077
21
-119.383
0
LINE
8
BLACK
6
CONTINUOUS
10
127.077
20
-119.383
11
127.081
21
-119.386
0
LINE
8
BLACK
6
CONTINUOUS
10
127.081
20
-119.386
11
127.086
21
-119.388
0
LINE
8
BLACK
6
CONTINUOUS
10
127.086
20
-119.388
11
127.088
21
-119.389
0
LINE
8
BLACK
6
CONTINUOUS
10
127.088
20
-119.389
11
127.09
21
-119.39
0
LINE
8
BLACK
6
CONTINUOUS
10
127.09
20
-119.39
11
127.094
21
-119.394
0
LINE
8
BLACK
6
CONTINUOUS
10
127.094
20
-119.394
11
127.097
21
-119.396
0
LINE
8
BLACK
6
CONTINUOUS
10
127.097
20
-119.396
11
127.099
21
-119.398
0
LINE
8
BLACK
6
CONTINUOUS
10
127.099
20
-119.398
11
127.101
21
-119.4
0
LINE
8
BLACK
6
CONTINUOUS
10
127.101
20
-119.4
11
127.104
21
-119.404
0
LINE
8
BLACK
6
CONTINUOUS
10
127.104
20
-119.404
11
127.107
21
-119.407
0
LINE
8
BLACK
6
CONTINUOUS
10
127.107
20
-119.407
11
127.109
21
-119.409
0
LINE
8
BLACK
6
CONTINUOUS
10
127.109
20
-119.409
11
127.11
21
-119.411
0
LINE
8
BLACK
6
CONTINUOUS
10
127.11
20
-119.411
11
127.113
21
-119.415
0
LINE
8
BLACK
6
CONTINUOUS
10
127.113
20
-119.415
11
127.115
21
-119.419
0
LINE
8
BLACK
6
CONTINUOUS
10
127.115
20
-119.419
11
127.116
21
-119.422
0
LINE
8
BLACK
6
CONTINUOUS
10
127.116
20
-119.422
11
127.117
21
-119.424
0
LINE
8
BLACK
6
CONTINUOUS
10
127.117
20
-119.424
11
127.118
21
-119.429
0
LINE
8
BLACK
6
CONTINUOUS
10
127.118
20
-119.429
11
127.12
21
-119.433
0
LINE
8
BLACK
6
CONTINUOUS
10
127.12
20
-119.433
11
127.121
21
-119.436
0
LINE
8
BLACK
6
CONTINUOUS
10
127.121
20
-119.436
11
127.121
21
-119.438
0
LINE
8
BLACK
6
CONTINUOUS
10
127.121
20
-119.438
11
127.122
21
-119.443
0
LINE
8
BLACK
6
CONTINUOUS
10
127.122
20
-119.443
11
127.122
21
-119.448
0
LINE
8
BLACK
6
CONTINUOUS
10
127.122
20
-119.448
11
127.122
21
-119.45
0
LINE
8
BLACK
6
CONTINUOUS
10
127.122
20
-119.45
11
127.123
21
-119.453
0
LINE
8
BLACK
6
CONTINUOUS
10
127.123
20
-119.453
11
127.122
21
-119.458
0
LINE
8
BLACK
6
CONTINUOUS
10
127.122
20
-119.458
11
127.122
21
-119.462
0
LINE
8
BLACK
6
CONTINUOUS
10
127.122
20
-119.462
11
127.121
21
-119.465
0
LINE
8
BLACK
6
CONTINUOUS
10
127.121
20
-119.465
11
127.121
21
-119.467
0
LINE
8
BLACK
6
CONTINUOUS
10
127.121
20
-119.467
11
127.12
21
-119.472
0
LINE
8
BLACK
6
CONTINUOUS
10
127.12
20
-119.472
11
127.119
21
-119.477
0
LINE
8
BLACK
6
CONTINUOUS
10
127.119
20
-119.477
11
127.118
21
-119.479
0
LINE
8
BLACK
6
CONTINUOUS
10
127.118
20
-119.479
11
127.117
21
-119.481
0
LINE
8
BLACK
6
CONTINUOUS
10
127.117
20
-119.481
11
127.115
21
-119.486
0
LINE
8
BLACK
6
CONTINUOUS
10
127.115
20
-119.486
11
127.113
21
-119.49
0
LINE
8
BLACK
6
CONTINUOUS
10
127.113
20
-119.49
11
127.111
21
-119.492
0
LINE
8
BLACK
6
CONTINUOUS
10
127.111
20
-119.492
11
127.11
21
-119.494
0
LINE
8
BLACK
6
CONTINUOUS
10
127.11
20
-119.494
11
127.107
21
-119.498
0
LINE
8
BLACK
6
CONTINUOUS
10
127.107
20
-119.498
11
127.104
21
-119.502
0
LINE
8
BLACK
6
CONTINUOUS
10
127.104
20
-119.502
11
126.877
21
-119.761
0
LINE
8
BLACK
6
CONTINUOUS
10
126.877
20
-119.761
11
126.882
21
-119.763
0
LINE
8
BLACK
6
CONTINUOUS
10
126.882
20
-119.763
11
126.887
21
-119.764
0
LINE
8
BLACK
6
CONTINUOUS
10
126.887
20
-119.764
11
126.889
21
-119.765
0
LINE
8
BLACK
6
CONTINUOUS
10
126.889
20
-119.765
11
126.891
21
-119.766
0
LINE
8
BLACK
6
CONTINUOUS
10
126.891
20
-119.766
11
126.986
21
-119.814
0
LINE
8
BLACK
6
CONTINUOUS
10
126.986
20
-119.814
11
126.987
21
-119.814
0
LINE
8
BLACK
6
CONTINUOUS
10
126.987
20
-119.814
11
126.99
21
-119.817
0
LINE
8
BLACK
6
CONTINUOUS
10
126.99
20
-119.817
11
126.994
21
-119.819
0
LINE
8
BLACK
6
CONTINUOUS
10
126.994
20
-119.819
11
126.997
21
-119.821
0
LINE
8
BLACK
6
CONTINUOUS
10
126.997
20
-119.821
11
126.999
21
-119.822
0
LINE
8
BLACK
6
CONTINUOUS
10
126.999
20
-119.822
11
127.002
21
-119.825
0
LINE
8
BLACK
6
CONTINUOUS
10
127.002
20
-119.825
11
127.005
21
-119.828
0
LINE
8
BLACK
6
CONTINUOUS
10
127.005
20
-119.828
11
127.053
21
-119.876
0
LINE
8
BLACK
6
CONTINUOUS
10
127.053
20
-119.876
11
127.054
21
-119.876
0
LINE
8
BLACK
6
CONTINUOUS
10
127.054
20
-119.876
11
127.056
21
-119.88
0
LINE
8
BLACK
6
CONTINUOUS
10
127.056
20
-119.88
11
127.059
21
-119.883
0
LINE
8
BLACK
6
CONTINUOUS
10
127.059
20
-119.883
11
127.061
21
-119.885
0
LINE
8
BLACK
6
CONTINUOUS
10
127.061
20
-119.885
11
127.063
21
-119.888
0
LINE
8
BLACK
6
CONTINUOUS
10
127.063
20
-119.888
11
127.065
21
-119.891
0
LINE
8
BLACK
6
CONTINUOUS
10
127.065
20
-119.891
11
127.067
21
-119.895
0
LINE
8
BLACK
6
CONTINUOUS
10
127.067
20
-119.895
11
127.115
21
-119.99
0
LINE
8
BLACK
6
CONTINUOUS
10
127.115
20
-119.99
11
127.115
21
-119.991
0
LINE
8
BLACK
6
CONTINUOUS
10
127.115
20
-119.991
11
127.116
21
-119.993
0
LINE
8
BLACK
6
CONTINUOUS
10
127.116
20
-119.993
11
127.117
21
-119.995
0
LINE
8
BLACK
6
CONTINUOUS
10
127.117
20
-119.995
11
127.118
21
-120
0
LINE
8
BLACK
6
CONTINUOUS
10
127.118
20
-120
11
127.12
21
-120.005
0
LINE
8
BLACK
6
CONTINUOUS
10
127.12
20
-120.005
11
127.121
21
-120.007
0
LINE
8
BLACK
6
CONTINUOUS
10
127.121
20
-120.007
11
127.121
21
-120.009
0
LINE
8
BLACK
6
CONTINUOUS
10
127.121
20
-120.009
11
127.122
21
-120.014
0
LINE
8
BLACK
6
CONTINUOUS
10
127.122
20
-120.014
11
127.122
21
-120.019
0
LINE
8
BLACK
6
CONTINUOUS
10
127.122
20
-120.019
11
127.122
21
-120.022
0
LINE
8
BLACK
6
CONTINUOUS
10
127.122
20
-120.022
11
127.123
21
-120.024
0
LINE
8
BLACK
6
CONTINUOUS
10
127.123
20
-120.024
11
127.123
21
-120.262
0
LINE
8
BLACK
6
CONTINUOUS
10
127.123
20
-120.262
11
127.123
21
-120.263
0
LINE
8
BLACK
6
CONTINUOUS
10
127.123
20
-120.263
11
127.122
21
-120.265
0
LINE
8
BLACK
6
CONTINUOUS
10
127.122
20
-120.265
11
127.122
21
-120.267
0
LINE
8
BLACK
6
CONTINUOUS
10
127.122
20
-120.267
11
127.122
21
-120.272
0
LINE
8
BLACK
6
CONTINUOUS
10
127.122
20
-120.272
11
127.121
21
-120.277
0
LINE
8
BLACK
6
CONTINUOUS
10
127.121
20
-120.277
11
127.12
21
-120.28
0
LINE
8
BLACK
6
CONTINUOUS
10
127.12
20
-120.28
11
127.12
21
-120.282
0
LINE
8
BLACK
6
CONTINUOUS
10
127.12
20
-120.282
11
127.118
21
-120.287
0
LINE
8
BLACK
6
CONTINUOUS
10
127.118
20
-120.287
11
127.117
21
-120.291
0
LINE
8
BLACK
6
CONTINUOUS
10
127.117
20
-120.291
11
127.115
21
-120.293
0
LINE
8
BLACK
6
CONTINUOUS
10
127.115
20
-120.293
11
127.115
21
-120.295
0
LINE
8
BLACK
6
CONTINUOUS
10
127.115
20
-120.295
11
127.067
21
-120.391
0
LINE
8
BLACK
6
CONTINUOUS
10
127.067
20
-120.391
11
127.067
21
-120.392
0
LINE
8
BLACK
6
CONTINUOUS
10
127.067
20
-120.392
11
127.064
21
-120.395
0
LINE
8
BLACK
6
CONTINUOUS
10
127.064
20
-120.395
11
127.062
21
-120.399
0
LINE
8
BLACK
6
CONTINUOUS
10
127.062
20
-120.399
11
127.06
21
-120.401
0
LINE
8
BLACK
6
CONTINUOUS
10
127.06
20
-120.401
11
127.059
21
-120.404
0
LINE
8
BLACK
6
CONTINUOUS
10
127.059
20
-120.404
11
127.056
21
-120.407
0
LINE
8
BLACK
6
CONTINUOUS
10
127.056
20
-120.407
11
127.053
21
-120.41
0
LINE
8
BLACK
6
CONTINUOUS
10
127.053
20
-120.41
11
127.005
21
-120.458
0
LINE
8
BLACK
6
CONTINUOUS
10
127.005
20
-120.458
11
127.005
21
-120.459
0
LINE
8
BLACK
6
CONTINUOUS
10
127.005
20
-120.459
11
127.001
21
-120.461
0
LINE
8
BLACK
6
CONTINUOUS
10
127.001
20
-120.461
11
126.998
21
-120.464
0
LINE
8
BLACK
6
CONTINUOUS
10
126.998
20
-120.464
11
126.996
21
-120.466
0
LINE
8
BLACK
6
CONTINUOUS
10
126.996
20
-120.466
11
126.993
21
-120.468
0
LINE
8
BLACK
6
CONTINUOUS
10
126.993
20
-120.468
11
126.989
21
-120.47
0
LINE
8
BLACK
6
CONTINUOUS
10
126.989
20
-120.47
11
126.986
21
-120.472
0
LINE
8
BLACK
6
CONTINUOUS
10
126.986
20
-120.472
11
126.891
21
-120.519
0
LINE
8
BLACK
6
CONTINUOUS
10
126.891
20
-120.519
11
126.89
21
-120.52
0
LINE
8
BLACK
6
CONTINUOUS
10
126.89
20
-120.52
11
126.888
21
-120.521
0
LINE
8
BLACK
6
CONTINUOUS
10
126.888
20
-120.521
11
126.886
21
-120.522
0
LINE
8
BLACK
6
CONTINUOUS
10
126.886
20
-120.522
11
126.881
21
-120.523
0
LINE
8
BLACK
6
CONTINUOUS
10
126.881
20
-120.523
11
126.876
21
-120.525
0
LINE
8
BLACK
6
CONTINUOUS
10
126.876
20
-120.525
11
126.874
21
-120.525
0
LINE
8
BLACK
6
CONTINUOUS
10
126.874
20
-120.525
11
126.872
21
-120.526
0
LINE
8
BLACK
6
CONTINUOUS
10
126.872
20
-120.526
11
126.867
21
-120.526
0
LINE
8
BLACK
6
CONTINUOUS
10
126.867
20
-120.526
11
126.862
21
-120.527
0
LINE
8
BLACK
6
CONTINUOUS
10
126.862
20
-120.527
11
126.859
21
-120.527
0
LINE
8
BLACK
6
CONTINUOUS
10
126.859
20
-120.527
11
126.857
21
-120.527
0
LINE
8
BLACK
6
CONTINUOUS
10
126.857
20
-120.527
11
126.571
21
-120.527
0
LINE
8
BLACK
6
CONTINUOUS
10
126.571
20
-120.527
11
126.57
21
-120.527
0
LINE
8
BLACK
6
CONTINUOUS
10
126.57
20
-120.527
11
126.568
21
-120.527
0
LINE
8
BLACK
6
CONTINUOUS
10
126.568
20
-120.527
11
126.566
21
-120.527
0
LINE
8
BLACK
6
CONTINUOUS
10
126.566
20
-120.527
11
126.561
21
-120.526
0
LINE
8
BLACK
6
CONTINUOUS
10
126.561
20
-120.526
11
126.556
21
-120.526
0
LINE
8
BLACK
6
CONTINUOUS
10
126.556
20
-120.526
11
126.554
21
-120.525
0
LINE
8
BLACK
6
CONTINUOUS
10
126.554
20
-120.525
11
126.552
21
-120.525
0
LINE
8
BLACK
6
CONTINUOUS
10
126.552
20
-120.525
11
126.547
21
-120.523
0
LINE
8
BLACK
6
CONTINUOUS
10
126.547
20
-120.523
11
126.542
21
-120.521
0
LINE
8
BLACK
6
CONTINUOUS
10
126.542
20
-120.521
11
126.54
21
-120.52
0
LINE
8
BLACK
6
CONTINUOUS
10
126.54
20
-120.52
11
126.538
21
-120.519
0
LINE
8
BLACK
6
CONTINUOUS
10
126.538
20
-120.519
11
126.443
21
-120.472
0
LINE
8
BLACK
6
CONTINUOUS
10
126.443
20
-120.472
11
126.442
21
-120.471
0
LINE
8
BLACK
6
CONTINUOUS
10
126.442
20
-120.471
11
126.438
21
-120.469
0
LINE
8
BLACK
6
CONTINUOUS
10
126.438
20
-120.469
11
126.434
21
-120.467
0
LINE
8
BLACK
6
CONTINUOUS
10
126.434
20
-120.467
11
126.432
21
-120.465
0
LINE
8
BLACK
6
CONTINUOUS
10
126.432
20
-120.465
11
126.429
21
-120.463
0
LINE
8
BLACK
6
CONTINUOUS
10
126.429
20
-120.463
11
126.426
21
-120.46
0
LINE
8
BLACK
6
CONTINUOUS
10
126.426
20
-120.46
11
126.423
21
-120.458
0
LINE
8
BLACK
6
CONTINUOUS
10
126.423
20
-120.458
11
126.376
21
-120.41
0
LINE
8
BLACK
6
CONTINUOUS
10
126.376
20
-120.41
11
126.375
21
-120.409
0
LINE
8
BLACK
6
CONTINUOUS
10
126.375
20
-120.409
11
126.366
21
-120.398
0
LINE
8
BLACK
6
CONTINUOUS
10
126.366
20
-120.398
11
126.359
21
-120.385
0
LINE
8
BLACK
6
CONTINUOUS
10
126.359
20
-120.385
11
126.355
21
-120.371
0
LINE
8
BLACK
6
CONTINUOUS
10
126.355
20
-120.371
11
126.354
21
-120.356
0
LINE
8
BLACK
6
CONTINUOUS
10
126.354
20
-120.356
11
126.355
21
-120.342
0
LINE
8
BLACK
6
CONTINUOUS
10
126.355
20
-120.342
11
126.36
21
-120.328
0
LINE
8
BLACK
6
CONTINUOUS
10
126.36
20
-120.328
11
126.367
21
-120.315
0
LINE
8
BLACK
6
CONTINUOUS
10
126.367
20
-120.315
11
126.376
21
-120.304
0
LINE
8
BLACK
6
CONTINUOUS
10
126.376
20
-120.304
11
126.387
21
-120.295
0
LINE
8
BLACK
6
CONTINUOUS
10
126.387
20
-120.295
11
126.4
21
-120.288
0
LINE
8
BLACK
6
CONTINUOUS
10
126.4
20
-120.288
11
126.414
21
-120.284
0
LINE
8
BLACK
6
CONTINUOUS
10
126.414
20
-120.284
11
126.429
21
-120.282
0
LINE
8
BLACK
6
CONTINUOUS
10
126.429
20
-120.282
11
126.443
21
-120.284
0
LINE
8
BLACK
6
CONTINUOUS
10
126.443
20
-120.284
11
126.457
21
-120.288
0
LINE
8
BLACK
6
CONTINUOUS
10
126.457
20
-120.288
11
126.47
21
-120.295
0
LINE
8
BLACK
6
CONTINUOUS
10
126.47
20
-120.295
11
126.482
21
-120.304
0
LINE
8
BLACK
6
CONTINUOUS
10
126.482
20
-120.304
11
126.521
21
-120.343
0
LINE
8
BLACK
6
CONTINUOUS
10
126.521
20
-120.343
11
126.589
21
-120.377
0
LINE
8
BLACK
6
CONTINUOUS
10
126.589
20
-120.377
11
126.839
21
-120.377
0
LINE
8
BLACK
6
CONTINUOUS
10
126.839
20
-120.377
11
126.908
21
-120.343
0
LINE
8
BLACK
6
CONTINUOUS
10
126.908
20
-120.343
11
126.938
21
-120.313
0
LINE
8
BLACK
6
CONTINUOUS
10
126.938
20
-120.313
11
126.973
21
-120.244
0
LINE
8
BLACK
6
CONTINUOUS
10
126.973
20
-120.244
11
126.973
21
-120.042
0
LINE
8
BLACK
6
CONTINUOUS
10
126.973
20
-120.042
11
126.938
21
-119.973
0
LINE
8
BLACK
6
CONTINUOUS
10
126.938
20
-119.973
11
126.908
21
-119.943
0
LINE
8
BLACK
6
CONTINUOUS
10
126.908
20
-119.943
11
126.839
21
-119.908
0
LINE
8
BLACK
6
CONTINUOUS
10
126.839
20
-119.908
11
126.714
21
-119.908
0
LINE
8
BLACK
6
CONTINUOUS
10
126.714
20
-119.908
11
126.713
21
-119.908
0
LINE
8
BLACK
6
CONTINUOUS
10
126.713
20
-119.908
11
126.709
21
-119.908
0
LINE
8
BLACK
6
CONTINUOUS
10
126.709
20
-119.908
11
126.704
21
-119.908
0
LINE
8
BLACK
6
CONTINUOUS
10
126.704
20
-119.908
11
126.701
21
-119.907
0
LINE
8
BLACK
6
CONTINUOUS
10
126.701
20
-119.907
11
126.699
21
-119.907
0
LINE
8
BLACK
6
CONTINUOUS
10
126.699
20
-119.907
11
126.694
21
-119.905
0
LINE
8
BLACK
6
CONTINUOUS
10
126.694
20
-119.905
11
126.69
21
-119.904
0
LINE
8
BLACK
6
CONTINUOUS
10
126.69
20
-119.904
11
126.687
21
-119.903
0
LINE
8
BLACK
6
CONTINUOUS
10
126.687
20
-119.903
11
126.685
21
-119.902
0
LINE
8
BLACK
6
CONTINUOUS
10
126.685
20
-119.902
11
126.681
21
-119.9
0
LINE
8
BLACK
6
CONTINUOUS
10
126.681
20
-119.9
11
126.676
21
-119.898
0
LINE
8
BLACK
6
CONTINUOUS
10
126.676
20
-119.898
11
126.674
21
-119.896
0
LINE
8
BLACK
6
CONTINUOUS
10
126.674
20
-119.896
11
126.672
21
-119.895
0
LINE
8
BLACK
6
CONTINUOUS
10
126.672
20
-119.895
11
126.668
21
-119.892
0
LINE
8
BLACK
6
CONTINUOUS
10
126.668
20
-119.892
11
126.665
21
-119.889
0
LINE
8
BLACK
6
CONTINUOUS
10
126.665
20
-119.889
11
126.663
21
-119.887
0
LINE
8
BLACK
6
CONTINUOUS
10
126.663
20
-119.887
11
126.661
21
-119.886
0
LINE
8
BLACK
6
CONTINUOUS
10
126.661
20
-119.886
11
126.658
21
-119.882
0
LINE
8
BLACK
6
CONTINUOUS
10
126.658
20
-119.882
11
126.655
21
-119.879
0
LINE
8
BLACK
6
CONTINUOUS
10
126.655
20
-119.879
11
126.653
21
-119.876
0
LINE
8
BLACK
6
CONTINUOUS
10
126.653
20
-119.876
11
126.652
21
-119.874
0
LINE
8
BLACK
6
CONTINUOUS
10
126.652
20
-119.874
11
126.649
21
-119.87
0
LINE
8
BLACK
6
CONTINUOUS
10
126.649
20
-119.87
11
126.647
21
-119.866
0
LINE
8
BLACK
6
CONTINUOUS
10
126.647
20
-119.866
11
126.646
21
-119.864
0
LINE
8
BLACK
6
CONTINUOUS
10
126.646
20
-119.864
11
126.645
21
-119.861
0
LINE
8
BLACK
6
CONTINUOUS
10
126.645
20
-119.861
11
126.643
21
-119.857
0
LINE
8
BLACK
6
CONTINUOUS
10
126.643
20
-119.857
11
126.642
21
-119.853
0
LINE
8
BLACK
6
CONTINUOUS
10
126.642
20
-119.853
11
126.641
21
-119.85
0
LINE
8
BLACK
6
CONTINUOUS
10
126.641
20
-119.85
11
126.641
21
-119.847
0
LINE
8
BLACK
6
CONTINUOUS
10
126.641
20
-119.847
11
126.64
21
-119.843
0
LINE
8
BLACK
6
CONTINUOUS
10
126.64
20
-119.843
11
126.639
21
-119.838
0
LINE
8
BLACK
6
CONTINUOUS
10
126.639
20
-119.838
11
126.64
21
-119.835
0
LINE
8
BLACK
6
CONTINUOUS
10
126.64
20
-119.835
11
126.639
21
-119.833
0
LINE
8
BLACK
6
CONTINUOUS
10
126.639
20
-119.833
11
126.64
21
-119.828
0
LINE
8
BLACK
6
CONTINUOUS
10
126.64
20
-119.828
11
126.64
21
-119.823
0
LINE
8
BLACK
6
CONTINUOUS
10
126.64
20
-119.823
11
126.641
21
-119.821
0
LINE
8
BLACK
6
CONTINUOUS
10
126.641
20
-119.821
11
126.641
21
-119.818
0
LINE
8
BLACK
6
CONTINUOUS
10
126.641
20
-119.818
11
126.642
21
-119.814
0
LINE
8
BLACK
6
CONTINUOUS
10
126.642
20
-119.814
11
126.643
21
-119.809
0
LINE
8
BLACK
6
CONTINUOUS
10
126.643
20
-119.809
11
126.644
21
-119.807
0
LINE
8
BLACK
6
CONTINUOUS
10
126.644
20
-119.807
11
126.645
21
-119.804
0
LINE
8
BLACK
6
CONTINUOUS
10
126.645
20
-119.804
11
126.647
21
-119.8
0
LINE
8
BLACK
6
CONTINUOUS
10
126.647
20
-119.8
11
126.649
21
-119.796
0
LINE
8
BLACK
6
CONTINUOUS
10
126.649
20
-119.796
11
126.651
21
-119.794
0
LINE
8
BLACK
6
CONTINUOUS
10
126.651
20
-119.794
11
126.652
21
-119.791
0
LINE
8
BLACK
6
CONTINUOUS
10
126.652
20
-119.791
11
126.655
21
-119.788
0
LINE
8
BLACK
6
CONTINUOUS
10
126.655
20
-119.788
11
126.658
21
-119.784
0
LINE
8
BLACK
6
CONTINUOUS
10
126.658
20
-119.784
11
126.882
21
-119.527
0
LINE
8
BLACK
6
CONTINUOUS
10
126.882
20
-119.527
11
126.429
21
-119.527
0
LINE
8
BLACK
6
CONTINUOUS
10
126.429
20
-119.527
11
126.428
21
-119.527
0
LINE
8
BLACK
6
CONTINUOUS
10
126.428
20
-119.527
11
126.413
21
-119.526
0
LINE
8
BLACK
6
CONTINUOUS
10
126.413
20
-119.526
11
126.399
21
-119.521
0
LINE
8
BLACK
6
CONTINUOUS
10
126.399
20
-119.521
11
126.386
21
-119.514
0
LINE
8
BLACK
6
CONTINUOUS
10
126.386
20
-119.514
11
126.375
21
-119.505
0
LINE
8
BLACK
6
CONTINUOUS
10
126.375
20
-119.505
11
126.366
21
-119.493
0
LINE
8
BLACK
6
CONTINUOUS
10
126.366
20
-119.493
11
126.359
21
-119.48
0
LINE
8
BLACK
6
CONTINUOUS
10
126.359
20
-119.48
11
126.355
21
-119.466
0
LINE
8
BLACK
6
CONTINUOUS
10
126.355
20
-119.466
11
126.354
21
-119.452
0
LINE
8
BLACK
6
CONTINUOUS
10
126.354
20
-119.452
11
126.355
21
-119.437
0
LINE
8
BLACK
6
CONTINUOUS
10
126.355
20
-119.437
11
126.359
21
-119.423
0
LINE
8
BLACK
6
CONTINUOUS
10
126.359
20
-119.423
11
126.366
21
-119.41
0
LINE
8
BLACK
6
CONTINUOUS
10
126.366
20
-119.41
11
126.376
21
-119.399
0
LINE
8
BLACK
6
CONTINUOUS
10
126.376
20
-119.399
11
126.387
21
-119.39
0
LINE
8
BLACK
6
CONTINUOUS
10
126.387
20
-119.39
11
126.4
21
-119.383
0
LINE
8
BLACK
6
CONTINUOUS
10
126.4
20
-119.383
11
126.414
21
-119.379
0
LINE
8
BLACK
6
CONTINUOUS
10
126.414
20
-119.379
11
126.429
21
-119.377
0
LINE
8
BLACK
6
CONTINUOUS
10
126.429
20
-119.377
11
127.048
21
-119.377
0
LINE
8
BLACK
6
CONTINUOUS
10
127.048
20
-119.377
11
127.049
21
-119.377
0
LINE
8
BLACK
6
CONTINUOUS
10
129.858
20
-119.711
11
129.86
21
-119.711
0
LINE
8
BLACK
6
CONTINUOUS
10
129.86
20
-119.711
11
129.863
21
-119.711
0
LINE
8
BLACK
6
CONTINUOUS
10
129.863
20
-119.711
11
129.868
21
-119.712
0
LINE
8
BLACK
6
CONTINUOUS
10
129.868
20
-119.712
11
129.873
21
-119.712
0
LINE
8
BLACK
6
CONTINUOUS
10
129.873
20
-119.712
11
129.875
21
-119.713
0
LINE
8
BLACK
6
CONTINUOUS
10
129.875
20
-119.713
11
129.877
21
-119.713
0
LINE
8
BLACK
6
CONTINUOUS
10
129.877
20
-119.713
11
129.882
21
-119.715
0
LINE
8
BLACK
6
CONTINUOUS
10
129.882
20
-119.715
11
129.887
21
-119.717
0
LINE
8
BLACK
6
CONTINUOUS
10
129.887
20
-119.717
11
129.889
21
-119.718
0
LINE
8
BLACK
6
CONTINUOUS
10
129.889
20
-119.718
11
129.891
21
-119.719
0
LINE
8
BLACK
6
CONTINUOUS
10
129.891
20
-119.719
11
129.986
21
-119.766
0
LINE
8
BLACK
6
CONTINUOUS
10
129.986
20
-119.766
11
129.987
21
-119.767
0
LINE
8
BLACK
6
CONTINUOUS
10
129.987
20
-119.767
11
129.988
21
-119.768
0
LINE
8
BLACK
6
CONTINUOUS
10
129.988
20
-119.768
11
129.99
21
-119.768
0
LINE
8
BLACK
6
CONTINUOUS
10
129.99
20
-119.768
11
129.994
21
-119.772
0
LINE
8
BLACK
6
CONTINUOUS
10
129.994
20
-119.772
11
129.999
21
-119.775
0
LINE
8
BLACK
6
CONTINUOUS
10
129.999
20
-119.775
11
130
21
-119.776
0
LINE
8
BLACK
6
CONTINUOUS
10
130
20
-119.776
11
130.001
21
-119.775
0
LINE
8
BLACK
6
CONTINUOUS
10
130.001
20
-119.775
11
130.002
21
-119.774
0
LINE
8
BLACK
6
CONTINUOUS
10
130.002
20
-119.774
11
130.007
21
-119.771
0
LINE
8
BLACK
6
CONTINUOUS
10
130.007
20
-119.771
11
130.011
21
-119.768
0
LINE
8
BLACK
6
CONTINUOUS
10
130.011
20
-119.768
11
130.013
21
-119.767
0
LINE
8
BLACK
6
CONTINUOUS
10
130.013
20
-119.767
11
130.014
21
-119.766
0
LINE
8
BLACK
6
CONTINUOUS
10
130.014
20
-119.766
11
130.109
21
-119.719
0
LINE
8
BLACK
6
CONTINUOUS
10
130.109
20
-119.719
11
130.11
21
-119.718
0
LINE
8
BLACK
6
CONTINUOUS
10
130.11
20
-119.718
11
130.112
21
-119.717
0
LINE
8
BLACK
6
CONTINUOUS
10
130.112
20
-119.717
11
130.114
21
-119.716
0
LINE
8
BLACK
6
CONTINUOUS
10
130.114
20
-119.716
11
130.119
21
-119.715
0
LINE
8
BLACK
6
CONTINUOUS
10
130.119
20
-119.715
11
130.124
21
-119.713
0
LINE
8
BLACK
6
CONTINUOUS
10
130.124
20
-119.713
11
130.126
21
-119.713
0
LINE
8
BLACK
6
CONTINUOUS
10
130.126
20
-119.713
11
130.128
21
-119.712
0
LINE
8
BLACK
6
CONTINUOUS
10
130.128
20
-119.712
11
130.133
21
-119.712
0
LINE
8
BLACK
6
CONTINUOUS
10
130.133
20
-119.712
11
130.138
21
-119.711
0
LINE
8
BLACK
6
CONTINUOUS
10
130.138
20
-119.711
11
130.141
21
-119.711
0
LINE
8
BLACK
6
CONTINUOUS
10
130.141
20
-119.711
11
130.143
21
-119.711
0
LINE
8
BLACK
6
CONTINUOUS
10
130.143
20
-119.711
11
130.286
21
-119.711
0
LINE
8
BLACK
6
CONTINUOUS
10
130.286
20
-119.711
11
130.287
21
-119.711
0
LINE
8
BLACK
6
CONTINUOUS
10
130.287
20
-119.711
11
130.289
21
-119.711
0
LINE
8
BLACK
6
CONTINUOUS
10
130.289
20
-119.711
11
130.291
21
-119.711
0
LINE
8
BLACK
6
CONTINUOUS
10
130.291
20
-119.711
11
130.296
21
-119.712
0
LINE
8
BLACK
6
CONTINUOUS
10
130.296
20
-119.712
11
130.301
21
-119.712
0
LINE
8
BLACK
6
CONTINUOUS
10
130.301
20
-119.712
11
130.303
21
-119.713
0
LINE
8
BLACK
6
CONTINUOUS
10
130.303
20
-119.713
11
130.306
21
-119.713
0
LINE
8
BLACK
6
CONTINUOUS
10
130.306
20
-119.713
11
130.31
21
-119.715
0
LINE
8
BLACK
6
CONTINUOUS
10
130.31
20
-119.715
11
130.315
21
-119.717
0
LINE
8
BLACK
6
CONTINUOUS
10
130.315
20
-119.717
11
130.317
21
-119.718
0
LINE
8
BLACK
6
CONTINUOUS
10
130.317
20
-119.718
11
130.319
21
-119.719
0
LINE
8
BLACK
6
CONTINUOUS
10
130.319
20
-119.719
11
130.414
21
-119.766
0
LINE
8
BLACK
6
CONTINUOUS
10
130.414
20
-119.766
11
130.415
21
-119.767
0
LINE
8
BLACK
6
CONTINUOUS
10
130.415
20
-119.767
11
130.417
21
-119.768
0
LINE
8
BLACK
6
CONTINUOUS
10
130.417
20
-119.768
11
130.418
21
-119.768
0
LINE
8
BLACK
6
CONTINUOUS
10
130.418
20
-119.768
11
130.423
21
-119.772
0
LINE
8
BLACK
6
CONTINUOUS
10
130.423
20
-119.772
11
130.428
21
-119.775
0
LINE
8
BLACK
6
CONTINUOUS
10
130.428
20
-119.775
11
130.429
21
-119.776
0
LINE
8
BLACK
6
CONTINUOUS
10
130.429
20
-119.776
11
130.43
21
-119.777
0
LINE
8
BLACK
6
CONTINUOUS
10
130.43
20
-119.777
11
130.434
21
-119.781
0
LINE
8
BLACK
6
CONTINUOUS
10
130.434
20
-119.781
11
130.438
21
-119.785
0
LINE
8
BLACK
6
CONTINUOUS
10
130.438
20
-119.785
11
130.439
21
-119.786
0
LINE
8
BLACK
6
CONTINUOUS
10
130.439
20
-119.786
11
130.44
21
-119.787
0
LINE
8
BLACK
6
CONTINUOUS
10
130.44
20
-119.787
11
130.443
21
-119.792
0
LINE
8
BLACK
6
CONTINUOUS
10
130.443
20
-119.792
11
130.447
21
-119.797
0
LINE
8
BLACK
6
CONTINUOUS
10
130.447
20
-119.797
11
130.447
21
-119.798
0
LINE
8
BLACK
6
CONTINUOUS
10
130.447
20
-119.798
11
130.448
21
-119.8
0
LINE
8
BLACK
6
CONTINUOUS
10
130.448
20
-119.8
11
130.496
21
-119.895
0
LINE
8
BLACK
6
CONTINUOUS
10
130.496
20
-119.895
11
130.496
21
-119.896
0
LINE
8
BLACK
6
CONTINUOUS
10
130.496
20
-119.896
11
130.497
21
-119.898
0
LINE
8
BLACK
6
CONTINUOUS
10
130.497
20
-119.898
11
130.498
21
-119.9
0
LINE
8
BLACK
6
CONTINUOUS
10
130.498
20
-119.9
11
130.499
21
-119.905
0
LINE
8
BLACK
6
CONTINUOUS
10
130.499
20
-119.905
11
130.501
21
-119.91
0
LINE
8
BLACK
6
CONTINUOUS
10
130.501
20
-119.91
11
130.502
21
-119.912
0
LINE
8
BLACK
6
CONTINUOUS
10
130.502
20
-119.912
11
130.502
21
-119.914
0
LINE
8
BLACK
6
CONTINUOUS
10
130.502
20
-119.914
11
130.503
21
-119.919
0
LINE
8
BLACK
6
CONTINUOUS
10
130.503
20
-119.919
11
130.503
21
-119.924
0
LINE
8
BLACK
6
CONTINUOUS
10
130.503
20
-119.924
11
130.503
21
-119.926
0
LINE
8
BLACK
6
CONTINUOUS
10
130.503
20
-119.926
11
130.504
21
-119.929
0
LINE
8
BLACK
6
CONTINUOUS
10
130.504
20
-119.929
11
130.504
21
-120.452
0
LINE
8
BLACK
6
CONTINUOUS
10
130.504
20
-120.452
11
130.504
21
-120.453
0
LINE
8
BLACK
6
CONTINUOUS
10
130.504
20
-120.453
11
130.502
21
-120.468
0
LINE
8
BLACK
6
CONTINUOUS
10
130.502
20
-120.468
11
130.498
21
-120.482
0
LINE
8
BLACK
6
CONTINUOUS
10
130.498
20
-120.482
11
130.49
21
-120.495
0
LINE
8
BLACK
6
CONTINUOUS
10
130.49
20
-120.495
11
130.481
21
-120.506
0
LINE
8
BLACK
6
CONTINUOUS
10
130.481
20
-120.506
11
130.47
21
-120.515
0
LINE
8
BLACK
6
CONTINUOUS
10
130.47
20
-120.515
11
130.457
21
-120.522
0
LINE
8
BLACK
6
CONTINUOUS
10
130.457
20
-120.522
11
130.443
21
-120.526
0
LINE
8
BLACK
6
CONTINUOUS
10
130.443
20
-120.526
11
130.428
21
-120.527
0
LINE
8
BLACK
6
CONTINUOUS
10
130.428
20
-120.527
11
130.413
21
-120.526
0
LINE
8
BLACK
6
CONTINUOUS
10
130.413
20
-120.526
11
130.4
21
-120.522
0
LINE
8
BLACK
6
CONTINUOUS
10
130.4
20
-120.522
11
130.387
21
-120.515
0
LINE
8
BLACK
6
CONTINUOUS
10
130.387
20
-120.515
11
130.375
21
-120.505
0
LINE
8
BLACK
6
CONTINUOUS
10
130.375
20
-120.505
11
130.366
21
-120.494
0
LINE
8
BLACK
6
CONTINUOUS
10
130.366
20
-120.494
11
130.359
21
-120.481
0
LINE
8
BLACK
6
CONTINUOUS
10
130.359
20
-120.481
11
130.355
21
-120.467
0
LINE
8
BLACK
6
CONTINUOUS
10
130.355
20
-120.467
11
130.354
21
-120.452
0
LINE
8
BLACK
6
CONTINUOUS
10
130.354
20
-120.452
11
130.354
21
-119.946
0
LINE
8
BLACK
6
CONTINUOUS
10
130.354
20
-119.946
11
130.325
21
-119.889
0
LINE
8
BLACK
6
CONTINUOUS
10
130.325
20
-119.889
11
130.268
21
-119.861
0
LINE
8
BLACK
6
CONTINUOUS
10
130.268
20
-119.861
11
130.161
21
-119.861
0
LINE
8
BLACK
6
CONTINUOUS
10
130.161
20
-119.861
11
130.104
21
-119.889
0
LINE
8
BLACK
6
CONTINUOUS
10
130.104
20
-119.889
11
130.075
21
-119.946
0
LINE
8
BLACK
6
CONTINUOUS
10
130.075
20
-119.946
11
130.075
21
-120.452
0
LINE
8
BLACK
6
CONTINUOUS
10
130.075
20
-120.452
11
130.075
21
-120.453
0
LINE
8
BLACK
6
CONTINUOUS
10
130.075
20
-120.453
11
130.073
21
-120.468
0
LINE
8
BLACK
6
CONTINUOUS
10
130.073
20
-120.468
11
130.069
21
-120.482
0
LINE
8
BLACK
6
CONTINUOUS
10
130.069
20
-120.482
11
130.062
21
-120.495
0
LINE
8
BLACK
6
CONTINUOUS
10
130.062
20
-120.495
11
130.052
21
-120.506
0
LINE
8
BLACK
6
CONTINUOUS
10
130.052
20
-120.506
11
130.041
21
-120.515
0
LINE
8
BLACK
6
CONTINUOUS
10
130.041
20
-120.515
11
130.028
21
-120.522
0
LINE
8
BLACK
6
CONTINUOUS
10
130.028
20
-120.522
11
130.014
21
-120.526
0
LINE
8
BLACK
6
CONTINUOUS
10
130.014
20
-120.526
11
129.999
21
-120.527
0
LINE
8
BLACK
6
CONTINUOUS
10
129.999
20
-120.527
11
129.985
21
-120.526
0
LINE
8
BLACK
6
CONTINUOUS
10
129.985
20
-120.526
11
129.971
21
-120.522
0
LINE
8
BLACK
6
CONTINUOUS
10
129.971
20
-120.522
11
129.958
21
-120.515
0
LINE
8
BLACK
6
CONTINUOUS
10
129.958
20
-120.515
11
129.947
21
-120.505
0
LINE
8
BLACK
6
CONTINUOUS
10
129.947
20
-120.505
11
129.938
21
-120.494
0
LINE
8
BLACK
6
CONTINUOUS
10
129.938
20
-120.494
11
129.931
21
-120.481
0
LINE
8
BLACK
6
CONTINUOUS
10
129.931
20
-120.481
11
129.926
21
-120.467
0
LINE
8
BLACK
6
CONTINUOUS
10
129.926
20
-120.467
11
129.925
21
-120.452
0
LINE
8
BLACK
6
CONTINUOUS
10
129.925
20
-120.452
11
129.925
21
-119.946
0
LINE
8
BLACK
6
CONTINUOUS
10
129.925
20
-119.946
11
129.896
21
-119.889
0
LINE
8
BLACK
6
CONTINUOUS
10
129.896
20
-119.889
11
129.839
21
-119.861
0
LINE
8
BLACK
6
CONTINUOUS
10
129.839
20
-119.861
11
129.732
21
-119.861
0
LINE
8
BLACK
6
CONTINUOUS
10
129.732
20
-119.861
11
129.663
21
-119.895
0
LINE
8
BLACK
6
CONTINUOUS
10
129.663
20
-119.895
11
129.646
21
-119.912
0
LINE
8
BLACK
6
CONTINUOUS
10
129.646
20
-119.912
11
129.646
21
-120.452
0
LINE
8
BLACK
6
CONTINUOUS
10
129.646
20
-120.452
11
129.646
21
-120.453
0
LINE
8
BLACK
6
CONTINUOUS
10
129.646
20
-120.453
11
129.645
21
-120.468
0
LINE
8
BLACK
6
CONTINUOUS
10
129.645
20
-120.468
11
129.64
21
-120.482
0
LINE
8
BLACK
6
CONTINUOUS
10
129.64
20
-120.482
11
129.633
21
-120.495
0
LINE
8
BLACK
6
CONTINUOUS
10
129.633
20
-120.495
11
129.624
21
-120.506
0
LINE
8
BLACK
6
CONTINUOUS
10
129.624
20
-120.506
11
129.612
21
-120.515
0
LINE
8
BLACK
6
CONTINUOUS
10
129.612
20
-120.515
11
129.6
21
-120.522
0
LINE
8
BLACK
6
CONTINUOUS
10
129.6
20
-120.522
11
129.585
21
-120.526
0
LINE
8
BLACK
6
CONTINUOUS
10
129.585
20
-120.526
11
129.571
21
-120.527
0
LINE
8
BLACK
6
CONTINUOUS
10
129.571
20
-120.527
11
129.556
21
-120.526
0
LINE
8
BLACK
6
CONTINUOUS
10
129.556
20
-120.526
11
129.542
21
-120.522
0
LINE
8
BLACK
6
CONTINUOUS
10
129.542
20
-120.522
11
129.529
21
-120.515
0
LINE
8
BLACK
6
CONTINUOUS
10
129.529
20
-120.515
11
129.518
21
-120.505
0
LINE
8
BLACK
6
CONTINUOUS
10
129.518
20
-120.505
11
129.509
21
-120.494
0
LINE
8
BLACK
6
CONTINUOUS
10
129.509
20
-120.494
11
129.502
21
-120.481
0
LINE
8
BLACK
6
CONTINUOUS
10
129.502
20
-120.481
11
129.498
21
-120.467
0
LINE
8
BLACK
6
CONTINUOUS
10
129.498
20
-120.467
11
129.496
21
-120.452
0
LINE
8
BLACK
6
CONTINUOUS
10
129.496
20
-120.452
11
129.496
21
-119.786
0
LINE
8
BLACK
6
CONTINUOUS
10
129.496
20
-119.786
11
129.496
21
-119.785
0
LINE
8
BLACK
6
CONTINUOUS
10
129.496
20
-119.785
11
129.498
21
-119.77
0
LINE
8
BLACK
6
CONTINUOUS
10
129.498
20
-119.77
11
129.502
21
-119.756
0
LINE
8
BLACK
6
CONTINUOUS
10
129.502
20
-119.756
11
129.51
21
-119.743
0
LINE
8
BLACK
6
CONTINUOUS
10
129.51
20
-119.743
11
129.519
21
-119.732
0
LINE
8
BLACK
6
CONTINUOUS
10
129.519
20
-119.732
11
129.53
21
-119.723
0
LINE
8
BLACK
6
CONTINUOUS
10
129.53
20
-119.723
11
129.543
21
-119.716
0
LINE
8
BLACK
6
CONTINUOUS
10
129.543
20
-119.716
11
129.557
21
-119.712
0
LINE
8
BLACK
6
CONTINUOUS
10
129.557
20
-119.712
11
129.572
21
-119.711
0
LINE
8
BLACK
6
CONTINUOUS
10
129.572
20
-119.711
11
129.587
21
-119.712
0
LINE
8
BLACK
6
CONTINUOUS
10
129.587
20
-119.712
11
129.6
21
-119.717
0
LINE
8
BLACK
6
CONTINUOUS
10
129.6
20
-119.717
11
129.613
21
-119.724
0
LINE
8
BLACK
6
CONTINUOUS
10
129.613
20
-119.724
11
129.625
21
-119.733
0
LINE
8
BLACK
6
CONTINUOUS
10
129.625
20
-119.733
11
129.633
21
-119.743
0
LINE
8
BLACK
6
CONTINUOUS
10
129.633
20
-119.743
11
129.681
21
-119.719
0
LINE
8
BLACK
6
CONTINUOUS
10
129.681
20
-119.719
11
129.682
21
-119.718
0
LINE
8
BLACK
6
CONTINUOUS
10
129.682
20
-119.718
11
129.684
21
-119.717
0
LINE
8
BLACK
6
CONTINUOUS
10
129.684
20
-119.717
11
129.686
21
-119.716
0
LINE
8
BLACK
6
CONTINUOUS
10
129.686
20
-119.716
11
129.691
21
-119.715
0
LINE
8
BLACK
6
CONTINUOUS
10
129.691
20
-119.715
11
129.695
21
-119.713
0
LINE
8
BLACK
6
CONTINUOUS
10
129.695
20
-119.713
11
129.698
21
-119.713
0
LINE
8
BLACK
6
CONTINUOUS
10
129.698
20
-119.713
11
129.7
21
-119.712
0
LINE
8
BLACK
6
CONTINUOUS
10
129.7
20
-119.712
11
129.705
21
-119.712
0
LINE
8
BLACK
6
CONTINUOUS
10
129.705
20
-119.712
11
129.71
21
-119.711
0
LINE
8
BLACK
6
CONTINUOUS
10
129.71
20
-119.711
11
129.712
21
-119.711
0
LINE
8
BLACK
6
CONTINUOUS
10
129.712
20
-119.711
11
129.714
21
-119.711
0
LINE
8
BLACK
6
CONTINUOUS
10
129.714
20
-119.711
11
129.857
21
-119.711
0
LINE
8
BLACK
6
CONTINUOUS
10
129.857
20
-119.711
11
129.858
21
-119.711
0
LINE
8
BLACK
6
CONTINUOUS
10
128.525
20
-119.711
11
128.527
21
-119.711
0
LINE
8
BLACK
6
CONTINUOUS
10
128.527
20
-119.711
11
128.529
21
-119.711
0
LINE
8
BLACK
6
CONTINUOUS
10
128.529
20
-119.711
11
128.534
21
-119.712
0
LINE
8
BLACK
6
CONTINUOUS
10
128.534
20
-119.712
11
128.539
21
-119.712
0
LINE
8
BLACK
6
CONTINUOUS
10
128.539
20
-119.712
11
128.542
21
-119.713
0
LINE
8
BLACK
6
CONTINUOUS
10
128.542
20
-119.713
11
128.544
21
-119.713
0
LINE
8
BLACK
6
CONTINUOUS
10
128.544
20
-119.713
11
128.548
21
-119.715
0
LINE
8
BLACK
6
CONTINUOUS
10
128.548
20
-119.715
11
128.553
21
-119.717
0
LINE
8
BLACK
6
CONTINUOUS
10
128.553
20
-119.717
11
128.555
21
-119.718
0
LINE
8
BLACK
6
CONTINUOUS
10
128.555
20
-119.718
11
128.557
21
-119.719
0
LINE
8
BLACK
6
CONTINUOUS
10
128.557
20
-119.719
11
128.653
21
-119.766
0
LINE
8
BLACK
6
CONTINUOUS
10
128.653
20
-119.766
11
128.654
21
-119.767
0
LINE
8
BLACK
6
CONTINUOUS
10
128.654
20
-119.767
11
128.655
21
-119.768
0
LINE
8
BLACK
6
CONTINUOUS
10
128.655
20
-119.768
11
128.656
21
-119.768
0
LINE
8
BLACK
6
CONTINUOUS
10
128.656
20
-119.768
11
128.661
21
-119.772
0
LINE
8
BLACK
6
CONTINUOUS
10
128.661
20
-119.772
11
128.666
21
-119.775
0
LINE
8
BLACK
6
CONTINUOUS
10
128.666
20
-119.775
11
128.667
21
-119.776
0
LINE
8
BLACK
6
CONTINUOUS
10
128.667
20
-119.776
11
128.667
21
-119.775
0
LINE
8
BLACK
6
CONTINUOUS
10
128.667
20
-119.775
11
128.668
21
-119.774
0
LINE
8
BLACK
6
CONTINUOUS
10
128.668
20
-119.774
11
128.673
21
-119.771
0
LINE
8
BLACK
6
CONTINUOUS
10
128.673
20
-119.771
11
128.678
21
-119.768
0
LINE
8
BLACK
6
CONTINUOUS
10
128.678
20
-119.768
11
128.679
21
-119.767
0
LINE
8
BLACK
6
CONTINUOUS
10
128.679
20
-119.767
11
128.681
21
-119.766
0
LINE
8
BLACK
6
CONTINUOUS
10
128.681
20
-119.766
11
128.776
21
-119.719
0
LINE
8
BLACK
6
CONTINUOUS
10
128.776
20
-119.719
11
128.777
21
-119.718
0
LINE
8
BLACK
6
CONTINUOUS
10
128.777
20
-119.718
11
128.779
21
-119.717
0
LINE
8
BLACK
6
CONTINUOUS
10
128.779
20
-119.717
11
128.781
21
-119.716
0
LINE
8
BLACK
6
CONTINUOUS
10
128.781
20
-119.716
11
128.786
21
-119.715
0
LINE
8
BLACK
6
CONTINUOUS
10
128.786
20
-119.715
11
128.791
21
-119.713
0
LINE
8
BLACK
6
CONTINUOUS
10
128.791
20
-119.713
11
128.793
21
-119.713
0
LINE
8
BLACK
6
CONTINUOUS
10
128.793
20
-119.713
11
128.795
21
-119.712
0
LINE
8
BLACK
6
CONTINUOUS
10
128.795
20
-119.712
11
128.8
21
-119.712
0
LINE
8
BLACK
6
CONTINUOUS
10
128.8
20
-119.712
11
128.805
21
-119.711
0
LINE
8
BLACK
6
CONTINUOUS
10
128.805
20
-119.711
11
128.807
21
-119.711
0
LINE
8
BLACK
6
CONTINUOUS
10
128.807
20
-119.711
11
128.81
21
-119.711
0
LINE
8
BLACK
6
CONTINUOUS
10
128.81
20
-119.711
11
128.952
21
-119.711
0
LINE
8
BLACK
6
CONTINUOUS
10
128.952
20
-119.711
11
128.953
21
-119.711
0
LINE
8
BLACK
6
CONTINUOUS
10
128.953
20
-119.711
11
128.956
21
-119.711
0
LINE
8
BLACK
6
CONTINUOUS
10
128.956
20
-119.711
11
128.958
21
-119.711
0
LINE
8
BLACK
6
CONTINUOUS
10
128.958
20
-119.711
11
128.963
21
-119.712
0
LINE
8
BLACK
6
CONTINUOUS
10
128.963
20
-119.712
11
128.968
21
-119.712
0
LINE
8
BLACK
6
CONTINUOUS
10
128.968
20
-119.712
11
128.97
21
-119.713
0
LINE
8
BLACK
6
CONTINUOUS
10
128.97
20
-119.713
11
128.972
21
-119.713
0
LINE
8
BLACK
6
CONTINUOUS
10
128.972
20
-119.713
11
128.977
21
-119.715
0
LINE
8
BLACK
6
CONTINUOUS
10
128.977
20
-119.715
11
128.982
21
-119.717
0
LINE
8
BLACK
6
CONTINUOUS
10
128.982
20
-119.717
11
128.984
21
-119.718
0
LINE
8
BLACK
6
CONTINUOUS
10
128.984
20
-119.718
11
128.986
21
-119.719
0
LINE
8
BLACK
6
CONTINUOUS
10
128.986
20
-119.719
11
129.081
21
-119.766
0
LINE
8
BLACK
6
CONTINUOUS
10
129.081
20
-119.766
11
129.082
21
-119.767
0
LINE
8
BLACK
6
CONTINUOUS
10
129.082
20
-119.767
11
129.083
21
-119.768
0
LINE
8
BLACK
6
CONTINUOUS
10
129.083
20
-119.768
11
129.085
21
-119.768
0
LINE
8
BLACK
6
CONTINUOUS
10
129.085
20
-119.768
11
129.09
21
-119.772
0
LINE
8
BLACK
6
CONTINUOUS
10
129.09
20
-119.772
11
129.094
21
-119.775
0
LINE
8
BLACK
6
CONTINUOUS
10
129.094
20
-119.775
11
129.096
21
-119.776
0
LINE
8
BLACK
6
CONTINUOUS
10
129.096
20
-119.776
11
129.097
21
-119.777
0
LINE
8
BLACK
6
CONTINUOUS
10
129.097
20
-119.777
11
129.101
21
-119.781
0
LINE
8
BLACK
6
CONTINUOUS
10
129.101
20
-119.781
11
129.105
21
-119.785
0
LINE
8
BLACK
6
CONTINUOUS
10
129.105
20
-119.785
11
129.106
21
-119.786
0
LINE
8
BLACK
6
CONTINUOUS
10
129.106
20
-119.786
11
129.107
21
-119.787
0
LINE
8
BLACK
6
CONTINUOUS
10
129.107
20
-119.787
11
129.11
21
-119.792
0
LINE
8
BLACK
6
CONTINUOUS
10
129.11
20
-119.792
11
129.113
21
-119.797
0
LINE
8
BLACK
6
CONTINUOUS
10
129.113
20
-119.797
11
129.114
21
-119.798
0
LINE
8
BLACK
6
CONTINUOUS
10
129.114
20
-119.798
11
129.115
21
-119.8
0
LINE
8
BLACK
6
CONTINUOUS
10
129.115
20
-119.8
11
129.162
21
-119.895
0
LINE
8
BLACK
6
CONTINUOUS
10
129.162
20
-119.895
11
129.163
21
-119.896
0
LINE
8
BLACK
6
CONTINUOUS
10
129.163
20
-119.896
11
129.164
21
-119.898
0
LINE
8
BLACK
6
CONTINUOUS
10
129.164
20
-119.898
11
129.165
21
-119.9
0
LINE
8
BLACK
6
CONTINUOUS
10
129.165
20
-119.9
11
129.166
21
-119.905
0
LINE
8
BLACK
6
CONTINUOUS
10
129.166
20
-119.905
11
129.168
21
-119.91
0
LINE
8
BLACK
6
CONTINUOUS
10
129.168
20
-119.91
11
129.168
21
-119.912
0
LINE
8
BLACK
6
CONTINUOUS
10
129.168
20
-119.912
11
129.169
21
-119.914
0
LINE
8
BLACK
6
CONTINUOUS
10
129.169
20
-119.914
11
129.169
21
-119.919
0
LINE
8
BLACK
6
CONTINUOUS
10
129.169
20
-119.919
11
129.17
21
-119.924
0
LINE
8
BLACK
6
CONTINUOUS
10
129.17
20
-119.924
11
129.17
21
-119.926
0
LINE
8
BLACK
6
CONTINUOUS
10
129.17
20
-119.926
11
129.17
21
-119.929
0
LINE
8
BLACK
6
CONTINUOUS
10
129.17
20
-119.929
11
129.17
21
-120.452
0
LINE
8
BLACK
6
CONTINUOUS
10
129.17
20
-120.452
11
129.17
21
-120.453
0
LINE
8
BLACK
6
CONTINUOUS
10
129.17
20
-120.453
11
129.169
21
-120.468
0
LINE
8
BLACK
6
CONTINUOUS
10
129.169
20
-120.468
11
129.164
21
-120.482
0
LINE
8
BLACK
6
CONTINUOUS
10
129.164
20
-120.482
11
129.157
21
-120.495
0
LINE
8
BLACK
6
CONTINUOUS
10
129.157
20
-120.495
11
129.148
21
-120.506
0
LINE
8
BLACK
6
CONTINUOUS
10
129.148
20
-120.506
11
129.136
21
-120.515
0
LINE
8
BLACK
6
CONTINUOUS
10
129.136
20
-120.515
11
129.123
21
-120.522
0
LINE
8
BLACK
6
CONTINUOUS
10
129.123
20
-120.522
11
129.109
21
-120.526
0
LINE
8
BLACK
6
CONTINUOUS
10
129.109
20
-120.526
11
129.095
21
-120.527
0
LINE
8
BLACK
6
CONTINUOUS
10
129.095
20
-120.527
11
129.08
21
-120.526
0
LINE
8
BLACK
6
CONTINUOUS
10
129.08
20
-120.526
11
129.066
21
-120.522
0
LINE
8
BLACK
6
CONTINUOUS
10
129.066
20
-120.522
11
129.053
21
-120.515
0
LINE
8
BLACK
6
CONTINUOUS
10
129.053
20
-120.515
11
129.042
21
-120.505
0
LINE
8
BLACK
6
CONTINUOUS
10
129.042
20
-120.505
11
129.033
21
-120.494
0
LINE
8
BLACK
6
CONTINUOUS
10
129.033
20
-120.494
11
129.026
21
-120.481
0
LINE
8
BLACK
6
CONTINUOUS
10
129.026
20
-120.481
11
129.022
21
-120.467
0
LINE
8
BLACK
6
CONTINUOUS
10
129.022
20
-120.467
11
129.02
21
-120.452
0
LINE
8
BLACK
6
CONTINUOUS
10
129.02
20
-120.452
11
129.02
21
-119.946
0
LINE
8
BLACK
6
CONTINUOUS
10
129.02
20
-119.946
11
128.992
21
-119.889
0
LINE
8
BLACK
6
CONTINUOUS
10
128.992
20
-119.889
11
128.935
21
-119.861
0
LINE
8
BLACK
6
CONTINUOUS
10
128.935
20
-119.861
11
128.827
21
-119.861
0
LINE
8
BLACK
6
CONTINUOUS
10
128.827
20
-119.861
11
128.77
21
-119.889
0
LINE
8
BLACK
6
CONTINUOUS
10
128.77
20
-119.889
11
128.742
21
-119.946
0
LINE
8
BLACK
6
CONTINUOUS
10
128.742
20
-119.946
11
128.742
21
-120.452
0
LINE
8
BLACK
6
CONTINUOUS
10
128.742
20
-120.452
11
128.742
21
-120.453
0
LINE
8
BLACK
6
CONTINUOUS
10
128.742
20
-120.453
11
128.74
21
-120.468
0
LINE
8
BLACK
6
CONTINUOUS
10
128.74
20
-120.468
11
128.736
21
-120.482
0
LINE
8
BLACK
6
CONTINUOUS
10
128.736
20
-120.482
11
128.729
21
-120.495
0
LINE
8
BLACK
6
CONTINUOUS
10
128.729
20
-120.495
11
128.719
21
-120.506
0
LINE
8
BLACK
6
CONTINUOUS
10
128.719
20
-120.506
11
128.708
21
-120.515
0
LINE
8
BLACK
6
CONTINUOUS
10
128.708
20
-120.515
11
128.695
21
-120.522
0
LINE
8
BLACK
6
CONTINUOUS
10
128.695
20
-120.522
11
128.681
21
-120.526
0
LINE
8
BLACK
6
CONTINUOUS
10
128.681
20
-120.526
11
128.666
21
-120.527
0
LINE
8
BLACK
6
CONTINUOUS
10
128.666
20
-120.527
11
128.652
21
-120.526
0
LINE
8
BLACK
6
CONTINUOUS
10
128.652
20
-120.526
11
128.638
21
-120.522
0
LINE
8
BLACK
6
CONTINUOUS
10
128.638
20
-120.522
11
128.625
21
-120.515
0
LINE
8
BLACK
6
CONTINUOUS
10
128.625
20
-120.515
11
128.613
21
-120.505
0
LINE
8
BLACK
6
CONTINUOUS
10
128.613
20
-120.505
11
128.604
21
-120.494
0
LINE
8
BLACK
6
CONTINUOUS
10
128.604
20
-120.494
11
128.597
21
-120.481
0
LINE
8
BLACK
6
CONTINUOUS
10
128.597
20
-120.481
11
128.593
21
-120.467
0
LINE
8
BLACK
6
CONTINUOUS
10
128.593
20
-120.467
11
128.592
21
-120.452
0
LINE
8
BLACK
6
CONTINUOUS
10
128.592
20
-120.452
11
128.592
21
-119.946
0
LINE
8
BLACK
6
CONTINUOUS
10
128.592
20
-119.946
11
128.563
21
-119.889
0
LINE
8
BLACK
6
CONTINUOUS
10
128.563
20
-119.889
11
128.506
21
-119.861
0
LINE
8
BLACK
6
CONTINUOUS
10
128.506
20
-119.861
11
128.399
21
-119.861
0
LINE
8
BLACK
6
CONTINUOUS
10
128.399
20
-119.861
11
128.33
21
-119.895
0
LINE
8
BLACK
6
CONTINUOUS
10
128.33
20
-119.895
11
128.313
21
-119.912
0
LINE
8
BLACK
6
CONTINUOUS
10
128.313
20
-119.912
11
128.313
21
-120.452
0
LINE
8
BLACK
6
CONTINUOUS
10
128.313
20
-120.452
11
128.313
21
-120.453
0
LINE
8
BLACK
6
CONTINUOUS
10
128.313
20
-120.453
11
128.311
21
-120.468
0
LINE
8
BLACK
6
CONTINUOUS
10
128.311
20
-120.468
11
128.307
21
-120.482
0
LINE
8
BLACK
6
CONTINUOUS
10
128.307
20
-120.482
11
128.3
21
-120.495
0
LINE
8
BLACK
6
CONTINUOUS
10
128.3
20
-120.495
11
128.291
21
-120.506
0
LINE
8
BLACK
6
CONTINUOUS
10
128.291
20
-120.506
11
128.279
21
-120.515
0
LINE
8
BLACK
6
CONTINUOUS
10
128.279
20
-120.515
11
128.266
21
-120.522
0
LINE
8
BLACK
6
CONTINUOUS
10
128.266
20
-120.522
11
128.252
21
-120.526
0
LINE
8
BLACK
6
CONTINUOUS
10
128.252
20
-120.526
11
128.238
21
-120.527
0
LINE
8
BLACK
6
CONTINUOUS
10
128.238
20
-120.527
11
128.223
21
-120.526
0
LINE
8
BLACK
6
CONTINUOUS
10
128.223
20
-120.526
11
128.209
21
-120.522
0
LINE
8
BLACK
6
CONTINUOUS
10
128.209
20
-120.522
11
128.196
21
-120.515
0
LINE
8
BLACK
6
CONTINUOUS
10
128.196
20
-120.515
11
128.185
21
-120.505
0
LINE
8
BLACK
6
CONTINUOUS
10
128.185
20
-120.505
11
128.176
21
-120.494
0
LINE
8
BLACK
6
CONTINUOUS
10
128.176
20
-120.494
11
128.169
21
-120.481
0
LINE
8
BLACK
6
CONTINUOUS
10
128.169
20
-120.481
11
128.165
21
-120.467
0
LINE
8
BLACK
6
CONTINUOUS
10
128.165
20
-120.467
11
128.163
21
-120.452
0
LINE
8
BLACK
6
CONTINUOUS
10
128.163
20
-120.452
11
128.163
21
-119.786
0
LINE
8
BLACK
6
CONTINUOUS
10
128.163
20
-119.786
11
128.163
21
-119.785
0
LINE
8
BLACK
6
CONTINUOUS
10
128.163
20
-119.785
11
128.165
21
-119.77
0
LINE
8
BLACK
6
CONTINUOUS
10
128.165
20
-119.77
11
128.169
21
-119.756
0
LINE
8
BLACK
6
CONTINUOUS
10
128.169
20
-119.756
11
128.176
21
-119.743
0
LINE
8
BLACK
6
CONTINUOUS
10
128.176
20
-119.743
11
128.186
21
-119.732
0
LINE
8
BLACK
6
CONTINUOUS
10
128.186
20
-119.732
11
128.197
21
-119.723
0
LINE
8
BLACK
6
CONTINUOUS
10
128.197
20
-119.723
11
128.21
21
-119.716
0
LINE
8
BLACK
6
CONTINUOUS
10
128.21
20
-119.716
11
128.224
21
-119.712
0
LINE
8
BLACK
6
CONTINUOUS
10
128.224
20
-119.712
11
128.239
21
-119.711
0
LINE
8
BLACK
6
CONTINUOUS
10
128.239
20
-119.711
11
128.253
21
-119.712
0
LINE
8
BLACK
6
CONTINUOUS
10
128.253
20
-119.712
11
128.267
21
-119.717
0
LINE
8
BLACK
6
CONTINUOUS
10
128.267
20
-119.717
11
128.28
21
-119.724
0
LINE
8
BLACK
6
CONTINUOUS
10
128.28
20
-119.724
11
128.291
21
-119.733
0
LINE
8
BLACK
6
CONTINUOUS
10
128.291
20
-119.733
11
128.299
21
-119.743
0
LINE
8
BLACK
6
CONTINUOUS
10
128.299
20
-119.743
11
128.347
21
-119.719
0
LINE
8
BLACK
6
CONTINUOUS
10
128.347
20
-119.719
11
128.348
21
-119.718
0
LINE
8
BLACK
6
CONTINUOUS
10
128.348
20
-119.718
11
128.35
21
-119.717
0
LINE
8
BLACK
6
CONTINUOUS
10
128.35
20
-119.717
11
128.352
21
-119.716
0
LINE
8
BLACK
6
CONTINUOUS
10
128.352
20
-119.716
11
128.357
21
-119.715
0
LINE
8
BLACK
6
CONTINUOUS
10
128.357
20
-119.715
11
128.362
21
-119.713
0
LINE
8
BLACK
6
CONTINUOUS
10
128.362
20
-119.713
11
128.364
21
-119.713
0
LINE
8
BLACK
6
CONTINUOUS
10
128.364
20
-119.713
11
128.366
21
-119.712
0
LINE
8
BLACK
6
CONTINUOUS
10
128.366
20
-119.712
11
128.371
21
-119.712
0
LINE
8
BLACK
6
CONTINUOUS
10
128.371
20
-119.712
11
128.377
21
-119.711
0
LINE
8
BLACK
6
CONTINUOUS
10
128.377
20
-119.711
11
128.379
21
-119.711
0
LINE
8
BLACK
6
CONTINUOUS
10
128.379
20
-119.711
11
128.381
21
-119.711
0
LINE
8
BLACK
6
CONTINUOUS
10
128.381
20
-119.711
11
128.524
21
-119.711
0
LINE
8
BLACK
6
CONTINUOUS
10
128.524
20
-119.711
11
128.525
21
-119.711
0
LINE
8
BLACK
6
CONTINUOUS
10
126.134
20
-116.784
11
126.148
21
-116.788
0
LINE
8
BLACK
6
CONTINUOUS
10
126.148
20
-116.788
11
126.161
21
-116.795
0
LINE
8
BLACK
6
CONTINUOUS
10
126.161
20
-116.795
11
126.172
21
-116.804
0
LINE
8
BLACK
6
CONTINUOUS
10
126.172
20
-116.804
11
126.182
21
-116.816
0
LINE
8
BLACK
6
CONTINUOUS
10
126.182
20
-116.816
11
126.188
21
-116.829
0
LINE
8
BLACK
6
CONTINUOUS
10
126.188
20
-116.829
11
126.193
21
-116.843
0
LINE
8
BLACK
6
CONTINUOUS
10
126.193
20
-116.843
11
126.194
21
-116.857
0
LINE
8
BLACK
6
CONTINUOUS
10
126.194
20
-116.857
11
126.194
21
-116.925
0
LINE
8
BLACK
6
CONTINUOUS
10
126.194
20
-116.925
11
126.452
21
-116.925
0
LINE
8
BLACK
6
CONTINUOUS
10
126.452
20
-116.925
11
126.453
21
-116.925
0
LINE
8
BLACK
6
CONTINUOUS
10
126.453
20
-116.925
11
126.468
21
-116.927
0
LINE
8
BLACK
6
CONTINUOUS
10
126.468
20
-116.927
11
126.482
21
-116.931
0
LINE
8
BLACK
6
CONTINUOUS
10
126.482
20
-116.931
11
126.495
21
-116.938
0
LINE
8
BLACK
6
CONTINUOUS
10
126.495
20
-116.938
11
126.506
21
-116.948
0
LINE
8
BLACK
6
CONTINUOUS
10
126.506
20
-116.948
11
126.515
21
-116.959
0
LINE
8
BLACK
6
CONTINUOUS
10
126.515
20
-116.959
11
126.522
21
-116.972
0
LINE
8
BLACK
6
CONTINUOUS
10
126.522
20
-116.972
11
126.526
21
-116.986
0
LINE
8
BLACK
6
CONTINUOUS
10
126.526
20
-116.986
11
126.527
21
-117.001
0
LINE
8
BLACK
6
CONTINUOUS
10
126.527
20
-117.001
11
126.526
21
-117.015
0
LINE
8
BLACK
6
CONTINUOUS
10
126.526
20
-117.015
11
126.522
21
-117.029
0
LINE
8
BLACK
6
CONTINUOUS
10
126.522
20
-117.029
11
126.515
21
-117.042
0
LINE
8
BLACK
6
CONTINUOUS
10
126.515
20
-117.042
11
126.505
21
-117.053
0
LINE
8
BLACK
6
CONTINUOUS
10
126.505
20
-117.053
11
126.494
21
-117.062
0
LINE
8
BLACK
6
CONTINUOUS
10
126.494
20
-117.062
11
126.481
21
-117.069
0
LINE
8
BLACK
6
CONTINUOUS
10
126.481
20
-117.069
11
126.467
21
-117.074
0
LINE
8
BLACK
6
CONTINUOUS
10
126.467
20
-117.074
11
126.452
21
-117.075
0
LINE
8
BLACK
6
CONTINUOUS
10
126.452
20
-117.075
11
126.194
21
-117.075
0
LINE
8
BLACK
6
CONTINUOUS
10
126.194
20
-117.075
11
126.194
21
-117.476
0
LINE
8
BLACK
6
CONTINUOUS
10
126.194
20
-117.476
11
126.194
21
-117.477
0
LINE
8
BLACK
6
CONTINUOUS
10
126.194
20
-117.477
11
126.194
21
-117.482
0
LINE
8
BLACK
6
CONTINUOUS
10
126.194
20
-117.482
11
126.193
21
-117.486
0
LINE
8
BLACK
6
CONTINUOUS
10
126.193
20
-117.486
11
126.193
21
-117.489
0
LINE
8
BLACK
6
CONTINUOUS
10
126.193
20
-117.489
11
126.192
21
-117.492
0
LINE
8
BLACK
6
CONTINUOUS
10
126.192
20
-117.492
11
126.191
21
-117.496
0
LINE
8
BLACK
6
CONTINUOUS
10
126.191
20
-117.496
11
126.19
21
-117.5
0
LINE
8
BLACK
6
CONTINUOUS
10
126.19
20
-117.5
11
126.189
21
-117.503
0
LINE
8
BLACK
6
CONTINUOUS
10
126.189
20
-117.503
11
126.188
21
-117.506
0
LINE
8
BLACK
6
CONTINUOUS
10
126.188
20
-117.506
11
126.186
21
-117.51
0
LINE
8
BLACK
6
CONTINUOUS
10
126.186
20
-117.51
11
126.184
21
-117.514
0
LINE
8
BLACK
6
CONTINUOUS
10
126.184
20
-117.514
11
126.182
21
-117.516
0
LINE
8
BLACK
6
CONTINUOUS
10
126.182
20
-117.516
11
126.181
21
-117.519
0
LINE
8
BLACK
6
CONTINUOUS
10
126.181
20
-117.519
11
126.178
21
-117.522
0
LINE
8
BLACK
6
CONTINUOUS
10
126.178
20
-117.522
11
126.175
21
-117.526
0
LINE
8
BLACK
6
CONTINUOUS
10
126.175
20
-117.526
11
126.173
21
-117.528
0
LINE
8
BLACK
6
CONTINUOUS
10
126.173
20
-117.528
11
126.172
21
-117.53
0
LINE
8
BLACK
6
CONTINUOUS
10
126.172
20
-117.53
11
126.168
21
-117.533
0
LINE
8
BLACK
6
CONTINUOUS
10
126.168
20
-117.533
11
126.165
21
-117.536
0
LINE
8
BLACK
6
CONTINUOUS
10
126.165
20
-117.536
11
126.162
21
-117.537
0
LINE
8
BLACK
6
CONTINUOUS
10
126.162
20
-117.537
11
126.16
21
-117.539
0
LINE
8
BLACK
6
CONTINUOUS
10
126.16
20
-117.539
11
126.156
21
-117.541
0
LINE
8
BLACK
6
CONTINUOUS
10
126.156
20
-117.541
11
126.152
21
-117.543
0
LINE
8
BLACK
6
CONTINUOUS
10
126.152
20
-117.543
11
126.15
21
-117.544
0
LINE
8
BLACK
6
CONTINUOUS
10
126.15
20
-117.544
11
126.147
21
-117.546
0
LINE
8
BLACK
6
CONTINUOUS
10
126.147
20
-117.546
11
126.143
21
-117.547
0
LINE
8
BLACK
6
CONTINUOUS
10
126.143
20
-117.547
11
126.139
21
-117.549
0
LINE
8
BLACK
6
CONTINUOUS
10
126.139
20
-117.549
11
126.136
21
-117.549
0
LINE
8
BLACK
6
CONTINUOUS
10
126.136
20
-117.549
11
126.133
21
-117.55
0
LINE
8
BLACK
6
CONTINUOUS
10
126.133
20
-117.55
11
126.129
21
-117.55
0
LINE
8
BLACK
6
CONTINUOUS
10
126.129
20
-117.55
11
126.124
21
-117.551
0
LINE
8
BLACK
6
CONTINUOUS
10
126.124
20
-117.551
11
126.121
21
-117.551
0
LINE
8
BLACK
6
CONTINUOUS
10
126.121
20
-117.551
11
126.119
21
-117.551
0
LINE
8
BLACK
6
CONTINUOUS
10
126.119
20
-117.551
11
126.114
21
-117.551
0
LINE
8
BLACK
6
CONTINUOUS
10
126.114
20
-117.551
11
126.11
21
-117.551
0
LINE
8
BLACK
6
CONTINUOUS
10
126.11
20
-117.551
11
126.107
21
-117.55
0
LINE
8
BLACK
6
CONTINUOUS
10
126.107
20
-117.55
11
126.104
21
-117.55
0
LINE
8
BLACK
6
CONTINUOUS
10
126.104
20
-117.55
11
126.1
21
-117.548
0
LINE
8
BLACK
6
CONTINUOUS
10
126.1
20
-117.548
11
126.095
21
-117.547
0
LINE
8
BLACK
6
CONTINUOUS
10
126.095
20
-117.547
11
125.381
21
-117.309
0
LINE
8
BLACK
6
CONTINUOUS
10
125.381
20
-117.309
11
125.38
21
-117.309
0
LINE
8
BLACK
6
CONTINUOUS
10
125.38
20
-117.309
11
125.367
21
-117.303
0
LINE
8
BLACK
6
CONTINUOUS
10
125.367
20
-117.303
11
125.355
21
-117.294
0
LINE
8
BLACK
6
CONTINUOUS
10
125.355
20
-117.294
11
125.345
21
-117.283
0
LINE
8
BLACK
6
CONTINUOUS
10
125.345
20
-117.283
11
125.337
21
-117.271
0
LINE
8
BLACK
6
CONTINUOUS
10
125.337
20
-117.271
11
125.332
21
-117.257
0
LINE
8
BLACK
6
CONTINUOUS
10
125.332
20
-117.257
11
125.33
21
-117.243
0
LINE
8
BLACK
6
CONTINUOUS
10
125.33
20
-117.243
11
125.33
21
-117.228
0
LINE
8
BLACK
6
CONTINUOUS
10
125.33
20
-117.228
11
125.334
21
-117.214
0
LINE
8
BLACK
6
CONTINUOUS
10
125.334
20
-117.214
11
125.34
21
-117.201
0
LINE
8
BLACK
6
CONTINUOUS
10
125.34
20
-117.201
11
125.348
21
-117.189
0
LINE
8
BLACK
6
CONTINUOUS
10
125.348
20
-117.189
11
125.359
21
-117.179
0
LINE
8
BLACK
6
CONTINUOUS
10
125.359
20
-117.179
11
125.371
21
-117.171
0
LINE
8
BLACK
6
CONTINUOUS
10
125.371
20
-117.171
11
125.385
21
-117.166
0
LINE
8
BLACK
6
CONTINUOUS
10
125.385
20
-117.166
11
125.4
21
-117.163
0
LINE
8
BLACK
6
CONTINUOUS
10
125.4
20
-117.163
11
125.414
21
-117.164
0
LINE
8
BLACK
6
CONTINUOUS
10
125.414
20
-117.164
11
125.428
21
-117.167
0
LINE
8
BLACK
6
CONTINUOUS
10
125.428
20
-117.167
11
126.044
21
-117.372
0
LINE
8
BLACK
6
CONTINUOUS
10
126.044
20
-117.372
11
126.044
21
-117.075
0
LINE
8
BLACK
6
CONTINUOUS
10
126.044
20
-117.075
11
125.786
21
-117.075
0
LINE
8
BLACK
6
CONTINUOUS
10
125.786
20
-117.075
11
125.785
21
-117.075
0
LINE
8
BLACK
6
CONTINUOUS
10
125.785
20
-117.075
11
125.77
21
-117.073
0
LINE
8
BLACK
6
CONTINUOUS
10
125.77
20
-117.073
11
125.756
21
-117.069
0
LINE
8
BLACK
6
CONTINUOUS
10
125.756
20
-117.069
11
125.743
21
-117.062
0
LINE
8
BLACK
6
CONTINUOUS
10
125.743
20
-117.062
11
125.732
21
-117.052
0
LINE
8
BLACK
6
CONTINUOUS
10
125.732
20
-117.052
11
125.723
21
-117.041
0
LINE
8
BLACK
6
CONTINUOUS
10
125.723
20
-117.041
11
125.716
21
-117.028
0
LINE
8
BLACK
6
CONTINUOUS
10
125.716
20
-117.028
11
125.712
21
-117.014
0
LINE
8
BLACK
6
CONTINUOUS
10
125.712
20
-117.014
11
125.711
21
-116.999
0
LINE
8
BLACK
6
CONTINUOUS
10
125.711
20
-116.999
11
125.712
21
-116.985
0
LINE
8
BLACK
6
CONTINUOUS
10
125.712
20
-116.985
11
125.717
21
-116.971
0
LINE
8
BLACK
6
CONTINUOUS
10
125.717
20
-116.971
11
125.724
21
-116.958
0
LINE
8
BLACK
6
CONTINUOUS
10
125.724
20
-116.958
11
125.733
21
-116.947
0
LINE
8
BLACK
6
CONTINUOUS
10
125.733
20
-116.947
11
125.744
21
-116.938
0
LINE
8
BLACK
6
CONTINUOUS
10
125.744
20
-116.938
11
125.757
21
-116.931
0
LINE
8
BLACK
6
CONTINUOUS
10
125.757
20
-116.931
11
125.771
21
-116.926
0
LINE
8
BLACK
6
CONTINUOUS
10
125.771
20
-116.926
11
125.786
21
-116.925
0
LINE
8
BLACK
6
CONTINUOUS
10
125.786
20
-116.925
11
126.044
21
-116.925
0
LINE
8
BLACK
6
CONTINUOUS
10
126.044
20
-116.925
11
126.044
21
-116.857
0
LINE
8
BLACK
6
CONTINUOUS
10
126.044
20
-116.857
11
126.044
21
-116.856
0
LINE
8
BLACK
6
CONTINUOUS
10
126.044
20
-116.856
11
126.046
21
-116.842
0
LINE
8
BLACK
6
CONTINUOUS
10
126.046
20
-116.842
11
126.05
21
-116.828
0
LINE
8
BLACK
6
CONTINUOUS
10
126.05
20
-116.828
11
126.057
21
-116.815
0
LINE
8
BLACK
6
CONTINUOUS
10
126.057
20
-116.815
11
126.067
21
-116.804
0
LINE
8
BLACK
6
CONTINUOUS
10
126.067
20
-116.804
11
126.078
21
-116.794
0
LINE
8
BLACK
6
CONTINUOUS
10
126.078
20
-116.794
11
126.091
21
-116.788
0
LINE
8
BLACK
6
CONTINUOUS
10
126.091
20
-116.788
11
126.105
21
-116.783
0
LINE
8
BLACK
6
CONTINUOUS
10
126.105
20
-116.783
11
126.12
21
-116.782
0
LINE
8
BLACK
6
CONTINUOUS
10
126.12
20
-116.782
11
126.134
21
-116.784
0
LINE
8
BLACK
6
CONTINUOUS
10
126.467
20
-115.879
11
126.481
21
-115.883
0
LINE
8
BLACK
6
CONTINUOUS
10
126.481
20
-115.883
11
126.494
21
-115.89
0
LINE
8
BLACK
6
CONTINUOUS
10
126.494
20
-115.89
11
126.506
21
-115.9
0
LINE
8
BLACK
6
CONTINUOUS
10
126.506
20
-115.9
11
126.515
21
-115.911
0
LINE
8
BLACK
6
CONTINUOUS
10
126.515
20
-115.911
11
126.522
21
-115.924
0
LINE
8
BLACK
6
CONTINUOUS
10
126.522
20
-115.924
11
126.526
21
-115.938
0
LINE
8
BLACK
6
CONTINUOUS
10
126.526
20
-115.938
11
126.527
21
-115.952
0
LINE
8
BLACK
6
CONTINUOUS
10
126.527
20
-115.952
11
126.527
21
-116.524
0
LINE
8
BLACK
6
CONTINUOUS
10
126.527
20
-116.524
11
126.527
21
-116.525
0
LINE
8
BLACK
6
CONTINUOUS
10
126.527
20
-116.525
11
126.526
21
-116.539
0
LINE
8
BLACK
6
CONTINUOUS
10
126.526
20
-116.539
11
126.521
21
-116.553
0
LINE
8
BLACK
6
CONTINUOUS
10
126.521
20
-116.553
11
126.514
21
-116.566
0
LINE
8
BLACK
6
CONTINUOUS
10
126.514
20
-116.566
11
126.505
21
-116.577
0
LINE
8
BLACK
6
CONTINUOUS
10
126.505
20
-116.577
11
126.493
21
-116.587
0
LINE
8
BLACK
6
CONTINUOUS
10
126.493
20
-116.587
11
126.48
21
-116.593
0
LINE
8
BLACK
6
CONTINUOUS
10
126.48
20
-116.593
11
126.466
21
-116.597
0
LINE
8
BLACK
6
CONTINUOUS
10
126.466
20
-116.597
11
126.452
21
-116.599
0
LINE
8
BLACK
6
CONTINUOUS
10
126.452
20
-116.599
11
126.437
21
-116.597
0
LINE
8
BLACK
6
CONTINUOUS
10
126.437
20
-116.597
11
126.423
21
-116.593
0
LINE
8
BLACK
6
CONTINUOUS
10
126.423
20
-116.593
11
126.41
21
-116.586
0
LINE
8
BLACK
6
CONTINUOUS
10
126.41
20
-116.586
11
126.399
21
-116.577
0
LINE
8
BLACK
6
CONTINUOUS
10
126.399
20
-116.577
11
126.39
21
-116.565
0
LINE
8
BLACK
6
CONTINUOUS
10
126.39
20
-116.565
11
126.383
21
-116.552
0
LINE
8
BLACK
6
CONTINUOUS
10
126.383
20
-116.552
11
126.379
21
-116.538
0
LINE
8
BLACK
6
CONTINUOUS
10
126.379
20
-116.538
11
126.377
21
-116.524
0
LINE
8
BLACK
6
CONTINUOUS
10
126.377
20
-116.524
11
126.377
21
-116.313
0
LINE
8
BLACK
6
CONTINUOUS
10
126.377
20
-116.313
11
125.681
21
-116.313
0
LINE
8
BLACK
6
CONTINUOUS
10
125.681
20
-116.313
11
125.744
21
-116.376
0
LINE
8
BLACK
6
CONTINUOUS
10
125.744
20
-116.376
11
125.744
21
-116.376
0
LINE
8
BLACK
6
CONTINUOUS
10
125.744
20
-116.376
11
125.747
21
-116.38
0
LINE
8
BLACK
6
CONTINUOUS
10
125.747
20
-116.38
11
125.75
21
-116.383
0
LINE
8
BLACK
6
CONTINUOUS
10
125.75
20
-116.383
11
125.751
21
-116.385
0
LINE
8
BLACK
6
CONTINUOUS
10
125.751
20
-116.385
11
125.753
21
-116.388
0
LINE
8
BLACK
6
CONTINUOUS
10
125.753
20
-116.388
11
125.755
21
-116.391
0
LINE
8
BLACK
6
CONTINUOUS
10
125.755
20
-116.391
11
125.758
21
-116.395
0
LINE
8
BLACK
6
CONTINUOUS
10
125.758
20
-116.395
11
125.805
21
-116.49
0
LINE
8
BLACK
6
CONTINUOUS
10
125.805
20
-116.49
11
125.806
21
-116.491
0
LINE
8
BLACK
6
CONTINUOUS
10
125.806
20
-116.491
11
125.811
21
-116.505
0
LINE
8
BLACK
6
CONTINUOUS
10
125.811
20
-116.505
11
125.813
21
-116.519
0
LINE
8
BLACK
6
CONTINUOUS
10
125.813
20
-116.519
11
125.812
21
-116.534
0
LINE
8
BLACK
6
CONTINUOUS
10
125.812
20
-116.534
11
125.809
21
-116.548
0
LINE
8
BLACK
6
CONTINUOUS
10
125.809
20
-116.548
11
125.803
21
-116.562
0
LINE
8
BLACK
6
CONTINUOUS
10
125.803
20
-116.562
11
125.794
21
-116.573
0
LINE
8
BLACK
6
CONTINUOUS
10
125.794
20
-116.573
11
125.784
21
-116.583
0
LINE
8
BLACK
6
CONTINUOUS
10
125.784
20
-116.583
11
125.771
21
-116.591
0
LINE
8
BLACK
6
CONTINUOUS
10
125.771
20
-116.591
11
125.757
21
-116.596
0
LINE
8
BLACK
6
CONTINUOUS
10
125.757
20
-116.596
11
125.743
21
-116.599
0
LINE
8
BLACK
6
CONTINUOUS
10
125.743
20
-116.599
11
125.728
21
-116.598
0
LINE
8
BLACK
6
CONTINUOUS
10
125.728
20
-116.598
11
125.714
21
-116.595
0
LINE
8
BLACK
6
CONTINUOUS
10
125.714
20
-116.595
11
125.701
21
-116.589
0
LINE
8
BLACK
6
CONTINUOUS
10
125.701
20
-116.589
11
125.689
21
-116.58
0
LINE
8
BLACK
6
CONTINUOUS
10
125.689
20
-116.58
11
125.679
21
-116.57
0
LINE
8
BLACK
6
CONTINUOUS
10
125.679
20
-116.57
11
125.671
21
-116.557
0
LINE
8
BLACK
6
CONTINUOUS
10
125.671
20
-116.557
11
125.629
21
-116.473
0
LINE
8
BLACK
6
CONTINUOUS
10
125.629
20
-116.473
11
125.547
21
-116.392
0
LINE
8
BLACK
6
CONTINUOUS
10
125.547
20
-116.392
11
125.411
21
-116.3
0
LINE
8
BLACK
6
CONTINUOUS
10
125.411
20
-116.3
11
125.41
21
-116.3
0
LINE
8
BLACK
6
CONTINUOUS
10
125.41
20
-116.3
11
125.41
21
-116.3
0
LINE
8
BLACK
6
CONTINUOUS
10
125.41
20
-116.3
11
125.41
21
-116.3
0
LINE
8
BLACK
6
CONTINUOUS
10
125.41
20
-116.3
11
125.41
21
-116.3
0
LINE
8
BLACK
6
CONTINUOUS
10
125.41
20
-116.3
11
125.404
21
-116.295
0
LINE
8
BLACK
6
CONTINUOUS
10
125.404
20
-116.295
11
125.399
21
-116.291
0
LINE
8
BLACK
6
CONTINUOUS
10
125.399
20
-116.291
11
125.399
21
-116.291
0
LINE
8
BLACK
6
CONTINUOUS
10
125.399
20
-116.291
11
125.399
21
-116.29
0
LINE
8
BLACK
6
CONTINUOUS
10
125.399
20
-116.29
11
125.394
21
-116.285
0
LINE
8
BLACK
6
CONTINUOUS
10
125.394
20
-116.285
11
125.39
21
-116.279
0
LINE
8
BLACK
6
CONTINUOUS
10
125.39
20
-116.279
11
125.39
21
-116.279
0
LINE
8
BLACK
6
CONTINUOUS
10
125.39
20
-116.279
11
125.39
21
-116.279
0
LINE
8
BLACK
6
CONTINUOUS
10
125.39
20
-116.279
11
125.386
21
-116.272
0
LINE
8
BLACK
6
CONTINUOUS
10
125.386
20
-116.272
11
125.383
21
-116.266
0
LINE
8
BLACK
6
CONTINUOUS
10
125.383
20
-116.266
11
125.383
21
-116.266
0
LINE
8
BLACK
6
CONTINUOUS
10
125.383
20
-116.266
11
125.383
21
-116.266
0
LINE
8
BLACK
6
CONTINUOUS
10
125.383
20
-116.266
11
125.381
21
-116.259
0
LINE
8
BLACK
6
CONTINUOUS
10
125.381
20
-116.259
11
125.379
21
-116.252
0
LINE
8
BLACK
6
CONTINUOUS
10
125.379
20
-116.252
11
125.379
21
-116.252
0
LINE
8
BLACK
6
CONTINUOUS
10
125.379
20
-116.252
11
125.379
21
-116.252
0
LINE
8
BLACK
6
CONTINUOUS
10
125.379
20
-116.252
11
125.378
21
-116.245
0
LINE
8
BLACK
6
CONTINUOUS
10
125.378
20
-116.245
11
125.377
21
-116.238
0
LINE
8
BLACK
6
CONTINUOUS
10
125.377
20
-116.238
11
125.377
21
-116.238
0
LINE
8
BLACK
6
CONTINUOUS
10
125.377
20
-116.238
11
125.377
21
-116.237
0
LINE
8
BLACK
6
CONTINUOUS
10
125.377
20
-116.237
11
125.378
21
-116.23
0
LINE
8
BLACK
6
CONTINUOUS
10
125.378
20
-116.23
11
125.379
21
-116.223
0
LINE
8
BLACK
6
CONTINUOUS
10
125.379
20
-116.223
11
125.379
21
-116.223
0
LINE
8
BLACK
6
CONTINUOUS
10
125.379
20
-116.223
11
125.379
21
-116.223
0
LINE
8
BLACK
6
CONTINUOUS
10
125.379
20
-116.223
11
125.381
21
-116.216
0
LINE
8
BLACK
6
CONTINUOUS
10
125.381
20
-116.216
11
125.383
21
-116.209
0
LINE
8
BLACK
6
CONTINUOUS
10
125.383
20
-116.209
11
125.383
21
-116.209
0
LINE
8
BLACK
6
CONTINUOUS
10
125.383
20
-116.209
11
125.383
21
-116.209
0
LINE
8
BLACK
6
CONTINUOUS
10
125.383
20
-116.209
11
125.387
21
-116.202
0
LINE
8
BLACK
6
CONTINUOUS
10
125.387
20
-116.202
11
125.39
21
-116.196
0
LINE
8
BLACK
6
CONTINUOUS
10
125.39
20
-116.196
11
125.39
21
-116.196
0
LINE
8
BLACK
6
CONTINUOUS
10
125.39
20
-116.196
11
125.39
21
-116.196
0
LINE
8
BLACK
6
CONTINUOUS
10
125.39
20
-116.196
11
125.395
21
-116.19
0
LINE
8
BLACK
6
CONTINUOUS
10
125.395
20
-116.19
11
125.4
21
-116.185
0
LINE
8
BLACK
6
CONTINUOUS
10
125.4
20
-116.185
11
125.4
21
-116.185
0
LINE
8
BLACK
6
CONTINUOUS
10
125.4
20
-116.185
11
125.4
21
-116.185
0
LINE
8
BLACK
6
CONTINUOUS
10
125.4
20
-116.185
11
125.405
21
-116.18
0
LINE
8
BLACK
6
CONTINUOUS
10
125.405
20
-116.18
11
125.411
21
-116.176
0
LINE
8
BLACK
6
CONTINUOUS
10
125.411
20
-116.176
11
125.411
21
-116.176
0
LINE
8
BLACK
6
CONTINUOUS
10
125.411
20
-116.176
11
125.411
21
-116.176
0
LINE
8
BLACK
6
CONTINUOUS
10
125.411
20
-116.176
11
125.418
21
-116.172
0
LINE
8
BLACK
6
CONTINUOUS
10
125.418
20
-116.172
11
125.424
21
-116.169
0
LINE
8
BLACK
6
CONTINUOUS
10
125.424
20
-116.169
11
125.424
21
-116.169
0
LINE
8
BLACK
6
CONTINUOUS
10
125.424
20
-116.169
11
125.424
21
-116.169
0
LINE
8
BLACK
6
CONTINUOUS
10
125.424
20
-116.169
11
125.431
21
-116.167
0
LINE
8
BLACK
6
CONTINUOUS
10
125.431
20
-116.167
11
125.438
21
-116.165
0
LINE
8
BLACK
6
CONTINUOUS
10
125.438
20
-116.165
11
125.438
21
-116.165
0
LINE
8
BLACK
6
CONTINUOUS
10
125.438
20
-116.165
11
125.438
21
-116.164
0
LINE
8
BLACK
6
CONTINUOUS
10
125.438
20
-116.164
11
125.445
21
-116.164
0
LINE
8
BLACK
6
CONTINUOUS
10
125.445
20
-116.164
11
125.452
21
-116.163
0
LINE
8
BLACK
6
CONTINUOUS
10
125.452
20
-116.163
11
126.377
21
-116.163
0
LINE
8
BLACK
6
CONTINUOUS
10
126.377
20
-116.163
11
126.377
21
-115.952
0
LINE
8
BLACK
6
CONTINUOUS
10
126.377
20
-115.952
11
126.377
21
-115.951
0
LINE
8
BLACK
6
CONTINUOUS
10
126.377
20
-115.951
11
126.379
21
-115.937
0
LINE
8
BLACK
6
CONTINUOUS
10
126.379
20
-115.937
11
126.383
21
-115.923
0
LINE
8
BLACK
6
CONTINUOUS
10
126.383
20
-115.923
11
126.39
21
-115.91
0
LINE
8
BLACK
6
CONTINUOUS
10
126.39
20
-115.91
11
126.4
21
-115.899
0
LINE
8
BLACK
6
CONTINUOUS
10
126.4
20
-115.899
11
126.411
21
-115.89
0
LINE
8
BLACK
6
CONTINUOUS
10
126.411
20
-115.89
11
126.424
21
-115.883
0
LINE
8
BLACK
6
CONTINUOUS
10
126.424
20
-115.883
11
126.438
21
-115.879
0
LINE
8
BLACK
6
CONTINUOUS
10
126.438
20
-115.879
11
126.453
21
-115.877
0
LINE
8
BLACK
6
CONTINUOUS
10
126.453
20
-115.877
11
126.467
21
-115.879
0
LINE
8
BLACK
6
CONTINUOUS
10
125.785
20
-114.837
11
125.77
21
-114.835
0
LINE
8
BLACK
6
CONTINUOUS
10
125.77
20
-114.835
11
125.756
21
-114.831
0
LINE
8
BLACK
6
CONTINUOUS
10
125.756
20
-114.831
11
125.743
21
-114.824
0
LINE
8
BLACK
6
CONTINUOUS
10
125.743
20
-114.824
11
125.732
21
-114.814
0
LINE
8
BLACK
6
CONTINUOUS
10
125.732
20
-114.814
11
125.723
21
-114.803
0
LINE
8
BLACK
6
CONTINUOUS
10
125.723
20
-114.803
11
125.716
21
-114.79
0
LINE
8
BLACK
6
CONTINUOUS
10
125.716
20
-114.79
11
125.712
21
-114.776
0
LINE
8
BLACK
6
CONTINUOUS
10
125.712
20
-114.776
11
125.711
21
-114.761
0
LINE
8
BLACK
6
CONTINUOUS
10
125.711
20
-114.761
11
125.712
21
-114.747
0
LINE
8
BLACK
6
CONTINUOUS
10
125.712
20
-114.747
11
125.717
21
-114.733
0
LINE
8
BLACK
6
CONTINUOUS
10
125.717
20
-114.733
11
125.724
21
-114.72
0
LINE
8
BLACK
6
CONTINUOUS
10
125.724
20
-114.72
11
125.733
21
-114.709
0
LINE
8
BLACK
6
CONTINUOUS
10
125.733
20
-114.709
11
125.743
21
-114.701
0
LINE
8
BLACK
6
CONTINUOUS
10
125.743
20
-114.701
11
125.719
21
-114.653
0
LINE
8
BLACK
6
CONTINUOUS
10
125.719
20
-114.653
11
125.718
21
-114.652
0
LINE
8
BLACK
6
CONTINUOUS
10
125.718
20
-114.652
11
125.717
21
-114.65
0
LINE
8
BLACK
6
CONTINUOUS
10
125.717
20
-114.65
11
125.716
21
-114.648
0
LINE
8
BLACK
6
CONTINUOUS
10
125.716
20
-114.648
11
125.715
21
-114.643
0
LINE
8
BLACK
6
CONTINUOUS
10
125.715
20
-114.643
11
125.713
21
-114.638
0
LINE
8
BLACK
6
CONTINUOUS
10
125.713
20
-114.638
11
125.713
21
-114.636
0
LINE
8
BLACK
6
CONTINUOUS
10
125.713
20
-114.636
11
125.712
21
-114.634
0
LINE
8
BLACK
6
CONTINUOUS
10
125.712
20
-114.634
11
125.712
21
-114.629
0
LINE
8
BLACK
6
CONTINUOUS
10
125.712
20
-114.629
11
125.711
21
-114.623
0
LINE
8
BLACK
6
CONTINUOUS
10
125.711
20
-114.623
11
125.711
21
-114.621
0
LINE
8
BLACK
6
CONTINUOUS
10
125.711
20
-114.621
11
125.711
21
-114.619
0
LINE
8
BLACK
6
CONTINUOUS
10
125.711
20
-114.619
11
125.711
21
-114.476
0
LINE
8
BLACK
6
CONTINUOUS
10
125.711
20
-114.476
11
125.711
21
-114.475
0
LINE
8
BLACK
6
CONTINUOUS
10
125.711
20
-114.475
11
125.711
21
-114.473
0
LINE
8
BLACK
6
CONTINUOUS
10
125.711
20
-114.473
11
125.711
21
-114.471
0
LINE
8
BLACK
6
CONTINUOUS
10
125.711
20
-114.471
11
125.712
21
-114.466
0
LINE
8
BLACK
6
CONTINUOUS
10
125.712
20
-114.466
11
125.712
21
-114.461
0
LINE
8
BLACK
6
CONTINUOUS
10
125.712
20
-114.461
11
125.713
21
-114.458
0
LINE
8
BLACK
6
CONTINUOUS
10
125.713
20
-114.458
11
125.713
21
-114.456
0
LINE
8
BLACK
6
CONTINUOUS
10
125.713
20
-114.456
11
125.715
21
-114.452
0
LINE
8
BLACK
6
CONTINUOUS
10
125.715
20
-114.452
11
125.717
21
-114.447
0
LINE
8
BLACK
6
CONTINUOUS
10
125.717
20
-114.447
11
125.718
21
-114.445
0
LINE
8
BLACK
6
CONTINUOUS
10
125.718
20
-114.445
11
125.719
21
-114.443
0
LINE
8
BLACK
6
CONTINUOUS
10
125.719
20
-114.443
11
125.766
21
-114.347
0
LINE
8
BLACK
6
CONTINUOUS
10
125.766
20
-114.347
11
125.767
21
-114.346
0
LINE
8
BLACK
6
CONTINUOUS
10
125.767
20
-114.346
11
125.768
21
-114.345
0
LINE
8
BLACK
6
CONTINUOUS
10
125.768
20
-114.345
11
125.768
21
-114.344
0
LINE
8
BLACK
6
CONTINUOUS
10
125.768
20
-114.344
11
125.772
21
-114.339
0
LINE
8
BLACK
6
CONTINUOUS
10
125.772
20
-114.339
11
125.775
21
-114.334
0
LINE
8
BLACK
6
CONTINUOUS
10
125.775
20
-114.334
11
125.776
21
-114.333
0
LINE
8
BLACK
6
CONTINUOUS
10
125.776
20
-114.333
11
125.775
21
-114.333
0
LINE
8
BLACK
6
CONTINUOUS
10
125.775
20
-114.333
11
125.774
21
-114.332
0
LINE
8
BLACK
6
CONTINUOUS
10
125.774
20
-114.332
11
125.771
21
-114.327
0
LINE
8
BLACK
6
CONTINUOUS
10
125.771
20
-114.327
11
125.768
21
-114.322
0
LINE
8
BLACK
6
CONTINUOUS
10
125.768
20
-114.322
11
125.767
21
-114.321
0
LINE
8
BLACK
6
CONTINUOUS
10
125.767
20
-114.321
11
125.766
21
-114.319
0
LINE
8
BLACK
6
CONTINUOUS
10
125.766
20
-114.319
11
125.719
21
-114.224
0
LINE
8
BLACK
6
CONTINUOUS
10
125.719
20
-114.224
11
125.718
21
-114.223
0
LINE
8
BLACK
6
CONTINUOUS
10
125.718
20
-114.223
11
125.717
21
-114.221
0
LINE
8
BLACK
6
CONTINUOUS
10
125.717
20
-114.221
11
125.716
21
-114.219
0
LINE
8
BLACK
6
CONTINUOUS
10
125.716
20
-114.219
11
125.715
21
-114.214
0
LINE
8
BLACK
6
CONTINUOUS
10
125.715
20
-114.214
11
125.713
21
-114.209
0
LINE
8
BLACK
6
CONTINUOUS
10
125.713
20
-114.209
11
125.713
21
-114.207
0
LINE
8
BLACK
6
CONTINUOUS
10
125.713
20
-114.207
11
125.712
21
-114.205
0
LINE
8
BLACK
6
CONTINUOUS
10
125.712
20
-114.205
11
125.712
21
-114.2
0
LINE
8
BLACK
6
CONTINUOUS
10
125.712
20
-114.2
11
125.711
21
-114.195
0
LINE
8
BLACK
6
CONTINUOUS
10
125.711
20
-114.195
11
125.711
21
-114.193
0
LINE
8
BLACK
6
CONTINUOUS
10
125.711
20
-114.193
11
125.711
21
-114.19
0
LINE
8
BLACK
6
CONTINUOUS
10
125.711
20
-114.19
11
125.711
21
-114.048
0
LINE
8
BLACK
6
CONTINUOUS
10
125.711
20
-114.048
11
125.711
21
-114.047
0
LINE
8
BLACK
6
CONTINUOUS
10
125.711
20
-114.047
11
125.711
21
-114.044
0
LINE
8
BLACK
6
CONTINUOUS
10
125.711
20
-114.044
11
125.711
21
-114.042
0
LINE
8
BLACK
6
CONTINUOUS
10
125.711
20
-114.042
11
125.712
21
-114.037
0
LINE
8
BLACK
6
CONTINUOUS
10
125.712
20
-114.037
11
125.712
21
-114.032
0
LINE
8
BLACK
6
CONTINUOUS
10
125.712
20
-114.032
11
125.713
21
-114.03
0
LINE
8
BLACK
6
CONTINUOUS
10
125.713
20
-114.03
11
125.713
21
-114.028
0
LINE
8
BLACK
6
CONTINUOUS
10
125.713
20
-114.028
11
125.715
21
-114.023
0
LINE
8
BLACK
6
CONTINUOUS
10
125.715
20
-114.023
11
125.717
21
-114.018
0
LINE
8
BLACK
6
CONTINUOUS
10
125.717
20
-114.018
11
125.718
21
-114.016
0
LINE
8
BLACK
6
CONTINUOUS
10
125.718
20
-114.016
11
125.719
21
-114.014
0
LINE
8
BLACK
6
CONTINUOUS
10
125.719
20
-114.014
11
125.766
21
-113.919
0
LINE
8
BLACK
6
CONTINUOUS
10
125.766
20
-113.919
11
125.767
21
-113.918
0
LINE
8
BLACK
6
CONTINUOUS
10
125.767
20
-113.918
11
125.768
21
-113.917
0
LINE
8
BLACK
6
CONTINUOUS
10
125.768
20
-113.917
11
125.768
21
-113.915
0
LINE
8
BLACK
6
CONTINUOUS
10
125.768
20
-113.915
11
125.772
21
-113.91
0
LINE
8
BLACK
6
CONTINUOUS
10
125.772
20
-113.91
11
125.775
21
-113.906
0
LINE
8
BLACK
6
CONTINUOUS
10
125.775
20
-113.906
11
125.776
21
-113.904
0
LINE
8
BLACK
6
CONTINUOUS
10
125.776
20
-113.904
11
125.777
21
-113.903
0
LINE
8
BLACK
6
CONTINUOUS
10
125.777
20
-113.903
11
125.781
21
-113.899
0
LINE
8
BLACK
6
CONTINUOUS
10
125.781
20
-113.899
11
125.785
21
-113.895
0
LINE
8
BLACK
6
CONTINUOUS
10
125.785
20
-113.895
11
125.786
21
-113.894
0
LINE
8
BLACK
6
CONTINUOUS
10
125.786
20
-113.894
11
125.787
21
-113.893
0
LINE
8
BLACK
6
CONTINUOUS
10
125.787
20
-113.893
11
125.792
21
-113.89
0
LINE
8
BLACK
6
CONTINUOUS
10
125.792
20
-113.89
11
125.797
21
-113.887
0
LINE
8
BLACK
6
CONTINUOUS
10
125.797
20
-113.887
11
125.798
21
-113.886
0
LINE
8
BLACK
6
CONTINUOUS
10
125.798
20
-113.886
11
125.8
21
-113.885
0
LINE
8
BLACK
6
CONTINUOUS
10
125.8
20
-113.885
11
125.895
21
-113.838
0
LINE
8
BLACK
6
CONTINUOUS
10
125.895
20
-113.838
11
125.896
21
-113.837
0
LINE
8
BLACK
6
CONTINUOUS
10
125.896
20
-113.837
11
125.898
21
-113.836
0
LINE
8
BLACK
6
CONTINUOUS
10
125.898
20
-113.836
11
125.9
21
-113.835
0
LINE
8
BLACK
6
CONTINUOUS
10
125.9
20
-113.835
11
125.905
21
-113.834
0
LINE
8
BLACK
6
CONTINUOUS
10
125.905
20
-113.834
11
125.91
21
-113.832
0
LINE
8
BLACK
6
CONTINUOUS
10
125.91
20
-113.832
11
125.912
21
-113.832
0
LINE
8
BLACK
6
CONTINUOUS
10
125.912
20
-113.832
11
125.914
21
-113.831
0
LINE
8
BLACK
6
CONTINUOUS
10
125.914
20
-113.831
11
125.919
21
-113.831
0
LINE
8
BLACK
6
CONTINUOUS
10
125.919
20
-113.831
11
125.924
21
-113.83
0
LINE
8
BLACK
6
CONTINUOUS
10
125.924
20
-113.83
11
125.926
21
-113.83
0
LINE
8
BLACK
6
CONTINUOUS
10
125.926
20
-113.83
11
125.929
21
-113.83
0
LINE
8
BLACK
6
CONTINUOUS
10
125.929
20
-113.83
11
126.452
21
-113.83
0
LINE
8
BLACK
6
CONTINUOUS
10
126.452
20
-113.83
11
126.453
21
-113.83
0
LINE
8
BLACK
6
CONTINUOUS
10
126.453
20
-113.83
11
126.468
21
-113.831
0
LINE
8
BLACK
6
CONTINUOUS
10
126.468
20
-113.831
11
126.482
21
-113.836
0
LINE
8
BLACK
6
CONTINUOUS
10
126.482
20
-113.836
11
126.495
21
-113.843
0
LINE
8
BLACK
6
CONTINUOUS
10
126.495
20
-113.843
11
126.506
21
-113.852
0
LINE
8
BLACK
6
CONTINUOUS
10
126.506
20
-113.852
11
126.515
21
-113.864
0
LINE
8
BLACK
6
CONTINUOUS
10
126.515
20
-113.864
11
126.522
21
-113.877
0
LINE
8
BLACK
6
CONTINUOUS
10
126.522
20
-113.877
11
126.526
21
-113.891
0
LINE
8
BLACK
6
CONTINUOUS
10
126.526
20
-113.891
11
126.527
21
-113.905
0
LINE
8
BLACK
6
CONTINUOUS
10
126.527
20
-113.905
11
126.526
21
-113.92
0
LINE
8
BLACK
6
CONTINUOUS
10
126.526
20
-113.92
11
126.522
21
-113.934
0
LINE
8
BLACK
6
CONTINUOUS
10
126.522
20
-113.934
11
126.515
21
-113.947
0
LINE
8
BLACK
6
CONTINUOUS
10
126.515
20
-113.947
11
126.505
21
-113.958
0
LINE
8
BLACK
6
CONTINUOUS
10
126.505
20
-113.958
11
126.494
21
-113.967
0
LINE
8
BLACK
6
CONTINUOUS
10
126.494
20
-113.967
11
126.481
21
-113.974
0
LINE
8
BLACK
6
CONTINUOUS
10
126.481
20
-113.974
11
126.467
21
-113.978
0
LINE
8
BLACK
6
CONTINUOUS
10
126.467
20
-113.978
11
126.452
21
-113.98
0
LINE
8
BLACK
6
CONTINUOUS
10
126.452
20
-113.98
11
125.946
21
-113.98
0
LINE
8
BLACK
6
CONTINUOUS
10
125.946
20
-113.98
11
125.889
21
-114.008
0
LINE
8
BLACK
6
CONTINUOUS
10
125.889
20
-114.008
11
125.861
21
-114.065
0
LINE
8
BLACK
6
CONTINUOUS
10
125.861
20
-114.065
11
125.861
21
-114.173
0
LINE
8
BLACK
6
CONTINUOUS
10
125.861
20
-114.173
11
125.889
21
-114.23
0
LINE
8
BLACK
6
CONTINUOUS
10
125.889
20
-114.23
11
125.946
21
-114.258
0
LINE
8
BLACK
6
CONTINUOUS
10
125.946
20
-114.258
11
126.452
21
-114.258
0
LINE
8
BLACK
6
CONTINUOUS
10
126.452
20
-114.258
11
126.453
21
-114.258
0
LINE
8
BLACK
6
CONTINUOUS
10
126.453
20
-114.258
11
126.468
21
-114.26
0
LINE
8
BLACK
6
CONTINUOUS
10
126.468
20
-114.26
11
126.482
21
-114.264
0
LINE
8
BLACK
6
CONTINUOUS
10
126.482
20
-114.264
11
126.495
21
-114.271
0
LINE
8
BLACK
6
CONTINUOUS
10
126.495
20
-114.271
11
126.506
21
-114.281
0
LINE
8
BLACK
6
CONTINUOUS
10
126.506
20
-114.281
11
126.515
21
-114.292
0
LINE
8
BLACK
6
CONTINUOUS
10
126.515
20
-114.292
11
126.522
21
-114.305
0
LINE
8
BLACK
6
CONTINUOUS
10
126.522
20
-114.305
11
126.526
21
-114.319
0
LINE
8
BLACK
6
CONTINUOUS
10
126.526
20
-114.319
11
126.527
21
-114.334
0
LINE
8
BLACK
6
CONTINUOUS
10
126.527
20
-114.334
11
126.526
21
-114.348
0
LINE
8
BLACK
6
CONTINUOUS
10
126.526
20
-114.348
11
126.522
21
-114.362
0
LINE
8
BLACK
6
CONTINUOUS
10
126.522
20
-114.362
11
126.515
21
-114.375
0
LINE
8
BLACK
6
CONTINUOUS
10
126.515
20
-114.375
11
126.505
21
-114.387
0
LINE
8
BLACK
6
CONTINUOUS
10
126.505
20
-114.387
11
126.494
21
-114.396
0
LINE
8
BLACK
6
CONTINUOUS
10
126.494
20
-114.396
11
126.481
21
-114.403
0
LINE
8
BLACK
6
CONTINUOUS
10
126.481
20
-114.403
11
126.467
21
-114.407
0
LINE
8
BLACK
6
CONTINUOUS
10
126.467
20
-114.407
11
126.452
21
-114.408
0
LINE
8
BLACK
6
CONTINUOUS
10
126.452
20
-114.408
11
125.946
21
-114.408
0
LINE
8
BLACK
6
CONTINUOUS
10
125.946
20
-114.408
11
125.889
21
-114.437
0
LINE
8
BLACK
6
CONTINUOUS
10
125.889
20
-114.437
11
125.861
21
-114.494
0
LINE
8
BLACK
6
CONTINUOUS
10
125.861
20
-114.494
11
125.861
21
-114.601
0
LINE
8
BLACK
6
CONTINUOUS
10
125.861
20
-114.601
11
125.895
21
-114.67
0
LINE
8
BLACK
6
CONTINUOUS
10
125.895
20
-114.67
11
125.912
21
-114.687
0
LINE
8
BLACK
6
CONTINUOUS
10
125.912
20
-114.687
11
126.452
21
-114.687
0
LINE
8
BLACK
6
CONTINUOUS
10
126.452
20
-114.687
11
126.453
21
-114.687
0
LINE
8
BLACK
6
CONTINUOUS
10
126.453
20
-114.687
11
126.468
21
-114.689
0
LINE
8
BLACK
6
CONTINUOUS
10
126.468
20
-114.689
11
126.482
21
-114.693
0
LINE
8
BLACK
6
CONTINUOUS
10
126.482
20
-114.693
11
126.495
21
-114.7
0
LINE
8
BLACK
6
CONTINUOUS
10
126.495
20
-114.7
11
126.506
21
-114.709
0
LINE
8
BLACK
6
CONTINUOUS
10
126.506
20
-114.709
11
126.515
21
-114.721
0
LINE
8
BLACK
6
CONTINUOUS
10
126.515
20
-114.721
11
126.522
21
-114.734
0
LINE
8
BLACK
6
CONTINUOUS
10
126.522
20
-114.734
11
126.526
21
-114.748
0
LINE
8
BLACK
6
CONTINUOUS
10
126.526
20
-114.748
11
126.527
21
-114.762
0
LINE
8
BLACK
6
CONTINUOUS
10
126.527
20
-114.762
11
126.526
21
-114.777
0
LINE
8
BLACK
6
CONTINUOUS
10
126.526
20
-114.777
11
126.522
21
-114.791
0
LINE
8
BLACK
6
CONTINUOUS
10
126.522
20
-114.791
11
126.515
21
-114.804
0
LINE
8
BLACK
6
CONTINUOUS
10
126.515
20
-114.804
11
126.505
21
-114.815
0
LINE
8
BLACK
6
CONTINUOUS
10
126.505
20
-114.815
11
126.494
21
-114.824
0
LINE
8
BLACK
6
CONTINUOUS
10
126.494
20
-114.824
11
126.481
21
-114.831
0
LINE
8
BLACK
6
CONTINUOUS
10
126.481
20
-114.831
11
126.467
21
-114.835
0
LINE
8
BLACK
6
CONTINUOUS
10
126.467
20
-114.835
11
126.452
21
-114.837
0
LINE
8
BLACK
6
CONTINUOUS
10
126.452
20
-114.837
11
125.786
21
-114.837
0
LINE
8
BLACK
6
CONTINUOUS
10
125.786
20
-114.837
11
125.785
21
-114.837
0
LINE
8
BLACK
6
CONTINUOUS
10
125.785
20
-113.504
11
125.77
21
-113.502
0
LINE
8
BLACK
6
CONTINUOUS
10
125.77
20
-113.502
11
125.756
21
-113.498
0
LINE
8
BLACK
6
CONTINUOUS
10
125.756
20
-113.498
11
125.743
21
-113.49
0
LINE
8
BLACK
6
CONTINUOUS
10
125.743
20
-113.49
11
125.732
21
-113.481
0
LINE
8
BLACK
6
CONTINUOUS
10
125.732
20
-113.481
11
125.723
21
-113.47
0
LINE
8
BLACK
6
CONTINUOUS
10
125.723
20
-113.47
11
125.716
21
-113.457
0
LINE
8
BLACK
6
CONTINUOUS
10
125.716
20
-113.457
11
125.712
21
-113.443
0
LINE
8
BLACK
6
CONTINUOUS
10
125.712
20
-113.443
11
125.711
21
-113.428
0
LINE
8
BLACK
6
CONTINUOUS
10
125.711
20
-113.428
11
125.712
21
-113.413
0
LINE
8
BLACK
6
CONTINUOUS
10
125.712
20
-113.413
11
125.717
21
-113.4
0
LINE
8
BLACK
6
CONTINUOUS
10
125.717
20
-113.4
11
125.724
21
-113.387
0
LINE
8
BLACK
6
CONTINUOUS
10
125.724
20
-113.387
11
125.733
21
-113.375
0
LINE
8
BLACK
6
CONTINUOUS
10
125.733
20
-113.375
11
125.743
21
-113.367
0
LINE
8
BLACK
6
CONTINUOUS
10
125.743
20
-113.367
11
125.719
21
-113.319
0
LINE
8
BLACK
6
CONTINUOUS
10
125.719
20
-113.319
11
125.718
21
-113.318
0
LINE
8
BLACK
6
CONTINUOUS
10
125.718
20
-113.318
11
125.717
21
-113.316
0
LINE
8
BLACK
6
CONTINUOUS
10
125.717
20
-113.316
11
125.716
21
-113.314
0
LINE
8
BLACK
6
CONTINUOUS
10
125.716
20
-113.314
11
125.715
21
-113.309
0
LINE
8
BLACK
6
CONTINUOUS
10
125.715
20
-113.309
11
125.713
21
-113.305
0
LINE
8
BLACK
6
CONTINUOUS
10
125.713
20
-113.305
11
125.713
21
-113.302
0
LINE
8
BLACK
6
CONTINUOUS
10
125.713
20
-113.302
11
125.712
21
-113.3
0
LINE
8
BLACK
6
CONTINUOUS
10
125.712
20
-113.3
11
125.712
21
-113.295
0
LINE
8
BLACK
6
CONTINUOUS
10
125.712
20
-113.295
11
125.711
21
-113.29
0
LINE
8
BLACK
6
CONTINUOUS
10
125.711
20
-113.29
11
125.711
21
-113.288
0
LINE
8
BLACK
6
CONTINUOUS
10
125.711
20
-113.288
11
125.711
21
-113.286
0
LINE
8
BLACK
6
CONTINUOUS
10
125.711
20
-113.286
11
125.711
21
-113.143
0
LINE
8
BLACK
6
CONTINUOUS
10
125.711
20
-113.143
11
125.711
21
-113.142
0
LINE
8
BLACK
6
CONTINUOUS
10
125.711
20
-113.142
11
125.711
21
-113.14
0
LINE
8
BLACK
6
CONTINUOUS
10
125.711
20
-113.14
11
125.711
21
-113.137
0
LINE
8
BLACK
6
CONTINUOUS
10
125.711
20
-113.137
11
125.712
21
-113.132
0
LINE
8
BLACK
6
CONTINUOUS
10
125.712
20
-113.132
11
125.712
21
-113.127
0
LINE
8
BLACK
6
CONTINUOUS
10
125.712
20
-113.127
11
125.713
21
-113.125
0
LINE
8
BLACK
6
CONTINUOUS
10
125.713
20
-113.125
11
125.713
21
-113.123
0
LINE
8
BLACK
6
CONTINUOUS
10
125.713
20
-113.123
11
125.715
21
-113.118
0
LINE
8
BLACK
6
CONTINUOUS
10
125.715
20
-113.118
11
125.717
21
-113.113
0
LINE
8
BLACK
6
CONTINUOUS
10
125.717
20
-113.113
11
125.718
21
-113.111
0
LINE
8
BLACK
6
CONTINUOUS
10
125.718
20
-113.111
11
125.719
21
-113.109
0
LINE
8
BLACK
6
CONTINUOUS
10
125.719
20
-113.109
11
125.766
21
-113.014
0
LINE
8
BLACK
6
CONTINUOUS
10
125.766
20
-113.014
11
125.767
21
-113.013
0
LINE
8
BLACK
6
CONTINUOUS
10
125.767
20
-113.013
11
125.768
21
-113.012
0
LINE
8
BLACK
6
CONTINUOUS
10
125.768
20
-113.012
11
125.768
21
-113.01
0
LINE
8
BLACK
6
CONTINUOUS
10
125.768
20
-113.01
11
125.772
21
-113.006
0
LINE
8
BLACK
6
CONTINUOUS
10
125.772
20
-113.006
11
125.775
21
-113.001
0
LINE
8
BLACK
6
CONTINUOUS
10
125.775
20
-113.001
11
125.776
21
-113
0
LINE
8
BLACK
6
CONTINUOUS
10
125.776
20
-113
11
125.775
21
-112.999
0
LINE
8
BLACK
6
CONTINUOUS
10
125.775
20
-112.999
11
125.774
21
-112.998
0
LINE
8
BLACK
6
CONTINUOUS
10
125.774
20
-112.998
11
125.771
21
-112.993
0
LINE
8
BLACK
6
CONTINUOUS
10
125.771
20
-112.993
11
125.768
21
-112.989
0
LINE
8
BLACK
6
CONTINUOUS
10
125.768
20
-112.989
11
125.767
21
-112.987
0
LINE
8
BLACK
6
CONTINUOUS
10
125.767
20
-112.987
11
125.766
21
-112.986
0
LINE
8
BLACK
6
CONTINUOUS
10
125.766
20
-112.986
11
125.719
21
-112.891
0
LINE
8
BLACK
6
CONTINUOUS
10
125.719
20
-112.891
11
125.718
21
-112.89
0
LINE
8
BLACK
6
CONTINUOUS
10
125.718
20
-112.89
11
125.717
21
-112.888
0
LINE
8
BLACK
6
CONTINUOUS
10
125.717
20
-112.888
11
125.716
21
-112.886
0
LINE
8
BLACK
6
CONTINUOUS
10
125.716
20
-112.886
11
125.715
21
-112.881
0
LINE
8
BLACK
6
CONTINUOUS
10
125.715
20
-112.881
11
125.713
21
-112.876
0
LINE
8
BLACK
6
CONTINUOUS
10
125.713
20
-112.876
11
125.713
21
-112.874
0
LINE
8
BLACK
6
CONTINUOUS
10
125.713
20
-112.874
11
125.712
21
-112.872
0
LINE
8
BLACK
6
CONTINUOUS
10
125.712
20
-112.872
11
125.712
21
-112.867
0
LINE
8
BLACK
6
CONTINUOUS
10
125.712
20
-112.867
11
125.711
21
-112.862
0
LINE
8
BLACK
6
CONTINUOUS
10
125.711
20
-112.862
11
125.711
21
-112.859
0
LINE
8
BLACK
6
CONTINUOUS
10
125.711
20
-112.859
11
125.711
21
-112.857
0
LINE
8
BLACK
6
CONTINUOUS
10
125.711
20
-112.857
11
125.711
21
-112.714
0
LINE
8
BLACK
6
CONTINUOUS
10
125.711
20
-112.714
11
125.711
21
-112.713
0
LINE
8
BLACK
6
CONTINUOUS
10
125.711
20
-112.713
11
125.711
21
-112.711
0
LINE
8
BLACK
6
CONTINUOUS
10
125.711
20
-112.711
11
125.711
21
-112.709
0
LINE
8
BLACK
6
CONTINUOUS
10
125.711
20
-112.709
11
125.712
21
-112.704
0
LINE
8
BLACK
6
CONTINUOUS
10
125.712
20
-112.704
11
125.712
21
-112.699
0
LINE
8
BLACK
6
CONTINUOUS
10
125.712
20
-112.699
11
125.713
21
-112.697
0
LINE
8
BLACK
6
CONTINUOUS
10
125.713
20
-112.697
11
125.713
21
-112.694
0
LINE
8
BLACK
6
CONTINUOUS
10
125.713
20
-112.694
11
125.715
21
-112.69
0
LINE
8
BLACK
6
CONTINUOUS
10
125.715
20
-112.69
11
125.717
21
-112.685
0
LINE
8
BLACK
6
CONTINUOUS
10
125.717
20
-112.685
11
125.718
21
-112.683
0
LINE
8
BLACK
6
CONTINUOUS
10
125.718
20
-112.683
11
125.719
21
-112.681
0
LINE
8
BLACK
6
CONTINUOUS
10
125.719
20
-112.681
11
125.766
21
-112.586
0
LINE
8
BLACK
6
CONTINUOUS
10
125.766
20
-112.586
11
125.767
21
-112.585
0
LINE
8
BLACK
6
CONTINUOUS
10
125.767
20
-112.585
11
125.768
21
-112.583
0
LINE
8
BLACK
6
CONTINUOUS
10
125.768
20
-112.583
11
125.768
21
-112.582
0
LINE
8
BLACK
6
CONTINUOUS
10
125.768
20
-112.582
11
125.772
21
-112.577
0
LINE
8
BLACK
6
CONTINUOUS
10
125.772
20
-112.577
11
125.775
21
-112.572
0
LINE
8
BLACK
6
CONTINUOUS
10
125.775
20
-112.572
11
125.776
21
-112.571
0
LINE
8
BLACK
6
CONTINUOUS
10
125.776
20
-112.571
11
125.777
21
-112.57
0
LINE
8
BLACK
6
CONTINUOUS
10
125.777
20
-112.57
11
125.781
21
-112.566
0
LINE
8
BLACK
6
CONTINUOUS
10
125.781
20
-112.566
11
125.785
21
-112.562
0
LINE
8
BLACK
6
CONTINUOUS
10
125.785
20
-112.562
11
125.786
21
-112.561
0
LINE
8
BLACK
6
CONTINUOUS
10
125.786
20
-112.561
11
125.787
21
-112.56
0
LINE
8
BLACK
6
CONTINUOUS
10
125.787
20
-112.56
11
125.792
21
-112.557
0
LINE
8
BLACK
6
CONTINUOUS
10
125.792
20
-112.557
11
125.797
21
-112.553
0
LINE
8
BLACK
6
CONTINUOUS
10
125.797
20
-112.553
11
125.798
21
-112.553
0
LINE
8
BLACK
6
CONTINUOUS
10
125.798
20
-112.553
11
125.8
21
-112.552
0
LINE
8
BLACK
6
CONTINUOUS
10
125.8
20
-112.552
11
125.895
21
-112.504
0
LINE
8
BLACK
6
CONTINUOUS
10
125.895
20
-112.504
11
125.896
21
-112.504
0
LINE
8
BLACK
6
CONTINUOUS
10
125.896
20
-112.504
11
125.898
21
-112.503
0
LINE
8
BLACK
6
CONTINUOUS
10
125.898
20
-112.503
11
125.9
21
-112.502
0
LINE
8
BLACK
6
CONTINUOUS
10
125.9
20
-112.502
11
125.905
21
-112.501
0
LINE
8
BLACK
6
CONTINUOUS
10
125.905
20
-112.501
11
125.91
21
-112.499
0
LINE
8
BLACK
6
CONTINUOUS
10
125.91
20
-112.499
11
125.912
21
-112.498
0
LINE
8
BLACK
6
CONTINUOUS
10
125.912
20
-112.498
11
125.914
21
-112.498
0
LINE
8
BLACK
6
CONTINUOUS
10
125.914
20
-112.498
11
125.919
21
-112.497
0
LINE
8
BLACK
6
CONTINUOUS
10
125.919
20
-112.497
11
125.924
21
-112.497
0
LINE
8
BLACK
6
CONTINUOUS
10
125.924
20
-112.497
11
125.926
21
-112.497
0
LINE
8
BLACK
6
CONTINUOUS
10
125.926
20
-112.497
11
125.929
21
-112.496
0
LINE
8
BLACK
6
CONTINUOUS
10
125.929
20
-112.496
11
126.452
21
-112.496
0
LINE
8
BLACK
6
CONTINUOUS
10
126.452
20
-112.496
11
126.453
21
-112.496
0
LINE
8
BLACK
6
CONTINUOUS
10
126.453
20
-112.496
11
126.468
21
-112.498
0
LINE
8
BLACK
6
CONTINUOUS
10
126.468
20
-112.498
11
126.482
21
-112.502
0
LINE
8
BLACK
6
CONTINUOUS
10
126.482
20
-112.502
11
126.495
21
-112.51
0
LINE
8
BLACK
6
CONTINUOUS
10
126.495
20
-112.51
11
126.506
21
-112.519
0
LINE
8
BLACK
6
CONTINUOUS
10
126.506
20
-112.519
11
126.515
21
-112.53
0
LINE
8
BLACK
6
CONTINUOUS
10
126.515
20
-112.53
11
126.522
21
-112.543
0
LINE
8
BLACK
6
CONTINUOUS
10
126.522
20
-112.543
11
126.526
21
-112.557
0
LINE
8
BLACK
6
CONTINUOUS
10
126.526
20
-112.557
11
126.527
21
-112.572
0
LINE
8
BLACK
6
CONTINUOUS
10
126.527
20
-112.572
11
126.526
21
-112.587
0
LINE
8
BLACK
6
CONTINUOUS
10
126.526
20
-112.587
11
126.522
21
-112.6
0
LINE
8
BLACK
6
CONTINUOUS
10
126.522
20
-112.6
11
126.515
21
-112.613
0
LINE
8
BLACK
6
CONTINUOUS
10
126.515
20
-112.613
11
126.505
21
-112.625
0
LINE
8
BLACK
6
CONTINUOUS
10
126.505
20
-112.625
11
126.494
21
-112.634
0
LINE
8
BLACK
6
CONTINUOUS
10
126.494
20
-112.634
11
126.481
21
-112.641
0
LINE
8
BLACK
6
CONTINUOUS
10
126.481
20
-112.641
11
126.467
21
-112.645
0
LINE
8
BLACK
6
CONTINUOUS
10
126.467
20
-112.645
11
126.452
21
-112.646
0
LINE
8
BLACK
6
CONTINUOUS
10
126.452
20
-112.646
11
125.946
21
-112.646
0
LINE
8
BLACK
6
CONTINUOUS
10
125.946
20
-112.646
11
125.889
21
-112.675
0
LINE
8
BLACK
6
CONTINUOUS
10
125.889
20
-112.675
11
125.861
21
-112.732
0
LINE
8
BLACK
6
CONTINUOUS
10
125.861
20
-112.732
11
125.861
21
-112.839
0
LINE
8
BLACK
6
CONTINUOUS
10
125.861
20
-112.839
11
125.889
21
-112.896
0
LINE
8
BLACK
6
CONTINUOUS
10
125.889
20
-112.896
11
125.946
21
-112.925
0
LINE
8
BLACK
6
CONTINUOUS
10
125.946
20
-112.925
11
126.452
21
-112.925
0
LINE
8
BLACK
6
CONTINUOUS
10
126.452
20
-112.925
11
126.453
21
-112.925
0
LINE
8
BLACK
6
CONTINUOUS
10
126.453
20
-112.925
11
126.468
21
-112.927
0
LINE
8
BLACK
6
CONTINUOUS
10
126.468
20
-112.927
11
126.482
21
-112.931
0
LINE
8
BLACK
6
CONTINUOUS
10
126.482
20
-112.931
11
126.495
21
-112.938
0
LINE
8
BLACK
6
CONTINUOUS
10
126.495
20
-112.938
11
126.506
21
-112.948
0
LINE
8
BLACK
6
CONTINUOUS
10
126.506
20
-112.948
11
126.515
21
-112.959
0
LINE
8
BLACK
6
CONTINUOUS
10
126.515
20
-112.959
11
126.522
21
-112.972
0
LINE
8
BLACK
6
CONTINUOUS
10
126.522
20
-112.972
11
126.526
21
-112.986
0
LINE
8
BLACK
6
CONTINUOUS
10
126.526
20
-112.986
11
126.527
21
-113.001
0
LINE
8
BLACK
6
CONTINUOUS
10
126.527
20
-113.001
11
126.526
21
-113.015
0
LINE
8
BLACK
6
CONTINUOUS
10
126.526
20
-113.015
11
126.522
21
-113.029
0
LINE
8
BLACK
6
CONTINUOUS
10
126.522
20
-113.029
11
126.515
21
-113.042
0
LINE
8
BLACK
6
CONTINUOUS
10
126.515
20
-113.042
11
126.505
21
-113.053
0
LINE
8
BLACK
6
CONTINUOUS
10
126.505
20
-113.053
11
126.494
21
-113.062
0
LINE
8
BLACK
6
CONTINUOUS
10
126.494
20
-113.062
11
126.481
21
-113.069
0
LINE
8
BLACK
6
CONTINUOUS
10
126.481
20
-113.069
11
126.467
21
-113.074
0
LINE
8
BLACK
6
CONTINUOUS
10
126.467
20
-113.074
11
126.452
21
-113.075
0
LINE
8
BLACK
6
CONTINUOUS
10
126.452
20
-113.075
11
125.946
21
-113.075
0
LINE
8
BLACK
6
CONTINUOUS
10
125.946
20
-113.075
11
125.889
21
-113.104
0
LINE
8
BLACK
6
CONTINUOUS
10
125.889
20
-113.104
11
125.861
21
-113.161
0
LINE
8
BLACK
6
CONTINUOUS
10
125.861
20
-113.161
11
125.861
21
-113.268
0
LINE
8
BLACK
6
CONTINUOUS
10
125.861
20
-113.268
11
125.895
21
-113.337
0
LINE
8
BLACK
6
CONTINUOUS
10
125.895
20
-113.337
11
125.912
21
-113.354
0
LINE
8
BLACK
6
CONTINUOUS
10
125.912
20
-113.354
11
126.452
21
-113.354
0
LINE
8
BLACK
6
CONTINUOUS
10
126.452
20
-113.354
11
126.453
21
-113.354
0
LINE
8
BLACK
6
CONTINUOUS
10
126.453
20
-113.354
11
126.468
21
-113.355
0
LINE
8
BLACK
6
CONTINUOUS
10
126.468
20
-113.355
11
126.482
21
-113.36
0
LINE
8
BLACK
6
CONTINUOUS
10
126.482
20
-113.36
11
126.495
21
-113.367
0
LINE
8
BLACK
6
CONTINUOUS
10
126.495
20
-113.367
11
126.506
21
-113.376
0
LINE
8
BLACK
6
CONTINUOUS
10
126.506
20
-113.376
11
126.515
21
-113.388
0
LINE
8
BLACK
6
CONTINUOUS
10
126.515
20
-113.388
11
126.522
21
-113.4
0
LINE
8
BLACK
6
CONTINUOUS
10
126.522
20
-113.4
11
126.526
21
-113.415
0
LINE
8
BLACK
6
CONTINUOUS
10
126.526
20
-113.415
11
126.527
21
-113.429
0
LINE
8
BLACK
6
CONTINUOUS
10
126.527
20
-113.429
11
126.526
21
-113.444
0
LINE
8
BLACK
6
CONTINUOUS
10
126.526
20
-113.444
11
126.522
21
-113.458
0
LINE
8
BLACK
6
CONTINUOUS
10
126.522
20
-113.458
11
126.515
21
-113.471
0
LINE
8
BLACK
6
CONTINUOUS
10
126.515
20
-113.471
11
126.505
21
-113.482
0
LINE
8
BLACK
6
CONTINUOUS
10
126.505
20
-113.482
11
126.494
21
-113.491
0
LINE
8
BLACK
6
CONTINUOUS
10
126.494
20
-113.491
11
126.481
21
-113.498
0
LINE
8
BLACK
6
CONTINUOUS
10
126.481
20
-113.498
11
126.467
21
-113.502
0
LINE
8
BLACK
6
CONTINUOUS
10
126.467
20
-113.502
11
126.452
21
-113.504
0
LINE
8
BLACK
6
CONTINUOUS
10
126.452
20
-113.504
11
125.786
21
-113.504
0
LINE
8
BLACK
6
CONTINUOUS
10
125.786
20
-113.504
11
125.785
21
-113.504
  0
ENDSEC
  0
EOF
